<svg viewBox="0 0 20 20" fill="none" xmlns="http://www.w3.org/2000/svg">
<g clip-path="url(#clip0_11742_65478)">
<circle cx="10" cy="10" r="10" fill="#FF4F00"/>
<path d="M4.75484 9.48367C5.11554 9.43344 5.47076 9.3893 5.82431 9.33447C5.94826 9.31525 6.06905 9.27266 6.18938 9.2347C6.23067 9.22167 6.27014 9.19488 6.30355 9.16631C6.40477 9.07974 6.40622 8.94577 6.30067 8.86489C6.23897 8.81761 6.16711 8.77463 6.09305 8.754C5.78396 8.66791 5.47865 8.67804 5.18725 8.82527C5.13044 8.85397 5.07418 8.89163 5.03128 8.9378C4.98565 8.98692 4.9386 8.99875 4.87536 8.99829C4.5137 8.99562 4.15201 8.99699 3.79033 8.99699C3.76308 8.99699 3.73584 8.99699 3.70319 8.99699C3.7502 8.76675 3.84634 8.56518 3.98937 8.38703C4.31031 7.98729 4.74421 7.79009 5.23779 7.71261C5.67561 7.64388 6.10912 7.67088 6.53718 7.79482C7.09967 7.95767 7.51102 8.45388 7.54844 9.03648C7.56007 9.21774 7.55643 9.40007 7.55694 9.58193C7.55863 10.178 7.55528 10.7742 7.56182 11.3702C7.56428 11.5941 7.60001 11.8155 7.69327 12.0232C7.69914 12.0362 7.70178 12.0508 7.70777 12.0707C7.5542 12.0707 7.40479 12.0707 7.25539 12.0707C7.04836 12.0707 6.84132 12.0699 6.6343 12.0715C6.59739 12.0718 6.57514 12.0647 6.56295 12.0259C6.53937 11.9508 6.51075 11.8773 6.48219 11.7975C6.41318 11.8418 6.34295 11.8902 6.26954 11.9333C6.01562 12.0822 5.73752 12.1436 5.44639 12.1612C5.15306 12.179 4.86525 12.1525 4.58417 12.0658C4.16602 11.9369 3.81516 11.7134 3.64452 11.2946C3.46631 10.8572 3.47068 10.4196 3.7529 10.0162C3.90105 9.80441 4.11962 9.68346 4.35556 9.59627C4.48286 9.54923 4.61741 9.52182 4.75484 9.48367ZM5.15582 11.0351C5.42615 11.0673 5.69197 11.0459 5.94954 10.9568C6.08737 10.9091 6.20825 10.8327 6.29691 10.7114C6.41873 10.5448 6.39099 10.3556 6.39018 10.1645C6.32481 10.1872 6.26803 10.2154 6.20809 10.2264C5.89857 10.2829 5.58817 10.3347 5.2782 10.3889C5.12868 10.415 4.97987 10.4437 4.85189 10.5338C4.70666 10.6361 4.7017 10.8355 4.85328 10.925C4.94065 10.9766 5.04571 10.9982 5.15582 11.0351Z" fill="#FFFFFE"/>
<path d="M10.6976 10.7272C10.7308 10.6804 10.7716 10.6414 10.7876 10.594C10.809 10.5303 10.8464 10.5226 10.9039 10.5229C11.2881 10.5248 11.6723 10.5239 12.0564 10.5239C12.0812 10.5239 12.1059 10.5239 12.1363 10.5239C11.937 11.3519 11.4494 11.8989 10.6189 12.1086C10.0932 12.2413 9.57072 12.2113 9.06981 11.9966C8.52614 11.7637 8.13628 11.3683 7.92132 10.8163C7.67622 10.1868 7.68601 9.55273 7.9723 8.94043C8.29233 8.25596 8.84018 7.85077 9.58622 7.7256C10.041 7.64929 10.4896 7.68897 10.9182 7.86363C11.4569 8.08316 11.8295 8.47104 12.0345 9.01629C12.0753 9.12474 12.1042 9.23766 12.1401 9.35359C11.7086 9.35359 11.2871 9.35489 10.8656 9.35076C10.8363 9.35048 10.7972 9.31594 10.78 9.287C10.6436 9.05651 10.4489 8.90505 10.187 8.84767C9.81041 8.76515 9.42847 8.93753 9.20882 9.28165C8.93992 9.70293 8.94729 10.2491 9.24319 10.6552C9.59724 11.1411 10.2973 11.182 10.6976 10.7272Z" fill="#FFFFFE"/>
<path d="M12.3353 7.20057C12.3353 7.03872 12.3353 6.88435 12.3353 6.72375C12.7419 6.72375 13.1447 6.72375 13.555 6.72375C13.555 7.06768 13.555 7.41297 13.555 7.7662C13.8053 7.7662 14.0483 7.7662 14.2962 7.7662C14.2962 8.14196 14.2962 8.50979 14.2962 8.88641C14.0546 8.88641 13.8118 8.88641 13.5743 8.88641C13.5667 8.89916 13.5621 8.90323 13.5621 8.90731C13.5621 9.39126 13.5604 9.87523 13.5642 10.3592C13.5653 10.4969 13.5943 10.6314 13.6779 10.7469C13.783 10.8919 13.9383 10.9309 14.104 10.939C14.1818 10.9428 14.2603 10.9306 14.3423 10.9254C14.3423 11.2907 14.3423 11.6642 14.3423 12.059C14.1945 12.0629 14.0464 12.0733 13.8988 12.0695C13.4782 12.0586 13.1018 11.9302 12.8029 11.6228C12.5671 11.3802 12.4342 11.0816 12.3816 10.7513C12.3517 10.563 12.3381 10.3703 12.3373 10.1796C12.3331 9.18907 12.3353 8.19856 12.3353 7.20057Z" fill="#FFFFFE"/>
<path d="M15.8731 8.62667C15.799 9.24532 15.725 9.85716 15.6507 10.469C15.6499 10.4762 15.6456 10.4829 15.6414 10.4939C15.4289 10.4939 15.2151 10.4939 14.9933 10.4939C14.8406 9.24345 14.6822 7.99527 14.5738 6.73645C15.0752 6.73645 15.5664 6.73645 16.0759 6.73645C16.0079 7.36799 15.9406 7.99393 15.8731 8.62667Z" fill="#FFFFFE"/>
<path d="M15.9658 11.6215C15.9243 11.9382 15.6543 12.1752 15.3312 12.183C15.0194 12.1905 14.74 11.9638 14.6819 11.656C14.6205 11.3314 14.8051 11.0138 15.1141 10.9125C15.4295 10.8091 15.7718 10.954 15.9109 11.2515C15.9647 11.3667 15.9851 11.4883 15.9658 11.6215Z" fill="#FFFEFE"/>
<path d="M5.14931 11.0342C5.04571 10.9982 4.94065 10.9766 4.85328 10.925C4.70169 10.8356 4.70666 10.6362 4.85188 10.5339C4.97986 10.4437 5.12867 10.415 5.27819 10.3889C5.58816 10.3348 5.89856 10.283 6.20809 10.2265C6.26803 10.2155 6.32481 10.1873 6.39018 10.1646C6.39098 10.3557 6.41872 10.5449 6.2969 10.7115C6.20824 10.8327 6.08737 10.9092 5.94953 10.9569C5.69196 11.0459 5.42614 11.0673 5.14931 11.0342Z" fill="#FF5002"/>
<path d="M16.4615 6.80704V6.73926H16.8177V6.80704H16.6797V7.18564H16.5995V6.80704H16.4615Z" fill="white"/>
<path d="M16.8557 6.73926H16.9546L17.0871 7.06271H17.0924L17.2249 6.73926H17.3238V7.18564H17.2462V6.87897H17.2421L17.1187 7.18433H17.0608L16.9374 6.87832H16.9333V7.18564H16.8557V6.73926Z" fill="white"/>
</g>
<defs>
<clipPath id="clip0_11742_65478">
<rect width="20" height="20" fill="white"/>
</clipPath>
</defs>
</svg>