<svg viewBox="0 0 20 20" fill="none" xmlns="http://www.w3.org/2000/svg">
<rect width="20" height="20" fill="#2861AE"/>
<path d="M14.8639 8.95372C14.6419 8.76056 5.60261 2.35412 5.19029 2.09658L5.06342 2V3.57746C5.06342 4.09256 5.31715 4.25352 5.63432 4.51107L5.69775 4.54326C6.14178 4.86519 12.5803 9.40443 13.4366 10.0161C12.5803 10.6278 6.04664 15.2314 5.63432 15.4889C5.12685 15.8109 5.09513 16.0362 5.09513 16.4869V18C5.09513 18 14.7053 11.2072 14.8956 11.0463C15.3396 10.7243 15.4348 10.3058 15.4348 10.0483V9.85513C15.4348 9.5332 15.2445 9.21127 14.8639 8.95372Z" fill="white"/>
<path d="M9.21831 10.7243C9.47204 10.7243 9.72577 10.6277 9.97951 10.4345C10.2967 10.2092 10.5821 10.016 10.5821 10.016L10.6773 9.95163L10.5821 9.88724C10.5504 9.85505 6.33209 6.89328 5.88806 6.60354C5.69776 6.44258 5.44403 6.41038 5.28545 6.50696C5.12686 6.60354 5 6.76451 5 7.02205V8.02004L5.03172 8.05223C5.06344 8.08443 7.94965 10.1126 8.52055 10.4989C8.77428 10.6599 8.99629 10.7243 9.21831 10.7243Z" fill="white"/>
</svg>