<svg
   
   
    viewBox="0 0 2500 2500"
    fill="none"
    xmlns="http://www.w3.org/2000/svg"
  >
    <g>
      <path
        fill="#FCB615"
        d="M731.1,1411.9c-102.2,0-185.3,83.1-185.3,185.3c0,102.2,83.1,185.3,185.3,185.3
		c102.2,0,185.3-83.1,185.3-185.3C916.5,1495,833.3,1411.9,731.1,1411.9"
      />
      <path
        fill="#EE363F"
        d="M213.3,1411.9C111.1,1411.9,28,1495,28,1597.2c0,102.2,83.1,185.3,185.3,185.3c102.1,0,185.2-83.1,185.2-185.3
		C398.6,1495,315.5,1411.9,213.3,1411.9"
      />
      <path
        fill="#05B057"
        d="M1249,1411.9c-102.2,0-185.4,83.1-185.4,185.3c0,102.2,83.2,185.3,185.4,185.3c102.1,0,185.3-83.1,185.3-185.3
		C1434.3,1495,1351.1,1411.9,1249,1411.9"
      />
      <path
        fill="#03A9E0"
        d="M2284.6,1411.9c-102.1,0-185.4,83.1-185.4,185.3c0,102.2,83.2,185.3,185.4,185.3
		c102.2,0,185.3-83.1,185.3-185.3C2469.9,1495,2386.8,1411.9,2284.6,1411.9"
      />
      <path
        fill="#A1479A"
        d="M1766.8,1411.9c-102.2,0-185.3,83.1-185.3,185.3c0,102.2,83.1,185.3,185.3,185.3s185.3-83.1,185.3-185.3
		C1952.1,1495,1869,1411.9,1766.8,1411.9"
      />
      <path
        fill="#5A5B5B"
        d="M367.8,886.8c0-86.7-65.4-152-152-152c-86.6,0-152.1,65.3-152.1,152c0,86.6,65.5,151.9,152.1,151.9
		C302.4,1038.7,367.8,973.4,367.8,886.8 M0,886.8c0-120.2,96.4-210.9,215.8-210.9c120.2,0,215.8,89.9,215.8,210.1v184.7
		c0,18.8-13.1,31.9-32.7,31.9c-20.4,0-32.6-13.1-32.6-31.9v-54h-3.3c-25.4,43.4-76,81-151.2,81C95.6,1097.7,0,1007.7,0,886.8"
      />
      <path
        fill="#5A5B5B"
        d="M884.3,886.8c0-86.7-65.4-152-152-152c-86.6,0-152.1,65.3-152.1,152c0,86.6,65.4,151.9,152.1,151.9
		C818.9,1038.8,884.3,973.4,884.3,886.8 M599.9,1234.2c-17.2-8.2-25.3-23-18.8-40.1c6.5-18,22.9-25.3,40.1-17.2
		c29.4,13.9,66.1,23.7,105.4,23.7c97.2,0,156.1-58,156.1-156.9v-27h-3.3c-25.3,43.4-76,80.9-151.2,80.9
		c-116.1,0-211.7-89.9-211.7-210.8c0-120.2,96.4-210.9,215.8-210.9c120.1,0,215.7,89.9,215.7,210.1v153.6
		c0,132.4-85,221.6-223.9,221.6C681.6,1261.2,639.1,1253,599.9,1234.2"
      />
      <path
        fill="#5A5B5B"
        d="M1400.9,886.8c0-86.7-65.4-152-152-152c-86.6,0-152,65.3-152,152c0,86.6,65.4,151.9,152,151.9
		C1335.5,1038.7,1400.9,973.4,1400.9,886.8 M1033.1,886.8c0-120.2,95.7-210.9,215.8-210.9c120.1,0,215.8,90.8,215.8,210.9
		c0,120.2-95.6,210.8-215.8,210.8C1128.7,1097.7,1033.1,1007,1033.1,886.8"
      />
      <path
        fill="#5A5B5B"
        d="M1917.4,886.8c0-86.7-65.4-152-152-152c-86.6,0-152,65.3-152,152c0,86.6,65.4,151.9,152,151.9
		C1852,1038.7,1917.4,973.4,1917.4,886.8 M1549.6,886.8c0-120.2,94.8-210.9,211.7-210.9c75.2,0,125.8,37.6,151.2,81h3.3V541.9
		c0-18.8,13.1-31.9,32.7-31.9c20.4,0,32.6,13.1,32.6,31.9v345.7c0,120.1-95.6,210-215.7,210C1646.1,1097.7,1549.6,1007,1549.6,886.8
		"
      />
      <path
        fill="#5A5B5B"
        d="M2434,886.8c0-86.7-65.3-152-152-152c-86.6,0-152,65.3-152,152c0,86.6,65.4,151.9,152,151.9
		C2368.6,1038.7,2434,973.4,2434,886.8 M2066.2,886.8c0-120.2,96.5-210.9,215.8-210.9c120.2,0,215.8,89.9,215.8,210.1v184.7
		c0,18.8-13.1,31.9-32.7,31.9c-20.4,0-32.7-13.1-32.7-31.9v-54h-3.3c-25.3,43.4-76,81-151.2,81
		C2161.8,1097.7,2066.2,1007.7,2066.2,886.8"
      />
    </g>
  </svg>