<svg
   
   
    viewBox="0 0 100 100"
    fill="none"
    xmlns="http://www.w3.org/2000/svg"
  >
    <g>
      <path
        fill="#E0565B"
        d="M89.9,81c-0.7,5.2-4.2,9.7-9.1,11.7c-2.4,1-5,1.3-7.6,1c-2.5-0.3-5-1.1-7.6-2.6c-3.6-2-7.2-5.1-11.4-9.7
		c6.6-8.1,10.6-15.5,12.1-22.1c0.7-3.1,0.8-5.9,0.5-8.5c-0.4-2.5-1.3-4.8-2.7-6.8c-3.1-4.5-8.3-7.1-14.1-7.1s-11,2.7-14.1,7.1
		c-1.4,2-2.3,4.3-2.7,6.8c-0.4,2.6-0.3,5.5,0.5,8.5c1.5,6.6,5.6,14.1,12.1,22.2c-4.1,4.6-7.8,7.7-11.4,9.7c-2.6,1.5-5.1,2.3-7.6,2.6
		c-2.7,0.3-5.3-0.1-7.6-1c-4.9-2-8.4-6.5-9.1-11.7c-0.3-2.5-0.1-5,0.9-7.8c0.3-1,0.8-2,1.3-3.2c0.7-1.6,1.5-3.3,2.3-5l0.1-0.2
		c6.9-14.9,14.3-30.1,22-44.9l0.3-0.6c0.8-1.5,1.6-3.1,2.4-4.6c0.8-1.6,1.7-3.1,2.8-4.4c2.1-2.4,4.9-3.7,8-3.7c3.1,0,5.9,1.3,8,3.7
		c1.1,1.3,2,2.8,2.8,4.4c0.8,1.5,1.6,3.1,2.4,4.6l0.3,0.6c7.6,14.9,15,30.1,21.9,45v0.1c0.8,1.6,1.5,3.4,2.3,5
		c0.5,1.2,1,2.2,1.3,3.2C90,75.9,90.3,78.4,89.9,81L89.9,81z M50,76.3c-5.4-6.8-8.9-13.2-10.1-18.6c-0.5-2.3-0.6-4.3-0.3-6.1
		c0.2-1.6,0.8-3,1.6-4.2c1.9-2.7,5.1-4.4,8.8-4.4s7,1.6,8.8,4.4c0.8,1.2,1.4,2.6,1.6,4.2c0.3,1.8,0.2,3.9-0.3,6.1
		C58.9,63,55.4,69.4,50,76.3L50,76.3z M95.1,71.1c-0.5-1.2-1-2.5-1.5-3.6c-0.8-1.8-1.6-3.5-2.3-5.1l-0.1-0.1
		C84.3,47.2,76.9,32,69.1,17l-0.3-0.6c-0.8-1.5-1.6-3.1-2.4-4.7c-1-1.8-2-3.7-3.6-5.5C59.6,2.2,55,0,50.1,0c-5,0-9.5,2.2-12.8,6
		c-1.5,1.8-2.6,3.7-3.6,5.5c-0.8,1.6-1.6,3.2-2.4,4.7L31,16.8C23.3,31.8,15.8,47,8.9,62.1l-0.1,0.2c-0.7,1.6-1.5,3.3-2.3,5.1
		C6,68.5,5.5,69.7,5,71c-1.3,3.7-1.7,7.2-1.2,10.8c1.1,7.5,6.1,13.8,13,16.6c2.6,1.1,5.3,1.6,8.1,1.6c0.8,0,1.8-0.1,2.6-0.2
		c3.3-0.4,6.7-1.5,10-3.4c4.1-2.3,8-5.6,12.4-10.4c4.4,4.8,8.4,8.1,12.4,10.4c3.3,1.9,6.7,3,10,3.4c0.8,0.1,1.8,0.2,2.6,0.2
		c2.8,0,5.6-0.5,8.1-1.6c7-2.8,11.9-9.2,13-16.6C96.8,78.3,96.4,74.8,95.1,71.1L95.1,71.1z"
      />
    </g>
  </svg>