<svg
   
   
    viewBox="0 0 100 100"
    xmlns="http://www.w3.org/2000/svg"
  >
    <rect fill="#FF9900" width="100" height="100" />
    <g>
      <g>
        <path
          fill="#FFFFFF"
          d="M12.6,65.3c-0.3,0.3-0.4,0.7-0.2,1.4c0.2,0.6,0.6,1.3,1.3,2.1c2.7,3.3,5.9,6.1,9.7,8.3
			s7.8,3.9,12,4.9c4.3,1.1,8.7,1.6,13.1,1.6c5.7,0,11.2-0.8,16.4-2.5c5.2-1.7,9.5-4,13-7c1.2-1.1,1.8-1.9,1.8-2.6
			c0-0.2-0.1-0.5-0.3-0.7c-0.3-0.3-0.6-0.4-1-0.3c-0.4,0.1-0.9,0.3-1.6,0.7c-3.3,1.7-7.4,3.1-12.2,4.2c-4.8,1.1-9.7,1.6-14.9,1.6
			c-6.4,0-12.6-0.9-18.6-2.6s-11.3-4.5-15.9-8.2c-0.7-0.5-1.2-0.9-1.6-1C13.2,65.1,12.9,65.1,12.6,65.3L12.6,65.3z"
        />
        <path
          fill="#FFFFFF"
          d="M73.2,66.6c-0.4,0.4-0.5,0.7-0.3,1.1c0.1,0.3,0.4,0.5,0.7,0.5c0.4,0.1,0.9,0,1.6-0.1
			c1.1-0.2,2.2-0.4,3.4-0.5c1.2-0.1,2.2-0.1,3.1,0.1c0.9,0.1,1.4,0.3,1.6,0.7c0.3,0.5,0.2,1.5-0.4,3.1c-0.5,1.6-1.3,3.1-2.2,4.6
			c-0.4,0.6-0.6,1.1-0.7,1.4c-0.1,0.3,0,0.6,0.3,0.9c0.2,0.2,0.3,0.2,0.5,0.2c0.5,0,1.3-0.5,2.3-1.4c1.8-1.6,3.1-3.4,3.8-5.6
			c0.4-1.1,0.6-2.3,0.7-3.5c0.1-1.2,0-2.1-0.4-2.6c-0.3-0.5-1.1-0.9-2.3-1.3c-1.2-0.3-2.3-0.5-3.5-0.5c-2.3,0-4.5,0.5-6.6,1.6
			C74.1,65.9,73.6,66.3,73.2,66.6L73.2,66.6z"
        />
      </g>
      <path
        fill="#171D27"
        d="M64.3,20.1c-3-3.1-7.4-4.7-13.2-4.7c-4.9,0-9,1.1-12.2,3.3c-3.2,2.1-5.3,5.2-6.3,9.1c-0.2,0.6-0.1,1.2,0.1,1.5
		c0.2,0.4,0.6,0.6,1.2,0.7l7.8,1.4c1,0.2,1.6-0.3,1.9-1.4c1-3.7,3.2-5.6,6.8-5.6c2.2,0,3.8,0.7,4.9,2.2c1.1,1.4,1.6,3.6,1.6,6.5v1.2
		c-1.2-0.3-2.8-0.4-4.8-0.4c-4.2,0-7.9,0.7-11.1,2.1c-3.1,1.4-5.6,3.3-7.3,5.9c-1.7,2.6-2.5,5.5-2.5,8.9c0,2.8,0.6,5.3,1.7,7.5
		c1.1,2.1,2.8,3.8,4.8,5c2.1,1.2,4.4,1.8,7.2,1.8c2.8,0,5.2-0.7,7.2-2.1c2.1-1.4,3.6-3.3,4.6-5.8h0.5l1.1,5.4c0.2,1,0.8,1.5,1.7,1.5
		h7.4c0.4,0,0.8-0.1,1-0.4c0.3-0.3,0.5-0.7,0.5-1.1V33.8C68.9,27.8,67.4,23.3,64.3,20.1z M56.8,43.8c0,4-0.6,7-1.9,9.2
		c-1.3,2.1-3.1,3.2-5.4,3.2c-1.8,0-3.2-0.6-4.3-1.8c-1-1.2-1.5-2.8-1.5-4.9v0v0l0,0c0-2.8,0.9-4.9,2.7-6.5c1.8-1.6,4.3-2.5,7.4-2.5
		c1,0,2,0.1,3,0.3V43.8z"
      />
    </g>
  </svg>