<svg viewBox="0 0 100 100"  xmlns="http://www.w3.org/2000/svg">
    <path d="M0.37,48.74c1.13-2.24,1.87-4.83,3.47-6.65c4.23-4.79,11.42-4.83,16.18-0.55c2.11,1.9,4.27,3.8,6.63,5.36
	c3.05,2.02,6.35,1.77,9.34-0.21c1.99-1.32,3.83-2.91,5.55-4.56c5.03-4.82,11.69-4.94,16.75-0.23c1.65,1.53,3.31,3.08,5.14,4.37
	c3.82,2.68,7.27,2.71,11.08,0.03c2.02-1.41,3.79-3.18,5.64-4.82c3.65-3.23,8.77-3.95,13.03-1.81c4.09,2.06,6.71,6.58,6.41,11.04
	c-0.33,4.81-3.51,8.93-8.12,10.3c-4.2,1.24-8.01,0.44-11.32-2.51c-1.74-1.55-3.41-3.18-5.28-4.55c-3.91-2.86-7.75-2.86-11.66-0.03
	c-1.69,1.23-3.22,2.7-4.76,4.13c-5.04,4.68-11.59,4.72-16.62,0.11c-1.6-1.47-3.18-2.99-4.94-4.26c-3.9-2.82-7.8-2.79-11.68,0.05
	c-1.57,1.15-3.04,2.46-4.41,3.84C13.43,65.22,2.13,60.82,0.71,52c-0.03-0.2-0.22-0.37-0.34-0.56C0.37,50.54,0.37,49.64,0.37,48.74z"
    />
    <path d="M0.37,86.53c0.75-1.78,1.25-3.72,2.3-5.3c3.92-5.84,12.17-6.65,17.33-1.87c1.65,1.53,3.29,3.09,5.09,4.42
	c4.13,3.04,7.88,3.04,12.01-0.02c1.8-1.33,3.4-2.94,5.07-4.44c3.64-3.27,8.64-3.98,13-1.84c4.16,2.05,6.78,6.46,6.48,10.96
	c-0.32,4.83-3.43,8.93-8.04,10.36c-4.1,1.27-7.86,0.51-11.16-2.28c-2-1.69-3.89-3.54-6.01-5.06c-3.49-2.51-7.17-2.46-10.7-0.02
	c-1.59,1.1-3.15,2.34-4.48,3.74c-7.86,8.3-19.47,3.22-20.64-5.6c-0.02-0.12-0.17-0.23-0.27-0.34C0.37,88.33,0.37,87.43,0.37,86.53z"
    />
    <path d="M89.83,0.6c1.71,0.89,3.61,1.53,5.1,2.7c5.23,4.12,5.76,11.5,1.36,16.59c-4.15,4.8-11.79,5.12-16.58,0.73
	c-1.71-1.57-3.4-3.2-5.29-4.54c-4.07-2.89-7.87-2.82-11.84,0.2c-2.03,1.54-3.78,3.43-5.79,5c-5.34,4.17-13.16,2.85-16.82-2.77
	c-3.64-5.58-1.84-13.06,3.99-16.37c1.09-0.62,2.28-1.04,3.43-1.55c1.5,0,3.01,0,4.51,0c3.4,1.03,5.9,3.35,8.43,5.7
	c5.92,5.46,10.35,5.51,16.39,0.19c2.63-2.32,5.1-4.83,8.58-5.89C86.82,0.6,88.32,0.6,89.83,0.6z"/>
    <path d="M14.37,0.6c2.33,1.53,5.13,2.67,6.89,4.69c3.2,3.66,3.35,8.11,1.02,12.39c-2.33,4.28-6.12,6.33-11,5.99
	c-4.89-0.35-8.2-3.01-10.03-7.52c-0.33-0.82-0.59-1.67-0.88-2.5c0-0.9,0-1.8,0-2.7c0.57-1.51,1.01-3.08,1.74-4.51
	C3.74,3.3,6.7,1.79,9.85,0.6C11.36,0.6,12.86,0.6,14.37,0.6z"/>
    <path d="M99.25,87.9c-0.05,6.35-5.36,11.58-11.69,11.5c-6.38-0.08-11.64-5.38-11.55-11.66c0.09-6.37,5.36-11.55,11.69-11.5
	C94.05,76.29,99.29,81.58,99.25,87.9z"/>
  </svg>