<svg
   
   
    viewBox="0 0 100 100"
    xmlns="http://www.w3.org/2000/svg"
  >
    <rect class="st0" width="100" height="100" />
    <g>
      <g>
        <path
          d="M55.5,51.9V43h19.1V27.2L61,12.7l-2.9,3.1l9.1,10V35H48.8v-9l-1.1,1.2v6.9l-8.9-9.6l-16.7,18v19.4h24L41,67.5v23.1H81
			V67.5L61,45.7L55.5,51.9z M24.3,52.8V41.7L35.9,29l11.3,12.7v11.1H24.3z M71.7,80.6H44.3V67l13.6-15.1l13.8,14.9V80.6z"
        />
      </g>
      <g>
        <path
          fill="#DF0023"
          d="M52.3,48.6v-8.9h19.1V24.1L58.1,9.4L44.5,24.1v6.7l-8.9-9.6L19,39.2v19.4h24l-5.1,5.6v23.4h40.1V64.1
			l-20-21.8L52.3,48.6z M48.8,25.9l9.3-10l9.1,10V35H48.8V25.9z M24.3,52.8V41.7L35.9,29l11.3,12.7v11.1H24.3z M71.7,80.6H44.3V67
			l13.6-15.1l13.8,14.9V80.6z"
        />
      </g>
    </g>
  </svg>