<svg viewBox="0 0 21 20" fill="none" xmlns="http://www.w3.org/2000/svg">
    <g clip-path="url(#clip0_12006_68417)">
      <path
          d="M10.5547 11.3859H13.0817C13.8003 11.3859 14.2554 10.9911 14.2554 10.357C14.2554 9.75883 13.8003 9.32812 13.0817 9.32812H10.5547C10.4708 9.32812 10.399 9.39991 10.399 9.4717V11.2424C10.411 11.3261 10.4708 11.3859 10.5547 11.3859Z"
          fill="#34313F"/>
      <path
          d="M10.5547 15.4657H13.1655C13.9679 15.4657 14.447 15.0589 14.447 14.3411C14.447 13.7189 13.9919 13.2164 13.1655 13.2164H10.5547C10.4708 13.2164 10.399 13.2882 10.399 13.36V15.3101C10.411 15.4059 10.4708 15.4657 10.5547 15.4657Z"
          fill="#34313F"/>
      <path
          d="M19.8004 0.0439586L12.3272 7.4856H13.5488C15.453 7.4856 16.5788 8.68201 16.5788 9.98609C16.5788 11.015 15.8841 11.7687 15.1416 12.1037C15.0219 12.1516 15.0219 12.3191 15.1536 12.3669C16.0159 12.7019 16.6267 13.5992 16.6267 14.6521C16.6267 16.1356 15.6326 17.32 13.7045 17.32H8.41093C8.32709 17.32 8.25524 17.2483 8.25524 17.1765V11.5414L0.0514628 19.7009C-0.056324 19.8086 0.0155338 20 0.171226 20H19.8962C19.9681 20 20.028 19.9402 20.028 19.8684V0.151634C20.0639 0.0200298 19.8962 -0.0517538 19.8004 0.0439586Z"
          fill="#34313F"/>
    </g>
    <defs>
      <clipPath id="clip0_12006_68417">
        <rect width="20.0329" height="20" fill="white"/>
      </clipPath>
    </defs>
  </svg>