<svg viewBox="0 0 20 20" fill="none" xmlns="http://www.w3.org/2000/svg">
<g clip-path="url(#clip0_11622_65339)">
<circle cx="10" cy="10" r="10" fill="#0100A4"/>
<path fill-rule="evenodd" clip-rule="evenodd" d="M2.00539 6.52377C2.00042 6.53668 1.99854 8.09227 2.00122 9.98066L2.00611 13.4141L3.69812 13.4196C5.46238 13.4253 5.75352 13.4164 6.07455 13.3474C7.10837 13.1253 7.83685 12.4003 8.0813 11.3503C8.13242 11.1307 8.1525 10.6072 8.11928 10.3599C7.95827 9.16183 7.15352 8.29077 5.97478 8.03874C5.47461 7.9318 4.73362 7.97555 4.23892 8.14122C4.16107 8.1673 4.09094 8.18869 4.0831 8.18876C4.07527 8.18884 4.06885 7.80896 4.06885 7.34461V6.50032H3.04164C2.23736 6.50032 2.01246 6.5054 2.00539 6.52377ZM15.2095 9.96189V13.4238L16.2409 13.419L17.2723 13.4141V9.96189V6.5097L16.2409 6.50484L15.2095 6.5V9.96189ZM11.3597 7.98517C10.4703 8.0254 9.76529 8.30484 9.23936 8.82556C8.9347 9.12719 8.75263 9.42101 8.61217 9.83767C8.50029 10.1696 8.47191 10.3553 8.47284 10.7499C8.47346 11.0249 8.48145 11.1242 8.5158 11.2846C8.78426 12.5382 9.69147 13.3056 11.1108 13.4796C11.3575 13.5098 11.9657 13.5052 12.2275 13.4711C13.2791 13.3341 14.0791 12.8146 14.4969 11.9976C14.5953 11.805 14.6865 11.5334 14.7376 11.2805C14.793 11.0067 14.7973 10.5045 14.7465 10.2433C14.6343 9.66606 14.3908 9.19838 14.0035 8.81638C13.3856 8.20702 12.514 7.93296 11.3597 7.98517ZM5.29831 9.7282C5.49829 9.77867 5.6554 9.86632 5.80027 10.0083C5.99158 10.1958 6.08405 10.4221 6.08405 10.703C6.08405 11.179 5.77736 11.5381 5.25706 11.6714C5.04269 11.7263 4.45111 11.7144 4.12096 11.6485L4.06848 11.638L4.07343 10.7161L4.07835 9.79407L4.2577 9.75193C4.61905 9.66705 5.01983 9.65789 5.29831 9.7282ZM11.8915 9.73696C12.4773 9.85944 12.8164 10.385 12.6903 10.975C12.5661 11.5563 11.9559 11.8945 11.32 11.7346C11.1065 11.6809 10.9796 11.6122 10.8355 11.4722C10.3413 10.9922 10.4762 10.1169 11.0886 9.82987C11.3375 9.71322 11.621 9.68041 11.8915 9.73696ZM18.508 11.0521C18.044 11.1466 17.6537 11.5368 17.5586 12.0015C17.4399 12.5806 17.7278 13.1524 18.2609 13.3962C18.3341 13.4296 18.444 13.4672 18.5052 13.4795C18.6564 13.51 18.9208 13.5059 19.0593 13.4708C19.4515 13.3715 19.7858 13.0584 19.9188 12.6661C19.9649 12.53 19.9705 12.4862 19.9704 12.2602C19.9702 12.0347 19.9647 11.9913 19.9197 11.864C19.8295 11.6083 19.6943 11.4183 19.4988 11.2722C19.2127 11.0582 18.8612 10.9802 18.508 11.0521Z" fill="white"/>
</g>
<defs>
<clipPath id="clip0_11622_65339">
<rect width="20" height="20" fill="white"/>
</clipPath>
</defs>
</svg>