<svg viewBox="0 0 100 100" fill="none" xmlns="http://www.w3.org/2000/svg">
    <path fill="#07954F" d="M99.81,68.64c0,4.83-1.89,9.48-5.3,12.97c-3.4,3.49-8.04,5.56-12.96,5.77c-0.26,0-0.51,0-0.77,0H18.72
	c-4.72-0.09-9.24-1.9-12.68-5.07C2.6,79.14,0.47,74.82,0.07,70.2c-0.4-4.63,0.96-9.23,3.81-12.93c2.85-3.7,6.99-6.23,11.63-7.1
	c-0.39-1.53-0.59-3.09-0.6-4.67c0-4.96,2.01-9.72,5.57-13.23c3.57-3.51,8.4-5.49,13.45-5.5c3.29-0.01,6.52,0.83,9.36,2.44
	c3.46-6.83,9.45-12.1,16.74-14.72c7.29-2.62,15.32-2.4,22.45,0.62c2.64,1.13,5.11,2.61,7.32,4.42c0.07,0.02,0.13,0.07,0.17,0.14
	c2.62,2.57,4.42,5.85,5.17,9.42c0.28,1.26,0.41,2.55,0.4,3.84c0,3.67-1.09,7.25-3.14,10.31c-2.05,3.06-4.96,5.47-8.39,6.92
	c4.31,0.74,8.22,2.92,11.07,6.18c0.52,0.57,1,1.18,1.44,1.81C98.68,61.24,99.82,64.9,99.81,68.64z"/>
  </svg>