<svg
   
   
    viewBox="0 0 100 100"
    fill="none"
    xmlns="http://www.w3.org/2000/svg"
  >
    <path
      style="fill-rule: evenodd; clip-rule: evenodd; fill: #0c3b7c"
      d="M100,19.9c0-10.4-8.4-18.8-18.8-18.8H18.8C8.4,1.1,0,9.5,0,19.9v60.2c0,10.4,8.4,18.8,18.8,18.8h62.4
		c10.4,0,18.8-8.4,18.8-18.8L100,19.9z"
    />
    <path
      style="fill-rule: evenodd; clip-rule: evenodd; fill: #0c3b7c"
      d="M0,61.9h49.9v37H0L0,61.9z"
    />
    <g>
      <path
        fill="#FFFFFF"
        d="M45.4,65.8l-8.1,0v-9.6c0-2.1,0.8-3.1,2.6-3.4h5.5c3.9,0,6.5,2.5,6.5,6.5C51.9,63.4,49.4,65.8,45.4,65.8
			L45.4,65.8z M37.4,39.9v-2.5c0-2.2,0.9-3.3,3-3.4h4.1c3.5,0,5.7,2.1,5.7,5.7c0,2.7-1.5,5.8-5.5,5.8h-7.2V39.9z M55.7,49.5
			l-1.5-0.8l1.3-1.1c1.5-1.3,4-4.1,4-9.1c0-7.6-5.9-12.4-14.9-12.4H34.2v0H33c-2.7,0.1-4.8,2.3-4.9,5v42.9h16.6
			c10.1,0,16.6-5.5,16.6-14C61.4,55.4,59.3,51.5,55.7,49.5"
      />
      <path
        fill="#00BAFC"
        d="M65.7,68c0-3.3,2.6-5.9,5.9-5.9c3.3,0,5.9,2.7,5.9,5.9c0,3.3-2.7,5.9-5.9,5.9C68.3,73.9,65.7,71.3,65.7,68"
      />
    </g>
  </svg>