<svg viewBox="0 0 20 20" fill="none" xmlns="http://www.w3.org/2000/svg">
<g clip-path="url(#clip0_11622_65334)">
<path d="M19.9688 10.4062V9.5625C19.9688 8.84375 19.6875 8.1875 19.1562 7.5625C18.875 7.25 18.5 6.90625 18.0625 6.625C17.8438 6.46875 17.5938 6.3125 17.3125 6.15625C17.0938 6.0625 16.9063 5.9375 16.6875 5.84375C16.0938 5.59375 15.4688 5.375 14.7812 5.1875C14.875 5.46875 14.9375 5.78125 15 6.0625C15.0625 6.375 15.125 6.6875 15.1875 7C15.5312 7.125 15.9063 7.25 16.2188 7.40625C16.375 7.46875 16.5313 7.53125 16.6875 7.625C16.75 7.65625 16.8437 7.6875 16.9062 7.71875C17.1875 7.875 17.4063 8.03125 17.625 8.1875C18.4375 8.71875 18.9375 9.34375 19.0938 9.96875C18.9375 10.625 18.4375 11.25 17.625 11.7812C17.7188 12.0312 17.8125 12.25 17.875 12.4688C17.9688 12.75 18.0312 13.0625 18.0625 13.3438C18.5 13.0625 18.875 12.7188 19.1562 12.4062C19.6875 11.7812 19.9688 11.125 19.9688 10.4062Z" fill="#2F577E"/>
<path d="M7.78125 15.2813C7.4375 15 7.09375 14.7188 6.78125 14.4062C6.84375 14.6562 6.90625 14.9375 7 15.1875C7.25 15.2188 7.53125 15.25 7.78125 15.2813Z" fill="#2F577E"/>
<path d="M9.59375 14.5625C9.71875 14.6562 9.84375 14.75 9.96875 14.8437C10.25 15 10.5 15.1875 10.75 15.3125C10.7813 15.3437 10.8125 15.375 10.8438 15.375C11.2812 15.375 11.75 15.3438 12.1875 15.2813C12.4375 15.25 12.7188 15.2187 12.9688 15.1875C13.2812 15.125 13.5938 15.0625 13.9062 15C14.1875 14.9375 14.5 14.875 14.7812 14.7812C15.4687 14.5937 16.0938 14.375 16.6875 14.125C16.625 13.8438 16.5625 13.5625 16.4688 13.2812C16.4375 13.2187 16.4375 13.125 16.4062 13.0312C16.3438 12.875 16.2813 12.7188 16.2188 12.5625C15.9063 12.7188 15.5312 12.8437 15.1875 12.9687C14.9375 13.0625 14.6562 13.125 14.4062 13.1875C14.375 13.2188 14.3437 13.2187 14.3125 13.2187C14 13.3125 13.7188 13.375 13.4063 13.4063C13.25 13.4375 13.0938 13.4688 12.9375 13.5C12.4688 13.5938 12 13.625 11.5 13.6875C11 13.7187 10.5 13.75 9.96875 13.75C9.46875 13.75 8.96875 13.7187 8.46875 13.6875C8.8125 14 9.21875 14.2812 9.59375 14.5625Z" fill="#2F577E"/>
<path d="M3.5 6.6875C3.5 6.75 3.53125 6.84375 3.5625 6.9375C3.625 7.09375 3.6875 7.25 3.75 7.40625C4.0625 7.25 4.4375 7.125 4.78125 7C5.03125 6.90625 5.3125 6.84375 5.5625 6.78125C5.59375 6.75 5.625 6.75 5.65625 6.75C5.96875 6.6875 6.25 6.59375 6.5625 6.5625C6.71875 6.53125 6.875 6.5 7.03125 6.46875C7.5 6.40625 7.96875 6.34375 8.46875 6.28125C8.96875 6.25 9.46875 6.25 9.96875 6.25C10.5 6.25 11 6.25 11.5 6.28125C11.1562 5.96875 10.75 5.6875 10.375 5.40625C10.25 5.3125 10.125 5.21875 9.96875 5.125C9.71875 4.96875 9.46875 4.78125 9.21875 4.65625C9.1875 4.625 9.15625 4.59375 9.125 4.59375C8.65625 4.59375 8.21875 4.65625 7.78125 4.6875C7.53125 4.71875 7.25 4.75 7 4.78125C6.6875 4.84375 6.375 4.90625 6.0625 4.96875C5.78125 5.03125 5.46875 5.09375 5.1875 5.1875C4.5 5.375 3.875 5.59375 3.28125 5.84375C3.34375 6.125 3.40625 6.40625 3.5 6.6875Z" fill="#2F577E"/>
<path d="M12.1875 4.6875C12.5312 4.96875 12.875 5.25 13.1875 5.5625C13.125 5.3125 13.0625 5.03125 12.9688 4.78125C12.7188 4.75 12.4375 4.71875 12.1875 4.6875Z" fill="#2F577E"/>
<path d="M0.875 9.96875C1.03125 9.34375 1.53125 8.71875 2.34375 8.1875C2.25 7.9375 2.15625 7.71875 2.09375 7.5C2 7.21875 1.9375 6.90625 1.875 6.625C1.46875 6.90625 1.09375 7.25 0.8125 7.5625C0.28125 8.1875 0 8.84375 0 9.5625V10.4062C0 11.125 0.28125 11.7813 0.8125 12.4063C1.09375 12.7188 1.46875 13.0313 1.875 13.3438C2.125 13.5 2.375 13.6563 2.65625 13.8125C2.875 13.9063 3.0625 14.0313 3.28125 14.125C3.875 14.375 4.5 14.5938 5.1875 14.7812C5.09375 14.5 5.03125 14.1875 4.96875 13.9063C4.90625 13.5938 4.84375 13.2813 4.78125 12.9688C4.4375 12.8438 4.0625 12.7188 3.75 12.5625C3.59375 12.5 3.4375 12.4375 3.28125 12.3438C3.21875 12.3125 3.125 12.2813 3.0625 12.25C2.78125 12.0938 2.5625 11.9375 2.34375 11.7813C1.53125 11.25 1.03125 10.625 0.875 9.96875Z" fill="#2F577E"/>
<path d="M12.1875 15.2812C11.75 15.3125 11.2812 15.375 10.8438 15.375C11.0625 15.5312 11.3125 15.6562 11.5313 15.75C11.75 15.5938 11.9687 15.4375 12.1875 15.2812Z" fill="#F4B563"/>
<path d="M17.3438 3.2187L16.75 2.62495C16.25 2.12495 15.5625 1.8437 14.75 1.7812C14.3125 1.74995 13.8438 1.81245 13.3438 1.9062C13.0625 1.93745 12.75 2.0312 12.4688 2.0937C12.25 2.1562 12.0313 2.24995 11.7813 2.3437C11.2188 2.56245 10.5938 2.8437 9.96875 3.18745C10.25 3.3437 10.5 3.49995 10.7813 3.68745C11.0313 3.8437 11.2813 4.0312 11.5313 4.2187C11.875 4.0312 12.2188 3.87495 12.5625 3.74995C12.7188 3.68745 12.875 3.62495 13.0313 3.56245C13.125 3.5312 13.2188 3.5312 13.2812 3.49995C13.5625 3.4062 13.8438 3.3437 14.125 3.2812C15.0625 3.12495 15.875 3.2187 16.4375 3.5312" fill="#F4B563"/>
<path d="M16.4375 3.53125C16.75 4.09375 16.8438 4.90625 16.6875 5.84375C16.9063 5.9375 17.0938 6.0625 17.3125 6.15625C17.5938 6.3125 17.8438 6.46875 18.0625 6.625C18.1563 6.125 18.2188 5.65625 18.1875 5.21875C18.125 4.40625 17.8438 3.71875 17.3438 3.21875C17.25 3.09375 17.1563 3.03125 17.0313 2.9375" fill="#F4B563"/>
<path d="M12.9375 13.5C13.0938 13.4688 13.25 13.4375 13.4063 13.4062C13.7188 13.375 14 13.3125 14.3125 13.2187C14.3438 13.2187 14.375 13.2188 14.4062 13.1875C14.7187 12.875 15 12.5312 15.2813 12.1875C15.4375 11.9688 15.625 11.75 15.75 11.5312C15.9375 11.2813 16.125 11.0312 16.3125 10.7812C16.4688 10.5 16.625 10.25 16.7813 10C17.125 9.375 17.4063 8.75 17.625 8.1875C17.4063 8.03125 17.1875 7.875 16.9062 7.71875C16.8437 7.6875 16.75 7.65625 16.6875 7.625C16.5313 7.53125 16.375 7.46875 16.2188 7.40625C16.0938 7.75 15.9375 8.09375 15.75 8.4375C15.6563 8.65625 15.5313 8.90625 15.375 9.125C15.375 9.15625 15.3438 9.1875 15.3125 9.21875C15.1875 9.46875 15 9.71875 14.8438 10C14.75 10.125 14.6562 10.25 14.5625 10.375C14.2812 10.75 14 11.1562 13.6875 11.5C13.3438 11.9062 13 12.2812 12.625 12.625C12.2813 13 11.9062 13.3437 11.5 13.6875C12 13.625 12.4688 13.5938 12.9375 13.5Z" fill="#F4B563"/>
<path d="M7.78125 4.6875C8.21875 4.625 8.65625 4.59375 9.125 4.59375C8.90625 4.4375 8.65625 4.3125 8.4375 4.21875C8.21875 4.34375 8 4.53125 7.78125 4.6875Z" fill="#F4B563"/>
<path d="M3.53126 16.4375C3.21876 15.875 3.12501 15.0625 3.28126 14.125C3.06251 14.0312 2.87501 13.9062 2.65626 13.8125C2.37501 13.6562 2.12501 13.5 1.87501 13.3438C1.81251 13.8438 1.75001 14.3125 1.78126 14.75C1.84376 15.5625 2.12501 16.25 2.62501 16.75L3.21876 17.3437C3.71876 17.8438 4.40626 18.125 5.21876 18.1875C5.65626 18.2188 6.12501 18.1563 6.62501 18.0938C6.90626 18.0312 7.21876 17.9688 7.50001 17.875C7.71876 17.8125 7.93751 17.7188 8.18751 17.625C8.75001 17.4063 9.37501 17.125 9.96876 16.7812C9.71876 16.625 9.46876 16.4688 9.18751 16.3125C8.93751 16.125 8.68751 15.9687 8.43751 15.7812C8.09376 15.9375 7.75001 16.0938 7.40626 16.2188C7.25001 16.2813 7.09376 16.3437 6.93751 16.4062C6.84376 16.4375 6.75001 16.4688 6.68751 16.4688C6.40626 16.5625 6.12501 16.625 5.84376 16.6875C4.90626 16.8438 4.09376 16.75 3.53126 16.4375Z" fill="#F4B563"/>
<path d="M3.0625 12.25C3.125 12.2812 3.21875 12.3125 3.28125 12.3438C3.4375 12.4375 3.59375 12.5 3.75 12.5625C3.875 12.2188 4.03125 11.875 4.21875 11.5313C4.3125 11.3125 4.4375 11.0625 4.59375 10.8438C4.59375 10.8125 4.625 10.7813 4.65625 10.75C4.78125 10.5 4.96875 10.25 5.125 9.96875C5.21875 9.84375 5.3125 9.71875 5.40625 9.59375C5.6875 9.21875 5.96875 8.8125 6.28125 8.46875C6.625 8.0625 6.96875 7.6875 7.34375 7.34375C7.6875 6.96875 8.0625 6.625 8.46875 6.28125C7.96875 6.34375 7.5 6.375 7.03125 6.46875C6.875 6.5 6.71875 6.53125 6.5625 6.5625C6.25 6.59375 5.96875 6.6875 5.65625 6.75C5.625 6.75 5.59375 6.75 5.5625 6.78125C5.25 7.09375 4.96875 7.4375 4.6875 7.78125C4.53125 8 4.34375 8.21875 4.1875 8.4375C4.03125 8.6875 3.84375 8.9375 3.65625 9.1875C3.5 9.46875 3.34375 9.71875 3.1875 9.96875C2.84375 10.5938 2.5625 11.2188 2.34375 11.7812C2.5625 11.9375 2.78125 12.0938 3.0625 12.25Z" fill="#F4B563"/>
<path d="M4.6875 12.1875C4.625 11.75 4.59375 11.2812 4.59375 10.8438C4.4375 11.0625 4.3125 11.3125 4.21875 11.5313C4.34375 11.75 4.53125 11.9687 4.6875 12.1875Z" fill="#5CAFCD"/>
<path d="M3.53126 3.5312C4.09376 3.2187 4.90626 3.12495 5.84376 3.2812C5.93751 3.06245 6.06251 2.87495 6.15626 2.6562C6.31251 2.37495 6.46876 2.12495 6.62501 1.9062C6.12501 1.81245 5.65626 1.74995 5.21876 1.7812C4.40626 1.8437 3.71876 2.12495 3.21876 2.62495L2.62501 3.2187C2.12501 3.7187 1.84376 4.4062 1.78126 5.2187C1.75001 5.6562 1.81251 6.12495 1.87501 6.62495C1.93751 6.9062 2.00001 7.2187 2.09376 7.49995C2.15626 7.7187 2.25001 7.93745 2.34376 8.18745C2.56251 8.74995 2.84376 9.37495 3.18751 9.99995C3.34376 9.7187 3.50001 9.4687 3.65626 9.18745C3.84376 8.93745 4.03126 8.68745 4.18751 8.43745C4.03126 8.0937 3.87501 7.74995 3.75001 7.4062C3.68751 7.24995 3.62501 7.0937 3.56251 6.93745C3.53126 6.8437 3.50001 6.74995 3.50001 6.68745C3.40626 6.4062 3.34376 6.12495 3.28126 5.8437C3.12501 4.9062 3.21876 4.0937 3.53126 3.5312Z" fill="#5CAFCD"/>
<path d="M15.2812 7.78125C15.3125 8.21875 15.375 8.6875 15.375 9.125C15.5312 8.90625 15.6562 8.65625 15.75 8.4375C15.625 8.21875 15.4375 8 15.2812 7.78125Z" fill="#5CAFCD"/>
<path d="M13.5 7.03125C13.4688 6.875 13.4375 6.71875 13.4062 6.5625C13.375 6.25 13.2812 5.96875 13.2187 5.65625C13.2187 5.625 13.2188 5.59375 13.1875 5.5625C12.875 5.25 12.5312 4.96875 12.1875 4.6875C11.9688 4.53125 11.75 4.34375 11.5312 4.21875C11.2813 4.03125 11.0312 3.84375 10.7812 3.65625C10.5 3.5 10.25 3.34375 9.96875 3.1875C9.375 2.84375 8.75 2.5625 8.1875 2.34375C8.03125 2.5625 7.875 2.78125 7.71875 3.0625C7.6875 3.125 7.65625 3.21875 7.625 3.28125C7.53125 3.4375 7.46875 3.59375 7.40625 3.75C7.75 3.875 8.09375 4.03125 8.4375 4.21875C8.65625 4.3125 8.90625 4.4375 9.125 4.59375C9.15625 4.59375 9.1875 4.625 9.21875 4.65625C9.46875 4.78125 9.71875 4.96875 9.96875 5.125C10.125 5.21875 10.25 5.3125 10.375 5.40625C10.75 5.6875 11.1562 5.96875 11.5 6.28125C11.9062 6.625 12.2812 6.96875 12.625 7.34375C13 7.6875 13.3437 8.0625 13.6875 8.46875C13.625 7.96875 13.5625 7.5 13.5 7.03125Z" fill="#5CAFCD"/>
<path d="M6.46875 12.9375C6.5 13.0938 6.53125 13.25 6.5625 13.4063C6.59375 13.7188 6.6875 14 6.75 14.3125C6.75 14.3438 6.75 14.375 6.78125 14.4062C7.09375 14.7187 7.4375 15 7.78125 15.2813C8 15.4375 8.21875 15.625 8.4375 15.75C8.6875 15.9375 8.9375 16.125 9.1875 16.3125C9.46875 16.4688 9.71875 16.625 9.96875 16.7813C10.5938 17.125 11.2188 17.4063 11.7812 17.625C11.9375 17.4063 12.0938 17.1875 12.25 16.9062C12.2812 16.8437 12.3125 16.75 12.3438 16.6875C12.4375 16.5313 12.5 16.375 12.5625 16.2188C12.2188 16.0938 11.875 15.9375 11.5313 15.75C11.3125 15.6563 11.0625 15.5313 10.8438 15.375C10.8125 15.375 10.7813 15.3438 10.75 15.3125C10.5 15.1875 10.25 15 9.96875 14.8438C9.84375 14.75 9.71875 14.6562 9.59375 14.5625C9.21875 14.2812 8.8125 14 8.46875 13.6875C8.0625 13.3438 7.6875 13 7.34375 12.625C6.96875 12.2813 6.625 11.9062 6.28125 11.5C6.34375 12 6.375 12.4688 6.46875 12.9375Z" fill="#5CAFCD"/>
<path d="M16.75 17.3438L17.3438 16.75C17.8438 16.25 18.125 15.5625 18.1875 14.75C18.2188 14.3125 18.1562 13.8438 18.0625 13.3438C18.0312 13.0625 17.9688 12.75 17.875 12.4688C17.8125 12.25 17.7188 12.0313 17.625 11.7813C17.4063 11.2188 17.125 10.5938 16.7813 10C16.625 10.25 16.4688 10.5 16.3125 10.7812C16.125 11.0312 15.9375 11.2813 15.75 11.5313C15.9375 11.875 16.0938 12.2188 16.2188 12.5625C16.2813 12.7188 16.3438 12.875 16.4062 13.0313C16.4375 13.125 16.4375 13.2188 16.4688 13.2812C16.5625 13.5625 16.625 13.8438 16.6875 14.125C16.8438 15.0625 16.75 15.875 16.4375 16.4375C15.875 16.75 15.0625 16.8438 14.125 16.6875C14.0313 16.9063 13.9063 17.0938 13.8125 17.3125C13.6563 17.5938 13.5 17.8438 13.3438 18.0625C13.8438 18.1562 14.3125 18.2188 14.75 18.1875C15.5625 18.125 16.25 17.8438 16.75 17.3438Z" fill="#5CAFCD"/>
<path d="M5.40625 9.59375C5.3125 9.71875 5.21875 9.84375 5.125 10C4.96875 10.25 4.78125 10.5 4.65625 10.75C4.625 10.7813 4.59375 10.8125 4.59375 10.8438C4.59375 11.2812 4.625 11.75 4.6875 12.1875C4.71875 12.4375 4.75 12.7188 4.78125 12.9688C4.84375 13.2812 4.90625 13.5938 4.96875 13.9062C5.03125 14.1875 5.09375 14.5 5.1875 14.7812C5.375 15.4687 5.59375 16.0938 5.84375 16.6875C6.125 16.625 6.40625 16.5625 6.6875 16.4688C6.75 16.4375 6.84375 16.4375 6.9375 16.4062C7.09375 16.3438 7.25 16.2813 7.40625 16.2188C7.25 15.9063 7.125 15.5312 7 15.1875C6.90625 14.9375 6.84375 14.6562 6.78125 14.4062C6.75 14.375 6.75 14.3437 6.75 14.3125C6.6875 14 6.59375 13.7188 6.5625 13.4063C6.53125 13.25 6.5 13.0938 6.46875 12.9375C6.375 12.4688 6.34375 12 6.28125 11.5C6.25 11 6.21875 10.5 6.21875 10C6.21875 9.46875 6.25 8.96875 6.28125 8.46875C5.96875 8.8125 5.6875 9.21875 5.40625 9.59375Z" fill="#47B178"/>
<path d="M15.2813 12.1875C15 12.5312 14.7188 12.875 14.4062 13.1875C14.6562 13.125 14.9375 13.0625 15.1875 12.9688C15.2188 12.7188 15.25 12.4375 15.2813 12.1875Z" fill="#47B178"/>
<path d="M4.6875 7.78125C4.96875 7.4375 5.25 7.125 5.5625 6.78125C5.3125 6.84375 5.03125 6.90625 4.78125 7C4.75 7.25 4.71875 7.53125 4.6875 7.78125Z" fill="#47B178"/>
<path d="M14.5625 10.375C14.6562 10.25 14.75 10.125 14.8437 10C15 9.71875 15.1875 9.46875 15.3125 9.21875C15.3437 9.1875 15.375 9.15625 15.375 9.125C15.375 8.6875 15.3125 8.21875 15.2813 7.78125C15.25 7.53125 15.2187 7.25 15.1875 7C15.125 6.6875 15.0625 6.375 15 6.0625C14.9375 5.78125 14.875 5.46875 14.7812 5.1875C14.5937 4.5 14.375 3.875 14.125 3.28125C13.8438 3.34375 13.5625 3.40625 13.2812 3.5C13.2187 3.53125 13.125 3.53125 13.0312 3.5625C12.875 3.625 12.7188 3.6875 12.5625 3.75C12.7188 4.0625 12.8437 4.4375 12.9687 4.78125C13.0625 5.03125 13.125 5.3125 13.1875 5.5625C13.2188 5.59375 13.2187 5.625 13.2187 5.65625C13.2812 5.96875 13.375 6.25 13.4063 6.5625C13.4375 6.71875 13.4688 6.875 13.5 7.03125C13.5625 7.5 13.625 7.96875 13.6875 8.46875C13.7187 8.96875 13.7188 9.46875 13.7188 10C13.7188 10.5 13.7187 11 13.6875 11.5C14 11.1562 14.2812 10.75 14.5625 10.375Z" fill="#47B178"/>
<path d="M13.3438 1.875C13.0312 1.46875 12.7188 1.09375 12.4062 0.8125C11.7812 0.28125 11.125 0 10.4062 0H9.5625C8.84375 0 8.1875 0.28125 7.5625 0.8125C7.25 1.09375 6.90625 1.46875 6.625 1.875C6.46875 2.125 6.3125 2.375 6.15625 2.65625C6.0625 2.875 5.9375 3.0625 5.84375 3.28125C5.59375 3.875 5.375 4.5 5.1875 5.1875C5.46875 5.09375 5.78125 5.03125 6.0625 4.96875C6.375 4.90625 6.6875 4.84375 7 4.78125C7.125 4.4375 7.25 4.0625 7.40625 3.75C7.46875 3.59375 7.53125 3.4375 7.625 3.28125C7.65625 3.21875 7.6875 3.125 7.71875 3.0625C7.875 2.78125 8.03125 2.5625 8.1875 2.34375C8.71875 1.53125 9.34375 1.03125 9.96875 0.875C10.625 1.03125 11.25 1.53125 11.7812 2.34375C12.0312 2.25 12.25 2.15625 12.4688 2.09375" fill="#47B178"/>
<path d="M9.5625 19.9688H10.4062C11.125 19.9688 11.7813 19.6875 12.4063 19.1562C12.7188 18.875 13.0313 18.5 13.3438 18.0625C13.5 17.8438 13.6563 17.5938 13.8125 17.3125C13.9063 17.0938 14.0313 16.9063 14.125 16.6875C14.375 16.0938 14.5938 15.4688 14.7812 14.7812L13.9063 15C13.5938 15.0625 13.2813 15.125 12.9688 15.1875C12.8438 15.5312 12.7188 15.9063 12.5625 16.2188C12.5 16.375 12.4375 16.5313 12.3438 16.6875C12.3125 16.75 12.2813 16.8437 12.25 16.9062C12.0938 17.1875 11.9375 17.4063 11.7813 17.625C11.25 18.4375 10.625 18.9375 9.96875 19.0938C9.34375 18.9375 8.71875 18.4375 8.1875 17.625C7.9375 17.7188 7.71875 17.8125 7.5 17.875L6.625 18.0625C6.90625 18.5 7.25 18.875 7.5625 19.1562C8.1875 19.6875 8.84375 19.9688 9.5625 19.9688Z" fill="#47B178"/>
</g>
<defs>
<clipPath id="clip0_11622_65334">
<rect width="20" height="20" fill="white"/>
</clipPath>
</defs>
</svg>