<svg
   
   
    viewBox="0 0 100 100"
    xmlns="http://www.w3.org/2000/svg"
  >
    <g>
      <linearGradient
        id="SVGID_1_"
        gradientUnits="userSpaceOnUse"
        x1="50"
        y1="100"
        x2="50"
        y2="-9.094947e-13"
      >
        <stop offset="0" style="stop-color: #3465fb" />
        <stop offset="1" style="stop-color: #1d55cd" />
      </linearGradient>
      <rect style="fill: url(#SVGID_1_)" width="100" height="100" />
      <g>
        <path
          style="fill: #ffffff"
          d="M75.8,49.3c0.3-1,0.5-2,0.5-3.1c0-7.1-5.7-12.8-12.8-12.8c-1.5,0-3.1,0.3-4.4,0.8c-3.2-5.7-9.2-9.6-16.2-9.6 c-9.8,0-17.9,8-17.9,17.9c0,1.1,0.2,2.3,0.3,3.4c-4.9,0.8-8.7,4.9-8.7,10c0,3.7,1.8,6.8,4.8,8.7c2.5-1.4,5.4-2.5,8.7-3.4 c0,0-3.7-12.7,0.6-13.6c5.2-1,5.6,0.5,16.2-0.6c11.4-1.2,21.4,0.6,21.4,0.6c2,0,1.8,4.2,1.5,7.2c-0.3,3.1-1.4,5.9-1.4,5.9 c4,1.1,7.5,2.5,10.5,4.2c2.5-1.5,4-4.2,4-7.1C83.2,53.3,79.9,49.8,75.8,49.3z"
        />
        <path
          style="fill: #ffffff"
          d="M50,68c14.8,0,28.1,2,36.8,7.4C81.2,68,66.8,62.7,50,62.7s-31.2,5.2-36.8,12.5C21.9,70,35.2,68,50,68z"
        />
      </g>
    </g>
  </svg>