<svg viewBox="0 0 20 20" fill="none" xmlns="http://www.w3.org/2000/svg">
<rect width="20" height="20" rx="10" fill="#FF3465"/>
<path d="M8.0254 8.88298C8.07141 9.85222 8.28431 10.747 8.84523 11.5249C9.73015 12.7521 10.9728 13.1278 12.4204 12.9822C13.488 12.8748 14.3678 12.3795 15.118 11.6371C15.2635 11.4932 15.3771 11.4746 15.56 11.6588C15.3198 12.0919 15.0914 12.5525 14.8188 12.9854C14.063 14.1855 13.0901 15.1493 11.7123 15.6043C8.64767 16.6164 4.93602 15.1148 4.13973 11.4535C3.53428 8.66973 4.93886 5.84207 7.53036 4.65402C9.33825 3.82521 11.1677 3.75676 12.9839 4.60611C14.0972 5.12673 14.8809 5.96204 15.1192 7.21085C15.2379 7.83309 15.1777 8.43748 14.7831 8.97098C14.302 9.62135 13.5251 9.88656 12.7405 9.66444C12.0008 9.455 11.4666 8.78468 11.3918 8.00489C11.3406 7.47247 11.5344 6.98801 11.6346 6.48319C11.71 6.10368 11.8001 5.69788 11.7408 5.32661C11.593 4.4017 10.5017 3.99363 9.65022 4.51132C9.00738 4.90217 8.65762 5.52038 8.40497 6.20078C8.08684 7.05752 7.98441 7.94773 8.0254 8.88298Z" fill="#FFFEFE"/>
</svg>