<svg
   
   
    viewBox="0 0 100 100"
    fill="none"
    xmlns="http://www.w3.org/2000/svg"
  >
    <g>
      <path
        fill="#FDDB32"
        d="M20.7,0h58.5C90.8,0,100,9.2,100,20.7v58.5c0,11.5-9.2,20.7-20.7,20.7H20.7
			C9.2,100,0,90.8,0,79.3V20.7C0,9.2,9.2,0,20.7,0z"
      />
      <g>
        <path
          fill="#191E3B"
          d="M28,17.9c-0.9,0-1.5,0.2-2,0.7l-10,10c-0.2,0.2-0.3,0.4-0.3,0.7c0,0.5,0.4,1,1,1H60L33.3,56.9
				c-0.5,0.5-0.8,0.8-0.8,1.9l0,7c0,0.4,0.2,0.8,0.5,1.1c0.3,0.3,0.6,0.5,1.1,0.5h7c1,0,1.3-0.3,1.9-0.8l26.6-26.6v43.3
				c0,0.5,0.4,1,1,1c0.3,0,0.5-0.1,0.7-0.3l10-10c0.5-0.5,0.7-1.1,0.7-2l0-47.3c0-3.7-3-6.7-6.7-6.7c0,0,0,0,0,0L28,17.9z"
        />
        <path
          fill="#191E3B"
          d="M19.5,69.3h9.6c0.8,0,1.5,0.6,1.5,1.5v9.7c0,0.8-0.6,1.5-1.5,1.5h-9.6c-0.8,0-1.5-0.6-1.5-1.5
				v-9.7C18,69.9,18.7,69.3,19.5,69.3z"
        />
      </g>
    </g>
  </svg>