<svg viewBox="0 0 20 20" fill="none" xmlns="http://www.w3.org/2000/svg">
<g clip-path="url(#clip0_11743_65484)">
<path d="M13.1562 20.0312C8.77083 20.0312 4.40104 20.0312 0.0312512 20.0312C0.0312506 13.3646 0.0312506 6.69792 0.03125 0.031253C6.69791 0.0312515 13.3646 0.0312515 20.0312 0.03125C20.0312 6.69791 20.0312 13.3646 20.0312 20.0312C17.7448 20.0312 15.4583 20.0312 13.1562 20.0312ZM6.04687 16.4687C6.4686 16.4687 6.89033 16.4674 7.31205 16.4692C7.56601 16.4703 7.76198 16.3696 7.90251 16.1562C8.01389 15.9871 8.13135 15.8219 8.24611 15.6549C9.50247 13.8272 10.7593 11.9998 12.0147 10.1714C12.1857 9.92232 12.1823 9.67339 12.0131 9.41943C10.734 7.50034 9.454 5.58194 8.17659 3.66178C8.03463 3.4484 7.84494 3.34296 7.58974 3.34322C6.42865 3.34443 5.26756 3.34459 4.10646 3.34293C3.91319 3.34265 3.75482 3.40927 3.66713 3.58289C3.58109 3.75324 3.60714 3.92032 3.72021 4.08042C3.96301 4.42417 4.19799 4.77344 4.43605 5.12054C5.31446 6.40128 6.19293 7.68196 7.07108 8.96288C7.2672 9.24894 7.46209 9.53584 7.65549 9.81934C7.63414 9.85239 7.62034 9.87438 7.60594 9.89597C6.31182 11.8368 5.01856 13.7783 3.7219 15.7175C3.61124 15.8829 3.56944 16.0482 3.6587 16.2291C3.75319 16.4206 3.92403 16.4712 4.1256 16.47C4.75559 16.4665 5.38561 16.4687 6.04687 16.4687ZM14.2656 16.4687C14.776 16.4687 15.2865 16.4659 15.7969 16.4701C16.0049 16.4719 16.1828 16.4178 16.2798 16.223C16.3696 16.0428 16.3196 15.8744 16.2102 15.7109C15.1239 14.0873 14.0406 12.4617 12.9563 10.8368C12.8161 10.6266 12.7491 10.6274 12.6078 10.8337C11.9587 11.7809 11.3092 12.7278 10.6582 13.6736C10.4879 13.921 10.4865 13.918 10.6615 14.1713C11.1132 14.8252 11.5666 15.478 12.0125 16.1358C12.1665 16.363 12.3667 16.4727 12.6406 16.4702C13.1718 16.4653 13.7031 16.4687 14.2656 16.4687ZM14.8518 6.05414C15.2964 5.40772 15.7426 4.7624 16.1835 4.11351C16.2403 4.02994 16.2952 3.93102 16.3073 3.83377C16.3427 3.55002 16.1383 3.34477 15.8341 3.34438C14.6989 3.34292 13.5636 3.34863 12.4284 3.3406C12.1157 3.33839 11.8943 3.45932 11.7257 3.71699C11.3586 4.2782 10.987 4.83662 10.6084 5.39011C10.5181 5.52211 10.5167 5.61829 10.6072 5.75236C11.2892 6.76294 11.9639 7.77849 12.6399 8.79314C12.7656 8.98186 12.831 8.98817 12.9562 8.80691C13.5853 7.8965 14.2128 6.98493 14.8518 6.05414Z" fill="#2C00AC"/>
<path d="M6.03125 16.4687C5.38561 16.4687 4.75559 16.4665 4.1256 16.47C3.92403 16.4711 3.75319 16.4205 3.6587 16.2291C3.56944 16.0482 3.61124 15.8829 3.7219 15.7174C5.01856 13.7783 6.31182 11.8368 7.60594 9.89594C7.62034 9.87434 7.63414 9.85236 7.65549 9.81931C7.46209 9.53581 7.2672 9.24891 7.07108 8.96284C6.19293 7.68193 5.31446 6.40124 4.43605 5.12051C4.19799 4.77341 3.96301 4.42414 3.72021 4.08038C3.60714 3.92029 3.58109 3.75321 3.66713 3.58286C3.75482 3.40924 3.91319 3.34262 4.10646 3.3429C5.26756 3.34455 6.42865 3.3444 7.58974 3.34319C7.84494 3.34292 8.03463 3.44837 8.17659 3.66175C9.454 5.58191 10.7341 7.50031 12.0131 9.41939C12.1823 9.67336 12.1857 9.92229 12.0147 10.1714C10.7593 11.9998 9.50247 13.8272 8.24611 15.6549C8.13135 15.8219 8.01389 15.987 7.90251 16.1562C7.76198 16.3696 7.56601 16.4703 7.31205 16.4692C6.89033 16.4674 6.4686 16.4687 6.03125 16.4687Z" fill="white"/>
<path d="M14.25 16.4688C13.7031 16.4688 13.1719 16.4653 12.6407 16.4702C12.3668 16.4727 12.1665 16.363 12.0125 16.1358C11.5666 15.478 11.1132 14.8253 10.6615 14.1714C10.4866 13.918 10.4879 13.921 10.6582 13.6737C11.3093 12.7278 11.9587 11.7809 12.6078 10.8337C12.7491 10.6274 12.8161 10.6266 12.9564 10.8368C14.0406 12.4618 15.124 14.0873 16.2102 15.7109C16.3196 15.8745 16.3696 16.0429 16.2799 16.2231C16.1828 16.4178 16.0049 16.4719 15.7969 16.4702C15.2865 16.4659 14.7761 16.4688 14.25 16.4688Z" fill="#7AA1D6"/>
<path d="M14.8463 6.06396C14.2128 6.98494 13.5854 7.89651 12.9562 8.80691C12.831 8.98817 12.7657 8.98187 12.6399 8.79314C11.9639 7.7785 11.2893 6.76294 10.6072 5.75236C10.5167 5.61829 10.5181 5.52211 10.6084 5.39011C10.9871 4.83662 11.3587 4.27821 11.7258 3.71699C11.8943 3.45932 12.1158 3.3384 12.4285 3.34061C13.5637 3.34863 14.6989 3.34292 15.8342 3.34438C16.1383 3.34477 16.3427 3.55002 16.3073 3.83377C16.2952 3.93102 16.2403 4.02994 16.1835 4.11351C15.7426 4.7624 15.2964 5.40772 14.8463 6.06396Z" fill="#7AA1D6"/>
</g>
<defs>
<clipPath id="clip0_11743_65484">
<rect width="20" height="20" fill="white"/>
</clipPath>
</defs>
</svg>