<svg
   
   
    viewBox="0 0 100 100"
    xmlns="http://www.w3.org/2000/svg"
  >
    <rect fill="#FF5533" width="100" height="100" />
    <g>
      <path
        fill="#ffffff"
        d="M32.8,45.3c-1.1,0-2,0.8-2,2s0.9,2,2,2c1.1,0,2-0.8,2-2S33.9,45.3,32.8,45.3z"
      />
      <polygon
        fill="#ffffff"
        points="44,35.6 37,35.6 37,32.3 43.2,32.3 43.2,28.9 37,28.9 37,25.6 43.9,25.6 43.9,22.3 33.3,22.3 33.3,39
		44,39 	"
      />
      <path
        fill="#ffffff"
        d="M36.2,45.7c1.1,0,2-0.8,2-2s-0.9-2-2-2c-1.1,0-2,0.8-2,2S35.1,45.7,36.2,45.7z"
      />
      <path
        fill="#ffffff"
        d="M21.7,39.3c2.4,0,4.5-1.2,5.8-3.1V39h3.3v-9.3h-8.8v3.2h3.7c-0.3,1.7-1.9,3-3.7,3c-2,0-3.7-1.6-3.7-4v-2.5
		c0-2.4,1.8-4.1,4.2-4.1c1.9,0,3.6,1.1,4.2,2.6l3.5-1.2c-1-2.9-4.1-4.8-7.7-4.8c-4.5,0-7.9,3-7.9,7.5v2.5
		C14.6,36.2,17.8,39.3,21.7,39.3z"
      />
      <polygon
        fill="#ffffff"
        points="53.8,29.2 53.8,29.2 53.8,27 50.1,27 50.1,30.1 50.1,30.1 50.1,32.3 53.8,32.3 	"
      />
      <rect x="45.6" y="22.3" fill="#ffffff" width="12.7" height="3.4" />
      <polygon
        fill="#ffffff"
        points="20.8,58.3 24.5,58.3 24.5,52 30.8,41.7 26.6,41.7 22.6,48.5 18.7,41.7 14.5,41.7 20.8,52.1 	"
      />
      <polygon
        fill="#ffffff"
        points="53.8,36.7 53.8,36.7 53.8,33.6 50.1,33.6 50.1,35.9 50.1,35.9 50.1,39 53.8,39 	"
      />
      <path
        fill="#ffffff"
        d="M82.3,58.3L77.8,52c2.2-0.7,3.8-2.6,3.8-5c0-3-2.5-5.3-5.6-5.3h-2.2V45h2.1c1.1,0,1.9,0.9,1.9,2
		c0,1.1-0.8,2-1.9,2h-2.1v3.2l4.1,6.1H82.3z"
      />
      <path
        fill="#ffffff"
        d="M63.7,61h-5.5v16.7h5.5c5.2,0,8.8-3.5,8.8-8.3C72.6,64.6,68.9,61,63.7,61z M64,74.4H62v-10H64
		c2.8,0,4.7,2.1,4.7,5C68.7,72.2,66.8,74.4,64,74.4z"
      />
      <polygon
        fill="#ffffff"
        points="78.5,71 84.7,71 84.7,67.7 78.5,67.7 78.5,64.4 85.4,64.4 85.4,61 74.8,61 74.8,77.7 85.5,77.7
		85.5,74.4 78.5,74.4 	"
      />
      <polygon
        fill="#ffffff"
        points="72.6,52.7 70.6,50 72.5,47.2 70.6,44.4 72.5,41.7 68.7,41.7 66.7,44.5 68.7,47.2 66.8,50 68.7,52.7
		66.8,55.5 68.9,58.4 72.8,58.4 70.7,55.5 	"
      />
      <path
        fill="#ffffff"
        d="M64,51.9V41.7h-3.7v10.3c0,1.9-1.4,3.3-3.2,3.3c-1.9,0-3.2-1.4-3.2-3.3V41.7h-3.7v10.2c0,3.9,2.9,6.8,7,6.8
		C61.1,58.7,64,55.8,64,51.9z"
      />
      <path
        fill="#ffffff"
        d="M43.6,71.3c0,1.9-1.4,3.3-3.2,3.3c-1.9,0-3.2-1.4-3.2-3.3V61h-3.7v10.2c0,3.9,2.9,6.8,7,6.8c4,0,7-2.9,7-6.8
		V61h-3.7V71.3z"
      />
      <path
        fill="#ffffff"
        d="M21.9,71.6h3.7c-0.3,1.7-1.9,3-3.7,3c-2,0-3.7-1.6-3.7-4v-2.5c0-2.4,1.8-4.1,4.2-4.1c1.9,0,3.6,1.1,4.2,2.6
		l3.5-1.2c-1-2.9-4.1-4.8-7.7-4.8c-4.5,0-7.9,3-7.9,7.5v2.5c0,4.3,3.2,7.4,7,7.4c2.4,0,4.5-1.2,5.8-3.1v2.8h3.3v-9.3h-8.8V71.6z"
      />
      <path
        fill="#ffffff"
        d="M39.1,41.3v3.5c2.7,0,4.9,2.2,4.9,5.2s-2.2,5.2-4.9,5.2c-2.7,0-4.9-2.2-4.9-5.2h-3.8c0,4.9,3.9,8.7,8.8,8.7
		c4.9,0,8.8-3.8,8.8-8.7S43.9,41.3,39.1,41.3z"
      />
      <path
        fill="#ffffff"
        d="M54.4,68.9c0.6-0.5,1.5-1.3,1.5-2.9c0-1.5-0.9-2.4-1.5-2.9c0,0,0,0-0.1-0.1C54,62.8,54,62.4,54,62.2V61h-3.8
		v1.6h0c0,0,0,0,0,0.1c0,1.5,0.9,2.4,1.5,2.9c0.4,0.4,0.4,0.4,0.4,0.5c0,0.1,0,0.2-0.4,0.5c-0.5,0.5-1.4,1.3-1.5,2.7h0
		c0,0,0,0.1,0,0.1c0,0,0,0,0,0c0,0,0,0,0,0c0,0,0,0.1,0,0.1h0c0.1,1.4,0.9,2.2,1.5,2.7c0.4,0.4,0.4,0.4,0.4,0.5c0,0.1,0,0.2-0.4,0.5
		c-0.6,0.5-1.5,1.3-1.5,2.9c0,0,0,0,0,0.1h0v1.6H54v-1.2c0-0.2,0.1-0.6,0.3-0.9c0,0,0,0,0.1-0.1c0.6-0.5,1.5-1.3,1.5-2.9
		c0-1.5-0.9-2.4-1.5-2.9C54,69.5,54,69.5,54,69.4C54,69.3,54,69.2,54.4,68.9z"
      />
    </g>
  </svg>