<svg viewBox="0 0 20 20" fill="none" xmlns="http://www.w3.org/2000/svg">
<g clip-path="url(#clip0_11736_65460)">
<path d="M10 20C15.5228 20 20 15.5228 20 10C20 4.47715 15.5228 0 10 0C4.47715 0 0 4.47715 0 10C0 15.5228 4.47715 20 10 20Z" fill="#2979FF"/>
<path d="M10 9.5C11.1046 9.5 12 8.60457 12 7.5C12 6.39543 11.1046 5.5 10 5.5C8.89543 5.5 8 6.39543 8 7.5C8 8.60457 8.89543 9.5 10 9.5Z" fill="#2962FF"/>
<path d="M10 11C10 11 5.5 11 5.5 13.8635C5.5 15.5 6.318 15.5 10 15.5C13.682 15.5 14.5 15.5 14.5 13.8635C14.5 11 10 11 10 11Z" fill="#2962FF"/>
<path d="M10 9C11.1046 9 12 8.10457 12 7C12 5.89543 11.1046 5 10 5C8.89543 5 8 5.89543 8 7C8 8.10457 8.89543 9 10 9Z" fill="white"/>
<path d="M10 10.5C10 10.5 5.5 10.5 5.5 13.3635C5.5 15 6.318 15 10 15C13.682 15 14.5 15 14.5 13.3635C14.5 10.5 10 10.5 10 10.5Z" fill="white"/>
</g>
<defs>
<clipPath id="clip0_11736_65460">
<rect width="20" height="20" fill="white"/>
</clipPath>
</defs>
</svg>