<svg
   
    viewBox="0 0 20 20" fill="none" xmlns="http://www.w3.org/2000/svg">
    <g clip-path="url(#clip0_11622_65327)">
        <path d="M18.3462 9.50028C17.9032 8.73813 17.2801 8.12712 16.5011 7.66714C15.9189 7.32823 15.3153 7.11314 14.635 7.02076V4.59906C15.3153 4.31022 15.7374 3.67092 15.7374 2.92509C15.7374 1.90852 14.9222 1.08473 13.9064 1.08473C12.8899 1.08473 12.0604 1.90852 12.0604 2.92509C12.0604 3.67092 12.4582 4.31022 13.1384 4.59906V7.02185C12.5942 7.10049 12.0299 7.27014 11.5145 7.53081C10.4619 6.73138 7.01031 4.10873 4.99118 2.57694C5.03907 2.40429 5.07594 2.22633 5.07594 2.03858C5.07594 0.912628 4.16413 0 3.03777 0C1.9114 0 1 0.912628 1 2.03858C1 3.1644 1.91236 4.0773 3.03872 4.0773C3.42293 4.0773 3.77829 3.96493 4.08495 3.78017L4.51106 4.10342L10.3661 8.32208C10.0566 8.60629 9.76833 8.92955 9.53773 9.29226C9.07039 10.0317 8.78482 10.8453 8.78482 11.7327V11.9179C8.78482 12.5409 8.90318 13.129 9.10481 13.6815C9.28236 14.164 9.54194 14.6026 9.86343 14.9992L7.92022 16.9472C7.6386 16.8423 7.33275 16.8208 7.03923 16.8852C6.74572 16.9496 6.47694 17.0971 6.26503 17.3101C6.1183 17.4561 6.00201 17.6298 5.92289 17.8211C5.84377 18.0123 5.80339 18.2174 5.80409 18.4244C5.80422 18.8452 5.96816 19.2407 6.26584 19.5382C6.41175 19.6851 6.58534 19.8015 6.77656 19.8808C6.96778 19.96 7.17283 20.0005 7.37983 20C7.58688 20.0005 7.79199 19.96 7.98327 19.8807C8.17455 19.8015 8.34822 19.6851 8.49422 19.5382C8.64085 19.3922 8.7571 19.2186 8.83626 19.0275C8.91543 18.8363 8.95593 18.6313 8.95543 18.4244C8.95543 18.2615 8.93026 18.1026 8.88292 17.9516L10.8914 15.9428C11.1668 16.133 11.4642 16.2932 11.7839 16.4312C12.4145 16.7039 13.1106 16.87 13.8723 16.87H14.0119C14.854 16.87 15.6484 16.6722 16.3952 16.2676C17.1821 15.84 17.798 15.2552 18.2633 14.5087C18.7311 13.7602 18.9886 12.9331 18.9886 12.0232V11.9778C18.9886 11.0827 18.7814 10.2569 18.3462 9.50028ZM15.8921 13.7142C15.347 14.32 14.7203 14.6932 14.0119 14.6932H13.8952C13.4905 14.6932 13.0948 14.5814 12.7073 14.378C12.2706 14.154 11.9386 13.8346 11.6669 13.4301C11.3861 13.0331 11.2337 12.5997 11.2337 12.1401V12.0005C11.2337 11.5487 11.3204 11.1202 11.5389 10.7156C11.7725 10.2733 12.088 9.92939 12.5076 9.65593C12.9195 9.38437 13.3595 9.25117 13.8496 9.25117H13.8952C14.3395 9.25117 14.7602 9.33879 15.1572 9.54191C15.5616 9.75851 15.8921 10.0544 16.1483 10.4437C16.3971 10.833 16.5452 11.253 16.5928 11.7106C16.6003 11.8057 16.6041 11.9031 16.6041 11.9961C16.6041 12.6171 16.3668 13.1922 15.8921 13.7142Z" fill="#F8761F"/>
    </g>
    <defs>
        <clipPath id="clip0_11622_65327">
            <rect width="17.9886" height="20" fill="white" transform="translate(1)"/>
        </clipPath>
    </defs>
  </svg>