<svg viewBox="0 0 20 20" fill="none" xmlns="http://www.w3.org/2000/svg">
<path d="M10.0052 0L10.9268 1.60369C11.1112 1.93548 11.1112 2.34101 10.9268 2.67281L5.43375 12.2028L8.03283 16.7005C8.43836 17.4009 9.19412 17.8433 10.0052 17.8433C10.8162 17.8433 11.572 17.4009 11.9775 16.7005L14.5766 12.2028L13.8946 10.9862L10.9453 16.0922C10.7609 16.424 10.3923 16.6267 10.0236 16.6267C9.63652 16.6267 9.28629 16.424 9.10195 16.0922L6.83467 12.2028L11.9407 3.35484L12.8623 4.95853C13.0467 5.29032 13.0467 5.69585 12.8623 6.02765L9.30472 12.2028L10.0052 13.4194L13.8761 6.70968L16.4199 11.1152C16.807 11.7972 16.807 12.6267 16.4199 13.3088L13.8393 17.788C13.4522 18.47 12.2172 20 10.0052 20C7.7932 20 6.57661 18.47 6.17108 17.788L3.59043 13.3088C3.20334 12.6267 3.20334 11.7972 3.59043 11.1152L10.0052 0Z" fill="#ED5153"/>
</svg>