<svg viewBox="0 0 100 100" x="0px" y="0px"  xmlns="http://www.w3.org/2000/svg">
    <g>
      <g>
        <path class="st0" fill="#020203" d="M99.93,51.42c-0.35-2.32-3.13-2.46-4.97-2.55c0,0-7.59-0.21-8.39-0.24c-0.7-0.03-1.52-0.17-1.6-0.95
			c-0.08-0.82,0.66-1.2,1.33-1.35c1.35-0.29,2.7-0.31,4.03-0.31c2.94,0,5.64,0.32,8.49,0.84l0.31-2.29v-0.02
			c-2.15-0.4-5.13-0.87-8.3-0.87c-1.39-0.01-2.78,0.08-4.16,0.25c-1.5,0.2-3.15,0.54-3.95,1.6c-0.69,0.9-0.76,2.42-0.34,3.45
			c0.71,1.78,3.24,1.85,4.82,1.92c0,0,7.63,0.22,8.44,0.25c0.7,0.03,1.52,0.17,1.6,0.98c0.07,0.72-0.41,1.25-1.41,1.46
			c-1.3,0.27-2.68,0.31-4.01,0.31c-3.25,0-6.11-0.34-9.41-0.85l-0.27,2.31c3.02,0.61,6.1,0.92,9.18,0.94h0.05c1.4,0,2.81,0,4.2-0.2
			c1.22-0.18,2.51-0.44,3.47-1.28C100.01,53.99,100.1,52.58,99.93,51.42z"/>
        <path class="st0" d="M10.81,53.2l-7.59-9.43H0v12.46h2.85v-8.64l6.32,7.85c0.89,1.11,2.39,1.11,3.29,0l6.32-7.85v8.64h2.85V43.77
			H18.4L10.81,53.2z"/>
        <polygon class="st0" points="45.47,43.77 28.89,43.77 28.89,56.23 45.61,56.23 46.03,53.71 31.74,53.71 31.74,51.26 44.9,51.26
			44.9,48.74 31.74,48.74 31.74,46.29 45.47,46.29 		"/>
        <path class="st0" d="M72.98,56.23l5.19-12.46h-2.94l-3.98,9.54l-4.69-8.4c-0.65-1.13-2.1-1.52-3.23-0.87
			c-0.36,0.21-0.66,0.51-0.87,0.87l-4.69,8.4l-3.98-9.53h-2.94l5.2,12.46h3.02l5.43-9.83l5.43,9.83H72.98z"/>
      </g>
    </g>
  </svg>