<svg viewBox="0 0 20 20" fill="none" xmlns="http://www.w3.org/2000/svg">
<g clip-path="url(#clip0_11622_65330)">
<mask id="mask0_11622_65330" style="mask-type:luminance" maskUnits="userSpaceOnUse" x="0" y="0" width="20" height="20">
<path d="M20 0H0V20H20V0Z" fill="white"/>
</mask>
<g mask="url(#mask0_11622_65330)">
<mask id="mask1_11622_65330" style="mask-type:alpha" maskUnits="userSpaceOnUse" x="2" y="0" width="16" height="20">
<path d="M17.0834 6.46813C17.0834 5.5877 16.5299 4.8023 15.7007 4.50617L3.6136 0.189389C3.07092 -0.00443162 2.5 0.3979 2.5 0.974175V7.53774C2.5 7.8899 2.7214 8.20407 3.05306 8.32253L8.46973 10.257C9.01242 10.4509 9.58333 10.0485 9.58333 9.47226V5.70351C9.58333 5.41238 9.87429 5.21099 10.1467 5.31353L11.5671 5.84807C12.3791 6.15363 12.9167 6.93036 12.9167 7.7979V9.43909L6.79733 11.675C6.46865 11.7951 6.25 12.1078 6.25 12.4577V19.0166C6.25 19.5955 6.82565 19.998 7.36933 19.7993L15.715 16.7499C16.5367 16.4497 17.0833 15.668 17.0833 14.7931L17.0834 6.46813Z" fill="white"/>
</mask>
<g mask="url(#mask1_11622_65330)">
<path d="M2.5 -0.208374L17.0834 4.99992V12.1509C17.0834 12.7271 16.5125 13.1295 15.9698 12.9357L12.9167 11.8456V7.79665C12.9167 6.92871 12.3786 6.15169 11.5661 5.84642L10.1465 5.31306C9.8741 5.21071 9.58333 5.41208 9.58333 5.7031V10.6547L2.5 8.12496V-0.208374Z" fill="url(#paint0_linear_11622_65330)"/>
<g filter="url(#filter0_f_11622_65330)">
<path d="M17.0833 6.54163C17.0833 7.4165 16.5367 8.19971 15.715 8.49996L6.25 11.9583V20.2916L17.0833 16.3333V6.54163Z" fill="black" fill-opacity="0.24"/>
</g>
<g filter="url(#filter1_f_11622_65330)">
<path d="M17.0833 6.87488C17.0833 7.74975 16.5367 8.53294 15.715 8.83319L6.25 12.2916V20.6249L17.0833 16.6665V6.87488Z" fill="black" fill-opacity="0.32"/>
</g>
<path d="M17.0833 6.45825C17.0833 7.33313 16.5367 8.11631 15.715 8.41656L6.25 11.8749V20.2083L17.0833 16.2499V6.45825Z" fill="url(#paint1_linear_11622_65330)"/>
<path opacity="0.5" d="M17.0833 6.45825C17.0833 7.33313 16.5367 8.11631 15.715 8.41656L6.25 11.8749V20.2083L17.0833 16.2499V6.45825Z" fill="url(#paint2_linear_11622_65330)"/>
<path opacity="0.5" d="M12.9169 9.44165L9.5817 10.6618L9.58172 15.5489C9.58172 15.84 9.8727 16.0414 10.1452 15.9388L11.5675 15.4034C12.3794 15.0978 12.9169 14.3212 12.9169 13.4537V9.44165Z" fill="#B0ADFF"/>
</g>
</g>
</g>
<defs>
<filter id="filter0_f_11622_65330" x="5.45" y="5.74163" width="12.4333" height="15.35" filterUnits="userSpaceOnUse" color-interpolation-filters="sRGB">
<feFlood flood-opacity="0" result="BackgroundImageFix"/>
<feBlend mode="normal" in="SourceGraphic" in2="BackgroundImageFix" result="shape"/>
<feGaussianBlur stdDeviation="0.4" result="effect1_foregroundBlur_11622_65330"/>
</filter>
<filter id="filter1_f_11622_65330" x="-1.75" y="-1.12512" width="26.8333" height="29.75" filterUnits="userSpaceOnUse" color-interpolation-filters="sRGB">
<feFlood flood-opacity="0" result="BackgroundImageFix"/>
<feBlend mode="normal" in="SourceGraphic" in2="BackgroundImageFix" result="shape"/>
<feGaussianBlur stdDeviation="4" result="effect1_foregroundBlur_11622_65330"/>
</filter>
<linearGradient id="paint0_linear_11622_65330" x1="7.92606" y1="-0.208374" x2="11.8039" y2="9.94231" gradientUnits="userSpaceOnUse">
<stop stop-color="#0B53CE"/>
<stop offset="1" stop-color="#7252AA"/>
</linearGradient>
<linearGradient id="paint1_linear_11622_65330" x1="13.362" y1="19.4775" x2="13.362" y2="7.37811" gradientUnits="userSpaceOnUse">
<stop stop-color="#2266E3"/>
<stop offset="1" stop-color="#AE7FE2"/>
</linearGradient>
<linearGradient id="paint2_linear_11622_65330" x1="17.0833" y1="11.8303" x2="12.9326" y2="11.8303" gradientUnits="userSpaceOnUse">
<stop stop-color="#94B9FF"/>
<stop offset="0.287843" stop-color="#94B9FF" stop-opacity="0.523646"/>
<stop offset="1" stop-color="#538FFF" stop-opacity="0"/>
</linearGradient>
<clipPath id="clip0_11622_65330">
<rect width="20" height="20" fill="white"/>
</clipPath>
</defs>
</svg>