<svg viewBox="0 0 20 20" fill="none" xmlns="http://www.w3.org/2000/svg">
    <g clip-path="url(#clip0_12006_68444)">
      <path d="M20 0H0V20H20V0Z" fill="black"/>
      <path fill-rule="evenodd" clip-rule="evenodd"
            d="M15.8449 9.3407C16.1591 9.3407 16.4404 9.54717 16.5394 9.84042H15.1522C15.2493 9.54717 15.5305 9.3407 15.8449 9.3407ZM17.2351 10.0933C17.2351 9.72821 17.093 9.38409 16.8356 9.12226C16.5768 8.86043 16.2357 8.71531 15.8719 8.71531C15.8659 8.71531 15.8599 8.71531 15.8539 8.71531C15.4769 8.7198 15.1208 8.86941 14.8543 9.13722C14.588 9.40504 14.4383 9.75963 14.4339 10.1382C14.4294 10.5242 14.5775 10.8892 14.8513 11.166C15.1251 11.4428 15.4874 11.5954 15.8734 11.5954H15.8749C16.3806 11.5954 16.8551 11.3246 17.1139 10.8892L17.1468 10.8339L16.5783 10.5541L16.5499 10.6005C16.4077 10.8354 16.1609 10.9745 15.8871 10.9745C15.537 10.9745 15.2345 10.7411 15.1418 10.409H17.2353V10.0933H17.2351ZM13.6736 8.22606C13.4257 8.22606 13.2247 8.02515 13.2247 7.77722C13.2247 7.52928 13.4257 7.32837 13.6736 7.32837C13.9215 7.32837 14.1224 7.52928 14.1224 7.77722C14.1227 8.02515 13.9215 8.22606 13.6736 8.22606ZM13.3295 11.5386H14.0179V8.77366H13.3295V11.5386ZM12.0126 7.38651H12.7009V11.5386H12.0126V7.38651ZM10.6958 11.5386H11.3843V7.38651H10.6958V11.5386ZM8.88525 10.9142C8.46761 10.9142 8.12776 10.5744 8.12776 10.1567C8.12776 9.73911 8.46761 9.39927 8.88525 9.39927C9.30289 9.39927 9.64273 9.73911 9.64273 10.1567C9.64273 10.5744 9.30289 10.9142 8.88525 10.9142ZM8.88525 8.71531C8.09036 8.71531 7.44509 9.36208 7.44509 10.1555C7.44509 10.9489 8.09186 11.5956 8.88525 11.5956C9.67864 11.5956 10.3254 10.9489 10.3254 10.1555C10.3254 9.36186 9.68013 8.71531 8.88525 8.71531ZM5.94637 8.7198C5.90896 8.7168 5.87305 8.71531 5.83565 8.71531C5.48854 8.71531 5.15939 8.85744 4.92278 9.1088C4.68639 8.85894 4.35873 8.71531 4.0144 8.71531C3.32617 8.71531 2.76489 9.27487 2.76489 9.9631V11.5386H3.43838V9.98255C3.43838 9.69679 3.67327 9.43346 3.95006 9.40504C3.96951 9.40354 3.98896 9.40204 4.00692 9.40204C4.31812 9.40204 4.57247 9.65639 4.57396 9.96759V11.5386H5.26219V9.97956C5.26219 9.69529 5.4956 9.43197 5.77388 9.40354C5.79333 9.40204 5.81278 9.40055 5.83073 9.40055C6.14193 9.40055 6.39778 9.6534 6.39927 9.9631V11.5386H7.08772V9.98255C7.08772 9.66686 6.97102 9.36314 6.76006 9.12825C6.54932 8.89185 6.26056 8.74673 5.94637 8.7198Z"
            fill="white"/>
    </g>
    <defs>
      <clipPath id="clip0_12006_68444">
        <rect width="20" height="20" fill="white"/>
      </clipPath>
    </defs>
  </svg>