<svg viewBox="0 0 20 20" fill="none" xmlns="http://www.w3.org/2000/svg">
<path d="M15.1318 11.938C15.0388 12 14.9457 12.062 14.8217 12.062H5.17829C5.05426 12.062 4.93023 12 4.83721 11.907C4.46512 11.4419 4.24806 10.8527 4.24806 10.2016C4.24806 8.71318 5.42636 7.53488 6.91473 7.53488C7.41085 7.53488 7.87597 7.65891 8.27907 7.90698C8.58915 8.09302 8.86822 8.34109 9.08527 8.62015C9.08527 8.62015 9.11628 8.62015 9.08527 8.62015C8.77519 7.96899 8.21705 7.47287 7.53488 7.22481C8.03101 6.17054 9.11628 5.42636 10.3566 5.42636C11.938 5.42636 13.2403 6.60465 13.4264 8.12403C12.9612 8.24806 12.5581 8.52713 12.2791 8.89923C12.2481 8.89923 12.2481 8.89923 12.2791 8.89923C12.3721 8.8062 12.4961 8.71318 12.6202 8.65116C12.9302 8.46512 13.3023 8.37209 13.6744 8.37209C14.8217 8.37209 15.7519 9.30233 15.7519 10.4496C15.7519 11.0388 15.5039 11.5659 15.1318 11.938ZM15.3488 13.4574V14.3566C15.3488 14.4806 15.2558 14.5736 15.1318 14.5736H14.2326C14.1085 14.5736 14.0155 14.4806 14.0155 14.3566V13.5504C14.0155 13.4884 13.9845 13.4574 13.9225 13.4574H10.7597C10.6977 13.4574 10.6667 13.4884 10.6667 13.5504V14.3566C10.6667 14.4806 10.5736 14.5736 10.4496 14.5736H9.55039C9.42636 14.5736 9.33333 14.4806 9.33333 14.3566V13.5504C9.33333 13.4884 9.30233 13.4574 9.24031 13.4574H6.07752C6.0155 13.4574 5.9845 13.4884 5.9845 13.5504V14.3566C5.9845 14.4806 5.89147 14.5736 5.76744 14.5736H4.86822C4.74419 14.5736 4.65116 14.4806 4.65116 14.3566V13.2403V13.0233C4.65116 12.8992 4.74419 12.8372 4.86822 12.8372H15.1318C15.2558 12.8372 15.3488 12.8992 15.3488 13.0233V13.4574ZM9.9845 0C4.46512 0 0 4.46512 0 9.9845C0 15.5349 4.46512 20 9.9845 20C15.5349 20 20 15.5349 20 9.9845C20 4.46512 15.5349 0 9.9845 0Z" fill="#0379BF"/>
</svg>