<svg viewBox="0 0 20 20" fill="none" xmlns="http://www.w3.org/2000/svg">
<path d="M7.70024 7.55137C7.70024 9.44505 8.6609 11.4879 10.7749 11.4879C12.3427 11.4879 13.9279 10.2639 13.9279 7.52358C13.9279 5.12101 12.6818 3.50808 10.8271 3.50808C9.31583 3.50808 7.70024 4.56971 7.70024 7.55137ZM11.5719 0C15.3623 0 17.911 3.00212 17.911 7.47094C17.911 11.8696 15.2261 14.9404 11.3878 14.9404C9.5578 14.9404 8.3856 14.1566 7.77269 13.5892C7.77704 13.7238 7.77993 13.8744 7.77993 14.0352V20H3.85326V4.10763C3.85326 3.87658 3.77936 3.80347 3.55043 3.80347H2.2V0.323172H5.49493C7.01199 0.323172 7.4003 1.09527 7.4742 1.69043C8.09002 1.00022 9.36655 0 11.5719 0Z" fill="#26292C"/>
</svg>