<svg viewBox="0 0 20 20" fill="none" xmlns="http://www.w3.org/2000/svg">
    <g clip-path="url(#clip0_12017_70768)">
      <path
          d="M6.48273 15.345C6.64242 15.2739 6.80422 15.2085 6.9675 15.1472C7.15187 15.0779 7.33773 15.0127 7.52609 14.956C7.76055 14.8854 7.99695 14.8215 8.23656 14.7706C8.55987 14.7019 8.8868 14.6513 9.21578 14.6193C9.02981 15.2026 8.82639 15.7801 8.60578 16.3512C8.61487 16.4626 8.62071 16.5744 8.62328 16.6862C9.07671 16.5965 9.5378 16.5513 10 16.5512C10.4712 16.5512 10.9312 16.5983 11.3767 16.6862C11.3793 16.5744 11.3851 16.4626 11.3942 16.3512C11.1736 15.7801 10.9702 15.2026 10.7842 14.6193C11.1135 14.6512 11.4404 14.702 11.7634 14.7706C12.003 14.8215 12.2394 14.8854 12.4738 14.956C12.6623 15.0127 12.8481 15.0779 13.0325 15.1472C13.1959 15.2086 13.3577 15.274 13.5174 15.3451C14.6718 15.8583 15.7002 16.6174 16.5307 17.5694C18.6541 15.7357 20 13.0259 20 10C20 4.47719 15.5228 0 10 0C4.47719 0 0 4.47719 0 10C0 13.0259 1.34586 15.7356 3.4693 17.5694C4.29988 16.6174 5.32831 15.8583 6.48273 15.345Z"
          fill="#A5DBE8"/>
      <path
          d="M13.5174 15.345L14.1382 17.4797L14.3143 17.4879C14.4286 17.4879 14.509 17.518 14.509 17.6323C14.509 17.8223 14.5189 18.0358 14.5371 18.2222C14.6917 18.3536 14.8801 18.5017 15.0229 18.6456C15.5577 18.3342 16.0624 17.9739 16.5307 17.5693C15.7002 16.6174 14.6718 15.8583 13.5174 15.345ZM12.3036 15.3237L13.0325 15.1472C12.8481 15.0779 12.6623 15.0127 12.4739 14.956C12.2394 14.8854 12.003 14.8214 11.7635 14.7706C11.4402 14.7018 11.1132 14.6513 10.7842 14.6193C10.9702 15.2025 11.1736 15.7801 11.3942 16.3511C11.3851 16.4626 11.3793 16.5743 11.3767 16.6861C11.8932 16.788 12.401 16.965 12.8706 17.1727L12.3036 15.3237Z"
          fill="#525353"/>
      <path
          d="M4.97711 18.6456C5.09321 18.7133 5.21047 18.7793 5.32969 18.8424C5.37141 18.642 5.43813 18.3643 5.45828 18.1581C5.3036 18.2895 5.11992 18.5017 4.97711 18.6456ZM12.8584 17.1543C12.3833 16.9439 11.8864 16.7869 11.3767 16.6862C10.9233 16.5965 10.4622 16.5514 10 16.5513C9.52875 16.5513 9.06875 16.5983 8.62328 16.6862C8.10688 16.788 7.56805 16.9424 7.09867 17.15L7.04875 17.461H12.9514L12.8584 17.1543Z"
          fill="black"/>
      <path
          d="M5.44 18.2173C5.45828 18.0309 5.47149 17.8647 5.47149 17.6747C5.47149 17.5604 5.54985 17.4872 5.66414 17.4872L5.85156 17.4807L6.48274 15.345C5.32831 15.8582 4.29988 16.6174 3.4693 17.5693C3.9376 17.9739 4.44236 18.3342 4.97711 18.6456C5.11992 18.5016 5.2688 18.3637 5.42336 18.2323"
          fill="#525353"/>
      <path
          d="M14.6134 18.5973C14.6538 18.8004 14.663 18.8409 14.6703 18.8424C14.7892 18.7792 14.9067 18.7136 15.0229 18.6457C14.8785 18.5001 14.7281 18.3607 14.572 18.2278L14.6134 18.5973Z"
          fill="black"/>
      <path
          d="M12.8584 17.1543L12.9514 17.461H14.1587L13.5174 15.3451C13.3578 15.2744 13.1961 15.2084 13.0325 15.1472L12.3036 15.3238L12.8584 17.1543Z"
          fill="#AA9678"/>
      <path
          d="M5.86243 17.8883C5.86875 17.8839 5.87516 17.8794 5.88141 17.8749H5.86329C5.86313 17.8793 5.86266 17.8839 5.86243 17.8883Z"
          fill="#C4B6A1"/>
      <path d="M14.1367 17.8749H14.1185L14.1375 17.8883C14.1374 17.8839 14.1369 17.8793 14.1367 17.8749Z"
            fill="#AA9678"/>
      <path
          d="M14.1159 17.8441L9.99139 17.8488L9.99999 20.0001C11.535 20.0001 12.9887 19.6533 14.2885 19.0351C14.2037 18.6623 14.1951 18.2608 14.1813 17.87C14.1751 17.8654 14.1159 17.8441 14.1159 17.8441Z"
          fill="#AA9678"/>
      <path
          d="M9.99336 17.8577C9.99336 17.8577 5.8461 17.8524 5.83977 17.8569C5.82602 18.2478 5.74539 18.7115 5.71149 19.0351C7.01125 19.6532 8.465 20 10 20L10.0023 17.8646L9.99336 17.8577Z"
          fill="#C4B6A1"/>
      <path d="M10 17.668H10.0001V17.8749H10V17.668Z" fill="#786453"/>
      <path
          d="M16.5401 9.93505C16.5404 9.93771 16.5412 9.94005 16.5415 9.94271C16.5418 9.94435 16.5422 9.94583 16.5425 9.94739V9.94802C16.5472 9.98622 16.549 10.0261 16.5499 10.0664C16.5501 10.0738 16.5513 10.0808 16.5513 10.0881L16.5514 10.0908L16.5513 10.0938C16.5512 10.1018 16.5499 10.1092 16.5498 10.1171C16.5493 10.1559 16.5469 10.1946 16.5426 10.2332V10.2337L16.5415 10.2394C16.5412 10.2425 16.5402 10.2452 16.5398 10.2482C16.5346 10.288 16.5271 10.3275 16.5174 10.3665L16.5172 10.3671L16.5187 10.3656L16.5192 10.3638V10.3639L16.7809 10.0899L16.5171 9.81372L16.5172 9.81427C16.527 9.85278 16.5345 9.89325 16.5401 9.93505Z"
          fill="#676A6A"/>
      <path
          d="M16.5398 10.2482C16.5405 10.243 16.5419 10.2384 16.5426 10.2332C16.5472 10.1957 16.5489 10.1566 16.5498 10.1171C16.5499 10.1082 16.5513 10.0998 16.5513 10.0909C16.5513 10.0825 16.5501 10.0747 16.5499 10.0664C16.5494 10.0268 16.547 9.98734 16.5425 9.94804C16.5419 9.94351 16.5407 9.93953 16.5401 9.93507C16.5348 9.8944 16.5272 9.85407 16.5172 9.81429C16.5137 9.80085 16.509 9.7889 16.505 9.77593C16.4813 9.69765 16.449 9.62851 16.4108 9.57109C16.3961 9.54926 16.3801 9.52839 16.3628 9.50859C16.347 9.4911 16.3297 9.47502 16.3111 9.46054C16.3042 9.45531 16.2969 9.45164 16.2899 9.4471C16.2684 9.43294 16.245 9.42167 16.2205 9.41359C16.1974 9.4059 16.1733 9.40174 16.1489 9.40125C16.1244 9.40125 16.1006 9.4064 16.0773 9.41359C16.0527 9.42163 16.0294 9.4329 16.0078 9.4471C16.0009 9.45164 15.9936 9.45523 15.9868 9.46046C15.9546 9.48556 15.9263 9.51528 15.9029 9.54867C15.8974 9.55603 15.8921 9.56353 15.887 9.57117C15.8487 9.62859 15.8164 9.69773 15.7928 9.77601L15.7898 9.78539C15.7794 9.82132 15.7712 9.85914 15.7644 9.89796C15.7624 9.90984 15.7597 9.92125 15.758 9.93343C15.7518 9.97687 15.7486 10.0222 15.7478 10.0686C15.7477 10.075 15.7467 10.0811 15.7467 10.0875H15.7483C15.7483 10.4684 15.9285 10.7772 16.1508 10.7772C16.189 10.7772 16.2258 10.7672 16.2609 10.7501C16.282 10.7398 16.3018 10.7272 16.3201 10.7127C16.3277 10.7066 16.3348 10.6992 16.3421 10.6923C16.3598 10.6758 16.3767 10.657 16.3927 10.6362C16.4038 10.6216 16.4148 10.6069 16.4249 10.5906C16.4314 10.5802 16.4373 10.569 16.4433 10.5579C16.4546 10.5371 16.4652 10.5155 16.4748 10.4925C16.4784 10.4842 16.4821 10.4762 16.4854 10.4677C16.4976 10.4357 16.5083 10.4019 16.5174 10.3666C16.527 10.3288 16.5342 10.2891 16.5398 10.2482ZM16.1633 9.99906C16.08 9.99906 16.0124 9.8832 16.0124 9.74039C16.0124 9.59765 16.08 9.48179 16.1633 9.48179C16.2467 9.48179 16.3142 9.59765 16.3142 9.74039C16.3142 9.8832 16.2467 9.99906 16.1633 9.99906Z"
          fill="black"/>
      <path
          d="M16.1634 9.48181C16.08 9.48181 16.0125 9.59767 16.0125 9.74041C16.0125 9.88322 16.08 9.99908 16.1634 9.99908C16.2467 9.99908 16.3142 9.88322 16.3142 9.74041C16.3142 9.59767 16.2467 9.48181 16.1634 9.48181Z"
          fill="white"/>
      <path
          d="M15.7928 9.77596C15.8164 9.69768 15.8487 9.62853 15.887 9.57111C15.8922 9.5633 15.8974 9.55603 15.9029 9.54861C15.9263 9.51517 15.9546 9.48544 15.9868 9.46041C15.9936 9.45518 16.0009 9.45158 16.0078 9.44705C16.0293 9.43282 16.0527 9.42155 16.0773 9.41354C16.1005 9.40619 16.1244 9.40119 16.1489 9.40119C16.1734 9.40119 16.1973 9.40619 16.2205 9.41354C16.245 9.42162 16.2684 9.43288 16.2899 9.44705C16.2969 9.45158 16.3042 9.45525 16.3111 9.46049C16.3291 9.47424 16.3462 9.49049 16.3628 9.50853C16.3801 9.52833 16.3961 9.54921 16.4108 9.57104C16.4491 9.62846 16.4813 9.6976 16.505 9.77588V9.77604L16.1489 8.14502L15.7928 9.77596Z"
          fill="#909393"/>
      <path
          d="M11.4296 10.0756C11.4292 10.0428 11.427 10.0103 11.4234 9.97846C11.4233 9.97807 11.4231 9.9776 11.4231 9.97713C11.4194 9.94595 11.4142 9.91498 11.4074 9.88432L11.4068 9.88197C11.4001 9.85206 11.3919 9.82249 11.3824 9.79338L11.3816 9.79143C11.372 9.76255 11.361 9.73418 11.3486 9.70643C11.3484 9.70588 11.3481 9.70533 11.3478 9.70471C11.2486 9.48385 11.0685 9.3094 10.8446 9.21721L10.8419 9.21619C10.7874 9.19397 10.731 9.17694 10.6733 9.16533C10.6718 9.1651 10.6704 9.16502 10.6689 9.16471C10.6094 9.15296 10.5489 9.14702 10.4882 9.14697C10.4274 9.14697 10.3682 9.15322 10.3106 9.16424L10.3045 9.16518C10.2473 9.17658 10.192 9.1933 10.139 9.21455L10.1348 9.21619C10.0811 9.23795 10.0296 9.26466 9.98095 9.29596C9.93228 9.32736 9.88657 9.36307 9.84454 9.40252L9.84353 9.40572L9.84001 9.4065C9.77269 9.47056 9.71507 9.54409 9.66899 9.62478L9.66728 9.62768C9.65321 9.65244 9.64048 9.67822 9.62876 9.70447C9.62751 9.70729 9.62595 9.70994 9.62478 9.71275C9.61407 9.73705 9.60485 9.76221 9.59626 9.78752C9.59462 9.79252 9.59243 9.79721 9.59087 9.80213C9.58337 9.8258 9.57728 9.8501 9.57149 9.87439C9.57001 9.88143 9.56774 9.88814 9.56626 9.8951C9.56126 9.91916 9.55782 9.94377 9.55462 9.96846C9.55368 9.97604 9.55204 9.9833 9.55126 9.99088C9.54145 10.0844 9.54577 10.1789 9.56407 10.2712C9.56423 10.2724 9.56431 10.2737 9.56462 10.2749C9.57642 10.3338 9.59376 10.3905 9.61603 10.4448C9.61634 10.4456 9.61649 10.4463 9.61688 10.4471C9.66196 10.5561 9.72704 10.6557 9.80876 10.7408C9.87282 10.8076 9.94657 10.8649 10.0277 10.9106L10.0288 10.9113C10.0542 10.9256 10.0803 10.9384 10.107 10.9503C10.1092 10.9512 10.1113 10.9524 10.1135 10.9534C10.1382 10.9642 10.1638 10.9735 10.1895 10.9821C10.1938 10.9836 10.1981 10.9855 10.2024 10.9869C10.2262 10.9945 10.2507 11.0006 10.2752 11.0062C10.2819 11.0078 10.2883 11.0099 10.295 11.0113C10.3188 11.0163 10.3434 11.0196 10.3681 11.0228C10.3755 11.0237 10.3828 11.0254 10.3904 11.0262C10.6104 11.0494 10.8316 10.9942 11.0149 10.8704C11.1152 10.8026 11.2016 10.7162 11.2695 10.616C11.3745 10.4604 11.4306 10.2769 11.4304 10.0892C11.4304 10.0869 11.4301 10.0848 11.4301 10.0827C11.43 10.0803 11.4297 10.078 11.4296 10.0756ZM10.4882 9.96518C10.4417 9.96517 10.3957 9.95601 10.3528 9.93822C10.3098 9.92043 10.2708 9.89435 10.2379 9.86148C10.2051 9.82861 10.179 9.78959 10.1612 9.74664C10.1435 9.7037 10.1343 9.65767 10.1343 9.61119C10.1343 9.56471 10.1435 9.51869 10.1613 9.47575C10.1791 9.4328 10.2051 9.39379 10.238 9.36093C10.2709 9.32806 10.3099 9.302 10.3528 9.28421C10.3958 9.26643 10.4418 9.25728 10.4883 9.25729C10.5822 9.2573 10.6722 9.2946 10.7386 9.36098C10.8049 9.42737 10.8422 9.5174 10.8422 9.61127C10.8422 9.70514 10.8049 9.79516 10.7385 9.86154C10.6721 9.92791 10.5821 9.96519 10.4882 9.96518Z"
          fill="black"/>
      <path
          d="M10.4882 9.25732C10.3943 9.25732 10.3043 9.29461 10.2379 9.36098C10.1716 9.42735 10.1343 9.51737 10.1343 9.61123C10.1343 9.70509 10.1716 9.79511 10.2379 9.86148C10.3043 9.92785 10.3943 9.96514 10.4882 9.96514C10.582 9.96514 10.6721 9.92785 10.7384 9.86148C10.8048 9.79511 10.8421 9.70509 10.8421 9.61123C10.8421 9.51737 10.8048 9.42735 10.7384 9.36098C10.6721 9.29461 10.582 9.25732 10.4882 9.25732Z"
          fill="white"/>
      <path
          d="M9.84002 9.40654L9.84353 9.40576L9.84455 9.40256L10.4935 7.41803V6.95357L10.4934 6.94834C10.1271 6.87251 9.75412 6.83403 9.3801 6.8335C9.25314 6.8335 9.1272 6.83889 9.00205 6.8474C8.98385 6.84865 8.96556 6.84975 8.94728 6.85115C8.29595 6.90061 7.65455 7.07037 7.06064 7.34146C6.55135 7.57404 6.07814 7.88037 5.65275 8.24357L5.65205 8.24428C5.53823 8.34174 5.42798 8.44329 5.3215 8.54873C5.3015 8.56826 5.28119 8.58764 5.26142 8.60748C5.16077 8.70899 5.06341 8.81371 4.96947 8.92146C4.94908 8.94498 4.929 8.96896 4.90885 8.99271C4.81405 9.10393 4.7228 9.21813 4.63525 9.33514C4.62799 9.34498 4.62119 9.35529 4.614 9.36514C4.53095 9.47855 4.45133 9.59444 4.37525 9.71264C4.36033 9.73568 4.34502 9.75842 4.33041 9.7817C4.26869 9.87959 4.21127 9.98014 4.15424 10.0809H7.11025L9.84002 9.40654Z"
          fill="#BBBCBD"/>
      <path
          d="M12.3355 9.18329C12.3415 9.10586 12.3465 9.02852 12.3504 8.95102C12.3558 8.84618 12.3595 8.74118 12.3615 8.63625C12.3631 8.55477 12.3629 8.47321 12.3625 8.39172C12.3625 8.36821 12.363 8.34469 12.3628 8.3211C12.3603 8.1107 12.3526 7.9004 12.3396 7.69039L12.3378 7.68922L12.337 7.68774C12.2589 7.64286 12.1807 7.59818 12.1024 7.55368L12.0969 7.55055L12.0358 7.51594L12.0347 7.51532L11.9922 7.49157L11.9839 7.48688C11.9736 7.4812 11.9634 7.4756 11.953 7.47008C11.8171 7.39956 11.6785 7.33443 11.5375 7.27485C11.2013 7.13289 10.7485 7.00844 10.4934 6.94836V7.41805L11.1366 9.40579L11.1373 9.40743C11.2037 9.47071 11.2608 9.54344 11.3066 9.6236C11.3216 9.64985 11.3354 9.67704 11.3478 9.70477C11.3481 9.7054 11.3484 9.70594 11.3486 9.70649C11.361 9.73414 11.3719 9.7625 11.3815 9.79149L11.3823 9.79344C11.3918 9.82243 11.4 9.85196 11.4068 9.88204L11.4074 9.88438C11.4141 9.91477 11.4193 9.94579 11.4231 9.97719C11.4231 9.97766 11.4233 9.97813 11.4233 9.97852C11.427 10.0104 11.4291 10.0428 11.4296 10.0756L11.432 10.0809H12.2196C12.2724 9.79191 12.3104 9.50035 12.3334 9.20743C12.334 9.19938 12.3349 9.19133 12.3355 9.18329Z"
          fill="#E3DDDB"/>
      <path d="M13.3655 8.48047C13.365 8.48133 13.3646 8.48234 13.3641 8.4832L13.3655 8.48047Z" fill="#FCB03F"/>
      <path
          d="M9.84454 9.40262C9.88687 9.36296 9.93271 9.32721 9.9815 9.29583C10.03 9.26464 10.0813 9.23801 10.1348 9.21629C10.1362 9.21567 10.1377 9.21528 10.139 9.21465C10.1925 9.19313 10.248 9.1766 10.3045 9.16528L10.3106 9.16434C10.3692 9.15298 10.4286 9.1472 10.4882 9.14708C10.5501 9.14708 10.6104 9.15333 10.6689 9.16481C10.6704 9.16512 10.6718 9.1652 10.6733 9.16543C10.7319 9.17721 10.7893 9.19458 10.8446 9.21731C10.9531 9.26205 11.0524 9.32653 11.1374 9.40747L11.1367 9.40583L10.4934 7.41809L9.84454 9.40262Z"
          fill="#909393"/>
      <path
          d="M9.616 10.4449C9.59348 10.3901 9.57626 10.3332 9.56459 10.2751C9.56428 10.2738 9.5642 10.2725 9.56404 10.2713C9.54574 10.179 9.54142 10.0845 9.55123 9.99099C9.55201 9.98341 9.55365 9.97615 9.55459 9.96857C9.55779 9.94388 9.56123 9.91927 9.56623 9.89521C9.56771 9.88826 9.56998 9.88154 9.57146 9.87451C9.57725 9.85021 9.58334 9.82591 9.59084 9.80224C9.59248 9.79732 9.59451 9.79263 9.59623 9.78763C9.60482 9.76232 9.61404 9.73716 9.62475 9.71287C9.62592 9.71005 9.62748 9.7074 9.62873 9.70459C9.64045 9.67834 9.65318 9.65255 9.66725 9.62779L9.66896 9.6249C9.71504 9.5442 9.77266 9.47067 9.83998 9.40662L7.11021 10.081H7.10498L9.80873 10.7409C9.72701 10.6558 9.66193 10.5562 9.61686 10.4472C9.61646 10.4465 9.61631 10.4457 9.616 10.4449Z"
          fill="#676A6A"/>
      <path
          d="M15.758 9.93345C15.7598 9.92126 15.7623 9.90985 15.7644 9.89798C15.7712 9.85915 15.7794 9.82134 15.7898 9.7854C15.791 9.78134 15.7915 9.77673 15.7927 9.77274L16.1489 8.14181L16.1488 7.21188C15.8578 6.97149 15.5462 6.84009 15.2217 6.84009C14.8117 6.84009 14.4294 7.06649 14.1436 7.3461C13.8308 7.65212 13.5891 8.03712 13.3936 8.42563C13.3846 8.44353 13.3754 8.46071 13.3665 8.47868C13.4267 8.53087 13.4863 8.58376 13.5452 8.63759C13.6781 8.75964 13.8087 8.88417 13.937 9.0111C13.9969 9.07017 14.0556 9.13048 14.1145 9.19056C14.177 9.25423 14.2396 9.31774 14.3012 9.38243C14.4137 9.50069 14.5247 9.62044 14.6341 9.74165C14.728 9.84518 14.8208 9.94964 14.9127 10.055L14.9128 10.0552C14.9282 10.0713 14.939 10.0828 14.9431 10.0875H15.7464C15.7464 10.081 15.7477 10.0751 15.7478 10.0686C15.7486 10.0222 15.7518 9.97688 15.758 9.93345ZM13.3664 8.48298L13.3655 8.48056L13.3641 8.48321L13.3677 8.48665C13.3673 8.48541 13.3669 8.48419 13.3664 8.48298Z"
          fill="#E3DDDB"/>
      <path
          d="M3.66989 11.1072L3.67708 11.0893C3.78494 10.8094 3.90933 10.5362 4.04958 10.2711C4.0713 10.2298 4.09255 10.1884 4.11505 10.1475C4.12747 10.125 4.14153 10.1034 4.15419 10.0809C4.21122 9.98013 4.26864 9.87958 4.33036 9.78169C4.34497 9.75833 4.36028 9.73567 4.37521 9.71263C4.45129 9.59443 4.53091 9.47854 4.61396 9.36513C4.62114 9.35528 4.62794 9.34497 4.63521 9.33513C4.72276 9.21812 4.814 9.10392 4.9088 8.99271C4.92896 8.96896 4.94896 8.94505 4.96942 8.92146C5.06336 8.8137 5.16073 8.70898 5.26138 8.60747C5.28122 8.58763 5.30146 8.56825 5.32146 8.54872C5.42793 8.44328 5.53819 8.34173 5.652 8.24427L5.65271 8.24356C6.102 6.73856 7.55278 5.81372 9.17942 5.81372C9.83411 5.81372 10.4852 6.00239 11.0432 6.34372C11.6155 6.6938 12.0058 7.03583 12.3087 7.63372L12.3133 7.64271C12.3209 7.65786 12.3295 7.67239 12.337 7.68771L12.3378 7.68919L12.3396 7.69036C12.594 7.84779 12.8364 8.02392 13.0647 8.21731C13.1415 8.28213 13.2168 8.34865 13.2906 8.41685C13.315 8.43919 13.34 8.46044 13.3641 8.48317C13.3646 8.48224 13.365 8.4813 13.3655 8.48044C13.3658 8.47979 13.366 8.47917 13.3664 8.47856C13.3747 8.46161 13.3828 8.44435 13.3911 8.42763C13.6204 6.98099 14.3486 6.19216 15.1013 6.19216C15.6686 6.19216 16.0811 6.53044 16.3925 7.44106L16.3958 7.45083L16.3965 7.45192C16.4884 7.55212 16.5741 7.65772 16.6533 7.76817L16.6532 7.7681C16.6548 7.77028 16.6565 7.77231 16.6582 7.77458C16.6626 7.78778 16.6665 7.80138 16.6708 7.81458L16.659 7.76708C15.7227 4.99505 13.1008 2.99927 10.0127 2.99927C6.13927 2.99927 2.99927 6.13927 2.99927 10.0127C2.99927 10.7763 3.1213 11.5115 3.34786 12.1955L3.3488 12.1915C3.42845 11.8226 3.53579 11.4601 3.66989 11.1072Z"
          fill="#525353"/>
      <path
          d="M16.7638 10.0902L16.5192 10.3639V10.3638L16.5186 10.3656C16.5093 10.4016 16.4979 10.4352 16.4854 10.4676C16.4821 10.4761 16.4784 10.4842 16.4748 10.4925C16.4654 10.5148 16.4549 10.5366 16.4433 10.5578C16.4373 10.5689 16.4314 10.5802 16.4249 10.5906C16.4147 10.6068 16.4038 10.6216 16.3927 10.6361C16.3774 10.6562 16.3605 10.675 16.3421 10.6923C16.3348 10.6991 16.3278 10.7065 16.3201 10.7126C16.3018 10.7272 16.2819 10.7397 16.2609 10.75C16.2258 10.7671 16.189 10.7771 16.1508 10.7771C15.9285 10.7771 15.7483 10.4684 15.7483 10.0875H14.9407L14.9411 10.0881C15.0929 10.2634 15.2422 10.4409 15.3891 10.6203C15.5303 10.7928 15.6697 10.9667 15.8074 11.1421L15.8277 11.1678C15.9582 11.3343 16.0874 11.5017 16.2155 11.6701L16.2529 11.7189C16.3889 11.898 16.5241 12.0777 16.6584 12.2582C16.8948 11.5585 17.0189 10.8259 17.0262 10.0875L16.7992 10.0789L16.7638 10.0902Z"
          fill="white"/>
      <path
          d="M8.94724 6.85115C8.96552 6.84974 8.9838 6.84865 9.00201 6.8474C9.12783 6.83848 9.25392 6.83384 9.38005 6.83349C9.76037 6.83349 10.1319 6.87419 10.4933 6.94833C10.7484 7.00841 11.2013 7.13287 11.5375 7.27482C11.6785 7.3344 11.8171 7.39953 11.953 7.47005L11.9839 7.48685L11.9922 7.49154C12.0048 7.49857 12.0186 7.50615 12.0347 7.51529L12.0358 7.51591L12.0969 7.55052L12.1024 7.55365C12.1888 7.60263 12.2844 7.65755 12.321 7.67849L12.3304 7.68388L12.337 7.68771C12.3295 7.6724 12.3209 7.65787 12.3133 7.64271L12.3087 7.63373C12.0058 7.03583 11.5394 6.52302 10.967 6.17294C10.409 5.83162 9.75794 5.64294 9.10318 5.64294C7.47662 5.64294 6.10201 6.73857 5.65271 8.24357C6.0781 7.88037 6.5513 7.57404 7.0606 7.34146C7.65451 7.07037 8.29591 6.9006 8.94724 6.85115Z"
          fill="black"/>
      <path
          d="M16.6582 7.77464C16.6566 7.77238 16.6549 7.77035 16.6532 7.76816L16.6534 7.76824C16.5742 7.65778 16.4884 7.55218 16.3966 7.45199L16.3943 7.44925C16.3552 7.40676 16.3148 7.36546 16.2731 7.32542C16.2578 7.31066 16.2418 7.29777 16.2263 7.28363C16.2006 7.26027 16.175 7.23613 16.1489 7.21472V8.14511L16.5051 9.77621C16.509 9.78886 16.5137 9.80066 16.5171 9.81378L16.7638 10.0903L16.7663 10.0875H17.0245C17.0248 10.0636 17.0263 10.04 17.0263 10.016V10.0157C17.0261 9.26768 16.9061 8.52456 16.6708 7.81457C16.6665 7.80136 16.6627 7.78785 16.6582 7.77464Z"
          fill="#BBBCBD"/>
      <path
          d="M14.1436 7.34611C14.4294 7.0665 14.8117 6.84009 15.2217 6.84009C15.5461 6.84009 15.8578 6.9715 16.1488 7.21189L16.1489 7.2147C16.175 7.23611 16.2005 7.26025 16.2262 7.28361C16.2418 7.29775 16.2577 7.31064 16.2731 7.32541C16.3147 7.36544 16.3551 7.40674 16.3943 7.44923L16.3965 7.45197C16.3963 7.45162 16.3961 7.45131 16.3958 7.45103L16.3958 7.45095L16.3926 7.44111C16.0811 6.53048 15.5785 5.93884 15.0113 5.93884C14.2586 5.93884 13.6204 6.98103 13.3911 8.42767L13.3936 8.42564C13.589 8.03712 13.8308 7.65212 14.1436 7.34611ZM13.1265 16.2372C13.1265 16.2372 13.0251 16.1569 12.8965 16.0088C12.8366 15.9404 12.7808 15.8685 12.7294 15.7935C12.7129 15.7695 12.6967 15.7447 12.6805 15.7191C12.6319 15.6421 12.593 15.5485 12.5502 15.4559C12.5007 15.3487 12.5005 15.2774 12.4721 15.1775C12.4512 15.104 12.4345 15.0293 12.4223 14.9538C12.4026 14.8318 12.3947 14.7081 12.3986 14.5845C12.4008 14.5131 12.4082 14.4393 12.4189 14.3642C12.4295 14.2895 12.444 14.2155 12.4624 14.1424C12.5191 13.9156 12.6172 13.674 12.7701 13.419L12.809 13.3317C12.859 13.2484 12.8701 13.252 12.9176 13.1718C13.5867 12.0427 13.9476 11.1888 13.7711 9.87416C13.7517 9.73947 13.7297 9.60517 13.7051 9.47134C13.6897 9.56834 13.6735 9.66519 13.6563 9.76189C13.6497 9.79189 13.6315 9.82447 13.6246 9.84486C13.334 10.705 12.8765 11.3377 12.2182 12.0522C12.1265 12.1513 12.0338 12.2493 11.9399 12.3463C11.7722 12.5197 11.6028 12.6913 11.4317 12.8612C11.3604 12.932 11.2878 13.0039 11.2139 13.0772C11.146 13.1444 11.0615 13.2881 10.9608 13.3939C10.8986 13.5681 10.8279 13.7645 10.7681 13.971C10.7411 13.9608 10.7154 13.9517 10.688 13.941C9.40927 13.4464 8.5531 12.7856 8.5531 12.7856C8.5531 12.7856 9.21185 13.6433 10.3217 14.4485C10.4237 14.5224 10.5296 14.5909 10.6388 14.6538C10.593 15.3785 10.9127 16.0742 12.3558 16.2817C12.5997 16.3167 12.8496 16.3151 13.1012 16.2867C13.0987 16.2792 13.1153 16.2794 13.114 16.2752C13.1126 16.271 13.1274 16.2599 13.1274 16.2599"
          fill="black"/>
      <path
          d="M12.3546 14.3718C13.6357 14.5785 15.5317 14.5446 17.5 13.623C17.5474 13.6009 17.5997 13.6593 17.6471 13.636C17.6471 13.636 16.3019 15.01 14.6953 15.7868C14.6484 15.8095 14.6021 15.8336 14.5546 15.8552C14.3994 15.9261 14.2415 15.9879 14.083 16.0449C13.7721 16.1566 13.4571 16.2414 13.1444 16.2805C13.13 16.2824 13.1157 16.2852 13.1013 16.2867C13.0993 16.2808 13.0973 16.2749 13.0954 16.269L13.0933 16.2625C13.0933 16.2625 12.9919 16.1821 12.8632 16.0341C12.8033 15.9657 12.7475 15.8937 12.6962 15.8187C12.6245 15.7145 12.5617 15.6045 12.5086 15.4898C12.4637 15.3929 12.4265 15.2927 12.3971 15.19C12.342 14.9973 12.3172 14.7973 12.3236 14.597C12.3263 14.5232 12.3331 14.4496 12.3439 14.3766L12.3546 14.3718Z"
          fill="#9F2254"/>
      <path
          d="M11.4364 12.9133C11.6076 12.7434 11.777 12.5718 11.9447 12.3985C12.0385 12.3015 12.1313 12.2034 12.2229 12.1043C12.8811 11.3899 13.3643 10.7213 13.6551 9.86113C13.6618 9.84074 13.6687 9.81387 13.6754 9.78363L13.6785 9.76965C13.6853 9.73754 13.6919 9.70184 13.6986 9.6616C13.7012 9.63387 13.7882 9.57793 13.7906 9.55191C13.7177 9.17738 13.5497 8.78363 13.3664 8.48301C13.3668 8.48422 13.3672 8.48544 13.3676 8.48668L13.3641 8.48324C13.3401 8.46051 13.315 8.43926 13.2906 8.41691C13.2168 8.34872 13.1415 8.28219 13.0647 8.21738C12.8364 8.02401 12.594 7.84787 12.3396 7.69043C12.3524 7.9009 12.3606 8.11113 12.3628 8.32113C12.3631 8.34473 12.3625 8.36824 12.3625 8.39176C12.3629 8.47324 12.3631 8.5548 12.3615 8.63629C12.3595 8.74126 12.3558 8.8462 12.3504 8.95105C12.3465 9.02855 12.3415 9.1059 12.3355 9.18332C12.3349 9.19137 12.334 9.19941 12.3334 9.20746C12.3104 9.50039 12.2724 9.79194 12.2196 10.081L12.1271 10.5184C11.9339 11.3017 11.5415 12.0121 11.2188 12.7457C11.1333 12.9403 11.0521 13.137 10.9809 13.3374L10.9608 13.3939C11.0455 13.3046 11.1314 13.2163 11.2186 13.1293C11.2926 13.0561 11.3652 12.9842 11.4364 12.9133Z"
          fill="#FCB03F"/>
      <path
          d="M7.203 17.126C7.67245 16.9183 8.1069 16.7879 8.62331 16.6861C8.62074 16.5743 8.6149 16.4626 8.60581 16.3511C8.82642 15.7801 9.02984 15.2025 9.21581 14.6193C8.88682 14.6513 8.5599 14.7018 8.23659 14.7706C7.99698 14.8214 7.76058 14.8854 7.52612 14.956C7.33776 15.0127 7.1519 15.0779 6.96753 15.1472L7.69651 15.3237L7.10995 17.1648L7.203 17.126Z"
          fill="#525353"/>
      <path
          d="M16.2155 11.6702C16.0874 11.5018 15.9582 11.3344 15.8277 11.1679L15.8074 11.1422C15.668 10.9646 15.5269 10.7886 15.3839 10.614C15.2387 10.4367 15.0911 10.2614 14.9412 10.0882C14.9317 10.0772 14.9222 10.066 14.9126 10.055C14.7891 9.91315 14.6637 9.7729 14.5364 9.63434C14.4588 9.54965 14.3803 9.46569 14.3012 9.38247C14.2394 9.31803 14.1772 9.25407 14.1145 9.19059C14.0556 9.13051 13.9969 9.0702 13.937 9.01114C13.8087 8.88424 13.678 8.75972 13.5451 8.63762C13.4863 8.58384 13.4267 8.53084 13.3664 8.47864C13.3661 8.47924 13.3658 8.47987 13.3655 8.48051C13.4922 8.84473 13.6369 9.21348 13.7093 9.59333C13.7281 9.69215 13.7437 9.78825 13.7563 9.88215C13.9329 11.1968 13.5116 12.0551 12.8426 13.1843C12.7937 13.2668 12.7445 13.3492 12.6951 13.4314C12.5421 13.6866 12.4441 13.9281 12.3873 14.1549C12.369 14.228 12.3545 14.3021 12.3438 14.3767C13.6558 14.5884 15.6286 14.6279 17.6471 13.6361C17.6471 13.6361 17.2512 13.0543 16.6556 12.2545C16.5222 12.0753 16.388 11.8968 16.2529 11.719C16.2405 11.7026 16.228 11.6864 16.2155 11.6702Z"
          fill="#DF0067"/>
      <path
          d="M7.04025 17.4939L7.6965 15.3238L6.96751 15.1472C6.80423 15.2085 6.64243 15.2739 6.48275 15.345L5.83282 17.4939L6.55837 17.5053L7.04025 17.4939Z"
          fill="#AA9678"/>
      <path
          d="M7.50155 16.555C7.56561 16.5796 7.63077 16.6018 7.69577 16.6245C8.44032 16.8858 9.22374 17.0191 10.0128 17.0188C10.9104 17.0193 11.7997 16.847 12.6322 16.5112C12.675 16.494 12.7169 16.4751 12.7593 16.457C12.828 16.4279 12.8962 16.3976 12.9639 16.3663C13.0244 16.3382 13.0848 16.3103 13.1444 16.2805C13.13 16.2824 13.1156 16.2852 13.1012 16.2867C12.8496 16.3151 12.5998 16.3167 12.3558 16.2816C10.9127 16.0741 10.593 15.3784 10.6388 14.6537C10.5296 14.5909 10.4237 14.5224 10.3217 14.4484C9.21186 13.6433 8.55311 12.7855 8.55311 12.7855C8.55311 12.7855 9.40928 13.4464 10.688 13.941C10.7155 13.9516 10.7412 13.9608 10.7681 13.971C10.8279 13.7644 10.8986 13.568 10.9608 13.3939L10.9809 13.3373C11.0521 13.1369 11.1333 12.9402 11.2188 12.7457C11.5415 12.0121 11.9339 11.3016 12.1271 10.5184L12.2196 10.0809H11.4304L11.4303 10.081L11.4304 10.0826L11.4301 10.0827C11.4301 10.0848 11.4304 10.0869 11.4304 10.0892C11.4306 10.2769 11.3745 10.4604 11.2694 10.616C11.167 10.7673 11.0231 10.8858 10.8549 10.9573C10.7084 11.0193 10.5486 11.043 10.3904 11.0262C10.3828 11.0255 10.3755 11.0238 10.368 11.0229C10.3433 11.0197 10.3188 11.0163 10.295 11.0114C10.2883 11.0099 10.2819 11.0078 10.2752 11.0062C10.2507 11.0006 10.2262 10.9945 10.2024 10.9869C10.198 10.9855 10.1938 10.9837 10.1894 10.9822C10.1637 10.9735 10.1382 10.9642 10.1135 10.9534C10.1112 10.9525 10.1091 10.9513 10.1069 10.9503C10.0803 10.9386 10.0542 10.9256 10.0288 10.9114L10.0276 10.9107C9.94678 10.8651 9.87303 10.8078 9.80874 10.7409L7.10499 10.0809H4.15421C4.14155 10.1034 4.12749 10.125 4.11507 10.1476C4.09257 10.1884 4.07132 10.2299 4.0496 10.2711C3.97708 10.4081 3.90882 10.5472 3.84491 10.6884C3.78515 10.8204 3.72919 10.9541 3.6771 11.0893L3.66991 11.1073C3.5358 11.4601 3.42847 11.8226 3.34882 12.1916C3.81335 13.6084 4.71718 14.8259 5.89866 15.6841C5.93303 15.709 5.96928 15.7312 6.00413 15.7555C6.20406 15.8959 6.41119 16.0258 6.62467 16.1445C6.90706 16.3016 7.20006 16.4388 7.50155 16.555Z"
          fill="white"/>
      <path
          d="M14.5766 18.2324C14.5577 18.0448 14.5479 17.8565 14.5472 17.668C14.5472 17.6131 14.5254 17.5605 14.4866 17.5217C14.4478 17.4829 14.3952 17.4611 14.3403 17.4611H5.65971C5.60483 17.4611 5.5522 17.4829 5.5134 17.5217C5.47459 17.5605 5.45278 17.6131 5.45276 17.668C5.45276 17.858 5.44159 18.046 5.42338 18.2324C5.40315 18.4373 5.37188 18.6409 5.32971 18.8424C5.45557 18.909 5.58245 18.9737 5.71151 19.0351C5.79782 18.6585 5.84836 18.2745 5.86245 17.8884C5.86268 17.8839 5.86315 17.8794 5.86331 17.875H14.1367C14.1369 17.8794 14.1374 17.8839 14.1375 17.8884C14.1517 18.2745 14.2022 18.6585 14.2885 19.0351C14.4172 18.9736 14.5444 18.9093 14.6703 18.8424C14.6282 18.6409 14.5969 18.4373 14.5766 18.2324Z"
          fill="#8B7460"/>
    </g>
    <defs>
      <clipPath id="clip0_12017_70768">
        <rect width="20" height="20" fill="white"/>
      </clipPath>
    </defs>
  </svg>