<svg viewBox="0 0 20 20" fill="none" xmlns="http://www.w3.org/2000/svg">
<g clip-path="url(#clip0_11622_65329)">
<path d="M8.32247 4.53819C8.96684 3.86109 9.86394 3.44116 10.8561 3.44116C12.175 3.44116 13.3257 4.18285 13.9385 5.2839C14.471 5.04394 15.0605 4.91047 15.6806 4.91047C18.0594 4.91047 19.988 6.87232 19.988 9.29227C19.988 11.7125 18.0594 13.6744 15.6806 13.6744C15.3903 13.6744 15.1066 13.6451 14.8322 13.5891C14.2926 14.5599 13.2642 15.2157 12.0839 15.2157C11.5899 15.2157 11.1225 15.1006 10.7064 14.896C10.1594 16.1936 8.88487 17.1035 7.39946 17.1035C5.85257 17.1035 4.53424 16.1164 4.02819 14.7321C3.80704 14.7794 3.57793 14.8041 3.34283 14.8041C1.50109 14.8041 0.00799561 13.2829 0.00799561 11.406C0.00799561 10.1482 0.678834 9.05002 1.67556 8.46247C1.47035 7.98629 1.35622 7.46073 1.35622 6.9082C1.35622 4.74973 3.0938 3 5.23695 3C6.49524 3 7.61349 3.60333 8.32247 4.53819Z" fill="#00A1E0"/>
<path d="M2.90192 10.3137C2.88939 10.3467 2.90647 10.3536 2.91045 10.3593C2.94802 10.3869 2.98616 10.4067 3.02458 10.4288C3.22837 10.5378 3.42077 10.5697 3.62199 10.5697C4.03184 10.5697 4.28628 10.3498 4.28628 9.99593V9.98904C4.28628 9.66183 3.99911 9.543 3.72958 9.45717L3.69457 9.44569C3.49135 9.3791 3.31603 9.32169 3.31603 9.18679V9.17961C3.31603 9.06423 3.41849 8.97927 3.57731 8.97927C3.75377 8.97927 3.96325 9.0384 4.09815 9.1136C4.09815 9.1136 4.13772 9.13943 4.15223 9.10068C4.1602 9.08002 4.22851 8.89459 4.23562 8.8745C4.24331 8.85269 4.22965 8.83661 4.2157 8.828C4.06172 8.73357 3.84883 8.66899 3.62854 8.66899L3.58755 8.66928C3.21243 8.66928 2.95058 8.89775 2.95058 9.22525V9.23214C2.95058 9.57744 3.23947 9.68938 3.51014 9.76745L3.55368 9.78094C3.75092 9.84208 3.92084 9.89461 3.92084 10.0347V10.0416C3.92084 10.1696 3.81041 10.2649 3.63224 10.2649C3.56308 10.2649 3.3425 10.2634 3.10428 10.1116C3.07553 10.0947 3.05874 10.0823 3.03654 10.0688C3.02487 10.0614 2.99555 10.0485 2.98275 10.0875L2.90192 10.3137Z" fill="white"/>
<path d="M8.90188 10.3137C8.88936 10.3467 8.90644 10.3536 8.91042 10.3593C8.94799 10.3869 8.98613 10.4067 9.02455 10.4288C9.22834 10.5378 9.42074 10.5697 9.62196 10.5697C10.0318 10.5697 10.2863 10.3498 10.2863 9.99593V9.98904C10.2863 9.66183 9.99908 9.543 9.72955 9.45717L9.69454 9.44569C9.49132 9.3791 9.316 9.32169 9.316 9.18679V9.17961C9.316 9.06423 9.41846 8.97927 9.57728 8.97927C9.75374 8.97927 9.96322 9.0384 10.0981 9.1136C10.0981 9.1136 10.1377 9.13943 10.1522 9.10068C10.1602 9.08002 10.2285 8.89459 10.2356 8.8745C10.2433 8.85269 10.2296 8.83661 10.2157 8.828C10.0617 8.73357 9.8488 8.66899 9.62851 8.66899L9.58752 8.66928C9.2124 8.66928 8.95055 8.89775 8.95055 9.22525V9.23214C8.95055 9.57744 9.23944 9.68938 9.51011 9.76745L9.55365 9.78094C9.75089 9.84208 9.92109 9.89461 9.92109 10.0347V10.0416C9.92109 10.1696 9.81038 10.2649 9.63221 10.2649C9.56305 10.2649 9.34247 10.2634 9.10425 10.1116C9.0755 10.0947 9.05842 10.0829 9.03679 10.0688C9.02939 10.064 8.99467 10.0505 8.98272 10.0875L8.90188 10.3137Z" fill="white"/>
<path d="M12.9979 9.6205C12.9979 9.82056 12.9609 9.97814 12.8881 10.0895C12.816 10.1997 12.707 10.2534 12.5551 10.2534C12.4028 10.2534 12.2943 10.2 12.2235 10.0895C12.1518 9.97843 12.1153 9.82056 12.1153 9.6205C12.1153 9.42073 12.1518 9.26344 12.2235 9.15322C12.2943 9.04415 12.4028 8.99105 12.5551 8.99105C12.707 8.99105 12.816 9.04415 12.8883 9.15322C12.9609 9.26344 12.9979 9.42073 12.9979 9.6205ZM13.34 9.24966C13.3064 9.13514 13.2541 9.0341 13.1843 8.95C13.1146 8.86561 13.0264 8.79787 12.9216 8.7485C12.8172 8.69942 12.6937 8.67445 12.5551 8.67445C12.4162 8.67445 12.2926 8.69942 12.1882 8.7485C12.0834 8.79787 11.9952 8.86561 11.9252 8.95C11.8558 9.03439 11.8034 9.13542 11.7695 9.24966C11.7362 9.36361 11.7194 9.48818 11.7194 9.6205C11.7194 9.75282 11.7362 9.87768 11.7695 9.99135C11.8034 10.1056 11.8555 10.2066 11.9255 10.291C11.9952 10.3754 12.0837 10.4428 12.1882 10.4908C12.2929 10.5387 12.4162 10.5631 12.5551 10.5631C12.6937 10.5631 12.8169 10.5387 12.9216 10.4908C13.0261 10.4428 13.1146 10.3754 13.1843 10.291C13.2541 10.2069 13.3064 10.1059 13.34 9.99135C13.3736 9.87739 13.3904 9.75254 13.3904 9.6205C13.3904 9.48847 13.3736 9.36361 13.34 9.24966Z" fill="white"/>
<path d="M16.1494 10.2C16.138 10.1664 16.1058 10.1791 16.1058 10.1791C16.056 10.1983 16.0031 10.2161 15.9467 10.225C15.8895 10.2339 15.8266 10.2385 15.7592 10.2385C15.5935 10.2385 15.462 10.1888 15.3678 10.0907C15.2733 9.9925 15.2204 9.83377 15.2209 9.61907C15.2215 9.42361 15.2682 9.27665 15.3522 9.16471C15.4355 9.05334 15.5625 8.99622 15.7318 8.99622C15.873 8.99622 15.9806 9.01258 16.0933 9.04846C16.0933 9.04846 16.1203 9.06023 16.1331 9.02464C16.163 8.94082 16.1852 8.88083 16.2171 8.7887C16.2262 8.76258 16.204 8.75138 16.196 8.74822C16.1516 8.73072 16.0469 8.7023 15.9678 8.69024C15.8938 8.67876 15.8073 8.67274 15.7111 8.67274C15.5673 8.67274 15.4392 8.69742 15.3297 8.74679C15.2204 8.79587 15.1276 8.86361 15.0542 8.948C14.9807 9.03238 14.9249 9.13342 14.8877 9.24766C14.8507 9.36161 14.8319 9.48675 14.8319 9.61907C14.8319 9.90524 14.9084 10.1366 15.0596 10.3059C15.211 10.4759 15.4384 10.5623 15.735 10.5623C15.9103 10.5623 16.0902 10.5264 16.2194 10.475C16.2194 10.475 16.2441 10.4629 16.2333 10.434L16.1494 10.2Z" fill="white"/>
<path d="M16.7479 9.42884C16.7641 9.31776 16.7946 9.22534 16.8416 9.1533C16.9124 9.04394 17.0206 8.98395 17.1726 8.98395C17.3246 8.98395 17.425 9.04422 17.497 9.1533C17.5448 9.22534 17.5656 9.32178 17.5739 9.42884H16.7479ZM17.8998 9.18458C17.8707 9.07407 17.7987 8.96242 17.7515 8.91133C17.6769 8.83039 17.604 8.77384 17.5318 8.74227C17.4373 8.70151 17.324 8.67453 17.1999 8.67453C17.0553 8.67453 16.9241 8.69893 16.8177 8.74944C16.7109 8.79996 16.6213 8.86885 16.551 8.95467C16.4807 9.04021 16.4277 9.1421 16.3941 9.25777C16.3603 9.37287 16.3432 9.49831 16.3432 9.63063C16.3432 9.76524 16.3608 9.89068 16.3959 10.0035C16.4311 10.1171 16.4875 10.2173 16.5638 10.3003C16.6398 10.3838 16.7377 10.4492 16.8549 10.4949C16.9713 10.5402 17.1128 10.5638 17.2753 10.5635C17.6097 10.5623 17.7859 10.4871 17.8585 10.4467C17.8713 10.4395 17.8835 10.4268 17.8682 10.3907L17.7925 10.1768C17.7811 10.145 17.7489 10.1568 17.7489 10.1568C17.6661 10.1878 17.5483 10.2434 17.2736 10.2429C17.094 10.2426 16.9608 10.1892 16.8774 10.1057C16.7918 10.0201 16.7499 9.89441 16.7425 9.71702L17.9006 9.71817C17.9006 9.71817 17.9311 9.7176 17.9342 9.68775C17.9353 9.67512 17.974 9.44779 17.8998 9.18458Z" fill="white"/>
<path d="M7.47324 9.42884C7.48974 9.31776 7.51991 9.22534 7.56687 9.1533C7.63774 9.04394 7.7459 8.98395 7.89788 8.98395C8.04987 8.98395 8.15034 9.04422 8.22263 9.1533C8.27016 9.22534 8.29094 9.32178 8.29919 9.42884H7.47324ZM8.62479 9.18458C8.59576 9.07407 8.52404 8.96242 8.47679 8.91133C8.40222 8.83039 8.32936 8.77384 8.25707 8.74227C8.16257 8.70151 8.0493 8.67453 7.9252 8.67453C7.7809 8.67453 7.64941 8.69893 7.54297 8.74944C7.43624 8.79996 7.34658 8.86885 7.27628 8.95467C7.20598 9.04021 7.15304 9.1421 7.11946 9.25777C7.08587 9.37287 7.06851 9.49831 7.06851 9.63063C7.06851 9.76524 7.08616 9.89068 7.12117 10.0035C7.15646 10.1171 7.21281 10.2173 7.28909 10.3003C7.36508 10.3838 7.46299 10.4492 7.58025 10.4949C7.69666 10.5402 7.83811 10.5638 8.00063 10.5635C8.33505 10.5623 8.51123 10.4871 8.58381 10.4467C8.59661 10.4395 8.60885 10.4268 8.59348 10.3907L8.51806 10.1768C8.50639 10.145 8.47423 10.1568 8.47423 10.1568C8.3914 10.1878 8.27386 10.2434 7.99864 10.2429C7.81933 10.2426 7.68613 10.1892 7.60274 10.1057C7.51707 10.0201 7.47523 9.89441 7.46783 9.71702L8.62593 9.71817C8.62593 9.71817 8.65638 9.7176 8.65951 9.68775C8.66065 9.67512 8.69936 9.44779 8.62479 9.18458Z" fill="white"/>
<path d="M4.97002 10.1935C4.92476 10.1571 4.9185 10.1479 4.90313 10.1244C4.88036 10.0885 4.86869 10.0374 4.86869 9.97252C4.86869 9.86977 4.90228 9.796 4.97201 9.74634C4.97116 9.74663 5.07162 9.6588 5.30786 9.66196C5.47379 9.66425 5.62207 9.68894 5.62207 9.68894V10.2199H5.62236C5.62236 10.2199 5.47521 10.2518 5.30956 10.2619C5.0739 10.2762 4.96916 10.1933 4.97002 10.1935ZM5.43081 9.37292C5.38385 9.36947 5.32294 9.36746 5.25008 9.36746C5.15075 9.36746 5.05483 9.38009 4.96489 9.40449C4.87439 9.42889 4.79299 9.46706 4.72297 9.51758C4.65267 9.56839 4.59603 9.63325 4.55505 9.71018C4.51406 9.7871 4.49329 9.8778 4.49329 9.97941C4.49329 10.0827 4.51093 10.1726 4.54622 10.2461C4.58152 10.3198 4.63246 10.3813 4.69736 10.4286C4.76168 10.476 4.84109 10.5107 4.9333 10.5317C5.02409 10.5526 5.12712 10.5632 5.23983 10.5632C5.35852 10.5632 5.47692 10.5535 5.59162 10.5337C5.70518 10.5142 5.84464 10.4857 5.88335 10.4768C5.92177 10.4677 5.96446 10.4559 5.96446 10.4559C5.99321 10.4487 5.99093 10.4177 5.99093 10.4177L5.99036 9.34967C5.99036 9.11545 5.92832 8.9418 5.80622 8.83416C5.68469 8.72681 5.50566 8.67256 5.27427 8.67256C5.18746 8.67256 5.04772 8.68462 4.96404 8.70155C4.96404 8.70155 4.71102 8.75092 4.60685 8.83301C4.60685 8.83301 4.58408 8.84737 4.5966 8.87951L4.67857 9.10167C4.68882 9.13038 4.71642 9.12062 4.71642 9.12062C4.71642 9.12062 4.72525 9.11717 4.73549 9.11115C4.95835 8.98887 5.24012 8.9926 5.24012 8.9926C5.36535 8.9926 5.46155 9.01786 5.52644 9.06809C5.58962 9.11689 5.62179 9.19065 5.62179 9.34622V9.39559C5.52217 9.38124 5.43081 9.37292 5.43081 9.37292Z" fill="white"/>
<path d="M14.7714 8.77123C14.7802 8.74482 14.7617 8.73219 14.754 8.72932C14.7344 8.72157 14.6359 8.70062 14.5599 8.69574C14.4144 8.68684 14.3336 8.71152 14.2613 8.74424C14.1896 8.77697 14.1099 8.82978 14.0655 8.88977V8.74769C14.0655 8.72788 14.0516 8.7121 14.0322 8.7121H13.7354C13.716 8.7121 13.7021 8.72788 13.7021 8.74769V10.4897C13.7021 10.5092 13.718 10.5253 13.7373 10.5253H14.0416C14.061 10.5253 14.0766 10.5092 14.0766 10.4897V9.6194C14.0766 9.50258 14.0894 9.38605 14.115 9.31285C14.1401 9.24052 14.1742 9.18254 14.2164 9.14092C14.2588 9.09959 14.3069 9.0706 14.3595 9.05424C14.4133 9.03759 14.4728 9.03214 14.5149 9.03214C14.5755 9.03214 14.6421 9.04792 14.6421 9.04792C14.6643 9.05051 14.6769 9.03673 14.6843 9.01635C14.7042 8.96296 14.7605 8.80309 14.7714 8.77123Z" fill="white"/>
<path d="M11.9155 7.96387C11.8785 7.95239 11.8449 7.94464 11.801 7.93631C11.7566 7.92828 11.7037 7.92426 11.6437 7.92426C11.4342 7.92426 11.2691 7.98396 11.1533 8.10164C11.038 8.21875 10.9597 8.397 10.9204 8.6315L10.9062 8.71043H10.6432C10.6432 8.71043 10.6114 8.70928 10.6045 8.7443L10.5615 8.98742C10.5584 9.01038 10.5684 9.02502 10.5991 9.02502H10.855L10.5954 10.4866C10.5752 10.6043 10.5519 10.701 10.526 10.7745C10.5006 10.8468 10.4759 10.901 10.4451 10.9407C10.4155 10.9785 10.3876 11.0067 10.3393 11.023C10.2994 11.0365 10.2533 11.0428 10.2029 11.0428C10.175 11.0428 10.1378 11.0382 10.1101 11.0325C10.0828 11.0271 10.0683 11.021 10.0475 11.0121C10.0475 11.0121 10.0176 11.0006 10.0057 11.0308C9.9963 11.0558 9.92799 11.2449 9.91974 11.2682C9.91177 11.2914 9.92315 11.3095 9.93767 11.3149C9.97182 11.327 9.99715 11.335 10.0435 11.3462C10.1079 11.3614 10.1622 11.3623 10.2132 11.3623C10.3196 11.3623 10.417 11.3471 10.4975 11.3178C10.5783 11.2883 10.6489 11.2369 10.7115 11.1674C10.779 11.0922 10.8214 11.0136 10.8618 10.9059C10.9019 10.7997 10.9364 10.6677 10.9637 10.5138L11.2247 9.02502H11.6061C11.6061 9.02502 11.6382 9.02617 11.6448 8.99086L11.6881 8.74803C11.6909 8.72478 11.6812 8.71043 11.6502 8.71043H11.2799C11.2819 8.70211 11.2987 8.57065 11.3411 8.44694C11.3593 8.39441 11.3935 8.35164 11.4222 8.32237C11.4507 8.29366 11.4834 8.27329 11.5193 8.26152C11.556 8.24946 11.5978 8.24372 11.6437 8.24372C11.6784 8.24372 11.7128 8.24774 11.7387 8.25319C11.7746 8.26094 11.7885 8.26496 11.7979 8.26783C11.8358 8.27931 11.8409 8.26812 11.8483 8.24975L11.9368 8.00463C11.9459 7.97822 11.9234 7.96702 11.9155 7.96387Z" fill="white"/>
<path d="M6.74188 10.4897C6.74188 10.5092 6.72794 10.525 6.70858 10.525H6.40148C6.38213 10.525 6.36847 10.5092 6.36847 10.4897V7.99715C6.36847 7.97763 6.38213 7.96184 6.40148 7.96184H6.70858C6.72794 7.96184 6.74188 7.97763 6.74188 7.99715V10.4897Z" fill="white"/>
</g>
<defs>
<clipPath id="clip0_11622_65329">
<rect width="19.98" height="14.1035" fill="white" transform="translate(0.00799561 3)"/>
</clipPath>
</defs>
</svg>