<svg viewBox="0 0 20 20" fill="none" xmlns="http://www.w3.org/2000/svg">
<g clip-path="url(#clip0_11622_65336)">
<path d="M13.2143 20.0596C8.80951 20.0596 4.43451 20.0596 0.0595105 20.0596C0.0595099 13.3929 0.0595099 6.72624 0.0595093 0.0595733C6.72617 0.0595718 13.3928 0.0595718 20.0595 0.0595703C20.0595 6.72623 20.0595 13.3929 20.0595 20.0596C17.7877 20.0596 15.5159 20.0596 13.2143 20.0596ZM5.63061 14.9452C5.57825 15.4385 5.82366 15.7644 6.2923 15.8238C6.86831 15.8967 7.09939 16.1391 7.14676 16.7314C7.17057 17.0289 7.30458 17.2418 7.59675 17.3282C7.85078 17.4034 8.07158 17.327 8.23527 17.1235C8.41785 16.8964 8.42982 16.6402 8.26233 16.4066C7.97428 16.0048 7.69731 15.588 7.36002 15.23C6.37713 14.1865 6.12495 12.9675 6.47551 11.6202C6.8619 10.1352 8.15911 9.08854 9.70196 8.94788C11.1788 8.81324 12.6274 9.64468 13.2958 11.0107C13.967 12.3823 13.7112 14.0597 12.6945 15.1678C12.3414 15.5526 12.0395 15.9861 11.7313 16.4097C11.5618 16.6427 11.5772 16.9007 11.7616 17.1257C11.9254 17.3255 12.1423 17.4075 12.3994 17.3288C12.6784 17.2435 12.8157 17.0428 12.8465 16.7596C12.9177 16.1052 13.0964 15.9165 13.7337 15.8207C14.2046 15.7499 14.4887 15.3362 14.3459 14.8878C14.0916 14.0888 14.2984 13.4554 14.9624 12.9465C15.5137 12.524 15.4435 11.8205 14.8332 11.4834C14.0982 11.0774 13.7956 10.3357 14.0403 9.53989C14.3136 8.65106 13.7516 8.01449 12.8302 8.16922C12.0863 8.29413 11.4281 7.98451 11.0904 7.32046C10.8569 6.86144 10.5107 6.59338 9.9915 6.59578C9.47191 6.59818 9.13228 6.87338 8.8988 7.33119C8.5667 7.98237 7.9043 8.293 7.18215 8.17221C6.23822 8.01432 5.6809 8.64233 5.95847 9.55112C6.19693 10.3319 5.89426 11.0792 5.17891 11.4759C4.53577 11.8326 4.48294 12.52 5.0638 12.9735C5.71483 13.4818 5.90207 14.1031 5.63061 14.9452ZM9.7424 3.92655C9.29987 4.0635 9.03847 4.35997 8.99479 4.82168C8.93949 5.40629 9.4087 5.90609 9.99561 5.90749C10.5805 5.90889 11.048 5.40752 11.0045 4.82551C10.9591 4.21825 10.4316 3.82415 9.7424 3.92655ZM12.9541 5.69891C12.5218 5.45403 12.12 5.48324 11.8059 5.7824C11.5175 6.05706 11.4366 6.50012 11.6239 6.84865C11.8109 7.19686 12.1096 7.36521 12.5051 7.33518C12.8891 7.30601 13.1561 7.0989 13.2818 6.73901C13.421 6.34051 13.3095 5.99894 12.9541 5.69891ZM7.88249 7.28677C8.28022 7.11422 8.48667 6.81378 8.46303 6.3779C8.4422 5.99363 8.23465 5.73089 7.88037 5.59097C7.53665 5.45522 7.15404 5.55032 6.90006 5.82126C6.63626 6.10267 6.58235 6.53015 6.76783 6.86972C6.97457 7.2482 7.3256 7.39087 7.88249 7.28677ZM16.2318 9.45463C15.8663 9.12097 15.4579 9.0647 15.0963 9.29815C14.7685 9.50979 14.6147 9.91504 14.7325 10.2851C14.841 10.626 15.0741 10.8417 15.4299 10.8966C15.7952 10.953 16.1017 10.8301 16.3026 10.5155C16.5229 10.1704 16.5007 9.82153 16.2318 9.45463ZM3.6866 9.55861C3.45376 10.0219 3.5283 10.4537 3.88909 10.7317C4.21072 10.9795 4.67961 10.9681 4.98951 10.705C5.37473 10.3778 5.40794 9.79865 5.06246 9.4328C4.68747 9.03571 4.11262 9.07355 3.6866 9.55861ZM15.4257 14.9099C15.8344 14.9379 16.111 14.7934 16.2552 14.4765C16.3855 14.1901 16.3221 13.8465 16.0984 13.6261C15.8771 13.408 15.5583 13.345 15.2749 13.4633C14.9786 13.587 14.7965 13.8697 14.8066 14.19C14.8172 14.5231 15.0085 14.7592 15.4257 14.9099ZM3.99796 13.5409C3.67541 13.8329 3.58905 14.1612 3.74768 14.4923C3.89405 14.7978 4.23063 14.9742 4.55798 14.9118C4.86907 14.8525 5.07882 14.6677 5.16121 14.3645C5.24333 14.0624 5.16621 13.7894 4.92064 13.5879C4.64741 13.3636 4.34694 13.3411 3.99796 13.5409ZM5.46247 8.24584C5.80163 8.01961 5.93155 7.75614 5.86432 7.43094C5.80151 7.12711 5.56805 6.89612 5.2702 6.84312C4.95533 6.78708 4.64454 6.92817 4.48576 7.19923C4.33317 7.45972 4.35558 7.79389 4.54178 8.03449C4.74374 8.29545 5.04012 8.37333 5.46247 8.24584ZM14.9952 8.31265C15.3133 8.23946 15.5244 8.05063 15.5921 7.72817C15.6515 7.44549 15.5679 7.19975 15.3478 7.00875C15.102 6.79543 14.7396 6.77113 14.4659 6.94374C14.189 7.11833 14.0575 7.45262 14.1424 7.76622C14.2395 8.12503 14.5141 8.31361 14.9952 8.31265ZM2.94588 12.3537C3.13636 12.6951 3.37372 12.8226 3.68551 12.7509C3.95091 12.6899 4.15383 12.4565 4.17186 12.185C4.18916 11.9246 4.08395 11.722 3.86075 11.5897C3.63677 11.4569 3.40613 11.4614 3.19079 11.6087C2.94318 11.7781 2.86617 12.019 2.94588 12.3537ZM17.0659 12.3081C17.1256 11.7819 16.7817 11.4127 16.3256 11.5133C16.0318 11.5781 15.8257 11.8291 15.8217 12.1267C15.8179 12.4118 16.0095 12.6688 16.2819 12.7441C16.5991 12.8319 16.8564 12.7005 17.0659 12.3081ZM10.4517 2.26046C10.2476 2.05233 10.0037 2.00586 9.74291 2.11881C9.50338 2.22256 9.37892 2.42275 9.38044 2.68546C9.38188 2.93579 9.50369 3.12343 9.72777 3.23237C9.98936 3.35955 10.2314 3.31231 10.4371 3.11011C10.6556 2.89537 10.6671 2.62308 10.4517 2.26046ZM15.6786 6.21006C15.6709 6.28813 15.6479 6.36826 15.6581 6.44391C15.6956 6.72159 15.8625 6.8925 16.1354 6.93519C16.3992 6.97648 16.6023 6.85859 16.7148 6.61985C16.8344 6.36615 16.7757 6.13417 16.5636 5.95324C16.2846 5.71528 15.9312 5.80606 15.6786 6.21006ZM3.64575 6.92574C3.93522 6.98432 4.15405 6.88004 4.28658 6.62179C4.39671 6.40719 4.3602 6.19564 4.20112 6.01631C4.0421 5.83703 3.83619 5.77941 3.60904 5.85513C3.38291 5.93052 3.24469 6.09796 3.22821 6.33647C3.20906 6.61382 3.34333 6.80769 3.64575 6.92574ZM5.3033 16.4719C5.62045 16.0866 5.49613 15.6101 5.05549 15.5357C4.80642 15.4937 4.60553 15.5834 4.48384 15.8068C4.36199 16.0305 4.39165 16.2516 4.57019 16.4312C4.77727 16.6394 5.0171 16.659 5.3033 16.4719ZM15.2645 15.574C14.9271 15.4892 14.6973 15.5597 14.5719 15.8013C14.4549 16.0268 14.4789 16.2452 14.6544 16.4332C14.8643 16.6579 15.2098 16.6555 15.4246 16.4352C15.6706 16.183 15.6257 15.8631 15.2645 15.574ZM5.83626 16.6373C5.83116 16.7157 5.81059 16.7968 5.82376 16.872C5.86929 17.132 6.03652 17.2736 6.2958 17.2777C6.55729 17.2819 6.72987 17.1378 6.77842 16.8828C6.8272 16.6265 6.71554 16.4283 6.47166 16.3394C6.19937 16.2402 5.98931 16.344 5.83626 16.6373ZM13.3036 16.4979C13.1554 16.7279 13.148 16.9781 13.3665 17.1337C13.5016 17.23 13.7376 17.2596 13.9039 17.2191C14.1258 17.165 14.2043 16.9479 14.1744 16.7183C14.1225 16.3195 13.7059 16.194 13.3036 16.4979ZM17.7971 11.691C17.5803 11.9984 17.6151 12.2885 17.8878 12.4463C18.1309 12.5869 18.4215 12.4906 18.5633 12.2274C18.6697 12.0299 18.6103 11.8606 18.4697 11.7171C18.2779 11.5214 18.0596 11.5019 17.7971 11.691ZM2.16648 11.6643C1.93978 11.5023 1.72045 11.5201 1.52894 11.7148C1.37911 11.8671 1.32762 12.0483 1.44746 12.2512C1.59786 12.5059 1.89606 12.5865 2.13135 12.4321C2.38301 12.2669 2.40881 11.9906 2.16648 11.6643ZM4.00487 17.213C4.19811 17.0677 4.25485 16.882 4.13394 16.6703C4.02754 16.4839 3.83118 16.3992 3.65681 16.5077C3.53169 16.5855 3.41482 16.7715 3.40401 16.9174C3.38457 17.1799 3.63401 17.3025 4.00487 17.213ZM16.2185 17.2737C16.517 17.1947 16.6532 17.0194 16.5995 16.7834C16.5519 16.5748 16.3238 16.4026 16.1334 16.4904C15.9964 16.5536 15.8438 16.7135 15.8163 16.8535C15.7714 17.0816 15.9291 17.2359 16.2185 17.2737Z" fill="#34B5E5"/>
<path d="M5.63722 14.9214C5.90209 14.103 5.71485 13.4818 5.06382 12.9735C4.48296 12.52 4.53579 11.8326 5.17893 11.4759C5.89428 11.0791 6.19695 10.3318 5.9585 9.55106C5.68093 8.64227 6.23824 8.01426 7.18218 8.17215C7.90432 8.29294 8.56672 7.98231 8.89882 7.33113C9.1323 6.87332 9.47194 6.59812 9.99152 6.59572C10.5107 6.59332 10.8569 6.86138 11.0904 7.3204C11.4282 7.98445 12.0864 8.29407 12.8302 8.16916C13.7516 8.01444 14.3136 8.65101 14.0403 9.53983C13.7956 10.3356 14.0982 11.0774 14.8332 11.4833C15.4435 11.8204 15.5137 12.524 14.9624 12.9465C14.2984 13.4553 14.0916 14.0888 14.346 14.8877C14.4887 15.3361 14.2046 15.7498 13.7337 15.8206C13.0964 15.9164 12.9177 16.1051 12.8465 16.7596C12.8157 17.0427 12.6784 17.2434 12.3994 17.3288C12.1423 17.4075 11.9254 17.3254 11.7617 17.1257C11.5772 16.9006 11.5619 16.6426 11.7314 16.4096C12.0396 15.986 12.3414 15.5525 12.6945 15.1677C13.7112 14.0596 13.967 12.3822 13.2958 11.0106C12.6274 9.64462 11.1789 8.81318 9.70199 8.94782C8.15914 9.08848 6.86192 10.1351 6.47553 11.6201C6.12497 12.9675 6.37715 14.1865 7.36004 15.2299C7.69733 15.588 7.9743 16.0048 8.26235 16.4065C8.42985 16.6402 8.41787 16.8963 8.2353 17.1234C8.0716 17.327 7.85081 17.4033 7.59677 17.3282C7.3046 17.2417 7.17059 17.0289 7.14679 16.7313C7.09941 16.1391 6.86833 15.8967 6.29233 15.8237C5.82368 15.7643 5.57827 15.4385 5.63722 14.9214Z" fill="#FCFEFF"/>
<path d="M9.76538 3.92181C10.4316 3.82416 10.9591 4.21826 11.0045 4.82552C11.048 5.40753 10.5805 5.9089 9.99561 5.9075C9.4087 5.9061 8.93949 5.4063 8.99479 4.82169C9.03847 4.35998 9.29987 4.06351 9.76538 3.92181Z" fill="#FBFEFE"/>
<path d="M12.9722 5.71167C13.3095 5.99887 13.421 6.34045 13.2818 6.73895C13.1561 7.09883 12.8891 7.30594 12.5051 7.33511C12.1096 7.36514 11.811 7.19679 11.6239 6.84859C11.4367 6.50005 11.5175 6.05699 11.8059 5.78233C12.1201 5.48318 12.5218 5.45396 12.9722 5.71167Z" fill="#FBFEFF"/>
<path d="M7.8594 7.2953C7.3256 7.39079 6.97456 7.24812 6.76783 6.86964C6.58235 6.53007 6.63626 6.10258 6.90006 5.82118C7.15404 5.55024 7.53665 5.45514 7.88036 5.59089C8.23465 5.73081 8.44219 5.99355 8.46303 6.37782C8.48666 6.8137 8.28021 7.11414 7.8594 7.2953Z" fill="#FBFEFF"/>
<path d="M16.2456 9.4717C16.5007 9.8215 16.5229 10.1703 16.3026 10.5154C16.1016 10.8301 15.7952 10.953 15.4299 10.8966C15.0741 10.8417 14.841 10.626 14.7325 10.2851C14.6147 9.91501 14.7685 9.50976 15.0963 9.29812C15.4579 9.06467 15.8663 9.12094 16.2456 9.4717Z" fill="#FBFEFF"/>
<path d="M3.69886 9.54016C4.11263 9.07352 4.68748 9.03568 5.06246 9.43278C5.40795 9.79863 5.37474 10.3778 4.98952 10.7049C4.67962 10.9681 4.21073 10.9795 3.8891 10.7317C3.52831 10.4537 3.45377 10.0218 3.69886 9.54016Z" fill="#FBFEFF"/>
<path d="M15.4031 14.9041C15.0085 14.7591 14.8172 14.523 14.8067 14.19C14.7965 13.8696 14.9787 13.5869 15.2749 13.4633C15.5583 13.345 15.8771 13.408 16.0984 13.626C16.3222 13.8465 16.3855 14.1901 16.2552 14.4764C16.111 14.7933 15.8344 14.9378 15.4031 14.9041Z" fill="#FAFDFE"/>
<path d="M4.01704 13.5289C4.34697 13.3411 4.64744 13.3636 4.92067 13.5879C5.16625 13.7894 5.24336 14.0624 5.16124 14.3646C5.07885 14.6677 4.8691 14.8525 4.55801 14.9118C4.23066 14.9742 3.89408 14.7978 3.74771 14.4923C3.58908 14.1612 3.67544 13.8329 4.01704 13.5289Z" fill="#FAFDFE"/>
<path d="M5.44161 8.25559C5.04017 8.37329 4.74379 8.29542 4.54183 8.03445C4.35563 7.79385 4.33322 7.45969 4.48581 7.19919C4.64458 6.92814 4.95537 6.78704 5.27024 6.84308C5.56809 6.89609 5.80155 7.12707 5.86436 7.4309C5.9316 7.75611 5.80167 8.01958 5.44161 8.25559Z" fill="#FAFDFE"/>
<path d="M14.9717 8.31618C14.5141 8.31361 14.2396 8.12503 14.1424 7.76622C14.0575 7.45262 14.189 7.11833 14.4659 6.94374C14.7396 6.77113 15.102 6.79544 15.3478 7.00876C15.5679 7.19975 15.6515 7.44549 15.5921 7.72817C15.5244 8.05063 15.3133 8.23947 14.9717 8.31618Z" fill="#FAFDFE"/>
<path d="M2.93782 12.331C2.86619 12.0189 2.9432 11.778 3.19082 11.6086C3.40615 11.4613 3.63679 11.4568 3.86077 11.5896C4.08397 11.7219 4.18918 11.9245 4.17189 12.1849C4.15385 12.4564 3.95094 12.6898 3.68553 12.7508C3.37375 12.8225 3.13638 12.695 2.93782 12.331Z" fill="#F9FDFE"/>
<path d="M17.0575 12.3302C16.8565 12.7004 16.5992 12.8318 16.2819 12.7441C16.0095 12.6688 15.818 12.4117 15.8218 12.1266C15.8258 11.829 16.0319 11.5781 16.3256 11.5132C16.7817 11.4126 17.1257 11.7819 17.0575 12.3302Z" fill="#F9FDFE"/>
<path d="M10.467 2.27823C10.6671 2.62299 10.6556 2.89529 10.4371 3.11002C10.2315 3.31222 9.98937 3.35946 9.72778 3.23228C9.5037 3.12334 9.38189 2.9357 9.38045 2.68537C9.37893 2.42267 9.50339 2.22247 9.74292 2.11873C10.0037 2.00577 10.2476 2.05225 10.467 2.27823Z" fill="#FCFEFF"/>
<path d="M15.6881 6.18839C15.9312 5.80597 16.2846 5.71518 16.5635 5.95314C16.7756 6.13407 16.8344 6.36605 16.7148 6.61976C16.6023 6.85849 16.3992 6.97638 16.1354 6.9351C15.8625 6.8924 15.6956 6.7215 15.6581 6.44382C15.6479 6.36817 15.6708 6.28804 15.6881 6.18839Z" fill="#F8FCFE"/>
<path d="M3.62409 6.91902C3.34336 6.80759 3.20908 6.61372 3.22824 6.33637C3.24471 6.09786 3.38293 5.93042 3.60906 5.85503C3.83621 5.77931 4.04212 5.83693 4.20114 6.01621C4.36023 6.19554 4.39673 6.40709 4.2866 6.62169C4.15407 6.87994 3.93524 6.98422 3.62409 6.91902Z" fill="#F8FCFE"/>
<path d="M5.28517 16.4851C5.01708 16.659 4.77726 16.6394 4.57017 16.4311C4.39164 16.2516 4.36198 16.0305 4.48382 15.8068C4.60552 15.5833 4.8064 15.4937 5.05547 15.5357C5.49612 15.6101 5.62043 16.0866 5.28517 16.4851Z" fill="#F8FCFE"/>
<path d="M15.2857 15.5843C15.6258 15.863 15.6706 16.1829 15.4246 16.4352C15.2099 16.6555 14.8643 16.6579 14.6545 16.4331C14.479 16.2451 14.4549 16.0268 14.572 15.8013C14.6974 15.5597 14.9272 15.4892 15.2857 15.5843Z" fill="#F9FDFE"/>
<path d="M5.84392 16.6168C5.98931 16.3439 6.19937 16.2402 6.47166 16.3394C6.71554 16.4282 6.8272 16.6264 6.77842 16.8827C6.72987 17.1377 6.55729 17.2818 6.2958 17.2776C6.03652 17.2735 5.86929 17.132 5.82376 16.872C5.81059 16.7968 5.83116 16.7156 5.84392 16.6168Z" fill="#F9FDFE"/>
<path d="M13.3191 16.48C13.7059 16.1939 14.1225 16.3194 14.1744 16.7182C14.2043 16.9479 14.1258 17.1649 13.9039 17.219C13.7376 17.2595 13.5016 17.23 13.3665 17.1336C13.1481 16.978 13.1554 16.7278 13.3191 16.48Z" fill="#F9FDFE"/>
<path d="M17.8143 11.6766C18.0596 11.5018 18.2779 11.5214 18.4697 11.7171C18.6103 11.8605 18.6697 12.0298 18.5633 12.2273C18.4215 12.4905 18.1309 12.5869 17.8878 12.4462C17.6151 12.2885 17.5803 11.9984 17.8143 11.6766Z" fill="#F5FCFE"/>
<path d="M2.18346 11.6786C2.40885 11.9905 2.38306 12.2668 2.13139 12.432C1.8961 12.5864 1.5979 12.5058 1.44751 12.2511C1.32767 12.0482 1.37916 11.867 1.52898 11.7147C1.7205 11.52 1.93982 11.5022 2.18346 11.6786Z" fill="#F7FCFE"/>
<path d="M3.98481 17.2249C3.63401 17.3024 3.38457 17.1799 3.40402 16.9174C3.41482 16.7715 3.5317 16.5855 3.65681 16.5077C3.83119 16.3992 4.02755 16.4839 4.13395 16.6703C4.25485 16.882 4.19811 17.0677 3.98481 17.2249Z" fill="#F8FCFE"/>
<path d="M16.1947 17.2733C15.9291 17.2359 15.7715 17.0815 15.8163 16.8534C15.8438 16.7135 15.9964 16.5535 16.1334 16.4904C16.3238 16.4026 16.552 16.5748 16.5995 16.7834C16.6533 17.0194 16.5171 17.1946 16.1947 17.2733Z" fill="#F7FCFE"/>
</g>
<defs>
<clipPath id="clip0_11622_65336">
<rect width="20" height="20" fill="white"/>
</clipPath>
</defs>
</svg>