<svg viewBox="0 0 20 20" fill="none" xmlns="http://www.w3.org/2000/svg">
    <g clip-path="url(#clip0_12011_69307)">
      <path d="M20 0H0V20H20V0Z" fill="#189EFF"/>
      <path d="M14.7601 16.2471C14.0644 15.7236 13.0398 15.3264 11.9551 14.9057C10.6636 14.4046 9.19995 13.8373 8.10096 12.9634C6.85632 11.9724 6.2503 10.7226 6.2503 9.14088C6.2503 7.72207 6.83901 6.50901 7.95328 5.63206C9.20199 4.64918 11.0944 4.12872 13.4248 4.12872C14.0685 4.12872 14.6837 4.16844 15.2541 4.24687C15.304 4.25399 15.3529 4.22649 15.3732 4.18168C15.3946 4.13585 15.3834 4.08186 15.3457 4.04825C13.877 2.72723 11.9785 2 10.0015 2C7.86466 2 5.85512 2.83213 4.34363 4.34362C2.83213 5.8541 2 7.86365 2 10.0005C2 12.1374 2.83213 14.1469 4.34363 15.6574C5.8541 17.1679 7.86365 18 10.0015 18C11.7279 18 13.3728 17.4581 14.7591 16.4325C14.7876 16.4111 14.8059 16.3765 14.8059 16.3408C14.8069 16.3031 14.7896 16.2685 14.7601 16.2471Z" fill="white"/>
      <path d="M17.9685 9.259C17.9654 9.22845 17.9511 9.19993 17.9277 9.18058C16.2584 7.79538 14.9078 7.2301 13.2669 7.2301C12.391 7.2301 11.7198 7.40529 11.2717 7.75159C10.8836 8.05103 10.6779 8.46965 10.6779 8.95956C10.6779 10.3335 12.3574 10.9599 14.3018 11.6851C15.304 12.0589 16.3398 12.4449 17.2911 12.9736C17.3085 12.9827 17.3278 12.9878 17.3472 12.9878C17.3604 12.9878 17.3736 12.9858 17.3859 12.9807C17.4174 12.9695 17.4419 12.945 17.4541 12.9145C17.8177 11.9836 18.0021 11.0027 18.0021 9.99845C18.0021 9.76317 17.9909 9.51363 17.9685 9.259Z" fill="white"/>
    </g>
    <defs>
      <clipPath id="clip0_12011_69307">
        <rect width="20" height="20" fill="white"/>
      </clipPath>
    </defs>
  </svg>