<svg viewBox="0 0 20 20" fill="none" xmlns="http://www.w3.org/2000/svg">
<path d="M16.3922 3.90125C16.3775 3.81281 16.3053 3.745 16.2159 3.73656C16.1456 3.725 14.6003 3.61906 14.6003 3.61906L13.4222 2.44094C13.3159 2.32344 13.0809 2.35781 12.9922 2.38219C12.9806 2.38219 12.7572 2.4525 12.3916 2.57125C12.0363 1.54312 11.4072 0.600625 10.2991 0.600625H10.2044C9.88687 0.189063 9.49813 0 9.17 0C6.59 0.0115625 5.36062 3.22906 4.97187 4.87313L3.16875 5.42625C2.61562 5.6025 2.59531 5.61531 2.52094 6.14281L1 17.8672L12.3962 20L18.5722 18.6688C18.5722 18.6572 16.4034 4.01344 16.3922 3.90156V3.90125ZM11.7597 2.76875C11.4731 2.86344 11.1462 2.95781 10.7941 3.06406V2.85156C10.8045 2.3213 10.725 1.7931 10.5591 1.28937C11.1366 1.37812 11.5247 2.02594 11.76 2.76844L11.7597 2.76875ZM9.86344 1.42562C10.0519 1.98125 10.1394 2.56625 10.1216 3.15281V3.25906L8.12937 3.8725C8.51937 2.41625 9.23875 1.69687 9.86375 1.42562H9.86344ZM9.09781 0.709063C9.21567 0.71157 9.33024 0.748385 9.4275 0.815C8.59625 1.20187 7.7175 2.17937 7.34063 4.13594L5.76406 4.61906C6.20875 3.13438 7.24625 0.70625 9.09688 0.70625L9.09781 0.709063Z" fill="#95BF47"/>
<path d="M16.2198 3.73654C16.1495 3.72498 14.6042 3.61904 14.6042 3.61904L13.4261 2.44092C13.3823 2.39654 13.3229 2.37123 13.2614 2.37061L12.4014 20L18.5773 18.6687L16.3961 3.91311C16.389 3.86891 16.3681 3.82807 16.3365 3.79643C16.3048 3.76478 16.264 3.74393 16.2198 3.73686V3.73654Z" fill="#5E8E3E"/>
<path d="M10.3021 7.15357L9.53523 9.4167C9.0718 9.19232 8.56523 9.0717 8.05023 9.06264C6.84773 9.06264 6.78898 9.81639 6.78898 10.0058C6.78898 11.0364 9.48773 11.432 9.48773 13.8598C9.48773 15.7692 8.27367 16.9942 6.64398 16.9942C4.68773 16.9942 3.68555 15.7801 3.68555 15.7801L4.20586 14.0458C4.20586 14.0458 5.23086 14.9301 6.10367 14.9301C6.20801 14.9341 6.31207 14.9169 6.40955 14.8795C6.50704 14.8421 6.59592 14.7853 6.67083 14.7126C6.74573 14.6398 6.8051 14.5526 6.84533 14.4563C6.88557 14.3599 6.90584 14.2564 6.90492 14.152C6.90492 12.7958 4.6893 12.7373 4.6893 10.5214C4.6893 8.65826 6.03242 6.84326 8.73117 6.84326C9.7918 6.85889 10.2993 7.15264 10.2993 7.15264L10.3021 7.15357Z" fill="white"/>
</svg>