<svg viewBox="0 0 20 20" fill="none" xmlns="http://www.w3.org/2000/svg">
<path d="M4.78175 12.3746C4.78175 13.4154 3.93159 14.2655 2.89087 14.2655C1.85016 14.2655 1 13.4154 1 12.3746C1 11.3339 1.85016 10.4838 2.89087 10.4838H4.78175V12.3746Z" fill="#E01E5A"/>
<path d="M5.73462 12.3746C5.73462 11.3339 6.58478 10.4838 7.62549 10.4838C8.6662 10.4838 9.51636 11.3339 9.51636 12.3746V17.1092C9.51636 18.1499 8.6662 19.0001 7.62549 19.0001C6.58478 19.0001 5.73462 18.1499 5.73462 17.1092V12.3746Z" fill="#E01E5A"/>
<path d="M7.62549 4.78176C6.58478 4.78176 5.73462 3.9316 5.73462 2.89088C5.73462 1.85016 6.58478 1 7.62549 1C8.6662 1 9.51636 1.85016 9.51636 2.89088V4.78176H7.62549Z" fill="#36C5F0"/>
<path d="M7.62543 5.7345C8.66615 5.7345 9.51631 6.58466 9.51631 7.62537C9.51631 8.66608 8.66615 9.51624 7.62543 9.51624H2.89088C1.85017 9.51624 1 8.66608 1 7.62537C1 6.58466 1.85017 5.7345 2.89088 5.7345H7.62543Z" fill="#36C5F0"/>
<path d="M15.218 7.62537C15.218 6.58466 16.0682 5.7345 17.1089 5.7345C18.1496 5.7345 18.9997 6.58466 18.9997 7.62537C18.9997 8.66608 18.1496 9.51624 17.1089 9.51624H15.218V7.62537Z" fill="#2EB67D"/>
<path d="M14.2658 7.62543C14.2658 8.66615 13.4156 9.51631 12.3749 9.51631C11.3342 9.51631 10.484 8.66615 10.484 7.62543V2.89088C10.484 1.85017 11.3342 1 12.3749 1C13.4156 1 14.2658 1.85017 14.2658 2.89088V7.62543Z" fill="#2EB67D"/>
<path d="M12.3749 15.2183C13.4156 15.2183 14.2658 16.0684 14.2658 17.1091C14.2658 18.1498 13.4156 19 12.3749 19C11.3342 19 10.484 18.1498 10.484 17.1091V15.2183H12.3749Z" fill="#ECB22E"/>
<path d="M12.3749 14.2655C11.3342 14.2655 10.484 13.4154 10.484 12.3746C10.484 11.3339 11.3342 10.4838 12.3749 10.4838H17.1095C18.1502 10.4838 19.0003 11.3339 19.0003 12.3746C19.0003 13.4154 18.1502 14.2655 17.1095 14.2655H12.3749Z" fill="#ECB22E"/>
</svg>