<svg
   
   
    viewBox="0 0 100 100"
    fill="none"
    xmlns="http://www.w3.org/2000/svg"
  >
    <g>
      <linearGradient
        id="SVGID_1_"
        x1="50"
        x2="50"
        y1="0"
        y2="100"
        gradientTransform="matrix(1 0 0 -1 0 100)"
        gradientUnits="userSpaceOnUse"
      >
        <stop offset="0" style="stop-color: #3465fb" />
        <stop offset="1" style="stop-color: #1d55cd" />
      </linearGradient>
      <path d="M0 0h100v100H0z" style="fill: url(#SVGID_1_)" />
      <path
        d="M75.8 49.3c.3-1 .5-2 .5-3.1 0-7.1-5.7-12.8-12.8-12.8-1.5 0-3.1.3-4.4.8-3.2-5.7-9.2-9.6-16.2-9.6-9.8 0-17.9 8-17.9 17.9 0 1.1.2 2.3.3 3.4-4.9.8-8.7 4.9-8.7 10 0 3.7 1.8 6.8 4.8 8.7 2.5-1.4 5.4-2.5 8.7-3.4 0 0-3.7-12.7.6-13.6 5.2-1 5.6.5 16.2-.6 11.4-1.2 21.4.6 21.4.6 2 0 1.8 4.2 1.5 7.2-.3 3.1-1.4 5.9-1.4 5.9 4 1.1 7.5 2.5 10.5 4.2 2.5-1.5 4-4.2 4-7.1.3-4.5-3-8-7.1-8.5z"
        style="fill: #fff"
      />
      <path
        d="M50 68c14.8 0 28.1 2 36.8 7.4-5.6-7.4-20-12.7-36.8-12.7s-31.2 5.2-36.8 12.5C21.9 70 35.2 68 50 68z"
        style="fill: #fff"
      />
    </g>
    <defs><path id="SVGID_2_" d="M-124.2-327h574.8v813h-574.8z" /></defs>
    <clipPath id="SVGID_3_">
      <use xlink:href="#SVGID_2_" style="overflow: visible" />
    </clipPath>
    <path
      d="M-124.2-327h574.8v813h-574.8z"
      style="clip-path: url(#SVGID_3_); fill: #1a263b"
    />
    <g style="clip-path: url(#SVGID_3_)">
      <defs><path id="SVGID_4_" d="M7.2 18.4h312v68.3H7.2z" /></defs>
      <clipPath id="SVGID_5_">
        <use xlink:href="#SVGID_4_" style="overflow: visible" />
      </clipPath>
      <path
        d="M50.6 44.6C56 37.4 61.5 30.1 67 22.8c1.6-2.1 4.1-2.5 6.3-1 .2.1.4.3.6.4.8.6 1.8 1.1 2.3 1.8.7 1-.6 1.7-.8 2.6-.8 3 .4 6.3 3.1 7.9 2.7 1.6 6.1 1.3 8.4-1 .7-.8 1.2-.9 1.9-.1.5.5 1.1.9 1.7 1.3 2.8 2.2 3.1 4.5 1 7.3-3.6 4.7-7.1 9.4-10.7 14.1-5.4 7-10.7 14.1-16.1 21.1-7 9.2-21.8 9.2-28.8 0-5.6-7.3-11.1-14.6-16.7-21.9l-.6-.9c.4-1 1-.4 1.5-.1 2.2 1.4 4.5 2.3 6.9 2.9 1.9.5 3.8.6 5.8.5 1.3-.1 2.4-.5 3.5-1.1 3.5.2 5.5-2.3 7.6-4.5 1.8-1.9 3.2-4.2 4.8-6.3.5-.6 1-1.1 1.9-1.2"
        style="clip-path: url(#SVGID_5_); fill: #ef1d45"
      />
      <path
        d="M36.6 57.7c-4.9 1.7-9.6.9-14.2-1.1-1.3-.6-2.6-1.4-3.9-2-1-2-2.5-3.6-3.9-5.4l-5.7-7.5c-1.8-2.4-1.4-4.9.9-6.7.1-.1.2-.1.2-.2.8-.6 1.5-1.4 2.3-1.6 1-.3 1.4 1 2.2 1.5 2.7 1.7 6.2 1.4 8.6-.7 2.3-2.2 2.9-5.5 1.3-8.3-.5-.9-.5-1.4.4-1.9s1.7-1.3 2.5-1.8c2.1-1.4 4.5-1.1 6 .8 4.1 5.4 8.2 10.9 12.3 16.3 1 1.8.5 3.6.1 5.4-.8 4-1.9 7.8-5 10.7-1.1.9-2.7 1.6-4.1 2.5"
        style="clip-path: url(#SVGID_5_); fill: #d20147"
      />
      <path
        d="M36.6 57.7c-.2-.2-.1-.4.1-.5 5.7-3.2 7.8-8.5 8.7-14.5.2-1.3.3-2.6.4-4 1.2 1.6 2.4 3.1 3.6 4.7.3.4.6 1 1.2 1.2-1.8 2.4-3.7 4.7-5.4 7.2-2.2 3-5.1 4.8-8.6 5.9"
        style="clip-path: url(#SVGID_5_); fill: #c80143"
      />
    </g>
  </svg>