<svg viewBox="0 0 20 20" fill="none" xmlns="http://www.w3.org/2000/svg">
    <g clip-path="url(#clip0_12011_69318)">
      <path
          d="M11.447 6.14791C11.0611 6.34083 10.8939 6.70096 10.8939 7.67845C10.8939 7.67845 11.0868 7.48553 11.3955 7.36977C11.6206 7.28617 11.7814 7.17684 11.8971 7.09324C12.2315 6.84244 12.283 6.54019 12.283 6.01286C12.2766 6.01286 11.7492 5.9807 11.447 6.14791Z"
          fill="#FBBD71"/>
      <path
          d="M9.08682 6.37302C8.75241 6.64954 8.66881 7.12543 8.66881 7.12543L7.58842 11.2669L6.70096 7.87784C6.61736 7.51771 6.45016 7.07398 6.19936 6.7653C5.89068 6.37302 5.24759 6.34729 5.17042 6.34729C5.11254 6.34729 4.47588 6.37302 4.14148 6.7653C3.89068 7.07398 3.72347 7.51771 3.63987 7.87784L2.80386 11.2669L1.72347 7.12543C1.72347 7.12543 1.63987 6.6817 1.30547 6.37302C0.778135 5.89713 0 6.01289 0 6.01289L2.05788 13.7621C2.05788 13.7621 2.72669 13.82 3.06109 13.6528C3.50482 13.4277 3.7299 13.2669 3.98071 12.2058C4.23151 11.2605 4.90032 8.50806 4.95177 8.31514C4.97749 8.23154 5.03537 7.98073 5.20257 7.98073C5.36977 7.98073 5.42765 8.20581 5.45338 8.31514C5.51125 8.50806 6.17363 11.2605 6.42444 12.2058C6.70096 13.2605 6.89389 13.4277 7.34405 13.6528C7.67846 13.82 8.34727 13.7621 8.34727 13.7621L10.3923 6.01289C10.3923 6.01289 9.61415 5.90356 9.08682 6.37302Z"
          fill="black"/>
      <path
          d="M12.2765 7.2605C12.2765 7.2605 12.135 7.45342 11.8585 7.62063C11.6656 7.72995 11.4984 7.78783 11.3055 7.89715C10.9711 8.06436 10.8875 8.23156 10.8875 8.48236V8.56596V8.98397V9.06757V13.7364C10.8875 13.7364 11.4148 13.7943 11.7492 13.6271C12.1929 13.402 12.2765 13.1833 12.2765 12.238V7.56918V7.2605Z"
          fill="black"/>
      <path
          d="M17.389 9.9035L20 6.03855C20 6.03855 18.9196 5.84562 18.3601 6.34723C18 6.65591 17.6398 7.23469 17.6398 7.23469L16.6945 8.62375C16.6366 8.70736 16.5852 8.76523 16.5016 8.76523C16.418 8.76523 16.3344 8.68163 16.3087 8.62375L15.3633 7.23469C15.3633 7.23469 14.9775 6.68163 14.6431 6.34723C14.09 5.84562 13.0032 6.03855 13.0032 6.03855L15.5305 9.89707L12.9453 13.7556C12.9453 13.7556 14.0836 13.8971 14.6431 13.3955C15.0032 13.0868 15.3376 12.5594 15.3376 12.5594L16.2829 11.1704C16.3408 11.0868 16.3923 11.0289 16.4759 11.0289C16.5595 11.0289 16.6431 11.1125 16.6688 11.1704L17.6141 12.5594C17.6141 12.5594 17.9743 13.0868 18.3087 13.3955C18.8617 13.8971 19.9743 13.7556 19.9743 13.7556L17.389 9.9035Z"
          fill="black"/>
    </g>
    <defs>
      <clipPath id="clip0_12011_69318">
        <rect width="20" height="20" fill="white"/>
      </clipPath>
    </defs>
  </svg>