<svg viewBox="0 0 20 20" fill="none" xmlns="http://www.w3.org/2000/svg">
<path d="M1.85607 5H18.1357C19.1659 5 20 5.83398 20 6.86429V13.0785C20 14.1087 19.166 14.9428 18.1357 14.9428H12.2977L13.099 16.9051L9.57487 14.9428H1.86435C0.83412 14.9428 5.96101e-05 14.1088 5.96101e-05 13.0785V6.86429C-0.00811693 5.84219 0.825916 5 1.85615 5H1.85607Z" fill="#7F54B3"/>
<path d="M1.13868 6.69923C1.2525 6.54476 1.42324 6.46346 1.65088 6.4472C2.06551 6.41468 2.30128 6.6098 2.3582 7.03257C2.61023 8.73178 2.88665 10.1708 3.17937 11.3497L4.95983 7.95944C5.12243 7.65049 5.32568 7.48789 5.56958 7.47164C5.92731 7.44724 6.14682 7.67488 6.23625 8.15456C6.4395 9.23589 6.69966 10.1546 7.0086 10.935C7.21999 8.86995 7.57771 7.38222 8.0818 6.46347C8.20376 6.23583 8.38262 6.12201 8.61839 6.10575C8.80538 6.08949 8.97611 6.1464 9.13058 6.26835C9.28505 6.3903 9.36635 6.54477 9.38261 6.73176C9.39074 6.87811 9.36635 7.00005 9.30131 7.122C8.98424 7.70737 8.72408 8.69114 8.51272 10.0569C8.30947 11.3821 8.2363 12.4146 8.28508 13.1545C8.30134 13.3577 8.26882 13.5366 8.18751 13.6911C8.08995 13.8699 7.94361 13.9675 7.75663 13.9837C7.54524 14 7.32574 13.9025 7.11435 13.6829C6.35826 12.9106 5.75662 11.7561 5.31764 10.2195C4.78919 11.2601 4.39897 12.0407 4.14694 12.561C3.66727 13.4797 3.26077 13.9512 2.91929 13.9756C2.69977 13.9919 2.51278 13.8049 2.35018 13.4146C1.93555 12.3495 1.48839 10.2927 1.0087 7.24393C0.97618 7.03255 1.02496 6.84556 1.13878 6.69922L1.13868 6.69923ZM18.6105 7.97563C18.3178 7.46344 17.8869 7.15446 17.3097 7.03251C17.1553 6.99999 17.0089 6.98373 16.8707 6.98373C16.0902 6.98373 15.4561 7.39024 14.9602 8.20326C14.5374 8.89431 14.326 9.65857 14.326 10.4959C14.326 11.1219 14.4561 11.6585 14.7163 12.1057C15.0089 12.6179 15.4398 12.9268 16.017 13.0488C16.1715 13.0813 16.3179 13.0976 16.4561 13.0976C17.2447 13.0976 17.8788 12.6911 18.3666 11.878C18.7894 11.1789 19.0007 10.4146 19.0007 9.57727C19.0089 8.94312 18.8707 8.4147 18.6105 7.97563ZM17.5861 10.2277C17.4723 10.7642 17.2691 11.1626 16.9683 11.4309C16.7325 11.6423 16.513 11.7317 16.3097 11.6911C16.1146 11.6504 15.952 11.4797 15.83 11.1626C15.7325 10.9106 15.6837 10.6586 15.6837 10.4228C15.6837 10.2196 15.7 10.0163 15.7406 9.82932C15.8138 9.49599 15.952 9.17079 16.1715 8.86183C16.4398 8.46345 16.7243 8.30085 17.017 8.35777C17.2122 8.39842 17.3748 8.56915 17.4967 8.88622C17.5943 9.13825 17.6431 9.39028 17.6431 9.62605C17.6431 9.83743 17.6268 10.0407 17.5862 10.2277L17.5861 10.2277ZM13.5211 7.97563C13.2284 7.46344 12.7894 7.15446 12.2203 7.03251C12.0658 6.99999 11.9195 6.98373 11.7813 6.98373C11.0008 6.98373 10.3667 7.39024 9.87073 8.20326C9.44796 8.89431 9.23658 9.65857 9.23658 10.4959C9.23658 11.1219 9.36666 11.6585 9.62682 12.1057C9.9195 12.6179 10.3504 12.9268 10.9276 13.0488C11.0821 13.0813 11.2284 13.0976 11.3666 13.0976C12.1552 13.0976 12.7894 12.6911 13.2772 11.878C13.6999 11.1789 13.9113 10.4146 13.9113 9.57727C13.9113 8.94312 13.7812 8.4147 13.5211 7.97563ZM12.4886 10.2277C12.3748 10.7642 12.1715 11.1626 11.8707 11.4309C11.6349 11.6423 11.4154 11.7317 11.2122 11.6911C11.017 11.6504 10.8544 11.4797 10.7325 11.1626C10.6349 10.9106 10.5861 10.6586 10.5861 10.4228C10.5861 10.2196 10.6024 10.0163 10.6431 9.82932C10.7162 9.49599 10.8544 9.17079 11.0739 8.86183C11.3422 8.46345 11.6268 8.30085 11.9195 8.35777C12.1146 8.39842 12.2772 8.56915 12.3992 8.88622C12.4967 9.13825 12.5455 9.39028 12.5455 9.62605C12.5536 9.83743 12.5292 10.0407 12.4886 10.2277L12.4886 10.2277Z" fill="white"/>
</svg>