<svg viewBox="0 0 20 20" fill="none" xmlns="http://www.w3.org/2000/svg">
<path d="M19.673 8.2556H13.8057L17.9286 4.13271C17.6114 3.65707 17.2942 3.33988 16.9771 2.86393C16.5207 2.53409 16.096 2.16248 15.7086 1.75391L11.5863 5.87712V0.168559C11.0685 0.0374925 10.5341 -0.0159043 10.0007 0.0101185C9.46678 -0.0242996 8.93089 0.0292268 8.41437 0.168559V6.03587L4.13303 1.75453C3.64075 2.0367 3.20946 2.41391 2.86425 2.86424C2.54706 3.33988 2.07142 3.65707 1.75423 4.13302L5.87682 8.2556H0.168573L0.0101318 9.84126C-0.0242175 10.3749 0.0293084 10.9106 0.168573 11.4269H6.0362L1.75486 15.7083C2.38132 16.6516 3.18998 17.4603 4.13334 18.0867L8.25624 13.9638V19.8315C8.77403 19.9625 9.30842 20.0159 9.8419 19.9899C10.3756 20.0243 10.9112 19.9707 11.4276 19.8315V13.9645L15.5501 18.0877C16.0423 17.8054 16.4735 17.4281 16.8186 16.9777C17.2272 16.5902 17.5988 16.1656 17.9286 15.7092L13.8057 11.5857H19.673C19.8042 11.0679 19.8577 10.5335 19.8318 10C19.8654 9.41391 19.812 8.82607 19.6734 8.2556H19.673ZM12.3785 9.84126C12.3628 10.5393 12.2561 11.2324 12.0613 11.9029C11.406 12.1598 10.7019 12.2681 9.99972 12.2201C9.30166 12.2043 8.60862 12.0977 7.93811 11.9029C7.68117 11.2476 7.57284 10.5435 7.62092 9.84126C7.63667 9.1432 7.7433 8.45017 7.93811 7.77966C8.59339 7.52272 9.29751 7.41438 9.99972 7.46246C10.6978 7.47822 11.3908 7.58485 12.0613 7.77966C12.2442 8.45275 12.3506 9.14432 12.3785 9.84126Z" fill="#FF4A00"/>
</svg>