<svg viewBox="0 0 20 20" fill="none" xmlns="http://www.w3.org/2000/svg">
<g clip-path="url(#clip0_11622_65331)">
<path d="M20 8.47266V13.2148L19.3438 13.8555V9.21484L20 8.47266Z" fill="#E79225"/>
<path d="M15.6992 8.47656L15.0195 9.21484L15.0547 9.26172L19.3164 9.24609L19.3555 9.21484L20 8.47266L15.6992 8.47656Z" fill="#FFF16D"/>
<path d="M19.3555 9.21484H15.0195V13.8594H19.3555V9.21484Z" fill="url(#paint0_linear_11622_65331)"/>
<path d="M18.6953 10.8867C18.6094 10.6719 18.4805 10.4766 18.3125 10.3086C18.1523 10.1445 17.9727 10.0195 17.7695 9.9375C17.5703 9.85547 17.3555 9.8125 17.1211 9.8125C16.8867 9.8125 16.668 9.85547 16.4688 9.9375C16.2656 10.0195 16.0859 10.1445 15.9258 10.3086C15.7578 10.4766 15.6328 10.6719 15.5469 10.8867C15.4609 11.1016 15.4219 11.3359 15.4219 11.5938C15.4219 11.8438 15.4648 12.0781 15.5508 12.2969C15.6367 12.5156 15.7617 12.7109 15.9297 12.8828C16.0859 13.043 16.2656 13.1641 16.4648 13.2461C16.6641 13.3281 16.8867 13.3711 17.125 13.3711C17.3555 13.3711 17.5703 13.3281 17.7695 13.2461C17.9688 13.1641 18.1523 13.043 18.3125 12.8828C18.4805 12.7109 18.6094 12.5156 18.6953 12.3008C18.7812 12.0859 18.8242 11.8477 18.8242 11.5977C18.8242 11.3359 18.7812 11.1016 18.6953 10.8867ZM17.8008 12.418C17.6328 12.6172 17.4102 12.7188 17.1211 12.7188C16.832 12.7188 16.6055 12.6172 16.4375 12.418C16.2695 12.2188 16.1875 11.9414 16.1875 11.5898C16.1875 11.2305 16.2734 10.9531 16.4375 10.75C16.6055 10.5469 16.8281 10.4492 17.1211 10.4492C17.4102 10.4492 17.6328 10.5508 17.8008 10.75C17.9648 10.9531 18.0508 11.2305 18.0508 11.5898C18.0508 11.9414 17.9688 12.2188 17.8008 12.418Z" fill="white"/>
</g>
<g clip-path="url(#clip1_11622_65331)">
<path d="M14.5937 8.08594V8.10937L15.1484 12.3711L14.8242 13.2695L14.7812 13.2383L14.2109 9.15234L14.2227 9.09766L14.5781 8.10937L14.5937 8.08594Z" fill="#009ADA"/>
<path d="M10.3242 8.67969L14.5938 8.08594L14.2344 9.10938L14.1836 9.16406L10.1914 9.75L10.2109 9.01953L10.3242 8.67969Z" fill="#91C9ED"/>
<path d="M14.2344 9.10938L14.8242 13.2695L10.6172 13.8594L10.0508 9.83984L10.2969 9.64844L14.2344 9.10938Z" fill="url(#paint1_linear_11622_65331)"/>
<path d="M13.5195 9.90625C13.5 9.77734 13.457 9.67969 13.3867 9.61328C13.3281 9.5625 13.2578 9.53516 13.1758 9.53516C13.1563 9.53516 13.1328 9.53516 13.1094 9.53906C13 9.55469 12.918 9.60547 12.8672 9.6875C12.8281 9.74609 12.8125 9.82031 12.8125 9.90625C12.8125 9.9375 12.8164 9.97266 12.8203 10.0078L12.9727 11.0898L11.7617 11.2695L11.6094 10.1875C11.5898 10.0625 11.5469 9.96484 11.4766 9.89844C11.418 9.84375 11.3477 9.81641 11.2695 9.81641C11.25 9.81641 11.2305 9.81641 11.2109 9.82031C11.0977 9.83594 11.0117 9.88672 10.957 9.96875C10.918 10.0273 10.9023 10.1016 10.9023 10.1875C10.9023 10.2187 10.9062 10.2539 10.9102 10.293L11.3242 13.1094C11.3438 13.2383 11.3867 13.3359 11.4648 13.4023C11.5234 13.4531 11.5938 13.4766 11.6797 13.4766C11.7031 13.4766 11.7266 13.4766 11.75 13.4727C11.8555 13.457 11.9336 13.4062 11.9844 13.3242C12.0195 13.2656 12.0352 13.1953 12.0352 13.1133C12.0352 13.082 12.0312 13.0469 12.0273 13.0117L11.8594 11.8984L13.0703 11.7188L13.2383 12.832C13.2578 12.9609 13.3008 13.0586 13.375 13.1211C13.4336 13.1719 13.5039 13.1992 13.5859 13.1992C13.6055 13.1992 13.6289 13.1992 13.6523 13.1953C13.7617 13.1797 13.8438 13.1289 13.8945 13.0469C13.9297 12.9883 13.9492 12.918 13.9492 12.832C13.9492 12.8008 13.9453 12.7656 13.9414 12.7305L13.5195 9.90625Z" fill="white"/>
</g>
<g clip-path="url(#clip2_11622_65331)">
<path d="M6.32812 7L4.80859 10.6094L5.01562 12.1953L5.02734 12.1914L6.73438 8.35156L6.72656 8.26953L6.35938 7.05078L6.32812 7Z" fill="#66BF6B"/>
<path d="M6.32812 7L6.72266 8.32422L6.73047 8.35156L10.4883 10.0352L10.5 10.0273L10.1797 8.76172L6.32812 7Z" fill="#98D0A0"/>
<path d="M6.72266 8.32422L10.5 10.0273L8.79297 13.8984L5.01562 12.1953L6.72266 8.32422Z" fill="url(#paint2_linear_11622_65331)"/>
<path d="M9.35547 10.3398C9.27344 10.1211 9.16016 9.93359 9.01172 9.77734C8.86328 9.62109 8.68359 9.49609 8.47266 9.40625C8.26172 9.31641 8.05078 9.27344 7.83594 9.27344H7.82422C7.60547 9.27344 7.39062 9.32422 7.17969 9.41797C6.95703 9.51563 6.76562 9.64844 6.60156 9.82422C6.4375 9.99609 6.30469 10.207 6.20312 10.4492C6.10156 10.6875 6.04688 10.9297 6.03516 11.168V11.25C6.03516 11.4609 6.07031 11.668 6.14453 11.8711C6.22266 12.0859 6.33594 12.2695 6.48438 12.4258C6.63281 12.582 6.81641 12.707 7.03516 12.7969C7.24219 12.8867 7.45313 12.9297 7.66797 12.9297H7.67188C7.88672 12.9297 8.10156 12.8828 8.3125 12.793C8.53516 12.6953 8.73047 12.5586 8.89453 12.3828C9.05859 12.2109 9.19531 12.0039 9.29688 11.7617C9.39844 11.5195 9.45312 11.2812 9.46484 11.043V10.9727C9.46875 10.7578 9.43359 10.5469 9.35547 10.3398ZM8.60156 11.4648C8.46094 11.8008 8.26953 12.0312 8.03906 12.1562C7.91406 12.2227 7.78516 12.2578 7.65625 12.2578C7.54297 12.2578 7.42188 12.2305 7.30078 12.1797C7.03516 12.0664 6.87109 11.8867 6.80078 11.6289C6.77734 11.543 6.76562 11.4531 6.76562 11.3594C6.76562 11.1719 6.8125 10.9648 6.90625 10.7422C7.05078 10.3984 7.24219 10.1641 7.47266 10.0352C7.59766 9.96484 7.72656 9.93359 7.85547 9.93359C7.97266 9.93359 8.08984 9.96094 8.21484 10.0117C8.47656 10.125 8.64062 10.3047 8.71094 10.5625C8.73438 10.6445 8.74609 10.7344 8.74609 10.8281C8.74609 11.0234 8.69922 11.2344 8.60156 11.4648Z" fill="white"/>
</g>
<g clip-path="url(#clip3_11622_65331)">
<path d="M4.50781 7.61328L5.125 11.7461L4.84375 13.1992L4.80469 13.1484L4.20312 9.15625V9.07812L4.46875 7.68359L4.50781 7.61328Z" fill="#760D16"/>
<path d="M0 9.75L0.292969 8.28906L4.50781 7.61328L4.22266 9.10156V9.19922L0.0507812 9.78906L0 9.75Z" fill="#EF463E"/>
<path d="M4.22266 9.10156L4.84375 13.1992L0.671875 13.8516L0 9.75L4.22266 9.10156Z" fill="url(#paint3_linear_11622_65331)"/>
<path d="M3.77344 12.5469C3.74219 12.5078 3.69531 12.4805 3.64062 12.4609C3.58594 12.4414 3.51953 12.4336 3.4375 12.4336C3.36328 12.4336 3.27734 12.4414 3.18359 12.457L2.08203 12.6445C2.09375 12.5586 2.13672 12.4492 2.21094 12.3125C2.29297 12.1602 2.41797 11.9766 2.57812 11.7656C2.63281 11.6914 2.67578 11.6367 2.70703 11.5977C2.72656 11.5703 2.75781 11.5352 2.79688 11.4844C3.05078 11.1523 3.20312 10.8828 3.26562 10.6719C3.30078 10.5508 3.32031 10.4297 3.32812 10.3086C3.33203 10.2734 3.33203 10.2422 3.33203 10.2109C3.33203 10.125 3.32422 10.0391 3.30859 9.95312C3.29687 9.875 3.27734 9.8125 3.25 9.76172C3.22266 9.71094 3.19141 9.67188 3.15234 9.64844C3.10937 9.62109 3.04297 9.60938 2.96094 9.60938C2.89453 9.60938 2.8125 9.61719 2.71484 9.63281L1.44141 9.85156C1.28906 9.87891 1.17188 9.92187 1.10156 9.99219C1.04297 10.0469 1.01562 10.1172 1.01562 10.1953C1.01562 10.2148 1.01563 10.2383 1.01953 10.2617C1.03906 10.3711 1.09375 10.4492 1.18359 10.4883C1.23828 10.5117 1.30078 10.5234 1.37891 10.5234C1.42969 10.5234 1.48828 10.5195 1.55078 10.5078L2.61328 10.3203C2.61328 10.3398 2.61719 10.3594 2.61719 10.375C2.61719 10.4414 2.60547 10.5078 2.58203 10.5703C2.55078 10.6602 2.47266 10.7852 2.34375 10.9453C2.30859 10.9883 2.25391 11.0586 2.17969 11.1484C1.89062 11.4961 1.6875 11.793 1.5625 12.0391C1.47266 12.2109 1.41406 12.375 1.37891 12.543C1.35937 12.6406 1.34766 12.7305 1.34766 12.8203C1.34766 12.8828 1.35156 12.9453 1.36328 13.0039C1.37891 13.0898 1.39844 13.1602 1.42578 13.2148C1.45312 13.2695 1.49219 13.3125 1.53516 13.3359C1.57812 13.3594 1.63672 13.3672 1.72266 13.3672C1.82812 13.3672 1.97266 13.3516 2.15625 13.3203L3.3125 13.1211C3.51562 13.0859 3.66016 13.0352 3.74219 12.9688C3.80859 12.9141 3.84375 12.8398 3.84375 12.7539C3.84375 12.7305 3.83984 12.707 3.83594 12.6836C3.82812 12.6328 3.80859 12.5859 3.77344 12.5469Z" fill="white"/>
</g>
<defs>
<linearGradient id="paint0_linear_11622_65331" x1="17.1873" y1="9.28132" x2="17.1873" y2="13.7192" gradientUnits="userSpaceOnUse">
<stop offset="0.005618" stop-color="#FFE513"/>
<stop offset="1" stop-color="#FDB924"/>
</linearGradient>
<linearGradient id="paint1_linear_11622_65331" x1="10.2662" y1="9.75035" x2="14.6007" y2="13.2658" gradientUnits="userSpaceOnUse">
<stop offset="0.005618" stop-color="#008CD2"/>
<stop offset="1" stop-color="#00649D"/>
</linearGradient>
<linearGradient id="paint2_linear_11622_65331" x1="7.7579" y1="9.87267" x2="7.7579" y2="13.7607" gradientUnits="userSpaceOnUse">
<stop stop-color="#26A146"/>
<stop offset="1" stop-color="#008A52"/>
</linearGradient>
<linearGradient id="paint3_linear_11622_65331" x1="2.11836" y1="9.49143" x2="2.76227" y2="13.5324" gradientUnits="userSpaceOnUse">
<stop stop-color="#D92231"/>
<stop offset="1" stop-color="#BA2234"/>
</linearGradient>
<clipPath id="clip0_11622_65331">
<rect width="4.98047" height="5.38672" fill="white" transform="translate(15.0195 8.47266)"/>
</clipPath>
<clipPath id="clip1_11622_65331">
<rect width="5.09766" height="5.77344" fill="white" transform="translate(10.0508 8.08594)"/>
</clipPath>
<clipPath id="clip2_11622_65331">
<rect width="5.69141" height="6.89844" fill="white" transform="translate(4.80859 7)"/>
</clipPath>
<clipPath id="clip3_11622_65331">
<rect width="5.125" height="6.23828" fill="white" transform="translate(0 7.61328)"/>
</clipPath>
</defs>
</svg>