<svg viewBox="0 0 24 24" xmlns="http://www.w3.org/2000/svg">
    <g fill="none">
      <path
        fill-rule="evenodd"
        clip-rule="evenodd"
        d="M12.75 3a.75.75 0 0 0-1.5 0v4.25H7.17c-.535 0-.98 0-1.345.03-.38.03-.736.098-1.073.27A2.75 2.75 0 0 0 3.55 8.752c-.172.337-.24.693-.27 1.073-.03.365-.03.81-.03 1.345V12.83c0 .535 0 .98.03 1.345.03.38.098.736.27 1.073a2.75 2.75 0 0 0 1.202 1.202c.337.172.693.24 1.073.27.365.03.81.03 1.345.03h4.08V21a.75.75 0 0 0 1.5 0v-4.25h4.08c.535 0 .98 0 1.345-.03.38-.03.736-.098 1.073-.27a2.75 2.75 0 0 0 1.202-1.201c.172-.338.24-.694.27-1.074.03-.365.03-.81.03-1.345V11.17c0-.535 0-.98-.03-1.345-.03-.38-.098-.736-.27-1.073A2.75 2.75 0 0 0 19.25 7.55c-.338-.172-.694-.24-1.074-.27-.364-.03-.81-.03-1.345-.03h-4.08V3z"
        fill="currentColor"
      ></path>
    </g>
  </svg>