<svg viewBox="0 0 24 24" xmlns="http://www.w3.org/2000/svg">
    <g fill="none">
      <path
        fill-rule="evenodd"
        clip-rule="evenodd"
        d="M3 2.25a.75.75 0 0 0 0 1.5h18a.75.75 0 0 0 0-1.5H3zm8.17 4H12.83c.535 0 .98 0 1.345.03.38.03.736.098 1.073.27a2.75 2.75 0 0 1 1.202 1.202c.172.337.24.693.27 1.073.03.365.03.81.03 1.345v7.66c0 .535 0 .98-.03 1.345-.03.38-.098.736-.27 1.073a2.75 2.75 0 0 1-1.201 1.202c-.338.172-.694.24-1.074.27-.365.03-.81.03-1.345.03H11.17c-.535 0-.98 0-1.345-.03-.38-.03-.736-.098-1.073-.27A2.75 2.75 0 0 1 7.55 20.25c-.172-.338-.24-.694-.27-1.074-.03-.365-.03-.81-.03-1.345v-7.66c0-.535 0-.98.03-1.345.03-.38.098-.736.27-1.073A2.75 2.75 0 0 1 8.752 6.55c.337-.172.693-.24 1.073-.27.365-.03.81-.03 1.345-.03z"
        fill="currentColor"
      ></path>
    </g>
  </svg>