<svg viewBox="0 0 24 24" xmlns="http://www.w3.org/2000/svg">
    <g fill="none">
      <path
        fill-rule="evenodd"
        clip-rule="evenodd"
        d="M2.076 3.617C2 3.801 2 4.034 2 4.5s0 .699.076.883a1 1 0 0 0 .541.54C2.801 6 3.034 6 3.5 6h17c.466 0 .699 0 .883-.076a1 1 0 0 0 .54-.541C22 5.199 22 4.966 22 4.5s0-.699-.076-.883a1 1 0 0 0-.541-.54C21.199 3 20.966 3 20.5 3h-17c-.466 0-.699 0-.883.076a1 1 0 0 0-.54.541zM4 7h16v9.2c0 1.68 0 2.52-.327 3.162a3 3 0 0 1-1.311 1.311C17.72 21 16.88 21 15.2 21H8.8c-1.68 0-2.52 0-3.162-.327a3 3 0 0 1-1.311-1.311C4 18.72 4 17.88 4 16.2V7zm4.25 3A.75.75 0 0 1 9 9.25h6a.75.75 0 0 1 0 1.5H9a.75.75 0 0 1-.75-.75z"
        fill="currentColor"
      ></path>
    </g>
  </svg>