<svg
    viewBox="0 0 24 24"
    xmlns="http://www.w3.org/2000/svg"
   
   
  >
    <path
      fill-rule="evenodd"
      clip-rule="evenodd"
      d="M11.1905 8.21053C11.1069 8.57694 10.8123 8.8631 10.435 8.94431L6.46736 9.80088C5.42817 10.0252 5.42817 11.4637 6.46736 11.688L10.435 12.5446C10.8123 12.6258 11.1069 12.912 11.1905 13.2784L12.0725 17.1319C12.3034 18.1413 13.7845 18.1413 14.0155 17.1319L14.8974 13.2784C14.981 12.912 15.2756 12.6258 15.6529 12.5446L19.6206 11.688C20.6598 11.4637 20.6598 10.0252 19.6206 9.80088L15.6529 8.94431C15.2756 8.8631 14.981 8.57694 14.8974 8.21053L14.0155 4.35696C13.7845 3.34765 12.3034 3.34765 12.0725 4.35696L11.1905 8.21053ZM5.89686 16.1206C5.81324 16.487 5.51861 16.7731 5.14135 16.8543L3.92696 17.1163C3.49098 17.2101 3.49098 17.8134 3.92696 17.9072L5.14135 18.1692C5.51861 18.2504 5.81324 18.5365 5.89686 18.9029L6.16661 20.0824C6.26316 20.5059 6.88429 20.5059 6.98085 20.0824L7.2506 18.9029C7.33421 18.5365 7.62885 18.2504 8.00611 18.1692L9.2205 17.9072C9.65648 17.8134 9.65648 17.2101 9.2205 17.1163L8.00611 16.8543C7.62885 16.7731 7.33421 16.487 7.2506 16.1206L6.98085 14.9411C6.88429 14.5177 6.26316 14.5177 6.16661 14.9411L5.89686 16.1206Z"
      fill="currentColor"
    />
  </svg>