<svg viewBox="0 0 24 24" xmlns="http://www.w3.org/2000/svg">
    <g fill="none">
      <path
        fill-rule="evenodd"
        clip-rule="evenodd"
        d="M1 2.75c.394 0 .531.001.644.013a2.25 2.25 0 0 1 1.933 1.678c.029.11.05.245.105.635l.576 4.03.002.017.109.652.005.03c.154.925.277 1.66.422 2.252.149.608.333 1.116.637 1.573a4.75 4.75 0 0 0 2.011 1.704c.501.225 1.033.323 1.657.37.607.046 1.353.046 2.29.046H15.609c.938 0 1.684 0 2.291-.046.624-.047 1.156-.145 1.657-.37a4.75 4.75 0 0 0 2.01-1.704c.305-.457.49-.965.638-1.573.145-.591.268-1.327.422-2.252l.005-.03.107-.638a.775.775 0 0 0 .012-.151V8.827c0-.766 0-1.253-.076-1.674a4.75 4.75 0 0 0-3.827-3.827c-.42-.076-.908-.076-1.674-.076h-.131c-.334 0-.564 0-.784.026a3.75 3.75 0 0 0-2.526 1.43 6.804 6.804 0 0 0-.426.66l-.023.037-1.708 2.847H5.65l-.483-3.386-.007-.046a7.273 7.273 0 0 0-.13-.75 3.75 3.75 0 0 0-3.223-2.796 7.27 7.27 0 0 0-.761-.022H1v1.5zm8 16a1.25 1.25 0 1 0 0 2.5 1.25 1.25 0 0 0 0-2.5zM6.25 20a2.75 2.75 0 1 1 5.5 0 2.75 2.75 0 0 1-5.5 0zM19 18.75a1.25 1.25 0 1 0 0 2.5 1.25 1.25 0 0 0 0-2.5zM16.25 20a2.75 2.75 0 1 1 5.5 0 2.75 2.75 0 0 1-5.5 0zm.837-15.25c.881 0 1.222.003 1.493.052a3.25 3.25 0 0 1 2.618 2.618c.034.19.046.413.05.83h-7.923l1.245-2.075c.203-.339.274-.454.348-.551a2.25 2.25 0 0 1 1.516-.858c.122-.015.258-.016.652-.016z"
        fill="currentColor"
      ></path>
    </g>
  </svg>