<svg viewBox="0 0 24 24" xmlns="http://www.w3.org/2000/svg">
    <g fill="none">
      <path
        fill-rule="evenodd"
        clip-rule="evenodd"
        d="M2.436 5.184C2 6.04 2 7.16 2 9.4v5.2c0 2.24 0 3.36.436 4.216a4 4 0 0 0 1.748 1.748C5.04 21 6.16 21 8.4 21h7.2c2.24 0 3.36 0 4.216-.436a4 4 0 0 0 1.748-1.748C22 17.96 22 16.84 22 14.6V9.4c0-2.24 0-3.36-.436-4.216a4 4 0 0 0-1.748-1.748C18.96 3 17.84 3 15.6 3H8.4c-2.24 0-3.36 0-4.216.436a4 4 0 0 0-1.748 1.748zM7.75 8a.75.75 0 0 0-1.5 0v8a.75.75 0 0 0 1.5 0V8zM12 10.25a.75.75 0 0 1 .75.75v5a.75.75 0 0 1-1.5 0v-5a.75.75 0 0 1 .75-.75zM17.75 9a.75.75 0 0 0-1.5 0v7a.75.75 0 0 0 1.5 0V9z"
        fill="currentColor"
      ></path>
    </g>
  </svg>