<svg viewBox="0 0 24 24" xmlns="http://www.w3.org/2000/svg">
    <g fill="none">
      <path
        fill-rule="evenodd"
        clip-rule="evenodd"
        d="M2.47 2.47a.75.75 0 0 1 1.06 0l3 3 12 12 3 3a.75.75 0 1 1-1.06 1.06l-2.78-2.78H6.767c-.813 0-1.469 0-2-.043-.546-.045-1.026-.14-1.47-.366a3.75 3.75 0 0 1-1.64-1.639c-.226-.444-.32-.924-.365-1.47-.043-.531-.043-1.187-.043-2V9.884c0-.818 0-1.376.128-1.855a3.75 3.75 0 0 1 2.651-2.651c.077-.02.155-.038.236-.052L2.47 3.53a.75.75 0 0 1 0-1.06zm14.64 4.318c-.463-.037-1.058-.038-1.91-.038H10a.75.75 0 0 1 0-1.5h5.232c.813 0 1.469 0 2 .043.546.045 1.026.14 1.47.366a3.75 3.75 0 0 1 1.64 1.639c.152.3.245.617.303.96.141.008.27.02.392.045a2.75 2.75 0 0 1 2.16 2.16c.053.268.053.571.053.964v1.146c0 .393 0 .696-.053.963a2.75 2.75 0 0 1-2.16 2.161c-.268.053-.571.053-.964.053h-.071H20a.75.75 0 0 1-.75-.75v-4.2c0-.852 0-1.447-.038-1.91-.038-.453-.107-.714-.207-.911a2.25 2.25 0 0 0-.983-.984c-.198-.1-.459-.17-.913-.207zm3.64 7.437c.493-.1.878-.487.976-.981.02-.103.024-.243.024-.744v-1c0-.5-.004-.641-.024-.744a1.25 1.25 0 0 0-.98-.982c.004.303.004.633.004.994v3.457z"
        fill="currentColor"
      ></path>
    </g>
  </svg>