<svg viewBox="0 0 24 24" xmlns="http://www.w3.org/2000/svg">
    <g fill="none">
      <path
        fill-rule="evenodd"
        clip-rule="evenodd"
        d="M2 4.25a.75.75 0 0 1 .75.75v7.25h8.5V7a.75.75 0 0 1 .75-.75h5.232c.813 0 1.469 0 2 .043.546.045 1.026.14 1.47.366a3.75 3.75 0 0 1 1.64 1.639c.226.444.32.924.365 1.47.043.531.043 1.187.043 2V19a.75.75 0 0 1-1.5 0v-5.25H2.75V19a.75.75 0 0 1-1.5 0V5A.75.75 0 0 1 2 4.25zM4.25 8a2.75 2.75 0 1 1 5.5 0 2.75 2.75 0 0 1-5.5 0z"
        fill="currentColor"
      ></path>
    </g>
  </svg>