<svg viewBox="0 0 24 24" xmlns="http://www.w3.org/2000/svg">
    <g fill="none">
      <path
        fill-rule="evenodd"
        clip-rule="evenodd"
        d="M7.17 3.25H16.83c.535 0 .98 0 1.345.03.38.03.736.098 1.073.27a2.75 2.75 0 0 1 1.202 1.202c.172.337.24.693.27 1.073.03.365.03.81.03 1.345v4.197c.17.042.337.1.498.183.518.263.939.684 1.202 1.201.172.338.24.694.27 1.074.027.324.03.71.03 1.167V21a.75.75 0 0 1-1.5 0v-3.25H2.75V21a.75.75 0 0 1-1.5 0v-6.008c0-.456.003-.844.03-1.167.03-.38.098-.736.27-1.073a2.75 2.75 0 0 1 1.202-1.202c.161-.083.327-.14.498-.183V7.17c0-.535 0-.98.03-1.345.03-.38.098-.736.27-1.073A2.75 2.75 0 0 1 4.752 3.55c.337-.172.693-.24 1.073-.27.365-.03.81-.03 1.345-.03zm12.08 8h-1.5v-.08c0-.535 0-.98-.03-1.345-.03-.38-.098-.736-.27-1.073A2.75 2.75 0 0 0 16.25 7.55c-.338-.172-.694-.24-1.074-.27-.365-.03-.81-.03-1.345-.03H10.17c-.535 0-.98 0-1.345.03-.38.03-.736.098-1.073.27A2.75 2.75 0 0 0 6.55 8.752c-.172.337-.24.693-.27 1.073-.03.365-.03.81-.03 1.345v.08h-1.5V7.2c0-.572 0-.957.025-1.253.023-.287.065-.424.111-.514a1.25 1.25 0 0 1 .547-.547c.09-.046.227-.088.514-.111.296-.024.68-.025 1.253-.025h9.6c.572 0 .957 0 1.252.025.288.023.425.065.515.111.236.12.427.311.547.547.046.09.088.227.111.514.024.296.025.68.025 1.253v4.05zm-3-.05v.05h-3.5v-2.5h1.05c.572 0 .957 0 1.252.025.288.023.425.065.516.111.235.12.426.311.546.547.046.09.088.227.111.514.024.296.025.68.025 1.253zm-5-2.45v2.5h-3.5v-.05c0-.572 0-.957.025-1.253.023-.287.065-.424.111-.514a1.25 1.25 0 0 1 .547-.547c.09-.046.227-.088.514-.111.296-.024.68-.025 1.253-.025h1.05z"
        fill="currentColor"
      ></path>
    </g>
  </svg>