<svg viewBox="0 0 24 24" xmlns="http://www.w3.org/2000/svg">
    <g fill="none">
      <path
        fill-rule="evenodd"
        clip-rule="evenodd"
        d="M14 1.75c.953 0 1.356.002 1.685.045a5.25 5.25 0 0 1 4.52 4.52c.043.329.045.732.045 1.685v11a.75.75 0 0 0 1.5 0V7.93c0-.862 0-1.372-.058-1.811a6.75 6.75 0 0 0-5.81-5.811C15.441.25 14.931.25 14.07.25H11a4.752 4.752 0 0 0-4.665 3.853c-.267.048-.492.12-.697.224a3 3 0 0 0-1.311 1.311C4 6.28 4 7.12 4 8.8v10.443c0 .905 0 1.358.19 1.62a1 1 0 0 0 .702.408c.323.035.716-.19 1.502-.639l3.018-1.725c.579-.33.868-.496 1.176-.56a2 2 0 0 1 .824 0c.308.064.597.23 1.176.56l3.018 1.725c.786.45 1.18.674 1.502.639a1 1 0 0 0 .702-.408c.19-.262.19-.715.19-1.62V8.8c0-1.68 0-2.52-.327-3.162a3 3 0 0 0-1.311-1.311C15.72 4 14.88 4 13.2 4H8.8c-.329 0-.625 0-.894.002A3.251 3.251 0 0 1 11 1.75h3z"
        fill="currentColor"
      ></path>
    </g>
  </svg>