<svg viewBox="0 0 24 24" xmlns="http://www.w3.org/2000/svg">
    <g fill="none">
      <path
        fill-rule="evenodd"
        clip-rule="evenodd"
        d="M9.768 2.25h4.464c.813 0 1.469 0 2 .043.546.045 1.026.14 1.47.366a3.75 3.75 0 0 1 1.64 1.639c.226.444.32.924.365 1.47.043.531.043 1.187.043 2V17.83c0 .535 0 .98-.03 1.345-.03.38-.098.736-.27 1.073a2.751 2.751 0 0 1-1.201 1.202c-.338.172-.694.24-1.074.27-.365.03-.81.03-1.345.03H7.5a3.25 3.25 0 0 1-3.25-3.25V7.768c0-.813 0-1.469.043-2 .045-.546.14-1.026.366-1.47a3.75 3.75 0 0 1 1.639-1.64c.444-.226.924-.32 1.47-.365.531-.043 1.187-.043 2-.043zM5.75 18.5c0 .966.784 1.75 1.75 1.75h8.3c.572 0 .957 0 1.252-.025.288-.023.425-.065.515-.111a1.25 1.25 0 0 0 .547-.547c.046-.09.088-.227.111-.515.024-.295.025-.68.025-1.252v-1.05H7.5a1.75 1.75 0 0 0-1.75 1.75zM9 6.25a.75.75 0 0 0 0 1.5h6a.75.75 0 0 0 0-1.5H9z"
        fill="currentColor"
      ></path>
    </g>
  </svg>