<svg viewBox="0 0 24 24" xmlns="http://www.w3.org/2000/svg">
    <g fill="none">
      <path
        fill-rule="evenodd"
        clip-rule="evenodd"
        d="M20 6.8v12.611c0 .857 0 1.286-.18 1.544a1 1 0 0 1-.674.416c-.312.046-.695-.145-1.462-.529l-4.253-2.127c-.525-.262-.787-.393-1.062-.445a1.997 1.997 0 0 0-.738 0c-.275.052-.537.183-1.062.445l-4.253 2.127c-.767.384-1.15.575-1.462.53a1 1 0 0 1-.673-.417C4 20.697 4 20.268 4 19.411V6.8c0-1.68 0-2.52.327-3.162a3 3 0 0 1 1.311-1.311C6.28 2 7.12 2 8.8 2h6.4c1.68 0 2.52 0 3.162.327a3 3 0 0 1 1.311 1.311C20 4.28 20 5.12 20 6.8zm-3.97 1.73a.75.75 0 0 0-1.06-1.06L11 11.44 9.53 9.97a.75.75 0 0 0-1.06 1.06l2 2a.75.75 0 0 0 1.06 0l4.5-4.5z"
        fill="currentColor"
      ></path>
    </g>
  </svg>