<svg viewBox="0 0 24 24" xmlns="http://www.w3.org/2000/svg">
    <g fill="none">
      <path
        fill-rule="evenodd"
        clip-rule="evenodd"
        d="M11.093 4.438l.157.09V7a.75.75 0 0 0 1.5 0V4.528l.157-.09c2.127-1.209 3.864-1.401 6.492-1.432.554-.007.831-.01 1.048.098.189.095.346.25.442.438C21 3.757 21 4.038 21 4.6v8.8c0 .558 0 .837-.107 1.05a.993.993 0 0 1-.432.436c-.211.11-.495.113-1.062.12-2.628.03-4.365.223-6.491 1.432-.367.208-.55.313-.703.345a.882.882 0 0 1-.41 0c-.153-.033-.336-.137-.703-.345-2.126-1.209-3.863-1.401-6.49-1.432-.568-.007-.852-.01-1.063-.12a.993.993 0 0 1-.432-.436C3 14.237 3 13.958 3 13.4V4.6c0-.562 0-.843.11-1.058.097-.188.254-.343.443-.438.217-.108.494-.105 1.048-.098 2.628.03 4.365.223 6.491 1.432zM3 17.75a.75.75 0 0 0 0 1.5c1.974 0 3.397.124 4.678.474 1.273.347 2.448.928 3.906 1.9a.75.75 0 0 0 .832 0c1.458-.972 2.633-1.553 3.906-1.9 1.281-.35 2.704-.474 4.678-.474a.75.75 0 0 0 0-1.5c-2.026 0-3.603.126-5.072.526-1.343.367-2.56.952-3.928 1.828-1.369-.876-2.585-1.461-3.928-1.828-1.469-.4-3.046-.526-5.072-.526z"
        fill="currentColor"
      ></path>
    </g>
  </svg>