<svg viewBox="0 0 24 24" xmlns="http://www.w3.org/2000/svg">
    <g fill="none">
      <path
        d="M20 19.411V6.8c0-1.68 0-2.52-.327-3.162a3 3 0 0 0-1.311-1.311C17.72 2 16.88 2 15.2 2H8.8c-1.68 0-2.52 0-3.162.327a3 3 0 0 0-1.311 1.311C4 4.28 4 5.12 4 6.8v12.611c0 .857 0 1.286.18 1.544a1 1 0 0 0 .674.416c.311.046.695-.145 1.462-.529l4.253-2.127c.525-.262.787-.393 1.062-.445.244-.045.494-.045.738 0 .275.052.537.183 1.062.445l4.254 2.127c.766.384 1.15.575 1.461.53a1 1 0 0 0 .674-.417c.18-.258.18-.687.18-1.544z"
        fill="currentColor"
      ></path>
    </g>
  </svg>