<svg viewBox="0 0 24 24" xmlns="http://www.w3.org/2000/svg">
    <g fill="none">
      <path
        fill-rule="evenodd"
        clip-rule="evenodd"
        d="M2.53 1.47a.75.75 0 0 0-1.06 1.06l3 3 14 14 3 3a.75.75 0 1 0 1.06-1.06l-2.78-2.78V7.767c0-.813 0-1.469-.043-2-.045-.546-.14-1.026-.366-1.47a3.75 3.75 0 0 0-1.639-1.64c-.444-.226-.924-.32-1.47-.365-.531-.043-1.187-.043-2-.043H7c-1 0-1.876.534-2.357 1.332L2.53 1.47zM5.75 9v10.708l5.878-3.36a.75.75 0 0 1 .744 1.303l-7 4A.75.75 0 0 1 4.25 21V9a.75.75 0 0 1 1.5 0z"
        fill="currentColor"
      ></path>
    </g>
  </svg>