<svg viewBox="0 0 24 24" xmlns="http://www.w3.org/2000/svg">
    <g fill="none">
      <path
        fill-rule="evenodd"
        clip-rule="evenodd"
        d="M6.8 2.25h-.032c-.813 0-1.469 0-2 .043-.546.045-1.026.14-1.47.366a3.75 3.75 0 0 0-1.64 1.639c-.226.444-.32.924-.365 1.47-.043.531-.043 1.187-.043 2v8.464c0 .813 0 1.469.043 2 .045.546.14 1.026.366 1.47a3.75 3.75 0 0 0 1.639 1.64c.444.226.924.32 1.47.365.531.043 1.187.043 2 .043h4.464c.813 0 1.469 0 2-.043.546-.045 1.026-.14 1.47-.366a3.75 3.75 0 0 0 1.64-1.639c.226-.444.32-.924.365-1.47.043-.531.043-1.187.043-2V7.768c0-.813 0-1.469-.043-2-.045-.546-.14-1.026-.366-1.47a3.75 3.75 0 0 0-1.639-1.64c-.444-.226-.924-.32-1.47-.365-.531-.043-1.187-.043-2-.043H6.8zM5.25 7A.75.75 0 0 1 6 6.25h6a.75.75 0 0 1 0 1.5H6A.75.75 0 0 1 5.25 7zM6 10.25a.75.75 0 0 0 0 1.5h4a.75.75 0 0 0 0-1.5H6zM5.25 15a.75.75 0 0 1 .75-.75h2a.75.75 0 0 1 0 1.5H6a.75.75 0 0 1-.75-.75zM19 5.25a.75.75 0 0 1 .75.75v12a.75.75 0 0 1-1.5 0V6a.75.75 0 0 1 .75-.75zM22.75 8a.75.75 0 0 0-1.5 0v8a.75.75 0 0 0 1.5 0V8z"
        fill="currentColor"
      ></path>
    </g>
  </svg>