<svg viewBox="0 0 24 24" xmlns="http://www.w3.org/2000/svg">
    <g fill="none">
      <path
        fill-rule="evenodd"
        clip-rule="evenodd"
        d="M11.597 2.329c-.3.062-.584.22-1.151.534l-5.8 3.223c-.4.221-.385.756.014.978l6.563 3.646c.284.158.425.237.575.268.133.027.27.027.403 0 .15-.031.292-.11.576-.268l6.563-3.646c.4-.222.413-.757.014-.978l-5.8-3.223c-.567-.315-.85-.472-1.151-.534a2 2 0 0 0-.806 0zM21 8.883c0-.483-.49-.753-.913-.518l-6.514 3.62c-.3.165-.45.249-.558.367a1 1 0 0 0-.215.364c-.05.153-.05.324-.05.667v7.267c0 .43.429.695.804.487l5.8-3.223c.6-.332.899-.499 1.117-.736.193-.209.339-.457.428-.727.101-.306.101-.649.101-1.334V8.883zM10.446 21.137c.375.208.804-.058.804-.487v-7.267c0-.343 0-.514-.05-.667a1 1 0 0 0-.215-.364c-.109-.118-.258-.202-.558-.368l-6.515-3.62C3.49 8.13 3 8.4 3 8.884v6.234c0 .685 0 1.028.101 1.334a2 2 0 0 0 .428.727c.218.237.518.404 1.117.736l5.8 3.223z"
        fill="currentColor"
      ></path>
    </g>
  </svg>