<svg viewBox="0 0 24 24" xmlns="http://www.w3.org/2000/svg">
    <g fill="none">
      <path
        fill-rule="evenodd"
        clip-rule="evenodd"
        d="M4.5 5.25h2.809a4.751 4.751 0 0 1 9.382 0h2.882c.393 0 .696 0 .963.053a2.75 2.75 0 0 1 2.161 2.16c.053.268.053.571.053.964v.146c0 .393 0 .696-.053.963a2.75 2.75 0 0 1-2.16 2.161c-.268.053-.571.053-.964.053H16.75V11a.75.75 0 0 0-1.5 0v.75h-6.5V11a.75.75 0 0 0-1.5 0v.75H4.427c-.393 0-.696 0-.963-.053a2.75 2.75 0 0 1-2.161-2.16c-.053-.268-.053-.571-.053-.964v-.146c0-.393 0-.696.053-.963a2.75 2.75 0 0 1 2.16-2.161c.268-.053.571-.053.964-.053H4.5zm2.75 8H3a.75.75 0 0 0-.75.75v.633c0 1.092 0 1.958.057 2.655.058.714.18 1.317.46 1.869a4.75 4.75 0 0 0 2.077 2.075c.55.281 1.154.403 1.868.461.697.057 1.563.057 2.655.057H14.633c1.092 0 1.958 0 2.655-.057.714-.058 1.317-.18 1.869-.46a4.75 4.75 0 0 0 2.075-2.076c.281-.552.403-1.155.461-1.869.057-.697.057-1.563.057-2.655V14a.75.75 0 0 0-.75-.75h-4.25V14a.75.75 0 0 1-1.5 0v-.75h-6.5V14a.75.75 0 0 1-1.5 0v-.75zM12 2.75a3.251 3.251 0 0 1 3.163 2.5H8.837A3.251 3.251 0 0 1 12 2.75z"
        fill="currentColor"
      ></path>
    </g>
  </svg>