<svg viewBox="0 0 24 24" xmlns="http://www.w3.org/2000/svg">
    <g fill="none">
      <path
        fill-rule="evenodd"
        clip-rule="evenodd"
        d="M8.75 6a3.25 3.25 0 0 1 6.5 0h-6.5zM8.4 6H7.25a4.75 4.75 0 0 1 9.5 0H15.6c2.24 0 3.36 0 4.216.436a4 4 0 0 1 1.748 1.748c.242.475.35 1.03.398 1.814a.203.203 0 0 1-.125.2c-.545.227-1.336.531-2.31.836-.616.192-1.302.384-2.044.556a.6.6 0 0 1-.733-.59.75.75 0 0 0-1.5 0c0 .126 0 .19-.008.25-.05.406-.372.763-.77.854-.06.013-.115.019-.225.03-.727.074-1.479.116-2.247.116-.768 0-1.52-.042-2.247-.116-.11-.011-.165-.017-.224-.03a1.025 1.025 0 0 1-.772-.854c-.007-.06-.007-.124-.007-.25a.75.75 0 0 0-1.5 0 .6.6 0 0 1-.733.59 28.455 28.455 0 0 1-4.354-1.392.203.203 0 0 1-.125-.2c.048-.783.156-1.34.398-1.814a4 4 0 0 1 1.748-1.748C5.04 6 6.16 6 8.4 6zM2 12.4a.45.45 0 0 1 .607-.417 29.626 29.626 0 0 0 3.937 1.151c.409.09.706.448.706.866a.75.75 0 0 0 1.5 0 .42.42 0 0 1 .47-.415c.891.103 1.823.165 2.78.165.957 0 1.889-.062 2.78-.165a.42.42 0 0 1 .47.415.75.75 0 0 0 1.5 0c0-.418.297-.776.706-.866a29.837 29.837 0 0 0 3.937-1.151.45.45 0 0 1 .607.417v2.2c0 2.24 0 3.36-.436 4.216a4 4 0 0 1-1.748 1.748C18.96 21 17.84 21 15.6 21H8.4c-2.24 0-3.36 0-4.216-.436a4 4 0 0 1-1.748-1.748C2 17.96 2 16.84 2 14.6v-2.2z"
        fill="currentColor"
      ></path>
    </g>
  </svg>