<svg viewBox="0 0 24 24" xmlns="http://www.w3.org/2000/svg">
    <g fill="none">
      <path
        fill-rule="evenodd"
        clip-rule="evenodd"
        d="M8.25 6a3.75 3.75 0 0 1 7.5 0v.387a6.782 6.782 0 0 1 2.262 2.54l1.052-1.051c.544-.545.726-.734.854-.943.124-.201.215-.42.27-.65.057-.24.062-.502.062-1.271V4a.75.75 0 0 1 1.5 0v1.097c0 .652 0 1.103-.104 1.536a3.751 3.751 0 0 1-.449 1.084c-.232.38-.551.698-1.012 1.159l-.06.06-1.546 1.546c.112.488.171.996.171 1.518v3c0 .222-.01.441-.032.658l1.406 1.406.06.06c.462.46.78.78 1.013 1.16.206.335.358.7.45 1.083.103.433.103.884.103 1.536V22a.75.75 0 0 1-1.5 0v-1.012c0-.77-.005-1.032-.062-1.27a2.248 2.248 0 0 0-.27-.651c-.128-.21-.31-.398-.854-.943l-.745-.745a6.757 6.757 0 0 1-5.569 4.33V16a.75.75 0 0 0-1.5 0v5.709a6.756 6.756 0 0 1-5.569-4.33l-.745.745c-.544.545-.726.734-.854.943a2.25 2.25 0 0 0-.27.65c-.057.24-.062.502-.062 1.271V22a.75.75 0 0 1-1.5 0v-1.097c0-.652 0-1.103.104-1.536a3.75 3.75 0 0 1 .449-1.084c.232-.38.551-.698 1.012-1.159l.06-.06 1.407-1.406A6.834 6.834 0 0 1 5.25 15v-3c0-.522.06-1.03.171-1.518L3.876 8.936l-.06-.06c-.462-.46-.78-.78-1.013-1.16a3.75 3.75 0 0 1-.45-1.083C2.25 6.2 2.25 5.749 2.25 5.097V4a.75.75 0 0 1 1.5 0v1.012c0 .77.005 1.032.062 1.27.055.23.146.45.27.651.128.21.31.398.854.943l1.052 1.052A6.781 6.781 0 0 1 8.25 6.387V6zM12 3.75c1.114 0 2.04.81 2.219 1.873A6.74 6.74 0 0 0 12 5.25a6.74 6.74 0 0 0-2.219.373A2.25 2.25 0 0 1 12 3.75z"
        fill="currentColor"
      ></path>
    </g>
  </svg>