<svg viewBox="0 0 24 24" xmlns="http://www.w3.org/2000/svg">
    <g fill="none">
      <path
        fill-rule="evenodd"
        clip-rule="evenodd"
        d="M8.75 1a.75.75 0 0 0-1.5 0v1.273c-.187.008-.364.018-.53.03-.694.056-1.282.171-1.82.437A4.75 4.75 0 0 0 2.74 4.9c-.266.538-.38 1.126-.436 1.82-.054.679-.054 1.52-.054 2.581V14.633c0 1.092 0 1.958.057 2.655.058.714.18 1.317.46 1.869a4.75 4.75 0 0 0 2.077 2.075c.55.281 1.154.403 1.868.461.697.057 1.563.057 2.655.057H14.633c1.092 0 1.958 0 2.655-.057.714-.058 1.317-.18 1.869-.46a4.75 4.75 0 0 0 2.075-2.076c.281-.552.403-1.155.461-1.869.057-.697.057-1.563.057-2.655V9.367c0-1.092 0-1.958-.057-2.655-.058-.714-.18-1.317-.46-1.868a4.75 4.75 0 0 0-2.076-2.076c-.552-.281-1.155-.403-1.869-.461-.169-.014-.348-.024-.538-.032V1a.75.75 0 0 0-1.5 0v1.25H8.75V1zM12 11a2 2 0 1 0 0-4 2 2 0 0 0 0 4zm-4 4.667A2.667 2.667 0 0 1 10.667 13h2.666A2.667 2.667 0 0 1 16 15.667c0 .736-.597 1.333-1.333 1.333H9.333A1.333 1.333 0 0 1 8 15.667z"
        fill="currentColor"
      ></path>
    </g>
  </svg>