<svg viewBox="0 0 24 24" xmlns="http://www.w3.org/2000/svg">
    <g fill="none">
      <path
        fill-rule="evenodd"
        clip-rule="evenodd"
        d="M8 .25a.75.75 0 0 1 .75.75v1.25h6.5V1a.75.75 0 0 1 1.5 0v1.275c.19.008.369.018.538.032.714.058 1.317.18 1.868.46a4.75 4.75 0 0 1 2.076 2.077c.281.55.403 1.154.461 1.868.057.697.057 1.563.057 2.655V14.633c0 1.092 0 1.958-.057 2.655-.058.714-.18 1.317-.46 1.869a4.75 4.75 0 0 1-2.077 2.075c-.55.281-1.154.403-1.868.461-.697.057-1.563.057-2.655.057H9.367c-1.092 0-1.958 0-2.655-.057-.714-.058-1.317-.18-1.868-.46a4.75 4.75 0 0 1-2.076-2.076c-.281-.552-.403-1.155-.461-1.869-.057-.697-.057-1.563-.057-2.655V8.49c0-1.382 0-2.263.246-3A4.75 4.75 0 0 1 5.49 2.496c.489-.163 1.04-.218 1.76-.237V1A.75.75 0 0 1 8 .25zm3.997 15.85c1.64 0 2.82-.878 2.823-2.057-.004-.909-.703-1.651-1.577-1.797v-.05a1.633 1.633 0 0 0 1.307-1.611c-.003-1.126-1.083-1.957-2.553-1.957-1.474 0-2.553.83-2.55 1.957a1.615 1.615 0 0 0 1.307 1.612v.05c-.888.145-1.58.887-1.577 1.796-.003 1.18 1.18 2.056 2.82 2.056zm0-1.13c-.732 0-1.222-.433-1.222-1.047 0-.629.515-1.084 1.222-1.084.703 0 1.222.455 1.222 1.084 0 .617-.494 1.047-1.222 1.047zm0-3.25c-.614 0-1.051-.4-1.051-.976 0-.568.43-.958 1.05-.958.619 0 1.052.394 1.052.958 0 .576-.44.977-1.051.977z"
        fill="currentColor"
      ></path>
    </g>
  </svg>