<svg viewBox="0 0 24 24" xmlns="http://www.w3.org/2000/svg">
    <g fill="none">
      <path
        fill-rule="evenodd"
        clip-rule="evenodd"
        d="M7.776 4.913A14.176 14.176 0 0 1 12 4.25c1.361 0 2.786.214 4.224.663 1.931.604 3.884 1.632 5.737 3.139l.015.012c.147.12.265.215.407.372.375.416.589.954.66 1.48.07.526.007 1.101-.245 1.602-.096.19-.209.348-.35.546l-.023.03-.032.046a5.042 5.042 0 0 1-.46.589 2.75 2.75 0 0 1-3.052.606c-.195-.084-.393-.208-.65-.368l-.047-.03-.738-.461-.074-.046c-.42-.263-.752-.47-1.01-.754a2.753 2.753 0 0 1-.528-.856c-.138-.359-.174-.747-.22-1.242l-.008-.086-.306-3.287A12.531 12.531 0 0 0 12 5.75a12.53 12.53 0 0 0-3.3.455l-.306 3.287-.008.086c-.046.495-.082.883-.22 1.242a2.75 2.75 0 0 1-.528.856c-.258.284-.59.49-1.01.754l-.074.046-.738.46-.047.03a5.05 5.05 0 0 1-.65.369 2.75 2.75 0 0 1-3.052-.606c-.148-.152-.284-.342-.46-.589l-.032-.045-.023-.031c-.141-.199-.254-.357-.35-.546-.252-.5-.316-1.076-.245-1.602.071-.526.285-1.064.66-1.48.142-.157.26-.253.407-.372l.015-.012c1.853-1.507 3.806-2.535 5.737-3.139zM12.75 12a.75.75 0 0 0-1.5 0v6.19l-1.72-1.72a.75.75 0 0 0-1.06 1.06l3 3a.75.75 0 0 0 1.06 0l3-3a.75.75 0 1 0-1.06-1.06l-1.72 1.72V12z"
        fill="currentColor"
      ></path>
    </g>
  </svg>