<svg viewBox="0 0 24 24" xmlns="http://www.w3.org/2000/svg">
    <g fill="none">
      <path
        fill-rule="evenodd"
        clip-rule="evenodd"
        d="M5.462 2.25h.125c.332 0 .59 0 .83.042A2.75 2.75 0 0 1 8.45 3.879c.099.222.161.472.242.795l.014.058.535 2.14.027.107c.15.6.269 1.072.226 1.54a2.75 2.75 0 0 1-.378 1.16c-.24.403-.614.715-1.089 1.112l-.084.07-1.997 1.67a13.897 13.897 0 0 0 5.523 5.523l1.67-1.997.07-.084c.397-.476.708-.849 1.11-1.09a2.75 2.75 0 0 1 1.162-.378c.467-.042.939.076 1.54.227l.106.027 2.14.535.06.014c.321.08.572.143.793.242a2.75 2.75 0 0 1 1.588 2.033c.042.24.042.498.042.83v.125c0 .383 0 .685-.066.983-.242 1.084-1.246 1.994-2.348 2.13-.302.037-.562.012-.885-.02l-.047-.004c-2.64-.258-5.016-.917-7.085-1.957-3.074-1.545-5.445-3.915-6.99-6.99-1.039-2.069-1.698-4.444-1.956-7.084L2.37 5.55c-.032-.323-.058-.583-.02-.885.135-1.103 1.046-2.106 2.13-2.348.297-.067.6-.066.983-.066zm14.068.22a.75.75 0 0 0-1.06 1.06l1.72 1.72H14a.75.75 0 0 0 0 1.5h6.19l-1.72 1.72a.75.75 0 1 0 1.06 1.06l3-3a.75.75 0 0 0 0-1.06l-3-3z"
        fill="currentColor"
      ></path>
    </g>
  </svg>