<svg viewBox="0 0 24 24" xmlns="http://www.w3.org/2000/svg">
    <g fill="none">
      <path
        fill-rule="evenodd"
        clip-rule="evenodd"
        d="M5.527 2.25h-.065c-.383 0-.686 0-.983.066-1.084.242-1.995 1.245-2.13 2.348-.038.302-.012.562.02.885l.004.047c.258 2.64.917 5.015 1.957 7.085 1.544 3.074 3.915 5.444 6.99 6.989 2.068 1.04 4.444 1.7 7.084 1.957l.047.004c.323.032.583.057.885.02 1.102-.136 2.106-1.046 2.348-2.13.066-.298.066-.6.066-.983v-.125c0-.332 0-.59-.042-.83a2.75 2.75 0 0 0-1.588-2.033c-.22-.099-.472-.161-.794-.242l-.058-.014-2.141-.536-.107-.026c-.6-.15-1.072-.27-1.539-.227-.41.038-.807.167-1.161.378-.403.241-.714.614-1.111 1.09l-.07.084-1.67 1.997a13.897 13.897 0 0 1-5.523-5.523l1.997-1.67.084-.07c.476-.397.849-.709 1.09-1.111.21-.354.34-.75.377-1.161.043-.468-.075-.94-.226-1.54l-.027-.106-.535-2.141-.014-.058c-.08-.323-.143-.573-.242-.795a2.75 2.75 0 0 0-2.034-1.587c-.238-.042-.497-.042-.829-.042h-.06zM13.25 7a.75.75 0 0 1 .75-.75c1.027 0 1.934.639 2.548 1.294.343.367.634.78.843 1.186.201.392.359.842.359 1.27a.75.75 0 0 1-1.5 0c0-.09-.044-.293-.193-.584a3.848 3.848 0 0 0-.604-.847c-.497-.53-1.034-.819-1.453-.819a.75.75 0 0 1-.75-.75zM14 3.25a.75.75 0 0 0 0 1.5c2.9 0 5.25 2.35 5.25 5.25a.75.75 0 0 0 1.5 0A6.75 6.75 0 0 0 14 3.25z"
        fill="currentColor"
      ></path>
    </g>
  </svg>