<svg viewBox="0 0 24 24" xmlns="http://www.w3.org/2000/svg">
    <g fill="none">
      <path
        fill-rule="evenodd"
        clip-rule="evenodd"
        d="M12 6.25c-1.361 0-2.786.214-4.224.663-1.931.604-3.884 1.632-5.737 3.139l-.015.012c-.147.12-.265.215-.407.372-.375.416-.589.954-.66 1.48-.07.526-.007 1.101.245 1.602.096.19.209.347.35.546l.023.03.032.046c.176.246.312.437.46.589a2.75 2.75 0 0 0 3.052.606 5.05 5.05 0 0 0 .65-.369l.047-.03.738-.46.074-.046c.42-.263.752-.47 1.01-.754.227-.25.406-.541.528-.856.138-.359.174-.747.22-1.242l.008-.086.306-3.287A12.53 12.53 0 0 1 12 7.75c1.057 0 2.167.146 3.3.455l.306 3.287.008.086c.046.495.082.883.22 1.242.122.315.301.605.528.856.258.284.59.49 1.01.754l.074.046.738.46.047.03c.257.16.455.285.65.369a2.75 2.75 0 0 0 3.052-.606c.148-.152.284-.342.46-.589l.032-.045.023-.031c.141-.198.254-.357.35-.546.252-.5.316-1.076.245-1.602-.071-.526-.285-1.064-.66-1.48-.142-.157-.26-.253-.407-.372l-.015-.012c-1.853-1.507-3.806-2.535-5.737-3.139A14.175 14.175 0 0 0 12 6.25z"
        fill="currentColor"
      ></path>
    </g>
  </svg>