<svg viewBox="0 0 24 24" xmlns="http://www.w3.org/2000/svg">
    <g fill="none">
      <path
        fill-rule="evenodd"
        clip-rule="evenodd"
        d="M11.651 1.25h-.094c-.888 0-1.461 0-2.009.131a4.75 4.75 0 0 0-1.373.569c-.48.294-.885.7-1.514 1.328l-.066.066-.86.86a.156.156 0 0 1-.11.046A4.375 4.375 0 0 0 1.25 8.625v6.008c0 1.092 0 1.958.057 2.655.058.714.18 1.317.46 1.869a4.75 4.75 0 0 0 2.077 2.075c.55.281 1.154.403 1.868.461.697.057 1.563.057 2.655.057H15.633c1.092 0 1.958 0 2.655-.057.714-.058 1.317-.18 1.869-.46a4.75 4.75 0 0 0 2.075-2.076c.281-.552.403-1.155.461-1.869.057-.697.057-1.563.057-2.655V8.625a4.375 4.375 0 0 0-4.375-4.375.156.156 0 0 1-.11-.046l-.86-.86-.066-.066c-.629-.629-1.034-1.034-1.514-1.328a4.75 4.75 0 0 0-1.373-.569c-.548-.131-1.12-.131-2.01-.131H11.652zM16 12a4 4 0 1 1-8 0 4 4 0 0 1 8 0z"
        fill="currentColor"
      ></path>
    </g>
  </svg>