<svg viewBox="0 0 24 24" xmlns="http://www.w3.org/2000/svg">
    <g fill="none">
      <path
        fill-rule="evenodd"
        clip-rule="evenodd"
        d="M1.47 1.47a.75.75 0 0 1 1.06 0l2.097 2.097L1.469 1.47zm3.159 2.099l-.002-.002 1.018.676-1.016-.674zm0 0l.681.681h.027a6.334 6.334 0 0 0 .307-.007h.001a.25.25 0 0 0 .071-.03c-.003.003.005-.001.04-.033A6.32 6.32 0 0 0 5.938 4l.657-.657.066-.066C7.29 2.65 7.695 2.244 8.175 1.95a4.75 4.75 0 0 1 1.373-.569c.548-.131 1.12-.131 2.01-.13H12.442c.888-.001 1.461-.001 2.009.13a4.75 4.75 0 0 1 1.373.569c.48.294.885.7 1.514 1.328l.066.066.86.86c.03.03.069.046.11.046a4.375 4.375 0 0 1 4.375 4.375V20c0 .468-.184.893-.483 1.207l.263.263a.75.75 0 1 1-1.06 1.06l-1-1-6-6-2-2-8-8-3-3a.75.75 0 0 1 0-1.06l3.159 2.099zm10.68 10.68a4 4 0 0 0-5.557-5.557l3.778 3.778 1.779 1.778zM2 5.25a.75.75 0 0 1 .75.75v8.6c0 1.133 0 1.937.052 2.566.05.62.147 1.005.302 1.31a3.25 3.25 0 0 0 1.42 1.42c.305.155.69.251 1.31.302.63.052 1.434.052 2.566.052H17a.75.75 0 1 1 0 1.5H8.367c-1.092 0-1.958 0-2.655-.057-.714-.058-1.317-.18-1.868-.46a4.75 4.75 0 0 1-2.076-2.076c-.281-.552-.403-1.155-.461-1.869-.057-.697-.057-1.563-.057-2.655V6A.75.75 0 0 1 2 5.25zm6 6a.75.75 0 0 1 .75.75A3.25 3.25 0 0 0 12 15.25a.75.75 0 1 1 0 1.5A4.75 4.75 0 0 1 7.25 12a.75.75 0 0 1 .75-.75z"
        fill="currentColor"
      ></path>
    </g>
  </svg>