<svg viewBox="0 0 24 24" xmlns="http://www.w3.org/2000/svg">
    <g fill="none">
      <path
        fill-rule="evenodd"
        clip-rule="evenodd"
        d="M17.232 3.25h.018c0 .972.006 1.614.153 2.165a4.5 4.5 0 0 0 3.182 3.182c.55.147 1.193.153 2.165.153v4.5c-.972 0-1.614.006-2.165.153a4.5 4.5 0 0 0-3.182 3.182c-.147.55-.153 1.193-.153 2.165H6.75c0-.972-.006-1.614-.153-2.165a4.5 4.5 0 0 0-3.182-3.182c-.55-.147-1.193-.153-2.165-.153v-4.5c.972 0 1.614-.006 2.165-.153a4.5 4.5 0 0 0 3.182-3.182c.147-.55.153-1.193.153-2.165H17.232zm5.475 3.519c.012.15.02.31.027.48-1.015 0-1.43-.013-1.76-.101a3 3 0 0 1-2.122-2.122c-.088-.33-.1-.745-.102-1.76.171.006.331.015.482.027.546.045 1.026.14 1.47.366a3.75 3.75 0 0 1 1.64 1.639c.226.444.32.924.365 1.47zM5.25 3.266c-.171.006-.331.015-.481.027-.547.045-1.027.14-1.471.366a3.75 3.75 0 0 0-1.64 1.639c-.226.444-.32.924-.365 1.47-.012.15-.02.31-.027.482 1.015-.002 1.43-.014 1.76-.102a3 3 0 0 0 2.122-2.122c.088-.33.1-.745.102-1.76zM1.293 15.232c-.012-.15-.02-.31-.027-.482 1.015.002 1.43.014 1.76.102a3 3 0 0 1 2.122 2.122c.088.33.1.745.102 1.76a10.8 10.8 0 0 1-.481-.027c-.547-.045-1.027-.14-1.471-.366a3.75 3.75 0 0 1-1.64-1.639c-.226-.444-.32-.924-.365-1.47zm21.441-.482c-1.015.002-1.43.014-1.76.102a3 3 0 0 0-2.122 2.122c-.088.33-.1.745-.102 1.76a10.8 10.8 0 0 0 .482-.027c.546-.045 1.026-.14 1.47-.366a3.75 3.75 0 0 0 1.64-1.639c.226-.444.32-.924.365-1.47.012-.15.02-.31.027-.482zM4.25 21a.75.75 0 0 1 .75-.75h14a.75.75 0 0 1 0 1.5H5a.75.75 0 0 1-.75-.75zm6.866-10.884a1.25 1.25 0 1 1 1.768 1.768 1.25 1.25 0 0 1-1.768-1.768zm2.828-1.06a2.75 2.75 0 1 0-3.889 3.889 2.75 2.75 0 0 0 3.89-3.89z"
        fill="currentColor"
      ></path>
    </g>
  </svg>