<svg viewBox="0 0 24 24" xmlns="http://www.w3.org/2000/svg">
    <g fill="none">
      <path
        fill-rule="evenodd"
        clip-rule="evenodd"
        d="M12 2.25c-5.385 0-9.75 4.365-9.75 9.75s4.365 9.75 9.75 9.75 9.75-4.365 9.75-9.75S17.385 2.25 12 2.25zm0 3a.75.75 0 0 0 0 1.5c2.9 0 5.25 2.35 5.25 5.25a.75.75 0 0 0 1.5 0A6.75 6.75 0 0 0 12 5.25zm0 5.5a1.25 1.25 0 1 0 0 2.5 1.25 1.25 0 0 0 0-2.5zM9.25 12a2.75 2.75 0 1 1 5.5 0 2.75 2.75 0 0 1-5.5 0z"
        fill="currentColor"
      ></path>
    </g>
  </svg>