<svg viewBox="0 0 24 24" xmlns="http://www.w3.org/2000/svg">
    <g fill="none">
      <path
        fill-rule="evenodd"
        clip-rule="evenodd"
        d="M9.4 2.25h-.033c-1.092 0-1.958 0-2.655.057-.714.058-1.317.18-1.869.46a4.75 4.75 0 0 0-2.075 2.077c-.281.55-.403 1.154-.461 1.868-.057.697-.057 1.563-.057 2.655V14.633c0 1.092 0 1.958.057 2.655.058.714.18 1.317.46 1.869a4.75 4.75 0 0 0 2.076 2.075c.552.281 1.155.403 1.869.461.697.057 1.563.057 2.655.057H14.633c1.092 0 1.957 0 2.655-.057.713-.058 1.317-.18 1.868-.46a4.75 4.75 0 0 0 2.076-2.076c.281-.552.403-1.155.46-1.869.058-.697.058-1.563.058-2.655V9.367c0-1.092 0-1.958-.057-2.655-.058-.714-.18-1.317-.46-1.868a4.75 4.75 0 0 0-2.077-2.076c-.55-.281-1.154-.403-1.868-.461-.698-.057-1.563-.057-2.655-.057H9.4zm8.13 6.22a.75.75 0 0 1 0 1.06l-4 4a.75.75 0 0 1-1.06 0L11 12.06l-3.47 3.47a.75.75 0 0 1-1.06-1.06l4-4a.75.75 0 0 1 1.06 0L13 11.94l3.47-3.47a.75.75 0 0 1 1.06 0z"
        fill="currentColor"
      ></path>
    </g>
  </svg>