<svg viewBox="0 0 24 24" xmlns="http://www.w3.org/2000/svg">
    <g fill="none">
      <path
        fill-rule="evenodd"
        clip-rule="evenodd"
        d="M11.25 3a.75.75 0 0 1 .75-.75c5.385 0 9.75 4.365 9.75 9.75a.75.75 0 0 1-.75.75h-9a.75.75 0 0 1-.75-.75V3zM9.282 4.208a.75.75 0 0 0-.495-1.416A9.75 9.75 0 0 0 2.25 12c0 5.385 4.365 9.75 9.75 9.75a9.754 9.754 0 0 0 9.195-6.5.75.75 0 1 0-1.414-.5A8.254 8.254 0 0 1 12 20.25 8.25 8.25 0 0 1 9.282 4.208z"
        fill="currentColor"
      ></path>
    </g>
  </svg>