<svg viewBox="0 0 24 24" xmlns="http://www.w3.org/2000/svg">
    <g fill="none">
      <path
        fill-rule="evenodd"
        clip-rule="evenodd"
        d="M3.436 5.184C3 6.04 3 7.16 3 9.4v5.2c0 2.24 0 3.36.436 4.216a4 4 0 0 0 1.748 1.748C6.04 21 7.16 21 9.4 21h5.2c2.24 0 3.36 0 4.216-.436a4 4 0 0 0 1.748-1.748C21 17.96 21 16.84 21 14.6V9.4c0-1.476 0-2.466-.125-3.215L22.53 4.53a.75.75 0 0 0-1.06-1.06l-1.211 1.21a4 4 0 0 0-1.443-1.244C17.96 3 16.84 3 14.6 3H9.4c-2.24 0-3.36 0-4.216.436a4 4 0 0 0-1.748 1.748zm16.823-.503L12 12.939l-2.47-2.47a.75.75 0 0 0-1.06 1.061l3 3a.75.75 0 0 0 1.06 0l8.345-8.345a3.387 3.387 0 0 0-.616-1.504z"
        fill="currentColor"
      ></path>
    </g>
  </svg>