<svg viewBox="0 0 24 24" xmlns="http://www.w3.org/2000/svg">
    <g fill="none">
      <path
        fill-rule="evenodd"
        clip-rule="evenodd"
        d="M16.97 2.378c-.367-.099-.78-.121-1.323-.127A2.751 2.751 0 0 0 13 .25h-2c-1.26 0-2.321.846-2.647 2.001-.542.006-.956.028-1.324.127a3.75 3.75 0 0 0-2.651 2.651c-.129.48-.128 1.037-.128 1.855V16.232c0 .813 0 1.469.043 2 .045.546.14 1.026.366 1.47a3.75 3.75 0 0 0 1.638 1.64c.445.226.925.32 1.471.365.531.043 1.187.043 2 .043h4.464c.813 0 1.469 0 2-.043.546-.045 1.026-.14 1.47-.366a3.75 3.75 0 0 0 1.64-1.639c.226-.444.32-.924.365-1.47.043-.531.043-1.187.043-2V6.884c0-.818 0-1.376-.128-1.855a3.75 3.75 0 0 0-2.651-2.651zM11 1.75a1.25 1.25 0 0 0 0 2.5h2a1.25 1.25 0 1 0 0-2.5h-2zm1 7a.75.75 0 0 1 .75.75v1.75h1.75a.75.75 0 0 1 0 1.5h-1.75v1.75a.75.75 0 0 1-1.5 0v-1.75H9.5a.75.75 0 0 1 0-1.5h1.75V9.5a.75.75 0 0 1 .75-.75z"
        fill="currentColor"
      ></path>
    </g>
  </svg>