<svg viewBox="0 0 24 24" xmlns="http://www.w3.org/2000/svg">
    <g fill="none">
      <path
        fill-rule="evenodd"
        clip-rule="evenodd"
        d="M15.647 2.251c.542.006.956.028 1.324.127a3.75 3.75 0 0 1 2.651 2.651c.128.48.128 1.037.128 1.855V16.232c0 .813 0 1.469-.043 2-.045.546-.14 1.026-.366 1.47a3.75 3.75 0 0 1-1.639 1.64c-.444.226-.924.32-1.47.365-.531.043-1.187.043-2 .043H9.768c-.813 0-1.469 0-2-.043-.546-.045-1.026-.14-1.47-.366a3.75 3.75 0 0 1-1.64-1.639c-.226-.444-.32-.924-.365-1.47-.043-.531-.043-1.187-.043-2V6.884c0-.818 0-1.376.128-1.855a3.75 3.75 0 0 1 2.651-2.651c.368-.099.782-.121 1.324-.127A2.751 2.751 0 0 1 11 .25h2c1.26 0 2.32.846 2.647 2.001zM9.75 3c0-.69.56-1.25 1.25-1.25h2a1.25 1.25 0 1 1 0 2.5h-2c-.69 0-1.25-.56-1.25-1.25z"
        fill="currentColor"
      ></path>
    </g>
  </svg>