<svg viewBox="0 0 24 24" xmlns="http://www.w3.org/2000/svg">
    <g fill="none">
      <path
        fill-rule="evenodd"
        clip-rule="evenodd"
        d="M8.353 3.75H7a.75.75 0 0 1 0-1.5h1.353A2.751 2.751 0 0 1 11 .25h2c1.26 0 2.32.846 2.647 2.001.542.006.956.028 1.324.127a3.75 3.75 0 0 1 2.651 2.651c.128.48.128 1.037.128 1.855V15a.75.75 0 1 1-1.5 0V7c0-.978-.006-1.32-.077-1.582a2.25 2.25 0 0 0-1.59-1.591c-.194-.052-.432-.07-.937-.075A2.751 2.751 0 0 1 13 5.75h-2a2.751 2.751 0 0 1-2.647-2zM9.75 3c0 .69.56 1.25 1.25 1.25h2a1.25 1.25 0 1 0 0-2.5h-2c-.69 0-1.25.56-1.25 1.25zM1.47 1.47a.75.75 0 0 1 1.06 0l3 3 14 14 3 3a.75.75 0 1 1-1.06 1.06l-2.113-2.112A2.749 2.749 0 0 1 17 21.75H9.768c-.813 0-1.469 0-2-.043-.546-.045-1.026-.14-1.47-.366a3.75 3.75 0 0 1-1.64-1.639c-.226-.444-.32-.924-.365-1.47-.043-.531-.043-1.187-.043-2V5.31L1.47 2.53a.75.75 0 0 1 0-1.06z"
        fill="currentColor"
      ></path>
    </g>
  </svg>