<svg viewBox="0 0 24 24" xmlns="http://www.w3.org/2000/svg">
    <g fill="none">
      <path
        fill-rule="evenodd"
        clip-rule="evenodd"
        d="M5.53 1.47a.75.75 0 0 1 0 1.06l-3 3a.75.75 0 0 1-1.06-1.06l3-3a.75.75 0 0 1 1.06 0zm6.47.78c-5.385 0-9.75 4.365-9.75 9.75s4.365 9.75 9.75 9.75 9.75-4.365 9.75-9.75S17.385 2.25 12 2.25zm0 5a.75.75 0 0 1 .75.75v3.599l2.666 1.777a.75.75 0 1 1-.832 1.248l-3-2A.75.75 0 0 1 11.25 12V8a.75.75 0 0 1 .75-.75zm6.47-4.72a.75.75 0 0 1 1.06-1.06l3 3a.75.75 0 0 1-1.06 1.06l-3-3z"
        fill="currentColor"
      ></path>
    </g>
  </svg>