<svg viewBox="0 0 24 24" xmlns="http://www.w3.org/2000/svg">
    <g fill="none">
      <path
        fill-rule="evenodd"
        clip-rule="evenodd"
        d="M18.47 2.53a.75.75 0 0 1 1.06-1.06l3 3a.75.75 0 0 1-1.06 1.06l-3-3zM3 2.25a.75.75 0 0 1 .53.22l2.636 2.636 12.728 12.728 2.636 2.636a.75.75 0 1 1-1.06 1.06l-2.126-2.126A9.714 9.714 0 0 1 12 21.75c-5.385 0-9.75-4.365-9.75-9.75 0-2.422.884-4.639 2.346-6.344L3 4.061l-.97.97A.75.75 0 0 1 .97 3.97l1.5-1.5A.75.75 0 0 1 3 2.25zm9 1.5a8.213 8.213 0 0 0-3.666.857.75.75 0 0 1-.668-1.343A9.713 9.713 0 0 1 12 2.25c5.385 0 9.75 4.365 9.75 9.75a9.713 9.713 0 0 1-1.014 4.334.75.75 0 1 1-1.343-.668A8.25 8.25 0 0 0 12 3.75z"
        fill="currentColor"
      ></path>
    </g>
  </svg>