<svg viewBox="0 0 24 24" xmlns="http://www.w3.org/2000/svg">
    <g fill="none">
      <path
        fill-rule="evenodd"
        clip-rule="evenodd"
        d="M5.53 2.53a.75.75 0 0 0-1.06-1.06l-3 3a.75.75 0 0 0 1.06 1.06l3-3zM12 2.25c-5.385 0-9.75 4.365-9.75 9.75s4.365 9.75 9.75 9.75 9.75-4.365 9.75-9.75S17.385 2.25 12 2.25zm6.47-.78a.75.75 0 0 0 0 1.06l3 3a.75.75 0 1 0 1.06-1.06l-3-3a.75.75 0 0 0-1.06 0zm-1.94 7a.75.75 0 0 1 0 1.06l-5 5a.75.75 0 0 1-1.06 0l-2-2a.75.75 0 1 1 1.06-1.06L11 12.94l4.47-4.47a.75.75 0 0 1 1.06 0z"
        fill="currentColor"
      ></path>
    </g>
  </svg>