<svg viewBox="0 0 24 24" xmlns="http://www.w3.org/2000/svg">
    <g fill="none">
      <path
        fill-rule="evenodd"
        clip-rule="evenodd"
        d="M12 3.25a7.75 7.75 0 0 0-7.739 7.329A4.751 4.751 0 0 0 6 19.75h11a5.75 5.75 0 0 0 2.43-10.963A7.753 7.753 0 0 0 12 3.25zm-2.53 7.22a.75.75 0 0 1 1.06 0L12 11.94l1.47-1.47a.75.75 0 1 1 1.06 1.06L13.06 13l1.47 1.47a.75.75 0 1 1-1.06 1.06L12 14.06l-1.47 1.47a.75.75 0 1 1-1.06-1.06L10.94 13l-1.47-1.47a.75.75 0 0 1 0-1.06z"
        fill="currentColor"
      ></path>
    </g>
  </svg>