<svg viewBox="0 0 24 24" xmlns="http://www.w3.org/2000/svg">
    <g fill="none">
      <path
        fill-rule="evenodd"
        clip-rule="evenodd"
        d="M7.2 2.25h-.03c-.535 0-.98 0-1.345.03-.38.03-.736.098-1.073.27A2.75 2.75 0 0 0 3.55 3.752c-.172.337-.24.693-.27 1.073-.03.365-.03.81-.03 1.345V10.633c0 1.092 0 1.958.057 2.655.058.714.18 1.317.46 1.868a4.75 4.75 0 0 0 2.077 2.076c.55.281 1.154.403 1.868.461.697.057 1.563.057 2.655.057H11.633c1.092 0 1.958 0 2.655-.057.714-.058 1.317-.18 1.869-.46a4.75 4.75 0 0 0 2.075-2.077c.281-.55.403-1.154.461-1.868.014-.169.024-.348.032-.538.32 0 .58-.007.811-.053a2.75 2.75 0 0 0 2.161-2.16c.053-.268.053-.571.053-.964v-.146c0-.393 0-.696-.053-.963a2.75 2.75 0 0 0-2.16-2.161c-.226-.045-.478-.052-.787-.053v-.08c0-.535 0-.98-.03-1.345-.03-.38-.098-.736-.27-1.073A2.75 2.75 0 0 0 17.25 2.55c-.338-.172-.694-.24-1.074-.27-.365-.03-.81-.03-1.345-.03H7.2zm11.55 5.5v3.5c.303-.002.411-.008.494-.024a1.25 1.25 0 0 0 .982-.982c.02-.103.024-.243.024-.744 0-.5-.004-.641-.024-.744a1.25 1.25 0 0 0-.982-.982c-.083-.016-.19-.022-.494-.024zM2.25 21a.75.75 0 0 1 .75-.75h18a.75.75 0 0 1 0 1.5H3a.75.75 0 0 1-.75-.75z"
        fill="currentColor"
      ></path>
    </g>
  </svg>