<svg viewBox="0 0 24 24" xmlns="http://www.w3.org/2000/svg">
    <g fill="none">
      <path
        fill-rule="evenodd"
        clip-rule="evenodd"
        d="M12 2.25c-5.385 0-9.75 4.365-9.75 9.75 0 1.206.291 2.386.645 3.38.265.746.457 1.287.587 1.694.135.423.18.634.187.742.014.222.012.33 0 .42a2.24 2.24 0 0 1-.103.406c-.037.117-.11.274-.27.538-.161.265-.382.597-.695 1.067l-.225.337A.75.75 0 0 0 3 21.75h9c5.385 0 9.75-4.365 9.75-9.75S17.385 2.25 12 2.25zM12 17a1 1 0 1 0 0-2 1 1 0 0 0 0 2zm0-8.25c-.69 0-1.25.56-1.25 1.25v.5a.75.75 0 0 1-1.5 0V10a2.75 2.75 0 1 1 5.5 0v.121c0 .762-.303 1.492-.841 2.03l-1.379 1.38a.75.75 0 1 1-1.06-1.061l1.378-1.379c.257-.257.402-.606.402-.97V10c0-.69-.56-1.25-1.25-1.25z"
        fill="currentColor"
      ></path>
    </g>
  </svg>