<svg viewBox="0 0 24 24" xmlns="http://www.w3.org/2000/svg">
    <g fill="none">
      <path
        fill-rule="evenodd"
        clip-rule="evenodd"
        d="M12 2.25c-5.385 0-9.75 4.365-9.75 9.75 0 1.206.291 2.386.645 3.38.265.746.457 1.287.587 1.694.135.423.18.634.187.742.014.222.012.33 0 .42a2.24 2.24 0 0 1-.103.406c-.037.117-.11.274-.27.538-.161.265-.382.597-.695 1.067l-.225.337A.75.75 0 0 0 3 21.75h9c5.385 0 9.75-4.365 9.75-9.75S17.385 2.25 12 2.25zM8.97 8.97a.75.75 0 0 1 1.06 0L12 10.94l1.97-1.97a.75.75 0 1 1 1.06 1.06L13.06 12l1.97 1.97a.75.75 0 1 1-1.06 1.06L12 13.06l-1.97 1.97a.75.75 0 1 1-1.06-1.06L10.94 12l-1.97-1.97a.75.75 0 0 1 0-1.06z"
        fill="currentColor"
      ></path>
    </g>
  </svg>