<svg viewBox="0 0 24 24" xmlns="http://www.w3.org/2000/svg">
    <g fill="none">
      <path
        fill-rule="evenodd"
        clip-rule="evenodd"
        d="M6.8 3.25h-.032c-.813 0-1.469 0-2 .043-.546.045-1.026.14-1.47.366a3.75 3.75 0 0 0-1.64 1.639c-.226.444-.32.924-.365 1.47-.043.531-.043 1.187-.043 2V18a.75.75 0 0 0 1.166.624l1.79-1.194c.472-.314.634-.419.802-.492.162-.07.332-.122.505-.153.181-.032.374-.035.94-.035H7a.75.75 0 0 0 0-1.5h-.609c-.48 0-.813 0-1.14.058-.29.052-.573.137-.843.255-.305.133-.582.318-.981.585l-.052.034-.625.417V8.8c0-.852 0-1.447.038-1.91.037-.453.107-.714.207-.911a2.25 2.25 0 0 1 .984-.984c.197-.1.458-.17.912-.207.462-.037 1.057-.038 1.909-.038h6.4c.853 0 1.447 0 1.91.038.453.037.714.107.912.207.423.216.767.56.983.984.1.197.17.458.207.912.029.356.036.79.038 1.359h-4.08c-.535 0-.98 0-1.345.03-.38.03-.736.098-1.073.27A2.75 2.75 0 0 0 9.55 9.752c-.172.337-.24.693-.27 1.073-.03.365-.03.81-.03 1.345V14.83c0 .535 0 .98.03 1.345.03.38.098.736.27 1.073a2.75 2.75 0 0 0 1.201 1.202c.338.172.694.24 1.074.27.365.03.81.03 1.345.03H18.773l2.811 1.874A.75.75 0 0 0 22.75 20v-7.83c0-.535 0-.98-.03-1.345-.03-.38-.098-.736-.27-1.073A2.75 2.75 0 0 0 21.25 8.55c-.338-.172-.694-.24-1.074-.27-.365-.03-.81-.03-1.345-.03h-.08c-.002-.58-.01-1.068-.043-1.481-.045-.547-.14-1.027-.366-1.471a3.75 3.75 0 0 0-1.639-1.64c-.444-.226-.924-.32-1.47-.365-.531-.043-1.187-.043-2-.043H6.8z"
        fill="currentColor"
      ></path>
    </g>
  </svg>