<svg viewBox="0 0 24 24" xmlns="http://www.w3.org/2000/svg">
    <g fill="none">
      <path
        fill-rule="evenodd"
        clip-rule="evenodd"
        d="M2.75 11a7.25 7.25 0 0 1 13.976-2.711A6.75 6.75 0 1 0 16 21.75h6a.75.75 0 0 0 .6-1.2l-.06-.08a22.21 22.21 0 0 1-.544-.743 1.589 1.589 0 0 1-.188-.325 1.289 1.289 0 0 1-.071-.24 1.29 1.29 0 0 1 0-.25c.002-.038.025-.166.132-.488.101-.304.25-.71.46-1.276.234-.635.421-1.378.421-2.148a6.753 6.753 0 0 0-4.304-6.293A8.75 8.75 0 0 0 1.25 11c0 .944.198 1.867.456 2.674.251.783.434 1.355.557 1.782.129.445.17.66.173.762.01.23.006.326-.005.405-.01.08-.034.173-.106.391-.087.263-.31.61-.943 1.562A.75.75 0 0 0 2 19.75h6a.75.75 0 0 0 0-1.5H3.38a3.97 3.97 0 0 0 .37-.766 3.67 3.67 0 0 0 .167-.653c.03-.22.028-.43.018-.674-.012-.304-.105-.681-.23-1.116-.13-.451-.32-1.044-.566-1.812l-.004-.013c-.228-.71-.385-1.474-.385-2.216z"
        fill="currentColor"
      ></path>
    </g>
  </svg>