<svg viewBox="0 0 24 24" xmlns="http://www.w3.org/2000/svg">
    <g fill="none">
      <path
        fill-rule="evenodd"
        clip-rule="evenodd"
        d="M3.53 1.47a.75.75 0 0 0-1.06 1.06l2.605 2.606A9.721 9.721 0 0 0 2.25 12c0 1.206.291 2.386.645 3.38.265.746.457 1.287.587 1.694.135.423.18.634.187.742.014.222.012.33 0 .42a2.24 2.24 0 0 1-.103.406c-.037.117-.11.274-.27.538-.161.265-.382.597-.695 1.067l-.225.337A.75.75 0 0 0 3 21.75h9a9.722 9.722 0 0 0 6.864-2.825l2.606 2.605a.75.75 0 1 0 1.06-1.06l-19-19zM12 3.75a8.279 8.279 0 0 0-2.718.458.75.75 0 0 1-.495-1.416A9.683 9.683 0 0 1 12 2.25c5.385 0 9.75 4.365 9.75 9.75a9.752 9.752 0 0 1-.555 3.25.75.75 0 1 1-1.414-.5A8.249 8.249 0 0 0 20.25 12 8.25 8.25 0 0 0 12 3.75z"
        fill="currentColor"
      ></path>
    </g>
  </svg>