<svg viewBox="0 0 24 24" xmlns="http://www.w3.org/2000/svg">
    <g fill="none">
      <path
        fill-rule="evenodd"
        clip-rule="evenodd"
        d="M21.47 1.47a.75.75 0 1 1 1.06 1.06l-19 19a.75.75 0 0 1-1.06-1.06l2.03-2.032A3.751 3.751 0 0 1 2.25 15V8.768c0-.813 0-1.469.043-2 .045-.546.14-1.026.366-1.47a3.75 3.75 0 0 1 1.639-1.64c.444-.226.924-.32 1.47-.365.531-.043 1.187-.043 2-.043H19.69l1.78-1.78zM21 6.25a.75.75 0 0 1 .75.75v13a.75.75 0 0 1-1.085.67l-2.65-1.324c-.521-.26-.72-.358-.923-.426a3.255 3.255 0 0 0-.586-.139c-.212-.03-.433-.031-1.017-.031H10a.75.75 0 0 1 0-1.5h5.542c.513 0 .844 0 1.172.046.291.04.578.108.856.202.315.106.61.254 1.07.483l.047.024 1.563.782V7a.75.75 0 0 1 .75-.75z"
        fill="currentColor"
      ></path>
    </g>
  </svg>