<svg viewBox="0 0 24 24" xmlns="http://www.w3.org/2000/svg">
    <g fill="none">
      <path
        fill-rule="evenodd"
        clip-rule="evenodd"
        d="M12 2.25c-5.385 0-9.75 4.365-9.75 9.75s4.365 9.75 9.75 9.75 9.75-4.365 9.75-9.75S17.385 2.25 12 2.25zm-2.506 9.268c.186-.557.278-.835.436-1.066a2 2 0 0 1 .522-.522c.231-.158.51-.25 1.066-.436l2.964-.988c.489-.163.733-.244.895-.186a.5.5 0 0 1 .303.303c.058.162-.023.406-.186.895l-.988 2.964c-.186.557-.278.835-.436 1.066a2 2 0 0 1-.522.522c-.231.158-.51.25-1.066.436l-2.964.988c-.489.163-.733.244-.895.186a.5.5 0 0 1-.303-.303c-.058-.162.023-.406.186-.895l.988-2.964z"
        fill="currentColor"
      ></path>
    </g>
  </svg>