<svg viewBox="0 0 24 24" xmlns="http://www.w3.org/2000/svg">
    <g fill="none">
      <path
        fill-rule="evenodd"
        clip-rule="evenodd"
        d="M2.327 3.638C2 4.28 2 5.12 2 6.8v4.4c0 1.68 0 2.52.327 3.162a3 3 0 0 0 1.311 1.311C4.28 16 5.12 16 6.8 16h.469a.752.752 0 0 0-.019.167v1.065c0 .813 0 1.469.043 2 .045.546.14 1.026.366 1.47a3.75 3.75 0 0 0 1.639 1.64c.444.226.924.32 1.47.365.531.043 1.187.043 2 .043h4.464c.813 0 1.469 0 2-.043.546-.045 1.026-.14 1.47-.366a3.75 3.75 0 0 0 1.64-1.639c.226-.444.32-.924.365-1.47.043-.531.043-1.187.043-2v-4.464c0-.813 0-1.469-.043-2-.045-.546-.14-1.026-.366-1.47a3.75 3.75 0 0 0-1.639-1.64c-.444-.226-.924-.32-1.47-.365-.531-.043-1.187-.043-2-.043h-1.065a.752.752 0 0 0-.167.019V6.8c0-1.68 0-2.52-.327-3.162a3 3 0 0 0-1.311-1.311C13.72 2 12.88 2 11.2 2H6.8c-1.68 0-2.52 0-3.162.327a3 3 0 0 0-1.311 1.311zM16 8.731V11.2c0 1.68 0 2.52-.327 3.162a3 3 0 0 1-1.311 1.311C13.72 16 12.88 16 11.2 16H8.731c.013.054.02.11.02.167V17.2c0 .852 0 1.447.037 1.91.038.453.107.714.207.912.216.423.56.767.984.983.197.1.458.17.912.207.462.037 1.057.038 1.91.038h4.4c.851 0 1.446 0 1.908-.038.454-.038.715-.107.912-.207a2.25 2.25 0 0 0 .984-.983c.1-.198.17-.459.207-.913.038-.462.038-1.057.038-1.909v-4.4c0-.853 0-1.447-.038-1.91-.037-.453-.107-.714-.207-.911a2.25 2.25 0 0 0-.983-.984c-.198-.1-.459-.17-.913-.207-.462-.037-1.057-.038-1.909-.038h-1.033A.752.752 0 0 1 16 8.731z"
        fill="currentColor"
      ></path>
    </g>
  </svg>