<svg viewBox="0 0 24 24" xmlns="http://www.w3.org/2000/svg">
    <g fill="none">
      <path
        fill-rule="evenodd"
        clip-rule="evenodd"
        d="M7.768 4.25h8.464c.813 0 1.469 0 2 .043.546.045 1.026.14 1.47.366a3.75 3.75 0 0 1 1.64 1.639c.226.444.32.924.365 1.47a16.43 16.43 0 0 1 .042 1.277l.001.72V14.233c0 .813 0 1.469-.043 2-.045.546-.14 1.026-.366 1.47a3.75 3.75 0 0 1-1.639 1.64c-.444.226-.924.32-1.47.365-.531.043-1.187.043-2 .043H12a.75.75 0 0 1 0-1.5h4.2c.852 0 1.447 0 1.91-.038.453-.038.714-.107.912-.207.423-.216.767-.56.983-.983.1-.198.17-.459.207-.913.037-.462.038-1.057.038-1.909V9.75H3.75v3.75a.75.75 0 0 1-1.5 0V9.768l.001-.723a.758.758 0 0 1 .001-.101c.004-.448.014-.837.041-1.175.045-.547.14-1.027.366-1.471a3.75 3.75 0 0 1 1.639-1.64c.444-.226.924-.32 1.47-.365.531-.043 1.187-.043 2-.043zM6.53 16.47a.75.75 0 0 0-1.06 1.06l.72.72H2a.75.75 0 0 0 0 1.5h4.19l-.72.72a.75.75 0 1 0 1.06 1.06l2-2a.75.75 0 0 0 0-1.06l-2-2zM7 12.25a.75.75 0 0 0 0 1.5h3a.75.75 0 0 0 0-1.5H7z"
        fill="currentColor"
      ></path>
    </g>
  </svg>