<svg viewBox="0 0 24 24" xmlns="http://www.w3.org/2000/svg">
    <g fill="none">
      <path
        fill-rule="evenodd"
        clip-rule="evenodd"
        d="M6.768 3.25h10.464c.813 0 1.469 0 2 .043.546.045 1.026.14 1.47.366a3.75 3.75 0 0 1 1.64 1.639c.226.444.32.924.365 1.47a16.55 16.55 0 0 1 .042 1.277v7.187c0 .813.001 1.469-.042 2-.045.546-.14 1.026-.366 1.47a3.75 3.75 0 0 1-1.639 1.64c-.444.226-.924.32-1.47.365-.531.043-1.187.043-2 .043H6.768c-.813 0-1.469 0-2-.043-.546-.045-1.026-.14-1.47-.366a3.75 3.75 0 0 1-1.64-1.639c-.226-.444-.32-.924-.365-1.47-.043-.531-.043-1.187-.043-2V8.768l.001-.723a.758.758 0 0 1 .001-.101c.004-.448.014-.837.041-1.175.045-.547.14-1.027.366-1.471a3.75 3.75 0 0 1 1.638-1.64c.445-.226.925-.32 1.471-.365.531-.043 1.187-.043 2-.043zm14.444 3.64c.009.112.016.231.02.36H2.768c.005-.129.012-.248.021-.36.037-.453.107-.714.207-.911a2.25 2.25 0 0 1 .983-.984c.198-.1.459-.17.913-.207.462-.037 1.056-.038 1.909-.038h10.4c.852 0 1.447 0 1.91.038.453.037.714.107.911.207.424.216.768.56.984.984.1.197.17.458.207.912zM5.25 12a.75.75 0 0 1 .75-.75h4a.75.75 0 1 1 0 1.5H6a.75.75 0 0 1-.75-.75z"
        fill="currentColor"
      ></path>
    </g>
  </svg>