<svg viewBox="0 0 24 24" xmlns="http://www.w3.org/2000/svg">
    <g fill="none">
      <path
        fill-rule="evenodd"
        clip-rule="evenodd"
        d="M6.768 4.25h8.464c.813 0 1.469 0 2 .043.546.045 1.026.14 1.47.366a3.75 3.75 0 0 1 1.64 1.639c.226.444.32.924.365 1.47a16.431 16.431 0 0 1 .042 1.277l.001.72V13a.75.75 0 0 1-1.5 0V9.75H2.75v4.45c0 .853 0 1.447.038 1.91.037.453.107.714.207.912.216.423.56.767.984.983.197.1.458.17.912.207.462.037 1.057.038 1.909.038H14a.75.75 0 0 1 0 1.5H6.768c-.813 0-1.469 0-2-.043-.546-.045-1.026-.14-1.47-.366a3.75 3.75 0 0 1-1.64-1.639c-.226-.444-.32-.924-.365-1.47-.043-.531-.043-1.187-.043-2V9.768l.001-.723a.758.758 0 0 1 .001-.101c.004-.448.014-.837.041-1.175.045-.547.14-1.027.366-1.471a3.75 3.75 0 0 1 1.639-1.64c.444-.226.924-.32 1.47-.365.531-.043 1.187-.043 2-.043zM20.75 16.5a.75.75 0 0 0-1.5 0v1.75H17.5a.75.75 0 0 0 0 1.5h1.75v1.75a.75.75 0 0 0 1.5 0v-1.75h1.75a.75.75 0 0 0 0-1.5h-1.75V16.5zM6 12.25a.75.75 0 0 0 0 1.5h3a.75.75 0 0 0 0-1.5H6z"
        fill="currentColor"
      ></path>
    </g>
  </svg>