<svg viewBox="0 0 24 24" xmlns="http://www.w3.org/2000/svg">
    <g fill="none">
      <path
        fill-rule="evenodd"
        clip-rule="evenodd"
        d="M8 2.25a.75.75 0 0 0-.53.22l-5 5a.75.75 0 0 0-.22.53v8c0 .199.079.39.22.53l5 5c.14.141.331.22.53.22h8a.75.75 0 0 0 .53-.22l5-5a.75.75 0 0 0 .22-.53V8a.75.75 0 0 0-.22-.53l-5-5a.75.75 0 0 0-.53-.22H8zm.47 6.22a.75.75 0 0 1 1.06 0L12 10.94l2.47-2.47a.75.75 0 1 1 1.06 1.06L13.06 12l2.47 2.47a.75.75 0 1 1-1.06 1.06L12 13.06l-2.47 2.47a.75.75 0 0 1-1.06-1.06L10.94 12 8.47 9.53a.75.75 0 0 1 0-1.06z"
        fill="currentColor"
      ></path>
    </g>
  </svg>