<svg viewBox="0 0 24 24" xmlns="http://www.w3.org/2000/svg">
    <g fill="none">
      <path
        fill-rule="evenodd"
        clip-rule="evenodd"
        d="M11.25 2.89c0-.297 0-.445-.066-.56a.525.525 0 0 0-.258-.22c-.125-.047-.26-.026-.532.018a10.008 10.008 0 0 0-8.266 8.266c-.044.272-.066.408-.019.532a.525.525 0 0 0 .22.258c.115.066.264.066.56.066H5a.75.75 0 0 1 0 1.5H2.89c-.297 0-.446 0-.56.066a.525.525 0 0 0-.22.258c-.048.125-.026.26.018.532a10.008 10.008 0 0 0 8.266 8.266c.272.044.407.066.532.019a.525.525 0 0 0 .258-.22c.066-.115.066-.264.066-.56V19a.75.75 0 0 1 1.5 0v2.11c0 .297 0 .446.066.56a.525.525 0 0 0 .258.22c.124.047.26.026.532-.018a10.008 10.008 0 0 0 8.266-8.266c.044-.272.065-.407.019-.532a.525.525 0 0 0-.22-.258c-.116-.066-.264-.066-.56-.066H19a.75.75 0 0 1 0-1.5h2.11c.297 0 .445 0 .56-.066a.525.525 0 0 0 .22-.258c.047-.124.026-.26-.018-.532a10.008 10.008 0 0 0-8.266-8.266c-.272-.044-.408-.065-.532-.019a.525.525 0 0 0-.258.22c-.066.116-.066.264-.066.56V5a.75.75 0 0 1-1.5 0V2.89zM12 14a2 2 0 1 0 0-4 2 2 0 0 0 0 4z"
        fill="currentColor"
      ></path>
    </g>
  </svg>