<svg viewBox="0 0 25 24" xmlns="http://www.w3.org/2000/svg">
    <g fill="none">
      <path d="M18.417 11.194a.805.805 0 1 0 0-1.61.805.805 0 0 0 0 1.61z" fill="currentColor"></path>
      <path fill-rule="evenodd"
            clip-rule="evenodd"
            d="M0 12a8 8 0 0 1 12.001-6.93 8 8 0 1 1 0 13.858A8 8 0 0 1 0 12zm13.359 5.94a6.5 6.5 0 1 0 0-11.88 7.98 7.98 0 0 1 2.595 6.802h.048c1.564 0 2.952.752 3.822 1.91a.75.75 0 0 1-1.2.901 3.272 3.272 0 0 0-2.984-1.292 8.005 8.005 0 0 1-2.281 3.559zm-9.01-4.14a.75.75 0 0 1 1.05.15A3.244 3.244 0 0 0 8 15.25c1.063 0 2.007-.51 2.6-1.3a.75.75 0 0 1 1.2.9 4.744 4.744 0 0 1-3.8 1.9 4.744 4.744 0 0 1-3.8-1.9.75.75 0 0 1 .15-1.05zM5.6 11.2a.8.8 0 1 0 0-1.6.8.8 0 0 0 0 1.6zm5.6-.8a.8.8 0 1 1-1.6 0 .8.8 0 0 1 1.6 0z"
            fill="currentColor"
      ></path>
    </g>
  </svg>