<svg viewBox="0 0 24 24" xmlns="http://www.w3.org/2000/svg">
    <g fill="none">
      <path
        fill-rule="evenodd"
        clip-rule="evenodd"
        d="M9.056 3.944c-.91-.91-2.022-1.532-3.192-1.667C4.669 2.14 3.479 2.521 2.5 3.5c-.98.98-1.36 2.169-1.223 3.364.135 1.17.758 2.283 1.667 3.192.91.91 2.022 1.532 3.192 1.667a3.925 3.925 0 0 0 2.792-.734L9.939 12l-7.47 7.47a.75.75 0 1 0 1.061 1.06L11 13.06l4.47 4.47 3 3a.75.75 0 1 0 1.06-1.06l-3-3L12.06 12l.94-.94 2.47 2.47a.75.75 0 0 0 1.06 0l4.738-4.737.021-.021c.378-.378.693-.693.93-.972.246-.29.451-.59.568-.95a2.75 2.75 0 0 0 0-1.7c-.117-.36-.322-.66-.568-.95-.237-.279-.552-.594-.93-.971l-.021-.022-.738-.737a.75.75 0 0 0-1.06 0l-7 7L11 10.94 9.989 9.927a3.925 3.925 0 0 0 .734-2.792c-.135-1.17-.758-2.283-1.667-3.192z"
        fill="currentColor"
      ></path>
    </g>
  </svg>