<svg viewBox="0 0 24 24" xmlns="http://www.w3.org/2000/svg">
    <g fill="none">
      <path
        fill-rule="evenodd"
        clip-rule="evenodd"
        d="M14.538 2.409a.75.75 0 0 1 .644-.137l1.576.394.133.034c.735.183 1.31.326 1.757.66.392.293.698.686.887 1.136.216.515.216 1.108.215 1.865v4.77c0 .611 0 1.091-.15 1.53a2.75 2.75 0 0 1-.635 1.027c-.325.332-.755.546-1.302.819l-.097.048-1.816.909V21a.75.75 0 0 1-1.5 0V3a.75.75 0 0 1 .288-.591zM4 2.25a.75.75 0 0 1 .75.75v5.287c0 .673.008.853.054 1.006.048.157.126.303.23.43.101.123.247.23.807.603l.409.273V3a.75.75 0 1 1 1.5 0v7.599l.409-.273c.56-.373.705-.48.807-.603a1.25 1.25 0 0 0 .23-.43c.046-.153.054-.333.054-1.006V3a.75.75 0 1 1 1.5 0v5.381c0 .534 0 .955-.119 1.348a2.748 2.748 0 0 1-.507.947c-.26.317-.61.55-1.055.846l-.078.052-1.241.827V21a.75.75 0 0 1-1.5 0v-8.599l-1.241-.827-.078-.052c-.445-.296-.795-.529-1.056-.846a2.75 2.75 0 0 1-.506-.947c-.12-.393-.12-.814-.12-1.348V3A.75.75 0 0 1 4 2.25z"
        fill="currentColor"
      ></path>
    </g>
  </svg>