<svg viewBox="0 0 24 24" xmlns="http://www.w3.org/2000/svg">
    <g fill="none">
      <path
        fill-rule="evenodd"
        clip-rule="evenodd"
        d="M6.53 2.47a.75.75 0 0 0-1.06 1.06L8.338 6.4c.446.446.56.57.633.7.076.136.125.285.146.438.02.15.003.317-.086.94l-.061.432-4.94-4.94A.75.75 0 0 0 2.97 5.03l4.939 4.94-.431.061c-.624.09-.792.106-.94.086a1.25 1.25 0 0 1-.438-.146c-.131-.073-.255-.187-.701-.633L2.53 6.47a.75.75 0 0 0-1.06 1.06L4.338 10.4l.062.062c.354.354.633.633.971.822.298.165.625.274.962.32.384.053.774-.003 1.27-.074l.087-.013 1.545-.22.704.704-1.47 1.47-6 6a.75.75 0 1 0 1.061 1.06l6-6L11 13.06l4.47 4.47 3 3a.75.75 0 1 0 1.06-1.06l-3-3L12.06 12l.94-.94 2.47 2.47a.75.75 0 0 0 1.06 0l4.738-4.737.021-.021c.378-.378.693-.693.93-.972.246-.29.451-.59.568-.95a2.75 2.75 0 0 0 0-1.7c-.117-.36-.322-.66-.568-.95a17.81 17.81 0 0 0-.93-.971l-.021-.022-.738-.737a.75.75 0 0 0-1.06 0l-7 7L11 10.94l-.704-.705.22-1.545.013-.087c.07-.496.127-.886.074-1.27a2.752 2.752 0 0 0-.32-.962c-.189-.338-.468-.617-.822-.97l-.062-.063L6.53 2.47z"
        fill="currentColor"
      ></path>
    </g>
  </svg>