<svg viewBox="0 0 24 24" xmlns="http://www.w3.org/2000/svg">
    <g fill="none">
      <path
        fill-rule="evenodd"
        clip-rule="evenodd"
        d="M4.95 6.011a9.21 9.21 0 0 0-2.17 5.239H4a.75.75 0 0 1 0 1.5H2.78a9.216 9.216 0 0 0 2.47 5.575 6.013 6.013 0 0 1 4-2.278V16c0-1.259.846-2.32 2-2.646V9a.75.75 0 0 1 1.5 0v4.354a2.751 2.751 0 0 1 2 2.693 6.013 6.013 0 0 1 4 2.278 9.216 9.216 0 0 0 2.47-5.575H20a.75.75 0 0 1 0-1.5h1.22a9.21 9.21 0 0 0-2.17-5.239l-.52.52a.75.75 0 1 1-1.06-1.061l.52-.52a9.21 9.21 0 0 0-5.24-2.17V4a.75.75 0 0 1-1.5 0V2.78a9.21 9.21 0 0 0-5.239 2.17l.52.52A.75.75 0 0 1 5.47 6.53l-.52-.519zM12 14.75a1.25 1.25 0 1 0 0 2.5 1.25 1.25 0 0 0 0-2.5zM22.75 12c0-5.937-4.813-10.75-10.75-10.75S1.25 6.063 1.25 12 6.063 22.75 12 22.75 22.75 17.937 22.75 12z"
        fill="currentColor"
      ></path>
    </g>
  </svg>