<svg viewBox="0 0 24 24" xmlns="http://www.w3.org/2000/svg">
    <g fill="none">
      <path
        fill-rule="evenodd"
        clip-rule="evenodd"
        d="M22 12c0 5.523-4.477 10-10 10S2 17.523 2 12 6.477 2 12 2s10 4.477 10 10zM12 3.25a.75.75 0 0 1 .75.75v1a.75.75 0 0 1-1.5 0V4a.75.75 0 0 1 .75-.75zm-8 8a.75.75 0 0 0 0 1.5h1a.75.75 0 0 0 0-1.5H4zm16 1.5h-1a.75.75 0 0 1 0-1.5h1a.75.75 0 0 1 0 1.5zm-1.97-5.72a.75.75 0 1 0-1.06-1.06l-1 1a.75.75 0 1 0 1.06 1.06l1-1zm-1.56 9.44a.75.75 0 0 1 1.06 0l1 1a.75.75 0 1 1-1.06 1.06l-1-1a.75.75 0 0 1 0-1.06zm-8.44.56a.75.75 0 1 0-1.06-1.06l-1 1a.75.75 0 1 0 1.06 1.06l1-1zM5.97 5.97a.75.75 0 0 1 1.06 0l1 1a.75.75 0 0 1-1.06 1.06l-1-1a.75.75 0 0 1 0-1.06zM10 12.556c0 3.259 4 3.259 4 0 0-1.14-.604-2.101-1.148-2.736-.177-.205-.265-.308-.514-.398a1.34 1.34 0 0 0-.676 0c-.249.09-.337.193-.514.398-.544.635-1.148 1.596-1.148 2.736z"
        fill="currentColor"
      ></path>
    </g>
  </svg>