<svg viewBox="0 0 24 24" xmlns="http://www.w3.org/2000/svg">
    <g fill="none">
      <path
        fill-rule="evenodd"
        clip-rule="evenodd"
        d="M6.17 4.25h11.855c.445 0 .816 0 1.12.02.317.022.617.07.907.19a2.75 2.75 0 0 1 1.489 1.488c.12.29.167.59.188.907.01.153.016.324.018.512.172.042.34.1.502.183a2.75 2.75 0 0 1 1.201 1.202c.172.337.24.693.27 1.073.03.365.03.81.03 1.345v5.66c0 .535 0 .98-.03 1.345-.03.38-.098.736-.27 1.073a2.751 2.751 0 0 1-1.201 1.202c-.338.172-.694.24-1.074.27-.365.03-.81.03-1.345.03H3.4A3.15 3.15 0 0 1 .25 17.6c0-.746.604-1.35 1.35-1.35h.65V8.17c0-.535 0-.98.03-1.345.03-.38.098-.736.27-1.073A2.75 2.75 0 0 1 3.752 4.55c.337-.172.693-.24 1.073-.27.365-.03.81-.03 1.345-.03zm14.063 2.707c.006.087.01.184.012.294l-.415-.001H18.17c-.535 0-.98 0-1.345.03-.38.03-.736.098-1.073.27a2.75 2.75 0 0 0-1.202 1.202c-.172.337-.24.693-.27 1.073-.03.365-.03.81-.03 1.345v5.08H3.75V8.2c0-.572 0-.957.025-1.253.023-.287.065-.424.111-.514a1.25 1.25 0 0 1 .547-.547c.09-.046.227-.088.514-.111.296-.024.68-.025 1.253-.025H18c.476 0 .796 0 1.043.017.241.017.358.046.435.078.307.127.55.37.677.677.032.077.061.194.078.435zM19 19.25h-.8c-.572 0-.957 0-1.252-.025-.288-.023-.425-.065-.515-.111a1.25 1.25 0 0 1-.547-.547c-.046-.09-.088-.227-.111-.515-.024-.295-.025-.68-.025-1.252v-5.6c0-.572 0-.957.025-1.253.023-.287.065-.424.111-.514a1.25 1.25 0 0 1 .547-.547c.09-.046.227-.088.515-.111.295-.024.68-.025 1.252-.025h1.6c.572 0 .957 0 1.252.025.288.023.425.065.515.111.236.12.427.311.547.547.046.09.088.227.111.514.024.296.025.68.025 1.253v5.6c0 .572 0 .957-.025 1.252-.023.288-.065.425-.111.515a1.25 1.25 0 0 1-.547.547c-.09.046-.227.088-.515.111-.295.024-.68.025-1.252.025H19zM19 12a1 1 0 1 0 0-2 1 1 0 0 0 0 2z"
        fill="currentColor"
      ></path>
    </g>
  </svg>