<svg viewBox="0 0 24 24" xmlns="http://www.w3.org/2000/svg">
    <g fill="none">
      <path
        fill-rule="evenodd"
        clip-rule="evenodd"
        d="M19.754 3.133c-.409-.135-.828-.043-1.163.058-.349.104-.784.279-1.302.486l-.034.013-9.044 3.618-.034.013c-1.093.438-1.957.783-2.576 1.09a5.128 5.128 0 0 0-.827.492c-.229.175-.45.397-.583.692a2.25 2.25 0 0 0 .202 2.205c.184.266.443.444.7.574.258.131.565.238.902.334.665.189 1.577.371 2.732.602l.036.007c.812.163 1.028.217 1.19.316.169.104.31.245.414.414.1.162.153.378.316 1.19l.007.037c.231 1.154.414 2.066.603 2.731.096.338.202.644.333.903.13.256.308.515.574.699a2.25 2.25 0 0 0 2.205.203c.295-.133.518-.355.692-.583a5.13 5.13 0 0 0 .492-.828c.307-.619.652-1.483 1.09-2.576l.014-.034 3.617-9.044.014-.034c.207-.517.38-.953.485-1.301.101-.336.193-.755.058-1.164a1.75 1.75 0 0 0-1.113-1.113z"
        fill="currentColor"
      ></path>
    </g>
  </svg>