<svg viewBox="0 0 24 24" xmlns="http://www.w3.org/2000/svg">
    <g fill="none">
      <path
        fill-rule="evenodd"
        clip-rule="evenodd"
        d="M12.802 3.137a1.75 1.75 0 0 0-1.604 0c-.396.204-.627.59-.79.913-.172.34-.356.8-.577 1.351l-.013.034-4.696 11.74-.014.034c-.264.662-.481 1.203-.61 1.625-.118.382-.24.88-.063 1.333a1.75 1.75 0 0 0 1.292 1.08c.476.094.945-.115 1.3-.298.392-.202.887-.511 1.492-.889l.03-.02 2.152-1.344c.662-.414.845-.517 1.022-.557.182-.041.371-.041.554 0 .176.04.36.143 1.021.557l2.152 1.345.031.019c.605.378 1.1.687 1.49.889.357.183.826.392 1.302.298a1.75 1.75 0 0 0 1.292-1.08c.176-.452.054-.95-.063-1.333-.13-.422-.346-.963-.61-1.625l-.014-.034-4.696-11.74-.014-.033c-.22-.552-.404-1.012-.576-1.352-.164-.324-.395-.71-.79-.913z"
        fill="currentColor"
      ></path>
    </g>
  </svg>