<svg viewBox="0 0 24 24" xmlns="http://www.w3.org/2000/svg">
    <g fill="none">
      <path
        fill-rule="evenodd"
        clip-rule="evenodd"
        d="M2 6.8c0-1.68 0-2.52.327-3.162a3 3 0 0 1 1.311-1.311C4.28 2 5.12 2 6.8 2h8.712c.733 0 1.1 0 1.446.083.306.073.598.195.867.36.303.185.562.444 1.08.963l1.69 1.688c.518.519.777.778.963 1.081a3 3 0 0 1 .36.867c.082.346.082.712.082 1.446V17.2c0 1.68 0 2.52-.327 3.162a3 3 0 0 1-1.311 1.311C19.72 22 18.88 22 17.2 22h-.45v-5.83c0-.535 0-.98-.03-1.345-.03-.38-.098-.736-.27-1.073a2.751 2.751 0 0 0-1.201-1.202c-.338-.172-.694-.24-1.074-.27-.365-.03-.81-.03-1.345-.03H11.17c-.535 0-.98 0-1.345.03-.38.03-.736.098-1.073.27A2.75 2.75 0 0 0 7.55 13.75c-.172.338-.24.694-.27 1.074-.03.365-.03.81-.03 1.345V22H6.8c-1.68 0-2.52 0-3.162-.327a3 3 0 0 1-1.311-1.311C2 19.72 2 18.88 2 17.2V6.8zM8.75 22h6.5v-5.8c0-.572 0-.957-.025-1.252-.023-.288-.065-.425-.111-.516a1.25 1.25 0 0 0-.546-.546c-.091-.046-.228-.088-.515-.111-.296-.024-.68-.025-1.253-.025h-1.6c-.572 0-.957 0-1.253.025-.287.023-.424.065-.514.111a1.25 1.25 0 0 0-.547.546c-.046.091-.088.228-.111.515-.024.296-.025.68-.025 1.253V22zM7.25 8A.75.75 0 0 1 8 7.25h8a.75.75 0 0 1 0 1.5H8A.75.75 0 0 1 7.25 8z"
        fill="currentColor"
      ></path>
    </g>
  </svg>