<svg viewBox="0 0 24 24" xmlns="http://www.w3.org/2000/svg">
    <g fill="none">
      <path
        fill-rule="evenodd"
        clip-rule="evenodd"
        d="M2.53 1.47a.75.75 0 0 0-1.06 1.06l4.3 4.302c-1.39 1.92-2.52 4.311-2.52 7.02 0 4.83 2.956 7.738 6.44 8.614 3.157.793 6.803-.073 9.03-2.685l2.75 2.75a.75.75 0 1 0 1.06-1.061l-3.356-3.356L7.292 6.232 2.53 1.47zm10.197.314A2.857 2.857 0 0 0 12 1.698c-.232 0-.498.022-.728.086-.542.148-.878.415-1.291.743l-.05.038c-.32.254-.672.546-1.042.873a.75.75 0 1 0 .994 1.124c.347-.308.678-.582.98-.82.47-.373.583-.45.806-.512.055-.015.176-.032.33-.032.155 0 .276.017.332.032.222.061.334.138.804.51 1.136.9 2.678 2.293 3.93 4.043 1.255 1.752 2.185 3.814 2.185 6.069 0 .37-.02.725-.058 1.065a.75.75 0 0 0 1.49.167c.045-.397.068-.808.068-1.232 0-2.674-1.102-5.038-2.464-6.942-1.364-1.905-3.021-3.398-4.22-4.346l-.049-.039c-.412-.327-.748-.593-1.29-.741z"
        fill="currentColor"
      ></path>
    </g>
  </svg>