<svg viewBox="0 0 24 24" xmlns="http://www.w3.org/2000/svg">
    <g fill="none">
      <path
        fill-rule="evenodd"
        clip-rule="evenodd"
        d="M13 7c-.545-.545-.818-.818-.964-1.112a2 2 0 0 1 0-1.776c.146-.294.419-.567.964-1.112.545-.545.818-.818 1.112-.964a2 2 0 0 1 1.776 0c.294.146.567.419 1.112.964l1.47 1.47 1.5-1.5a.75.75 0 1 1 1.06 1.06l-1.5 1.5L21 7c.545.545.818.818.964 1.112a2 2 0 0 1 0 1.776c-.146.294-.419.567-.964 1.112-.545.545-.818.818-1.112.964a2 2 0 0 1-1.776 0c-.294-.146-.567-.419-1.112-.964l-1.47-1.47-3 3-3 3L11 17c.545.545.818.818.964 1.112a2 2 0 0 1 0 1.776c-.146.294-.419.567-.964 1.112-.545.545-.818.818-1.112.964a2 2 0 0 1-1.776 0C7.818 21.818 7.545 21.545 7 21l-1.47-1.47-1.5 1.5a.75.75 0 0 1-1.06-1.06l1.5-1.5L3 17c-.545-.545-.818-.818-.964-1.112a2 2 0 0 1 0-1.776c.146-.294.419-.567.964-1.112.545-.545.818-.818 1.112-.964a2 2 0 0 1 1.776 0c.294.146.567.419 1.112.964l1.47 1.47 3-3 3-3L13 7z"
        fill="currentColor"
      ></path>
    </g>
  </svg>