<svg viewBox="0 0 24 24" xmlns="http://www.w3.org/2000/svg">
    <g fill="none">
      <path
        fill-rule="evenodd"
        clip-rule="evenodd"
        d="M19.85 3.794a2.75 2.75 0 0 0-3.868.163l-.012.013L5.723 14.216l-.044.044c-.425.425-.698.699-.924 1.013-.2.278-.37.577-.505.891-.153.355-.247.731-.392 1.314l-.016.06-.57 2.28a.75.75 0 0 0 .91.91l2.28-.57.06-.015c.583-.146.959-.24 1.314-.393.314-.136.613-.305.892-.505.314-.226.587-.5 1.012-.924l.044-.044L20.03 8.03l.013-.012c.067-.067.12-.12.163-.168a2.75 2.75 0 0 0-.163-3.867l-.012-.013-.013-.013c-.067-.067-.12-.119-.168-.163z"
        fill="currentColor"
      ></path>
    </g>
  </svg>