<svg viewBox="0 0 24 24" xmlns="http://www.w3.org/2000/svg">
    <g fill="none">
      <path
        fill-rule="evenodd"
        clip-rule="evenodd"
        d="M16.15 2.794a2.75 2.75 0 0 1 3.7 0c.048.044.1.096.168.163l.012.013.013.012c.067.068.119.12.163.168a2.75 2.75 0 0 1-.163 3.868l-.013.012-7.246 7.247-.045.044c-.424.425-.698.699-1.012.924-.278.2-.577.37-.892.505-.355.153-.73.247-1.313.393l-.06.015-2.28.57a.75.75 0 0 1-.91-.91l.57-2.28.015-.06c.146-.583.24-.958.393-1.314a4.75 4.75 0 0 1 .505-.891c.225-.314.5-.588.924-1.013l.044-.044L15.97 2.97l.012-.013c.067-.067.12-.119.168-.163zM4 20.25a.75.75 0 0 0 0 1.5h16a.75.75 0 0 0 0-1.5H4z"
        fill="currentColor"
      ></path>
    </g>
  </svg>