<svg viewBox="0 0 24 24" xmlns="http://www.w3.org/2000/svg">
    <g fill="none">
      <path
        fill-rule="evenodd"
        clip-rule="evenodd"
        d="M16.15 3.794a2.75 2.75 0 0 1 3.868.163l.012.013.013.012c.067.068.12.12.164.168a2.75 2.75 0 0 1 0 3.7c-.045.049-.097.1-.164.168l-.013.012-3.5 3.5-.5.5a.75.75 0 1 1-1.06-1.06l.5-.5 1.422-1.422a3.428 3.428 0 0 1-1.94-1.94L13.53 8.532l-.5.5a.75.75 0 1 1-1.06-1.061l.5-.5L13 8l-.53-.53 3.5-3.5.012-.013c.068-.067.12-.119.168-.163zm.073 2.044a1.903 1.903 0 0 0 1.94 1.939l.807-.807c.085-.086.11-.11.127-.13a1.25 1.25 0 0 0 0-1.68 4.726 4.726 0 0 0-.127-.13 4.745 4.745 0 0 0-.13-.126 1.25 1.25 0 0 0-1.68 0 4.636 4.636 0 0 0-.13.126l-.807.808zM3.47 3.47a.75.75 0 0 1 1.06 0l6.5 6.5 1.5 1.5 1.5 1.5 6.5 6.5a.75.75 0 0 1-1.06 1.06l-5.97-5.97-3.716 3.717-.044.044c-.425.425-.698.698-1.012.924-.279.2-.578.37-.892.505-.355.153-.73.247-1.313.393l-.06.015-2.281.57a.75.75 0 0 1-.91-.91l.57-2.28.016-.06c.145-.583.239-.959.392-1.314a4.75 4.75 0 0 1 .505-.891c.226-.314.5-.588.924-1.013l.044-.044L9.44 10.5 3.47 4.53a.75.75 0 0 1 0-1.06z"
        fill="currentColor"
      ></path>
    </g>
  </svg>