<svg viewBox="0 0 24 24" xmlns="http://www.w3.org/2000/svg">
    <g fill="none">
      <path
        fill-rule="evenodd"
        clip-rule="evenodd"
        d="M17.15 2.794a2.75 2.75 0 0 1 3.868.163l.012.013.013.012c.067.068.12.12.163.168a2.75 2.75 0 0 1 0 3.7c-.044.049-.096.1-.163.168l-.013.013-4.246 4.246-.044.044c-.425.425-.698.699-1.012.924-.279.2-.578.37-.892.505-.355.153-.73.247-1.313.393l-.06.015-2.281.57a.75.75 0 0 1-.91-.91l.57-2.28.016-.06c.145-.583.239-.959.392-1.314.136-.314.305-.613.505-.891.226-.314.5-.588.924-1.013l.044-.044L16.97 2.97l.012-.013c.068-.067.12-.119.168-.163zM9.367 2.25H12a.75.75 0 0 1 0 1.5H9.4c-1.132 0-1.937 0-2.566.052-.62.05-1.005.147-1.31.302a3.25 3.25 0 0 0-1.42 1.42c-.155.305-.251.69-.302 1.31-.051.63-.052 1.434-.052 2.566v5.2c0 1.133 0 1.937.052 2.566.05.62.147 1.005.302 1.31a3.25 3.25 0 0 0 1.42 1.42c.305.155.69.252 1.31.302.63.052 1.434.052 2.566.052h5.2c1.133 0 1.937 0 2.566-.052.62-.05 1.005-.147 1.31-.302a3.25 3.25 0 0 0 1.42-1.42c.155-.305.251-.69.302-1.31.051-.63.052-1.433.052-2.566V12a.75.75 0 0 1 1.5 0v2.633c0 1.092 0 1.958-.057 2.655-.058.714-.18 1.317-.46 1.869a4.75 4.75 0 0 1-2.076 2.076c-.552.28-1.155.402-1.869.46-.697.057-1.563.057-2.655.057H9.367c-1.092 0-1.958 0-2.655-.057-.714-.058-1.317-.18-1.868-.46a4.75 4.75 0 0 1-2.076-2.076c-.281-.552-.403-1.155-.461-1.869-.057-.697-.057-1.563-.057-2.655V9.367c0-1.092 0-1.957.057-2.655.058-.713.18-1.317.46-1.868a4.75 4.75 0 0 1 2.077-2.076c.55-.28 1.154-.403 1.868-.46.697-.058 1.563-.058 2.655-.058z"
        fill="currentColor"
      ></path>
    </g>
  </svg>