<svg viewBox="0 0 24 24" xmlns="http://www.w3.org/2000/svg">
    <g fill="none">
      <path
        fill-rule="evenodd"
        clip-rule="evenodd"
        d="M5 2.25a2.75 2.75 0 1 0 0 5.5 2.75 2.75 0 0 0 0-5.5zm0 7a2.75 2.75 0 1 0 0 5.5 2.75 2.75 0 0 0 0-5.5zM2.25 19a2.75 2.75 0 1 1 5.5 0 2.75 2.75 0 0 1-5.5 0zM12 2.25a2.75 2.75 0 1 0 0 5.5 2.75 2.75 0 0 0 0-5.5zM9.25 12a2.75 2.75 0 1 1 5.5 0 2.75 2.75 0 0 1-5.5 0zM12 16.25a2.75 2.75 0 1 0 0 5.5 2.75 2.75 0 0 0 0-5.5zM16.25 5a2.75 2.75 0 1 1 5.5 0 2.75 2.75 0 0 1-5.5 0zM19 9.25a2.75 2.75 0 1 0 0 5.5 2.75 2.75 0 0 0 0-5.5zM16.25 19a2.75 2.75 0 1 1 5.5 0 2.75 2.75 0 0 1-5.5 0z"
        fill="currentColor"
      ></path>
    </g>
  </svg>