<svg viewBox="0 0 24 24" xmlns="http://www.w3.org/2000/svg">
    <g fill="none">
      <path
        fill-rule="evenodd"
        clip-rule="evenodd"
        d="M4 7.8c0-1.68 0-2.52.327-3.162a3 3 0 0 1 1.311-1.311C6.28 3 7.12 3 8.8 3h8.4c1.68 0 2.52 0 3.162.327a3 3 0 0 1 1.311 1.311C22 5.28 22 6.12 22 7.8v4.4c0 1.68 0 2.52-.327 3.162a3 3 0 0 1-1.311 1.311 2.419 2.419 0 0 1-.634.212 9.84 9.84 0 0 1-.021.346c-.045.547-.14 1.027-.366 1.471a3.75 3.75 0 0 1-1.639 1.64c-.444.226-.924.32-1.47.365-.531.043-1.187.043-2 .043h-3.666c-1.651 0-2.937 0-3.968-.084-1.047-.086-1.897-.262-2.662-.652a6.75 6.75 0 0 1-2.95-2.95C.596 16.3.42 15.45.334 14.402.25 13.37.25 12.085.25 10.434V6a.75.75 0 0 1 1.5 0v4.4c0 1.692 0 2.917.08 3.88.077.954.228 1.585.492 2.104a5.25 5.25 0 0 0 2.295 2.294c.518.264 1.15.415 2.103.493.963.078 2.187.079 3.88.079h3.6c.853 0 1.447 0 1.91-.038.453-.038.714-.107.912-.207.423-.216.767-.56.983-.983.1-.198.17-.459.207-.913l.008-.113c-.302.004-.64.004-1.02.004H8.8c-1.68 0-2.52 0-3.162-.327a3 3 0 0 1-1.311-1.311C4 14.72 4 13.88 4 12.2V7.8zm3.357-1.186a.75.75 0 0 1 1.029-.257L13 9.125l4.614-2.768a.75.75 0 0 1 .772 1.286l-5 3a.75.75 0 0 1-.772 0l-5-3a.75.75 0 0 1-.257-1.029z"
        fill="currentColor"
      ></path>
    </g>
  </svg>