<svg viewBox="0 0 24 24" xmlns="http://www.w3.org/2000/svg">
    <g fill="none">
      <path
        fill-rule="evenodd"
        clip-rule="evenodd"
        d="M2.436 6.184C2 7.04 2 8.16 2 10.4v3.2c0 2.24 0 3.36.436 4.216a4 4 0 0 0 1.748 1.748C5.04 20 6.16 20 8.4 20h7.2c2.24 0 3.36 0 4.216-.436a4 4 0 0 0 1.748-1.748C22 16.96 22 15.84 22 13.6v-3.2c0-2.24 0-3.36-.436-4.216a4 4 0 0 0-1.748-1.748C18.96 4 17.84 4 15.6 4H8.4c-2.24 0-3.36 0-4.216.436a4 4 0 0 0-1.748 1.748zm3.98 1.192a.75.75 0 0 0-.832 1.248l6 4a.75.75 0 0 0 .832 0l6-4a.75.75 0 1 0-.832-1.248L12 11.099 6.416 7.376z"
        fill="currentColor"
      ></path>
    </g>
  </svg>