<svg viewBox="0 0 24 24" xmlns="http://www.w3.org/2000/svg">
    <g fill="none">
      <path
        fill-rule="evenodd"
        clip-rule="evenodd"
        d="M12 2C6.477 2 2 6.477 2 12s4.477 10 10 10 10-4.477 10-10S17.523 2 12 2zM8.6 16.45a.75.75 0 0 1-1.2-.9 5.742 5.742 0 0 1 4.6-2.3c1.882 0 3.552.905 4.6 2.3a.75.75 0 1 1-1.2.9 4.243 4.243 0 0 0-3.4-1.7c-1.39 0-2.624.666-3.4 1.7zM10 10a1 1 0 1 1-2 0 1 1 0 0 1 2 0zm5 1a1 1 0 1 0 0-2 1 1 0 0 0 0 2z"
        fill="currentColor"
      ></path>
    </g>
  </svg>