<svg viewBox="0 0 24 24" xmlns="http://www.w3.org/2000/svg">
    <g fill="none">
      <path
        fill-rule="evenodd"
        clip-rule="evenodd"
        d="M12 2C6.477 2 2 6.477 2 12s4.477 10 10 10 10-4.477 10-10S17.523 2 12 2zm3.976 13.91C15.2 16.939 13.93 18 12 18s-3.2-1.061-3.976-2.09c-.293-.39-.44-.584-.433-.93.005-.252.184-.61.383-.767C8.246 14 8.556 14 9.176 14h5.648c.62 0 .93 0 1.202.213.199.156.378.515.383.768.006.345-.14.54-.433.929zM10 9a1 1 0 1 1-2 0 1 1 0 0 1 2 0zm5 1a1 1 0 1 0 0-2 1 1 0 0 0 0 2z"
        fill="currentColor"
      ></path>
    </g>
  </svg>