<svg viewBox="0 0 24 24" xmlns="http://www.w3.org/2000/svg">
    <g fill="none">
      <path
        fill-rule="evenodd"
        clip-rule="evenodd"
        d="M2.327 12.638C2 13.28 2 14.12 2 15.8v.4c0 1.68 0 2.52.327 3.162a3 3 0 0 0 1.311 1.311C4.28 21 5.12 21 6.8 21h10.4c1.68 0 2.52 0 3.162-.327a3 3 0 0 0 1.311-1.311C22 18.72 22 17.88 22 16.2v-.4c0-1.68 0-2.52-.327-3.162a3 3 0 0 0-1.311-1.311C19.72 11 18.88 11 17.2 11h-4.45V4.81l2.72 2.72a.75.75 0 1 0 1.06-1.06l-4-4a.75.75 0 0 0-1.06 0l-4 4a.75.75 0 0 0 1.06 1.06l2.72-2.72V11H6.8c-1.68 0-2.52 0-3.162.327a3 3 0 0 0-1.311 1.311zM11.25 11v5a.75.75 0 0 0 1.5 0v-5h-1.5z"
        fill="currentColor"
      ></path>
    </g>
  </svg>