<svg viewBox="0 0 24 24" xmlns="http://www.w3.org/2000/svg">
    <g fill="none">
      <path
        fill-rule="evenodd"
        clip-rule="evenodd"
        d="M14.25 3c0 .414.336.75.75.75h4.19l-3.666 3.666a2.984 2.984 0 0 0-.162-.089C14.72 7 13.88 7 12.2 7H7.8c-1.68 0-2.52 0-3.162.327a3 3 0 0 0-1.311 1.311C3 9.28 3 10.12 3 11.8v4.4c0 1.68 0 2.52.327 3.162a3 3 0 0 0 1.311 1.311C5.28 21 6.12 21 7.8 21h4.4c1.68 0 2.52 0 3.162-.327a3 3 0 0 0 1.311-1.311C17 18.72 17 17.88 17 16.2v-4.4c0-1.68 0-2.52-.327-3.162a3.057 3.057 0 0 0-.089-.162l3.666-3.665V9a.75.75 0 0 0 1.5 0V3a.75.75 0 0 0-.75-.75h-6a.75.75 0 0 0-.75.75zm2.334 5.476a3 3 0 0 0-1.06-1.06L9.47 13.47a.75.75 0 1 0 1.06 1.06l6.054-6.054z"
        fill="currentColor"
      ></path>
    </g>
  </svg>