<svg viewBox="0 0 24 24" xmlns="http://www.w3.org/2000/svg">
    <g fill="none">
      <path
        fill-rule="evenodd"
        clip-rule="evenodd"
        d="M13.903 5.034l-.028-.019a13.87 13.87 0 0 0-.981-.62c-.275-.148-.614-.296-.998-.273a1.75 1.75 0 0 0-1.292.69c-.232.308-.297.672-.326.983-.028.311-.028.704-.028 1.16V8.6L4.903 5.034l-.028-.019c-.38-.253-.707-.47-.981-.62-.275-.148-.614-.296-.998-.273a1.75 1.75 0 0 0-1.292.69c-.232.308-.297.672-.326.983-.028.311-.028.704-.028 1.16v10.09c0 .456 0 .85.028 1.16.029.311.094.676.326.982.309.409.78.661 1.292.691.384.023.723-.124.998-.273.274-.149.601-.367.98-.62l.03-.02 5.346-3.563v1.643c0 .456 0 .85.028 1.16.029.311.094.676.326.982.309.409.78.661 1.292.691.384.023.723-.124.998-.273.274-.149.601-.367.98-.62l.03-.02 7.515-5.01.027-.018c.31-.207.585-.39.793-.558.216-.173.445-.395.575-.708a1.75 1.75 0 0 0 0-1.341c-.13-.314-.359-.535-.575-.71-.208-.167-.482-.35-.793-.557l-.027-.018-7.516-5.01z"
        fill="currentColor"
      ></path>
    </g>
  </svg>