<svg viewBox="0 0 24 24" xmlns="http://www.w3.org/2000/svg">
    <g fill="none">
      <path
        fill-rule="evenodd"
        clip-rule="evenodd"
        d="M12.104 4.122c-.384-.023-.723.125-.998.274-.274.148-.601.366-.98.62l-.03.018-7.515 5.01-.027.019c-.31.207-.585.39-.793.558-.216.174-.445.395-.575.709a1.75 1.75 0 0 0 0 1.34c.13.314.359.536.575.71.208.167.482.35.793.557l.027.019 7.516 5.01.028.02c.38.252.707.47.981.619.275.149.614.296.998.273a1.75 1.75 0 0 0 1.292-.69c.232-.307.297-.672.326-.983.028-.31.028-.704.028-1.16v-1.643l5.347 3.564.028.02c.38.252.707.47.981.619.275.149.614.296.998.273a1.75 1.75 0 0 0 1.292-.69c.232-.307.297-.672.326-.983.028-.31.028-.704.028-1.16V6.955c0-.456 0-.849-.028-1.16-.029-.31-.094-.675-.326-.982a1.75 1.75 0 0 0-1.292-.691c-.384-.023-.723.125-.998.274-.274.148-.601.366-.98.62l-.03.018L13.75 8.6V6.955c0-.456 0-.849-.028-1.16-.029-.31-.094-.675-.326-.982a1.75 1.75 0 0 0-1.292-.691z"
        fill="currentColor"
      ></path>
    </g>
  </svg>