<svg viewBox="0 0 24 24" xmlns="http://www.w3.org/2000/svg">
    <g fill="none">
      <path
        fill-rule="evenodd"
        clip-rule="evenodd"
        d="M1.47 1.47a.75.75 0 0 1 1.06 0l2.113 2.112A2.749 2.749 0 0 1 7 2.25H13.25V4.83c0 .535 0 .98.03 1.345.03.38.098.736.27 1.074A2.75 2.75 0 0 0 14.75 8.45c.338.172.694.24 1.074.27.365.03.81.03 1.345.03H19.75v9.939l2.78 2.78a.75.75 0 1 1-1.06 1.061l-3-3-14-14-3-3a.75.75 0 0 1 0-1.06zm18.146 5.78a3.748 3.748 0 0 0-.419-.967c-.232-.38-.551-.698-1.012-1.159l-.06-.06-1.189-1.188-.06-.06c-.46-.462-.78-.78-1.16-1.013a3.75 3.75 0 0 0-.966-.42V4.8c0 .572 0 .957.025 1.253.023.287.065.424.111.515.12.235.311.426.546.546.091.046.228.088.515.111.296.024.68.025 1.253.025h2.416zM5 8.25a.75.75 0 0 1 .75.75v7.2c0 .852 0 1.447.038 1.91.037.453.107.714.207.912.216.423.56.767.984.983.197.1.458.17.912.207.462.037 1.057.038 1.909.038H17a.75.75 0 0 1 0 1.5H9.768c-.813 0-1.469 0-2-.043-.546-.045-1.026-.14-1.47-.366a3.75 3.75 0 0 1-1.64-1.639c-.226-.444-.32-.924-.365-1.47-.043-.531-.043-1.187-.043-2V9A.75.75 0 0 1 5 8.25z"
        fill="currentColor"
      ></path>
    </g>
  </svg>