<svg viewBox="0 0 24 24" xmlns="http://www.w3.org/2000/svg">
    <g fill="none">
      <path
        fill-rule="evenodd"
        clip-rule="evenodd"
        d="M13.25 2.25H9.768c-.813 0-1.469 0-2 .043-.546.045-1.026.14-1.47.366a3.75 3.75 0 0 0-1.64 1.639c-.226.444-.32.924-.365 1.47-.043.531-.043 1.187-.043 2v8.464c0 .813 0 1.469.043 2 .045.546.14 1.026.366 1.47a3.75 3.75 0 0 0 1.639 1.64c.444.226.924.32 1.47.365.531.043 1.187.043 2 .043h4.464c.813 0 1.469 0 2-.043.546-.045 1.026-.14 1.47-.366a3.75 3.75 0 0 0 1.64-1.639c.226-.444.32-.924.365-1.47.043-.531.043-1.187.043-2V8.903 8.75H17.17c-.535 0-.98 0-1.345-.03-.38-.03-.736-.098-1.073-.27A2.75 2.75 0 0 1 13.55 7.25c-.172-.338-.24-.694-.27-1.074-.03-.364-.03-.81-.03-1.344V2.25zm6.366 5a3.752 3.752 0 0 0-.419-.967c-.232-.38-.551-.698-1.012-1.159l-.06-.06-1.189-1.188-.06-.06c-.46-.462-.78-.78-1.16-1.013a3.75 3.75 0 0 0-.966-.42V4.8c0 .573 0 .957.025 1.253.023.287.065.424.111.515.12.235.311.426.546.546.091.046.228.088.515.111.296.025.68.025 1.253.025h2.416z"
        fill="currentColor"
      ></path>
    </g>
  </svg>