<svg viewBox="0 0 24 24" xmlns="http://www.w3.org/2000/svg">
    <g fill="none">
      <path
        fill-rule="evenodd"
        clip-rule="evenodd"
        d="M13.097 2.25h.153V4.83c0 .535 0 .98.03 1.345.03.38.098.736.27 1.074A2.75 2.75 0 0 0 14.75 8.45c.338.172.694.24 1.074.27.365.03.81.03 1.345.03H19.75V16.232c0 .813 0 1.469-.043 2-.045.546-.14 1.026-.366 1.47a3.75 3.75 0 0 1-1.639 1.64c-.444.226-.924.32-1.47.365-.531.043-1.187.043-2 .043H9.768c-.813 0-1.469 0-2-.043-.546-.045-1.026-.14-1.47-.366a3.75 3.75 0 0 1-1.64-1.639c-.226-.444-.32-.924-.365-1.47-.043-.531-.043-1.187-.043-2V7.768c0-.813 0-1.469.043-2 .045-.546.14-1.026.366-1.47a3.75 3.75 0 0 1 1.639-1.64c.444-.226.924-.32 1.47-.365.531-.043 1.187-.043 2-.043h3.329zm6.1 4.033c.185.301.326.627.42.967H17.2c-.572 0-.957 0-1.252-.025-.288-.023-.425-.065-.516-.111a1.25 1.25 0 0 1-.546-.546c-.046-.09-.088-.228-.111-.515-.024-.296-.025-.68-.025-1.253V2.384c.34.093.666.234.967.419.38.232.698.551 1.159 1.012l.06.06 1.188 1.189.06.06c.462.46.78.78 1.013 1.16zM12.53 10.47a.75.75 0 0 0-1.06 0l-2.5 2.5a.75.75 0 1 0 1.06 1.06l1.22-1.22V17a.75.75 0 0 0 1.5 0v-4.19l1.22 1.22a.75.75 0 1 0 1.06-1.06l-2.5-2.5z"
        fill="currentColor"
      ></path>
    </g>
  </svg>