<svg viewBox="0 0 24 24" xmlns="http://www.w3.org/2000/svg">
    <g fill="none">
      <path
        fill-rule="evenodd"
        clip-rule="evenodd"
        d="M7.8 2.25h-.032c-.813 0-1.469 0-2 .043-.546.045-1.026.14-1.47.366a3.75 3.75 0 0 0-1.64 1.639c-.226.444-.32.924-.365 1.47-.043.531-.043 1.187-.043 2v8.464c0 .813 0 1.469.043 2 .045.546.14 1.026.366 1.47a3.75 3.75 0 0 0 1.639 1.64c.444.226.924.32 1.47.365.531.043 1.187.043 2 .043H16.232c.813 0 1.469 0 2-.043.546-.045 1.026-.14 1.47-.366a3.75 3.75 0 0 0 1.64-1.639c.226-.444.32-.924.365-1.47.043-.531.043-1.187.043-2V7.768c0-.813 0-1.469-.043-2-.045-.546-.14-1.026-.366-1.47a3.75 3.75 0 0 0-1.639-1.64c-.444-.226-.924-.32-1.47-.365-.531-.043-1.187-.043-2-.043H7.8zm7.45 3.1c0-.56 0-.84-.109-1.054a1 1 0 0 0-.437-.437c-.214-.109-.494-.109-1.054-.109h-3.3c-.56 0-.84 0-1.054.109a1 1 0 0 0-.437.437c-.109.214-.109.494-.109 1.054v4.3c0 .56 0 .84.109 1.054a1 1 0 0 0 .437.437c.214.109.494.109 1.054.109h3.3c.56 0 .84 0 1.054-.109a1 1 0 0 0 .437-.437c.109-.214.109-.494.109-1.054v-4.3zm0 9c0-.56 0-.84-.109-1.054a1 1 0 0 0-.437-.437c-.214-.109-.494-.109-1.054-.109h-3.3c-.56 0-.84 0-1.054.109a1 1 0 0 0-.437.437c-.109.214-.109.494-.109 1.054v4.3c0 .56 0 .84.109 1.054a1 1 0 0 0 .437.437c.214.109.494.109 1.054.109h3.3c.56 0 .84 0 1.054-.109a1 1 0 0 0 .437-.437c.109-.214.109-.494.109-1.054v-4.3zM5 6.25a.75.75 0 0 0 0 1.5h1a.75.75 0 0 0 0-1.5H5zM4.25 12a.75.75 0 0 1 .75-.75h1a.75.75 0 0 1 0 1.5H5a.75.75 0 0 1-.75-.75zM5 16.25a.75.75 0 0 0 0 1.5h1a.75.75 0 0 0 0-1.5H5zM17.25 7a.75.75 0 0 1 .75-.75h1a.75.75 0 0 1 0 1.5h-1a.75.75 0 0 1-.75-.75zm.75 4.25a.75.75 0 0 0 0 1.5h1a.75.75 0 0 0 0-1.5h-1zM17.25 17a.75.75 0 0 1 .75-.75h1a.75.75 0 0 1 0 1.5h-1a.75.75 0 0 1-.75-.75z"
        fill="currentColor"
      ></path>
    </g>
  </svg>