<svg viewBox="0 0 24 24" xmlns="http://www.w3.org/2000/svg">
    <g fill="none">
      <path
        fill-rule="evenodd"
        clip-rule="evenodd"
        d="M5.563 2.25h-.036c-.534 0-.986 0-1.337.032-.34.03-.751.1-1.076.367a1.75 1.75 0 0 0-.636 1.416c.016.421.237.774.44 1.049.21.283.51.621.865 1.02l.024.027 4.016 4.519c.62.697.852.964 1.016 1.258.153.276.266.572.334.88.073.329.077.683.077 1.615V19a2.75 2.75 0 1 0 5.5 0v-4.567c0-.932.004-1.286.077-1.615a3.25 3.25 0 0 1 .334-.88c.164-.294.396-.561 1.016-1.258l4.017-4.519.023-.027c.355-.399.655-.737.865-1.02.203-.275.424-.628.44-1.049a1.75 1.75 0 0 0-.636-1.416c-.325-.267-.735-.337-1.076-.367-.35-.032-.803-.032-1.337-.032H5.563z"
        fill="currentColor"
      ></path>
    </g>
  </svg>