<svg viewBox="0 0 24 24" xmlns="http://www.w3.org/2000/svg">
    <g fill="none">
      <path
        fill-rule="evenodd"
        clip-rule="evenodd"
        d="M4.78 3.25h3.44c.122 0 .255 0 .37.01.13.01.3.036.477.126.236.12.427.311.547.547.09.176.116.348.127.478.01.114.009.247.009.369v3.44c0 .122 0 .255-.01.37a1.26 1.26 0 0 1-.126.478 1.25 1.25 0 0 1-.547.546c-.176.09-.348.116-.478.127a4.75 4.75 0 0 1-.369.01H4.78c-.122 0-.255 0-.37-.01a1.259 1.259 0 0 1-.477-.127 1.25 1.25 0 0 1-.547-.546 1.259 1.259 0 0 1-.127-.478 4.75 4.75 0 0 1-.009-.37V4.78c0-.122 0-.255.01-.37.01-.13.036-.3.126-.477a1.25 1.25 0 0 1 .547-.547 1.26 1.26 0 0 1 .478-.127c.114-.009.247-.009.369-.009zm8.22 0a.75.75 0 0 0 0 1.5h7a.75.75 0 0 0 0-1.5h-7zm-9 15a.75.75 0 0 0 0 1.5h16a.75.75 0 1 0 0-1.5H4zM12.25 9a.75.75 0 0 1 .75-.75h7a.75.75 0 0 1 0 1.5h-7a.75.75 0 0 1-.75-.75zM4 13.25a.75.75 0 0 0 0 1.5h16a.75.75 0 0 0 0-1.5H4z"
        fill="currentColor"
      ></path>
    </g>
  </svg>