<svg viewBox="0 0 24 24" xmlns="http://www.w3.org/2000/svg">
    <g fill="none">
      <path
        fill-rule="evenodd"
        clip-rule="evenodd"
        d="M13 3.25a.75.75 0 0 0 0 1.5h7a.75.75 0 0 0 0-1.5h-7zm-9 15a.75.75 0 0 0 0 1.5h16a.75.75 0 1 0 0-1.5H4zM12.25 9a.75.75 0 0 1 .75-.75h7a.75.75 0 0 1 0 1.5h-7a.75.75 0 0 1-.75-.75zM4 13.25a.75.75 0 0 0 0 1.5h16a.75.75 0 0 0 0-1.5H4zM3.25 6.5a3.25 3.25 0 1 1 6.5 0 3.25 3.25 0 0 1-6.5 0z"
        fill="currentColor"
      ></path>
    </g>
  </svg>