<svg viewBox="0 0 24 24" xmlns="http://www.w3.org/2000/svg">
    <g fill="none">
      <path
        fill-rule="evenodd"
        clip-rule="evenodd"
        d="M5.75 2a.75.75 0 0 0-1.5 0v20a.75.75 0 0 0 1.5 0v-8h10.661c.857 0 1.286 0 1.544-.18a1 1 0 0 0 .416-.674c.046-.312-.145-.695-.529-1.462l-.627-1.253c-.262-.525-.393-.787-.445-1.062a1.997 1.997 0 0 1 0-.738c.052-.275.183-.537.445-1.062l.627-1.253c.384-.767.575-1.15.53-1.462a1 1 0 0 0-.417-.673C17.697 4 17.268 4 16.411 4H5.75V2z"
        fill="currentColor"
      ></path>
    </g>
  </svg>