<svg viewBox="0 0 24 24" xmlns="http://www.w3.org/2000/svg">
    <g fill="none">
      <path
        fill-rule="evenodd"
        clip-rule="evenodd"
        d="M22.53 2.53a.75.75 0 0 0-1.06-1.06l-20 20a.75.75 0 1 0 1.06 1.06l1.78-1.78h12.922c.813 0 1.469 0 2-.044.546-.044 1.026-.139 1.47-.365a3.75 3.75 0 0 0 1.64-1.639c.226-.444.32-.924.365-1.47.043-.532.043-1.187.043-2V9.884c0-.818 0-1.376-.128-1.854a3.75 3.75 0 0 0-2.652-2.652 2.824 2.824 0 0 0-.235-.052L22.53 2.53zM6 2.25h-.116c-.818 0-1.376 0-1.855.128a3.75 3.75 0 0 0-2.651 2.651c-.128.479-.128 1.037-.128 1.855V17a.75.75 0 0 0 1.5 0V7c0-.978.006-1.32.077-1.582a2.25 2.25 0 0 1 1.59-1.591c.263-.07.605-.077 1.583-.077h2.012c.77 0 1.032.005 1.27.062.23.055.45.146.651.27.21.128.399.31.943.854L12.47 6.53a.75.75 0 1 0 1.06-1.06l-1.594-1.595-.06-.06c-.46-.46-.78-.78-1.16-1.013a3.75 3.75 0 0 0-1.083-.449C9.2 2.25 8.749 2.25 8.097 2.25H6z"
        fill="currentColor"
      ></path>
    </g>
  </svg>