<svg viewBox="0 0 24 24" xmlns="http://www.w3.org/2000/svg">
    <g fill="none">
      <path
        fill-rule="evenodd"
        clip-rule="evenodd"
        d="M5.884 2.25h.418c.45 0 .76 0 1.063.05a3.75 3.75 0 0 1 1.58.654c.249.179.468.398.786.716l.042.042.351.352c.544.544.733.726.943.854.201.124.42.215.65.27.24.057.502.062 1.271.062h3.128c.818 0 1.376 0 1.855.128a3.75 3.75 0 0 1 2.651 2.651c.095.353.12.749.126 1.26.431.04.836.124 1.203.339A2.75 2.75 0 0 1 23.16 11.1c.142.41.142.83.094 1.269-.047.425-.151.944-.277 1.572l-.006.033-.463 2.313-.006.028c-.132.664-.24 1.202-.361 1.637-.125.45-.278.84-.525 1.194a3.751 3.751 0 0 1-1.573 1.29c-.395.172-.807.245-1.273.28-.205.015-.431.023-.68.028a.762.762 0 0 1-.09.005H6c-.02 0-.04 0-.059-.002a16.426 16.426 0 0 1-1.173-.042c-.546-.044-1.026-.139-1.47-.365a3.75 3.75 0 0 1-1.64-1.639c-.226-.444-.32-.924-.365-1.47-.043-.532-.043-1.187-.043-2V6.884c0-.818 0-1.376.128-1.855a3.75 3.75 0 0 1 2.651-2.651c.479-.129 1.037-.128 1.855-.128zm13.29 6.167c.047.18.066.398.072.833h-7.34c-.676 0-1.225 0-1.675.033-.466.035-.878.108-1.273.28a3.75 3.75 0 0 0-1.574 1.29c-.246.354-.399.744-.524 1.194-.121.435-.229.973-.362 1.637l-.005.028-1.106 5.526a9.817 9.817 0 0 1-.496-.027c-.454-.037-.715-.106-.913-.206a2.25 2.25 0 0 1-.983-.984c-.1-.197-.17-.458-.207-.912-.038-.463-.038-1.057-.038-1.91V7c0-.977.006-1.32.077-1.582a2.25 2.25 0 0 1 1.59-1.59c.263-.07.605-.077 1.583-.077h.243c.53 0 .712.002.879.03.342.056.666.19.948.392.137.099.267.226.642.6l.352.352.06.06c.46.462.78.78 1.16 1.013a3.75 3.75 0 0 0 1.083.45c.433.103.884.103 1.536.103H16c.978 0 1.32.006 1.582.077a2.25 2.25 0 0 1 1.591 1.59z"
        fill="currentColor"
      ></path>
    </g>
  </svg>