<svg viewBox="0 0 24 24" xmlns="http://www.w3.org/2000/svg">
    <g fill="none">
      <path
        fill-rule="evenodd"
        clip-rule="evenodd"
        d="M6 2.25h-.116c-.818 0-1.376 0-1.855.128a3.75 3.75 0 0 0-2.651 2.651c-.128.479-.128 1.037-.128 1.855V15.232c0 .813 0 1.468.043 2 .045.546.14 1.026.366 1.47a3.75 3.75 0 0 0 1.639 1.64c.444.226.924.32 1.47.364.531.044 1.187.044 2 .044h10.464c.813 0 1.469 0 2-.044.546-.044 1.026-.139 1.47-.365a3.751 3.751 0 0 0 1.64-1.639c.226-.444.32-.924.365-1.47.043-.532.043-1.187.043-2v-4.464c0-.813 0-1.469-.043-2-.045-.546-.14-1.026-.366-1.47a3.75 3.75 0 0 0-1.639-1.64c-.444-.226-.924-.32-1.47-.365-.531-.043-1.187-.043-2-.043h-2.244c-.77 0-1.032-.005-1.27-.062a2.25 2.25 0 0 1-.651-.27c-.21-.128-.399-.31-.943-.854l-.188-.189-.06-.06c-.46-.46-.78-.78-1.16-1.013a3.75 3.75 0 0 0-1.083-.449C9.2 2.25 8.749 2.25 8.097 2.25H6zm5.47 7.22a.75.75 0 0 1 1.06 0l2.5 2.5a.75.75 0 0 1-1.06 1.06l-1.22-1.22V16a.75.75 0 0 1-1.5 0v-4.19l-1.22 1.22a.75.75 0 1 1-1.06-1.06l2.5-2.5z"
        fill="currentColor"
      ></path>
    </g>
  </svg>