<svg viewBox="0 0 24 24" xmlns="http://www.w3.org/2000/svg">
    <g fill="none">
      <path
        fill-rule="evenodd"
        clip-rule="evenodd"
        d="M5.884 2.25h2.213c.652 0 1.103 0 1.536.104a3.75 3.75 0 0 1 1.084.449c.38.232.698.551 1.159 1.012l.06.06.188.189c.544.544.733.726.943.854.06.037.12.07.183.101V7a2.75 2.75 0 1 0 5.5 0V5.266c.171.006.331.015.482.027.546.045 1.026.14 1.47.366a3.75 3.75 0 0 1 1.64 1.638c.226.445.32.925.365 1.471.043.531.043 1.187.043 2v4.464c0 .813 0 1.469-.043 2-.045.546-.14 1.026-.366 1.47a3.75 3.75 0 0 1-1.639 1.64c-.444.226-.924.32-1.47.365-.531.043-1.187.043-2 .043H6.768c-.813 0-1.469 0-2-.043-.546-.045-1.026-.14-1.47-.366a3.75 3.75 0 0 1-1.64-1.639c-.226-.444-.32-.924-.365-1.47-.043-.531-.043-1.187-.043-2V6.884c0-.818 0-1.376.128-1.855a3.75 3.75 0 0 1 2.651-2.651c.48-.129 1.037-.128 1.855-.128zm8.866 3h2.5V7a1.25 1.25 0 0 1-2.5 0V5.25zm2 6.75a.75.75 0 1 0-1.5 0v1a.75.75 0 0 0 1.5 0v-1zM16 15.25a.75.75 0 0 1 .75.75v1a.75.75 0 1 1-1.5 0v-1a.75.75 0 0 1 .75-.75z"
        fill="currentColor"
      ></path>
    </g>
  </svg>