<svg viewBox="0 0 24 24" xmlns="http://www.w3.org/2000/svg">
    <g fill="none">
      <path
        fill-rule="evenodd"
        clip-rule="evenodd"
        d="M10.6 2c-.56 0-.84 0-1.054.109a1 1 0 0 0-.437.437C9 2.76 9 3.04 9 3.6v2.737c0 .245 0 .367.028.482a1 1 0 0 0 .12.29c.061.1.148.187.32.36L12 10l2.531-2.531c.173-.173.26-.26.322-.36a.998.998 0 0 0 .12-.29C15 6.704 15 6.582 15 6.337V3.6c0-.56 0-.84-.109-1.054a1 1 0 0 0-.437-.437C14.24 2 13.96 2 13.4 2h-2.8zM2 10.6c0-.56 0-.84.109-1.054a1 1 0 0 1 .437-.437C2.76 9 3.04 9 3.6 9h2.737c.245 0 .367 0 .482.028a1 1 0 0 1 .29.12c.1.061.187.148.36.32L10 12l-2.531 2.531c-.173.173-.26.26-.36.322a.998.998 0 0 1-.29.12C6.704 15 6.582 15 6.337 15H3.6c-.56 0-.84 0-1.054-.109a1 1 0 0 1-.437-.437C2 14.24 2 13.96 2 13.4v-2.8zm19.891-1.054C22 9.76 22 10.04 22 10.6v2.8c0 .56 0 .84-.109 1.054a1 1 0 0 1-.437.437C21.24 15 20.96 15 20.4 15h-2.737c-.245 0-.367 0-.482-.028a.998.998 0 0 1-.29-.12c-.1-.061-.187-.148-.36-.32L14 12l2.531-2.531c.173-.173.26-.26.36-.322a1 1 0 0 1 .29-.12C17.296 9 17.418 9 17.663 9H20.4c.56 0 .84 0 1.054.109a1 1 0 0 1 .437.437zM9.546 21.891C9.76 22 10.04 22 10.6 22h2.8c.56 0 .84 0 1.054-.109a1 1 0 0 0 .437-.437C15 21.24 15 20.96 15 20.4v-2.737c0-.245 0-.367-.028-.482a.998.998 0 0 0-.12-.29c-.061-.1-.148-.187-.32-.36L12 14l-2.531 2.531c-.173.173-.26.26-.322.36a1 1 0 0 0-.12.29C9 17.296 9 17.418 9 17.663V20.4c0 .56 0 .84.109 1.054a1 1 0 0 0 .437.437z"
        fill="currentColor"
      ></path>
    </g>
  </svg>