<svg viewBox="0 0 24 24" xmlns="http://www.w3.org/2000/svg">
    <g fill="none">
      <path
        fill-rule="evenodd"
        clip-rule="evenodd"
        d="M12 22a2 2 0 0 1-2-2v-1.29a6.991 6.991 0 0 1-2.81-1.624l-1.118.646a2 2 0 0 1-2-3.464l1.117-.645a7.02 7.02 0 0 1 0-3.246l-1.117-.645a2 2 0 1 1 2-3.464l1.119.646A6.993 6.993 0 0 1 10 5.29V4a2 2 0 1 1 4 0v1.29a6.993 6.993 0 0 1 2.81 1.624l1.118-.646a2 2 0 1 1 2 3.464l-1.117.645a7.016 7.016 0 0 1 0 3.246l1.117.645a2 2 0 1 1-2 3.464l-1.118-.646A6.993 6.993 0 0 1 14 18.71V20a2 2 0 0 1-2 2zm0-7a3 3 0 1 0 0-6 3 3 0 0 0 0 6z"
        fill="currentColor"
      ></path>
    </g>
  </svg>