<svg viewBox="0 0 24 24" xmlns="http://www.w3.org/2000/svg">
    <g fill="none">
      <path
        fill-rule="evenodd"
        clip-rule="evenodd"
        d="M6.75 4.5c0-.966.784-1.75 1.75-1.75h.08c.808 0 1.521.53 1.753 1.304l.659 2.196H8.5A1.75 1.75 0 0 1 6.75 4.5zM8.5 1.25a3.25 3.25 0 1 0 0 6.5h2.75v2.5H5a.75.75 0 0 0-.75.75v6.83c0 .535 0 .98.03 1.345.03.38.098.736.27 1.073a2.75 2.75 0 0 0 1.202 1.202c.337.172.693.24 1.073.27.365.03.81.03 1.345.03H15.83c.535 0 .98 0 1.345-.03.38-.03.736-.098 1.073-.27a2.751 2.751 0 0 0 1.202-1.201c.172-.338.24-.694.27-1.074.03-.365.03-.81.03-1.345V11a.75.75 0 0 0-.75-.75h-6.25v-2.5h2.75a3.25 3.25 0 0 0 0-6.5h-.08a3.33 3.33 0 0 0-3.19 2.373L12 4.39l-.23-.767A3.33 3.33 0 0 0 8.58 1.25H8.5zm2.75 10.5h-5.5v6.05c0 .572 0 .957.025 1.252.023.288.065.425.111.515.12.236.311.427.547.547.09.046.227.088.514.111.296.024.68.025 1.253.025h3.05v-8.5zm1.5 8.5v-8.5h5.5v6.05c0 .572 0 .957-.025 1.252-.023.288-.065.425-.111.515a1.25 1.25 0 0 1-.547.547c-.09.046-.227.088-.515.111-.295.024-.68.025-1.252.025h-3.05zm2.75-17.5a1.75 1.75 0 1 1 0 3.5h-2.492l.659-2.196A1.83 1.83 0 0 1 15.42 2.75h.08z"
        fill="currentColor"
      ></path>
    </g>
  </svg>