<svg viewBox="0 0 24 24" xmlns="http://www.w3.org/2000/svg">
    <g fill="none">
      <path
        fill-rule="evenodd"
        clip-rule="evenodd"
        d="M6.2 2.25h-.035c-.485 0-.9 0-1.226.03-.322.03-.704.096-1.018.342a1.75 1.75 0 0 0-.67 1.342c-.009.399.166.744.336 1.02.172.278.42.61.712.998l.021.028 2.575 3.433.01.013 4.345 5.794v5H8a.75.75 0 0 0 0 1.5h8a.75.75 0 0 0 0-1.5h-3.25v-5l4.346-5.794.009-.013L19.68 6.01l.021-.028c.291-.388.54-.72.712-.998.17-.276.345-.621.337-1.02a1.75 1.75 0 0 0-.671-1.342c-.314-.246-.696-.313-1.018-.342-.326-.03-.74-.03-1.226-.03H6.2zm1.675 6h8.25l2.355-3.14c.318-.424.525-.7.656-.914.083-.134.107-.2.113-.218a.25.25 0 0 0-.082-.164 1.116 1.116 0 0 0-.243-.04c-.249-.023-.594-.024-1.124-.024H6.2c-.53 0-.875 0-1.125.023a1.117 1.117 0 0 0-.242.041.25.25 0 0 0-.082.164c.006.018.03.084.113.218.131.213.338.49.656.914l2.355 3.14z"
        fill="currentColor"
      ></path>
    </g>
  </svg>