<svg viewBox="0 0 24 24" xmlns="http://www.w3.org/2000/svg">
    <g fill="none">
      <path
        fill-rule="evenodd"
        clip-rule="evenodd"
        d="M6.416 4.624a.75.75 0 0 0-.832-1.248l-1.575 1.05-.078.052c-.445.296-.795.529-1.056.846a2.75 2.75 0 0 0-.507.947c-.12.393-.119.813-.118 1.348v7.476c0 .838 0 1.372.091 1.832a4.75 4.75 0 0 0 3.732 3.732c.46.091.994.091 1.832.091H16.095c.838 0 1.372 0 1.832-.091a4.75 4.75 0 0 0 3.732-3.732c.091-.46.091-.994.091-1.832v-.192V7.62c0-.535 0-.955-.119-1.348a2.751 2.751 0 0 0-.507-.947c-.26-.317-.61-.55-1.055-.846l-.078-.052-1.575-1.05a.75.75 0 0 0-.832 1.248l1.575 1.05c.56.373.705.48.806.603.105.127.183.273.23.43.047.153.055.333.055 1.006v2.822a4.744 4.744 0 0 0-2.323-1.194c-.46-.091-.994-.091-1.832-.091H7.905c-.838 0-1.372 0-1.832.091-.89.177-1.689.6-2.323 1.195V7.713c0-.673.007-.853.054-1.006a1.25 1.25 0 0 1 .23-.43c.101-.123.247-.23.807-.603l1.575-1.05zM8 17a2 2 0 1 0 0-4 2 2 0 0 0 0 4zm10-2a2 2 0 1 1-4 0 2 2 0 0 1 4 0z"
        fill="currentColor"
      ></path>
    </g>
  </svg>