<svg viewBox="0 0 24 24" xmlns="http://www.w3.org/2000/svg">
    <g fill="none">
      <path
        fill-rule="evenodd"
        clip-rule="evenodd"
        d="M6.416 4.624a.75.75 0 1 0-.832-1.248l-1.575 1.05-.078.052c-.445.296-.795.529-1.056.846a2.75 2.75 0 0 0-.507.947c-.12.393-.119.814-.118 1.348v8.894a4.25 4.25 0 0 0 8.434.737h2.632a4.251 4.251 0 0 0 8.434-.75V7.619c0-.534 0-.955-.119-1.348a2.75 2.75 0 0 0-.507-.947c-.26-.317-.61-.55-1.055-.846l-.078-.052-1.575-1.05a.75.75 0 0 0-.832 1.248l1.575 1.05c.56.373.705.48.806.603.105.127.183.273.23.43.047.153.055.333.055 1.006v5.546a4.251 4.251 0 0 0-6.934 2.49h-2.632a4.251 4.251 0 0 0-6.934-2.49V7.714c0-.673.007-.853.054-1.006a1.25 1.25 0 0 1 .23-.43c.101-.123.247-.23.807-.603l1.575-1.05z"
        fill="currentColor"
      ></path>
    </g>
  </svg>