<svg viewBox="0 0 24 24" xmlns="http://www.w3.org/2000/svg">
    <g fill="none">
      <path
        fill-rule="evenodd"
        clip-rule="evenodd"
        d="M8.946 8.946A23.292 23.292 0 0 0 8.75 12c0 1.072.07 2.099.196 3.053.955.127 1.981.197 3.054.197 1.073 0 2.1-.07 3.054-.197.127-.954.196-1.98.196-3.053s-.07-2.1-.196-3.054A23.293 23.293 0 0 0 12 8.75c-1.073 0-2.1.07-3.054.196zm-1.543.267c-.1.89-.153 1.825-.153 2.787 0 .961.053 1.896.152 2.786a13.862 13.862 0 0 1-2.195-.654c-.852-.341-1.492-.728-1.906-1.12-.412-.39-.551-.733-.551-1.012 0-.28.139-.622.551-1.012.414-.392 1.054-.78 1.906-1.12.64-.256 1.38-.478 2.196-.655zm1.81-1.81c.89-.1 1.825-.153 2.787-.153s1.896.053 2.787.152a13.862 13.862 0 0 0-.655-2.195c-.34-.852-.728-1.492-1.12-1.906-.39-.413-.732-.551-1.012-.551s-.622.138-1.012.551c-.392.414-.78 1.054-1.12 1.906-.256.64-.478 1.38-.654 2.195zm7.385 1.81c.1.89.152 1.825.152 2.787 0 .961-.053 1.896-.152 2.786a13.86 13.86 0 0 0 2.195-.654c.852-.341 1.492-.728 1.906-1.12.412-.39.551-.733.551-1.012 0-.28-.139-.622-.551-1.012-.414-.392-1.054-.78-1.907-1.12a13.85 13.85 0 0 0-2.195-.655zm-1.811 7.384c-.89.1-1.825.153-2.787.153s-1.896-.053-2.786-.153c.176.816.398 1.555.654 2.195.34.853.728 1.492 1.12 1.907.39.412.732.55 1.012.55s.622-.138 1.012-.55c.392-.415.78-1.054 1.12-1.907.256-.64.478-1.379.655-2.195zm-7.15-.234c-1.108-.206-2.117-.49-2.987-.838-.957-.383-1.782-.858-2.38-1.423l-.061-.06a10.012 10.012 0 0 0 7.749 7.749l-.06-.062c-.565-.598-1.04-1.422-1.423-2.38-.348-.869-.632-1.878-.839-2.986zm8.727 0c1.107-.206 2.116-.49 2.986-.838.957-.383 1.782-.858 2.38-1.423l.061-.06a10.012 10.012 0 0 1-7.749 7.749l.06-.062c.565-.598 1.04-1.422 1.423-2.38.348-.869.632-1.878.839-2.986zm5.427-6.406l-.061-.06c-.598-.565-1.423-1.04-2.38-1.422-.87-.348-1.879-.632-2.986-.839-.207-1.107-.491-2.116-.84-2.986-.382-.957-.857-1.782-1.422-2.38l-.06-.062a10.012 10.012 0 0 1 7.75 7.75zM7.636 7.637c-1.107.206-2.116.49-2.986.838-.957.383-1.782.857-2.38 1.423l-.061.06a10.012 10.012 0 0 1 7.749-7.75l-.06.062c-.565.598-1.04 1.423-1.423 2.38-.348.87-.632 1.879-.839 2.986z"
        fill="currentColor"
      ></path>
    </g>
  </svg>