<svg viewBox="0 0 24 24" xmlns="http://www.w3.org/2000/svg">
    <g fill="none">
      <path
        fill-rule="evenodd"
        clip-rule="evenodd"
        d="M17.895 2.105a.75.75 0 0 0-1.061 1.061A8.25 8.25 0 1 1 5.167 14.833a.75.75 0 1 0-1.061 1.061 9.721 9.721 0 0 0 6.144 2.827v1.529H8a.75.75 0 0 0 0 1.5h6a.75.75 0 0 0 0-1.5h-2.25V18.72c5.035-.383 9-4.589 9-9.721a9.722 9.722 0 0 0-2.855-6.895zM4.25 9a6.75 6.75 0 1 1 13.5 0 6.75 6.75 0 0 1-13.5 0z"
        fill="currentColor"
      ></path>
    </g>
  </svg>