<svg viewBox="0 0 24 24" xmlns="http://www.w3.org/2000/svg">
    <g fill="none">
      <path
        fill-rule="evenodd"
        clip-rule="evenodd"
        d="M6.8 2h4.45v9.25H2V6.8c0-1.68 0-2.52.327-3.162a3 3 0 0 1 1.311-1.311C4.28 2 5.12 2 6.8 2zM2 12.75v4.45c0 1.68 0 2.52.327 3.162a3 3 0 0 0 1.311 1.311C4.28 22 5.12 22 6.8 22h4.45v-9.25H2zm10.75 0V22h4.45c1.68 0 2.52 0 3.162-.327a3 3 0 0 0 1.311-1.311C22 19.72 22 18.88 22 17.2v-4.45h-9.25zm9.25-1.5V6.8c0-1.68 0-2.52-.327-3.162a3 3 0 0 0-1.311-1.311C19.72 2 18.88 2 17.2 2h-4.45v9.25H22z"
        fill="currentColor"
      ></path>
    </g>
  </svg>