<svg viewBox="0 0 24 24" xmlns="http://www.w3.org/2000/svg">
    <g fill="none">
      <path
        fill-rule="evenodd"
        clip-rule="evenodd"
        d="M2.327 3.638C2 4.28 2 5.12 2 6.8v4.45h20V6.8c0-1.68 0-2.52-.327-3.162a3 3 0 0 0-1.311-1.311C19.72 2 18.88 2 17.2 2H6.8c-1.68 0-2.52 0-3.162.327a3 3 0 0 0-1.311 1.311zM22 12.75H2v4.45c0 1.68 0 2.52.327 3.162a3 3 0 0 0 1.311 1.311C4.28 22 5.12 22 6.8 22h10.4c1.68 0 2.52 0 3.162-.327a3 3 0 0 0 1.311-1.311C22 19.72 22 18.88 22 17.2v-4.45z"
        fill="currentColor"
      ></path>
    </g>
  </svg>