<svg viewBox="0 0 24 24" xmlns="http://www.w3.org/2000/svg">
    <g fill="none">
      <path
        fill-rule="evenodd"
        clip-rule="evenodd"
        d="M2 6.8c0-1.68 0-2.52.327-3.162a3 3 0 0 1 1.311-1.311C4.28 2 5.12 2 6.8 2h10.4c1.68 0 2.52 0 3.162.327a3 3 0 0 1 1.311 1.311C22 4.28 22 5.12 22 6.8v1.45H2V6.8zm0 2.95v7.45c0 1.68 0 2.52.327 3.162a3 3 0 0 0 1.311 1.311C4.28 22 5.12 22 6.8 22h1.45V9.75H2zm7.75 0V22h7.45c1.68 0 2.52 0 3.162-.327a3 3 0 0 0 1.311-1.311C22 19.72 22 18.88 22 17.2V9.75H9.75z"
        fill="currentColor"
      ></path>
    </g>
  </svg>