<svg viewBox="0 0 24 24" xmlns="http://www.w3.org/2000/svg">
    <g fill="none">
      <path
        fill-rule="evenodd"
        clip-rule="evenodd"
        d="M2.327 3.638C2 4.28 2 5.12 2 6.8v1.45h20V6.8c0-1.68 0-2.52-.327-3.162a3 3 0 0 0-1.311-1.311C19.72 2 18.88 2 17.2 2H6.8c-1.68 0-2.52 0-3.162.327a3 3 0 0 0-1.311 1.311zM2 14.75v-5h9.25v5H2zm0 1.5v.95c0 1.68 0 2.52.327 3.162a3 3 0 0 0 1.311 1.311C4.28 22 5.12 22 6.8 22h4.45v-5.75H2zm10.75 0V22h4.45c1.68 0 2.52 0 3.162-.327a3 3 0 0 0 1.311-1.311C22 19.72 22 18.88 22 17.2v-.95h-9.25zm9.25-1.5v-5h-9.25v5H22z"
        fill="currentColor"
      ></path>
    </g>
  </svg>