<svg viewBox="0 0 24 24" xmlns="http://www.w3.org/2000/svg">
    <g fill="none">
      <path
        fill-rule="evenodd"
        clip-rule="evenodd"
        d="M14.75 2h-5.5v5.75h5.5V2zm0 7.25h-5.5v5.5h5.5v-5.5zm-7-1.5V2H5.2c-1.12 0-1.68 0-2.108.218a2 2 0 0 0-.874.874C2 3.52 2 4.08 2 5.2v2.55h5.75zM2 9.25h5.75v5.5H2v-5.5zm14.25 0H22v5.5h-5.75v-5.5zM22 7.75h-5.75V2h2.55c1.12 0 1.68 0 2.108.218a2 2 0 0 1 .874.874C22 3.52 22 4.08 22 5.2v2.55zm-14.25 8.5H2v2.55c0 1.12 0 1.68.218 2.108a2 2 0 0 0 .874.874C3.52 22 4.08 22 5.2 22h2.55v-5.75zm7 0h-5.5V22h5.5v-5.75zm1.5 5.75v-5.75H22v2.55c0 1.12 0 1.68-.218 2.108a2 2 0 0 1-.874.874C20.48 22 19.92 22 18.8 22h-2.55z"
        fill="currentColor"
      ></path>
    </g>
  </svg>