<svg viewBox="0 0 24 24" xmlns="http://www.w3.org/2000/svg">
    <g fill="none">
      <path
        fill-rule="evenodd"
        clip-rule="evenodd"
        d="M9.748 1.25h-.163c-1.181 0-1.996-.001-2.695.293a3.75 3.75 0 0 0-1.55 1.21c-.454.606-.651 1.397-.937 2.543l-.04.158-1.708 6.835-.008.031c-.136.543-.214.854-.269 1.172a8.746 8.746 0 0 0-.104.85 16.62 16.62 0 0 0-.024 1.202v3.286c0 .535 0 .98.03 1.345.03.38.098.736.27 1.073a2.75 2.75 0 0 0 1.202 1.202c.337.172.693.24 1.073.27.365.03.81.03 1.345.03H17.83c.535 0 .98 0 1.345-.03.38-.03.736-.098 1.073-.27a2.75 2.75 0 0 0 1.202-1.201c.172-.338.24-.694.27-1.074.03-.365.03-.81.03-1.345V17.17 15.543c0-.56 0-.88-.024-1.202a8.774 8.774 0 0 0-.104-.85 16.648 16.648 0 0 0-.269-1.172l-.008-.03-1.708-6.836-.04-.158c-.286-1.146-.483-1.937-.938-2.544a3.75 3.75 0 0 0-1.549-1.21c-.699-.293-1.514-.293-2.695-.292H9.748zM20.25 18v-.8c0-.572 0-.957-.025-1.252-.023-.288-.065-.425-.111-.516a1.25 1.25 0 0 0-.547-.546c-.09-.046-.227-.088-.515-.111-.295-.024-.68-.025-1.252-.025H6.2c-.572 0-.957 0-1.253.025-.287.023-.424.065-.514.111a1.25 1.25 0 0 0-.547.546c-.046.091-.088.228-.111.515-.024.291-.025.667-.025 1.222V18.8c0 .572 0 .957.025 1.252.023.288.065.425.111.515.12.236.311.427.547.547.09.046.227.088.514.111.296.024.68.025 1.253.025h11.6c.572 0 .957 0 1.252-.025.288-.023.425-.065.515-.111a1.25 1.25 0 0 0 .547-.547c.046-.09.088-.227.111-.515.024-.295.025-.68.025-1.252V18zM7 19a1 1 0 1 0 0-2 1 1 0 0 0 0 2zm3.25-1a.75.75 0 0 1 .75-.75h6a.75.75 0 0 1 0 1.5h-6a.75.75 0 0 1-.75-.75z"
        fill="currentColor"
      ></path>
    </g>
  </svg>