<svg viewBox="0 0 24 24" xmlns="http://www.w3.org/2000/svg">
    <g fill="none">
      <path
        fill-rule="evenodd"
        clip-rule="evenodd"
        d="M12 2.25c-5.385 0-9.75 4.365-9.75 9.75v6.025c0 .445 0 .816.02 1.12.022.317.069.617.19.907a2.75 2.75 0 0 0 1.488 1.489c.29.12.59.167.907.188.304.021.675.021 1.12.021h.05c.445 0 .816 0 1.12-.02.317-.022.617-.069.907-.19a2.75 2.75 0 0 0 1.489-1.488c.12-.29.167-.59.188-.907.021-.304.021-.675.021-1.12v-2.05c0-.445 0-.816-.02-1.12a2.823 2.823 0 0 0-.19-.907 2.75 2.75 0 0 0-1.488-1.489c-.29-.12-.59-.167-.907-.188-.304-.021-.675-.021-1.12-.021h-.05c-.445 0-.816 0-1.12.02a2.822 2.822 0 0 0-.907.19 2.749 2.749 0 0 0-.198.09V12a8.25 8.25 0 1 1 16.5 0v.55a2.744 2.744 0 0 0-.198-.09c-.29-.121-.59-.168-.907-.19-.304-.02-.675-.02-1.12-.02h-.05c-.445 0-.816 0-1.12.02a2.822 2.822 0 0 0-.907.19 2.75 2.75 0 0 0-1.489 1.488c-.12.29-.167.59-.188.907-.021.304-.021.675-.021 1.12v2.05c0 .445 0 .816.02 1.12.022.317.069.617.19.907a2.75 2.75 0 0 0 1.488 1.489c.29.12.59.167.907.188.304.021.675.021 1.12.021h.05c.445 0 .816 0 1.12-.02.317-.022.617-.069.907-.19a2.75 2.75 0 0 0 1.489-1.488c.12-.29.167-.59.188-.907.021-.304.021-.675.021-1.12v-2.05V12c0-5.385-4.365-9.75-9.75-9.75z"
        fill="currentColor"
      ></path>
    </g>
  </svg>