<svg viewBox="0 0 24 24" xmlns="http://www.w3.org/2000/svg">
    <g fill="none">
      <path
        fill-rule="evenodd"
        clip-rule="evenodd"
        d="M12 2.25A7.75 7.75 0 0 0 4.25 10v2.255a8.433 8.433 0 0 0-.395.016 2.822 2.822 0 0 0-.907.188 2.75 2.75 0 0 0-1.489 1.489c-.12.29-.167.59-.188.907-.021.304-.021.675-.021 1.12v2.05c0 .445 0 .816.02 1.12.022.317.07.617.19.907a2.75 2.75 0 0 0 1.488 1.489c.29.12.59.167.907.188.304.021.675.021 1.12.021h.05c.445 0 .816 0 1.12-.02.317-.022.617-.069.907-.19a2.75 2.75 0 0 0 1.489-1.488c.12-.29.167-.59.188-.907.021-.304.021-.675.021-1.12v-2.05c0-.445 0-.816-.02-1.12a2.823 2.823 0 0 0-.19-.907 2.75 2.75 0 0 0-1.488-1.489c-.29-.12-.59-.167-.907-.188a8.434 8.434 0 0 0-.395-.017V10a6.25 6.25 0 1 1 12.5 0v2.255a8.439 8.439 0 0 0-.395.016 2.822 2.822 0 0 0-.907.188 2.75 2.75 0 0 0-1.489 1.489c-.12.29-.167.59-.188.907-.021.304-.021.675-.021 1.12v2.05c0 .445 0 .816.02 1.12.022.317.069.617.19.907a2.75 2.75 0 0 0 1.488 1.489c.29.12.59.167.907.188.304.021.675.021 1.12.021h.05c.445 0 .816 0 1.12-.02.317-.022.617-.069.907-.19a2.75 2.75 0 0 0 1.489-1.488c.12-.29.167-.59.188-.907.021-.304.021-.675.021-1.12v-2.05c0-.445 0-.816-.02-1.12a2.822 2.822 0 0 0-.19-.907 2.75 2.75 0 0 0-1.488-1.489c-.29-.12-.59-.167-.907-.188a8.439 8.439 0 0 0-.395-.017V10A7.75 7.75 0 0 0 12 2.25z"
        fill="currentColor"
      ></path>
    </g>
  </svg>