<svg viewBox="0 0 24 24" xmlns="http://www.w3.org/2000/svg">
    <g fill="none">
      <path
        fill-rule="evenodd"
        clip-rule="evenodd"
        d="M2.53 1.47a.75.75 0 0 0-1.06 1.06l2.849 2.85c-.181.14-.356.292-.522.458a5.223 5.223 0 0 0 0 7.42l7.007 6.999a1.697 1.697 0 0 0 2.392 0l3.002-2.998 4.272 4.271a.75.75 0 1 0 1.06-1.06l-4.801-4.802L6.04 4.98l-3.51-3.51zM13.543 6.9c1.534-1.533 4.066-1.533 5.6 0a3.723 3.723 0 0 1 0 5.298l-1.274 1.271a.75.75 0 1 0 1.06 1.062l1.274-1.272a5.223 5.223 0 0 0 0-7.421c-2.12-2.117-5.6-2.117-7.72 0L12 6.32l-.482-.482A5.4 5.4 0 0 0 9.21 4.472a.75.75 0 0 0-.422 1.44 3.935 3.935 0 0 1 1.669.987L11.47 7.91a.75.75 0 0 0 1.06 0l1.013-1.01z"
        fill="currentColor"
      ></path>
    </g>
  </svg>