<svg viewBox="0 0 24 24" xmlns="http://www.w3.org/2000/svg">
    <g fill="none">
      <path
        fill-rule="evenodd"
        clip-rule="evenodd"
        d="M5 11.093c0-.362-.468-.564-.725-.308L2.53 12.53a.75.75 0 0 1-1.06-1.06l7.737-7.738.021-.021c.378-.378.693-.693.972-.93.29-.246.59-.451.95-.568a2.75 2.75 0 0 1 1.7 0c.36.117.66.322.95.568.279.237.594.552.971.93l.022.021 7.737 7.738a.75.75 0 1 1-1.06 1.06l-1.745-1.745c-.257-.256-.725-.054-.725.308V16.2c0 1.68 0 2.52-.327 3.162a3 3 0 0 1-1.311 1.311C16.72 21 15.88 21 14.2 21H9.8c-1.68 0-2.52 0-3.162-.327a3 3 0 0 1-1.311-1.311C5 18.72 5 17.88 5 16.2v-5.107z"
        fill="currentColor"
      ></path>
    </g>
  </svg>