<svg viewBox="0 0 24 24" xmlns="http://www.w3.org/2000/svg">
    <g fill="none">
      <path
        fill-rule="evenodd"
        clip-rule="evenodd"
        d="M6.2 2.25h-.03c-.535 0-.98 0-1.345.03-.38.03-.736.098-1.073.27A2.75 2.75 0 0 0 2.55 3.752c-.172.337-.24.693-.27 1.073-.03.365-.03.81-.03 1.345V17.83c0 .535 0 .98.03 1.345.03.38.098.736.27 1.073a2.75 2.75 0 0 0 1.202 1.202c.337.172.693.24 1.073.27.365.03.81.03 1.345.03H17.83c.535 0 .98 0 1.345-.03.38-.03.736-.098 1.073-.27a2.751 2.751 0 0 0 1.202-1.201c.172-.338.24-.694.27-1.074.03-.365.03-.81.03-1.345V6.17c0-.535 0-.98-.03-1.345-.03-.38-.098-.736-.27-1.073A2.75 2.75 0 0 0 20.25 2.55c-.338-.172-.694-.24-1.074-.27-.365-.03-.81-.03-1.345-.03H6.2zM5 14.2c0-1.12 0-1.68.218-2.108a2 2 0 0 1 .874-.874C6.52 11 7.08 11 8.2 11h1.6c1.12 0 1.68 0 2.108.218a2 2 0 0 1 .874.874C13 12.52 13 13.08 13 14.2v1.6c0 1.12 0 1.68-.218 2.108a2 2 0 0 1-.874.874C11.48 19 10.92 19 9.8 19H8.2c-1.12 0-1.68 0-2.108-.218a2 2 0 0 1-.874-.874C5 17.48 5 16.92 5 15.8v-1.6z"
        fill="currentColor"
      ></path>
    </g>
  </svg>