<svg viewBox="0 0 24 24" xmlns="http://www.w3.org/2000/svg">
    <g fill="none">
      <path
        fill-rule="evenodd"
        clip-rule="evenodd"
        d="M16.5 8a2.5 2.5 0 1 0 0-5 2.5 2.5 0 0 0 0 5zM3.17 16.07l3.138-4.883c.896-1.393 1.344-2.09 1.914-2.33a2 2 0 0 1 1.556 0c.57.24 1.018.937 1.914 2.33L13.5 14c.14.218.21.327.275.395a1 1 0 0 0 1.45 0c.065-.068.135-.177.275-.395.28-.435.42-.653.55-.79a2 2 0 0 1 2.9 0c.13.137.27.354.55.79l1.33 2.07c1.033 1.605 1.549 2.409 1.502 3.072a2 2 0 0 1-.797 1.459C21.002 21 20.048 21 18.14 21H5.86c-1.909 0-2.863 0-3.396-.399a2 2 0 0 1-.797-1.459c-.047-.663.47-1.466 1.502-3.072z"
        fill="currentColor"
      ></path>
    </g>
  </svg>