<svg viewBox="0 0 24 24" xmlns="http://www.w3.org/2000/svg">
    <g fill="none">
      <path
        fill-rule="evenodd"
        clip-rule="evenodd"
        d="M1.47 1.47a.75.75 0 0 1 1.06 0L4.702 3.64l15.657 15.657 2.171 2.172a.75.75 0 1 1-1.06 1.06l-1.684-1.683c-.198.144-.409.273-.63.385-.55.281-1.154.403-1.868.461-.697.057-1.563.057-2.655.057H9.367c-1.092 0-1.958 0-2.655-.057-.714-.058-1.317-.18-1.868-.46a4.75 4.75 0 0 1-2.076-2.076c-.281-.552-.403-1.155-.461-1.869-.057-.697-.057-1.563-.057-2.655V9.367c0-1.092 0-1.958.057-2.655.058-.714.18-1.317.46-1.868a4.75 4.75 0 0 1 .386-.63L1.47 2.53a.75.75 0 0 1 0-1.06zm2.764 3.824c-.046.075-.09.152-.13.23-.155.305-.251.69-.302 1.31-.051.63-.052 1.434-.052 2.566v5.2c0 .841 0 1.501.022 2.043l1.472-1.636c.785-.873 1.178-1.31 1.645-1.48a2 2 0 0 1 1.275-.034c.475.146.89.562 1.721 1.392L12 17l3.25 3.25c.801-.002 1.414-.011 1.916-.052.62-.05 1.005-.147 1.31-.302.078-.04.155-.084.23-.13L4.234 5.294zm12.932-1.492c-.63-.051-1.434-.052-2.566-.052H8a.75.75 0 0 1 0-1.5h6.633c1.092 0 1.958 0 2.655.057.714.058 1.317.18 1.869.46a4.75 4.75 0 0 1 2.075 2.077c.281.55.403 1.154.461 1.868.057.697.057 1.563.057 2.655V16a.75.75 0 0 1-1.5 0V9.4c0-1.132 0-1.937-.052-2.566-.05-.62-.147-1.005-.302-1.31a3.25 3.25 0 0 0-1.42-1.42c-.305-.155-.69-.251-1.31-.302zM18 8a2 2 0 1 1-4 0 2 2 0 0 1 4 0z"
        fill="currentColor"
      ></path>
    </g>
  </svg>