<svg viewBox="0 0 24 24" xmlns="http://www.w3.org/2000/svg">
    <g fill="none">
      <path
        fill-rule="evenodd"
        clip-rule="evenodd"
        d="M12 3.75a8.25 8.25 0 0 0-7.235 12.218A.148.148 0 0 0 5 16l2.237-2.237c.792-.792 1.188-1.188 1.645-1.337a2 2 0 0 1 1.236 0c.457.149.853.545 1.645 1.337l1.883 1.883a.5.5 0 0 0 .708 0l.383-.383c.792-.792 1.188-1.188 1.645-1.337a2 2 0 0 1 1.236 0c.457.149.853.545 1.645 1.337a.21.21 0 0 0 .344-.064A8.25 8.25 0 0 0 12 3.75zM2.25 12c0-5.385 4.365-9.75 9.75-9.75s9.75 4.365 9.75 9.75-4.365 9.75-9.75 9.75S2.25 17.385 2.25 12zM14 11a2 2 0 1 0 0-4 2 2 0 0 0 0 4z"
        fill="currentColor"
      ></path>
    </g>
  </svg>