<svg viewBox="0 0 24 24" xmlns="http://www.w3.org/2000/svg">
    <g fill="none">
      <path
        fill-rule="evenodd"
        clip-rule="evenodd"
        d="M9.367 2.25H12a.75.75 0 0 1 0 1.5H9.4c-1.132 0-1.937 0-2.566.052-.62.05-1.005.147-1.31.302a3.25 3.25 0 0 0-1.42 1.42c-.155.305-.251.69-.302 1.31-.051.63-.052 1.434-.052 2.566v5.2c0 .915 0 1.615.028 2.182l3.463-3.197c.794-.732 1.19-1.099 1.639-1.23a2 2 0 0 1 1.205.023c.443.15.825.532 1.589 1.296L14 16l.883-.883c.746-.746 1.119-1.119 1.552-1.27a2 2 0 0 1 1.185-.039c.443.122.84.469 1.633 1.163l.993.87c.004-.366.004-.776.004-1.241V12a.75.75 0 0 1 1.5 0v2.633c0 1.092 0 1.958-.057 2.655-.058.714-.18 1.317-.46 1.869a4.75 4.75 0 0 1-2.076 2.075c-.552.281-1.155.403-1.869.461-.697.057-1.563.057-2.655.057H9.367c-1.092 0-1.958 0-2.655-.057-.714-.058-1.317-.18-1.868-.46a4.75 4.75 0 0 1-2.076-2.076c-.281-.552-.403-1.155-.461-1.869-.057-.697-.057-1.563-.057-2.655V9.367c0-1.092 0-1.958.057-2.655.058-.714.18-1.317.46-1.868a4.75 4.75 0 0 1 2.077-2.076c.55-.281 1.154-.403 1.868-.461.697-.057 1.563-.057 2.655-.057zM18.75 3a.75.75 0 0 0-1.5 0v2.25H15a.75.75 0 0 0 0 1.5h2.25V9a.75.75 0 0 0 1.5 0V6.75H21a.75.75 0 0 0 0-1.5h-2.25V3z"
        fill="currentColor"
      ></path>
    </g>
  </svg>