<svg viewBox="0 0 24 24" xmlns="http://www.w3.org/2000/svg">
    <g fill="none">
      <path
        fill-rule="evenodd"
        clip-rule="evenodd"
        d="M9.4 2.25h-.033c-1.092 0-1.958 0-2.655.057-.714.058-1.317.18-1.868.46a4.75 4.75 0 0 0-2.076 2.077c-.281.55-.403 1.154-.461 1.868-.057.697-.057 1.563-.057 2.655V14.633c0 1.092 0 1.958.057 2.655.058.714.18 1.317.46 1.869a4.75 4.75 0 0 0 2.077 2.075c.55.281 1.154.403 1.868.461.697.057 1.563.057 2.655.057H14.633c1.092 0 1.958 0 2.655-.057.714-.058 1.317-.18 1.869-.46a4.75 4.75 0 0 0 2.075-2.076c.281-.552.403-1.155.461-1.869.057-.697.057-1.563.057-2.655V12a.75.75 0 0 0-1.5 0v2.6c0 .465 0 .875-.004 1.24l-.993-.869c-.794-.694-1.19-1.041-1.633-1.163a2 2 0 0 0-1.185.04c-.433.15-.806.523-1.552 1.269L14 16l-2.326-2.326c-.764-.764-1.146-1.146-1.589-1.296a2 2 0 0 0-1.205-.024c-.448.132-.845.499-1.64 1.231l-3.462 3.197A49.498 49.498 0 0 1 3.75 14.6V9.4c0-1.132 0-1.937.052-2.566.05-.62.147-1.005.302-1.31a3.25 3.25 0 0 1 1.42-1.42c.305-.155.69-.251 1.31-.302.63-.051 1.434-.052 2.566-.052H12a.75.75 0 0 0 0-1.5H9.4zm8.07 1.22a2.164 2.164 0 1 1 3.06 3.06L18.4 8.66l-.048.048c-.463.464-.762.762-1.107 1.003-.306.214-.636.39-.983.526-.391.154-.806.237-1.448.365l-.067.014-.6.12a.75.75 0 0 1-.882-.883l.12-.6.013-.067c.128-.642.211-1.057.365-1.448.136-.348.313-.677.526-.983.24-.345.54-.644 1.003-1.107l.048-.049 2.13-2.13z"
        fill="currentColor"
      ></path>
    </g>
  </svg>