<svg viewBox="0 0 24 24" xmlns="http://www.w3.org/2000/svg">
    <g fill="none">
      <path
        fill-rule="evenodd"
        clip-rule="evenodd"
        d="M12.75 3a.75.75 0 0 0-1.5 0v6H6.8c-1.68 0-2.52 0-3.162.327a3 3 0 0 0-1.311 1.31C2 11.28 2 12.12 2 13.8v2.4c0 1.68 0 2.52.327 3.162a3 3 0 0 0 1.311 1.31C4.28 21 5.12 21 6.8 21h10.4c1.68 0 2.52 0 3.162-.327a3 3 0 0 0 1.311-1.311C22 18.72 22 17.88 22 16.2v-2.4c0-1.68 0-2.52-.327-3.162a3 3 0 0 0-1.311-1.311C19.72 9 18.88 9 17.2 9h-4.45V3zm0 6h-1.5v6.19l-2.72-2.72a.75.75 0 0 0-1.06 1.06l4 4a.75.75 0 0 0 1.06 0l4-4a.75.75 0 1 0-1.06-1.06l-2.72 2.72V9z"
        fill="currentColor"
      ></path>
    </g>
  </svg>