<svg viewBox="0 0 24 24" xmlns="http://www.w3.org/2000/svg">
    <g fill="none">
      <path
        fill-rule="evenodd"
        clip-rule="evenodd"
        d="M12.75 2a.75.75 0 0 0-1.5 0v8.19L9.53 8.47a.75.75 0 0 0-1.06 1.06l3 3a.75.75 0 0 0 1.06 0l3-3a.75.75 0 0 0-1.06-1.06l-1.72 1.72V2zM7.861 3.25h.889a.75.75 0 0 1 0 1.5h-.751c-.963 0-1.223.014-1.422.098a1.25 1.25 0 0 0-.516.403c-.129.172-.206.42-.44 1.355l-1.36 5.441c-.155.623-.223.896-.27 1.17-.07.421.273.783.702.783h1.594c.627 0 .94 0 1.224.086a2 2 0 0 1 .689.369c.229.188.403.449.75.97l.1.15c.347.521.521.782.75.97.204.167.438.292.69.369.283.086.596.086 1.223.086h.575c.626 0 .939 0 1.223-.086.251-.077.486-.202.689-.369.229-.189.403-.449.75-.97l.1-.15c.347-.521.521-.782.75-.97.204-.167.438-.292.69-.369.283-.086.597-.086 1.223-.086h1.594c.429 0 .772-.361.701-.784-.046-.273-.113-.546-.27-1.169l-1.36-5.441c-.233-.934-.31-1.183-.439-1.355a1.25 1.25 0 0 0-.516-.403c-.198-.084-.458-.098-1.421-.098h-.752a.75.75 0 0 1 0-1.5h.889c.757 0 1.35-.001 1.865.215.45.19.843.495 1.136.887.334.446.477 1.022.66 1.757l.034.133 1.36 5.442.008.033c.145.58.228.912.285 1.25a8.76 8.76 0 0 1 .104 2.01c-.022.342-.07.681-.155 1.273l-.005.034-.018.132c-.17 1.182-.277 1.938-.566 2.567a4.75 4.75 0 0 1-2.964 2.57c-.663.197-1.427.197-2.62.197H8.737c-1.194 0-1.958 0-2.62-.197a4.75 4.75 0 0 1-2.965-2.57c-.29-.63-.397-1.385-.565-2.567l-.02-.132-.004-.034c-.085-.592-.133-.931-.155-1.273a8.75 8.75 0 0 1 .104-2.01c.057-.338.14-.67.285-1.25l.008-.034 1.36-5.441.034-.133c.183-.735.326-1.31.66-1.757a2.75 2.75 0 0 1 1.136-.887c.515-.216 1.108-.216 1.865-.215z"
        fill="currentColor"
      ></path>
    </g>
  </svg>