<svg viewBox="0 0 24 24" xmlns="http://www.w3.org/2000/svg">
    <g fill="none">
      <path
        fill-rule="evenodd"
        clip-rule="evenodd"
        d="M12.53 1.47a.75.75 0 0 0-1.06 0l-3 3a.75.75 0 0 0 1.06 1.06l1.72-1.72V12a.75.75 0 0 0 1.5 0V3.81l1.72 1.72a.75.75 0 1 0 1.06-1.06l-3-3zM7.403 7.25H8a.75.75 0 1 1 0 1.5h-.5c-.69 0-.877.008-1.029.054a1.25 1.25 0 0 0-.603.401c-.1.123-.18.292-.445.93l-.675 1.62c-.212.508-.304.73-.38.953-.008.025-.013.037-.026.108-.093.5.337 1.101.84 1.174.071.01.116.01.206.01h.9c.626 0 .939 0 1.223.086a2 2 0 0 1 .689.369c.229.188.403.449.75.97l.1.15c.347.521.521.782.75.97.204.167.438.292.69.369.283.086.596.086 1.223.086h.574c.627 0 .94 0 1.224-.086a2 2 0 0 0 .689-.369c.229-.189.403-.449.75-.97l.1-.15c.347-.521.521-.782.75-.97.204-.167.438-.292.69-.369.283-.086.596-.086 1.223-.086h.9c.089 0 .134 0 .205-.01.503-.073.933-.675.84-1.174-.013-.07-.018-.083-.026-.108a16.187 16.187 0 0 0-.38-.952l-.675-1.621c-.266-.638-.345-.807-.445-.93a1.25 1.25 0 0 0-.603-.401c-.152-.046-.338-.054-1.029-.054H16a.75.75 0 0 1 0-1.5h.598c.546 0 .973 0 1.366.118.52.157.98.465 1.326.884.26.316.424.711.634 1.216l.038.09.675 1.62.011.028c.197.473.31.743.404 1.018a8.75 8.75 0 0 1 .442 3.483 16.8 16.8 0 0 1-.135 1.086l-.005.03-.011.08c-.103.723-.17 1.184-.301 1.585a4.75 4.75 0 0 1-3.676 3.188c-.415.074-.881.074-1.612.074H8.246c-.73 0-1.197 0-1.612-.074a4.75 4.75 0 0 1-3.676-3.188c-.132-.4-.198-.862-.3-1.585l-.012-.08-.005-.03c-.072-.507-.113-.797-.135-1.086a8.75 8.75 0 0 1 .442-3.483c.094-.275.207-.546.404-1.018l.011-.027.675-1.621.038-.09c.21-.505.374-.9.634-1.216a2.75 2.75 0 0 1 1.326-.884c.393-.119.82-.118 1.367-.118z"
        fill="currentColor"
      ></path>
    </g>
  </svg>