<svg viewBox="0 0 24 24" xmlns="http://www.w3.org/2000/svg">
    <g fill="none">
      <path
        fill-rule="evenodd"
        clip-rule="evenodd"
        d="M10.58 2.25H13.42c.886 0 1.593 0 2.17.042.594.044 1.102.134 1.584.34a4.75 4.75 0 0 1 1.977 1.578c.308.425.509.9.683 1.469.169.554.325 1.243.522 2.108l.006.028.9 3.959.008.033c.133.585.209.92.258 1.26a8.75 8.75 0 0 1 .075 1.82c-.022.342-.07.682-.155 1.276l-.005.034-.02.14c-.18 1.257-.294 2.06-.613 2.723a4.75 4.75 0 0 1-2.846 2.468c-.701.223-1.513.222-2.782.222H8.817c-1.269 0-2.08 0-2.782-.222a4.75 4.75 0 0 1-2.846-2.468c-.319-.663-.434-1.466-.613-2.722l-.02-.14-.005-.035c-.084-.593-.133-.934-.155-1.276a8.75 8.75 0 0 1 .074-1.82c.05-.34.126-.675.26-1.26l.007-.033.9-3.959.006-.028c.196-.865.353-1.554.522-2.108.174-.569.375-1.044.683-1.469a4.75 4.75 0 0 1 1.977-1.577c.482-.207.99-.297 1.583-.34.578-.043 1.284-.043 2.172-.043zM8.518 3.788c-.507.037-.832.108-1.103.224a3.25 3.25 0 0 0-1.353 1.08c-.173.238-.314.54-.462 1.025-.151.496-.296 1.131-.5 2.03l-.9 3.96c-.143.627-.205.902-.245 1.177-.057.388.259.716.65.716h1.682c.626 0 .94 0 1.224.086a2 2 0 0 1 .688.369c.23.188.404.449.75.97l.101.15c.347.521.52.782.75.97.204.167.438.292.69.369.283.086.596.086 1.223.086h.574c.627 0 .94 0 1.224-.086a2 2 0 0 0 .689-.369c.229-.189.403-.449.75-.97l.1-.15c.347-.521.521-.782.75-.97.203-.167.438-.292.69-.369.283-.086.596-.086 1.223-.086h1.681c.392 0 .708-.328.651-.716-.04-.275-.102-.55-.245-1.178l-.9-3.958c-.204-.9-.349-1.535-.5-2.03-.148-.487-.29-.788-.462-1.027a3.25 3.25 0 0 0-1.353-1.08c-.27-.115-.596-.186-1.103-.223-.516-.038-1.168-.038-2.09-.038h-2.783c-.923 0-1.575 0-2.091.038zM10 6.25a.75.75 0 1 0 0 1.5h4a.75.75 0 0 0 0-1.5h-4zm-2 3a.75.75 0 1 0 0 1.5h8a.75.75 0 0 0 0-1.5H8z"
        fill="currentColor"
      ></path>
    </g>
  </svg>