<svg viewBox="0 0 24 24" xmlns="http://www.w3.org/2000/svg">
    <g fill="none">
      <path
        fill-rule="evenodd"
        clip-rule="evenodd"
        d="M10.609 2.25h-.03c-.887 0-1.593 0-2.17.042-.594.044-1.102.134-1.584.34A4.75 4.75 0 0 0 4.848 4.21c-.308.425-.509.9-.683 1.469-.169.554-.325 1.243-.522 2.108l-.007.028-.86 3.785-.006.03c-.133.582-.207.91-.26 1.243a9.75 9.75 0 0 0-.09 2.21c.025.336.073.67.157 1.26l.005.031.017.123c.158 1.106.259 1.812.517 2.404a4.75 4.75 0 0 0 3.086 2.677c.623.172 1.337.172 2.453.172h6.69c1.116 0 1.83 0 2.453-.172a4.75 4.75 0 0 0 3.086-2.677c.258-.592.36-1.298.517-2.404l.018-.123.004-.03c.084-.591.132-.925.156-1.261a9.75 9.75 0 0 0-.09-2.21 18.827 18.827 0 0 0-.259-1.243l-.006-.03-.86-3.785-.007-.028c-.197-.865-.353-1.554-.522-2.108-.174-.569-.375-1.044-.683-1.469a4.75 4.75 0 0 0-1.977-1.577c-.482-.207-.99-.297-1.583-.34-.578-.043-1.285-.043-2.172-.043H10.61zM7.415 4.012c.27-.116.596-.187 1.103-.224.516-.038 1.168-.038 2.09-.038h2.783c.923 0 1.575 0 2.091.038.507.037.832.108 1.103.224a3.25 3.25 0 0 1 1.353 1.08c.173.238.314.54.462 1.025.151.496.296 1.131.5 2.03l.86 3.785c.142.62.204.896.247 1.172.076.485-.32.896-.811.896h-1.483c-.627 0-.94 0-1.224.086a2 2 0 0 0-.689.369c-.229.188-.403.449-.75.97l-.1.15c-.347.521-.521.782-.75.97a2 2 0 0 1-.69.369c-.283.086-.596.086-1.223.086h-.574c-.627 0-.94 0-1.224-.086a2 2 0 0 1-.689-.369c-.229-.189-.403-.449-.75-.97l-.1-.15c-.347-.521-.521-.782-.75-.97a2 2 0 0 0-.69-.369C7.228 14 6.915 14 6.288 14H4.804c-.49 0-.887-.411-.811-.896.043-.275.105-.552.246-1.172l.86-3.784c.205-.9.35-1.535.5-2.03.15-.487.29-.788.463-1.027a3.25 3.25 0 0 1 1.353-1.08z"
        fill="currentColor"
      ></path>
    </g>
  </svg>