<svg
    viewBox="0 0 24 24"
    xmlns="http://www.w3.org/2000/svg"
   
   
  >
    <g fill="none">
      <path
        fill-rule="evenodd"
        clip-rule="evenodd"
        d="M3.60911 5.91797C4.95669 3.81312 7.31558 2.41797 10.0003 2.41797C14.1885 2.41797 17.5837 5.81314 17.5837 10.0013C17.5837 14.1895 14.1885 17.5846 10.0003 17.5846C7.31558 17.5846 4.95669 16.1895 3.60911 14.0846H11.667C13.9222 14.0846 15.7503 12.2565 15.7503 10.0013C15.7503 9.15417 15.4915 8.36522 15.0486 7.712C14.3156 6.63093 13.0747 5.91797 11.667 5.91797H3.60911ZM2.86838 7.41797C2.57627 8.22425 2.41699 9.09418 2.41699 10.0013C2.41699 10.7357 2.52139 11.4457 2.71616 12.1173L7.41554 7.41797H2.86838ZM10.0003 0.917969C4.98374 0.917969 0.916992 4.98472 0.916992 10.0013C0.916992 15.0179 4.98374 19.0846 10.0003 19.0846C15.0169 19.0846 19.0837 15.0179 19.0837 10.0013C19.0837 4.98472 15.0169 0.917969 10.0003 0.917969ZM4.37019 12.5846L9.53686 7.41797H11.667C12.3372 7.41797 12.948 7.67282 13.4077 8.09239L8.91549 12.5846H4.37019ZM11.0368 12.5846L14.1879 9.43355C14.2288 9.61605 14.2503 9.80601 14.2503 10.0013C14.2503 11.428 13.0937 12.5846 11.667 12.5846H11.0368Z"
        fill="currentColor"
      ></path>
    </g>
  </svg>