<svg viewBox="0 0 24 24" xmlns="http://www.w3.org/2000/svg">
    <g fill="none">
      <path
        fill="currentColor"
        fill-rule="evenodd"
        d="M2.97 3.84c-.22.43-.22.99-.22 2.11v1.1c0 1.12 0 1.68.22 2.1a2 2 0 0 0 .87.88c.43.22.99.22 2.11.22h1.1c1.12 0 1.68 0 2.1-.22a2 2 0 0 0 .88-.87c.22-.43.22-.99.22-2.11v-1.1c0-1.12 0-1.68-.22-2.1a2 2 0 0 0-.87-.88c-.43-.22-.99-.22-2.11-.22h-1.1c-1.12 0-1.68 0-2.1.22a2 2 0 0 0-.88.87Zm0 11c-.22.43-.22.99-.22 2.11v1.1c0 1.12 0 1.68.22 2.1a2 2 0 0 0 .87.88c.43.22.99.22 2.11.22h1.1c1.12 0 1.68 0 2.1-.22a2 2 0 0 0 .88-.87c.22-.43.22-.99.22-2.11v-1.1c0-1.12 0-1.68-.22-2.1a2 2 0 0 0-.87-.88c-.43-.22-.99-.22-2.11-.22h-1.1c-1.12 0-1.68 0-2.1.22a2 2 0 0 0-.88.87Zm10.78 2.11c0-1.12 0-1.68.22-2.1a2 2 0 0 1 .87-.88c.43-.22.99-.22 2.11-.22h1.1c1.12 0 1.68 0 2.1.22a2 2 0 0 1 .88.87c.22.43.22.99.22 2.11v1.1c0 1.12 0 1.68-.22 2.1a2 2 0 0 1-.87.88c-.43.22-.99.22-2.11.22h-1.1c-1.12 0-1.68 0-2.1-.22a2 2 0 0 1-.88-.87c-.22-.43-.22-.99-.22-2.11v-1.1Z" clip-rule="evenodd"/><path fill="#fff" d="M2.75 5.95H2h.75Zm.22-2.1L2.3 3.5l.67.34Zm-.22 3.2h.75-.75Zm.22 2.1-.67.35.67-.34Zm.87.88.34-.67-.34.67Zm5.32 0-.34-.67.34.67Zm.87-.87-.67-.34.67.34Zm.22-2.11H9.5h.75Zm0-1.1H11h-.75Zm-.22-2.1-.67.33.67-.34Zm-.87-.88.34-.67-.34.67Zm-5.32 0L3.5 2.3l.34.67ZM2.75 16.95H2h.75Zm.22-2.1.67.33-.67-.34Zm-.22 3.2h.75-.75Zm.22 2.1-.67.35.67-.34Zm.87.88.34-.67-.34.67Zm5.32 0-.34-.67.34.67Zm.87-.87.67.34-.67-.34Zm0-5.32-.67.34.67-.34Zm-.87-.87-.34.67.34-.67Zm-5.32 0 .34.67-.34-.67Zm10.13.87.67.34-.67-.34Zm.87-.87.34.67-.34-.67Zm5.32 0 .34-.67-.34.67Zm.87.87-.67.34.67-.34Zm.22 2.11h-.75.75Zm0 1.1H22h-.75Zm-.22 2.1-.67-.33.67.34Zm-.87.88-.34-.67.34.67Zm-5.32 0 .34-.67-.34.67Zm-.87-.87-.67.34.67-.34Zm-.22-14.41a.75.75 0 0 0 0 1.5v-1.5Zm7.5 1.5a.75.75 0 0 0 0-1.5v1.5Zm-4.5 3a.75.75 0 0 0 1.5 0h-1.5Zm1.5-7.5a.75.75 0 0 0-1.5 0h1.5ZM3.5 5.95c0-.57 0-.96.02-1.25.03-.29.07-.43.12-.52L2.3 3.5c-.17.34-.24.7-.27 1.08C2 4.95 2 5.4 2 5.95h1.5Zm0 1.1v-1.1H2v1.1h1.5Zm.14 1.77c-.05-.1-.1-.23-.12-.52-.02-.3-.02-.68-.02-1.25H2c0 .55 0 1 .03 1.37.03.38.1.74.27 1.08l1.34-.68Zm.54.54a1.25 1.25 0 0 1-.54-.54L2.3 9.5c.26.52.68.94 1.2 1.2l.68-1.34Zm1.77.14c-.57 0-.96 0-1.25-.02a1.36 1.36 0 0 1-.52-.12L3.5 10.7c.34.17.7.24 1.08.27.37.03.82.03 1.37.03V9.5Zm1.1 0h-1.1V11h1.1V9.5Zm1.77-.14c-.1.05-.23.1-.52.12-.3.02-.68.02-1.25.02V11c.55 0 1 0 1.37-.03.38-.03.74-.1 1.08-.27l-.68-1.34Zm.54-.54c-.12.23-.3.42-.54.54l.68 1.34c.52-.26.94-.68 1.2-1.2l-1.34-.68Zm.14-1.77c0 .57 0 .96-.02 1.25-.03.29-.07.43-.12.52l1.34.68c.17-.34.24-.7.27-1.08.03-.37.03-.82.03-1.37H9.5Zm0-1.1v1.1H11v-1.1H9.5Zm-.14-1.77c.05.1.1.23.12.52.02.3.02.68.02 1.25H11c0-.55 0-1-.03-1.37-.03-.38-.1-.74-.27-1.08l-1.34.68Zm-.54-.54c.23.12.42.3.54.54l1.34-.68a2.75 2.75 0 0 0-1.2-1.2l-.68 1.34ZM7.05 3.5c.57 0 .96 0 1.25.02.29.03.43.07.52.12L9.5 2.3a2.8 2.8 0 0 0-1.08-.27C8.05 2 7.6 2 7.05 2v1.5Zm-1.1 0h1.1V2h-1.1v1.5Zm-1.77.14c.1-.05.23-.1.52-.12.3-.02.68-.02 1.25-.02V2c-.55 0-1 0-1.37.03-.38.03-.74.1-1.08.27l.68 1.34Zm-.54.54c.12-.23.3-.42.54-.54L3.5 2.3c-.52.26-.94.68-1.2 1.2l1.34.68ZM3.5 16.95c0-.57 0-.96.02-1.25.03-.29.07-.43.12-.52L2.3 14.5c-.17.34-.24.7-.27 1.08-.03.37-.03.82-.03 1.37h1.5Zm0 1.1v-1.1H2v1.1h1.5Zm.14 1.77c-.05-.1-.1-.23-.12-.52-.02-.3-.02-.68-.02-1.25H2c0 .55 0 1 .03 1.37.03.38.1.74.27 1.08l1.34-.68Zm.54.54a1.25 1.25 0 0 1-.54-.54l-1.34.68c.26.52.68.94 1.2 1.2l.68-1.34Zm1.77.14c-.57 0-.96 0-1.25-.02a1.36 1.36 0 0 1-.52-.12L3.5 21.7c.34.17.7.24 1.08.27.37.03.82.03 1.37.03v-1.5Zm1.1 0h-1.1V22h1.1v-1.5Zm1.77-.14c-.1.05-.23.1-.52.12-.3.02-.68.02-1.25.02V22c.55 0 1 0 1.37-.03.38-.03.74-.1 1.08-.27l-.68-1.34Zm.54-.54c-.12.23-.3.42-.54.54l.68 1.34c.52-.26.94-.68 1.2-1.2l-1.34-.68Zm.14-1.77c0 .57 0 .96-.02 1.25-.03.29-.07.43-.12.52l1.34.68c.17-.34.24-.7.27-1.08.03-.37.03-.82.03-1.37H9.5Zm0-1.1v1.1H11v-1.1H9.5Zm-.14-1.77c.05.1.1.23.12.52.02.3.02.68.02 1.25H11c0-.55 0-1-.03-1.37-.03-.38-.1-.74-.27-1.08l-1.34.68Zm-.54-.54c.23.12.42.3.54.54l1.34-.68a2.75 2.75 0 0 0-1.2-1.2l-.68 1.34Zm-1.77-.14c.57 0 .96 0 1.25.02.29.03.43.07.52.12l.68-1.34c-.34-.17-.7-.24-1.08-.27C8.05 13 7.6 13 7.05 13v1.5Zm-1.1 0h1.1V13h-1.1v1.5Zm-1.77.14c.1-.05.23-.1.52-.12.3-.02.68-.02 1.25-.02V13c-.55 0-1 0-1.37.03-.38.03-.74.1-1.08.27l.68 1.34Zm-.54.54c.12-.23.3-.42.54-.54L3.5 13.3c-.52.26-.94.68-1.2 1.2l1.34.68Zm9.66-.68c-.17.34-.24.7-.27 1.08-.03.37-.03.82-.03 1.37h1.5c0-.57 0-.96.02-1.25.03-.29.07-.43.12-.52l-1.34-.68Zm1.2-1.2c-.52.26-.94.68-1.2 1.2l1.34.68c.12-.23.3-.42.54-.54l-.68-1.34Zm2.45-.3c-.55 0-1 0-1.37.03-.38.03-.74.1-1.08.27l.68 1.34c.1-.05.23-.1.52-.12.3-.02.68-.02 1.25-.02V13Zm1.1 0h-1.1v1.5h1.1V13Zm2.45.3c-.34-.17-.7-.24-1.08-.27-.37-.03-.82-.03-1.37-.03v1.5c.57 0 .96 0 1.25.02.29.03.43.07.52.12l.68-1.34Zm1.2 1.2a2.75 2.75 0 0 0-1.2-1.2l-.68 1.34c.23.12.42.3.54.54l1.34-.68Zm.3 2.45c0-.55 0-1-.03-1.37-.03-.38-.1-.74-.27-1.08l-1.34.68c.05.1.1.23.12.52.02.3.02.68.02 1.25H22Zm0 1.1v-1.1h-1.5v1.1H22Zm-.3 2.45c.17-.34.24-.7.27-1.08.03-.37.03-.82.03-1.37h-1.5c0 .57 0 .96-.02 1.25-.03.29-.07.43-.12.52l1.34.68Zm-1.2 1.2c.52-.26.94-.68 1.2-1.2l-1.34-.68c-.12.23-.3.42-.54.54l.68 1.34Zm-2.45.3c.55 0 1 0 1.37-.03.38-.03.74-.1 1.08-.27l-.68-1.34c-.1.05-.23.1-.52.12-.3.02-.68.02-1.25.02V22Zm-1.1 0h1.1v-1.5h-1.1V22Zm-2.45-.3c.34.17.7.24 1.08.27.37.03.82.03 1.37.03v-1.5c-.57 0-.96 0-1.25-.02a1.36 1.36 0 0 1-.52-.12l-.68 1.34Zm-1.2-1.2c.26.52.68.94 1.2 1.2l.68-1.34a1.25 1.25 0 0 1-.54-.54l-1.34.68Zm-.3-2.45c0 .55 0 1 .03 1.37.03.38.1.74.27 1.08l1.34-.68c-.05-.1-.1-.23-.12-.52-.02-.3-.02-.68-.02-1.25H13Zm0-1.1v1.1h1.5v-1.1H13Zm.75-9.7h3.75v-1.5h-3.75v1.5Zm3.75 0h3.75v-1.5H17.5v1.5Zm.75 3V6.5h-1.5v3.75h1.5Zm0-3.75V2.75h-1.5V6.5h1.5Z"/>
    </g>
  </svg>