<svg viewBox="0 0 24 24" xmlns="http://www.w3.org/2000/svg">
    <g fill="none">
      <path
        fill-rule="evenodd"
        clip-rule="evenodd"
        d="M5.17 2.25H18.83c.535 0 .98 0 1.345.03.38.03.736.098 1.073.27a2.75 2.75 0 0 1 1.202 1.202c.172.337.24.693.27 1.073.03.365.03.81.03 1.345v5.66c0 .535 0 .98-.03 1.345-.03.38-.098.736-.27 1.073a2.751 2.751 0 0 1-1.201 1.202c-.338.172-.694.24-1.074.27-.364.03-.81.03-1.345.03H5.17c-.535 0-.98 0-1.345-.03-.38-.03-.736-.098-1.073-.27A2.75 2.75 0 0 1 1.55 14.25c-.172-.338-.24-.694-.27-1.074-.03-.365-.03-.81-.03-1.345V6.17c0-.535 0-.98.03-1.345.03-.38.098-.736.27-1.073A2.75 2.75 0 0 1 2.752 2.55c.337-.172.693-.24 1.073-.27.365-.03.81-.03 1.345-.03zm4.83 8a.75.75 0 0 0 0 1.5h4a.75.75 0 0 0 0-1.5h-4zM7 11a1 1 0 1 1-2 0 1 1 0 0 1 2 0zm11 1a1 1 0 1 0 0-2 1 1 0 0 0 0 2zm1-5a1 1 0 1 1-2 0 1 1 0 0 1 2 0zM6 8a1 1 0 1 0 0-2 1 1 0 0 0 0 2zm5-1a1 1 0 1 1-2 0 1 1 0 0 1 2 0zm3 1a1 1 0 1 0 0-2 1 1 0 0 0 0 2zm-1.47 9.47a.75.75 0 0 0-1.06 0l-3 3a.75.75 0 1 0 1.06 1.06L12 19.06l2.47 2.47a.75.75 0 1 0 1.06-1.06l-3-3z"
        fill="currentColor"
      ></path>
    </g>
  </svg>