<svg viewBox="0 0 24 24" xmlns="http://www.w3.org/2000/svg">
    <g fill="none">
      <path
        fill-rule="evenodd"
        clip-rule="evenodd"
        d="M8.4 2.25h-.033c-1.092 0-1.958 0-2.655.057-.714.058-1.317.18-1.868.46a4.75 4.75 0 0 0-2.076 2.077c-.281.55-.403 1.154-.461 1.868-.057.697-.057 1.563-.057 2.655V14.633c0 1.092 0 1.958.057 2.655.058.714.18 1.317.46 1.869a4.75 4.75 0 0 0 2.077 2.075c.55.281 1.154.403 1.868.461.697.057 1.563.057 2.655.057H15.633c1.092 0 1.958 0 2.655-.057.714-.058 1.317-.18 1.869-.46a4.75 4.75 0 0 0 2.075-2.076c.281-.552.403-1.155.461-1.869.057-.697.057-1.563.057-2.655V9.367c0-1.092 0-1.958-.057-2.655-.058-.714-.18-1.317-.46-1.868a4.75 4.75 0 0 0-2.076-2.076c-.552-.281-1.155-.403-1.869-.461-.697-.057-1.563-.057-2.655-.057H8.4zm-1.4 6a.75.75 0 0 1 .75.75v2.25h2.5V9a.75.75 0 0 1 1.5 0v6a.75.75 0 0 1-1.5 0v-2.25h-2.5V15a.75.75 0 0 1-1.5 0V9A.75.75 0 0 1 7 8.25zM14.25 11a1.25 1.25 0 1 1 2.5 0v2a1.25 1.25 0 1 1-2.5 0v-2zm1.25-2.75A2.75 2.75 0 0 0 12.75 11v2a2.75 2.75 0 0 0 2.933 2.744l.787.786a.75.75 0 1 0 1.06-1.06l-.318-.318A2.745 2.745 0 0 0 18.25 13v-2a2.75 2.75 0 0 0-2.75-2.75z"
        fill="currentColor"
      ></path>
    </g>
  </svg>