<svg viewBox="0 0 24 24" xmlns="http://www.w3.org/2000/svg">
    <g fill="none">
      <path
        fill-rule="evenodd"
        clip-rule="evenodd"
        d="M6.17 4.25H17.83c.535 0 .98 0 1.345.03.38.03.736.098 1.073.27a2.75 2.75 0 0 1 1.202 1.202c.172.337.24.693.27 1.073.03.365.03.81.03 1.345v8.08h.917c.598 0 1.083.485 1.083 1.083a3.417 3.417 0 0 1-3.417 3.417H3.667A3.417 3.417 0 0 1 .25 17.333c0-.598.485-1.083 1.083-1.083h.917V8.17c0-.535 0-.98.03-1.345.03-.38.098-.736.27-1.073A2.75 2.75 0 0 1 3.752 4.55c.337-.172.693-.24 1.073-.27.365-.03.81-.03 1.345-.03zM20.25 8.2v8.05H3.75V8.2c0-.572 0-.957.025-1.253.023-.287.065-.424.111-.514a1.25 1.25 0 0 1 .547-.547c.09-.046.227-.088.514-.111.296-.024.68-.025 1.253-.025h11.6c.572 0 .957 0 1.252.025.288.023.425.065.515.111.236.12.427.311.547.547.046.09.088.227.111.514.024.296.025.68.025 1.253z"
        fill="currentColor"
      ></path>
    </g>
  </svg>