<svg viewBox="0 0 24 24" xmlns="http://www.w3.org/2000/svg">
    <g fill="none">
      <path
        fill-rule="evenodd"
        clip-rule="evenodd"
        d="M10.821 14.761a.563.563 0 0 0-.62.1l-3.628 3.627a.478.478 0 0 0 .04.723A8.96 8.96 0 0 0 12 21a8.96 8.96 0 0 0 5.387-1.79.478.478 0 0 0 .04-.722L13.8 14.86a.563.563 0 0 0-.621-.099A2.987 2.987 0 0 1 12 15c-.42 0-.818-.084-1.179-.239zm3.94-1.582c-.09.21-.062.459.1.62l3.627 3.628a.478.478 0 0 0 .723-.04A8.96 8.96 0 0 0 21 12a8.96 8.96 0 0 0-1.79-5.387.478.478 0 0 0-.722-.04L14.86 10.2a.563.563 0 0 0-.099.621c.155.361.239.759.239 1.179 0 .42-.084.817-.239 1.179zm-1.582-3.94c.21.09.459.062.62-.1l3.628-3.627a.478.478 0 0 0-.04-.723A8.96 8.96 0 0 0 12 3a8.96 8.96 0 0 0-5.387 1.79.478.478 0 0 0-.04.722L10.2 9.14c.161.161.41.189.62.099A2.987 2.987 0 0 1 12 9c.42 0 .817.084 1.179.239zM5.512 6.572a.478.478 0 0 0-.723.041A8.96 8.96 0 0 0 3 12a8.96 8.96 0 0 0 1.79 5.387.478.478 0 0 0 .722.04L9.14 13.8a.563.563 0 0 0 .099-.621A2.987 2.987 0 0 1 9 12c0-.42.084-.818.239-1.179a.562.562 0 0 0-.1-.62L5.513 6.572z"
        fill="currentColor"
      ></path>
    </g>
  </svg>