<svg viewBox="0 0 24 24" xmlns="http://www.w3.org/2000/svg">
    <g fill="none">
      <path
        fill-rule="evenodd"
        clip-rule="evenodd"
        d="M3.109 3.546C3 3.76 3 4.04 3 4.6v.8c0 .56 0 .84.109 1.054a1 1 0 0 0 .437.437C3.76 7 4.04 7 4.6 7h.8c.56 0 .84 0 1.054-.109a1 1 0 0 0 .437-.437C7 6.24 7 5.96 7 5.4v-.8c0-.56 0-.84-.109-1.054a1 1 0 0 0-.437-.437C6.24 3 5.96 3 5.4 3h-.8c-.56 0-.84 0-1.054.109a1 1 0 0 0-.437.437zM10.25 5a.75.75 0 0 1 .75-.75h10a.75.75 0 0 1 0 1.5H11a.75.75 0 0 1-.75-.75zm.75 6.25a.75.75 0 0 0 0 1.5h10a.75.75 0 0 0 0-1.5H11zm0 7a.75.75 0 0 0 0 1.5h10a.75.75 0 0 0 0-1.5H11zM3 11.6c0-.56 0-.84.109-1.054a1 1 0 0 1 .437-.437C3.76 10 4.04 10 4.6 10h.8c.56 0 .84 0 1.054.109a1 1 0 0 1 .437.437C7 10.76 7 11.04 7 11.6v.8c0 .56 0 .84-.109 1.054a1 1 0 0 1-.437.437C6.24 14 5.96 14 5.4 14h-.8c-.56 0-.84 0-1.054-.109a1 1 0 0 1-.437-.437C3 13.24 3 12.96 3 12.4v-.8zm.109 5.946C3 17.76 3 18.04 3 18.6v.8c0 .56 0 .84.109 1.054a1 1 0 0 0 .437.437C3.76 21 4.04 21 4.6 21h.8c.56 0 .84 0 1.054-.109a1 1 0 0 0 .437-.437C7 20.24 7 19.96 7 19.4v-.8c0-.56 0-.84-.109-1.054a1 1 0 0 0-.437-.437C6.24 17 5.96 17 5.4 17h-.8c-.56 0-.84 0-1.054.109a1 1 0 0 0-.437.437z"
        fill="currentColor"
      ></path>
    </g>
  </svg>