<svg viewBox="0 0 24 24" xmlns="http://www.w3.org/2000/svg">
    <g fill="none">
      <path
        fill-rule="evenodd"
        clip-rule="evenodd"
        d="M5 7a2 2 0 1 0 0-4 2 2 0 0 0 0 4zm5.25-2a.75.75 0 0 1 .75-.75h10a.75.75 0 0 1 0 1.5H11a.75.75 0 0 1-.75-.75zm.75 6.25a.75.75 0 0 0 0 1.5h10a.75.75 0 0 0 0-1.5H11zm0 7a.75.75 0 0 0 0 1.5h10a.75.75 0 0 0 0-1.5H11zM7 12a2 2 0 1 1-4 0 2 2 0 0 1 4 0zm-2 9a2 2 0 1 0 0-4 2 2 0 0 0 0 4z"
        fill="currentColor"
      ></path>
    </g>
  </svg>