<svg viewBox="0 0 24 24" xmlns="http://www.w3.org/2000/svg">
    <g fill="none">
      <path
        fill-rule="evenodd"
        clip-rule="evenodd"
        d="M11.427 1.25h.598c.445 0 .816 0 1.12.02.318.022.617.07.907.19a2.75 2.75 0 0 1 1.489 1.488c.12.29.167.59.188.907.021.304.021.675.021 1.12v2.3c.19.008.369.018.538.032.714.058 1.317.18 1.869.46a4.75 4.75 0 0 1 2.075 2.077c.281.55.403 1.154.461 1.868.057.697.057 1.563.057 2.655V16a.75.75 0 0 1-1.5 0v-1.6c0-1.133 0-1.937-.052-2.566-.05-.62-.147-1.005-.302-1.31a3.25 3.25 0 0 0-1.42-1.42c-.305-.155-.69-.251-1.31-.302-.63-.051-1.434-.052-2.566-.052H12a.75.75 0 0 1 0-1.5h2.25V5c0-.476 0-.796-.017-1.043-.017-.241-.046-.358-.078-.435a1.25 1.25 0 0 0-.677-.677c-.077-.032-.194-.061-.435-.078A17.091 17.091 0 0 0 12 2.75h-.5c-.5 0-.641.004-.744.024a1.25 1.25 0 0 0-.982.982c-.02.103-.024.243-.024.744h-1.5v-.073c0-.393 0-.696.053-.963a2.75 2.75 0 0 1 2.16-2.161c.268-.053.571-.053.964-.053zM3.53 2.47a.75.75 0 0 0-1.06 1.06l3.978 3.98A4.752 4.752 0 0 0 3.25 12v3.633c0 1.092 0 1.958.057 2.655.058.714.18 1.317.46 1.869a4.75 4.75 0 0 0 2.077 2.075c.55.281 1.154.403 1.868.461.697.057 1.563.057 2.655.057H18c1 0 1.876-.534 2.357-1.332l1.113 1.112a.75.75 0 1 0 1.06-1.06l-2-2-12-12-5-5z"
        fill="currentColor"
      ></path>
    </g>
  </svg>