<svg viewBox="0 0 24 24" xmlns="http://www.w3.org/2000/svg">
    <g fill="none">
      <path
        fill-rule="evenodd"
        clip-rule="evenodd"
        d="M11.17 1.25h1.855c.445 0 .816 0 1.12.02.318.022.617.07.907.19a2.75 2.75 0 0 1 1.489 1.488c.12.29.167.59.188.907.021.304.021.675.021 1.12V5h-1.5c0-.476 0-.796-.017-1.043-.017-.241-.046-.358-.078-.435a1.25 1.25 0 0 0-.677-.677c-.077-.032-.194-.061-.435-.078A17.091 17.091 0 0 0 13 2.75h-1.8c-.572 0-.957 0-1.253.025-.287.023-.424.065-.514.111a1.25 1.25 0 0 0-.547.547c-.046.09-.088.227-.111.514-.024.296-.025.68-.025 1.253v2.06c.476-.01 1.012-.01 1.617-.01h3.266c1.092 0 1.958 0 2.655.057.714.058 1.317.18 1.869.46a4.75 4.75 0 0 1 2.075 2.077c.281.55.403 1.154.461 1.868.057.697.057 1.563.057 2.655V15.633c0 1.092 0 1.958-.057 2.655-.058.714-.18 1.317-.46 1.869a4.75 4.75 0 0 1-2.076 2.075c-.552.281-1.155.403-1.869.461-.697.057-1.563.057-2.655.057h-3.266c-1.092 0-1.958 0-2.655-.057-.714-.058-1.317-.18-1.868-.46a4.75 4.75 0 0 1-2.076-2.076c-.281-.552-.403-1.155-.461-1.869-.057-.697-.057-1.563-.057-2.655V14.367c0-1.092 0-1.958.057-2.655.058-.714.18-1.317.46-1.868a4.75 4.75 0 0 1 2.077-2.076c.428-.218.888-.34 1.406-.411V5.17c0-.535 0-.98.03-1.345.03-.38.098-.736.27-1.073A2.75 2.75 0 0 1 8.752 1.55c.337-.172.693-.24 1.073-.27.365-.03.81-.03 1.345-.03zm.83 12a.75.75 0 0 1 .75.75v2a.75.75 0 0 1-1.5 0v-2a.75.75 0 0 1 .75-.75z"
        fill="currentColor"
      ></path>
    </g>
  </svg>