<svg viewBox="0 0 24 24" xmlns="http://www.w3.org/2000/svg">
    <g fill="none">
      <path
        fill-rule="evenodd"
        clip-rule="evenodd"
        d="M11.975 1.25h.05c.445 0 .816 0 1.12.02.318.022.617.07.907.19a2.75 2.75 0 0 1 1.489 1.488c.12.29.167.59.188.907.021.304.021.675.021 1.12v3.241a7.748 7.748 0 0 1 4 6.784.75.75 0 0 1-1.5 0A6.25 6.25 0 0 0 12 8.75a.75.75 0 0 1 0-1.5 7.75 7.75 0 0 1 2.25.332V5c0-.476 0-.796-.017-1.043-.017-.241-.046-.358-.078-.435a1.25 1.25 0 0 0-.677-.677c-.077-.032-.194-.061-.435-.078A17.091 17.091 0 0 0 12 2.75c-.476 0-.796 0-1.043.017-.241.017-.358.046-.435.078a1.25 1.25 0 0 0-.677.677c-.032.077-.061.194-.078.435A17.09 17.09 0 0 0 9.75 5h-1.5v-.025c0-.445 0-.816.02-1.12.022-.317.07-.617.19-.907a2.75 2.75 0 0 1 1.488-1.489c.29-.12.59-.167.907-.188.304-.021.675-.021 1.12-.021zM3.53 2.47a.75.75 0 0 0-1.06 1.06l5.106 5.106a7.75 7.75 0 1 0 10.788 10.788l3.106 3.106a.75.75 0 1 0 1.06-1.06l-3.782-3.782-9.436-9.436L3.53 2.47zM12.75 14a.75.75 0 0 0-1.5 0v2a.75.75 0 0 0 1.5 0v-2z"
        fill="currentColor"
      ></path>
    </g>
  </svg>