<svg viewBox="0 0 24 24" xmlns="http://www.w3.org/2000/svg">
    <g fill="none">
      <path
        fill-rule="evenodd"
        clip-rule="evenodd"
        d="M15.33 5.44c.836-.627 1.422-1.065 1.884-1.35.472-.291.694-.342.812-.34.375.008.727.184.958.48.073.092.166.3.216.853.05.54.05 1.272.05 2.317V14.6c0 1.045 0 1.776-.05 2.317-.05.552-.143.76-.216.853a1.25 1.25 0 0 1-.958.48c-.118.002-.34-.049-.812-.34-.462-.285-1.048-.723-1.884-1.35l-2.58-1.935v-7.25l2.58-1.935zm5.364-.494c.055.61.056 1.399.056 2.379a3.751 3.751 0 0 1 0 7.35c0 .98 0 1.769-.056 2.378-.056.614-.177 1.192-.529 1.642a2.75 2.75 0 0 1-2.108 1.054c-.571.012-1.106-.239-1.63-.562-.528-.325-1.168-.806-1.966-1.404l-.031-.023-2.68-2.01h-2v3.75a2.25 2.25 0 0 1-4.5 0v-3.809A4.751 4.751 0 0 1 6 6.25h5.75l2.68-2.01.031-.024c.798-.598 1.438-1.078 1.966-1.403.524-.324 1.059-.574 1.63-.563a2.75 2.75 0 0 1 2.108 1.054c.352.45.473 1.029.529 1.642z"
        fill="currentColor"
      ></path>
    </g>
  </svg>