<svg viewBox="0 0 24 24" xmlns="http://www.w3.org/2000/svg">
    <g fill="none">
      <path
        fill-rule="evenodd"
        clip-rule="evenodd"
        d="M10.4 2.25h-.104c-.78 0-1.32 0-1.826.144a3.75 3.75 0 0 0-1.237.619c-.42.318-.743.75-1.211 1.374l-.062.083-.6.8-.041.055c-.317.422-.537.714-.695 1.042a3.75 3.75 0 0 0-.304.914c-.07.357-.07.723-.07 1.25v7.701c0 .813 0 1.469.043 2 .045.546.14 1.026.366 1.47a3.75 3.75 0 0 0 1.638 1.64c.445.226.925.32 1.471.365.531.043 1.187.043 2 .043h4.464c.813 0 1.468 0 2-.043.546-.045 1.026-.14 1.47-.366a3.75 3.75 0 0 0 1.64-1.639c.226-.444.32-.924.364-1.47.044-.531.044-1.187.044-2V7.768c0-.813 0-1.469-.044-2-.044-.546-.139-1.026-.365-1.47a3.75 3.75 0 0 0-1.639-1.64c-.444-.226-.924-.32-1.47-.365-.532-.043-1.187-.043-2-.043H10.4zm-1.4 6a.75.75 0 0 1 .75.75v2a.75.75 0 1 1-1.5 0V9A.75.75 0 0 1 9 8.25zM15.75 7a.75.75 0 0 0-1.5 0v4a.75.75 0 1 0 1.5 0V7zM12 6.25a.75.75 0 0 1 .75.75v4a.75.75 0 1 1-1.5 0V7a.75.75 0 0 1 .75-.75z"
        fill="currentColor"
      ></path>
    </g>
  </svg>