<svg viewBox="0 0 24 24" xmlns="http://www.w3.org/2000/svg">
    <g fill="none">
      <path
        fill-rule="evenodd"
        clip-rule="evenodd"
        d="M8.25 4.888a3.638 3.638 0 0 1 3.638-3.638H12A3.75 3.75 0 0 1 15.75 5v6a.75.75 0 0 1-1.28.53L8.549 5.61a1.02 1.02 0 0 1-.299-.722zM2.47 2.47a.75.75 0 0 1 1.06 0l6 6 12 12a.75.75 0 1 1-1.06 1.06l-3.484-3.484a.709.709 0 0 1-.025.02c-1.273.991-2.8 1.512-4.211 1.648V22a.75.75 0 0 1-1.5 0v-2.287c-1.462-.14-3.05-.694-4.35-1.758-1.55-1.267-2.65-3.23-2.65-5.955a.75.75 0 0 1 1.5 0c0 2.275.9 3.812 2.1 4.794 1.224 1.002 2.8 1.456 4.15 1.456 1.264 0 2.729-.398 3.916-1.273l-1.227-1.227h-.921c-.813 0-1.469 0-2-.043-.546-.045-1.026-.14-1.47-.366a3.75 3.75 0 0 1-1.64-1.638c-.226-.445-.32-.925-.365-1.471-.043-.531-.043-1.187-.043-2V9.31L2.47 3.53a.75.75 0 0 1 0-1.06zm7.28 8.341c.003.54.01.955.038 1.298.037.454.107.715.207.912.216.424.56.768.984.984.197.1.458.17.912.207.343.028.758.035 1.298.037L9.75 10.811zm10 1.189a.75.75 0 0 0-1.5 0c0 .67-.078 1.274-.216 1.814a.75.75 0 1 0 1.453.372c.171-.67.263-1.398.263-2.186z"
        fill="currentColor"
      ></path>
    </g>
  </svg>