<svg viewBox="0 0 24 24" xmlns="http://www.w3.org/2000/svg">
    <g fill="none">
      <path
        fill-rule="evenodd"
        clip-rule="evenodd"
        d="M6 3a3 3 0 1 0 2.905 3.75H12a.75.75 0 0 0 0-1.5H8.905A3.001 3.001 0 0 0 6 3zm9 3a3 3 0 1 1 3.75 2.905V12a.75.75 0 0 1-1.5 0V8.905A3.001 3.001 0 0 1 15 6zm-8.25 6a.75.75 0 0 0-1.5 0v3.095a3.001 3.001 0 1 0 1.5 0V12zM12 17.25a.75.75 0 0 0 0 1.5h3.095A3.001 3.001 0 0 0 21 18a3 3 0 0 0-5.905-.75H12z"
        fill="currentColor"
      ></path>
    </g>
  </svg>