<svg viewBox="0 0 24 24" xmlns="http://www.w3.org/2000/svg">
    <g fill="none">
      <path
        fill-rule="evenodd"
        clip-rule="evenodd"
        d="M2.327 4.638C2 5.28 2 6.12 2 7.8v4.4c0 1.68 0 2.52.327 3.162a3 3 0 0 0 1.311 1.311C4.28 17 5.12 17 6.8 17h4.45v3.25H9a.75.75 0 0 0 0 1.5h6a.75.75 0 0 0 0-1.5h-2.25V17h4.45c1.68 0 2.52 0 3.162-.327a3 3 0 0 0 1.311-1.311C22 14.72 22 13.88 22 12.2V7.8c0-1.68 0-2.52-.327-3.162a3 3 0 0 0-1.311-1.311C19.72 3 18.88 3 17.2 3H6.8c-1.68 0-2.52 0-3.162.327a3 3 0 0 0-1.311 1.311z"
        fill="currentColor"
      ></path>
    </g>
  </svg>