<svg viewBox="0 0 24 24" xmlns="http://www.w3.org/2000/svg">
    <g fill="none">
      <path
        fill-rule="evenodd"
        clip-rule="evenodd"
        d="M9.789 8.03A2.03 2.03 0 0 1 9.75 8v.04l.039-.01zM20.25 6.96V13a3.75 3.75 0 1 0 1.5 3V5.966c0-.642 0-1.173-.037-1.599-.037-.439-.119-.85-.335-1.223a2.75 2.75 0 0 0-1.578-1.25c-.412-.125-.832-.11-1.268-.046-.423.062-.94.183-1.565.33l-.032.008-5.64 1.327-.025.006c-.42.098-.772.181-1.06.272-.302.094-.58.211-.837.4a2.75 2.75 0 0 0-.904 1.14c-.124.293-.174.59-.197.907-.022.3-.022.663-.022 1.094V16a3.75 3.75 0 1 0 1.5 3V9.585l10.5-2.625z"
        fill="currentColor"
      ></path>
    </g>
  </svg>