<svg viewBox="0 0 24 24" xmlns="http://www.w3.org/2000/svg">
    <g fill="none">
      <path
        fill-rule="evenodd"
        clip-rule="evenodd"
        d="M17.239 3.656c.685-.161 1.15-.27 1.512-.322.355-.052.523-.033.63 0 .289.093.535.288.69.548.058.096.115.255.146.613.032.364.033.842.033 1.545V13a3.75 3.75 0 1 0 1.5 3V6.006c0-.66 0-1.205-.038-1.643-.04-.45-.126-.873-.354-1.253a2.75 2.75 0 0 0-1.52-1.204c-.422-.135-.853-.122-1.301-.057-.435.063-.965.187-1.608.339l-.034.008-5.6 1.317-.025.006c-.42.099-.772.182-1.06.272-.302.095-.58.211-.837.4a2.75 2.75 0 0 0-.904 1.141c-.124.293-.174.59-.197.906-.022.301-.022.664-.022 1.094V16a3.75 3.75 0 1 0 1.5 3V7.358c0-.463 0-.77.018-1.01.017-.23.047-.347.082-.43a1.25 1.25 0 0 1 .41-.518c.073-.053.179-.109.4-.178.228-.072.528-.143.979-.249l5.6-1.317z"
        fill="currentColor"
      ></path>
    </g>
  </svg>