<svg viewBox="0 0 24 24" xmlns="http://www.w3.org/2000/svg">
    <g fill="none">
      <path
        fill-rule="evenodd"
        clip-rule="evenodd"
        d="M9.8 2.25h-.032c-.813 0-1.469 0-2 .043-.546.045-1.026.14-1.47.366a3.75 3.75 0 0 0-1.64 1.639 3.277 3.277 0 0 0-.302.955 9.46 9.46 0 0 0-.501.018 2.823 2.823 0 0 0-.907.188 2.75 2.75 0 0 0-1.489 1.489c-.12.29-.167.59-.188.907-.021.304-.021.675-.021 1.12V15.025c0 .445 0 .816.02 1.12.022.317.07.617.19.907a2.75 2.75 0 0 0 1.488 1.489c.29.12.59.167.907.188.15.01.317.016.501.018.058.341.15.657.303.956a3.75 3.75 0 0 0 1.639 1.638c.444.227.924.321 1.47.366.531.043 1.187.043 2 .043h4.464c.813 0 1.469 0 2-.043.546-.045 1.026-.14 1.47-.366a3.75 3.75 0 0 0 1.64-1.639c.152-.299.244-.614.302-.955a9.41 9.41 0 0 0 .501-.018c.317-.021.617-.068.907-.188a2.75 2.75 0 0 0 1.489-1.489c.12-.29.167-.59.188-.907.021-.304.021-.675.021-1.12V8.975c0-.445 0-.816-.02-1.12a2.822 2.822 0 0 0-.19-.907 2.75 2.75 0 0 0-1.488-1.489c-.29-.12-.59-.167-.907-.188a9.465 9.465 0 0 0-.501-.018 3.276 3.276 0 0 0-.303-.955 3.75 3.75 0 0 0-1.639-1.64c-.444-.226-.924-.32-1.47-.365-.531-.043-1.187-.043-2-.043H9.8zm10.243 14.983a6.49 6.49 0 0 1-.297.012c.004-.307.004-.644.004-1.013V7.768c0-.37 0-.706-.004-1.013.11.002.209.006.297.012.241.017.358.046.435.078.307.127.55.37.677.677.032.077.061.194.078.435.017.247.017.567.017 1.043v6c0 .476 0 .796-.017 1.043-.017.241-.046.358-.078.435a1.25 1.25 0 0 1-.677.677c-.077.032-.194.061-.435.078zm-15.793-1V7.767c0-.37 0-.706.004-1.013-.11.002-.209.006-.297.012-.241.017-.358.046-.435.078a1.25 1.25 0 0 0-.677.677c-.032.077-.061.194-.078.435A17.09 17.09 0 0 0 2.75 9v6c0 .476 0 .796.017 1.043.017.241.046.358.078.435.127.307.37.55.677.677.077.032.194.061.435.078.088.006.186.01.297.012-.004-.307-.004-.644-.004-1.013zM9.75 15a1.25 1.25 0 1 1 2.5 0 1.25 1.25 0 0 1-2.5 0zM11 12.25c.45 0 .875.108 1.25.3V7a.75.75 0 0 1 1.166-.624l3 2a.75.75 0 1 1-.832 1.248L13.75 8.401V15A2.75 2.75 0 1 1 11 12.25z"
        fill="currentColor"
      ></path>
    </g>
  </svg>