<svg viewBox="0 0 24 24" xmlns="http://www.w3.org/2000/svg">
    <g fill="none">
      <path
        fill-rule="evenodd"
        clip-rule="evenodd"
        d="M12.63.815a2.25 2.25 0 0 0-1.26 0c-.272.08-.5.216-.713.373-.2.147-.427.341-.687.564l-.02.017-1.264 1.084c-.274.234-.33.277-.384.306a.75.75 0 0 1-.199.074c-.06.013-.13.017-.49.017H6.335c-.394 0-.736 0-1.016.023-.297.024-.592.077-.876.222a2.25 2.25 0 0 0-.983.983c-.145.284-.198.579-.222.876-.023.28-.023.622-.023 1.017V7.62c0 .357-.004.427-.017.487a.75.75 0 0 1-.072.197c-.029.054-.071.11-.302.382L1.743 9.963l-.017.02c-.22.259-.41.484-.555.684a2.274 2.274 0 0 0-.367.709 2.25 2.25 0 0 0 0 1.248c.079.27.213.497.367.709.145.2.336.425.555.683l.017.02 1.082 1.277c.23.273.273.329.302.382a.75.75 0 0 1 .072.198c.013.06.017.13.017.487V17.629c0 .395 0 .736.023 1.017.024.297.077.591.222.875.216.424.56.768.983.984.284.144.579.198.876.222.28.023.621.023 1.017.023h1.275c.36 0 .431.004.491.017a.75.75 0 0 1 .2.073c.053.03.11.073.383.307l1.264 1.084.02.016c.26.224.486.418.687.565.213.156.441.293.714.372.41.12.847.12 1.258 0 .273-.079.5-.216.714-.372.2-.147.427-.341.687-.564l.02-.018 1.264-1.083c.274-.234.33-.277.384-.307a.752.752 0 0 1 .199-.073c.06-.013.13-.017.49-.017h1.242c.395 0 .736 0 1.017-.023.297-.024.592-.078.875-.222a2.25 2.25 0 0 0 .984-.984c.144-.284.198-.578.222-.875.023-.28.023-.622.023-1.017v-1.241c0-.36.004-.431.017-.492a.752.752 0 0 1 .073-.198c.03-.054.073-.11.307-.384l1.084-1.264.017-.02c.223-.26.417-.487.564-.687.156-.214.293-.441.373-.714a2.25 2.25 0 0 0 0-1.258c-.08-.273-.217-.5-.373-.714-.147-.2-.341-.427-.564-.687l-.017-.02-1.084-1.264c-.234-.274-.277-.33-.307-.384a.75.75 0 0 1-.073-.199c-.013-.06-.017-.13-.017-.491V6.37c0-.395 0-.736-.023-1.016-.024-.297-.078-.592-.222-.876a2.25 2.25 0 0 0-.983-.983c-.284-.145-.58-.198-.876-.222a13.42 13.42 0 0 0-1.017-.023H16.388c-.36 0-.431-.004-.491-.017a.75.75 0 0 1-.2-.074c-.053-.029-.11-.072-.383-.306L14.05 1.769l-.02-.017c-.26-.223-.486-.417-.687-.564a2.275 2.275 0 0 0-.714-.373zM12.75 8a.75.75 0 0 0-1.5 0v5a.75.75 0 0 0 1.5 0V8zm.25 8a1 1 0 1 1-2 0 1 1 0 0 1 2 0z"
        fill="currentColor"
      ></path>
    </g>
  </svg>