<svg viewBox="0 0 24 24" xmlns="http://www.w3.org/2000/svg">
    <g fill="none">
      <path
        fill-rule="evenodd"
        clip-rule="evenodd"
        d="M11.367 2.25H12.633c1.092 0 1.958 0 2.655.057.714.058 1.317.18 1.869.46a4.75 4.75 0 0 1 2.075 2.077c.281.55.403 1.154.461 1.868.057.697.057 1.563.057 2.655V14.633c0 1.092 0 1.958-.057 2.655-.058.714-.18 1.317-.46 1.869a4.75 4.75 0 0 1-2.076 2.075c-.552.281-1.155.403-1.869.461-.697.057-1.563.057-2.655.057H11.367c-1.092 0-1.958 0-2.655-.057-.714-.058-1.317-.18-1.868-.46a4.75 4.75 0 0 1-2.076-2.076c-.281-.552-.403-1.155-.461-1.869-.014-.169-.024-.348-.032-.538H3a.75.75 0 0 1 0-1.5h1.25v-2.5H3a.75.75 0 0 1 0-1.5h1.25V9.367 8.75H3a.75.75 0 0 1 0-1.5h1.275c.008-.19.018-.369.032-.538.058-.714.18-1.317.46-1.868a4.75 4.75 0 0 1 2.077-2.076c.55-.281 1.154-.403 1.868-.461.697-.057 1.563-.057 2.655-.057zM15.75 7a.75.75 0 0 0-1.5 0v4a.75.75 0 0 0 1.5 0V7z"
        fill="currentColor"
      ></path>
    </g>
  </svg>