<svg viewBox="0 0 24 24" xmlns="http://www.w3.org/2000/svg">
    <g fill="none">
      <path
        fill-rule="evenodd"
        clip-rule="evenodd"
        d="M9.4 2.25h-.033c-1.092 0-1.958 0-2.655.057-.714.058-1.317.18-1.868.46a4.75 4.75 0 0 0-2.076 2.077c-.281.55-.403 1.154-.461 1.868-.057.697-.057 1.563-.057 2.655V14.633c0 1.092 0 1.958.057 2.655.058.714.18 1.317.46 1.869a4.75 4.75 0 0 0 2.077 2.075c.55.281 1.154.403 1.868.461.697.057 1.563.057 2.655.057H14.443c.301 0 .567 0 .807-.005V19.17c0-.535 0-.98.03-1.345.03-.38.098-.736.27-1.073a2.751 2.751 0 0 1 1.201-1.202c.338-.172.694-.24 1.074-.27.364-.03.81-.03 1.345-.03H21.744c.005-.24.005-.506.005-.807V9.367c0-1.092 0-1.958-.057-2.655-.058-.714-.18-1.317-.46-1.868a4.75 4.75 0 0 0-2.076-2.076c-.552-.281-1.155-.403-1.869-.461-.697-.057-1.563-.057-2.655-.057H9.4zm12.137 14.5H19.2c-.572 0-.957 0-1.252.025-.288.023-.425.065-.515.111a1.25 1.25 0 0 0-.547.547c-.046.09-.088.227-.111.514-.024.296-.025.68-.025 1.253v2.337a4.75 4.75 0 0 0 1.075-.487c.48-.294.885-.7 1.514-1.328l.066-.066.25-.251.067-.066c.629-.629 1.034-1.034 1.328-1.514a4.75 4.75 0 0 0 .487-1.075zM6.25 7A.75.75 0 0 1 7 6.25h8a.75.75 0 0 1 0 1.5H7A.75.75 0 0 1 6.25 7zM7 10.25a.75.75 0 0 0 0 1.5h6a.75.75 0 0 0 0-1.5H7zM6.25 15a.75.75 0 0 1 .75-.75h2a.75.75 0 0 1 0 1.5H7a.75.75 0 0 1-.75-.75z"
        fill="currentColor"
      ></path>
    </g>
  </svg>