<svg viewBox="0 0 24 24" xmlns="http://www.w3.org/2000/svg">
    <g fill="none">
      <path
        fill-rule="evenodd"
        clip-rule="evenodd"
        d="M9.367 2.25H14.633c1.092 0 1.958 0 2.655.057.714.058 1.317.18 1.869.46a4.75 4.75 0 0 1 2.075 2.077c.281.55.403 1.154.461 1.868.057.697.057 1.563.057 2.655V14.443c0 .301 0 .567-.005.807H19.17c-.535 0-.98 0-1.345.03-.38.03-.736.098-1.073.27a2.751 2.751 0 0 0-1.202 1.201c-.172.338-.24.694-.27 1.074-.03.364-.03.81-.03 1.345V21.744c-.24.005-.506.005-.807.005H9.367c-1.092 0-1.958 0-2.655-.057-.714-.058-1.317-.18-1.868-.46a4.75 4.75 0 0 1-2.076-2.076c-.281-.552-.403-1.155-.461-1.869-.057-.697-.057-1.563-.057-2.655V9.367c0-1.092 0-1.958.057-2.655.058-.714.18-1.317.46-1.868a4.75 4.75 0 0 1 2.077-2.076c.55-.281 1.154-.403 1.868-.461.697-.057 1.563-.057 2.655-.057zm7.383 19.287a4.75 4.75 0 0 0 1.075-.487c.48-.294.885-.7 1.514-1.328l.066-.066.25-.251.067-.066c.629-.629 1.034-1.034 1.328-1.514a4.75 4.75 0 0 0 .487-1.075H19.2c-.572 0-.957 0-1.252.025-.288.023-.425.065-.515.111a1.25 1.25 0 0 0-.547.547c-.046.09-.088.227-.111.514-.024.296-.025.68-.025 1.253v2.337z"
        fill="currentColor"
      ></path>
    </g>
  </svg>