<svg viewBox="0 0 24 24" xmlns="http://www.w3.org/2000/svg">
    <g fill="none">
      <path
        fill-rule="evenodd"
        clip-rule="evenodd"
        d="M3.529 17.178c.218.237.518.403 1.117.736l5.8 3.223c.567.315.85.472 1.15.534.267.055.54.055.806 0 .3-.062.585-.22 1.152-.534l5.8-3.223c.599-.333.898-.499 1.116-.736.193-.209.34-.457.429-.727.1-.306.1-.649.1-1.334V8.883c0-.686 0-1.028-.1-1.334a2.002 2.002 0 0 0-.429-.728c-.218-.236-.517-.403-1.116-.736l-5.8-3.222c-.568-.315-.851-.472-1.152-.534a2 2 0 0 0-.805 0c-.3.062-.584.22-1.151.534l-5.8 3.222c-.6.333-.899.5-1.117.736a2 2 0 0 0-.428.728C3 7.855 3 8.197 3 8.883v6.234c0 .685 0 1.028.1 1.334a2 2 0 0 0 .429.727zM12 9a3 3 0 1 0 0 6 3 3 0 0 0 0-6z"
        fill="currentColor"
      ></path>
    </g>
  </svg>