<svg viewBox="0 0 24 24" xmlns="http://www.w3.org/2000/svg">
    <g fill="none">
      <path
        fill-rule="evenodd"
        clip-rule="evenodd"
        d="M6.2 2.25h-.03c-.535 0-.98 0-1.345.03-.38.03-.736.098-1.073.27A2.75 2.75 0 0 0 2.55 3.752c-.172.337-.24.693-.27 1.073-.03.365-.03.81-.03 1.345V17.83c0 .535 0 .98.03 1.345.03.38.098.736.27 1.073a2.75 2.75 0 0 0 1.202 1.202c.337.172.693.24 1.073.27.365.03.81.03 1.345.03H17.83c.535 0 .98 0 1.345-.03.38-.03.736-.098 1.073-.27a2.751 2.751 0 0 0 1.202-1.201c.172-.338.24-.694.27-1.074.03-.365.03-.81.03-1.345V6.17c0-.535 0-.98-.03-1.345-.03-.38-.098-.736-.27-1.073A2.75 2.75 0 0 0 20.25 2.55c-.338-.172-.694-.24-1.074-.27-.365-.03-.81-.03-1.345-.03H6.2zM6.75 10a.75.75 0 1 0-1.5 0v4a.75.75 0 0 0 1.5 0v-1.25h4.5v4.5H10a.75.75 0 0 0 0 1.5h4a.75.75 0 0 0 0-1.5h-1.25v-4.5h4.5V14a.75.75 0 0 0 1.5 0v-4a.75.75 0 0 0-1.5 0v1.25h-4.5v-4.5H14a.75.75 0 0 0 0-1.5h-4a.75.75 0 1 0 0 1.5h1.25v4.5h-4.5V10z"
        fill="currentColor"
      ></path>
    </g>
  </svg>