<svg viewBox="0 0 24 24" xmlns="http://www.w3.org/2000/svg">
    <g fill="none">
      <path
        fill-rule="evenodd"
        clip-rule="evenodd"
        d="M12.639.607a.75.75 0 0 0-1.278 0l-8 13a.75.75 0 0 0 .053.862l2.917 3.646A2 2 0 0 0 7 22h10a2 2 0 0 0 .669-3.885l2.917-3.646a.75.75 0 0 0 .053-.862l-8-13zM15.839 18l3.246-4.056L12.75 3.65V10a.752.752 0 0 1-.013.14 2 2 0 1 1-1.474 0 .752.752 0 0 1-.013-.14V3.65L4.915 13.944 8.16 18h7.68z"
        fill="currentColor"
      ></path>
    </g>
  </svg>