<svg viewBox="0 0 24 24" xmlns="http://www.w3.org/2000/svg">
    <g fill="none">
      <path
        fill-rule="evenodd"
        clip-rule="evenodd"
        d="M5.527 2.25h-.065c-.383 0-.686 0-.983.066-1.084.242-1.995 1.246-2.13 2.348-.038.302-.012.562.02.886l.004.046c.258 2.64.917 5.016 1.957 7.085 1.544 3.074 3.915 5.445 6.99 6.99 2.068 1.039 4.444 1.698 7.084 1.956l.047.005c.323.031.583.057.885.02 1.102-.136 2.106-1.047 2.348-2.13.066-.298.066-.6.066-.984v-.125c0-.332 0-.59-.042-.83a2.75 2.75 0 0 0-1.587-2.033c-.222-.099-.473-.161-.795-.242l-.058-.014-2.141-.535-.107-.027c-.6-.15-1.072-.269-1.539-.226a2.75 2.75 0 0 0-1.161.378c-.403.24-.714.614-1.111 1.089l-.07.084-1.67 1.997a13.897 13.897 0 0 1-5.523-5.523l1.997-1.67.084-.07c.476-.397.849-.708 1.09-1.111.21-.354.34-.75.377-1.161.043-.467-.075-.939-.226-1.54l-.027-.106-.535-2.14-.014-.06c-.08-.321-.143-.572-.242-.793a2.75 2.75 0 0 0-2.034-1.588c-.238-.042-.497-.042-.829-.042h-.06z"
        fill="currentColor"
      ></path>
    </g>
  </svg>