<svg viewBox="0 0 24 24" xmlns="http://www.w3.org/2000/svg">
    <g fill="none">
      <path
        fill-rule="evenodd"
        clip-rule="evenodd"
        d="M16.646 3.09c1.286 1.242 2.104 3.073 2.104 5.429 0 2.95-1.55 5.437-3.06 7.165l-.023.027c-.248.285-.492.564-.809.807-.338.26-.73.456-1.268.647-.421.15-1.052.2-1.59.2s-1.168-.05-1.59-.2c-.539-.191-.93-.387-1.268-.647-.317-.243-.56-.522-.81-.807l-.023-.027C6.801 13.956 5.25 11.47 5.25 8.52c0-2.356.818-4.187 2.104-5.429C8.631 1.857 10.322 1.25 12 1.25s3.37.607 4.646 1.84zM5.688 15.547a.75.75 0 0 1-.39.987c-.577.251-.988.516-1.243.765-.254.247-.305.427-.305.537 0 .125.07.35.437.655.361.3.93.605 1.698.875 1.53.537 3.691.884 6.115.884 2.424 0 4.586-.347 6.115-.884.768-.27 1.337-.575 1.698-.875.366-.305.437-.53.437-.655 0-.11-.051-.29-.305-.537-.255-.25-.666-.514-1.244-.765a.75.75 0 1 1 .598-1.375c.673.292 1.262.645 1.694 1.066.434.423.757.966.757 1.61 0 .749-.433 1.356-.978 1.809-.549.457-1.299.834-2.16 1.137-1.727.607-4.065.969-6.612.969-2.547 0-4.885-.362-6.613-.97-.86-.302-1.61-.68-2.16-1.136-.544-.453-.977-1.06-.977-1.808 0-.645.323-1.188.757-1.61.432-.422 1.021-.775 1.694-1.067a.75.75 0 0 1 .987.388zM14 8a2 2 0 1 1-4 0 2 2 0 0 1 4 0z"
        fill="currentColor"
      ></path>
    </g>
  </svg>