<svg viewBox="0 0 24 24" xmlns="http://www.w3.org/2000/svg">
    <g fill="none">
      <path
        fill-rule="evenodd"
        clip-rule="evenodd"
        d="M20.75 10.148c0-2.915-1.08-5.158-2.747-6.667C16.35 1.984 14.163 1.25 12 1.25c-2.164 0-4.35.734-6.003 2.231C4.33 4.99 3.25 7.233 3.25 10.148c0 4.306 2.853 7.82 5.14 9.96l.016.015c.694.65 1.145 1.071 2.187 1.394.39.122.931.166 1.407.166s1.017-.045 1.408-.166c1.041-.323 1.492-.745 2.186-1.395l.016-.014c2.287-2.14 5.14-5.655 5.14-9.96zM12 7.25a.75.75 0 0 1 .75.75v2.25H15a.75.75 0 0 1 0 1.5h-2.25V14a.75.75 0 0 1-1.5 0v-2.25H9a.75.75 0 0 1 0-1.5h2.25V8a.75.75 0 0 1 .75-.75z"
        fill="currentColor"
      ></path>
    </g>
  </svg>