<svg viewBox="0 0 24 24" xmlns="http://www.w3.org/2000/svg">
    <g fill="none">
      <path
        fill-rule="evenodd"
        clip-rule="evenodd"
        d="M15.444 3.54c-2.192-1.087-4.936-1.051-7.09.104a.75.75 0 1 1-.708-1.322C10.23.935 13.487.895 16.11 2.196c2.662 1.32 4.64 4.006 4.64 7.952 0 1.486-.34 2.877-.876 4.144-.076.18-.156.356-.239.53a.75.75 0 1 1-1.354-.645c.074-.154.145-.31.211-.469.471-1.115.758-2.307.758-3.56 0-3.373-1.652-5.54-3.806-6.608zM2.47 2.47a.75.75 0 0 1 1.06 0l2.356 2.356 11.882 11.882 3.762 3.762a.75.75 0 0 1-1.06 1.06l-3.177-3.176a22.028 22.028 0 0 1-1.682 1.753l-.016.015c-.694.65-1.145 1.072-2.187 1.395-.39.121-.931.166-1.408.166-.476 0-1.016-.044-1.407-.166-1.042-.323-1.493-.745-2.187-1.394l-.016-.015c-2.287-2.14-5.14-5.654-5.14-9.96 0-1.825.423-3.391 1.156-4.682L2.47 3.53a.75.75 0 0 1 0-1.06zm8.78 5.408a2.25 2.25 0 0 1 2.872 2.872.75.75 0 1 0 1.414.5 3.75 3.75 0 0 0-4.786-4.786.75.75 0 1 0 .5 1.414z"
        fill="currentColor"
      ></path>
    </g>
  </svg>