<svg viewBox="0 0 24 24" xmlns="http://www.w3.org/2000/svg">
    <g fill="none">
      <path
        fill-rule="evenodd"
        clip-rule="evenodd"
        d="M7.875 5.015l.029.02 7.515 5.01.027.018c.31.207.585.39.794.558.215.174.444.395.574.709.178.429.178.911 0 1.34-.13.314-.359.536-.574.71-.209.167-.483.35-.794.557l-.027.019-7.515 5.01-.03.02c-.379.252-.706.47-.98.619-.275.149-.614.296-.998.273a1.75 1.75 0 0 1-1.292-.69c-.232-.307-.297-.672-.326-.983-.028-.31-.028-.704-.028-1.16V6.955c0-.456 0-.849.028-1.16.029-.31.094-.675.326-.982a1.75 1.75 0 0 1 1.292-.691c.384-.023.723.125.998.274.274.148.601.366.98.62zM20.75 5a.75.75 0 0 0-1.5 0v14a.75.75 0 0 0 1.5 0V5z"
        fill="currentColor"
      ></path>
    </g>
  </svg>