<svg viewBox="0 0 24 24" xmlns="http://www.w3.org/2000/svg">
    <g fill="none">
      <path
        fill-rule="evenodd"
        clip-rule="evenodd"
        d="M12 2.75c-.313 0-.622.015-.926.046a.75.75 0 1 1-.148-1.493c.353-.035.712-.053 1.074-.053 5.937 0 10.75 4.813 10.75 10.75S17.937 22.75 12 22.75c-.362 0-.72-.018-1.074-.053a.75.75 0 0 1 .148-1.493A9.25 9.25 0 1 0 12 2.75zm-3.313-.218a.75.75 0 0 1-.387.987c-.66.289-1.28.652-1.85 1.08a.75.75 0 1 1-.9-1.2c.661-.496 1.382-.919 2.15-1.254a.75.75 0 0 1 .987.387zM4.45 5.4a.75.75 0 0 1 .149 1.05 9.241 9.241 0 0 0-1.08 1.85.75.75 0 0 1-1.374-.6c.335-.768.758-1.489 1.255-2.15a.75.75 0 0 1 1.05-.15zm-2.327 4.854a.75.75 0 0 1 .673.82 9.368 9.368 0 0 0 0 1.852.75.75 0 1 1-1.493.148 10.871 10.871 0 0 1 0-2.148.75.75 0 0 1 .82-.672zm.409 5.059a.75.75 0 0 1 .987.387 9.24 9.24 0 0 0 1.08 1.85.75.75 0 1 1-1.2.9 10.74 10.74 0 0 1-1.254-2.15.75.75 0 0 1 .387-.987zm2.867 4.236a.75.75 0 0 1 1.05-.149A9.24 9.24 0 0 0 8.3 20.48a.75.75 0 0 1-.6 1.375A10.74 10.74 0 0 1 5.549 20.6a.75.75 0 0 1-.15-1.05zm7.476-10.534l.028.02 1.516 1.01.027.018c.31.207.585.39.794.558.215.173.444.395.574.709.178.429.178.911 0 1.34-.13.314-.359.536-.574.71-.209.167-.483.35-.794.557l-.027.018-1.516 1.01-.028.02c-.38.253-.707.47-.981.62-.275.148-.614.296-.998.273a1.75 1.75 0 0 1-1.292-.69c-.232-.308-.297-.672-.326-.983-.028-.31-.028-.704-.028-1.16V10.955c0-.456 0-.85.028-1.16.029-.31.094-.675.326-.982a1.75 1.75 0 0 1 1.292-.691c.384-.023.723.125.998.273.274.15.601.367.98.62z"
        fill="currentColor"
      ></path>
    </g>
  </svg>