<svg viewBox="0 0 24 24" xmlns="http://www.w3.org/2000/svg">
    <g fill="none">
      <path
        fill-rule="evenodd"
        clip-rule="evenodd"
        d="M3 5.25a.75.75 0 0 0 0 1.5h16a.75.75 0 0 0 0-1.5H3zm0 4a.75.75 0 0 0 0 1.5h12a.75.75 0 0 0 0-1.5H3zM2.25 14a.75.75 0 0 1 .75-.75h8a.75.75 0 0 1 0 1.5H3a.75.75 0 0 1-.75-.75zM3 17.25a.75.75 0 0 0 0 1.5h6a.75.75 0 0 0 0-1.5H3zm15.875-3.235l.029.02 1.515 1.01.027.018c.31.207.585.39.794.558.215.173.444.395.574.709.178.429.178.911 0 1.34-.13.314-.359.535-.574.71-.209.167-.483.35-.794.557l-.027.018-1.515 1.01-.03.02c-.379.253-.706.47-.98.62-.275.148-.614.296-.998.273a1.75 1.75 0 0 1-1.292-.69c-.232-.308-.297-.672-.326-.983-.028-.31-.028-.704-.028-1.16V15.955c0-.456 0-.85.028-1.16.029-.31.094-.675.326-.982a1.75 1.75 0 0 1 1.292-.691c.384-.023.723.125.998.273.274.15.601.367.98.62z"
        fill="currentColor"
      ></path>
    </g>
  </svg>