<svg viewBox="0 0 24 24" xmlns="http://www.w3.org/2000/svg">
    <g fill="none">
      <path
        fill-rule="evenodd"
        clip-rule="evenodd"
        d="M2.25 5A.75.75 0 0 1 3 4.25h16a.75.75 0 0 1 0 1.5H3A.75.75 0 0 1 2.25 5zm0 4A.75.75 0 0 1 3 8.25h12a.75.75 0 0 1 0 1.5H3A.75.75 0 0 1 2.25 9zM3 12.25a.75.75 0 0 0 0 1.5h8a.75.75 0 0 0 0-1.5H3zM2.25 17a.75.75 0 0 1 .75-.75h6a.75.75 0 0 1 0 1.5H3a.75.75 0 0 1-.75-.75zM17 16.25A2.75 2.75 0 1 0 19.75 19v-6.599l1.834 1.223a.75.75 0 1 0 .832-1.248l-3-2A.75.75 0 0 0 18.25 11v5.55c-.375-.192-.8-.3-1.25-.3z"
        fill="currentColor"
      ></path>
    </g>
  </svg>