<svg viewBox="0 0 24 24" xmlns="http://www.w3.org/2000/svg">
    <g fill="none">
      <path
        fill-rule="evenodd"
        clip-rule="evenodd"
        d="M12 1.25C6.063 1.25 1.25 6.063 1.25 12S6.063 22.75 12 22.75 22.75 17.937 22.75 12 17.937 1.25 12 1.25zm.875 7.765l.028.02 1.516 1.01.027.018c.31.207.585.39.794.558.215.173.444.395.574.709.178.429.178.911 0 1.34-.13.314-.359.536-.574.71-.209.167-.483.35-.794.557l-.027.018-1.516 1.01-.028.02c-.38.253-.707.47-.981.62-.275.148-.614.296-.998.273a1.75 1.75 0 0 1-1.292-.69c-.232-.308-.297-.672-.326-.983-.028-.31-.028-.704-.028-1.16V10.955c0-.456 0-.85.028-1.16.029-.31.094-.675.326-.982a1.75 1.75 0 0 1 1.292-.691c.384-.023.723.125.998.273.274.15.601.367.98.62z"
        fill="currentColor"
      ></path>
    </g>
  </svg>