<svg viewBox="0 0 24 24" xmlns="http://www.w3.org/2000/svg">
    <g fill="none">
      <path
        fill-rule="evenodd"
        clip-rule="evenodd"
        d="M17.106 4.396c.275-.15.614-.297.998-.274.511.03.983.283 1.292.69.232.308.297.672.326.983.028.311.028.704.028 1.16v10.09c0 .456 0 .85-.028 1.16-.029.311-.094.676-.326.982a1.75 1.75 0 0 1-1.292.691c-.384.023-.723-.124-.998-.273-.274-.149-.601-.367-.98-.62l-.03-.02-7.515-5.01-.027-.018c-.31-.207-.585-.39-.794-.558-.215-.173-.444-.395-.574-.708a1.75 1.75 0 0 1 0-1.341c.13-.314.359-.535.574-.71.209-.167.483-.35.794-.557l.027-.018 7.515-5.01.03-.02c.379-.253.706-.47.98-.62zM4.75 5a.75.75 0 1 0-1.5 0v14a.75.75 0 0 0 1.5 0V5z"
        fill="currentColor"
      ></path>
    </g>
  </svg>