<svg viewBox="0 0 24 24" xmlns="http://www.w3.org/2000/svg">
    <g fill="none">
      <path
        fill-rule="evenodd"
        clip-rule="evenodd"
        d="M9 2.25a.75.75 0 0 1 .75.75v2a.75.75 0 1 1-1.5 0V3A.75.75 0 0 1 9 2.25zm-5.47.22a.75.75 0 0 0-1.06 1.06l3.826 3.827a2.312 2.312 0 0 0-.544.193A2.75 2.75 0 0 0 4.55 8.752c-.172.337-.24.693-.27 1.073-.03.365-.03.81-.03 1.345V13.443c0 .888 0 1.461.131 2.009.117.485.309.948.569 1.373.294.48.7.885 1.328 1.514l.066.066 2.188 2.188.052.051c.295.297.528.53.808.7.246.151.514.263.795.33.318.076.647.076 1.066.076H12.747c.419 0 .748 0 1.066-.076a2.75 2.75 0 0 0 .795-.33c.28-.17.512-.404.808-.7l.052-.05L17.5 18.56l2.97 2.97a.75.75 0 1 0 1.06-1.061l-3.5-3.5-9.5-9.5-5-5zM15.8 8.75c.572 0 .957 0 1.252.025.288.023.425.065.515.111.236.12.427.311.547.547.046.09.088.227.111.514.024.296.025.68.025 1.253v2.149c0 .246 0 .457-.002.644a.75.75 0 1 0 1.5.014c.002-.195.002-.412.002-.656V11.17c0-.535 0-.98-.03-1.345-.03-.38-.098-.736-.27-1.073A2.75 2.75 0 0 0 18.25 7.55c-.338-.172-.694-.24-1.074-.27-.365-.03-.81-.03-1.345-.03h-.08V3a.75.75 0 0 0-1.5 0v4.25H12a.75.75 0 0 0 0 1.5h3.8z"
        fill="currentColor"
      ></path>
    </g>
  </svg>