<svg viewBox="0 0 24 24" xmlns="http://www.w3.org/2000/svg">
    <g fill="none">
      <path
        fill-rule="evenodd"
        clip-rule="evenodd"
        d="M9 2.25a.75.75 0 0 1 .75.75v4.25h4.5V3a.75.75 0 0 1 1.5 0v4.25h.08c.535 0 .98 0 1.345.03.38.03.736.098 1.073.27a2.75 2.75 0 0 1 1.202 1.202c.172.337.24.693.27 1.073.03.365.03.81.03 1.345V13.442c0 .888 0 1.461-.131 2.009a4.752 4.752 0 0 1-.569 1.373c-.294.48-.7.885-1.328 1.514l-.066.066-2.188 2.188-.052.051c-.296.297-.528.53-.808.7a2.75 2.75 0 0 1-.794.33c-.319.076-.648.076-1.067.076H11.253c-.419 0-.748 0-1.066-.076a2.75 2.75 0 0 1-.795-.33c-.28-.17-.512-.404-.808-.7l-.052-.05-2.188-2.19-.066-.065c-.629-.629-1.034-1.034-1.328-1.514a4.75 4.75 0 0 1-.569-1.373c-.131-.548-.131-1.12-.131-2.01V11.17c0-.535 0-.98.03-1.345.03-.38.098-.736.27-1.073A2.75 2.75 0 0 1 5.752 7.55c.337-.172.693-.24 1.073-.27.365-.03.81-.03 1.345-.03h.08V3A.75.75 0 0 1 9 2.25z"
        fill="currentColor"
      ></path>
    </g>
  </svg>