<svg viewBox="0 0 24 24" xmlns="http://www.w3.org/2000/svg">
    <g fill="none">
      <path
        fill-rule="evenodd"
        clip-rule="evenodd"
        d="M2.436 4.184C2 5.04 2 6.16 2 8.4v7.2c0 2.24 0 3.36.436 4.216a4 4 0 0 0 1.748 1.748C5.04 22 6.16 22 8.4 22h7.2c2.24 0 3.36 0 4.216-.436a4 4 0 0 0 1.748-1.748C22 18.96 22 17.84 22 15.6V8.4c0-2.24 0-3.36-.436-4.216a4 4 0 0 0-1.748-1.748C18.96 2 17.84 2 15.6 2H8.4c-2.24 0-3.36 0-4.216.436a4 4 0 0 0-1.748 1.748zM12.75 8a.75.75 0 0 0-1.5 0v3.25H8a.75.75 0 0 0 0 1.5h3.25V16a.75.75 0 0 0 1.5 0v-3.25H16a.75.75 0 0 0 0-1.5h-3.25V8z"
        fill="currentColor"
      ></path>
    </g>
  </svg>