<svg viewBox="0 0 24 24" xmlns="http://www.w3.org/2000/svg">
    <g fill="none">
      <path
        fill-rule="evenodd"
        clip-rule="evenodd"
        d="M6.8 2.25h-.032c-.813 0-1.469 0-2 .043-.546.045-1.026.14-1.47.366a3.75 3.75 0 0 0-1.64 1.639c-.226.444-.32.924-.365 1.47-.043.531-.043 1.187-.043 2v8.464c0 .813 0 1.469.043 2 .045.546.14 1.026.366 1.47a3.75 3.75 0 0 0 1.639 1.64c.444.226.924.32 1.47.365.531.043 1.187.043 2 .043h4.464c.813 0 1.469 0 2-.043.546-.045 1.026-.14 1.47-.366a3.75 3.75 0 0 0 1.64-1.639c.226-.444.32-.924.365-1.47.012-.15.02-.311.027-.482H18.83c.535 0 .98 0 1.345-.03.38-.03.736-.098 1.073-.27a2.751 2.751 0 0 0 1.202-1.201c.172-.338.24-.694.27-1.074.03-.365.03-.81.03-1.345V10.17c0-.535 0-.98-.03-1.345-.03-.38-.098-.736-.27-1.073A2.75 2.75 0 0 0 21.25 6.55c-.338-.172-.694-.24-1.074-.27-.365-.03-.81-.03-1.345-.03H16.734a10.807 10.807 0 0 0-.027-.481c-.045-.547-.14-1.027-.366-1.471a3.75 3.75 0 0 0-1.639-1.64c-.444-.226-.924-.32-1.47-.365-.531-.043-1.187-.043-2-.043H6.8zm9.95 5.5v1.5h4.492a6.412 6.412 0 0 0-.017-.303c-.023-.287-.065-.424-.111-.514a1.25 1.25 0 0 0-.547-.547c-.09-.046-.227-.088-.515-.111-.295-.024-.68-.025-1.252-.025h-2.05zm4.5 3h-4.5v5.5h2.05c.572 0 .957 0 1.252-.025.288-.023.425-.065.515-.111a1.25 1.25 0 0 0 .547-.546c.046-.091.088-.228.111-.515.024-.296.025-.68.025-1.253v-3.05zM5 8c0-.465 0-.697.051-.888a1.5 1.5 0 0 1 1.06-1.06C6.304 6 6.536 6 7 6h4c.465 0 .697 0 .888.051a1.5 1.5 0 0 1 1.06 1.06C13 7.304 13 7.536 13 8s0 .697-.051.888a1.5 1.5 0 0 1-1.06 1.06C11.697 10 11.464 10 11 10H7c-.465 0-.697 0-.888-.051a1.5 1.5 0 0 1-1.06-1.06C5 8.696 5 8.464 5 8zm1 7a1 1 0 1 0 0-2 1 1 0 0 0 0 2zm1 2a1 1 0 1 1-2 0 1 1 0 0 1 2 0zm2-2a1 1 0 1 0 0-2 1 1 0 0 0 0 2zm1 2a1 1 0 1 1-2 0 1 1 0 0 1 2 0zm2-2a1 1 0 1 0 0-2 1 1 0 0 0 0 2zm1 2a1 1 0 1 1-2 0 1 1 0 0 1 2 0z"
        fill="currentColor"
      ></path>
    </g>
  </svg>