<svg viewBox="0 0 24 24" xmlns="http://www.w3.org/2000/svg">
    <g fill="none">
      <path
        fill-rule="evenodd"
        clip-rule="evenodd"
        d="M1.25 3A.75.75 0 0 1 2 2.25h20a.75.75 0 0 1 0 1.5h-2v6.45c0 1.68 0 2.52-.327 3.162a3 3 0 0 1-1.311 1.311C17.72 15 16.88 15 15.2 15h-2.45v2.575l4.636 2.782a.75.75 0 1 1-.772 1.286l-3.864-2.318V21a.75.75 0 0 1-1.5 0v-1.675l-3.864 2.318a.75.75 0 1 1-.772-1.286l4.636-2.782V15H8.8c-1.68 0-2.52 0-3.162-.327a3 3 0 0 1-1.311-1.311C4 12.72 4 11.88 4 10.2V3.75H2A.75.75 0 0 1 1.25 3zm15.166 5.624a.75.75 0 0 0-.832-1.248l-2.489 1.659L11.53 7.47a.75.75 0 0 0-.946-.094l-3 2a.75.75 0 1 0 .832 1.248l2.488-1.659 1.565 1.565a.75.75 0 0 0 .947.094l3-2z"
        fill="currentColor"
      ></path>
    </g>
  </svg>