<svg viewBox="0 0 24 24" xmlns="http://www.w3.org/2000/svg">
    <g fill="none">
      <path
        fill-rule="evenodd"
        clip-rule="evenodd"
        d="M9.2 2.25h-.03c-.535 0-.98 0-1.345.03-.38.03-.736.098-1.073.27A2.75 2.75 0 0 0 5.55 3.752c-.172.337-.24.693-.27 1.073-.03.365-.03.81-.03 1.345V8c0 .04.003.08.01.118a2.406 2.406 0 0 0-.622.209 3 3 0 0 0-1.311 1.311C3 10.28 3 11.12 3 12.8V15c0 1.398.956 2.573 2.25 2.905v.12c0 .445 0 .816.02 1.12.022.317.07.617.19.907a2.75 2.75 0 0 0 1.488 1.489c.29.12.59.167.907.188.304.021.675.021 1.12.021H15.025c.445 0 .816 0 1.12-.02.317-.022.617-.069.907-.19a2.75 2.75 0 0 0 1.489-1.488c.12-.29.167-.59.188-.907.021-.304.021-.675.021-1.12V17.905A3.001 3.001 0 0 0 21 15v-2.2c0-1.68 0-2.52-.327-3.162a3 3 0 0 0-1.311-1.311 2.407 2.407 0 0 0-.621-.21A.748.748 0 0 0 18.75 8V6.17c0-.535 0-.98-.03-1.345-.03-.38-.098-.736-.27-1.073A2.75 2.75 0 0 0 17.25 2.55c-.338-.172-.694-.24-1.074-.27-.365-.03-.81-.03-1.345-.03H9.2zm8.05 5.754V6.2c0-.572 0-.957-.025-1.253-.023-.287-.065-.424-.111-.514a1.25 1.25 0 0 0-.547-.547c-.09-.046-.227-.088-.515-.111-.295-.024-.68-.025-1.252-.025H9.2c-.572 0-.957 0-1.253.025-.287.023-.424.065-.514.111a1.25 1.25 0 0 0-.547.547c-.046.09-.088.227-.111.514-.024.296-.025.68-.025 1.253v1.804C7.06 8 7.407 8 7.8 8h8.4c.393 0 .74 0 1.05.004zM6 10.25a.75.75 0 0 0 0 1.5h1a.75.75 0 0 0 0-1.5H6zm1.522 5.595c.077-.032.194-.061.435-.078A17.07 17.07 0 0 1 9 15.75h6c.476 0 .796 0 1.043.017.241.017.358.046.435.078.307.127.55.37.677.677.032.077.061.194.078.435.017.247.017.567.017 1.043s0 .796-.017 1.043c-.017.241-.046.358-.078.435a1.25 1.25 0 0 1-.677.677c-.077.032-.194.061-.435.078-.247.017-.567.017-1.043.017H9c-.476 0-.796 0-1.043-.017-.241-.017-.358-.046-.435-.078a1.25 1.25 0 0 1-.677-.677c-.032-.077-.061-.194-.078-.435A17.091 17.091 0 0 1 6.75 18c0-.476 0-.796.017-1.043.017-.241.046-.358.078-.435.127-.307.37-.55.677-.677z"
        fill="currentColor"
      ></path>
    </g>
  </svg>