<svg viewBox="0 0 24 24" xmlns="http://www.w3.org/2000/svg">
    <g fill="none">
      <path
        fill-rule="evenodd"
        clip-rule="evenodd"
        d="M8 1.25a.75.75 0 0 1 .75.75v2.254c.309-.004.647-.004 1.018-.004h1.482V2a.75.75 0 0 1 1.5 0v2.25h1.482c.371 0 .71 0 1.018.004V2a.75.75 0 0 1 1.5 0v2.356c.34.058.654.15.953.303a3.75 3.75 0 0 1 1.638 1.639c.075.146.135.297.184.452H22a.75.75 0 0 1 0 1.5h-2.266c.016.433.016.935.016 1.518v.982H22a.75.75 0 0 1 0 1.5h-2.25v2.5H22a.75.75 0 0 1 0 1.5h-2.295c-.045.539-.14 1.013-.364 1.453a3.75 3.75 0 0 1-1.639 1.638 3.278 3.278 0 0 1-.952.303V22a.75.75 0 0 1-1.5 0v-2.254c-.309.004-.647.004-1.018.004H12.75V22a.75.75 0 0 1-1.5 0v-2.25H9.767c-.37 0-.709 0-1.017-.004V22a.75.75 0 0 1-1.5 0v-2.356a3.276 3.276 0 0 1-.952-.303 3.75 3.75 0 0 1-1.64-1.639c-.223-.439-.318-.913-.363-1.452H2a.75.75 0 0 1 0-1.5h2.25v-2.5H2a.75.75 0 0 1 0-1.5h2.25v-.982c0-.583 0-1.085.016-1.518H2a.75.75 0 0 1 0-1.5h2.475c.049-.155.11-.306.184-.452a3.75 3.75 0 0 1 1.639-1.64c.298-.151.612-.244.952-.302V2A.75.75 0 0 1 8 1.25zM18.25 11.5V9.8c0-.852 0-1.447-.038-1.91-.038-.453-.107-.714-.207-.911a2.25 2.25 0 0 0-.983-.984c-.198-.1-.459-.17-.913-.207-.462-.037-1.057-.038-1.909-.038H9.8c-.852 0-1.447 0-1.91.038-.453.037-.714.107-.911.207a2.25 2.25 0 0 0-.984.984c-.1.197-.17.458-.207.912-.037.462-.038 1.057-.038 1.909v4.4c0 .853 0 1.447.038 1.91.037.453.107.714.207.912.216.423.56.767.984.983.197.1.458.17.912.207.462.037 1.057.038 1.909.038h4.4c.853 0 1.447 0 1.91-.038.453-.038.714-.107.912-.207.423-.216.767-.56.983-.983.1-.198.17-.459.207-.913.037-.462.038-1.057.038-1.909v-2.7zM8.163 8.819C8 9.139 8 9.559 8 10.4v3.2c0 .84 0 1.26.163 1.581a1.5 1.5 0 0 0 .656.655c.32.164.74.164 1.581.164h3.2c.84 0 1.26 0 1.581-.164a1.5 1.5 0 0 0 .655-.655c.164-.32.164-.74.164-1.581v-3.2c0-.84 0-1.26-.164-1.581a1.5 1.5 0 0 0-.655-.656C14.861 8 14.441 8 13.6 8h-3.2c-.84 0-1.26 0-1.581.163a1.5 1.5 0 0 0-.656.656z"
        fill="currentColor"
      ></path>
    </g>
  </svg>