<svg viewBox="0 0 24 24" xmlns="http://www.w3.org/2000/svg">
    <g fill="none">
      <path
        fill-rule="evenodd"
        clip-rule="evenodd"
        d="M3.75 12a8.25 8.25 0 1 1 16.5 0 8.25 8.25 0 0 1-16.5 0zM12 2.25c-5.385 0-9.75 4.365-9.75 9.75s4.365 9.75 9.75 9.75 9.75-4.365 9.75-9.75S17.385 2.25 12 2.25zm.064 4.023C12 6.387 12 6.525 12 6.8v4.4c0 .28 0 .42-.055.527a.5.5 0 0 1-.218.218C11.62 12 11.48 12 11.2 12H6.8c-.275 0-.413 0-.527.064a.541.541 0 0 0-.22.252c-.048.121-.032.241 0 .482a6 6 0 1 0 6.745-6.745c-.24-.032-.361-.048-.482 0a.541.541 0 0 0-.252.22z"
        fill="currentColor"
      ></path>
    </g>
  </svg>