<svg viewBox="0 0 24 24" xmlns="http://www.w3.org/2000/svg">
    <g fill="none">
      <path fill-rule="evenodd"
            clip-rule="evenodd"
            d="M12 2C6.477 2 2 6.477 2 12c0 1.244.3 2.454.66 3.465.265.746.455 1.282.584 1.686.135.422.17.607.175.68.014.218.01.307.003.373a2.014 2.014 0 0 1-.094.361c-.028.09-.09.227-.247.486a32.17 32.17 0 0 1-.688 1.057l-.225.337A1 1 0 0 0 3 22h9c5.523 0 10-4.477 10-10S17.523 2 12 2zm1.333 5.5a.5.5 0 0 0-.916-.277l-3.333 5A.5.5 0 0 0 9.5 13h1.583v2.833a.5.5 0 0 0 .916.278l3.334-5a.5.5 0 0 0-.416-.778h-1.584V7.5z"
            fill="currentColor"
      ></path>
    </g>
  </svg>