<svg viewBox="0 0 24 24" xmlns="http://www.w3.org/2000/svg">
    <g fill="none">
      <path
        fill-rule="evenodd"
        clip-rule="evenodd"
        d="M17 12.25h-.025c-.445 0-.816 0-1.12.02a2.822 2.822 0 0 0-.907.19 2.77 2.77 0 0 0-.198.09c0-1.625.016-2.341.202-2.992a5.25 5.25 0 0 1 .866-1.731c.429-.566 1.03-1.025 2.472-2.107l.16-.12a.75.75 0 1 0-.9-1.2l-.16.12-.1.075c-1.313.984-2.095 1.571-2.667 2.325a6.75 6.75 0 0 0-1.114 2.226c-.26.91-.26 1.888-.26 3.53V15.5l.002.04-.001.435v.05c0 .445 0 .816.02 1.12.022.317.069.617.19.907a2.75 2.75 0 0 0 1.488 1.489c.29.12.59.167.907.188.304.021.675.021 1.12.021h.05c.445 0 .816 0 1.12-.02.317-.022.617-.069.907-.19a2.75 2.75 0 0 0 1.489-1.488c.12-.29.167-.59.188-.907.021-.304.021-.675.021-1.12v-.05c0-.445 0-.816-.02-1.12a2.822 2.822 0 0 0-.19-.907 2.75 2.75 0 0 0-1.488-1.489c-.29-.12-.59-.167-.907-.188-.304-.021-.675-.021-1.12-.021H17zm-8.4-7.7a.75.75 0 0 1-.15 1.05l-.16.12C6.847 6.802 6.247 7.26 5.818 7.827a5.25 5.25 0 0 0-.866 1.731c-.186.65-.2 1.367-.202 2.992a2.75 2.75 0 0 1 .198-.09c.29-.121.59-.168.907-.19.304-.02.675-.02 1.12-.02h.05c.445 0 .816 0 1.12.02.317.022.617.069.907.19a2.75 2.75 0 0 1 1.489 1.488c.12.29.167.59.188.907.021.304.021.675.021 1.12v.05c0 .445 0 .816-.02 1.12a2.822 2.822 0 0 1-.19.907 2.75 2.75 0 0 1-1.488 1.489c-.29.12-.59.167-.907.188-.304.021-.675.021-1.12.021h-.05c-.445 0-.816 0-1.12-.02a2.822 2.822 0 0 1-.907-.19 2.75 2.75 0 0 1-1.489-1.488c-.12-.29-.167-.59-.188-.907-.021-.304-.021-.675-.021-1.12V15.973v-.437-2.861c0-1.64 0-2.62.26-3.529A6.75 6.75 0 0 1 4.623 6.92c.572-.754 1.354-1.34 2.667-2.325l.1-.075.16-.12a.75.75 0 0 1 1.05.15z"
        fill="currentColor"
      ></path>
    </g>
  </svg>