<svg viewBox="0 0 24 24" xmlns="http://www.w3.org/2000/svg">
    <g fill="none">
      <path
        fill-rule="evenodd"
        clip-rule="evenodd"
        d="M17 4.25h-.025c-.445 0-.816 0-1.12.02a2.823 2.823 0 0 0-.907.19 2.75 2.75 0 0 0-1.489 1.488c-.12.29-.167.59-.188.907-.021.304-.021.675-.021 1.12v.05c0 .445 0 .816.02 1.12.022.317.069.617.19.907a2.75 2.75 0 0 0 1.488 1.489c.29.12.59.167.907.188.304.021.675.021 1.12.021h.05c.445 0 .816 0 1.12-.02.317-.022.617-.069.907-.19.068-.027.134-.058.198-.09-.001 1.625-.016 2.341-.202 2.992a5.25 5.25 0 0 1-.866 1.732c-.43.565-1.03 1.024-2.472 2.106l-.16.12a.75.75 0 1 0 .9 1.2l.16-.12.1-.075c1.313-.984 2.095-1.571 2.667-2.325a6.75 6.75 0 0 0 1.114-2.226c.26-.91.26-1.888.259-3.53V8.5v-.037V7.975c0-.445 0-.816-.02-1.12a2.822 2.822 0 0 0-.19-.907 2.75 2.75 0 0 0-1.488-1.489c-.29-.12-.59-.167-.907-.188-.304-.021-.675-.021-1.12-.021H17zm-10 0h-.025c-.445 0-.816 0-1.12.02a2.823 2.823 0 0 0-.907.19 2.75 2.75 0 0 0-1.489 1.488c-.12.29-.167.59-.188.907-.021.304-.021.675-.021 1.12v.05c0 .445 0 .816.02 1.12.022.317.069.617.19.907a2.75 2.75 0 0 0 1.488 1.489c.29.12.59.167.907.188.304.021.675.021 1.12.021h.05c.445 0 .816 0 1.12-.02.317-.022.617-.069.907-.19a2.75 2.75 0 0 0 .198-.09c-.001 1.625-.016 2.341-.202 2.992a5.25 5.25 0 0 1-.866 1.732c-.43.565-1.03 1.024-2.472 2.106l-.16.12a.75.75 0 1 0 .9 1.2l.16-.12.1-.075c1.313-.984 2.095-1.571 2.667-2.325a6.75 6.75 0 0 0 1.114-2.226c.26-.91.26-1.888.259-3.53V8.5v-.036V7.975c0-.445 0-.816-.02-1.12a2.822 2.822 0 0 0-.19-.907 2.75 2.75 0 0 0-1.488-1.489c-.29-.12-.59-.167-.907-.188-.304-.021-.675-.021-1.12-.021H7z"
        fill="currentColor"
      ></path>
    </g>
  </svg>