<svg viewBox="0 0 24 24" xmlns="http://www.w3.org/2000/svg">
    <g fill="none">
      <path
        fill-rule="evenodd"
        clip-rule="evenodd"
        d="M9 2.75a2.25 2.25 0 0 0-2.125 1.507c.445-.007.94-.007 1.492-.007H15.633c1.092 0 1.958 0 2.655.057.714.058 1.317.18 1.869.46a4.75 4.75 0 0 1 2.075 2.077c.281.55.403 1.154.461 1.868.057.697.057 1.563.057 2.655v3.266c0 1.092 0 1.958-.057 2.655-.058.714-.18 1.317-.46 1.869a4.75 4.75 0 0 1-2.076 2.075c-.552.281-1.155.403-1.869.461-.697.057-1.563.057-2.655.057H8.367c-1.092 0-1.958 0-2.655-.057-.714-.058-1.317-.18-1.868-.46a4.75 4.75 0 0 1-2.076-2.076c-.281-.552-.403-1.155-.461-1.869-.057-.697-.057-1.563-.057-2.655v-3.266c0-1.092 0-1.958.057-2.655.058-.714.18-1.317.46-1.868a4.75 4.75 0 0 1 2.077-2.076c.443-.226.92-.35 1.462-.419A3.751 3.751 0 0 1 9 1.25h8a.75.75 0 0 1 0 1.5H9zm-1 8a1.25 1.25 0 1 0 0 2.5 1.25 1.25 0 0 0 0-2.5zM5.25 12a2.75 2.75 0 1 1 5.5 0 2.75 2.75 0 0 1-5.5 0zM14 9.25a.75.75 0 0 0 0 1.5h4a.75.75 0 0 0 0-1.5h-4zM13.25 14a.75.75 0 0 1 .75-.75h4a.75.75 0 0 1 0 1.5h-4a.75.75 0 0 1-.75-.75z"
        fill="currentColor"
      ></path>
    </g>
  </svg>