<svg viewBox="0 0 24 24" xmlns="http://www.w3.org/2000/svg">
    <g fill="none">
      <path
        fill-rule="evenodd"
        clip-rule="evenodd"
        d="M2.624 2.351a.75.75 0 0 1 .748-.002L6.5 4.136 9.628 2.35a.75.75 0 0 1 .744 0L13.5 4.136l3.128-1.787A.75.75 0 0 1 17.75 3v8.25H21a.75.75 0 0 1 .75.75v7A2.75 2.75 0 0 1 19 21.75H7.768c-.813 0-1.469 0-2-.043-.546-.045-1.026-.14-1.47-.366a3.75 3.75 0 0 1-1.64-1.639c-.226-.444-.32-.924-.365-1.47-.043-.531-.043-1.187-.043-2V3a.75.75 0 0 1 .374-.649zM20.25 19a1.25 1.25 0 1 1-2.5 0v-6.25h2.5V19zm-14-10A.75.75 0 0 1 7 8.25h4a.75.75 0 0 1 0 1.5H7A.75.75 0 0 1 6.25 9zM10 12.25a.75.75 0 0 0 0 1.5h3a.75.75 0 0 0 0-1.5h-3zM9.25 17a.75.75 0 0 1 .75-.75h3a.75.75 0 0 1 0 1.5h-3a.75.75 0 0 1-.75-.75zM7 14a1 1 0 1 0 0-2 1 1 0 0 0 0 2zm1 3a1 1 0 1 1-2 0 1 1 0 0 1 2 0z"
        fill="currentColor"
      ></path>
    </g>
  </svg>