<svg
    viewBox="0 0 20 20"
    fill="none"
    xmlns="http://www.w3.org/2000/svg"
   
   
  >
    <path
      fill-rule="evenodd"
      clip-rule="evenodd"
      d="M7 2C8.1 2 9 2.9 9 4C9 5.1 8.1 6 7 6C5.9 6 5 5.1 5 4C5 2.9 5.9 2 7 2ZM7 14C8.1 14 9 14.9 9 16C9 17.1 8.1 18 7 18C5.9 18 5 17.1 5 16C5 14.9 5.9 14 7 14ZM9 10C9 8.9 8.1 8 7 8C5.9 8 5 8.9 5 10C5 11.1 5.9 12 7 12C8.1 12 9 11.1 9 10ZM13 2C14.1 2 15 2.9 15 4C15 5.1 14.1 6 13 6C11.9 6 11 5.1 11 4C11 2.9 11.9 2 13 2ZM13 14C14.1 14 15 14.9 15 16C15 17.1 14.1 18 13 18C11.9 18 11 17.1 11 16C11 14.9 11.9 14 13 14ZM15 10C15 8.9 14.1 8 13 8C11.9 8 11 8.9 11 10C11 11.1 11.9 12 13 12C14.1 12 15 11.1 15 10Z"
      fill="currentColor"
    />
  </svg>