<svg viewBox="0 0 24 24" xmlns="http://www.w3.org/2000/svg">
    <g fill="none">
      <g clip-path="url(#clip0)">
        <path
          fill-rule="evenodd"
          clip-rule="evenodd"
          d="M6.148 7.564C6 8.217 6 8.906 6 10.285v2.192c-.989.248-1.694.449-2.248.863a3.75 3.75 0 0 0-1.21 1.55c-.293.699-.293 1.513-.292 2.695V20a.75.75 0 0 0 .932.727l2.994-.748c.04.137.09.263.151.383a3 3 0 0 0 1.311 1.31C8.28 22 9.12 22 10.8 22h.45v-4a.75.75 0 0 1 1.5 0v4h.45c1.68 0 2.52 0 3.162-.327a3 3 0 0 0 1.311-1.311c.061-.12.11-.246.15-.383l2.995.748A.75.75 0 0 0 21.75 20v-2.415c0-1.182.001-1.996-.293-2.696a3.75 3.75 0 0 0-1.21-1.549c-.553-.414-1.258-.615-2.247-.863v-2.192c0-1.379 0-2.068-.148-2.721a5.999 5.999 0 0 0-.642-1.652c-.332-.582-.797-1.09-1.728-2.108L14.36 2.579c-.82-.895-1.229-1.342-1.71-1.508a2 2 0 0 0-1.303 0c-.48.166-.89.613-1.708 1.508L8.518 3.804C7.588 4.82 7.122 5.33 6.79 5.912a6 6 0 0 0-.642 1.652zm11.844 10.91C18 18.111 18 17.691 18 17.2v-3.173c.76.2 1.093.322 1.349.514.32.24.57.56.726.93.16.383.175.867.175 2.276v1.292l-2.258-.565zM6 14.027V17.2c0 .491 0 .91.008 1.274l-2.258.565v-1.292c0-1.41.014-1.893.176-2.277a2.25 2.25 0 0 1 .726-.929c.255-.192.589-.313 1.348-.514zM12 13a2 2 0 1 0 0-4 2 2 0 0 0 0 4z"
          fill="currentColor"
        ></path>
      </g>
      <defs>
        <clipPath id="clip0"><path fill="#fff" d="M0 0h24v24H0z"></path></clipPath>
      </defs>
    </g>
  </svg>