<svg viewBox="0 0 24 24" xmlns="http://www.w3.org/2000/svg">
    <g fill="none">
      <path
        fill-rule="evenodd"
        clip-rule="evenodd"
        d="M12.593 2.406l-3.64 3.64a19.822 19.822 0 0 0-1.156-.784c-.41-.248-.799-.432-1.232-.52a3.75 3.75 0 0 0-2.074.172c-.414.157-.767.402-1.13.715-.353.303-.753.703-1.246 1.196l-.02.02-.625.625a.75.75 0 0 0 .095 1.14l2.86 2.043c-.265.33-.437.615-.536.92a3 3 0 0 0 0 1.854c.222.685.816 1.28 2.004 2.467l.076.076 2.5-2.5a.75.75 0 1 1 1.061 1.06l-2.5 2.5.075.076c1.188 1.188 1.782 1.782 2.467 2.004a3 3 0 0 0 1.854 0c.305-.098.591-.27.92-.536l2.044 2.862a.75.75 0 0 0 1.141.094l.624-.623.02-.021c.494-.494.894-.893 1.197-1.246.313-.364.558-.717.715-1.13a3.75 3.75 0 0 0 .171-2.074c-.087-.434-.271-.822-.52-1.233-.202-.332-.465-.71-.785-1.157l3.64-3.64c.52-.519.779-.778.964-1.081a3 3 0 0 0 .36-.867c.082-.346.082-.712.082-1.446V4.2c0-1.12 0-1.68-.218-2.108a2 2 0 0 0-.874-.874C20.48 1 19.92 1 18.8 1h-2.812c-.733 0-1.1 0-1.446.083a3 3 0 0 0-.867.36c-.303.185-.562.444-1.08.963zM16.003 9a2 2 0 1 1-4 0 2 2 0 0 1 4 0zM6.268 6.213a2.25 2.25 0 0 0-1.245.103c-.187.071-.39.196-.686.45-.304.262-.663.62-1.181 1.138L5.419 9.52l2.423-2.423a14.712 14.712 0 0 0-.823-.552c-.334-.203-.554-.292-.75-.332zm7.211 11.368l1.617 2.263c.517-.518.876-.878 1.137-1.181.255-.297.38-.5.45-.686a2.25 2.25 0 0 0 .104-1.245c-.04-.196-.13-.416-.332-.751-.14-.23-.32-.494-.553-.824l-2.423 2.424z"
        fill="currentColor"
      ></path>
    </g>
  </svg>