<svg viewBox="0 0 24 24" xmlns="http://www.w3.org/2000/svg">
    <g fill="none">
      <path
        fill-rule="evenodd"
        clip-rule="evenodd"
        d="M15.25 5a2.75 2.75 0 1 1 5.5 0 2.75 2.75 0 0 1-5.5 0zM6 16.25a2.75 2.75 0 1 0 2.646 3.5H16.5a4.25 4.25 0 0 0 0-8.5h-9a2.75 2.75 0 1 1 0-5.5h2.69l-.72.72a.75.75 0 0 0 1.06 1.06l2-2a.75.75 0 0 0 0-1.06l-2-2a.75.75 0 1 0-1.06 1.06l.72.72H7.5a4.25 4.25 0 0 0 0 8.5h9a2.75 2.75 0 1 1 0 5.5H8.646a2.751 2.751 0 0 0-2.646-2z"
        fill="currentColor"
      ></path>
    </g>
  </svg>