<svg viewBox="0 0 24 24" xmlns="http://www.w3.org/2000/svg">
    <g fill="none">
      <path
        fill-rule="evenodd"
        clip-rule="evenodd"
        d="M3.763 17.763c-.792-.792-1.188-1.188-1.337-1.645a2 2 0 0 1 0-1.236c.149-.457.545-.852 1.337-1.645l9.474-9.474c.792-.792 1.188-1.188 1.645-1.337a2 2 0 0 1 1.236 0c.457.149.853.545 1.645 1.337l2.474 2.474c.792.792 1.188 1.189 1.337 1.645a2 2 0 0 1 0 1.236c-.129.397-.445.748-1.044 1.352l-3.5-3.5a.75.75 0 1 0-1.06 1.06l3.5 3.5-1.94 1.94-2-2a.75.75 0 1 0-1.06 1.06l2 2-1.94 1.94-3.5-3.5a.75.75 0 1 0-1.06 1.06l3.5 3.5-1.94 1.94-2-2a.75.75 0 0 0-1.06 1.06l2 2c-.604.6-.955.915-1.352 1.044a2 2 0 0 1-1.236 0c-.456-.149-.852-.545-1.644-1.336l-2.475-2.475z"
        fill="currentColor"
      ></path>
    </g>
  </svg>