<svg viewBox="0 0 24 24" xmlns="http://www.w3.org/2000/svg">
    <g fill="none">
      <path
        fill-rule="evenodd"
        clip-rule="evenodd"
        d="M12.68 1.57a4.75 4.75 0 0 0-1.36 0c-.508.074-.995.257-1.751.54l-.08.03-1.6.6-.147.056c-1.355.507-2.226.834-2.883 1.412a4.75 4.75 0 0 0-1.298 1.875C3.249 6.9 3.25 7.83 3.25 9.278V11.055c0 1.47 0 2.311.145 3.099a8.75 8.75 0 0 0 2.698 4.867c.591.541 1.304.986 2.55 1.766l.075.046.072.045c.67.419 1.099.687 1.55.855 1.07.4 2.25.4 3.32 0 .451-.168.88-.436 1.55-.855l.072-.045.074-.046c1.247-.78 1.96-1.225 2.55-1.766a8.75 8.75 0 0 0 2.699-4.867c.145-.788.145-1.629.145-3.1V9.279c0-1.447 0-2.377-.31-3.195a4.75 4.75 0 0 0-1.3-1.875c-.656-.578-1.527-.905-2.882-1.412l-.148-.056-1.6-.6-.079-.03c-.755-.283-1.243-.466-1.752-.54z"
        fill="currentColor"
      ></path>
    </g>
  </svg>