<svg viewBox="0 0 24 24" xmlns="http://www.w3.org/2000/svg">
    <g fill="none">
      <path
        fill-rule="evenodd"
        clip-rule="evenodd"
        d="M2.53 1.47a.75.75 0 0 0-1.06 1.06L3.61 4.672c-.23.313-.361.698-.361 1.105v5.6c0 1.698 0 2.686.226 3.603a7.75 7.75 0 0 0 1.96 3.535c.657.678 1.495 1.201 2.935 2.101l.097.06.096.06c.888.556 1.459.913 2.072 1.097a4.75 4.75 0 0 0 2.728 0c.613-.184 1.184-.54 2.072-1.096l.096-.06 2.513-1.571 2.425 2.424a.75.75 0 1 0 1.06-1.06l-2.846-2.846L5.258 4.197 2.53 1.47zm10.15.1a4.75 4.75 0 0 0-1.36 0c-.508.074-.995.257-1.751.54l-.08.03-1.752.658a.75.75 0 0 0 .526 1.404l1.753-.657c.862-.323 1.19-.442 1.52-.49a3.25 3.25 0 0 1 .929 0c.329.048.657.167 1.519.49l1.6.6c1.555.583 2.142.816 2.565 1.189.396.349.7.789.889 1.282.2.527.212 1.159.212 2.82V15a.75.75 0 0 0 1.5 0V9.278c0-1.447 0-2.377-.31-3.195a4.75 4.75 0 0 0-1.3-1.875c-.656-.578-1.527-.905-2.882-1.412l-.148-.056-1.6-.6-.079-.03c-.755-.283-1.243-.466-1.752-.54z"
        fill="currentColor"
      ></path>
    </g>
  </svg>