<svg viewBox="0 0 24 24" xmlns="http://www.w3.org/2000/svg">
    <g fill="none">
      <path
        fill-rule="evenodd"
        clip-rule="evenodd"
        d="M1 3.75c.905 0 1.217.006 1.48.076.512.137.96.45 1.263.885.156.223.268.514.577 1.365l1.826 5.02.05.137c.319.878.551 1.518.91 2.017H6a2.75 2.75 0 1 0 0 5.5h.55a2.75 2.75 0 1 0 4.9 0h3.1a2.75 2.75 0 1 0 4.9 0H21a.75.75 0 0 0 0-1.5H6a1.25 1.25 0 1 1 0-2.5h9.817c1.06 0 1.791 0 2.438-.245a3.751 3.751 0 0 0 1.48-1.026c.457-.518.713-1.203 1.085-2.195l.05-.135.21-.562.014-.034c.261-.697.475-1.269.604-1.737.132-.48.204-.948.1-1.416a2.75 2.75 0 0 0-1.18-1.702c-.401-.263-.866-.36-1.36-.404-.484-.044-1.095-.044-1.84-.044H5.617c-.22-.602-.39-1.035-.644-1.398a3.75 3.75 0 0 0-2.104-1.475C2.39 2.25 1.865 2.25 1.104 2.25H1v1.5zm16 15a1.25 1.25 0 1 0 0 2.5 1.25 1.25 0 0 0 0-2.5zm-8 0a1.25 1.25 0 1 0 0 2.5 1.25 1.25 0 0 0 0-2.5z"
        fill="currentColor"
      ></path>
    </g>
  </svg>