<svg viewBox="0 0 24 24" xmlns="http://www.w3.org/2000/svg">
    <g fill="none">
      <path
        fill-rule="evenodd"
        clip-rule="evenodd"
        d="M9.643 3.386a.75.75 0 1 0-1.286-.772L5.595 7.217a3.09 3.09 0 0 0-.82.32 4 4 0 0 0-1.758 2.1c-.366 1.01-.135 2.302.327 4.888l.214 1.2c.335 1.876.503 2.814.978 3.517.42.62 1.005 1.11 1.688 1.413C7 21 7.953 21 9.858 21h4.284c1.905 0 2.858 0 3.634-.345a4 4 0 0 0 1.688-1.413c.476-.703.643-1.641.978-3.517l.214-1.2c.462-2.586.693-3.878.327-4.887a4 4 0 0 0-1.758-2.1 3.09 3.09 0 0 0-.82-.32l-2.762-4.604a.75.75 0 1 0-1.286.772l2.18 3.633c-.61-.02-1.326-.02-2.181-.02H9.644c-.855 0-1.572 0-2.18.02l2.18-3.633z"
        fill="currentColor"
      ></path>
    </g>
  </svg>