<svg viewBox="0 0 24 24" xmlns="http://www.w3.org/2000/svg">
    <g fill="none">
      <path
        fill-rule="evenodd"
        clip-rule="evenodd"
        d="M1.5 2.75c.285 0 .384 0 .468.008.85.07 1.589.614 1.906 1.407.031.079.06.173.144.445l2.223 7.222.045.147c.33 1.074.557 1.814 1.014 2.38A3.75 3.75 0 0 0 8.82 15.48c.675.271 1.45.27 2.573.27h4.191c1.131 0 1.911.001 2.59-.273a3.75 3.75 0 0 0 1.522-1.133c.457-.57.68-1.318 1.005-2.401l.045-.148.738-2.46.01-.034c.2-.67.366-1.22.458-1.67.095-.464.135-.913.013-1.357a2.75 2.75 0 0 0-1.194-1.606c-.39-.244-.832-.335-1.303-.377-.46-.041-1.034-.041-1.733-.04H5.477l-.025-.082-.01-.031c-.07-.23-.118-.387-.175-.53A3.75 3.75 0 0 0 2.09 1.264a7.056 7.056 0 0 0-.557-.013H1a.75.75 0 0 0 0 1.5h.5zM8.75 20a1.25 1.25 0 1 1 2.5 0 1.25 1.25 0 0 1-2.5 0zM10 17.25a2.75 2.75 0 1 0 0 5.5 2.75 2.75 0 0 0 0-5.5zM16.75 20a1.25 1.25 0 1 1 2.5 0 1.25 1.25 0 0 1-2.5 0zM18 17.25a2.75 2.75 0 1 0 0 5.5 2.75 2.75 0 0 0 0-5.5z"
        fill="currentColor"
      ></path>
    </g>
  </svg>