<svg viewBox="0 0 24 24" xmlns="http://www.w3.org/2000/svg">
    <g fill="none">
      <path
        fill-rule="evenodd"
        clip-rule="evenodd"
        d="M5.278 4.897c-.466.754-.584 1.754-.82 3.753l-.614 5.2c-.292 2.473-.438 3.71-.045 4.667a4 4 0 0 0 1.76 1.98C6.466 21 7.71 21 10.2 21h3.6c2.49 0 3.735 0 4.64-.502a4 4 0 0 0 1.761-1.981c.393-.958.247-2.194-.045-4.667l-.614-5.2c-.236-2-.354-2.999-.82-3.753a4 4 0 0 0-1.713-1.523C16.206 3 15.199 3 13.186 3h-2.372C8.8 3 7.794 3 6.99 3.374a4 4 0 0 0-1.713 1.523zM9.75 9a2.25 2.25 0 0 0 4.5 0V7a.75.75 0 0 1 1.5 0v2a3.75 3.75 0 0 1-7.5 0V7a.75.75 0 0 1 1.5 0v2z"
        fill="currentColor"
      ></path>
    </g>
  </svg>