<svg viewBox="0 0 24 24" xmlns="http://www.w3.org/2000/svg">
    <g fill="none">
      <path
        fill-rule="evenodd"
        clip-rule="evenodd"
        d="M9.75 5a2.25 2.25 0 0 1 4.5 0v2h-4.5V5zm-1.5 2V5a3.75 3.75 0 1 1 7.5 0v2c1.362.001 2.08.02 2.654.295a3 3 0 0 1 1.295 1.195c.343.59.406 1.368.53 2.925l.354 4.4c.145 1.8.217 2.7-.088 3.395a3 3 0 0 1-1.32 1.43c-.667.36-1.57.36-3.376.36H8.2c-1.806 0-2.709 0-3.376-.36a3 3 0 0 1-1.32-1.43c-.305-.694-.233-1.594-.088-3.395l.353-4.4c.125-1.557.188-2.335.531-2.925a3 3 0 0 1 1.295-1.195C6.17 7.02 6.888 7.001 8.25 7z"
        fill="currentColor"
      ></path>
    </g>
  </svg>