<svg viewBox="0 0 24 24" xmlns="http://www.w3.org/2000/svg">
    <g fill="none">
      <path
        fill-rule="evenodd"
        clip-rule="evenodd"
        d="M3.327 3.638C3 4.28 3 5.12 3 6.8v10.4c0 1.68 0 2.52.327 3.162a3 3 0 0 0 1.311 1.311C5.28 22 6.12 22 7.8 22h.4c1.68 0 2.52 0 3.162-.327a3 3 0 0 0 1.311-1.311C13 19.72 13 18.88 13 17.2v-4.45h6.19l-2.72 2.72a.75.75 0 0 0 1.06 1.06l4-4a.75.75 0 0 0 0-1.06l-4-4a.75.75 0 0 0-1.06 1.06l2.72 2.72H13V6.8c0-1.68 0-2.52-.327-3.162a3 3 0 0 0-1.311-1.311C10.72 2 9.88 2 8.2 2h-.4c-1.68 0-2.52 0-3.162.327a3 3 0 0 0-1.311 1.311zM13 11.25H8a.75.75 0 1 0 0 1.5h5v-1.5z"
        fill="currentColor"
      ></path>
    </g>
  </svg>