<svg viewBox="0 0 24 24" xmlns="http://www.w3.org/2000/svg">
    <g fill="none">
      <path
        fill-rule="evenodd"
        clip-rule="evenodd"
        d="M13.53 7.47a.75.75 0 0 0-1.06 1.06l2.72 2.72H7V6.8c0-1.68 0-2.52.327-3.162a3 3 0 0 1 1.311-1.311C9.28 2 10.12 2 11.8 2h4.4c1.68 0 2.52 0 3.162.327a3 3 0 0 1 1.311 1.311C21 4.28 21 5.12 21 6.8v10.4c0 1.68 0 2.52-.327 3.162a3 3 0 0 1-1.311 1.311C18.72 22 17.88 22 16.2 22h-4.4c-1.68 0-2.52 0-3.162-.327a3 3 0 0 1-1.311-1.311C7 19.72 7 18.88 7 17.2v-4.45h8.19l-2.72 2.72a.75.75 0 1 0 1.06 1.06l4-4a.75.75 0 0 0 0-1.06l-4-4zM7 12.75H3a.75.75 0 0 1 0-1.5h4v1.5z"
        fill="currentColor"
      ></path>
    </g>
  </svg>