<svg viewBox="0 0 24 24" xmlns="http://www.w3.org/2000/svg">
    <g fill="none">
      <path
        fill-rule="evenodd"
        clip-rule="evenodd"
        d="M11 7a3 3 0 0 1 5.907-.744A.756.756 0 0 1 17 6.25h4a.75.75 0 0 1 0 1.5h-4a.756.756 0 0 1-.093-.006A3.001 3.001 0 0 1 11 7zm-8-.75a.75.75 0 0 0 0 1.5h5a.75.75 0 0 0 0-1.5H3zm0 10a.75.75 0 0 0 0 1.5h4a.752.752 0 0 0 .093-.006A3.001 3.001 0 0 0 13 17a3 3 0 0 0-5.907-.744A.752.752 0 0 0 7 16.25H3zm13 0a.75.75 0 0 0 0 1.5h5a.75.75 0 0 0 0-1.5h-5z"
        fill="currentColor"
      ></path>
    </g>
  </svg>