<svg viewBox="0 0 24 24" xmlns="http://www.w3.org/2000/svg">
    <g fill="none">
      <path
        fill-rule="evenodd"
        clip-rule="evenodd"
        d="M12.25 5a2.75 2.75 0 0 1 5.396-.75H21a.75.75 0 0 1 0 1.5h-3.354A2.751 2.751 0 0 1 12.25 5zm-10 0A.75.75 0 0 1 3 4.25h6a.75.75 0 0 1 0 1.5H3A.75.75 0 0 1 2.25 5zm0 14a.75.75 0 0 1 .75-.75h6a.75.75 0 0 1 0 1.5H3a.75.75 0 0 1-.75-.75zm15.396-.75H21a.75.75 0 0 1 0 1.5h-3.354a2.751 2.751 0 1 1 0-1.5zM3 11.25a.75.75 0 0 0 0 1.5h3.354a2.751 2.751 0 1 0 0-1.5H3zm12 0a.75.75 0 0 0 0 1.5h6a.75.75 0 0 0 0-1.5h-6z"
        fill="currentColor"
      ></path>
    </g>
  </svg>