<svg viewBox="0 0 24 24" xmlns="http://www.w3.org/2000/svg">
    <g fill="none">
      <path
        fill-rule="evenodd"
        clip-rule="evenodd"
        d="M2.25 9c0-1.259.846-2.32 2-2.646V3a.75.75 0 0 1 1.5 0v3.354A2.751 2.751 0 1 1 2.25 9zM5 14.25a.75.75 0 0 1 .75.75v6a.75.75 0 0 1-1.5 0v-6a.75.75 0 0 1 .75-.75zm14-12a.75.75 0 0 1 .75.75v3.354a2.751 2.751 0 1 1-1.5 0V3a.75.75 0 0 1 .75-.75zm0 12a.75.75 0 0 1 .75.75v6a.75.75 0 0 1-1.5 0v-6a.75.75 0 0 1 .75-.75zM12.75 3a.75.75 0 0 0-1.5 0v6a.75.75 0 0 0 1.5 0V3zm-1.5 18v-3.354a2.751 2.751 0 1 1 1.5 0V21a.75.75 0 0 1-1.5 0z"
        fill="currentColor"
      ></path>
    </g>
  </svg>