<svg viewBox="0 0 24 24" xmlns="http://www.w3.org/2000/svg">
    <g fill="none">
      <path
        fill-rule="evenodd"
        clip-rule="evenodd"
        d="M9.2 3.25h-.03c-.535 0-.98 0-1.345.03-.38.03-.736.098-1.074.27A2.75 2.75 0 0 0 5.55 4.752c-.172.337-.24.693-.27 1.073-.03.365-.03.81-.03 1.345V16.83c0 .535 0 .98.03 1.345.03.38.098.736.27 1.073A2.75 2.75 0 0 0 6.75 20.45c.338.172.694.24 1.074.27.364.03.81.03 1.344.03h5.661c.534 0 .98 0 1.345-.03.38-.03.736-.098 1.073-.27a2.75 2.75 0 0 0 1.202-1.201c.172-.338.24-.694.27-1.074.03-.365.03-.81.03-1.345V7.17c0-.535 0-.98-.03-1.345-.03-.38-.098-.736-.27-1.073a2.75 2.75 0 0 0-1.202-1.202c-.337-.172-.694-.24-1.073-.27-.365-.03-.81-.03-1.345-.03H9.2zm-7.2 1a.75.75 0 0 1 .75.75v14a.75.75 0 0 1-1.5 0V5A.75.75 0 0 1 2 4.25zM22.75 5a.75.75 0 0 0-1.5 0v14a.75.75 0 0 0 1.5 0V5z"
        fill="currentColor"
      ></path>
    </g>
  </svg>