<svg viewBox="0 0 24 24" xmlns="http://www.w3.org/2000/svg">
    <g fill="none">
      <path
        fill-rule="evenodd"
        clip-rule="evenodd"
        d="M4.25 2A.75.75 0 0 1 5 1.25h14a.75.75 0 1 1 0 1.5H5A.75.75 0 0 1 4.25 2zM7.2 5.25h-.03c-.535 0-.98 0-1.345.03-.38.03-.736.098-1.074.27A2.75 2.75 0 0 0 3.55 6.752c-.172.337-.24.693-.27 1.073-.03.365-.03.81-.03 1.345v5.66c0 .535 0 .98.03 1.345.03.38.098.736.27 1.073A2.75 2.75 0 0 0 4.75 18.45c.338.172.694.24 1.074.27.364.03.81.03 1.344.03h9.661c.535 0 .98 0 1.345-.03.38-.03.736-.098 1.073-.27a2.75 2.75 0 0 0 1.202-1.201c.172-.338.24-.694.27-1.074.03-.365.03-.81.03-1.345V9.17c0-.535 0-.98-.03-1.345-.03-.38-.098-.736-.27-1.073a2.75 2.75 0 0 0-1.202-1.202c-.337-.172-.694-.24-1.073-.27-.365-.03-.81-.03-1.345-.03H7.2zm-2.2 16a.75.75 0 0 0 0 1.5h14a.75.75 0 1 0 0-1.5H5z"
        fill="currentColor"
      ></path>
    </g>
  </svg>