<svg viewBox="0 0 24 24" xmlns="http://www.w3.org/2000/svg">
    <g fill="none">
      <path
        fill-rule="evenodd"
        clip-rule="evenodd"
        d="M5 8.4c0-2.24 0-3.36.436-4.216a4 4 0 0 1 1.748-1.748C8.04 2 9.16 2 11.4 2h1.2c2.24 0 3.36 0 4.216.436a4 4 0 0 1 1.748 1.748C19 5.04 19 6.16 19 8.4v7.2c0 2.24 0 3.36-.436 4.216a4 4 0 0 1-1.748 1.748C15.96 22 14.84 22 12.6 22h-1.2c-2.24 0-3.36 0-4.216-.436a4 4 0 0 1-1.748-1.748C5 18.96 5 17.84 5 15.6V8.4zM9.25 19a.75.75 0 0 1 .75-.75h4a.75.75 0 0 1 0 1.5h-4a.75.75 0 0 1-.75-.75zM12 6a1 1 0 1 0 0-2 1 1 0 0 0 0 2z"
        fill="currentColor"
      ></path>
    </g>
  </svg>