<svg viewBox="0 0 24 24" fill="none" xmlns="http://www.w3.org/2000/svg">
<path fill-rule="evenodd" clip-rule="evenodd" d="M3.32698 5.63803C3 6.27976 3 7.11984 3 8.8V13.201C3 14.8812 3 15.7213 3.32698 16.363C3.6146 16.9275 4.07354 17.3864 4.63803 17.674C5.27976 18.001 6.11984 18.001 7.8 18.001H15.4904C16.0538 18.001 16.3356 18.001 16.6115 18.0396C16.8566 18.074 17.0979 18.1309 17.3325 18.2098C17.5966 18.2987 17.8485 18.4247 18.3525 18.6767L21.0015 20.0012V8.8C21.0015 7.11984 21.0015 6.27976 20.6746 5.63803C20.3869 5.07354 19.928 4.6146 19.3635 4.32698C18.7218 4 17.8817 4 16.2015 4H7.8C6.11984 4 5.27976 4 4.63803 4.32698C4.07354 4.6146 3.6146 5.07354 3.32698 5.63803ZM14.2327 13.3689C14.228 13.4297 14.221 13.493 14.2117 13.5588C14.2023 13.6246 14.186 13.6854 14.1627 13.7411C14.1393 13.8019 14.109 13.8475 14.0717 13.8778C14.0203 13.9285 13.9597 13.9563 13.8897 13.9614C13.8243 13.9867 13.7613 13.9943 13.7007 13.9842C13.64 13.974 13.584 13.9563 13.5327 13.931C13.4673 13.8854 13.4183 13.8323 13.3857 13.7715C13.3577 13.7057 13.3367 13.6373 13.3227 13.5664C13.3087 13.4955 13.3017 13.4221 13.3017 13.3461V13.1334V12.541L13.2947 11.3788V11.1889V11.0674C13.2947 11.0269 13.2923 10.9838 13.2877 10.9383V10.7256V10.6496C13.2923 10.6091 13.29 10.5053 13.2807 10.3382C13.0987 10.6673 12.947 10.9332 12.8257 11.1357C12.709 11.3332 12.6087 11.4877 12.5247 11.5991C12.4453 11.7054 12.3753 11.7789 12.3147 11.8194C12.254 11.8548 12.191 11.8751 12.1257 11.8801C12.0883 11.8852 12.051 11.8776 12.0137 11.8573C11.9763 11.8371 11.939 11.8118 11.9017 11.7814L11.8037 11.6902C11.7757 11.6548 11.7523 11.6219 11.7337 11.5915C11.6217 11.4396 11.4957 11.2573 11.3557 11.0446C11.2157 10.8319 11.071 10.5737 10.9217 10.2698C10.9217 10.2749 10.9193 10.3584 10.9147 10.5205V11.1282C10.9147 11.3662 10.9123 11.6244 10.9077 11.9029C10.9077 12.1764 10.9053 12.4321 10.9007 12.6701C10.9007 12.9081 10.8983 13.1081 10.8937 13.2702C10.889 13.4271 10.8843 13.5056 10.8797 13.5056C10.8797 13.5917 10.861 13.6727 10.8237 13.7487C10.7863 13.8196 10.735 13.8778 10.6697 13.9234C10.609 13.969 10.5367 13.9943 10.4527 13.9994C10.3687 14.0044 10.2777 13.9791 10.1797 13.9234C10.119 13.8829 10.0723 13.8247 10.0397 13.7487C10.0117 13.6727 9.99299 13.6019 9.98366 13.536C9.97899 13.4651 9.97433 13.3968 9.96966 13.3309V13.1258L9.97666 12.5334L9.98366 11.3636V10.3458C9.98366 9.90523 9.99766 9.47226 10.0257 9.0469C10.0257 8.9912 10.0303 8.94056 10.0397 8.89498C10.0537 8.84434 10.07 8.79624 10.0887 8.75066C10.126 8.66964 10.175 8.60887 10.2357 8.56836C10.3057 8.52279 10.3803 8.5 10.4597 8.5C10.4923 8.5 10.5227 8.50253 10.5507 8.5076C10.5833 8.5076 10.6137 8.51013 10.6417 8.51519C10.735 8.53545 10.8143 8.59621 10.8797 8.69749C10.9497 8.7937 11.015 8.87726 11.0757 8.94815C11.113 8.99373 11.1527 9.04943 11.1947 9.11526C11.2367 9.18109 11.2787 9.24945 11.3207 9.32035C11.3627 9.39124 11.4023 9.4596 11.4397 9.52543C11.477 9.59127 11.5097 9.6495 11.5377 9.70014C11.659 9.91282 11.7663 10.1078 11.8597 10.285C11.9577 10.4623 12.0487 10.6142 12.1327 10.7408C12.1467 10.7256 12.163 10.7053 12.1817 10.68L12.2377 10.5888C12.261 10.5534 12.2797 10.5205 12.2937 10.4901C12.3123 10.4597 12.3263 10.4344 12.3357 10.4141C12.3823 10.3331 12.429 10.2546 12.4757 10.1787C12.5223 10.0977 12.5713 10.0141 12.6227 9.92801C12.6787 9.83686 12.7347 9.73812 12.7907 9.63178C12.8513 9.52543 12.9213 9.4039 13.0007 9.26718C13.0333 9.20641 13.0753 9.13298 13.1267 9.0469C13.178 8.96081 13.2363 8.87726 13.3017 8.79624C13.367 8.71521 13.4347 8.64685 13.5047 8.59115C13.5793 8.53038 13.654 8.5 13.7287 8.5C13.766 8.5 13.7987 8.50253 13.8267 8.5076C13.8547 8.5076 13.8827 8.51013 13.9107 8.51519C13.9667 8.52026 14.0203 8.54811 14.0717 8.59875C14.109 8.63926 14.137 8.6823 14.1557 8.72787C14.1743 8.7937 14.186 8.84941 14.1907 8.89498C14.1953 8.93043 14.1977 8.96334 14.1977 8.99373C14.2023 9.02411 14.2047 9.05449 14.2047 9.08488C14.2047 9.36845 14.207 9.6495 14.2117 9.92801C14.2163 10.2065 14.2187 10.4876 14.2187 10.7711V11.8346C14.2233 12.1992 14.2257 12.5536 14.2257 12.898C14.2257 12.9689 14.228 13.0448 14.2327 13.1258C14.2373 13.2069 14.2373 13.2879 14.2327 13.3689ZM9.12496 11.7054C9.14829 11.7763 9.16463 11.8573 9.17396 11.9485C9.18796 12.0346 9.19496 12.1232 9.19496 12.2144C9.19496 12.3055 9.18796 12.3967 9.17396 12.4878C9.16463 12.5739 9.15063 12.6498 9.13196 12.7157C9.05729 12.9993 8.90796 13.2373 8.68396 13.4297C8.45996 13.617 8.20329 13.7538 7.91396 13.8399C7.62929 13.9259 7.33296 13.9563 7.02496 13.931C6.72163 13.9057 6.45096 13.8221 6.21296 13.6803C6.06363 13.5892 5.93529 13.4778 5.82796 13.3461C5.72063 13.2145 5.62963 13.0676 5.55496 12.9056C5.52696 12.8499 5.50829 12.7866 5.49896 12.7157C5.49429 12.6397 5.50129 12.5688 5.51996 12.503C5.53863 12.4321 5.56896 12.3713 5.61096 12.3207C5.65296 12.265 5.71129 12.227 5.78596 12.2068C5.83263 12.1966 5.88396 12.1916 5.93996 12.1916C6.00063 12.1916 6.05896 12.2017 6.11496 12.2219C6.17096 12.2371 6.22229 12.265 6.26896 12.3055C6.31563 12.3409 6.35296 12.3916 6.38096 12.4574C6.43229 12.5638 6.50463 12.6625 6.59796 12.7537C6.69596 12.8397 6.79863 12.9106 6.90596 12.9663C7.05996 13.022 7.21396 13.0448 7.36796 13.0347C7.52663 13.0246 7.66896 12.9866 7.79496 12.9208C7.92563 12.8549 8.03063 12.7663 8.10996 12.6549C8.18929 12.5384 8.22896 12.4068 8.22896 12.2599C8.22896 12.1384 8.21263 12.0396 8.17996 11.9637C8.14729 11.8827 8.10063 11.8168 8.03996 11.7662C7.98396 11.7105 7.91396 11.6649 7.82996 11.6295C7.75063 11.594 7.66196 11.5636 7.56396 11.5383C7.45196 11.513 7.33763 11.4953 7.22096 11.4852C7.10896 11.475 6.99463 11.4624 6.87796 11.4472C6.76129 11.432 6.64696 11.4117 6.53496 11.3864C6.42296 11.3611 6.31329 11.3231 6.20596 11.2725C5.99129 11.1763 5.82796 11.0294 5.71596 10.8319C5.60396 10.6344 5.53629 10.4217 5.51296 10.1939C5.49429 9.96599 5.51996 9.74065 5.58996 9.51784C5.65996 9.28996 5.77196 9.09501 5.92596 8.93296C6.07529 8.78611 6.25263 8.6823 6.45796 8.62153C6.66796 8.5557 6.89896 8.51772 7.15096 8.5076C7.29096 8.50253 7.43096 8.5076 7.57096 8.52279C7.71563 8.53798 7.85329 8.5633 7.98396 8.59875C8.11929 8.63419 8.24296 8.67977 8.35496 8.73547C8.47163 8.79117 8.57196 8.857 8.65596 8.93296C8.71663 8.9836 8.77729 9.05196 8.83796 9.13805C8.89863 9.21907 8.94529 9.30769 8.97796 9.4039C9.01063 9.49505 9.01996 9.58367 9.00596 9.66975C8.99663 9.75584 8.94763 9.82927 8.85896 9.89003C8.78429 9.94067 8.71196 9.96346 8.64196 9.9584C8.57663 9.94827 8.51363 9.92548 8.45296 9.89003C8.39229 9.84952 8.33396 9.80395 8.27796 9.75331C8.22196 9.70267 8.17063 9.6571 8.12396 9.61658C7.99796 9.51531 7.84163 9.44694 7.65496 9.4115C7.46829 9.37605 7.29329 9.36845 7.12996 9.38871C7.02729 9.4039 6.93163 9.42922 6.84296 9.46467C6.75429 9.50011 6.67729 9.54822 6.61196 9.60899C6.55129 9.66975 6.50229 9.74571 6.46496 9.83686C6.43229 9.92295 6.42063 10.0217 6.42996 10.1331C6.43463 10.2141 6.45563 10.2825 6.49296 10.3382C6.53496 10.3939 6.58396 10.4395 6.63996 10.4749C6.70063 10.5104 6.76596 10.5382 6.83596 10.5585C6.90596 10.5787 6.97596 10.5939 7.04596 10.604C7.25596 10.6344 7.46596 10.6572 7.67596 10.6724C7.88596 10.6876 8.09129 10.7382 8.29196 10.8243C8.49729 10.9104 8.67229 11.0269 8.81696 11.1737C8.96163 11.3206 9.06429 11.4978 9.12496 11.7054ZM18.4987 12.2144C18.4987 12.1232 18.4917 12.0346 18.4777 11.9485C18.4683 11.8573 18.452 11.7763 18.4287 11.7054C18.368 11.4978 18.2653 11.3206 18.1207 11.1737C17.976 11.0269 17.801 10.9104 17.5957 10.8243C17.395 10.7382 17.1897 10.6876 16.9797 10.6724C16.7697 10.6572 16.5597 10.6344 16.3497 10.604C16.2797 10.5939 16.2097 10.5787 16.1397 10.5585C16.0697 10.5382 16.0043 10.5104 15.9437 10.4749C15.8877 10.4395 15.8387 10.3939 15.7967 10.3382C15.7593 10.2825 15.7383 10.2141 15.7337 10.1331C15.7243 10.0217 15.736 9.92295 15.7687 9.83686C15.806 9.74571 15.855 9.66975 15.9157 9.60899C15.981 9.54822 16.058 9.50011 16.1467 9.46467C16.2353 9.42922 16.331 9.4039 16.4337 9.38871C16.597 9.36845 16.772 9.37605 16.9587 9.4115C17.1453 9.44694 17.3017 9.51531 17.4277 9.61658C17.4743 9.6571 17.5257 9.70267 17.5817 9.75331C17.6377 9.80395 17.696 9.84952 17.7567 9.89003C17.8173 9.92548 17.8803 9.94827 17.9457 9.9584C18.0157 9.96346 18.088 9.94067 18.1627 9.89003C18.2513 9.82927 18.3003 9.75584 18.3097 9.66975C18.3237 9.58367 18.3143 9.49505 18.2817 9.4039C18.249 9.30769 18.2023 9.21907 18.1417 9.13805C18.081 9.05196 18.0203 8.9836 17.9597 8.93296C17.8757 8.857 17.7753 8.79117 17.6587 8.73547C17.5467 8.67977 17.423 8.63419 17.2877 8.59875C17.157 8.5633 17.0193 8.53798 16.8747 8.52279C16.7347 8.5076 16.5947 8.50253 16.4547 8.5076C16.2027 8.51772 15.9717 8.5557 15.7617 8.62153C15.5563 8.6823 15.379 8.78611 15.2297 8.93296C15.0757 9.09501 14.9637 9.28996 14.8937 9.51784C14.8237 9.74065 14.798 9.96599 14.8167 10.1939C14.84 10.4217 14.9077 10.6344 15.0197 10.8319C15.1317 11.0294 15.295 11.1763 15.5097 11.2725C15.617 11.3231 15.7267 11.3611 15.8387 11.3864C15.9507 11.4117 16.065 11.432 16.1817 11.4472C16.2983 11.4624 16.4127 11.475 16.5247 11.4852C16.6413 11.4953 16.7557 11.513 16.8677 11.5383C16.9657 11.5636 17.0543 11.594 17.1337 11.6295C17.2177 11.6649 17.2877 11.7105 17.3437 11.7662C17.4043 11.8168 17.451 11.8827 17.4837 11.9637C17.5163 12.0396 17.5327 12.1384 17.5327 12.2599C17.5327 12.4068 17.493 12.5384 17.4137 12.6549C17.3343 12.7663 17.2293 12.8549 17.0987 12.9208C16.9727 12.9866 16.8303 13.0246 16.6717 13.0347C16.5177 13.0448 16.3637 13.022 16.2097 12.9663C16.1023 12.9106 15.9997 12.8397 15.9017 12.7537C15.8083 12.6625 15.736 12.5638 15.6847 12.4574C15.6567 12.3916 15.6193 12.3409 15.5727 12.3055C15.526 12.265 15.4747 12.2371 15.4187 12.2219C15.3627 12.2017 15.3043 12.1916 15.2437 12.1916C15.1877 12.1916 15.1363 12.1966 15.0897 12.2068C15.015 12.227 14.9567 12.265 14.9147 12.3207C14.8727 12.3713 14.8423 12.4321 14.8237 12.503C14.805 12.5688 14.798 12.6397 14.8027 12.7157C14.812 12.7866 14.8307 12.8499 14.8587 12.9056C14.9333 13.0676 15.0243 13.2145 15.1317 13.3461C15.239 13.4778 15.3673 13.5892 15.5167 13.6803C15.7547 13.8221 16.0253 13.9057 16.3287 13.931C16.6367 13.9563 16.933 13.9259 17.2177 13.8399C17.507 13.7538 17.7637 13.617 17.9877 13.4297C18.2117 13.2373 18.361 12.9993 18.4357 12.7157C18.4543 12.6498 18.4683 12.5739 18.4777 12.4878C18.4917 12.3967 18.4987 12.3055 18.4987 12.2144Z" fill="currentColor"/>
</svg>