<svg viewBox="0 0 24 24" xmlns="http://www.w3.org/2000/svg">
    <g fill="none">
      <path
        fill-rule="evenodd"
        clip-rule="evenodd"
        d="M5.436 4.184C5 5.04 5 6.16 5 8.4v7.2c0 2.24 0 3.36.436 4.216a4 4 0 0 0 1.748 1.748C8.04 22 9.16 22 11.4 22h1.2c2.24 0 3.36 0 4.216-.436a4 4 0 0 0 1.748-1.748C19 18.96 19 17.84 19 15.6V8.4c0-2.24 0-3.36-.436-4.216a4 4 0 0 0-1.748-1.748C15.96 2 14.84 2 12.6 2h-1.2c-2.24 0-3.36 0-4.216.436a4 4 0 0 0-1.748 1.748zM9.75 9a2.25 2.25 0 1 1 4.5 0 2.25 2.25 0 0 1-4.5 0zM12 5.25a3.75 3.75 0 1 0 0 7.5 3.75 3.75 0 0 0 0-7.5zM11 17a1 1 0 1 1-2 0 1 1 0 0 1 2 0zm3 1a1 1 0 1 0 0-2 1 1 0 0 0 0 2z"
        fill="currentColor"
      ></path>
    </g>
  </svg>