<svg viewBox="0 0 24 24" xmlns="http://www.w3.org/2000/svg">
    <g fill="none">
      <path
        fill-rule="evenodd"
        clip-rule="evenodd"
        d="M17.8 3.75c.572 0 .957 0 1.252.025.288.023.425.065.515.111.236.12.427.311.547.547.046.09.088.227.111.514.024.296.025.68.025 1.253V12c0 .476 0 .796-.017 1.043-.017.241-.046.358-.078.435a1.25 1.25 0 0 1-.677.677c-.077.032-.194.061-.435.078-.087.006-.184.01-.293.012V9.17c0-.535 0-.98-.03-1.345-.03-.38-.098-.736-.27-1.073a2.75 2.75 0 0 0-1.202-1.202c-.337-.172-.694-.24-1.073-.27-.365-.03-.81-.03-1.345-.03H9.755c.002-.11.006-.206.012-.293.017-.241.046-.358.078-.435.127-.307.37-.55.677-.677.077-.032.194-.061.435-.078.247-.017.567-.017 1.043-.017h5.8zM8.254 5.254c.003-.144.008-.277.017-.4.021-.316.068-.616.188-.906a2.75 2.75 0 0 1 1.489-1.489c.29-.12.59-.167.907-.188.304-.021.675-.021 1.12-.021h5.855c.535 0 .98 0 1.345.03.38.03.736.098 1.073.27a2.75 2.75 0 0 1 1.202 1.202c.172.337.24.693.27 1.073.03.365.03.81.03 1.345v5.855c0 .445 0 .816-.02 1.12a2.824 2.824 0 0 1-.19.907 2.75 2.75 0 0 1-1.488 1.489c-.29.12-.59.167-.907.188a8.468 8.468 0 0 1-.4.017 8.612 8.612 0 0 1-.016.4 2.824 2.824 0 0 1-.188.906 2.75 2.75 0 0 1-1.489 1.489c-.29.12-.59.167-.907.188a8.462 8.462 0 0 1-.403.017 8.181 8.181 0 0 1-.022.429c-.03.38-.098.736-.27 1.073a2.75 2.75 0 0 1-1.202 1.202c-.337.172-.693.24-1.073.27-.365.03-.81.03-1.345.03H6.17c-.535 0-.98 0-1.345-.03-.38-.03-.736-.098-1.074-.27A2.75 2.75 0 0 1 2.55 20.25c-.172-.338-.24-.694-.27-1.074-.03-.364-.03-.81-.03-1.345v-5.66c0-.535 0-.98.03-1.345.03-.38.098-.736.27-1.073A2.75 2.75 0 0 1 3.75 8.55c.338-.172.694-.24 1.074-.27.132-.011.275-.018.43-.022.002-.146.007-.28.016-.403.021-.317.068-.617.188-.907a2.75 2.75 0 0 1 1.489-1.489c.29-.12.59-.167.907-.188.122-.009.255-.014.4-.017zm7.79 11.979c-.088.006-.185.01-.294.012V12.17c0-.535 0-.98-.03-1.345-.03-.38-.098-.736-.27-1.073a2.75 2.75 0 0 0-1.202-1.202c-.337-.172-.693-.24-1.073-.27-.365-.03-.81-.03-1.345-.03H6.755c.002-.11.006-.206.012-.293.017-.241.046-.358.078-.435.127-.307.37-.55.677-.677.077-.032.194-.061.435-.078A17.09 17.09 0 0 1 9 6.75h5.8c.572 0 .957 0 1.252.025.288.023.425.065.515.111.236.12.427.311.547.547.046.09.088.227.111.514.024.296.025.68.025 1.253V15c0 .476 0 .796-.017 1.043-.017.241-.046.358-.078.435a1.25 1.25 0 0 1-.677.677c-.077.032-.194.061-.435.078z"
        fill="currentColor"
      ></path>
    </g>
  </svg>