<svg viewBox="0 0 24 24" xmlns="http://www.w3.org/2000/svg">
    <g fill="none">
      <path
        fill-rule="evenodd"
        clip-rule="evenodd"
        d="M12 1.25C6.063 1.25 1.25 6.063 1.25 12S6.063 22.75 12 22.75 22.75 17.937 22.75 12 17.937 1.25 12 1.25zM9 10.6c0-.56 0-.84.109-1.054a1 1 0 0 1 .437-.437C9.76 9 10.04 9 10.6 9h2.8c.56 0 .84 0 1.054.109a1 1 0 0 1 .437.437C15 9.76 15 10.04 15 10.6v2.8c0 .56 0 .84-.109 1.054a1 1 0 0 1-.437.437C14.24 15 13.96 15 13.4 15h-2.8c-.56 0-.84 0-1.054-.109a1 1 0 0 1-.437-.437C9 14.24 9 13.96 9 13.4v-2.8z"
        fill="currentColor"
      ></path>
    </g>
  </svg>