<svg viewBox="0 0 24 24" xmlns="http://www.w3.org/2000/svg">
    <g fill="none">
      <path
        fill-rule="evenodd"
        clip-rule="evenodd"
        d="M10 .25a.75.75 0 0 0 0 1.5h4a.75.75 0 0 0 0-1.5h-4zM2.25 13c0-5.385 4.365-9.75 9.75-9.75 2.422 0 4.639.884 6.344 2.346L19.97 3.97a.75.75 0 1 1 1.06 1.06l-1.626 1.626A9.714 9.714 0 0 1 21.75 13c0 5.385-4.365 9.75-9.75 9.75S2.25 18.385 2.25 13zm10.5-3a.75.75 0 0 0-1.5 0v4a.75.75 0 0 0 1.5 0v-4z"
        fill="currentColor"
      ></path>
    </g>
  </svg>