<svg viewBox="0 0 24 24" xmlns="http://www.w3.org/2000/svg">
    <g fill="none">
      <path
        fill-rule="evenodd"
        clip-rule="evenodd"
        d="M12 1.25a.75.75 0 0 1 .75.75v3a.75.75 0 0 1-1.5 0V2a.75.75 0 0 1 .75-.75zm0 17a.75.75 0 0 1 .75.75v3a.75.75 0 0 1-1.5 0v-3a.75.75 0 0 1 .75-.75zM16 12a4 4 0 1 1-8 0 4 4 0 0 1 8 0zm-14-.75a.75.75 0 0 0 0 1.5h3a.75.75 0 0 0 0-1.5H2zm17 0a.75.75 0 0 0 0 1.5h3a.75.75 0 0 0 0-1.5h-3zM4.399 4.399a.75.75 0 0 1 1.06 0l2.122 2.12A.75.75 0 0 1 6.52 7.582L4.399 5.459a.75.75 0 0 1 0-1.06zm12.02 12.02a.75.75 0 0 1 1.061 0l2.121 2.122a.75.75 0 1 1-1.06 1.06l-2.122-2.12a.75.75 0 0 1 0-1.062zM4.4 18.541a.75.75 0 0 0 1.06 1.06l2.122-2.12a.75.75 0 0 0-1.061-1.062l-2.121 2.122zM16.419 6.52a.75.75 0 1 0 1.061 1.06l2.121-2.12a.75.75 0 0 0-1.06-1.061l-2.122 2.12z"
        fill="currentColor"
      ></path>
    </g>
  </svg>