<svg viewBox="0 0 24 24" xmlns="http://www.w3.org/2000/svg">
    <g fill="none">
      <path
        fill-rule="evenodd"
        clip-rule="evenodd"
        d="M11.47 1.47a.75.75 0 0 1 1.06 0l3 3a.75.75 0 0 1-1.06 1.06l-1.72-1.72V9a.75.75 0 0 1-1.5 0V3.81L9.53 5.53a.75.75 0 0 1-1.06-1.06l3-3zM16 17.75H2a.75.75 0 0 1 0-1.5h5.309a4.751 4.751 0 0 1 9.382 0H22a.75.75 0 0 1 0 1.5h-6zm-10 2.5a.75.75 0 0 0 0 1.5h12a.75.75 0 0 0 0-1.5H6zM4.399 9.399a.75.75 0 0 1 1.06 0l2.122 2.12a.75.75 0 0 1-1.061 1.062l-2.121-2.122a.75.75 0 0 1 0-1.06zm12.02 2.12a.75.75 0 0 0 1.061 1.062l2.121-2.122a.75.75 0 1 0-1.06-1.06l-2.122 2.12z"
        fill="currentColor"
      ></path>
    </g>
  </svg>