<svg viewBox="0 0 24 24" xmlns="http://www.w3.org/2000/svg">
    <g fill="none">
      <path
        fill-rule="evenodd"
        clip-rule="evenodd"
        d="M6.2 2.25h-.03c-.535 0-.98 0-1.345.03-.38.03-.736.098-1.073.27A2.75 2.75 0 0 0 2.55 3.752c-.172.337-.24.693-.27 1.073-.03.365-.03.81-.03 1.345V17.83c0 .535 0 .98.03 1.345.03.38.098.736.27 1.073a2.75 2.75 0 0 0 1.202 1.202c.337.172.693.24 1.073.27.365.03.81.03 1.345.03h11.66c.535 0 .98 0 1.345-.03.38-.03.736-.098 1.073-.27a2.751 2.751 0 0 0 1.202-1.201c.172-.338.24-.694.27-1.074.03-.365.03-.81.03-1.345V16.17c0-.535 0-.98-.03-1.345-.03-.38-.098-.736-.27-1.073a2.751 2.751 0 0 0-1.201-1.202c-.338-.172-.694-.24-1.074-.27a7.887 7.887 0 0 0-.374-.02l.966-.967.022-.021c.378-.378.693-.693.93-.972.246-.29.45-.59.568-.95a2.75 2.75 0 0 0 0-1.7c-.117-.36-.322-.66-.569-.95-.236-.279-.551-.594-.93-.971l-.02-.022-.976-.975-.021-.021a17.79 17.79 0 0 0-.972-.93c-.29-.246-.59-.451-.95-.568a2.75 2.75 0 0 0-1.7 0c-.36.117-.659.322-.95.568-.278.237-.593.552-.971.93l-.022.021L11.75 6.19v-.02c0-.534 0-.98-.03-1.344-.03-.38-.098-.736-.27-1.073A2.75 2.75 0 0 0 10.25 2.55c-.338-.172-.694-.24-1.074-.27-.365-.03-.81-.03-1.345-.03H6.2zm5.55 6.06v8.88l6.957-6.958c.405-.404.676-.676.868-.903.187-.22.254-.346.285-.443a1.25 1.25 0 0 0 0-.772c-.031-.097-.099-.224-.285-.443-.192-.227-.463-.499-.868-.903l-.975-.975c-.405-.405-.677-.676-.903-.868-.22-.187-.347-.254-.443-.285a1.25 1.25 0 0 0-.773 0c-.096.031-.223.098-.443.285-.226.192-.498.463-.903.868L11.75 8.31zm-.048 11.049a2.603 2.603 0 0 1-.252.89v.001h6.35c.572 0 .957 0 1.252-.025.288-.023.425-.065.515-.111a1.25 1.25 0 0 0 .547-.547c.046-.09.088-.227.111-.515.024-.295.025-.68.025-1.252v-1.6c0-.572 0-.957-.025-1.252-.023-.288-.065-.425-.111-.516a1.25 1.25 0 0 0-.547-.546c-.09-.046-.227-.088-.515-.111-.295-.024-.68-.025-1.252-.025h-.49l-5.608 5.609zM7 18a1 1 0 1 0 0-2 1 1 0 0 0 0 2z"
        fill="currentColor"
      ></path>
    </g>
  </svg>