<svg viewBox="0 0 24 24" xmlns="http://www.w3.org/2000/svg">
    <g fill="none">
      <path
        fill-rule="evenodd"
        clip-rule="evenodd"
        d="M16.2 18H9.65c-.978 0-1.467 0-1.927-.11a3.998 3.998 0 0 1-1.156-.48c-.404-.247-.75-.593-1.442-1.285l-.731-.73c-1.188-1.189-1.782-1.783-2.005-2.468a3 3 0 0 1 0-1.854c.223-.685.817-1.279 2.005-2.467l.731-.731c.692-.692 1.038-1.038 1.442-1.285a4 4 0 0 1 1.156-.48C8.183 6 8.673 6 9.65 6H16.2c1.68 0 2.52 0 3.162.327a3 3 0 0 1 1.31 1.311C21 8.28 21 9.12 21 10.8v2.4c0 1.68 0 2.52-.327 3.162a3 3 0 0 1-1.311 1.311C18.72 18 17.88 18 16.2 18zM10 14a2 2 0 1 0 0-4 2 2 0 0 0 0 4z"
        fill="currentColor"
      ></path>
    </g>
  </svg>