<svg viewBox="0 0 24 24" xmlns="http://www.w3.org/2000/svg">
    <g fill="none">
      <path
        fill-rule="evenodd"
        clip-rule="evenodd"
        d="M10.434 17.92l-4.63-4.631c-.692-.692-1.038-1.038-1.285-1.442a4 4 0 0 1-.48-1.156c-.11-.46-.11-.95-.11-1.928V7.73c0-1.68 0-2.52.327-3.162a3 3 0 0 1 1.311-1.311c.642-.327 1.482-.327 3.162-.327h1.034c.979 0 1.468 0 1.928.11a4 4 0 0 1 1.156.48c.404.247.75.593 1.442 1.284l4.63 4.631c1.189 1.188 1.783 1.782 2.005 2.467a3 3 0 0 1 0 1.854c-.222.685-.816 1.28-2.004 2.468l-1.697 1.697c-1.188 1.188-1.782 1.782-2.467 2.004a3.001 3.001 0 0 1-1.854 0c-.685-.222-1.28-.816-2.467-2.004zm-.141-6.627a2 2 0 1 0 0-4 2 2 0 0 0 0 4z"
        fill="currentColor"
      ></path>
    </g>
  </svg>