<svg viewBox="0 0 24 24" xmlns="http://www.w3.org/2000/svg">
    <g fill="none">
      <path
        fill-rule="evenodd"
        clip-rule="evenodd"
        d="M9 2.25a.75.75 0 0 0 0 1.5h4.4c1.692 0 2.917 0 3.88.08.954.077 1.585.228 2.104.492a5.25 5.25 0 0 1 2.294 2.295c.264.518.415 1.15.493 2.103.078.963.079 2.188.079 3.88V15a.75.75 0 0 0 1.5 0V12.566c0-1.651 0-2.937-.084-3.968-.086-1.047-.262-1.897-.652-2.662a6.75 6.75 0 0 0-2.95-2.95c-.765-.39-1.615-.566-2.662-.652-1.031-.084-2.317-.084-3.968-.084H9zM8.651 18H15.2c1.68 0 2.52 0 3.162-.327a3 3 0 0 0 1.311-1.31C20 15.72 20 14.88 20 13.2v-2.4c0-1.68 0-2.52-.327-3.162a3 3 0 0 0-1.311-1.31C17.72 6 16.88 6 15.2 6H8.651c-.978 0-1.468 0-1.928.11a4 4 0 0 0-1.156.48c-.404.247-.75.593-1.442 1.285l-.73.731c-1.189 1.188-1.783 1.782-2.006 2.467a3 3 0 0 0 0 1.854c.223.685.817 1.28 2.005 2.467l.731.732c.692.691 1.038 1.037 1.442 1.285a4 4 0 0 0 1.156.479c.46.11.95.11 1.928.11zm2.35-6a2 2 0 1 1-4 0 2 2 0 0 1 4 0z"
        fill="currentColor"
      ></path>
    </g>
  </svg>