<svg viewBox="0 0 24 24" xmlns="http://www.w3.org/2000/svg">
    <g fill="none">
      <path
        fill-rule="evenodd"
        clip-rule="evenodd"
        d="M14.823 2.277a.75.75 0 0 0-1.06 1.061l3.111 3.111c1.197 1.197 2.062 2.063 2.687 2.8.62.73.96 1.282 1.14 1.836a5.25 5.25 0 0 1 0 3.244c-.18.554-.52 1.107-1.14 1.837-.625.736-1.49 1.602-2.687 2.8L15.87 19.97l-.692.692a.75.75 0 0 0 1.06 1.06l.693-.692 1.005-1.004.024-.024c1.168-1.168 2.076-2.077 2.746-2.866.68-.8 1.157-1.526 1.422-2.343a6.75 6.75 0 0 0 0-4.172c-.265-.816-.742-1.542-1.422-2.343-.67-.789-1.578-1.698-2.746-2.865l-.024-.024-3.111-3.112zM3.803 13.29l4.632 4.63c1.188 1.189 1.782 1.783 2.467 2.005a3.001 3.001 0 0 0 1.854 0c.685-.222 1.279-.816 2.467-2.004l1.697-1.697c1.188-1.188 1.782-1.782 2.005-2.467a3 3 0 0 0 0-1.854c-.223-.685-.817-1.28-2.005-2.468l-4.63-4.63c-.693-.692-1.039-1.038-1.442-1.286A4 4 0 0 0 9.69 3.04c-.46-.11-.949-.11-1.927-.11H6.729c-1.68-.001-2.52-.001-3.162.326a3 3 0 0 0-1.31 1.311c-.328.642-.328 1.482-.328 3.162v1.034c0 .979 0 1.468.11 1.928a4 4 0 0 0 .48 1.156c.247.404.593.75 1.285 1.442zM9 7.172A2 2 0 1 1 6.172 10 2 2 0 0 1 9 7.172z"
        fill="currentColor"
      ></path>
    </g>
  </svg>