<svg
    :width="width"
    :height="height"
    viewBox="0 0 24 24"
    fill="none"
    xmlns="http://www.w3.org/2000/svg"
  >
    <path
      fill-rule="evenodd"
      clip-rule="evenodd"
      d="M11.1906 8.21055C11.1069 8.57696 10.8123 8.86313 10.435 8.94434L6.46738 9.8009C5.42819 10.0252 5.42819 11.4638 6.46738 11.688L10.435 12.5446C10.8123 12.6258 11.1069 12.912 11.1906 13.2784L12.0725 17.132C12.3034 18.1413 13.7846 18.1413 14.0155 17.132L14.8974 13.2784C14.981 12.912 15.2757 12.6258 15.6529 12.5446L19.6206 11.688C20.6598 11.4638 20.6598 10.0252 19.6206 9.8009L15.6529 8.94434C15.2757 8.86313 14.981 8.57696 14.8974 8.21055L14.0155 4.35698C13.7846 3.34767 12.3034 3.34767 12.0725 4.35698L11.1906 8.21055ZM5.89688 16.1206C5.81327 16.487 5.51863 16.7732 5.14137 16.8544L3.92699 17.1164C3.491 17.2101 3.491 17.8134 3.92699 17.9072L5.14137 18.1692C5.51863 18.2504 5.81327 18.5366 5.89688 18.903L6.16663 20.0824C6.26319 20.5059 6.88432 20.5059 6.98087 20.0824L7.25062 18.903C7.33424 18.5366 7.62888 18.2504 8.00613 18.1692L9.22052 17.9072C9.6565 17.8134 9.6565 17.2101 9.22052 17.1164L8.00613 16.8544C7.62888 16.7732 7.33424 16.487 7.25062 16.1206L6.98087 14.9411C6.88432 14.5177 6.26319 14.5177 6.16663 14.9411L5.89688 16.1206Z"
      fill="currentColor"
    />
  </svg>