<svg viewBox="0 0 24 24" xmlns="http://www.w3.org/2000/svg">
    <g fill="none">
      <path
        fill-rule="evenodd"
        clip-rule="evenodd"
        d="M2 9.4c0-2.24 0-3.36.436-4.216a4 4 0 0 1 1.748-1.748C5.04 3 6.16 3 8.4 3h7.2c2.24 0 3.36 0 4.216.436a4 4 0 0 1 1.748 1.748C22 6.04 22 7.16 22 9.4v5.2c0 2.24 0 3.36-.436 4.216a4 4 0 0 1-1.748 1.748C18.96 21 17.84 21 15.6 21H8.4c-2.24 0-3.36 0-4.216-.436a4 4 0 0 1-1.748-1.748C2 17.96 2 16.84 2 14.6V9.4zm4.47.07a.75.75 0 0 1 1.06 0l3 3a.75.75 0 0 1 0 1.06l-3 3a.75.75 0 0 1-1.06-1.06L8.94 13l-2.47-2.47a.75.75 0 0 1 0-1.06zM13 15.25a.75.75 0 0 0 0 1.5h4a.75.75 0 0 0 0-1.5h-4z"
        fill="currentColor"
      ></path>
    </g>
  </svg>