<svg viewBox="0 0 24 24" xmlns="http://www.w3.org/2000/svg">
    <g fill="none">
      <path
        fill-rule="evenodd"
        clip-rule="evenodd"
        d="M12 4.75h5.354c.259.916.98 1.637 1.896 1.896v10.708a2.756 2.756 0 0 0-1.896 1.896H6.646a2.756 2.756 0 0 0-1.896-1.896V6.646A2.756 2.756 0 0 0 6.646 4.75H12zm-5.354-1.5h10.708a2.751 2.751 0 1 1 3.396 3.396v10.708a2.751 2.751 0 1 1-3.396 3.396H6.646a2.751 2.751 0 1 1-3.396-3.396V6.646A2.751 2.751 0 1 1 6.646 3.25zM9 8.25a.75.75 0 0 0 0 1.5h2.25V15a.75.75 0 0 0 1.5 0V9.75H15a.75.75 0 0 0 0-1.5H9z"
        fill="currentColor"
      ></path>
    </g>
  </svg>