<svg viewBox="0 0 24 24" xmlns="http://www.w3.org/2000/svg">
    <g fill="none">
      <path
        fill-rule="evenodd"
        clip-rule="evenodd"
        d="M17 17a5 5 0 1 1-8.31-3.748c.126-.11.189-.166.224-.22a.458.458 0 0 0 .07-.153C9 12.817 9 12.745 9 12.601v-.051c0-.28 0-.42.054-.527a.5.5 0 0 1 .219-.218c.107-.055.247-.055.527-.055H11a.75.75 0 0 0 0-1.5H9.75c-.233 0-.35 0-.442-.038a.5.5 0 0 1-.27-.27C9 9.848 9 9.731 9 9.5c0-.233 0-.35.038-.441a.5.5 0 0 1 .27-.27c.092-.039.209-.039.442-.039H11a.75.75 0 0 0 0-1.5H9.75c-.233 0-.35 0-.441-.038a.5.5 0 0 1-.271-.27C9 6.848 9 6.731 9 6.5c0-.233 0-.35.038-.441a.5.5 0 0 1 .27-.27c.092-.039.209-.039.442-.039H11a.75.75 0 0 0 0-1.5h-.873c-.313 0-.47 0-.603-.102a.59.59 0 0 1-.197-.372c-.009-.168.058-.266.191-.462A3 3 0 0 1 15 5v7.6c0 .145 0 .217.017.28.015.06.034.101.069.153.035.053.098.108.224.22A4.988 4.988 0 0 1 17 17z"
        fill="currentColor"
      ></path>
    </g>
  </svg>