<svg viewBox="0 0 24 24" xmlns="http://www.w3.org/2000/svg">
    <g fill="none">
      <path
        fill-rule="evenodd"
        clip-rule="evenodd"
        d="M6.792 9.095l5.753-6.575a1.523 1.523 0 0 1 2.545 1.602L13 9h3.81c1.425 0 2.137 0 2.619.296a2 2 0 0 1 .872 1.142c.159.543-.029 1.23-.403 2.604l-1.255 4.6c-.23.845-.345 1.267-.588 1.58a2 2 0 0 1-.82.627c-.366.151-.804.151-1.68.151H9.2c-1.12 0-1.68 0-2.108-.218a2 2 0 0 1-.874-.874C6 18.48 6 17.92 6 16.8v-5.598c0-.445 0-.667.046-.879a2 2 0 0 1 .202-.536c.104-.19.25-.357.544-.692zM3.75 10a.75.75 0 0 0-1.5 0v10a.75.75 0 0 0 1.5 0V10z"
        fill="currentColor"
      ></path>
    </g>
  </svg>