<svg viewBox="0 0 24 24" xmlns="http://www.w3.org/2000/svg">
    <g fill="none">
      <path
        fill-rule="evenodd"
        clip-rule="evenodd"
        d="M20.25 14a.75.75 0 0 0 1.5 0V4a.75.75 0 0 0-1.5 0v10zM5.357 6.358l-1.255 4.6c-.374 1.374-.562 2.061-.403 2.604a2 2 0 0 0 .872 1.142C5.053 15 5.765 15 7.19 15H12l-2.8 4.9a1.404 1.404 0 0 0 2.211 1.689l5.652-5.652c.346-.346.519-.519.642-.72a2 2 0 0 0 .24-.579c.055-.23.055-.474.055-.963V7.2c0-1.12 0-1.68-.218-2.108a2 2 0 0 0-.874-.874C16.48 4 15.92 4 14.8 4H8.444c-.875 0-1.313 0-1.68.151a2 2 0 0 0-.82.627c-.242.313-.357.736-.587 1.58z"
        fill="currentColor"
      ></path>
    </g>
  </svg>