<svg viewBox="0 0 24 24" xmlns="http://www.w3.org/2000/svg">
    <g fill="none">
      <path
        fill-rule="evenodd"
        clip-rule="evenodd"
        d="M16.068 8.993l-1.876 1.876c-.396.396-.594.594-.668.822a1 1 0 0 0 0 .618c.074.228.272.426.668.822l.588.589 2.25 2.25.015.014c.439.44.788.788 1.044 1.07.25.275.475.553.604.848a2.75 2.75 0 0 1-1.515 3.657c-.3.118-.655.155-1.026.173-.381.018-.875.018-1.495.018h-3.971c-1.178 0-2.114 0-2.823-.063-.692-.061-1.347-.192-1.82-.596a2.75 2.75 0 0 1-.956-2.307c.049-.62.42-1.176.866-1.708.457-.546 1.118-1.208 1.951-2.041l.028-.028 1.876-1.876c.396-.396.594-.594.668-.822a1 1 0 0 0 0-.618c-.074-.228-.272-.426-.668-.822l-.588-.589-2.25-2.25-.015-.014c-.439-.44-.788-.788-1.044-1.07-.25-.275-.475-.553-.604-.848a2.75 2.75 0 0 1 1.515-3.657c.3-.118.655-.155 1.026-.173.381-.018.875-.018 1.495-.018h3.971c1.178 0 2.114 0 2.823.063.692.061 1.347.192 1.82.596a2.75 2.75 0 0 1 .956 2.307c-.049.62-.42 1.176-.866 1.709-.457.545-1.118 1.207-1.951 2.04l-.028.028z"
        fill="currentColor"
      ></path>
    </g>
  </svg>