<svg viewBox="0 0 24 24" xmlns="http://www.w3.org/2000/svg">
    <g fill="none">
      <path
        fill-rule="evenodd"
        clip-rule="evenodd"
        d="M16.354 4.25a2.751 2.751 0 1 1 3.396 3.396v8.707a2.751 2.751 0 1 1-3.396 3.397H7.646a2.751 2.751 0 1 1-3.396-3.396V7.646A2.751 2.751 0 1 1 7.646 4.25h8.707zM5.75 16.354c.916.259 1.637.98 1.896 1.896h8.707a2.756 2.756 0 0 1 1.897-1.896V7.646a2.756 2.756 0 0 1-1.896-1.896H7.646A2.756 2.756 0 0 1 5.75 7.646v8.707z"
        fill="currentColor"
      ></path>
    </g>
  </svg>