<svg viewBox="0 0 24 24" xmlns="http://www.w3.org/2000/svg">
    <g fill="none">
      <path
        fill-rule="evenodd"
        clip-rule="evenodd"
        d="M10.621 2.25h2.758c.513 0 .963-.002 1.363.156.35.138.661.362.903.65.276.331.418.758.58 1.245l.034.103.282.846H21a.75.75 0 0 1 0 1.5h-1.298l-.655 9.82-.002.03c-.05.763-.092 1.38-.165 1.879-.076.514-.193.964-.428 1.377a3.75 3.75 0 0 1-1.623 1.519c-.428.207-.885.294-1.403.335-.503.04-1.121.04-1.886.04H10.46c-.765 0-1.383 0-1.886-.04-.518-.041-.975-.128-1.403-.335a3.75 3.75 0 0 1-1.623-1.519c-.235-.413-.352-.863-.428-1.377-.073-.5-.114-1.116-.165-1.879l-.002-.03-.655-9.82H3a.75.75 0 0 1 0-1.5h4.46l.281-.846.035-.103c.161-.487.303-.914.58-1.244a2.25 2.25 0 0 1 .902-.65c.4-.159.85-.158 1.363-.157zm4.214 2.628l.124.372H9.041l.123-.372c.217-.65.273-.776.342-.86a.75.75 0 0 1 .3-.216c.1-.04.238-.052.924-.052h2.54c.686 0 .823.013.923.052a.75.75 0 0 1 .301.217c.07.083.125.208.341.86zM10.75 10a.75.75 0 0 0-1.5 0v7a.75.75 0 0 0 1.5 0v-7zM14 9.25a.75.75 0 0 1 .75.75v4a.75.75 0 0 1-1.5 0v-4a.75.75 0 0 1 .75-.75z"
        fill="currentColor"
      ></path>
    </g>
  </svg>