<svg viewBox="0 0 24 24" xmlns="http://www.w3.org/2000/svg">
    <g fill="none">
      <path
        fill-rule="evenodd"
        clip-rule="evenodd"
        d="M19.8 3h-5.6c-1.12 0-1.68 0-2.108.218a2 2 0 0 0-.874.874C11 4.52 11 5.08 11 6.2v.05H5.712c-.563 0-1.005 0-1.416.13a2.75 2.75 0 0 0-.98.555c-.323.285-.55.664-.84 1.148l-.051.085-1.612 2.686-.025.042c-.146.242-.26.433-.344.642a2.749 2.749 0 0 0-.158.572c-.036.222-.036.445-.036.728v2.187c0 .445 0 .816.02 1.12.022.317.069.617.19.907a2.75 2.75 0 0 0 1.488 1.489c.29.12.59.167.907.188.304.021.675.021 1.12.021H4V18h15.8c1.12 0 1.68 0 2.108-.218a2 2 0 0 0 .874-.874C23 16.48 23 15.92 23 14.8V6.2c0-1.12 0-1.68-.218-2.108a2 2 0 0 0-.874-.874C21.48 3 20.92 3 19.8 3zM1.87 12.02c.178-.02.408-.02.73-.02h5.2c1.12 0 1.68 0 2.108-.218a2 2 0 0 0 .874-.874C11 10.48 11 9.92 11 8.8V7.75H5.812c-.71 0-.9.008-1.06.06a1.25 1.25 0 0 0-.445.251c-.125.11-.23.27-.596.878l-1.612 2.687a7.14 7.14 0 0 0-.228.395z"
        fill="currentColor"
      ></path>
    </g>
  </svg>