<svg viewBox="0 0 24 24" xmlns="http://www.w3.org/2000/svg">
    <g fill="none">
      <path
        fill-rule="evenodd"
        clip-rule="evenodd"
        d="M8.45 1.4a.75.75 0 1 0-.9 1.2l2.2 1.65h-.383c-1.092 0-1.958 0-2.655.057-.714.058-1.317.18-1.868.46a4.75 4.75 0 0 0-2.076 2.077c-.281.55-.403 1.154-.461 1.868-.057.697-.057 1.563-.057 2.655v2.266c0 1.092 0 1.958.057 2.655.058.714.18 1.317.46 1.869a4.75 4.75 0 0 0 2.077 2.075c.55.281 1.154.403 1.868.461l.1.008-.483.964a.75.75 0 1 0 1.342.67l.793-1.586.9.001h5.269l.903-.001.793 1.586a.75.75 0 1 0 1.342-.67l-.482-.964.1-.008c.713-.058 1.316-.18 1.867-.46a4.75 4.75 0 0 0 2.076-2.076c.281-.552.403-1.155.461-1.869.057-.697.057-1.563.057-2.655v-2.266c0-1.092 0-1.958-.057-2.655-.058-.714-.18-1.317-.46-1.868a4.75 4.75 0 0 0-2.076-2.076c-.552-.281-1.155-.403-1.869-.461-.697-.057-1.563-.057-2.655-.057h-.383l2.2-1.65a.75.75 0 1 0-.9-1.2L12 4.063 8.45 1.4z"
        fill="currentColor"
      ></path>
    </g>
  </svg>