<svg viewBox="0 0 24 24" xmlns="http://www.w3.org/2000/svg">
    <g fill="none">
      <path
        fill-rule="evenodd"
        clip-rule="evenodd"
        d="M2.187 8.315C3.37 5.283 6.087 1.25 12 1.25s8.629 4.033 9.813 7.065l.037.094c.292.744.531 1.356.358 2.166a2.822 2.822 0 0 1-.435.964c-.191.28-.447.563-.74.757-.692.456-1.464.455-2.416.454H12.75V20a2.75 2.75 0 1 1-5.5 0v-1a.75.75 0 0 1 1.5 0v1a1.25 1.25 0 1 0 2.5 0v-7.25H5.383c-.952.001-1.724.002-2.416-.454a2.822 2.822 0 0 1-.74-.757c-.19-.28-.362-.62-.435-.964-.173-.81.066-1.422.358-2.166l.037-.094z"
        fill="currentColor"
      ></path>
    </g>
  </svg>