<svg viewBox="0 0 24 24" xmlns="http://www.w3.org/2000/svg">
    <g fill="none">
      <path
        fill-rule="evenodd"
        clip-rule="evenodd"
        d="M2 11.6c0-3.36 0-5.04.654-6.324a6 6 0 0 1 2.622-2.622C6.56 2 8.24 2 11.6 2h.8c3.36 0 5.04 0 6.324.654a6 6 0 0 1 2.622 2.622C22 6.56 22 8.24 22 11.6v.8c0 3.36 0 5.04-.654 6.324a6 6 0 0 1-2.622 2.622C17.44 22 15.76 22 12.4 22h-.8c-3.36 0-5.04 0-6.324-.654a6 6 0 0 1-2.622-2.622C2 17.44 2 15.76 2 12.4v-.8zm14 3.733A3.333 3.333 0 0 0 12.667 12h-1.334A3.333 3.333 0 0 0 8 15.333C8 16.253 8.746 17 9.667 17h4.666c.92 0 1.667-.746 1.667-1.667zM12 10a2 2 0 1 0 0-4 2 2 0 0 0 0 4z"
        fill="currentColor"
      ></path>
    </g>
  </svg>