<svg viewBox="0 0 24 24" xmlns="http://www.w3.org/2000/svg">
    <g fill="none">
      <path
        fill-rule="evenodd"
        clip-rule="evenodd"
        d="M4.25 7a4.75 4.75 0 1 1 9.5 0 4.75 4.75 0 0 1-9.5 0zM6 14.25A4.75 4.75 0 0 0 1.25 19 2.75 2.75 0 0 0 4 21.75h10A2.75 2.75 0 0 0 16.75 19 4.75 4.75 0 0 0 12 14.25H6zM20.75 7a.75.75 0 0 0-1.5 0v4.19l-1.72-1.72a.75.75 0 1 0-1.06 1.06l3 3a.75.75 0 0 0 1.06 0l3-3a.75.75 0 1 0-1.06-1.06l-1.72 1.72V7z"
        fill="currentColor"
      ></path>
    </g>
  </svg>