<svg viewBox="0 0 24 24" xmlns="http://www.w3.org/2000/svg">
    <g fill="none">
      <path
        fill-rule="evenodd"
        clip-rule="evenodd"
        d="M4.25 7a4.75 4.75 0 1 1 9.5 0 4.75 4.75 0 0 1-9.5 0zM6 14.25A4.75 4.75 0 0 0 1.25 19 2.75 2.75 0 0 0 4 21.75h10A2.75 2.75 0 0 0 16.75 19 4.75 4.75 0 0 0 12 14.25H6zM20.75 7a.75.75 0 0 0-1.5 0v2.25H17a.75.75 0 0 0 0 1.5h2.25V13a.75.75 0 0 0 1.5 0v-2.25H23a.75.75 0 0 0 0-1.5h-2.25V7z"
        fill="currentColor"
      ></path>
    </g>
  </svg>