<svg viewBox="0 0 24 24" xmlns="http://www.w3.org/2000/svg">
    <g fill="none">
      <path
        fill-rule="evenodd"
        clip-rule="evenodd"
        d="M4.25 7a4.75 4.75 0 1 1 9.5 0 4.75 4.75 0 0 1-9.5 0zM6 14.25A4.75 4.75 0 0 0 1.25 19 2.75 2.75 0 0 0 4 21.75h10A2.75 2.75 0 0 0 16.75 19 4.75 4.75 0 0 0 12 14.25H6zm12-8a.75.75 0 0 0 0 1.5h2.19l-3.72 3.72a.75.75 0 1 0 1.06 1.06l3.72-3.72V11a.75.75 0 0 0 1.5 0V7a.75.75 0 0 0-.75-.75h-4z"
        fill="currentColor"
      ></path>
    </g>
  </svg>