<svg viewBox="0 0 24 24" xmlns="http://www.w3.org/2000/svg">
    <g fill="none">
      <path
        fill-rule="evenodd"
        clip-rule="evenodd"
        d="M8 2.25a4.75 4.75 0 1 0 0 9.5 4.75 4.75 0 0 0 0-9.5zm5.25.75a.75.75 0 0 1 .75-.75 4.75 4.75 0 1 1 0 9.5.75.75 0 0 1 0-1.5 3.25 3.25 0 0 0 0-6.5.75.75 0 0 1-.75-.75zM6 14.25A4.75 4.75 0 0 0 1.25 19 2.75 2.75 0 0 0 4 21.75h8A2.75 2.75 0 0 0 14.75 19 4.75 4.75 0 0 0 10 14.25H6zm10 0a.75.75 0 0 0 0 1.5h2A3.25 3.25 0 0 1 21.25 19c0 .69-.56 1.25-1.25 1.25h-4a.75.75 0 0 0 0 1.5h4A2.75 2.75 0 0 0 22.75 19 4.75 4.75 0 0 0 18 14.25h-2z"
        fill="currentColor"
      ></path>
    </g>
  </svg>