<svg viewBox="0 0 24 24" xmlns="http://www.w3.org/2000/svg">
    <g fill="none">
      <path
        fill-rule="evenodd"
        clip-rule="evenodd"
        d="M7.25 2A.75.75 0 0 1 8 1.25h8a.75.75 0 0 1 0 1.5H8A.75.75 0 0 1 7.25 2zM6 4.25a.75.75 0 0 0 0 1.5h12a.75.75 0 0 0 0-1.5H6zm.8 3h-.032c-.813 0-1.469 0-2 .043-.546.045-1.026.14-1.47.366a3.75 3.75 0 0 0-1.64 1.639c-.226.444-.32.924-.365 1.47-.043.531-.043 1.187-.043 2v4.464c0 .813 0 1.469.043 2 .045.546.14 1.026.366 1.47a3.75 3.75 0 0 0 1.639 1.64c.444.226.924.32 1.47.365.531.043 1.187.043 2 .043h10.464c.813 0 1.469 0 2-.043.546-.045 1.026-.14 1.47-.366a3.75 3.75 0 0 0 1.64-1.639c.226-.444.32-.924.365-1.47.043-.531.043-1.187.043-2v-4.464c0-.813 0-1.469-.043-2-.045-.546-.14-1.026-.366-1.47a3.75 3.75 0 0 0-1.639-1.64c-.444-.226-.924-.32-1.47-.365-.531-.043-1.187-.043-2-.043H6.8zm3.2 8.76v-2.02c0-.972 0-1.457.203-1.725a1 1 0 0 1 .737-.395c.335-.02.74.25 1.548.788l1.515 1.01c.668.446 1.002.668 1.118.949a1 1 0 0 1 0 .766c-.116.28-.45.503-1.118.948l-1.515 1.01c-.808.54-1.213.809-1.548.789a1 1 0 0 1-.737-.395C10 17.467 10 16.982 10 16.01z"
        fill="currentColor"
      ></path>
    </g>
  </svg>