<svg viewBox="0 0 24 24" xmlns="http://www.w3.org/2000/svg">
    <g fill="none">
      <path
        fill-rule="evenodd"
        clip-rule="evenodd"
        d="M1.47 1.47a.75.75 0 0 1 1.06 0l2 2 14 14 4 4a.75.75 0 1 1-1.06 1.06l-3.113-3.112A2.748 2.748 0 0 1 16 20.75H8.367c-1.092 0-1.958 0-2.655-.057-.714-.058-1.317-.18-1.868-.46a4.75 4.75 0 0 1-2.076-2.076c-.281-.552-.403-1.155-.461-1.869-.057-.697-.057-1.563-.057-2.655V6c0-1 .534-1.876 1.332-2.357L1.47 2.53a.75.75 0 0 1 0-1.06zm12.696 3.332c-.63-.051-1.434-.052-2.566-.052H9a.75.75 0 0 1 0-1.5h2.633c1.092 0 1.958 0 2.655.057.714.058 1.317.18 1.869.46a4.75 4.75 0 0 1 2.075 2.077c.26.51.384 1.064.447 1.71l.311-.234.028-.021c.388-.291.72-.54.998-.712.276-.17.622-.345 1.02-.337a1.75 1.75 0 0 1 1.342.671c.246.314.313.696.342 1.018.03.326.03.74.03 1.226V17a.75.75 0 0 1-1.5 0V9.2c0-.53 0-.875-.023-1.125a1.115 1.115 0 0 0-.041-.242.25.25 0 0 0-.164-.082c-.018.006-.084.03-.218.113-.213.131-.49.338-.914.656l-.8.6a6.493 6.493 0 0 0-.243.187.478.478 0 0 0-.046.042l2.003-1.485-2.044 1.567a.457.457 0 0 0-.006.062 6.563 6.563 0 0 0-.004.307V13a.75.75 0 0 1-1.5 0V10.315c0-1.088-.002-1.868-.052-2.481-.05-.62-.147-1.005-.302-1.31a3.25 3.25 0 0 0-1.42-1.42c-.305-.155-.69-.251-1.31-.302z"
        fill="currentColor"
      ></path>
    </g>
  </svg>