<svg viewBox="0 0 24 24" xmlns="http://www.w3.org/2000/svg">
    <g fill="none">
      <path
        fill-rule="evenodd"
        clip-rule="evenodd"
        d="M7.975 1.25h8.05c.445 0 .816 0 1.12.02.317.022.617.07.907.19a2.75 2.75 0 0 1 1.489 1.488c.12.29.167.59.188.907.01.15.016.317.018.501.341.058.657.15.956.303a3.75 3.75 0 0 1 1.638 1.639c.227.444.321.924.366 1.47.043.531.043 1.187.043 2v4.464c0 .813 0 1.469-.043 2-.045.546-.14 1.026-.366 1.47a3.75 3.75 0 0 1-1.639 1.64 3.276 3.276 0 0 1-.955.302 9.41 9.41 0 0 1-.018.501 2.822 2.822 0 0 1-.188.907 2.75 2.75 0 0 1-1.489 1.489c-.29.12-.59.167-.907.188-.304.021-.675.021-1.12.021h-8.05c-.445 0-.816 0-1.12-.02a2.822 2.822 0 0 1-.907-.19 2.75 2.75 0 0 1-1.489-1.488c-.12-.29-.167-.59-.188-.907a9.454 9.454 0 0 1-.018-.501 3.276 3.276 0 0 1-.955-.303 3.75 3.75 0 0 1-1.64-1.639c-.226-.444-.32-.924-.365-1.47-.043-.531-.043-1.187-.043-2V9.768c0-.813 0-1.469.043-2 .045-.546.14-1.026.366-1.47a3.75 3.75 0 0 1 1.639-1.64c.299-.152.614-.244.955-.302a9.45 9.45 0 0 1 .018-.501c.021-.317.068-.617.188-.907a2.75 2.75 0 0 1 1.489-1.489c.29-.12.59-.167.907-.188.304-.021.675-.021 1.12-.021zm10.258 2.707c.006.088.01.186.012.297-.307-.004-.644-.004-1.013-.004H6.768c-.37 0-.706 0-1.013.004.002-.11.006-.209.012-.297.017-.241.046-.358.078-.435.127-.307.37-.55.677-.677.077-.032.194-.061.435-.078A17.09 17.09 0 0 1 8 2.75h8c.476 0 .796 0 1.043.017.241.017.358.046.435.078.307.127.55.37.677.677.032.077.061.194.078.435zm.012 15.789c-.307.004-.644.004-1.013.004H6.768c-.37 0-.706 0-1.013-.004.002.11.006.209.012.297.017.241.046.358.078.435.127.307.37.55.677.677.077.032.194.061.435.078.247.017.567.017 1.043.017h8c.476 0 .796 0 1.043-.017.241-.017.358-.046.435-.078.307-.127.55-.37.677-.677.032-.077.061-.194.078-.435a6.49 6.49 0 0 0 .012-.297zM10 13.01v-2.02c0-.972 0-1.457.203-1.725a1 1 0 0 1 .737-.395c.335-.02.74.25 1.548.788l1.515 1.01c.668.446 1.002.668 1.118.949a1 1 0 0 1 0 .766c-.116.28-.45.503-1.118.948l-1.515 1.01c-.808.54-1.213.809-1.548.789a1 1 0 0 1-.737-.395C10 14.467 10 13.982 10 13.01z"
        fill="currentColor"
      ></path>
    </g>
  </svg>