<svg viewBox="0 0 24 24" xmlns="http://www.w3.org/2000/svg">
    <g fill="none">
      <path
        fill-rule="evenodd"
        clip-rule="evenodd"
        d="M8.367 3.25h3.266c1.092 0 1.958 0 2.655.057.714.058 1.317.18 1.869.46a4.75 4.75 0 0 1 2.075 2.077c.26.51.384 1.065.447 1.71.191-.142.358-.264.504-.362.218-.146.452-.286.707-.358A2.25 2.25 0 0 1 22.6 8.188c.095.247.124.519.137.78.014.266.014.602.014 1.011V14.02c0 .41 0 .746-.014 1.011-.013.262-.042.534-.137.78a2.25 2.25 0 0 1-2.709 1.355c-.255-.072-.49-.212-.707-.358-.146-.098-.313-.22-.504-.362-.063.645-.187 1.2-.447 1.71a4.75 4.75 0 0 1-2.075 2.076c-.552.281-1.155.403-1.869.461-.697.057-1.563.057-2.655.057H8.367c-1.092 0-1.958 0-2.655-.057-.714-.058-1.317-.18-1.868-.46a4.75 4.75 0 0 1-2.076-2.076c-.281-.552-.403-1.155-.461-1.869-.057-.697-.057-1.563-.057-2.655v-3.266c0-1.092 0-1.958.057-2.655.058-.714.18-1.317.46-1.868a4.75 4.75 0 0 1 2.077-2.076c.55-.281 1.154-.403 1.868-.461.697-.057 1.563-.057 2.655-.057zM18.75 13.69V14c0 .267.002.32.009.365a.75.75 0 0 0 .204.408 21.214 21.214 0 0 0 1.057.79c.191.128.262.154.277.158a.75.75 0 0 0 .902-.451c.006-.014.028-.087.04-.317.01-.222.011-.52.011-.954v-4c0-.435 0-.732-.012-.954-.011-.23-.033-.302-.038-.317a.75.75 0 0 0-.903-.451c-.015.004-.086.03-.277.159-.184.124-.422.302-.77.563a2.86 2.86 0 0 0-.287.226.75.75 0 0 0-.204.409 2.872 2.872 0 0 0-.009.365V13.685"
        fill="currentColor"
      ></path>
    </g>
  </svg>