<svg viewBox="0 0 24 24" xmlns="http://www.w3.org/2000/svg">
    <g fill="none">
      <path
        fill-rule="evenodd"
        clip-rule="evenodd"
        d="M12.752 3.03a1.75 1.75 0 0 1 1.547.56c.312.345.384.82.416 1.199.035.408.035.945.035 1.594V17.617c0 .65 0 1.187-.035 1.595-.032.379-.104.853-.416 1.198a1.75 1.75 0 0 1-1.547.56c-.46-.065-.819-.384-1.086-.654-.289-.291-.632-.704-1.048-1.203l-.023-.028-1.212-1.453c-.378-.455-.484-.572-.6-.654a1.248 1.248 0 0 0-.395-.185c-.137-.037-.295-.043-.887-.043H6.17c-.535 0-.98 0-1.345-.03-.38-.03-.736-.098-1.073-.27A2.75 2.75 0 0 1 2.55 15.25c-.172-.338-.24-.694-.27-1.074-.03-.364-.03-.81-.03-1.344V11.17c0-.534 0-.98.03-1.344.03-.38.098-.737.27-1.074A2.75 2.75 0 0 1 3.752 7.55c.337-.172.693-.239 1.073-.27.365-.03.81-.03 1.345-.03H7.5c.592 0 .75-.006.887-.043.141-.038.275-.1.395-.185.116-.081.222-.199.6-.653l1.212-1.454.023-.028c.416-.499.76-.911 1.048-1.202.267-.27.626-.59 1.086-.655zm5.664 2.347a.75.75 0 1 0-.832 1.247C19.15 7.67 20.25 9.665 20.25 12c0 2.335-1.099 4.33-2.666 5.377a.75.75 0 0 0 .832 1.247c2.02-1.348 3.334-3.831 3.334-6.624 0-2.792-1.314-5.275-3.334-6.623zm-1 4a.75.75 0 1 0-.832 1.247c.371.248.666.75.666 1.376 0 .626-.295 1.128-.666 1.377a.75.75 0 0 0 .832 1.247c.824-.55 1.334-1.54 1.334-2.624 0-1.083-.51-2.073-1.334-2.623z"
        fill="currentColor"
      ></path>
    </g>
  </svg>