<svg viewBox="0 0 24 24" xmlns="http://www.w3.org/2000/svg">
    <g fill="none">
      <path
        fill-rule="evenodd"
        clip-rule="evenodd"
        d="M1.47 1.47a.75.75 0 0 1 1.06 0l6 6 6 6 8 8a.75.75 0 1 1-1.06 1.06l-6.72-6.72v1.807c0 .65 0 1.186-.035 1.595-.032.379-.104.853-.416 1.198a1.75 1.75 0 0 1-1.547.56c-.46-.066-.819-.384-1.086-.654-.289-.291-.632-.704-1.048-1.203l-.023-.028-1.212-1.454c-.378-.454-.484-.572-.6-.653a1.25 1.25 0 0 0-.395-.185c-.137-.037-.295-.043-.887-.043H6.17c-.535 0-.98 0-1.345-.03-.38-.03-.736-.098-1.073-.27A2.75 2.75 0 0 1 2.55 15.25c-.172-.338-.24-.694-.27-1.074-.03-.365-.03-.81-.03-1.345V11.17c0-.535 0-.98.03-1.345.03-.38.098-.736.27-1.073A2.75 2.75 0 0 1 3.752 7.55c.337-.172.693-.24 1.073-.27.365-.03.81-.03 1.345-.03h.02L1.47 2.53a.75.75 0 0 1 0-1.06zm11.46 3.052l-.003.002c-.017.014-.072.059-.177.17-.161.171-.368.42-.674.786l-.833 1a.75.75 0 1 1-1.152-.96l.833-1 .016-.02c.285-.342.522-.625.717-.833.18-.192.417-.423.71-.537a1.75 1.75 0 0 1 2.163.783c.153.276.187.604.203.868.017.284.017.653.017 1.1V10a.75.75 0 0 1-1.5 0V5.905c0-.477 0-.8-.014-1.035a1.732 1.732 0 0 0-.027-.243l-.001-.004a.25.25 0 0 0-.279-.1zm5.486.854a.75.75 0 1 0-.832 1.248C19.15 7.67 20.25 9.664 20.25 12c0 .976-.192 1.896-.533 2.711a6.476 6.476 0 0 1-.457.897.75.75 0 0 0 1.278.784c.214-.348.403-.717.564-1.103.416-1 .648-2.115.648-3.289 0-2.793-1.314-5.275-3.334-6.624zm-1 4a.75.75 0 1 0-.832 1.248c.371.248.666.75.666 1.376 0 .26-.051.5-.14.711a.75.75 0 0 0 1.386.578A3.35 3.35 0 0 0 18.75 12c0-1.083-.51-2.074-1.334-2.624z"
        fill="currentColor"
      ></path>
    </g>
  </svg>