<svg viewBox="0 0 24 24" xmlns="http://www.w3.org/2000/svg">
    <g fill="none">
      <path
        fill-rule="evenodd"
        clip-rule="evenodd"
        d="M17.3 3.59a1.75 1.75 0 0 0-1.548-.56c-.46.066-.819.384-1.086.655-.289.29-.632.703-1.048 1.202l-.023.028-1.212 1.454c-.378.454-.484.572-.6.653a1.25 1.25 0 0 1-.395.185c-.137.037-.295.043-.887.043H9.17c-.535 0-.98 0-1.345.03-.38.031-.736.098-1.073.27A2.75 2.75 0 0 0 5.55 8.752c-.172.337-.24.694-.27 1.074-.03.364-.03.81-.03 1.344V12.83c0 .535 0 .98.03 1.345.03.38.098.736.27 1.074a2.75 2.75 0 0 0 1.202 1.202c.337.171.693.238 1.073.27.365.03.81.03 1.345.03H10.5c.592 0 .75.005.887.042.141.038.275.1.395.185.116.082.222.2.6.654l1.212 1.453.023.028c.416.5.76.912 1.048 1.203.267.27.626.589 1.086.655a1.75 1.75 0 0 0 1.547-.56c.312-.346.384-.82.416-1.2.035-.407.035-.944.035-1.594V6.383c0-.65 0-1.186-.035-1.594-.032-.38-.104-.854-.416-1.199z"
        fill="currentColor"
      ></path>
    </g>
  </svg>