<svg viewBox="0 0 24 24" xmlns="http://www.w3.org/2000/svg">
    <g fill="none">
      <path
        fill-rule="evenodd"
        clip-rule="evenodd"
        d="M14.8 3.75c.572 0 .957 0 1.252.025.288.023.425.065.515.111.236.12.427.311.547.547.046.09.088.227.111.514.024.296.025.68.025 1.253v.05H4a1.25 1.25 0 1 1 0-2.5h10.8zM1.25 5A2.75 2.75 0 0 1 4 2.25h10.83c.535 0 .98 0 1.345.03.38.03.736.098 1.073.27a2.75 2.75 0 0 1 1.202 1.202c.172.337.24.693.27 1.073.03.365.03.81.03 1.345v.096c.171.006.331.015.482.027.546.045 1.026.14 1.47.366a3.75 3.75 0 0 1 1.64 1.639c.226.444.32.924.365 1.47.033.414.04.902.043 1.482H21a2.75 2.75 0 1 0 0 5.5h1.75c-.002.58-.01 1.068-.043 1.482-.045.546-.14 1.026-.366 1.47a3.75 3.75 0 0 1-1.639 1.64c-.444.226-.924.32-1.47.365-.531.043-1.187.043-2 .043H6.768c-.813 0-1.469 0-2-.043-.546-.045-1.026-.14-1.47-.366a3.75 3.75 0 0 1-1.64-1.639c-.226-.444-.32-.924-.365-1.47-.043-.531-.043-1.187-.043-2V5zm21.5 7.75v2.5H21a1.25 1.25 0 1 1 0-2.5h1.75z"
        fill="currentColor"
      ></path>
    </g>
  </svg>