<svg viewBox="0 0 24 24" xmlns="http://www.w3.org/2000/svg">
    <g fill="none">
      <path
        fill-rule="evenodd"
        clip-rule="evenodd"
        d="M16.052 3.775c-.295-.024-.68-.025-1.252-.025H4a1.25 1.25 0 1 0 0 2.5h13.25V6.2c0-.572 0-.957-.025-1.253-.023-.287-.065-.424-.111-.514a1.25 1.25 0 0 0-.547-.547c-.09-.046-.227-.088-.515-.111zM4 2.25A2.75 2.75 0 0 0 1.25 5v11.232c0 .813 0 1.469.043 2 .045.546.14 1.026.366 1.47a3.75 3.75 0 0 0 1.639 1.64c.444.226.924.32 1.47.365.531.043 1.187.043 2 .043h10.464c.813 0 1.469 0 2-.043.546-.045 1.026-.14 1.47-.366a3.75 3.75 0 0 0 1.64-1.639c.226-.444.32-.924.365-1.47.033-.414.04-.902.043-1.482H21a2.75 2.75 0 1 1 0-5.5h1.75c-.002-.58-.01-1.068-.043-1.481-.045-.547-.14-1.027-.366-1.471a3.75 3.75 0 0 0-1.639-1.64c-.444-.226-.924-.32-1.47-.365-.15-.012-.311-.02-.482-.027V6.17c0-.535 0-.98-.03-1.345-.03-.38-.098-.736-.27-1.073A2.75 2.75 0 0 0 17.25 2.55c-.338-.172-.694-.24-1.074-.27-.365-.03-.81-.03-1.345-.03H4zm17 13h1.75v-2.5H21a1.25 1.25 0 1 0 0 2.5zm-13.5-2a.75.75 0 0 0 0 1.5h5a.75.75 0 0 0 0-1.5h-5z"
        fill="currentColor"
      ></path>
    </g>
  </svg>