<svg viewBox="0 0 12 12" fill="none" xmlns="http://www.w3.org/2000/svg">
    <path fill="currentColor" fill-rule="evenodd" clip-rule="evenodd" d="M5.34766 0.140984C5.76295 -0.0469945 6.23705 -0.0469945 6.65233 0.140984C6.93548 0.269149 7.1447 0.506034 7.33376 0.777759C7.5214 1.04742 7.72874 1.412 7.98468 1.86204L11.1887 7.49573C11.4456 7.94744 11.6537 8.31328 11.7904 8.61413C11.9281 8.91716 12.026 9.22064 11.9938 9.53508C11.9466 9.99605 11.7094 10.415 11.3411 10.6875C11.0899 10.8734 10.7829 10.9392 10.4563 10.9697C10.132 11 9.71673 11 9.204 11H2.796C2.28327 11 1.868 11 1.54374 10.9697C1.21711 10.9392 0.91005 10.8734 0.658872 10.6875C0.290626 10.415 0.0533728 9.99605 0.00616092 9.53508C-0.0260421 9.22064 0.0718677 8.91716 0.209586 8.61413C0.346305 8.31329 0.554367 7.94746 0.811258 7.49578L4.01532 1.86204C4.27126 1.41201 4.4786 1.04742 4.66624 0.777758C4.8553 0.506033 5.06452 0.269149 5.34766 0.140984Z"/>
    <path d="M6 4V6" stroke="white" stroke-width="1.5" stroke-linecap="round"/>
    <circle cx="6" cy="8.25" r="0.75" fill="white"/>
  </svg>