<svg viewBox="0 0 24 24" xmlns="http://www.w3.org/2000/svg">
    <g fill="none">
      <path
        fill-rule="evenodd"
        clip-rule="evenodd"
        d="M11.396 1.25H12.604c.444 0 .818 0 1.127.023.325.024.631.076.93.207.465.203.864.53 1.154.946.187.268.298.557.386.872.083.298.157.665.244 1.1V4.4l.005.026.185.927a4 4 0 0 1 1.929 1.832C19 8.04 19 9.16 19 11.4v1.2c0 2.24 0 3.36-.436 4.216a4 4 0 0 1-1.929 1.832l-.185.927-.005.026c-.087.436-.16.803-.244 1.102a2.779 2.779 0 0 1-.386.871 2.75 2.75 0 0 1-1.153.946c-.3.13-.606.183-.93.207-.31.023-.684.023-1.128.023H11.396c-.444 0-.818 0-1.127-.023a2.779 2.779 0 0 1-.93-.207 2.75 2.75 0 0 1-1.154-.946 2.781 2.781 0 0 1-.386-.872 16.343 16.343 0 0 1-.244-1.101l-.005-.026-.185-.927a4 4 0 0 1-1.929-1.832C5 15.96 5 14.84 5 12.6v-1.2c0-2.24 0-3.36.436-4.216a4 4 0 0 1 1.929-1.832l.185-.927.005-.026c.087-.436.16-.803.244-1.101a2.78 2.78 0 0 1 .386-.872 2.75 2.75 0 0 1 1.153-.946c.3-.13.605-.183.93-.207.31-.023.684-.023 1.128-.023zm-2.44 17.709l.065.322c.094.469.157.78.223 1.02.064.229.118.34.17.415.132.188.314.337.525.43.084.036.203.067.44.085.248.018.566.019 1.044.019h1.154c.478 0 .796 0 1.043-.019.238-.018.357-.049.441-.086.211-.092.393-.24.524-.43.053-.074.107-.185.17-.415.067-.239.13-.55.224-1.02l.064-.321c-.636.04-1.423.04-2.443.04h-1.2c-1.02 0-1.807 0-2.443-.04zm6.023-14.24l.064.322C14.407 5 13.62 5 12.6 5h-1.2c-1.02 0-1.807 0-2.443.041l.064-.321c.094-.47.157-.781.223-1.02.064-.23.118-.34.17-.415a1.25 1.25 0 0 1 .525-.43c.084-.037.203-.068.44-.086.248-.019.566-.019 1.044-.019h1.154c.478 0 .796 0 1.043.019.238.018.357.049.441.086.211.092.393.24.524.43.053.074.107.185.17.415.067.239.13.55.224 1.02zM12.75 10a.75.75 0 0 0-1.5 0v2c0 .252.125.486.334.625l1.5 1a.75.75 0 0 0 .832-1.248l-1.166-.777V10z"
        fill="currentColor"
      ></path>
    </g>
  </svg>