<svg viewBox="0 0 24 24" xmlns="http://www.w3.org/2000/svg">
    <g fill="none">
      <path
        fill-rule="evenodd"
        clip-rule="evenodd"
        d="M11.597 1.25h.806c.445 0 .819 0 1.128.023.325.024.631.076.93.207.465.203.864.53 1.154.946.187.268.299.557.386.872.083.298.156.665.244 1.101l.005.026.483 2.418A6.982 6.982 0 0 1 19 12c0 2.04-.873 3.878-2.267 5.157l-.483 2.418-.005.026c-.088.436-.16.803-.244 1.102a2.779 2.779 0 0 1-.386.871 2.75 2.75 0 0 1-1.153.946c-.3.13-.605.183-.93.207-.31.023-.684.023-1.129.023h-.806c-.445 0-.819 0-1.128-.023a2.779 2.779 0 0 1-.93-.207 2.75 2.75 0 0 1-1.154-.946 2.78 2.78 0 0 1-.386-.872 16.344 16.344 0 0 1-.244-1.101l-.005-.026-.483-2.418A6.982 6.982 0 0 1 5 12c0-2.04.873-3.878 2.267-5.157l.483-2.418.005-.026c.087-.436.16-.803.244-1.101a2.78 2.78 0 0 1 .386-.872 2.75 2.75 0 0 1 1.153-.946c.3-.13.605-.183.93-.207.31-.023.684-.023 1.129-.023zM9.033 18.342l.188.939c.094.469.157.78.223 1.02.064.229.118.34.17.415.132.188.314.337.525.43.084.036.203.067.44.085.248.018.566.019 1.044.019h.754c.478 0 .796 0 1.043-.019.238-.018.357-.049.441-.086.211-.092.393-.24.524-.43.053-.074.107-.185.17-.415.067-.239.13-.55.224-1.02l.188-.938C14.066 18.764 13.06 19 12 19a6.973 6.973 0 0 1-2.967-.658zM14.78 4.72l.188.938A6.973 6.973 0 0 0 12 5c-1.06 0-2.066.236-2.967.658l.188-.938c.094-.47.157-.781.223-1.02.064-.23.118-.34.17-.415a1.25 1.25 0 0 1 .525-.43c.084-.037.203-.068.44-.086.248-.019.566-.019 1.044-.019h.754c.478 0 .796 0 1.043.019.238.018.357.049.441.086.211.092.393.24.524.43.053.074.107.185.17.415.067.239.13.55.224 1.02zM12.75 10a.75.75 0 0 0-1.5 0v2c0 .25.125.485.334.624l1.5 1a.75.75 0 0 0 .832-1.248l-1.166-.777V10z"
        fill="currentColor"
      ></path>
    </g>
  </svg>