<svg viewBox="0 0 24 24" xmlns="http://www.w3.org/2000/svg">
    <g fill="none">
      <path
        fill-rule="evenodd"
        clip-rule="evenodd"
        d="M4.25 9a7.75 7.75 0 1 1 13.537 5.155c1.482 1.184 2.41 2.761 2.989 4.153l.036.086c.301.723.55 1.32.387 2.14-.07.348-.24.696-.43.98-.19.283-.445.575-.74.772-.697.466-1.467.465-2.415.464H6.386c-.948.001-1.718.002-2.416-.464a2.828 2.828 0 0 1-.74-.772 2.828 2.828 0 0 1-.429-.98c-.162-.82.086-1.417.387-2.14l.036-.086c.578-1.392 1.507-2.97 2.989-4.153A7.72 7.72 0 0 1 4.25 9zm3.081 6.187c-1.319.982-2.175 2.38-2.722 3.696-.346.834-.403 1.023-.336 1.36.018.093.085.257.206.438.12.18.246.305.325.358.276.184.558.211 1.732.211h10.928c1.175 0 1.456-.027 1.732-.21.08-.054.205-.178.325-.36.12-.18.188-.344.206-.437.067-.337.01-.526-.336-1.36-.547-1.316-1.403-2.714-2.722-3.696A7.716 7.716 0 0 1 12 16.75a7.716 7.716 0 0 1-4.669-1.563zM12 11a2 2 0 1 0 0-4 2 2 0 0 0 0 4z"
        fill="currentColor"
      ></path>
    </g>
  </svg>