<svg viewBox="0 0 24 24" xmlns="http://www.w3.org/2000/svg">
    <g fill="none">
      <path
        fill-rule="evenodd"
        clip-rule="evenodd"
        d="M2.53 1.47a.75.75 0 0 0-1.06 1.06L4.878 5.94A7.727 7.727 0 0 0 4.25 9c0 1.98.742 3.785 1.963 5.155-1.482 1.184-2.41 2.761-2.989 4.153l-.036.086c-.301.723-.55 1.32-.387 2.14.07.348.24.696.43.98.19.283.445.575.74.772.697.466 1.467.465 2.415.464H17.614c.948.001 1.718.002 2.416-.464.228-.153.435-.364.607-.588l.833.832a.75.75 0 1 0 1.06-1.06l-6.782-6.782-9.436-9.436L2.53 1.47zm17.03 19.15l-4.499-4.498A7.727 7.727 0 0 1 12 16.75a7.716 7.716 0 0 1-4.669-1.563c-1.319.982-2.175 2.38-2.722 3.696-.346.834-.403 1.023-.336 1.36.018.093.085.257.206.438.12.18.246.305.325.358.276.184.558.211 1.732.211h10.928c1.175 0 1.457-.027 1.732-.21a1.46 1.46 0 0 0 .364-.42zM8.43 3.87a6.25 6.25 0 0 1 8.701 8.701.75.75 0 1 0 1.23.858A7.75 7.75 0 0 0 7.57 2.64a.75.75 0 1 0 .858 1.23zM11.25 7a.75.75 0 0 1 .75-.75A2.75 2.75 0 0 1 14.75 9a.75.75 0 0 1-1.5 0c0-.69-.56-1.25-1.25-1.25a.75.75 0 0 1-.75-.75z"
        fill="currentColor"
      ></path>
    </g>
  </svg>