<svg viewBox="0 0 24 24" xmlns="http://www.w3.org/2000/svg">
    <g fill="none">
      <path
        fill-rule="evenodd"
        clip-rule="evenodd"
        d="M10.098 1.25h-.034c-.67 0-1.22 0-1.663.04-.455.04-.882.127-1.264.358a2.75 2.75 0 0 0-1.203 1.54c-.108.351-.115.709-.074 1.076a3.935 3.935 0 0 0-.83.114 3.75 3.75 0 0 0-2.652 2.651c-.129.48-.128 1.037-.128 1.855v7.348c0 .813 0 1.469.043 2 .045.546.14 1.026.366 1.47a3.75 3.75 0 0 0 1.638 1.64c.445.226.925.32 1.471.365.531.043 1.187.043 2 .043h8.464c.813 0 1.469 0 2-.043.546-.045 1.026-.14 1.47-.366a3.75 3.75 0 0 0 1.64-1.639c.226-.444.32-.924.365-1.47.043-.531.043-1.187.043-2V8.884c0-.818 0-1.376-.128-1.855a3.75 3.75 0 0 0-2.651-2.651 3.935 3.935 0 0 0-.831-.114c.04-.367.034-.725-.074-1.076a2.75 2.75 0 0 0-1.203-1.54c-.382-.231-.809-.319-1.264-.359-.442-.039-.994-.039-1.663-.039H10.099zm3.403 8h-.54l.766-3.068a.75.75 0 1 0-1.455-.364l-.858 3.432H10.5c-.964 0-1.223-.014-1.422-.098a1.25 1.25 0 0 1-.516-.403c-.129-.172-.206-.42-.44-1.355l-.4-1.6c-.172-.69-.29-1.161-.347-1.526-.057-.36-.04-.53-.007-.637a1.25 1.25 0 0 1 .547-.7c.096-.058.257-.116.62-.148.367-.032.852-.033 1.564-.033h3.803c.713 0 1.198 0 1.566.033.362.032.523.09.62.148.26.158.455.408.546.7.033.107.05.277-.007.637-.058.365-.175.835-.348 1.526l-.4 1.6c-.233.934-.31 1.183-.439 1.355a1.25 1.25 0 0 1-.516.403c-.199.084-.459.098-1.421.098zM9.25 17a.75.75 0 0 1 .75-.75h4a.75.75 0 1 1 0 1.5h-4a.75.75 0 0 1-.75-.75z"
        fill="currentColor"
      ></path>
    </g>
  </svg>