<svg viewBox="0 0 24 24" xmlns="http://www.w3.org/2000/svg">
    <g fill="none">
      <path
        fill-rule="evenodd"
        clip-rule="evenodd"
        d="M11.17 1.25H12.83c.535 0 .98 0 1.345.03.38.03.736.098 1.073.27a2.75 2.75 0 0 1 1.202 1.202c.172.337.24.693.27 1.073.03.365.03.81.03 1.345v1.48a8.75 8.75 0 1 1-9.5 0V5.17c0-.535 0-.98.03-1.345.03-.38.098-.736.27-1.073A2.75 2.75 0 0 1 8.752 1.55c.337-.172.693-.24 1.073-.27.365-.03.81-.03 1.345-.03zm4.08 3.95v.673A8.726 8.726 0 0 0 12 5.25a8.726 8.726 0 0 0-3.25.623V5.2c0-.572 0-.957.025-1.253.023-.287.065-.424.111-.514a1.25 1.25 0 0 1 .547-.547c.09-.046.227-.088.514-.111.296-.024.68-.025 1.253-.025h1.6c.572 0 .957 0 1.252.025.288.023.425.065.516.111.235.12.426.311.546.547.046.09.088.227.111.514.024.296.025.68.025 1.253zM8 13.25a.75.75 0 0 1 .75.75A3.25 3.25 0 0 0 12 17.25a.75.75 0 0 1 0 1.5A4.75 4.75 0 0 1 7.25 14a.75.75 0 0 1 .75-.75z"
        fill="currentColor"
      ></path>
    </g>
  </svg>