<svg viewBox="0 0 24 24" xmlns="http://www.w3.org/2000/svg">
    <g fill="none">
      <path
        fill-rule="evenodd"
        clip-rule="evenodd"
        d="M2.327 3.638C2 4.28 2 5.12 2 6.8v10.4c0 1.68 0 2.52.327 3.162a3 3 0 0 0 1.311 1.311C4.28 22 5.12 22 6.8 22h10.4c1.68 0 2.52 0 3.162-.327a3 3 0 0 0 1.311-1.311C22 19.72 22 18.88 22 17.2V6.8c0-1.68 0-2.52-.327-3.162a3 3 0 0 0-1.311-1.311C19.72 2 18.88 2 17.2 2H6.8c-1.68 0-2.52 0-3.162.327a3 3 0 0 0-1.311 1.311zm4.759 7.716l-.02-.036c-.324-.582-.486-.873-.503-1.353-.012-.322.16-.921.34-1.189.268-.398.454-.502.826-.709C8.724 7.515 10.148 7 12 7c1.853 0 3.277.515 4.271 1.067.373.207.56.311.827.71.18.267.351.866.34 1.188-.017.48-.179.77-.502 1.353l-.02.036c-.334.6-.5.899-.736 1.117a2 2 0 0 1-.728.428c-.306.101-.649.101-1.334.101h-1.539l-1.927-3.372a.75.75 0 1 0-1.302.744L10.85 13h-.968c-.685 0-1.028 0-1.334-.101a1.999 1.999 0 0 1-.728-.428c-.236-.218-.403-.518-.735-1.117zM9.25 17a.75.75 0 0 1 .75-.75h4a.75.75 0 1 1 0 1.5h-4a.75.75 0 0 1-.75-.75z"
        fill="currentColor"
      ></path>
    </g>
  </svg>