<svg viewBox="0 0 24 24" xmlns="http://www.w3.org/2000/svg">
    <g fill="none">
      <path
        fill-rule="evenodd"
        clip-rule="evenodd"
        d="M5.25 6.5c0-.494 0-.741-.026-.82a.488.488 0 0 0-.753-.254c-.068.046-.185.198-.417.502A9.956 9.956 0 0 0 2 12c0 5.523 4.477 10 10 10 .633 0 1.252-.059 1.853-.171.94-.255 1.618-.608 2.103-1.015.953-.799 1.294-1.916 1.294-3.314 0-2.563-2.288-4.75-5.25-4.75-3.665 0-6.75-2.738-6.75-6.25zm13.5 11c0 .494 0 .741.026.82.11.324.468.445.753.254.068-.046.185-.198.418-.503A9.956 9.956 0 0 0 22 12c0-5.523-4.477-10-10-10-.633 0-1.252.059-1.853.171-.94.255-1.618.608-2.103 1.015C7.091 3.984 6.75 5.102 6.75 6.5c0 2.563 2.288 4.75 5.25 4.75 3.665 0 6.75 2.738 6.75 6.25zM12 8a1 1 0 1 0 0-2 1 1 0 0 0 0 2zm1 9a1 1 0 1 1-2 0 1 1 0 0 1 2 0z"
        fill="currentColor"
      ></path>
    </g>
  </svg>