<svg viewBox="0 0 24 24" xmlns="http://www.w3.org/2000/svg">
    <g fill="none">
      <path
        fill-rule="evenodd"
        clip-rule="evenodd"
        d="M8 2.25a.75.75 0 0 0-.53.22l-5 5a.75.75 0 0 0-.22.53v8c0 .199.079.39.22.53l5 5c.14.141.331.22.53.22h8a.75.75 0 0 0 .53-.22l5-5a.75.75 0 0 0 .22-.53V8a.75.75 0 0 0-.22-.53l-5-5a.75.75 0 0 0-.53-.22H8zM3.75 8.31l4.56-4.56h7.38l4.56 4.56v7.38l-4.56 4.56H8.31l-4.56-4.56V8.31zM12 7.25a.75.75 0 0 1 .75.75v5a.75.75 0 0 1-1.5 0V8a.75.75 0 0 1 .75-.75zM13 16a1 1 0 1 1-2 0 1 1 0 0 1 2 0z"
        fill="currentColor"
      ></path>
    </g>
  </svg>