<svg viewBox="0 0 24 24" xmlns="http://www.w3.org/2000/svg">
    <g fill="none">
      <path
        fill-rule="evenodd"
        clip-rule="evenodd"
        d="M8.25 5a3.75 3.75 0 1 1 4.5 3.675v12.537a7.253 7.253 0 0 0 6.462-6.462H17a.75.75 0 0 1 0-1.5h3a.75.75 0 0 1 .75.75 8.75 8.75 0 1 1-17.5 0 .75.75 0 0 1 .75-.75h3a.75.75 0 0 1 0 1.5H4.788a7.253 7.253 0 0 0 6.462 6.462V8.675A3.751 3.751 0 0 1 8.25 5zm6 0a2.25 2.25 0 0 1-2.249 2.25H12A2.25 2.25 0 1 1 14.25 5z"
        fill="currentColor"
      ></path>
    </g>
  </svg>