<svg viewBox="0 0 24 24" xmlns="http://www.w3.org/2000/svg">
    <g fill="none">
      <path
        fill-rule="evenodd"
        clip-rule="evenodd"
        d="M3.5 2.25h-.022c-.214 0-.41 0-.576.011-.178.012-.373.04-.572.122a1.75 1.75 0 0 0-.947.947c-.082.199-.11.394-.122.572-.011.165-.011.362-.011.576v.044c0 .214 0 .41.011.576.012.178.04.373.122.572.178.428.519.77.947.947.199.082.394.11.572.122a5.9 5.9 0 0 0 .348.01v9.483c0 .813 0 1.469.043 2 .045.546.14 1.026.366 1.47a3.75 3.75 0 0 0 1.639 1.64c.444.226.924.32 1.47.365.531.043 1.187.043 2 .043h6.464c.813 0 1.469 0 2-.043.546-.045 1.026-.14 1.47-.366a3.75 3.75 0 0 0 1.64-1.639c.226-.444.32-.924.365-1.47.043-.531.043-1.187.043-2V6.75a5.9 5.9 0 0 0 .348-.011c.178-.012.373-.04.572-.122a1.75 1.75 0 0 0 .947-.947c.082-.199.11-.394.122-.572.011-.165.011-.362.011-.576v-.044c0-.214 0-.41-.011-.576a1.781 1.781 0 0 0-.122-.572 1.75 1.75 0 0 0-.947-.947 1.781 1.781 0 0 0-.572-.122c-.165-.011-.362-.011-.576-.011H3.5zm15.75 4.5H4.75v9.45c0 .852 0 1.447.038 1.91.037.453.107.714.207.912.216.423.56.767.984.983.197.1.458.17.912.207.462.037 1.057.038 1.909.038h6.4c.852 0 1.447 0 1.91-.038.453-.038.714-.107.912-.207a2.25 2.25 0 0 0 .983-.983c.1-.198.17-.459.207-.913.037-.462.038-1.057.038-1.909V6.75zm.75-1.5h.5c.243 0 .388 0 .496-.008a.643.643 0 0 0 .103-.012.25.25 0 0 0 .13-.131.63.63 0 0 0 .013-.103c.008-.108.008-.253.008-.496s0-.388-.008-.496a.63.63 0 0 0-.012-.103.25.25 0 0 0-.131-.13.644.644 0 0 0-.103-.013 8.29 8.29 0 0 0-.496-.008h-17c-.243 0-.388 0-.496.008a.642.642 0 0 0-.103.012.25.25 0 0 0-.13.131.64.64 0 0 0-.013.103 8.289 8.289 0 0 0-.008.496c0 .243 0 .388.008.496a.64.64 0 0 0 .012.103.25.25 0 0 0 .131.13.64.64 0 0 0 .103.013 8.3 8.3 0 0 0 .496.008H20zM8.25 10A.75.75 0 0 1 9 9.25h6a.75.75 0 0 1 0 1.5H9a.75.75 0 0 1-.75-.75z"
        fill="currentColor"
      ></path>
    </g>
  </svg>