<svg viewBox="0 0 24 24" xmlns="http://www.w3.org/2000/svg">
    <g fill="none">
      <path
        fill-rule="evenodd"
        clip-rule="evenodd"
        d="M8.47 6.53a.75.75 0 0 1 0-1.06l3-3a.75.75 0 0 1 1.06 0l3 3a.75.75 0 0 1-1.06 1.06l-1.72-1.72V9a.75.75 0 0 1-1.5 0V4.81L9.53 6.53a.75.75 0 0 1-1.06 0zm10.06 1.94a.75.75 0 1 0-1.06 1.06l1.72 1.72H15a.75.75 0 0 0 0 1.5h4.19l-1.72 1.72a.75.75 0 1 0 1.06 1.06l3-3a.75.75 0 0 0 0-1.06l-3-3zm-13.06 0a.75.75 0 0 1 1.06 1.06l-1.72 1.72H9a.75.75 0 0 1 0 1.5H4.81l1.72 1.72a.75.75 0 1 1-1.06 1.06l-3-3a.75.75 0 0 1 0-1.06l3-3zm3 10.06a.75.75 0 1 1 1.06-1.06l1.72 1.72V15a.75.75 0 0 1 1.5 0v4.19l1.72-1.72a.75.75 0 1 1 1.06 1.06l-3 3a.75.75 0 0 1-1.06 0l-3-3z"
        fill="currentColor"
      ></path>
    </g>
  </svg>