<svg viewBox="0 0 24 24" xmlns="http://www.w3.org/2000/svg">
    <g fill="none">
      <path
        fill-rule="evenodd"
        clip-rule="evenodd"
        d="M8.47 2.47a.75.75 0 0 1 1.06 0l5 5a.75.75 0 0 1-1.06 1.06L9.75 4.81v7.79c0 1.133 0 1.937.052 2.566.05.62.147 1.005.302 1.31a3.25 3.25 0 0 0 1.42 1.42c.305.155.69.251 1.31.302.63.051 1.434.052 2.566.052H20a.75.75 0 0 1 0 1.5h-4.633c-1.092 0-1.958 0-2.655-.057-.714-.058-1.317-.18-1.868-.46a4.75 4.75 0 0 1-2.076-2.076c-.281-.552-.403-1.155-.461-1.869-.057-.697-.057-1.563-.057-2.655V4.81L4.53 8.53a.75.75 0 0 1-1.06-1.06l5-5z"
        fill="currentColor"
      ></path>
    </g>
  </svg>