<svg viewBox="0 0 24 24" xmlns="http://www.w3.org/2000/svg">
    <g fill="none">
      <path
        fill-rule="evenodd"
        clip-rule="evenodd"
        d="M14.47 2.47a.75.75 0 0 1 1.06 0l5 5a.75.75 0 0 1-1.06 1.06l-3.72-3.72v7.825c0 1.091 0 1.956-.057 2.654-.058.713-.18 1.316-.46 1.868a4.75 4.75 0 0 1-2.077 2.075c-.55.281-1.154.403-1.868.461-.697.057-1.563.057-2.655.057H4a.75.75 0 0 1 0-1.5h4.6c1.132 0 1.937 0 2.566-.052.62-.05 1.005-.147 1.31-.302a3.25 3.25 0 0 0 1.42-1.42c.155-.305.251-.69.302-1.31.051-.629.052-1.432.052-2.564V4.81l-3.72 3.72A.75.75 0 1 1 9.47 7.47l5-5z"
        fill="currentColor"
      ></path>
    </g>
  </svg>