<svg viewBox="0 0 24 24" xmlns="http://www.w3.org/2000/svg">
    <g fill="none">
      <path
        fill-rule="evenodd"
        clip-rule="evenodd"
        d="M20 2.25a.75.75 0 0 0-.75.75V7.6c0 1.133 0 1.937-.052 2.566-.05.62-.147 1.005-.302 1.31a3.25 3.25 0 0 1-1.42 1.42c-.305.155-.69.251-1.31.302-.63.051-1.434.052-2.566.052H5.81l3.72-3.72a.75.75 0 0 0-1.06-1.06l-5 5a.75.75 0 0 0 0 1.06l5 5a.75.75 0 0 0 1.06-1.06l-3.72-3.72h7.823c1.092 0 1.958 0 2.655-.057.714-.058 1.317-.18 1.869-.46a4.75 4.75 0 0 0 2.075-2.077c.281-.55.403-1.154.461-1.868.057-.697.057-1.563.057-2.655V3a.75.75 0 0 0-.75-.75z"
        fill="currentColor"
      ></path>
    </g>
  </svg>