<svg viewBox="0 0 24 24" xmlns="http://www.w3.org/2000/svg">
    <g fill="none">
      <path
        fill-rule="evenodd"
        clip-rule="evenodd"
        d="M9.53 2.47a.75.75 0 0 1 0 1.06L5.81 7.25h7.828c1.09 0 1.955 0 2.652.057.712.058 1.315.18 1.867.46a4.75 4.75 0 0 1 2.075 2.077c.281.55.403 1.154.461 1.868.057.698.057 1.563.057 2.655V19a.75.75 0 0 1-1.5 0V14.401c0-1.133 0-1.938-.052-2.567-.05-.62-.147-1.005-.302-1.31a3.25 3.25 0 0 0-1.42-1.42c-.305-.155-.69-.251-1.309-.302-.628-.051-1.431-.052-2.562-.052H5.81l3.72 3.72a.75.75 0 1 1-1.061 1.06l-5-5a.75.75 0 0 1 0-1.06l5-5a.75.75 0 0 1 1.06 0z"
        fill="currentColor"
      ></path>
    </g>
  </svg>