<svg
    viewBox="0 0 24 24"
    xmlns="http://www.w3.org/2000/svg"
   
   
  >
    <path
      fill-rule="evenodd"
      clip-rule="evenodd"
      d="M13.2429 2.74969C13.0197 2.74969 12.8636 2.86648 12.8174 3.06814L11.7676 7.65527C11.601 8.38529 11.0191 8.93926 10.2949 9.09516L5.57193 10.1148C5.12382 10.2115 5.12379 10.7984 5.57189 10.8951L10.2949 11.9148C11.0189 12.0708 11.6011 12.6248 11.7676 13.3546L12.8174 17.9417C12.8636 18.1434 13.0197 18.2602 13.2429 18.2602C13.466 18.2602 13.6222 18.1434 13.6683 17.9418L14.7181 13.3546C14.8848 12.625 15.4666 12.0708 16.1905 11.9148L20.9138 10.8951C21.3619 10.7984 21.362 10.2115 20.9139 10.1148L16.1909 9.09516C15.4668 8.93929 14.885 8.38552 14.7182 7.65572L13.6683 3.06818C13.6222 2.86652 13.466 2.74969 13.2429 2.74969ZM15.1305 2.73358C14.6779 0.755066 11.8079 0.755066 11.3552 2.73358L10.3053 7.32109C10.2728 7.46346 10.1532 7.59129 9.97919 7.62875L5.25543 8.64854C3.22931 9.08588 3.22929 11.9241 5.25543 12.3614L9.97876 13.3811C10.1528 13.4185 10.2727 13.546 10.3052 13.6884L11.3552 18.2763C11.8079 20.2548 14.6779 20.2548 15.1305 18.2763L16.1804 13.6888C16.2129 13.5465 16.3326 13.4186 16.5066 13.3812L21.2303 12.3614C23.2565 11.9241 23.2565 9.08589 21.2304 8.64855L16.507 7.62884C16.333 7.59138 16.213 7.46392 16.1805 7.32155L15.1305 2.73358Z"
      fill="currentColor"
    />
    <path
      d="M3.8352 17.7785C4.28431 17.6818 4.63507 17.3411 4.73461 16.9049L5.05574 15.5008C5.17068 14.9967 5.91012 14.9967 6.02506 15.5008L6.34619 16.9049C6.44573 17.3411 6.79649 17.6818 7.2456 17.7785L8.69129 18.0904C9.21031 18.202 9.21031 18.9202 8.69129 19.0318L7.2456 19.3437C6.79649 19.4404 6.44573 19.781 6.34619 20.2172L6.02506 21.6214C5.91012 22.1255 5.17068 22.1255 5.05574 21.6214L4.73461 20.2172C4.63507 19.781 4.28431 19.4404 3.8352 19.3437L2.38951 19.0318C1.87049 18.9202 1.87049 18.202 2.38951 18.0904L3.8352 17.7785Z"
      fill="currentColor"
    />
  </svg>