<svg viewBox="0 0 24 24" xmlns="http://www.w3.org/2000/svg">
    <g fill="none">
      <path
        fill-rule="evenodd"
        clip-rule="evenodd"
        d="M1 1.25h.5V2v-.75c1.808 0 3.34 1.33 3.596 3.119L5.65 8.25h5.925l1.708-2.847.023-.038c.172-.286.29-.483.426-.658a3.75 3.75 0 0 1 2.526-1.431c.22-.026.45-.026.784-.026h.132c.765 0 1.252 0 1.673.076a4.75 4.75 0 0 1 3.827 3.827c.076.42.076.908.076 1.674V8.986a.777.777 0 0 1-.012.151l-.107.638-.005.03c-.154.925-.277 1.66-.422 2.252-.149.608-.333 1.116-.637 1.573a4.75 4.75 0 0 1-2.011 1.704c-.501.225-1.033.323-1.657.37-.607.046-1.353.046-2.29.046H11.391c-.938 0-1.684 0-2.291-.046-.624-.047-1.156-.145-1.657-.37a4.75 4.75 0 0 1-2.01-1.704c-.305-.457-.49-.965-.638-1.573-.145-.591-.268-1.327-.422-2.252l-.005-.03-.109-.652-.002-.017-.647-4.525a2.133 2.133 0 0 0-2.11-1.831H1a.75.75 0 1 1 0-1.5zm20.115 8.5H5.885c.142.846.248 1.461.368 1.95.127.521.26.844.43 1.1.339.51.816.914 1.375 1.165.28.126.62.203 1.156.243.544.042 1.233.042 2.208.042h4.156c.975 0 1.664 0 2.208-.042.535-.04.875-.117 1.156-.243a3.25 3.25 0 0 0 1.376-1.165c.17-.256.302-.579.43-1.1.12-.489.225-1.104.367-1.95zM7.75 20a1.25 1.25 0 1 1 2.5 0 1.25 1.25 0 0 1-2.5 0zM9 17.25a2.75 2.75 0 1 0 0 5.5 2.75 2.75 0 0 0 0-5.5zM17.75 20a1.25 1.25 0 1 1 2.5 0 1.25 1.25 0 0 1-2.5 0zM19 17.25a2.75 2.75 0 1 0 0 5.5 2.75 2.75 0 0 0 0-5.5zm-1.913-12.5c.881 0 1.222.003 1.493.052a3.25 3.25 0 0 1 2.618 2.618c.034.19.046.413.05.83h-7.923l1.245-2.075c.203-.339.274-.454.348-.551a2.25 2.25 0 0 1 1.516-.858c.122-.015.258-.016.652-.016z"
        fill="currentColor"
      ></path>
    </g>
  </svg>