<svg viewBox="0 0 24 24" xmlns="http://www.w3.org/2000/svg">
    <g fill="none">
      <path
        fill-rule="evenodd"
        clip-rule="evenodd"
        d="M3.53 2.47a.75.75 0 0 0-1.06 1.06l1.795 1.796c-.081.014-.16.031-.236.052a3.75 3.75 0 0 0-2.651 2.651c-.128.48-.128 1.037-.128 1.855V13.232c0 .813 0 1.469.043 2 .045.546.14 1.026.366 1.47a3.75 3.75 0 0 0 1.639 1.64c.444.226.924.32 1.47.365.531.043 1.187.043 2 .043H17.69l2.78 2.78a.75.75 0 1 0 1.06-1.06l-3-3-12-12-3-3zm.888 4.357c.232-.063.527-.075 1.272-.077l10.5 10.5H6.8c-.852 0-1.447 0-1.91-.038-.453-.038-.714-.107-.911-.207a2.25 2.25 0 0 1-.984-.983c-.1-.198-.17-.459-.207-.913-.037-.462-.038-1.056-.038-1.909V10c0-.978.006-1.32.077-1.582a2.25 2.25 0 0 1 1.59-1.591zM15.2 6.75c.852 0 1.447 0 1.91.038.453.037.714.107.912.207.423.216.767.56.983.984.1.197.17.458.207.912.037.462.038 1.057.038 1.909V15c0 .414.336.75.75.75h.073c.393 0 .696 0 .963-.053a2.75 2.75 0 0 0 2.161-2.16c.053-.268.053-.571.053-.964v-1.146c0-.393 0-.696-.053-.963a2.75 2.75 0 0 0-2.16-2.161 2.704 2.704 0 0 0-.392-.045 3.282 3.282 0 0 0-.304-.96 3.75 3.75 0 0 0-1.639-1.64c-.444-.226-.924-.32-1.47-.365-.531-.043-1.187-.043-2-.043H10a.75.75 0 0 0 0 1.5h5.2zm5.546 3.024c.004.303.004.633.004.994v3.457c.493-.1.878-.487.976-.981.02-.103.024-.243.024-.744v-1c0-.5-.004-.641-.024-.744a1.25 1.25 0 0 0-.98-.982z"
        fill="currentColor"
      ></path>
    </g>
  </svg>