<svg viewBox="0 0 24 24" xmlns="http://www.w3.org/2000/svg">
    <g fill="none">
      <path
        fill-rule="evenodd"
        clip-rule="evenodd"
        d="M6.768 5.25h8.464c.813 0 1.469 0 2 .043.546.045 1.026.14 1.47.366a3.75 3.75 0 0 1 1.64 1.639c.152.3.245.617.303.96.141.007.27.02.392.045a2.75 2.75 0 0 1 2.16 2.16c.053.268.053.571.053.964v1.146c0 .393 0 .696-.053.963a2.75 2.75 0 0 1-2.16 2.161c-.122.024-.25.038-.392.045a3.28 3.28 0 0 1-.304.96 3.75 3.75 0 0 1-1.639 1.64c-.444.226-.924.32-1.47.365-.531.043-1.187.043-2 .043H6.768c-.813 0-1.469 0-2-.043-.546-.045-1.026-.14-1.47-.366a3.75 3.75 0 0 1-1.64-1.639c-.226-.444-.32-.924-.365-1.47-.043-.531-.043-1.187-.043-2v-2.464c0-.813 0-1.469.043-2 .045-.546.14-1.026.366-1.47a3.75 3.75 0 0 1 1.639-1.64c.444-.226.924-.32 1.47-.365.531-.043 1.187-.043 2-.043zm13.978 8.976c.495-.1.882-.487.98-.982.02-.103.024-.243.024-.744v-1c0-.5-.004-.641-.024-.744a1.25 1.25 0 0 0-.98-.982c.004.302.004.633.004.994v2.464c0 .361 0 .692-.004.994zM4.891 6.788c-.454.037-.715.107-.912.207a2.25 2.25 0 0 0-.984.983c-.1.198-.17.459-.207.913-.037.462-.038 1.057-.038 1.909v2.4c0 .852 0 1.447.038 1.91.037.453.107.714.207.912.216.423.56.767.984.983.197.1.458.17.912.207.462.037 1.057.038 1.909.038h8.4c.852 0 1.447 0 1.91-.038.453-.038.714-.107.912-.207a2.25 2.25 0 0 0 .983-.983c.1-.198.17-.459.207-.913.037-.462.038-1.057.038-1.909v-2.4c0-.852 0-1.447-.038-1.91-.038-.453-.107-.714-.207-.912a2.25 2.25 0 0 0-.983-.983c-.198-.1-.459-.17-.913-.207-.462-.037-1.057-.038-1.909-.038H6.8c-.852 0-1.447 0-1.91.038zM6 9.25a.75.75 0 0 1 .75.75v4a.75.75 0 0 1-1.5 0v-4A.75.75 0 0 1 6 9.25z"
        fill="currentColor"
      ></path>
    </g>
  </svg>