<svg viewBox="0 0 24 24" xmlns="http://www.w3.org/2000/svg">
    <g fill="none">
      <path
        fill-rule="evenodd"
        clip-rule="evenodd"
        d="M6.8 3.25h-.032c-.813 0-1.469 0-2 .043-.546.045-1.026.14-1.47.366a3.75 3.75 0 0 0-1.64 1.639c-.226.444-.32.924-.365 1.47-.043.531-.043 1.187-.043 2v8.861c0 .395 0 .736.023 1.017.024.297.078.592.222.875.216.424.56.768.984.984.283.144.578.198.875.222.28.023.622.023 1.017.023H5.61c.445 0 .837.001 1.197-.123.315-.109.602-.286.84-.52.272-.266.447-.616.646-1.015l.041-.083.673-1.347c.266-.53.327-.63.395-.698a.75.75 0 0 1 .28-.173c.091-.031.208-.041.801-.041h3.034c.593 0 .71.01.8.041.106.036.201.095.28.173.07.067.13.168.396.698l.673 1.347.041.083c.199.399.374.749.646 1.015.238.234.525.411.84.52.36.124.752.124 1.197.123H19.629c.395 0 .736 0 1.017-.023.297-.024.592-.078.875-.222.424-.216.768-.56.984-.983.144-.284.198-.58.222-.876.023-.28.023-.622.023-1.017V8.768c0-.813 0-1.469-.043-2-.045-.546-.14-1.026-.366-1.47a3.75 3.75 0 0 0-1.639-1.64c-.444-.226-.924-.32-1.47-.365-.531-.043-1.187-.043-2-.043H6.8zM3.979 4.995c.197-.1.458-.17.912-.207.462-.037 1.057-.038 1.909-.038h10.4c.852 0 1.447 0 1.91.038.453.037.714.107.912.207.423.216.767.56.983.984.1.197.17.458.207.912.037.462.038 1.057.038 1.909v2.45h-2.5v-.275c0-.445 0-.816-.02-1.12a2.822 2.822 0 0 0-.19-.907 2.75 2.75 0 0 0-1.488-1.489c-.29-.12-.59-.167-.907-.188-.304-.021-.675-.021-1.12-.021h-.05c-.445 0-.816 0-1.12.02a2.823 2.823 0 0 0-.907.19 2.75 2.75 0 0 0-.948.653 2.75 2.75 0 0 0-.948-.654c-.29-.12-.59-.167-.907-.188-.304-.021-.675-.021-1.12-.021h-.05c-.445 0-.816 0-1.12.02a2.823 2.823 0 0 0-.907.19 2.75 2.75 0 0 0-1.489 1.488c-.12.29-.167.59-.188.907-.021.304-.021.675-.021 1.12v.275h-2.5V8.8c0-.852 0-1.447.038-1.91.037-.453.107-.714.207-.911a2.25 2.25 0 0 1 .984-.984zM18 12.75H2.75v4.85c0 .432 0 .712.018.924.017.204.045.28.064.316a.75.75 0 0 0 .328.328c.037.02.112.047.316.064.212.017.492.018.924.018h1.117c.593 0 .71-.01.8-.041a.75.75 0 0 0 .28-.173c.07-.067.13-.168.396-.698l.673-1.347.041-.083c.199-.399.374-.749.646-1.015.238-.234.525-.411.84-.52.36-.124.752-.124 1.197-.123H13.61c.445 0 .837-.001 1.197.123.315.109.602.286.84.52.272.266.447.616.646 1.015l.041.083.674 1.347c.265.53.326.63.394.698.08.078.175.137.28.173.091.031.209.041.801.041H19.6c.432 0 .712 0 .924-.018.204-.017.28-.045.316-.064a.75.75 0 0 0 .328-.328c.02-.037.047-.112.064-.316.017-.212.018-.492.018-.924v-4.85H18zm-6.75-1.5V11c0-.476 0-.796-.017-1.043-.017-.241-.046-.358-.078-.435a1.25 1.25 0 0 0-.677-.677c-.077-.032-.194-.061-.435-.078A17.091 17.091 0 0 0 9 8.75c-.476 0-.796 0-1.043.017-.241.017-.358.046-.435.078a1.25 1.25 0 0 0-.677.677c-.032.077-.061.194-.078.435-.017.247-.017.567-.017 1.043v.25h4.5zm6 0V11c0-.476 0-.796-.017-1.043-.017-.241-.046-.358-.078-.435a1.25 1.25 0 0 0-.677-.677c-.077-.032-.194-.061-.435-.078A17.091 17.091 0 0 0 15 8.75c-.476 0-.796 0-1.043.017-.241.017-.358.046-.435.078a1.25 1.25 0 0 0-.677.677c-.032.077-.061.194-.078.435A17.07 17.07 0 0 0 12.75 11v.25h4.5z"
        fill="currentColor"
      ></path>
    </g>
  </svg>