<svg viewBox="0 0 24 24" xmlns="http://www.w3.org/2000/svg">
    <g fill="none">
      <path
        fill-rule="evenodd"
        clip-rule="evenodd"
        d="M7.2 3.25h-.03c-.535 0-.98 0-1.345.03-.38.03-.736.098-1.073.27A2.75 2.75 0 0 0 3.55 4.752c-.172.337-.24.693-.27 1.073-.03.365-.03.81-.03 1.345v4.197c-.17.042-.337.1-.498.183A2.75 2.75 0 0 0 1.55 12.75c-.172.338-.24.694-.27 1.074A15.317 15.317 0 0 0 1.25 15v6a.75.75 0 0 0 1.5 0v-3.25h18.5V21a.75.75 0 0 0 1.5 0v-5.83V15v-.008c0-.456-.003-.844-.03-1.167-.03-.38-.098-.736-.27-1.073a2.751 2.751 0 0 0-1.201-1.202 2.286 2.286 0 0 0-.499-.183V7.17c0-.535 0-.98-.03-1.345-.03-.38-.098-.736-.27-1.073A2.75 2.75 0 0 0 19.25 3.55c-.338-.172-.694-.24-1.074-.27-.365-.03-.81-.03-1.345-.03H7.2zm11.6 9.5H5.2c-.572 0-.957 0-1.253.025-.287.023-.424.065-.514.111a1.25 1.25 0 0 0-.547.546c-.046.091-.088.228-.111.515-.024.296-.025.68-.025 1.253v1.05h18.5V15.2c0-.572 0-.957-.025-1.252-.023-.288-.065-.425-.111-.516a1.25 1.25 0 0 0-.547-.546c-.09-.046-.227-.088-.515-.111-.295-.024-.68-.025-1.252-.025zm.083-1.5h.367V7.2c0-.572 0-.957-.025-1.253-.023-.287-.065-.424-.111-.514a1.25 1.25 0 0 0-.547-.547c-.09-.046-.227-.088-.515-.111-.295-.024-.68-.025-1.252-.025H7.2c-.572 0-.957 0-1.253.025-.287.023-.424.065-.514.111a1.25 1.25 0 0 0-.547.547c-.046.09-.088.227-.111.514-.024.296-.025.68-.025 1.253v4.05h1.5v-.08c0-.535 0-.98.03-1.345.03-.38.098-.736.27-1.073A2.75 2.75 0 0 1 7.752 7.55c.337-.172.693-.24 1.073-.27.365-.03.81-.03 1.345-.03H13.83c.535 0 .98 0 1.345.03.38.03.736.098 1.073.27a2.75 2.75 0 0 1 1.202 1.202c.172.337.24.693.27 1.073.03.365.03.81.03 1.345v.08h1.133zm-2.633 0v-.05c0-.572 0-.957-.025-1.253-.023-.287-.065-.424-.111-.514a1.25 1.25 0 0 0-.546-.547c-.091-.046-.228-.088-.515-.111-.296-.024-.68-.025-1.253-.025h-1.05v2.5h3.5zm-5 0v-2.5H10.2c-.572 0-.957 0-1.253.025-.287.023-.424.065-.514.111a1.25 1.25 0 0 0-.547.547c-.046.09-.088.227-.111.514-.024.296-.025.68-.025 1.253v.05h3.5z"
        fill="currentColor"
      ></path>
    </g>
  </svg>