<svg viewBox="0 0 24 24" xmlns="http://www.w3.org/2000/svg">
    <g fill="none">
      <path
        fill-rule="evenodd"
        clip-rule="evenodd"
        d="M4.512 8.86a7.547 7.547 0 0 1 14.976 0l.99 7.912a2.65 2.65 0 0 1-2.63 2.978h-1.36l-.053.118a4.853 4.853 0 0 1-8.87 0l-.052-.118H6.152a2.65 2.65 0 0 1-2.63-2.978l.99-7.911zm3.504 9.39a.93.93 0 0 0-.033 0H6.152a1.15 1.15 0 0 1-1.14-1.292L6 9.047a6.047 6.047 0 0 1 12 0l.989 7.911a1.15 1.15 0 0 1-1.14 1.292h-1.832a.93.93 0 0 0-.033 0H8.016zm1.19 1.5a3.354 3.354 0 0 0 5.589 0h-5.59zM15.53 9.47a.75.75 0 0 1 0 1.06l-4 4a.75.75 0 0 1-1.06 0l-1.5-1.5a.75.75 0 1 1 1.06-1.06l.97.97 3.47-3.47a.75.75 0 0 1 1.06 0z"
        fill="currentColor"
      ></path>
    </g>
  </svg>