<svg viewBox="0 0 24 24" xmlns="http://www.w3.org/2000/svg">
    <g fill="none">
      <path
        fill-rule="evenodd"
        clip-rule="evenodd"
        d="M9.8 2.25h-.032c-.813 0-1.469 0-2 .043-.546.045-1.026.14-1.47.366a3.75 3.75 0 0 0-1.64 1.639c-.226.444-.32.924-.365 1.47-.043.531-.043 1.187-.043 2V21a.75.75 0 0 0 1.122.651l5.412-3.093c.623-.355.794-.443.958-.478a1.25 1.25 0 0 1 .516 0c.164.035.335.123.958.478l5.412 3.093A.75.75 0 0 0 19.75 21V7.768c0-.813 0-1.469-.043-2-.045-.546-.14-1.026-.366-1.47a3.75 3.75 0 0 0-1.639-1.64c-.444-.226-.924-.32-1.47-.365-.531-.043-1.187-.043-2-.043H9.8zM6.979 3.995c.197-.1.458-.17.912-.207.462-.037 1.057-.038 1.909-.038h4.4c.853 0 1.447 0 1.91.038.453.037.714.107.912.207.423.216.767.56.983.984.1.197.17.458.207.912.037.462.038 1.057.038 1.909v11.908l-4.29-2.452-.087-.05c-.493-.282-.88-.504-1.306-.593a2.75 2.75 0 0 0-1.134 0c-.425.09-.813.311-1.306.593l-.087.05-4.29 2.452V7.8c0-.852 0-1.447.038-1.91.037-.453.107-.714.207-.911a2.25 2.25 0 0 1 .984-.984zM16.03 8.53a.75.75 0 0 0-1.06-1.06L11 11.44 9.53 9.97a.75.75 0 0 0-1.06 1.06l2 2a.75.75 0 0 0 1.06 0l4.5-4.5z"
        fill="currentColor"
      ></path>
    </g>
  </svg>