<svg viewBox="0 0 24 24" xmlns="http://www.w3.org/2000/svg">
    <g fill="none">
      <path
        fill-rule="evenodd"
        clip-rule="evenodd"
        d="M9.768 2.25h4.464c.813 0 1.469 0 2 .043.546.045 1.026.14 1.47.366a3.75 3.75 0 0 1 1.64 1.639c.226.444.32.924.365 1.47.043.531.043 1.187.043 2V21a.75.75 0 0 1-1.122.651l-5.412-3.093c-.623-.355-.794-.443-.958-.478a1.25 1.25 0 0 0-.516 0c-.164.035-.335.123-.958.478l-5.412 3.093A.75.75 0 0 1 4.25 21V7.768c0-.813 0-1.469.043-2 .045-.546.14-1.026.366-1.47a3.75 3.75 0 0 1 1.639-1.64c.444-.226.924-.32 1.47-.365.531-.043 1.187-.043 2-.043zM7.89 3.788c-.454.037-.715.107-.912.207a2.25 2.25 0 0 0-.984.984c-.1.197-.17.458-.207.912-.037.462-.038 1.057-.038 1.909v11.908l4.29-2.452.087-.05c.493-.282.88-.504 1.306-.593a2.75 2.75 0 0 1 1.134 0c.425.09.813.311 1.306.593l.087.05 4.29 2.452V7.8c0-.852 0-1.447-.038-1.91-.038-.453-.107-.714-.207-.911a2.25 2.25 0 0 0-.983-.984c-.198-.1-.459-.17-.913-.207-.462-.037-1.057-.038-1.909-.038H9.8c-.852 0-1.447 0-1.91.038z"
        fill="currentColor"
      ></path>
    </g>
  </svg>