<svg viewBox="0 0 24 24" xmlns="http://www.w3.org/2000/svg">
    <g fill="none">
      <path
        fill-rule="evenodd"
        clip-rule="evenodd"
        d="M14 1.75c.953 0 1.356.002 1.685.045a5.25 5.25 0 0 1 4.52 4.52c.043.329.045.732.045 1.685v11a.75.75 0 0 0 1.5 0V7.93c0-.862 0-1.372-.058-1.811a6.75 6.75 0 0 0-5.81-5.811C15.441.25 14.931.25 14.07.25H10a3.751 3.751 0 0 0-3.693 3.097 3.326 3.326 0 0 0-1.01.312A3.75 3.75 0 0 0 3.66 5.298c-.227.444-.321.924-.366 1.47-.043.531-.043 1.187-.043 2V22a.75.75 0 0 0 1.122.651l5.412-3.093c.623-.355.794-.443.958-.478a1.25 1.25 0 0 1 .516 0c.164.035.335.123.958.478l5.412 3.093A.75.75 0 0 0 18.75 22V8.768c0-.813 0-1.469-.043-2-.045-.546-.14-1.026-.366-1.47a3.75 3.75 0 0 0-1.639-1.64c-.444-.226-.924-.32-1.47-.365-.531-.043-1.187-.043-2-.043H8.768c-.32 0-.617 0-.89.003A2.25 2.25 0 0 1 10 1.75h4zM5.979 4.995c.197-.1.458-.17.912-.207.462-.037 1.057-.038 1.909-.038h4.4c.853 0 1.447 0 1.91.038.453.037.714.107.912.207.423.216.767.56.983.984.1.197.17.458.207.912.037.462.038 1.057.038 1.909v11.908l-4.29-2.452-.087-.05c-.493-.282-.88-.504-1.306-.593a2.75 2.75 0 0 0-1.134 0c-.425.09-.813.311-1.306.593l-.087.05-4.29 2.452V8.8c0-.852 0-1.447.038-1.91.037-.453.107-.714.207-.911a2.25 2.25 0 0 1 .984-.984z"
        fill="currentColor"
      ></path>
    </g>
  </svg>