<svg viewBox="0 0 24 24" xmlns="http://www.w3.org/2000/svg">
    <g fill="none">
      <path
        fill-rule="evenodd"
        clip-rule="evenodd"
        d="M1.47 1.47a.75.75 0 0 1 1.06 0l2.113 2.112A2.749 2.749 0 0 1 7 2.25h7.232c.813 0 1.469 0 2 .043.546.045 1.026.14 1.47.366a3.75 3.75 0 0 1 1.64 1.639c.226.444.32.924.365 1.47.043.531.043 1.187.043 2V18.69l2.78 2.78a.75.75 0 1 1-1.06 1.06l-3-3-14-14-3-3a.75.75 0 0 1 0-1.06zm16.78 15.72V7.8c0-.852 0-1.447-.038-1.91-.038-.453-.107-.714-.207-.911a2.25 2.25 0 0 0-.983-.984c-.198-.1-.459-.17-.913-.207-.462-.037-1.057-.038-1.909-.038H7a1.25 1.25 0 0 0-1.219.97L18.25 17.19zm-12.5 2.518V9a.75.75 0 0 0-1.5 0v12a.75.75 0 0 0 1.122.651l7-4a.75.75 0 0 0-.744-1.302L5.75 19.708z"
        fill="currentColor"
      ></path>
    </g>
  </svg>