<svg viewBox="0 0 24 24" xmlns="http://www.w3.org/2000/svg">
    <g fill="none">
      <path
        fill-rule="evenodd"
        clip-rule="evenodd"
        d="M12 2.25a.75.75 0 0 1 .75.75v8.25H21a.75.75 0 0 1 0 1.5h-8.25V21a.75.75 0 0 1-1.5 0v-8.25H3a.75.75 0 0 1 0-1.5h8.25V3a.75.75 0 0 1 .75-.75zM21 4a1 1 0 1 1-2 0 1 1 0 0 1 2 0zm0 4a1 1 0 1 1-2 0 1 1 0 0 1 2 0zm0 8a1 1 0 1 1-2 0 1 1 0 0 1 2 0zM4 21a1 1 0 1 0 0-2 1 1 0 0 0 0 2zm5-1a1 1 0 1 1-2 0 1 1 0 0 1 2 0zm7 1a1 1 0 1 0 0-2 1 1 0 0 0 0 2zm4 0a1 1 0 1 0 0-2 1 1 0 0 0 0 2zM4 17a1 1 0 1 0 0-2 1 1 0 0 0 0 2zm0-8a1 1 0 1 0 0-2 1 1 0 0 0 0 2zm12-4a1 1 0 1 0 0-2 1 1 0 0 0 0 2zM9 4a1 1 0 1 1-2 0 1 1 0 0 1 2 0zM4 5a1 1 0 1 0 0-2 1 1 0 0 0 0 2z"
        fill="currentColor"
      ></path>
    </g>
  </svg>