<svg viewBox="0 0 24 24" xmlns="http://www.w3.org/2000/svg">
    <g fill="none">
      <path
        fill-rule="evenodd"
        clip-rule="evenodd"
        d="M20.75 3a.75.75 0 0 0-1.5 0v18a.75.75 0 0 0 1.5 0V3zM16 5a1 1 0 1 0 0-2 1 1 0 0 0 0 2zm-4 4a1 1 0 1 0 0-2 1 1 0 0 0 0 2zm4 4a1 1 0 1 0 0-2 1 1 0 0 0 0 2zm-4 4a1 1 0 1 0 0-2 1 1 0 0 0 0 2zm-7 3a1 1 0 1 1-2 0 1 1 0 0 1 2 0zm3 1a1 1 0 1 0 0-2 1 1 0 0 0 0 2zm5-1a1 1 0 1 1-2 0 1 1 0 0 1 2 0zm4 0a1 1 0 1 1-2 0 1 1 0 0 1 2 0zM5 16a1 1 0 1 1-2 0 1 1 0 0 1 2 0zm8-4a1 1 0 1 1-2 0 1 1 0 0 1 2 0zm-5 1a1 1 0 1 0 0-2 1 1 0 0 0 0 2zm-3-1a1 1 0 1 1-2 0 1 1 0 0 1 2 0zm0-4a1 1 0 1 1-2 0 1 1 0 0 1 2 0zm8-4a1 1 0 1 1-2 0 1 1 0 0 1 2 0zM8 5a1 1 0 1 0 0-2 1 1 0 0 0 0 2zM5 4a1 1 0 1 1-2 0 1 1 0 0 1 2 0z"
        fill="currentColor"
      ></path>
    </g>
  </svg>