<svg viewBox="0 0 24 24" xmlns="http://www.w3.org/2000/svg">
    <g fill="none">
      <path
        fill-rule="evenodd"
        clip-rule="evenodd"
        d="M20 5a1 1 0 1 0 0-2 1 1 0 0 0 0 2zm1 3a1 1 0 1 1-2 0 1 1 0 0 1 2 0zM3 11.25a.75.75 0 0 0 0 1.5h18a.75.75 0 0 0 0-1.5H3zM21 16a1 1 0 1 1-2 0 1 1 0 0 1 2 0zM4 21a1 1 0 1 0 0-2 1 1 0 0 0 0 2zm5-1a1 1 0 1 1-2 0 1 1 0 0 1 2 0zm3 1a1 1 0 1 0 0-2 1 1 0 0 0 0 2zm5-1a1 1 0 1 1-2 0 1 1 0 0 1 2 0zm4 0a1 1 0 1 1-2 0 1 1 0 0 1 2 0zm-9-3a1 1 0 1 0 0-2 1 1 0 0 0 0 2zm-7-1a1 1 0 1 1-2 0 1 1 0 0 1 2 0zm7-7a1 1 0 1 0 0-2 1 1 0 0 0 0 2zM5 8a1 1 0 1 1-2 0 1 1 0 0 1 2 0zm12-4a1 1 0 1 1-2 0 1 1 0 0 1 2 0zm-5 1a1 1 0 1 0 0-2 1 1 0 0 0 0 2zM9 4a1 1 0 1 1-2 0 1 1 0 0 1 2 0zM4 5a1 1 0 1 0 0-2 1 1 0 0 0 0 2z"
        fill="currentColor"
      ></path>
    </g>
  </svg>