<svg viewBox="0 0 24 24" xmlns="http://www.w3.org/2000/svg">
    <g fill="none">
      <path
        fill-rule="evenodd"
        clip-rule="evenodd"
        d="M12.554 1.594a2.75 2.75 0 0 0-1.108 0c-.415.086-.796.297-1.28.566l-.084.048-5.8 3.222-.09.05c-.511.283-.912.506-1.214.833a2.75 2.75 0 0 0-.59 1.001c-.139.423-.139.882-.138 1.466V15.22c0 .584 0 1.043.139 1.466.123.372.323.713.589 1 .302.328.703.55 1.214.834l.09.05 5.8 3.222.085.048c.483.269.864.48 1.279.566a2.75 2.75 0 0 0 1.108 0c.416-.086.796-.297 1.28-.566l.084-.048 5.8-3.222.09-.05c.511-.283.913-.506 1.214-.833a2.75 2.75 0 0 0 .59-1.001c.139-.423.139-.882.138-1.466V8.78c0-.584 0-1.043-.139-1.466a2.75 2.75 0 0 0-.589-1c-.301-.328-.703-.55-1.213-.834l-.09-.05-5.8-3.222-.086-.048c-.483-.269-.863-.48-1.279-.566zm-.806 1.47a1.25 1.25 0 0 1 .504 0c.16.033.328.116.938.455l5.8 3.222c.307.171.507.284.643.37L12 11.15l-7.633-4.04c.137-.086.336-.199.643-.37l5.8-3.222c.61-.339.777-.422.938-.455zM3.752 8.482c-.002.112-.002.245-.002.4v6.235c0 .737.009.935.063 1.098.056.17.147.324.268.455.117.127.285.23.93.589l5.8 3.222c.181.101.324.18.439.24v-8.27l-7.498-3.97zm8.998 12.24c.115-.061.258-.14.44-.241l5.8-3.222c.644-.358.812-.462.93-.589.12-.13.211-.286.267-.455.054-.163.063-.361.063-1.098V8.883c0-.156 0-.289-.002-.401l-7.498 3.97v8.27z"
        fill="currentColor"
      ></path>
    </g>
  </svg>