<svg viewBox="0 0 24 24" xmlns="http://www.w3.org/2000/svg">
    <g fill="none">
      <path
        fill-rule="evenodd"
        clip-rule="evenodd"
        d="M11.446 1.594a2.75 2.75 0 0 1 1.108 0c.416.086.796.297 1.28.566l.084.048 2.94 1.633.013.007 2.847 1.582.09.05c.511.283.913.506 1.214.833.266.288.466.63.59 1.001.139.423.139.882.138 1.466V15.22c0 .584 0 1.043-.139 1.466a2.75 2.75 0 0 1-.589 1c-.301.328-.703.55-1.213.834l-.09.05-5.8 3.222-.086.048c-.483.269-.863.48-1.279.566a2.75 2.75 0 0 1-1.108 0c-.415-.086-.796-.297-1.28-.566l-.084-.048-5.8-3.222-.09-.05c-.511-.283-.912-.506-1.214-.833a2.75 2.75 0 0 1-.59-1.001c-.139-.423-.139-.882-.138-1.466V8.78c0-.584 0-1.043.139-1.466a2.75 2.75 0 0 1 .589-1c.302-.328.703-.55 1.214-.834l.09-.05 5.8-3.222.085-.048c.483-.269.864-.48 1.279-.566zm3.51 2.906l-1.766-.981c-.61-.339-.777-.422-.938-.455a1.25 1.25 0 0 0-.504 0c-.16.033-.328.116-.938.455l-5.8 3.222c-.307.171-.506.284-.643.37l3.016 1.596L14.956 4.5zM8.964 9.544L16.5 5.358l2.49 1.383c.307.171.507.284.643.37L12 11.15 8.964 9.544zM3.75 8.883c0-.156 0-.289.002-.401l7.498 3.97v8.27a28.58 28.58 0 0 1-.44-.241l-5.8-3.222c-.644-.358-.812-.462-.93-.589a1.25 1.25 0 0 1-.267-.455c-.054-.163-.063-.361-.063-1.098V8.883zm9.44 11.598c-.182.101-.325.18-.44.24v-8.27l7.498-3.97c.002.113.002.245.002.402v6.234c0 .737-.009.935-.063 1.098a1.25 1.25 0 0 1-.268.455c-.117.127-.285.23-.93.589l-5.8 3.222z"
        fill="currentColor"
      ></path>
    </g>
  </svg>