<svg viewBox="0 0 24 24" xmlns="http://www.w3.org/2000/svg">
    <g fill="none">
      <path
        fill-rule="evenodd"
        clip-rule="evenodd"
        d="M12 2.25A3.75 3.75 0 0 0 8.25 6v.387a6.781 6.781 0 0 0-2.262 2.54L4.936 7.877c-.544-.545-.726-.734-.854-.943a2.25 2.25 0 0 1-.27-.65c-.057-.24-.062-.502-.062-1.271V4a.75.75 0 0 0-1.5 0v1.097c0 .652 0 1.103.104 1.536.091.382.243.748.449 1.084.232.38.551.698 1.012 1.159l.06.06 1.546 1.546A6.771 6.771 0 0 0 5.25 12v3c0 .222.01.441.032.658l-1.406 1.406-.06.06c-.462.46-.78.78-1.013 1.16a3.75 3.75 0 0 0-.45 1.083c-.103.433-.103.884-.103 1.536V22a.75.75 0 0 0 1.5 0v-1.012c0-.77.005-1.032.062-1.27.055-.23.146-.45.27-.651.128-.21.31-.398.854-.943l.745-.745a6.753 6.753 0 0 0 12.638 0l.745.745c.544.545.726.734.854.943.124.201.215.42.27.65.057.24.062.502.062 1.271V22a.75.75 0 0 0 1.5 0v-1.097c0-.652 0-1.103-.104-1.536a3.751 3.751 0 0 0-.449-1.084c-.232-.38-.551-.698-1.012-1.159l-.06-.06-1.407-1.406c.021-.217.032-.436.032-.658v-3c0-.522-.06-1.03-.171-1.518l1.545-1.546.06-.06c.462-.46.78-.78 1.013-1.16.206-.335.358-.7.45-1.083.103-.433.103-.884.103-1.536V4a.75.75 0 0 0-1.5 0v1.012c0 .77-.005 1.032-.062 1.27-.055.23-.146.45-.27.651-.128.21-.31.398-.854.943l-1.052 1.052a6.782 6.782 0 0 0-2.262-2.541V6A3.75 3.75 0 0 0 12 2.25zm2.219 3.373a2.25 2.25 0 0 0-4.438 0A6.74 6.74 0 0 1 12 5.25a6.74 6.74 0 0 1 2.219.373zM12.75 15v5.197A5.251 5.251 0 0 0 17.25 15v-3a5.25 5.25 0 1 0-10.5 0v3a5.251 5.251 0 0 0 4.5 5.197V15a.75.75 0 0 1 1.5 0z"
        fill="currentColor"
      ></path>
    </g>
  </svg>