<svg viewBox="0 0 24 24" xmlns="http://www.w3.org/2000/svg">
    <g fill="none">
      <path
        fill-rule="evenodd"
        clip-rule="evenodd"
        d="M8.75 1a.75.75 0 0 0-1.5 0v1.273c-.187.008-.364.018-.53.03-.694.056-1.282.171-1.82.437A4.75 4.75 0 0 0 2.74 4.9c-.266.538-.38 1.126-.436 1.82-.054.679-.054 1.52-.054 2.581V14.633c0 1.092 0 1.958.057 2.655.058.714.18 1.317.46 1.869a4.75 4.75 0 0 0 2.077 2.075c.55.281 1.154.403 1.868.461.697.057 1.563.057 2.655.057H14.633c1.092 0 1.958 0 2.655-.057.714-.058 1.317-.18 1.869-.46a4.75 4.75 0 0 0 2.075-2.076c.281-.552.403-1.155.461-1.869.057-.697.057-1.563.057-2.655V9.367c0-1.092 0-1.958-.057-2.655-.058-.714-.18-1.317-.46-1.868a4.75 4.75 0 0 0-2.076-2.076c-.552-.281-1.155-.403-1.869-.461-.169-.014-.348-.024-.538-.032V1a.75.75 0 0 0-1.5 0v1.25H8.75V1zm6.5 3v-.25H8.75V4a.75.75 0 0 1-1.5 0v-.226c-.146.007-.282.015-.411.025-.604.048-.979.14-1.276.286a3.25 3.25 0 0 0-1.478 1.478c-.147.297-.238.672-.286 1.276-.048.612-.049 1.394-.049 2.494V14.6c0 1.133 0 1.937.052 2.566.05.62.147 1.005.302 1.31a3.25 3.25 0 0 0 1.42 1.42c.305.155.69.251 1.31.302.63.051 1.434.052 2.566.052h5.2c1.133 0 1.937 0 2.566-.052.62-.05 1.005-.147 1.31-.302a3.25 3.25 0 0 0 1.42-1.42c.155-.305.251-.69.302-1.31.051-.63.052-1.434.052-2.566V9.4c0-1.132 0-1.937-.052-2.566-.05-.62-.147-1.005-.302-1.31a3.25 3.25 0 0 0-1.42-1.42c-.305-.155-.69-.251-1.31-.302-.13-.01-.269-.02-.416-.026V4a.75.75 0 0 1-1.5 0zM7 7.25a.75.75 0 0 0 0 1.5h10a.75.75 0 0 0 0-1.5H7zM6.25 12a.75.75 0 0 1 .75-.75h6a.75.75 0 0 1 0 1.5H7a.75.75 0 0 1-.75-.75zM7 15.25a.75.75 0 0 0 0 1.5h3a.75.75 0 0 0 0-1.5H7z"
        fill="currentColor"
      ></path>
    </g>
  </svg>