<svg viewBox="0 0 24 24" xmlns="http://www.w3.org/2000/svg">
    <g fill="none">
      <path
        fill-rule="evenodd"
        clip-rule="evenodd"
        d="M8 .25a.75.75 0 0 1 .75.75v1.25h6.5V1a.75.75 0 0 1 1.5 0v1.275c.19.008.369.018.538.032.714.058 1.317.18 1.868.46a4.75 4.75 0 0 1 2.076 2.077c.281.55.403 1.154.461 1.868.057.697.057 1.563.057 2.655V14.633c0 1.092 0 1.958-.057 2.655-.058.714-.18 1.317-.46 1.869a4.75 4.75 0 0 1-2.077 2.075c-.55.281-1.154.403-1.868.461-.697.057-1.563.057-2.655.057H9.367c-1.092 0-1.958 0-2.655-.057-.714-.058-1.317-.18-1.868-.46a4.75 4.75 0 0 1-2.076-2.076c-.281-.552-.403-1.155-.461-1.869-.057-.697-.057-1.563-.057-2.655V8.49c0-1.382 0-2.263.246-3A4.75 4.75 0 0 1 5.49 2.496c.489-.163 1.04-.218 1.76-.237V1A.75.75 0 0 1 8 .25zm7.25 3.5V4a.75.75 0 0 0 1.5 0v-.224c.147.007.285.015.416.026.62.05 1.005.147 1.31.302a3.25 3.25 0 0 1 1.42 1.42c.155.305.251.69.302 1.31.051.63.052 1.434.052 2.566v5.2c0 1.133 0 1.937-.052 2.566-.05.62-.147 1.005-.302 1.31a3.25 3.25 0 0 1-1.42 1.42c-.305.155-.69.251-1.31.302-.63.051-1.434.052-2.566.052H9.4c-1.133 0-1.937 0-2.566-.052-.62-.05-1.005-.147-1.31-.302a3.25 3.25 0 0 1-1.42-1.42c-.155-.305-.251-.69-.302-1.31-.051-.63-.052-1.434-.052-2.566V8.647c0-1.593.01-2.206.168-2.68a3.25 3.25 0 0 1 2.05-2.049c.3-.1.656-.14 1.282-.157V4a.75.75 0 0 0 1.5 0v-.25h6.5zm-.43 10.293c-.004 1.18-1.183 2.056-2.823 2.056s-2.823-.877-2.82-2.056c-.003-.909.69-1.651 1.577-1.797v-.05a1.615 1.615 0 0 1-1.307-1.611c-.003-1.126 1.076-1.957 2.55-1.957 1.47 0 2.55.83 2.553 1.957a1.633 1.633 0 0 1-1.307 1.612v.05c.874.145 1.573.887 1.577 1.796zm-4.045-.12c0 .614.49 1.047 1.222 1.047.728 0 1.222-.43 1.222-1.047 0-.629-.519-1.084-1.222-1.084-.707 0-1.222.455-1.222 1.084zm.17-3.179c0 .576.438.977 1.052.977.61 0 1.051-.401 1.051-.977 0-.564-.433-.958-1.051-.958-.622 0-1.051.39-1.051.958z"
        fill="currentColor"
      ></path>
    </g>
  </svg>