<svg viewBox="0 0 24 24" xmlns="http://www.w3.org/2000/svg">
    <g fill="none">
      <path
        fill-rule="evenodd"
        clip-rule="evenodd"
        d="M8 .25a.75.75 0 0 1 .75.75v1.25H15.25V1a.75.75 0 0 1 1.5 0v1.275c.19.008.369.018.538.032.714.058 1.317.18 1.869.46a4.75 4.75 0 0 1 2.075 2.077c.281.55.403 1.154.461 1.868.057.697.057 1.563.057 2.655V14.633c0 1.092 0 1.958-.057 2.655-.058.714-.18 1.317-.46 1.869a4.75 4.75 0 0 1-2.076 2.075c-.552.281-1.155.403-1.869.461-.697.057-1.563.057-2.655.057H9.367c-1.092 0-1.958 0-2.655-.057-.714-.058-1.317-.18-1.868-.46a4.75 4.75 0 0 1-2.076-2.076c-.281-.552-.403-1.155-.461-1.869-.057-.697-.057-1.563-.057-2.655V9.301c0-1.061 0-1.902.054-2.581.055-.694.17-1.282.436-1.82A4.75 4.75 0 0 1 4.9 2.74c.538-.266 1.126-.38 1.82-.436.166-.013.343-.023.53-.03V1A.75.75 0 0 1 8 .25zm7.25 3.5V4a.75.75 0 0 0 1.5 0v-.224c.147.007.285.015.416.026.62.05 1.005.147 1.31.302a3.25 3.25 0 0 1 1.42 1.42c.155.305.251.69.302 1.31.051.63.052 1.434.052 2.566v5.2c0 1.133 0 1.937-.052 2.566-.05.62-.147 1.005-.302 1.31a3.25 3.25 0 0 1-1.42 1.42c-.305.155-.69.251-1.31.302-.63.051-1.434.052-2.566.052H9.4c-1.132 0-1.937 0-2.566-.052-.62-.05-1.005-.147-1.31-.302a3.25 3.25 0 0 1-1.42-1.42c-.155-.305-.251-.69-.302-1.31-.051-.63-.052-1.434-.052-2.566V9.333c0-1.1 0-1.882.05-2.494.047-.604.138-.979.285-1.276a3.25 3.25 0 0 1 1.478-1.478c.297-.147.672-.238 1.276-.286.129-.01.265-.018.411-.025V4a.75.75 0 0 0 1.5 0v-.25H15.25zm-3.25 4a1.25 1.25 0 1 0 0 2.5 1.25 1.25 0 0 0 0-2.5zM9.25 9a2.75 2.75 0 1 1 5.5 0 2.75 2.75 0 0 1-5.5 0zm.75 4.25A2.75 2.75 0 0 0 7.25 16c0 .966.784 1.75 1.75 1.75h6A1.75 1.75 0 0 0 16.75 16 2.75 2.75 0 0 0 14 13.25h-4zM8.75 16c0-.69.56-1.25 1.25-1.25h4c.69 0 1.25.56 1.25 1.25a.25.25 0 0 1-.25.25H9a.25.25 0 0 1-.25-.25z"
        fill="currentColor"
      ></path>
    </g>
  </svg>