<svg viewBox="0 0 24 24" xmlns="http://www.w3.org/2000/svg">
    <g fill="none">
      <path
        fill-rule="evenodd"
        clip-rule="evenodd"
        d="M7.776 6.913A14.176 14.176 0 0 1 12 6.25c1.361 0 2.786.214 4.224.663 1.931.604 3.884 1.632 5.737 3.139l.015.012c.147.12.265.215.407.372.376.416.589.954.66 1.48.07.526.007 1.101-.245 1.602-.096.19-.209.348-.35.546l-.023.03-.032.046a5.041 5.041 0 0 1-.46.589 2.75 2.75 0 0 1-3.052.606c-.195-.084-.393-.208-.65-.368l-.047-.03-.738-.461-.074-.046c-.42-.263-.752-.47-1.01-.754a2.75 2.75 0 0 1-.528-.856c-.138-.359-.174-.747-.22-1.242l-.008-.086-.306-3.287A12.531 12.531 0 0 0 12 7.75a12.53 12.53 0 0 0-3.3.455l-.306 3.287-.008.086c-.046.495-.082.883-.22 1.242-.122.315-.301.605-.528.856-.258.284-.59.49-1.01.754l-.074.046-.738.46-.047.03a5.05 5.05 0 0 1-.65.369 2.75 2.75 0 0 1-3.052-.606c-.148-.152-.284-.342-.46-.589l-.032-.045-.023-.031c-.141-.199-.254-.357-.35-.546-.252-.5-.315-1.076-.245-1.602.071-.526.285-1.064.66-1.48.142-.157.26-.253.407-.372l.015-.012c1.853-1.507 3.806-2.535 5.737-3.139zm-.632 1.818c-1.394.562-2.8 1.38-4.159 2.485-.16.13-.195.16-.255.226a1.275 1.275 0 0 0-.286.674c-.038.282.005.542.098.727.037.075.08.138.253.38.224.313.288.4.345.458.361.37.913.479 1.387.275.075-.032.168-.087.494-.291l.738-.461c.53-.331.667-.425.768-.536.103-.114.184-.245.24-.389.053-.139.075-.304.133-.926l.244-2.622zm9.712 0l.244 2.622c.058.622.08.787.134.926.055.143.136.275.24.39.1.11.238.204.767.535l.738.46c.326.205.419.26.494.292a1.25 1.25 0 0 0 1.387-.275c.057-.059.121-.145.345-.458.173-.242.216-.305.254-.38.092-.184.135-.445.097-.727a1.275 1.275 0 0 0-.286-.674 1.936 1.936 0 0 0-.255-.226c-1.36-1.105-2.765-1.923-4.16-2.485z"
        fill="currentColor"
      ></path>
    </g>
  </svg>