<svg viewBox="0 0 24 24" xmlns="http://www.w3.org/2000/svg">
    <g fill="none">
      <path
        fill-rule="evenodd"
        clip-rule="evenodd"
        d="M5.527 2.25h-.065c-.383 0-.686 0-.983.066-1.084.242-1.995 1.246-2.13 2.348-.038.302-.012.562.02.885l.004.047c.258 2.64.917 5.016 1.957 7.085 1.545 3.074 3.915 5.444 6.99 6.99 2.069 1.039 4.444 1.698 7.084 1.956l.047.004c.323.032.583.058.885.02 1.103-.135 2.106-1.046 2.348-2.13.066-.297.066-.6.066-.983v-.125c0-.332 0-.59-.042-.83a2.75 2.75 0 0 0-1.587-2.033c-.222-.099-.473-.161-.795-.242l-.058-.014-2.14-.535-.108-.027c-.6-.15-1.072-.269-1.539-.226-.41.037-.807.166-1.16.378-.404.24-.715.614-1.112 1.089l-.07.084-1.67 1.997a13.897 13.897 0 0 1-5.523-5.523l1.997-1.67.084-.07c.476-.397.849-.708 1.09-1.111.21-.354.34-.75.378-1.161.042-.467-.076-.939-.227-1.54l-.027-.106-.535-2.14-.014-.06c-.08-.321-.143-.572-.242-.793a2.75 2.75 0 0 0-2.034-1.588c-.238-.042-.497-.042-.829-.042h-.06zM18.55 20.134c-2.11-.206-4.01-.682-5.691-1.402l1.431-1.713c.502-.6.645-.755.8-.848a1.25 1.25 0 0 1 .528-.172c.181-.016.387.025 1.146.215l2.141.535c.408.102.52.133.605.171.38.17.65.515.722.924.016.092.02.208.02.629 0 .478-.005.605-.031.722-.104.464-.594.91-1.067.968-.121.014-.217.009-.604-.03zM6.981 9.71l-1.713 1.431c-.72-1.68-1.196-3.582-1.402-5.691-.038-.387-.043-.483-.029-.604.059-.473.504-.963.969-1.067.116-.026.243-.03.721-.03.42 0 .537.003.629.019.409.072.755.343.924.722.038.085.069.197.171.605l.535 2.14c.19.76.231.966.215 1.147a1.25 1.25 0 0 1-.172.528c-.093.155-.248.298-.848.8zM20.47 2.47a.75.75 0 1 1 1.06 1.06l-4.72 4.72h2.99a.75.75 0 0 1 0 1.5H15a.75.75 0 0 1-.75-.75V4.2a.75.75 0 0 1 1.5 0v2.99l4.72-4.72z"
        fill="currentColor"
      ></path>
    </g>
  </svg>