<svg viewBox="0 0 24 24" xmlns="http://www.w3.org/2000/svg">
    <g fill="none">
      <path
        fill-rule="evenodd"
        clip-rule="evenodd"
        d="M5.462 2.25h.125c.332 0 .59 0 .83.042A2.75 2.75 0 0 1 8.45 3.88c.099.221.161.472.242.794l.014.058.535 2.141.027.107c.15.6.27 1.072.227 1.539a2.75 2.75 0 0 1-.378 1.161c-.241.403-.614.714-1.09 1.111l-.084.07-1.997 1.67a13.897 13.897 0 0 0 5.523 5.523l1.67-1.997.07-.084c.397-.475.708-.849 1.111-1.09a2.75 2.75 0 0 1 1.161-.377c.467-.043.939.075 1.54.226l.106.027 2.14.535.06.015c.322.08.572.143.794.241a2.75 2.75 0 0 1 1.587 2.034c.042.239.042.497.042.829v.126c0 .383 0 .685-.066.983-.242 1.084-1.245 1.994-2.348 2.13-.302.037-.562.011-.885-.02l-.047-.005c-2.64-.258-5.015-.917-7.085-1.957-3.074-1.544-5.444-3.915-6.989-6.989-1.04-2.07-1.7-4.445-1.957-7.085L2.37 5.55c-.032-.324-.057-.584-.02-.886.135-1.102 1.046-2.106 2.13-2.348.298-.066.6-.066.983-.066zm7.396 16.482c1.68.72 3.582 1.196 5.691 1.402.387.038.483.044.604.029.473-.058.963-.503 1.067-.968.026-.117.03-.243.03-.722 0-.42-.003-.537-.019-.629a1.25 1.25 0 0 0-.722-.924c-.085-.038-.197-.069-.605-.17l-2.14-.536c-.76-.19-.966-.231-1.147-.214a1.25 1.25 0 0 0-.527.171c-.156.093-.299.248-.8.848l-1.432 1.713zm-7.59-7.59l1.713-1.431c.6-.502.755-.645.848-.8A1.25 1.25 0 0 0 8 8.383c.016-.18-.025-.387-.215-1.146l-.535-2.14c-.102-.409-.133-.52-.17-.606a1.25 1.25 0 0 0-.925-.722c-.092-.016-.208-.019-.629-.019-.478 0-.605.004-.721.03-.465.104-.91.595-.968 1.067-.015.122-.01.217.028.604.206 2.11.682 4.011 1.402 5.692zM13.25 7a.75.75 0 0 1 .75-.75c1.027 0 1.934.639 2.547 1.294.344.367.635.78.844 1.187.201.391.359.84.359 1.27a.75.75 0 0 1-1.5 0c0-.09-.044-.294-.193-.585a3.852 3.852 0 0 0-.605-.847C14.956 8.04 14.42 7.75 14 7.75a.75.75 0 0 1-.75-.75zM14 3.25a.75.75 0 0 0 0 1.5c2.9 0 5.25 2.35 5.25 5.25a.75.75 0 0 0 1.5 0A6.75 6.75 0 0 0 14 3.25z"
        fill="currentColor"
      ></path>
    </g>
  </svg>