<svg viewBox="0 0 24 24" xmlns="http://www.w3.org/2000/svg">
    <g fill="none">
      <path
        fill-rule="evenodd"
        clip-rule="evenodd"
        d="M11.651 1.25h-.094c-.888 0-1.461 0-2.009.131a4.75 4.75 0 0 0-1.373.569c-.48.294-.885.7-1.514 1.328l-.066.066-.86.86a.156.156 0 0 1-.11.046A4.375 4.375 0 0 0 1.25 8.625v6.008c0 1.092 0 1.958.057 2.655.058.714.18 1.317.46 1.869a4.75 4.75 0 0 0 2.077 2.075c.55.281 1.154.403 1.868.461.697.057 1.563.057 2.655.057H15.633c1.092 0 1.958 0 2.655-.057.714-.058 1.317-.18 1.869-.46a4.75 4.75 0 0 0 2.075-2.076c.281-.552.403-1.155.461-1.869.057-.697.057-1.563.057-2.655V8.625a4.375 4.375 0 0 0-4.375-4.375.156.156 0 0 1-.11-.046l-.86-.86-.066-.066c-.629-.629-1.034-1.034-1.514-1.328a4.75 4.75 0 0 0-1.373-.569c-.548-.131-1.12-.131-2.01-.131H11.652zM9.898 2.84c.354-.085.739-.09 1.753-.09h.698c1.014 0 1.399.005 1.753.09.332.08.649.21.94.389.31.19.585.459 1.302 1.176l.86.86c.31.31.732.485 1.171.485a2.875 2.875 0 0 1 2.875 2.875V14.6c0 1.133 0 1.937-.052 2.566-.05.62-.147 1.005-.302 1.31a3.25 3.25 0 0 1-1.42 1.42c-.305.155-.69.251-1.31.302-.63.051-1.433.052-2.566.052H8.4c-1.132 0-1.937 0-2.566-.052-.62-.05-1.005-.147-1.31-.302a3.25 3.25 0 0 1-1.42-1.42c-.155-.305-.251-.69-.302-1.31-.051-.63-.052-1.434-.052-2.566V8.625A2.875 2.875 0 0 1 5.625 5.75c.439 0 .86-.174 1.17-.485l.86-.86c.718-.717.993-.986 1.304-1.176.29-.178.608-.31.94-.39zM8.75 12a3.25 3.25 0 1 1 6.5 0 3.25 3.25 0 0 1-6.5 0zM12 7.25a4.75 4.75 0 1 0 0 9.5 4.75 4.75 0 0 0 0-9.5z"
        fill="currentColor"
      ></path>
    </g>
  </svg>