<svg viewBox="0 0 24 24" xmlns="http://www.w3.org/2000/svg">
    <g fill="none">
      <path
        fill-rule="evenodd"
        clip-rule="evenodd"
        d="M8.367 2.25H15.633c1.092 0 1.958 0 2.655.057.714.058 1.317.18 1.869.46a4.75 4.75 0 0 1 2.075 2.077c.281.55.403 1.154.461 1.868.057.697.057 1.563.057 2.655V14.633c0 1.092 0 1.958-.057 2.655-.058.714-.18 1.317-.46 1.869a4.75 4.75 0 0 1-2.076 2.075c-.552.281-1.155.403-1.869.461-.697.057-1.563.057-2.655.057H8.367c-1.092 0-1.958 0-2.655-.057-.714-.058-1.317-.18-1.868-.46a4.75 4.75 0 0 1-2.076-2.076c-.281-.552-.403-1.155-.461-1.869-.057-.697-.057-1.563-.057-2.655V9.367c0-1.092 0-1.958.057-2.655.058-.714.18-1.317.46-1.868a4.75 4.75 0 0 1 2.077-2.076c.55-.281 1.154-.403 1.868-.461.697-.057 1.563-.057 2.655-.057zM5.834 3.802c-.62.05-1.005.147-1.31.302a3.25 3.25 0 0 0-1.42 1.42c-.155.305-.251.69-.302 1.31-.051.63-.052 1.434-.052 2.566v5.2c0 1.133 0 1.937.052 2.566.05.62.147 1.005.302 1.31a3.25 3.25 0 0 0 1.42 1.42c.305.155.69.251 1.31.302.63.051 1.434.052 2.566.052h7.2c1.133 0 1.937 0 2.566-.052.62-.05 1.005-.147 1.31-.302a3.25 3.25 0 0 0 1.42-1.42c.155-.305.251-.69.302-1.31.051-.63.052-1.434.052-2.566V9.4c0-1.132 0-1.937-.052-2.566-.05-.62-.147-1.005-.302-1.31a3.25 3.25 0 0 0-1.42-1.42c-.305-.155-.69-.251-1.31-.302-.63-.051-1.433-.052-2.566-.052H8.4c-1.132 0-1.937 0-2.566.052zM8.916 8.25H9.5a2.25 2.25 0 0 1 2.25 2.25h-1.5a.75.75 0 0 0-.75-.75H9c-.513 0-.623.006-.694.026a.75.75 0 0 0-.53.53c-.02.071-.026.18-.026.694v2c0 .513.006.623.026.694a.75.75 0 0 0 .53.53c.071.02.18.026.694.026h.5a.75.75 0 0 0 .75-.75h1.5a2.25 2.25 0 0 1-2.25 2.25h-.584c-.38 0-.71 0-.998-.077a2.25 2.25 0 0 1-1.591-1.59c-.078-.29-.077-.618-.077-1V10.917c0-.38 0-.71.077-.998a2.25 2.25 0 0 1 1.59-1.591c.29-.078.618-.077 1-.077zm6.584 0h-.084c-.38 0-.71 0-.998.077a2.25 2.25 0 0 0-1.591 1.59c-.078.29-.078.618-.077 1V13.083c0 .38 0 .71.077.998a2.25 2.25 0 0 0 1.59 1.591c.29.078.618.078 1 .077H16a2.25 2.25 0 0 0 2.25-2.25h-1.5a.75.75 0 0 1-.75.75h-.5c-.513 0-.623-.006-.694-.026a.75.75 0 0 1-.53-.53c-.02-.071-.026-.18-.026-.694v-2c0-.513.006-.623.026-.694a.75.75 0 0 1 .53-.53c.071-.02.18-.026.694-.026h.5a.75.75 0 0 1 .75.75h1.5A2.25 2.25 0 0 0 16 8.25h-.5z"
        fill="currentColor"
      ></path>
    </g>
  </svg>