<svg viewBox="0 0 24 24" xmlns="http://www.w3.org/2000/svg">
    <g fill="none">
      <path
        fill-rule="evenodd"
        clip-rule="evenodd"
        d="M6.768 3.25h10.464a123.598 123.598 0 0 1 .824.002c.448.004.837.014 1.175.041.547.045 1.027.14 1.471.366a3.75 3.75 0 0 1 1.64 1.639c.226.444.32.924.365 1.47a16.431 16.431 0 0 1 .042 1.277l.001.72v4.469l-.001.72a.76.76 0 0 1-.001.102c-.004.448-.014.837-.041 1.176-.045.546-.14 1.026-.366 1.47a3.75 3.75 0 0 1-1.639 1.64c-.444.226-.924.32-1.47.365a16.433 16.433 0 0 1-1.277.042l-.723.001H6.768l-.723-.001a.758.758 0 0 1-.101-.001 16.431 16.431 0 0 1-1.175-.041c-.547-.045-1.027-.14-1.471-.366a3.75 3.75 0 0 1-1.64-1.639c-.226-.444-.32-.924-.365-1.47a16.492 16.492 0 0 1-.042-1.277l-.001-.723V8.768l.001-.723a.758.758 0 0 1 .001-.101c.004-.448.014-.837.041-1.175.045-.547.14-1.027.366-1.471a3.75 3.75 0 0 1 1.639-1.64c.444-.226.924-.32 1.47-.365a16.49 16.49 0 0 1 1.277-.042l.723-.001zm14.465 3.996a9.001 9.001 0 0 0-.021-.355c-.038-.454-.107-.715-.207-.912a2.25 2.25 0 0 0-.983-.984c-.198-.1-.459-.17-.913-.207a8.927 8.927 0 0 0-.355-.02c.007.423.025.637.073.814a2.25 2.25 0 0 0 1.59 1.591c.178.048.392.066.816.073zm-3.98-2.496c.007.492.033.877.125 1.22a3.75 3.75 0 0 0 2.651 2.652c.344.092.729.118 1.221.125v4.506c-.492.007-.877.033-1.22.125a3.75 3.75 0 0 0-2.652 2.651c-.092.344-.118.729-.125 1.221H6.747c-.007-.492-.033-.877-.125-1.22a3.75 3.75 0 0 0-2.651-2.652c-.344-.092-.729-.118-1.221-.125V8.747c.492-.007.877-.033 1.22-.125a3.75 3.75 0 0 0 2.652-2.651c.092-.344.118-.729.125-1.221H17.253zM4.89 4.788c.11-.009.228-.016.355-.02-.007.423-.025.637-.073.814a2.25 2.25 0 0 1-1.59 1.591c-.178.048-.392.066-.816.073.005-.127.012-.245.021-.355.037-.454.107-.715.207-.912a2.25 2.25 0 0 1 .984-.984c.197-.1.458-.17.912-.207zm-2.124 9.966c.005.127.012.245.021.355.037.454.107.715.207.912.216.424.56.768.984.984.197.1.458.17.912.207.11.009.228.015.355.02-.007-.423-.025-.637-.073-.814a2.25 2.25 0 0 0-1.59-1.591c-.178-.048-.392-.066-.816-.073zm16.342 2.458c-.11.009-.228.015-.355.02.007-.423.025-.637.073-.814a2.25 2.25 0 0 1 1.59-1.591c.178-.048.392-.066.816-.073a9.003 9.003 0 0 1-.021.355c-.038.454-.107.715-.207.912-.216.424-.56.768-.983.984-.198.1-.459.17-.913.207zm-6.225-7.096a1.25 1.25 0 1 0-1.768 1.768 1.25 1.25 0 0 0 1.768-1.768zm-2.829-1.06a2.75 2.75 0 1 1 3.89 3.889 2.75 2.75 0 0 1-3.89-3.89zM5 20.25a.75.75 0 0 0 0 1.5h14a.75.75 0 0 0 0-1.5H5z"
        fill="currentColor"
      ></path>
    </g>
  </svg>