<svg viewBox="0 0 24 24" xmlns="http://www.w3.org/2000/svg">
    <g fill="none">
      <path
        fill-rule="evenodd"
        clip-rule="evenodd"
        d="M8.4 2.25h-.033c-1.092 0-1.958 0-2.655.057-.714.058-1.317.18-1.868.46a4.75 4.75 0 0 0-2.076 2.077c-.281.55-.403 1.154-.461 1.868-.057.697-.057 1.563-.057 2.655V9.5a.75.75 0 0 0 1.5 0v-.1c0-1.132 0-1.937.052-2.566.05-.62.147-1.005.302-1.31a3.25 3.25 0 0 1 1.42-1.42c.305-.155.69-.251 1.31-.302.63-.051 1.434-.052 2.566-.052h7.2c1.133 0 1.937 0 2.566.052.62.05 1.005.147 1.31.302a3.25 3.25 0 0 1 1.42 1.42c.155.305.251.69.302 1.31.051.63.052 1.434.052 2.566v5.2c0 1.133 0 1.937-.052 2.566-.05.62-.147 1.005-.302 1.31a3.25 3.25 0 0 1-1.42 1.42c-.305.155-.69.251-1.31.302-.63.051-1.433.052-2.566.052h-2.1a.75.75 0 0 0 0 1.5h2.133c1.092 0 1.958 0 2.655-.057.714-.058 1.317-.18 1.869-.46a4.75 4.75 0 0 0 2.075-2.076c.281-.552.403-1.155.461-1.869.057-.697.057-1.563.057-2.655V9.367c0-1.092 0-1.958-.057-2.655-.058-.714-.18-1.317-.46-1.868a4.75 4.75 0 0 0-2.076-2.076c-.552-.281-1.155-.403-1.869-.461-.697-.057-1.563-.057-2.655-.057H8.4zM2 22a1 1 0 1 0 0-2 1 1 0 0 0 0 2zm-.75-9a.75.75 0 0 1 .75-.75c4.767 0 8.75 4.03 8.75 8.75a.75.75 0 0 1-1.5 0c0-3.896-3.316-7.25-7.25-7.25a.75.75 0 0 1-.75-.75zM2 16.25a.75.75 0 0 0 0 1.5c1.758 0 3.25 1.508 3.25 3.25a.75.75 0 0 0 1.5 0c0-2.566-2.158-4.75-4.75-4.75z"
        fill="currentColor"
      ></path>
    </g>
  </svg>