<svg viewBox="0 0 24 24" xmlns="http://www.w3.org/2000/svg">
    <g fill="none">
      <path
        fill-rule="evenodd"
        clip-rule="evenodd"
        d="M9.4 2.25h-.033c-1.092 0-1.958 0-2.655.057-.714.058-1.317.18-1.869.46a4.75 4.75 0 0 0-2.075 2.077c-.281.55-.403 1.154-.461 1.868-.057.697-.057 1.563-.057 2.655V14.633c0 1.092 0 1.958.057 2.655.058.714.18 1.317.46 1.869a4.75 4.75 0 0 0 2.076 2.075c.552.281 1.155.403 1.869.461.697.057 1.563.057 2.655.057H14.633c1.092 0 1.957 0 2.655-.057.713-.058 1.317-.18 1.868-.46a4.75 4.75 0 0 0 2.076-2.076c.281-.552.403-1.155.46-1.869.058-.697.058-1.563.058-2.655V9.367c0-1.092 0-1.958-.057-2.655-.058-.714-.18-1.317-.46-1.868a4.75 4.75 0 0 0-2.077-2.076c-.55-.281-1.154-.403-1.868-.461-.698-.057-1.563-.057-2.655-.057H9.4zM5.524 4.104c.305-.155.69-.251 1.31-.302.63-.051 1.433-.052 2.566-.052h5.2c1.132 0 1.937 0 2.566.052.62.05 1.005.147 1.31.302a3.25 3.25 0 0 1 1.42 1.42c.155.305.251.69.302 1.31.051.63.052 1.434.052 2.566v5.2c0 1.133 0 1.937-.052 2.566-.05.62-.147 1.005-.302 1.31a3.25 3.25 0 0 1-1.42 1.42c-.305.155-.69.251-1.31.302-.63.051-1.434.052-2.566.052H9.4c-1.133 0-1.937 0-2.566-.052-.62-.05-1.005-.147-1.31-.302a3.25 3.25 0 0 1-1.42-1.42c-.155-.305-.251-.69-.302-1.31-.052-.63-.052-1.434-.052-2.566V9.4c0-1.132 0-1.937.052-2.566.05-.62.147-1.005.302-1.31a3.25 3.25 0 0 1 1.42-1.42zM17.53 9.53a.75.75 0 1 0-1.06-1.06L13 11.94l-1.47-1.47a.75.75 0 0 0-1.06 0l-4 4a.75.75 0 1 0 1.06 1.06L11 12.06l1.47 1.47a.75.75 0 0 0 1.06 0l4-4z"
        fill="currentColor"
      ></path>
    </g>
  </svg>