<svg
   
   
    viewBox="0 0 24 24"
    fill="currentColor"
    xmlns="http://www.w3.org/2000/svg"
  >
    <mask id="path-1-inside-1_12212_68408" fill="white">
      <path
        fill-rule="evenodd"
        clip-rule="evenodd"
        d="M15.9999 4.5H7.99991C7.72377 4.5 7.49991 4.72386 7.49991 5V10C7.49991 10.2761 7.72377 10.5 7.99991 10.5H15.9999C16.2761 10.5 16.4999 10.2761 16.4999 10V5C16.4999 4.72386 16.2761 4.5 15.9999 4.5ZM7.99991 3C6.89534 3 5.99991 3.89543 5.99991 5V10C5.99991 11.1046 6.89534 12 7.99991 12H15.9999C17.1045 12 17.9999 11.1046 17.9999 10V5C17.9999 3.89543 17.1045 3 15.9999 3H7.99991Z"
      />
      <path
        fill-rule="evenodd"
        clip-rule="evenodd"
        d="M8.29449 13.25H15.7055C15.9781 13.25 16.1515 13.25 16.3034 13.2597C18.6878 13.4123 20.5878 15.3123 20.7404 17.6967C20.7501 17.8486 20.7501 18.0219 20.7501 18.2946L20.7501 18.3517C20.7501 18.5132 20.7501 18.6293 20.7435 18.7327C20.64 20.3507 19.3507 21.6399 17.7327 21.7435C17.6294 21.7501 17.5133 21.7501 17.3518 21.7501H6.64828C6.4868 21.7501 6.37072 21.7501 6.26737 21.7435C4.64939 21.6399 3.36014 20.3507 3.25659 18.7327C3.24997 18.6293 3.24998 18.5133 3.25 18.3518C3.25 18.3432 3.25 18.3344 3.25 18.3256L3.25 18.2946C3.24999 18.0219 3.24998 17.8486 3.2597 17.6967C3.41231 15.3123 5.3122 13.4123 7.69658 13.2597C7.84848 13.25 8.02184 13.25 8.29449 13.25ZM8.32548 14.75C8.01162 14.75 7.89004 14.7504 7.79239 14.7567C6.16097 14.8611 4.86106 16.161 4.75665 17.7925C4.7504 17.8901 4.75001 18.0117 4.75001 18.3256C4.75001 18.5241 4.7504 18.5879 4.75353 18.6369C4.80889 19.5019 5.49816 20.1912 6.36318 20.2465C6.41212 20.2497 6.47602 20.2501 6.67451 20.2501H17.3256C17.5241 20.2501 17.588 20.2497 17.6369 20.2465C18.5019 20.1912 19.1912 19.5019 19.2466 18.6369C19.2497 18.5879 19.2501 18.5241 19.2501 18.3256C19.2501 18.0117 19.2497 17.8901 19.2434 17.7925C19.139 16.161 17.839 14.8611 16.2076 14.7567C16.1099 14.7504 15.9884 14.75 15.6745 14.75H8.32548Z"
      />
      <path
        d="M11.9999 1C11.5857 1 11.2499 1.33579 11.2499 1.75V3.25C11.2499 3.66421 11.5857 4 11.9999 4C12.4141 4 12.7499 3.66421 12.7499 3.25V1.75C12.7499 1.33579 12.4141 1 11.9999 1Z"
      />
      <path
        d="M19.7499 4C19.3357 4 18.9999 4.33579 18.9999 4.75V7.25C18.9999 7.66421 19.3357 8 19.7499 8C20.1641 8 20.4999 7.66421 20.4999 7.25V4.75C20.4999 4.33579 20.1641 4 19.7499 4Z"
      />
      <path
        d="M3.49991 4.75C3.49991 4.33579 3.8357 4 4.24991 4C4.66413 4 4.99991 4.33579 4.99991 4.75V7.25C4.99991 7.66421 4.66413 8 4.24991 8C3.8357 8 3.49991 7.66421 3.49991 7.25V4.75Z"
      />
      <path
        d="M8.99997 17C8.58575 17 8.24997 17.3358 8.24997 17.75V20.25C8.24997 20.6642 8.58575 21 8.99997 21C9.41418 21 9.74997 20.6642 9.74997 20.25V17.75C9.74997 17.3358 9.41418 17 8.99997 17Z"
      />
      <path
        d="M12 17C11.5858 17 11.25 17.3358 11.25 17.75V20.25C11.25 20.6642 11.5858 21 12 21C12.4142 21 12.75 20.6642 12.75 20.25V17.75C12.75 17.3358 12.4142 17 12 17Z"
      />
      <path
        d="M14.25 17.75C14.25 17.3358 14.5858 17 15 17C15.4142 17 15.75 17.3358 15.75 17.75V20.25C15.75 20.6642 15.4142 21 15 21C14.5858 21 14.25 20.6642 14.25 20.25V17.75Z"
      />
    </mask>
    <path
      fill-rule="evenodd"
      clip-rule="evenodd"
      d="M15.9999 4.5H7.99991C7.72377 4.5 7.49991 4.72386 7.49991 5V10C7.49991 10.2761 7.72377 10.5 7.99991 10.5H15.9999C16.2761 10.5 16.4999 10.2761 16.4999 10V5C16.4999 4.72386 16.2761 4.5 15.9999 4.5ZM7.99991 3C6.89534 3 5.99991 3.89543 5.99991 5V10C5.99991 11.1046 6.89534 12 7.99991 12H15.9999C17.1045 12 17.9999 11.1046 17.9999 10V5C17.9999 3.89543 17.1045 3 15.9999 3H7.99991Z"
      fill="#01221D"
    />
    <path
      fill-rule="evenodd"
      clip-rule="evenodd"
      d="M8.29449 13.25H15.7055C15.9781 13.25 16.1515 13.25 16.3034 13.2597C18.6878 13.4123 20.5878 15.3123 20.7404 17.6967C20.7501 17.8486 20.7501 18.0219 20.7501 18.2946L20.7501 18.3517C20.7501 18.5132 20.7501 18.6293 20.7435 18.7327C20.64 20.3507 19.3507 21.6399 17.7327 21.7435C17.6294 21.7501 17.5133 21.7501 17.3518 21.7501H6.64828C6.4868 21.7501 6.37072 21.7501 6.26737 21.7435C4.64939 21.6399 3.36014 20.3507 3.25659 18.7327C3.24997 18.6293 3.24998 18.5133 3.25 18.3518C3.25 18.3432 3.25 18.3344 3.25 18.3256L3.25 18.2946C3.24999 18.0219 3.24998 17.8486 3.2597 17.6967C3.41231 15.3123 5.3122 13.4123 7.69658 13.2597C7.84848 13.25 8.02184 13.25 8.29449 13.25ZM8.32548 14.75C8.01162 14.75 7.89004 14.7504 7.79239 14.7567C6.16097 14.8611 4.86106 16.161 4.75665 17.7925C4.7504 17.8901 4.75001 18.0117 4.75001 18.3256C4.75001 18.5241 4.7504 18.5879 4.75353 18.6369C4.80889 19.5019 5.49816 20.1912 6.36318 20.2465C6.41212 20.2497 6.47602 20.2501 6.67451 20.2501H17.3256C17.5241 20.2501 17.588 20.2497 17.6369 20.2465C18.5019 20.1912 19.1912 19.5019 19.2466 18.6369C19.2497 18.5879 19.2501 18.5241 19.2501 18.3256C19.2501 18.0117 19.2497 17.8901 19.2434 17.7925C19.139 16.161 17.839 14.8611 16.2076 14.7567C16.1099 14.7504 15.9884 14.75 15.6745 14.75H8.32548Z"
      fill="black"
    />
    <path
      d="M11.9999 1C11.5857 1 11.2499 1.33579 11.2499 1.75V3.25C11.2499 3.66421 11.5857 4 11.9999 4C12.4141 4 12.7499 3.66421 12.7499 3.25V1.75C12.7499 1.33579 12.4141 1 11.9999 1Z"
      fill="white"
    />
    <path
      d="M19.7499 4C19.3357 4 18.9999 4.33579 18.9999 4.75V7.25C18.9999 7.66421 19.3357 8 19.7499 8C20.1641 8 20.4999 7.66421 20.4999 7.25V4.75C20.4999 4.33579 20.1641 4 19.7499 4Z"
      fill="white"
    />
    <path
      d="M3.49991 4.75C3.49991 4.33579 3.8357 4 4.24991 4C4.66413 4 4.99991 4.33579 4.99991 4.75V7.25C4.99991 7.66421 4.66413 8 4.24991 8C3.8357 8 3.49991 7.66421 3.49991 7.25V4.75Z"
      fill="white"
    />
    <path
      d="M8.99997 17C8.58575 17 8.24997 17.3358 8.24997 17.75V20.25C8.24997 20.6642 8.58575 21 8.99997 21C9.41418 21 9.74997 20.6642 9.74997 20.25V17.75C9.74997 17.3358 9.41418 17 8.99997 17Z"
      fill="white"
    />
    <path
      d="M12 17C11.5858 17 11.25 17.3358 11.25 17.75V20.25C11.25 20.6642 11.5858 21 12 21C12.4142 21 12.75 20.6642 12.75 20.25V17.75C12.75 17.3358 12.4142 17 12 17Z"
      fill="white"
    />
    <path
      d="M14.25 17.75C14.25 17.3358 14.5858 17 15 17C15.4142 17 15.75 17.3358 15.75 17.75V20.25C15.75 20.6642 15.4142 21 15 21C14.5858 21 14.25 20.6642 14.25 20.25V17.75Z"
      fill="white"
    />
    <path
      d="M8.29449 13.25L8.29444 14.25H8.29449V13.25ZM15.7055 13.25L15.7055 14.25L15.7055 14.25L15.7055 13.25ZM16.3034 13.2597L16.2395 14.2577L16.2395 14.2577L16.3034 13.2597ZM20.7404 17.6967L21.7383 17.6328L21.7383 17.6328L20.7404 17.6967ZM20.7501 18.2946L19.7501 18.2946L19.7501 18.2947L20.7501 18.2946ZM20.7501 18.3517L19.7501 18.3518L19.7501 18.3518L20.7501 18.3517ZM20.7435 18.7327L21.7415 18.7966L21.7415 18.7965L20.7435 18.7327ZM17.7327 21.7435L17.6688 20.7455L17.6688 20.7455L17.7327 21.7435ZM17.3518 21.7501L17.3519 20.7501H17.3518V21.7501ZM6.64828 21.7501L6.64828 20.7501L6.64816 20.7501L6.64828 21.7501ZM6.26737 21.7435L6.33124 20.7455L6.33124 20.7455L6.26737 21.7435ZM3.25659 18.7327L2.25863 18.7966L2.25863 18.7966L3.25659 18.7327ZM3.25 18.3518L4.25 18.3519L4.25 18.3519L3.25 18.3518ZM3.25 18.3256L4.25 18.3256L4.25 18.3255L3.25 18.3256ZM3.25 18.2946L4.25 18.2945L4.25 18.2945L3.25 18.2946ZM3.2597 17.6967L4.25766 17.7605L4.25766 17.7605L3.2597 17.6967ZM7.69658 13.2597L7.76046 14.2577L7.76046 14.2577L7.69658 13.2597ZM7.79239 14.7567L7.85626 15.7546L7.85626 15.7546L7.79239 14.7567ZM4.75665 17.7925L5.7546 17.8563L5.7546 17.8563L4.75665 17.7925ZM4.75353 18.6369L5.75149 18.573L5.75149 18.573L4.75353 18.6369ZM6.36318 20.2465L6.29931 21.2445L6.29931 21.2445L6.36318 20.2465ZM17.6369 20.2465L17.7008 21.2445L17.7008 21.2445L17.6369 20.2465ZM19.2466 18.6369L20.2445 18.7008L20.2445 18.7007L19.2466 18.6369ZM19.2434 17.7925L20.2414 17.7286L20.2414 17.7286L19.2434 17.7925ZM16.2076 14.7567L16.1437 15.7546L16.1437 15.7546L16.2076 14.7567ZM7.99991 5.5H15.9999V3.5H7.99991V5.5ZM8.49991 5C8.49991 5.27614 8.27605 5.5 7.99991 5.5V3.5C7.17148 3.5 6.49991 4.17157 6.49991 5H8.49991ZM8.49991 10V5H6.49991V10H8.49991ZM7.99991 9.5C8.27605 9.5 8.49991 9.72386 8.49991 10H6.49991C6.49991 10.8284 7.17149 11.5 7.99991 11.5V9.5ZM15.9999 9.5H7.99991V11.5H15.9999V9.5ZM15.4999 10C15.4999 9.72386 15.7238 9.5 15.9999 9.5V11.5C16.8283 11.5 17.4999 10.8284 17.4999 10H15.4999ZM15.4999 5V10H17.4999V5H15.4999ZM15.9999 5.5C15.7238 5.5 15.4999 5.27614 15.4999 5H17.4999C17.4999 4.17157 16.8283 3.5 15.9999 3.5V5.5ZM6.99991 5C6.99991 4.44772 7.44763 4 7.99991 4V2C6.34306 2 4.99991 3.34315 4.99991 5H6.99991ZM6.99991 10V5H4.99991V10H6.99991ZM7.99991 11C7.44763 11 6.99991 10.5523 6.99991 10H4.99991C4.99991 11.6569 6.34306 13 7.99991 13V11ZM15.9999 11H7.99991V13H15.9999V11ZM16.9999 10C16.9999 10.5523 16.5522 11 15.9999 11V13C17.6568 13 18.9999 11.6569 18.9999 10H16.9999ZM16.9999 5V10H18.9999V5H16.9999ZM15.9999 4C16.5522 4 16.9999 4.44772 16.9999 5H18.9999C18.9999 3.34315 17.6568 2 15.9999 2V4ZM7.99991 4H15.9999V2H7.99991V4ZM16.3673 12.2617C16.1761 12.2495 15.9658 12.25 15.7054 12.25L15.7055 14.25C15.9905 14.25 16.1269 14.2505 16.2395 14.2577L16.3673 12.2617ZM21.7383 17.6328C21.5536 14.7464 19.2536 12.4465 16.3673 12.2617L16.2395 14.2577C18.1219 14.3781 19.622 15.8781 19.7424 17.7605L21.7383 17.6328ZM21.7501 18.2947C21.7501 18.0343 21.7506 17.8239 21.7383 17.6328L19.7424 17.7605C19.7496 17.8732 19.7501 18.0095 19.7501 18.2946L21.7501 18.2947ZM21.7415 18.7965C21.7506 18.6543 21.7501 18.5023 21.7501 18.3516L19.7501 18.3518C19.7501 18.5242 19.7497 18.6044 19.7455 18.6688L21.7415 18.7965ZM17.7966 22.7415C19.9165 22.6058 21.6058 20.9165 21.7415 18.7966L19.7455 18.6688C19.6741 19.7848 18.7849 20.6741 17.6688 20.7455L17.7966 22.7415ZM17.3517 22.7501C17.5023 22.7501 17.6543 22.7506 17.7966 22.7415L17.6688 20.7455C17.6044 20.7497 17.5242 20.7501 17.3519 20.7501L17.3517 22.7501ZM6.2035 22.7415C6.34576 22.7506 6.49776 22.7501 6.64839 22.7501L6.64816 20.7501C6.47585 20.7501 6.39568 20.7497 6.33124 20.7455L6.2035 22.7415ZM2.25863 18.7966C2.39431 20.9165 4.08354 22.6058 6.2035 22.7415L6.33124 20.7455C5.21524 20.6741 4.32597 19.7848 4.25454 18.6688L2.25863 18.7966ZM2.25 18.3517C2.24998 18.5023 2.24952 18.6543 2.25863 18.7966L4.25454 18.6688C4.25042 18.6044 4.24998 18.5242 4.25 18.3519L2.25 18.3517ZM2.25 18.3256C2.25 18.3344 2.25 18.343 2.25 18.3517L4.25 18.3519C4.25 18.3433 4.25 18.3345 4.25 18.3256H2.25ZM2.25 18.2946L2.25 18.3256L4.25 18.3255L4.25 18.2945L2.25 18.2946ZM2.26174 17.6328C2.24951 17.8239 2.24999 18.0343 2.25 18.2946L4.25 18.2945C4.24999 18.0095 4.25045 17.8732 4.25766 17.7605L2.26174 17.6328ZM7.63271 12.2617C4.74634 12.4465 2.44647 14.7464 2.26174 17.6328L4.25766 17.7605C4.37814 15.8781 5.87806 14.3781 7.76046 14.2577L7.63271 12.2617ZM8.29454 12.25C8.03422 12.25 7.82386 12.2495 7.63271 12.2617L7.76046 14.2577C7.87309 14.2505 8.00946 14.25 8.29444 14.25L8.29454 12.25ZM7.85626 15.7546C7.91377 15.7509 7.9952 15.75 8.32548 15.75V13.75C8.02805 13.75 7.86631 13.7499 7.72852 13.7587L7.85626 15.7546ZM5.7546 17.8563C5.82689 16.7269 6.72684 15.8269 7.85626 15.7546L7.72852 13.7587C5.5951 13.8952 3.89523 15.5952 3.75869 17.7286L5.7546 17.8563ZM5.75001 18.3256C5.75001 17.9953 5.75092 17.9138 5.7546 17.8563L3.75869 17.7286C3.74987 17.8664 3.75001 18.0281 3.75001 18.3256H5.75001ZM5.75149 18.573C5.7516 18.5748 5.75096 18.5671 5.75054 18.5269C5.75012 18.4862 5.75001 18.426 5.75001 18.3256H3.75001C3.75001 18.5069 3.74986 18.6115 3.75557 18.7008L5.75149 18.573ZM6.42705 19.2486C6.06401 19.2254 5.77472 18.9361 5.75149 18.573L3.75557 18.7008C3.84306 20.0677 4.93231 21.157 6.29931 21.2445L6.42705 19.2486ZM6.67451 19.2501C6.5741 19.2501 6.51391 19.25 6.47317 19.2495C6.433 19.2491 6.4253 19.2485 6.42705 19.2486L6.29931 21.2445C6.38853 21.2502 6.49314 21.2501 6.67451 21.2501V19.2501ZM17.3256 19.2501H6.67451V21.2501H17.3256V19.2501ZM17.573 19.2486C17.5748 19.2485 17.5671 19.2491 17.5269 19.2495C17.4862 19.25 17.426 19.2501 17.3256 19.2501V21.2501C17.5069 21.2501 17.6116 21.2502 17.7008 21.2445L17.573 19.2486ZM18.2486 18.573C18.2254 18.9361 17.9361 19.2254 17.573 19.2486L17.7008 21.2445C19.0678 21.157 20.157 20.0677 20.2445 18.7008L18.2486 18.573ZM18.2501 18.3256C18.2501 18.426 18.25 18.4862 18.2495 18.5269C18.2491 18.5671 18.2485 18.5748 18.2486 18.573L20.2445 18.7007C20.2502 18.6115 20.2501 18.5069 20.2501 18.3256H18.2501ZM18.2455 17.8563C18.2492 17.9138 18.2501 17.9953 18.2501 18.3256H20.2501C20.2501 18.0281 20.2502 17.8664 20.2414 17.7286L18.2455 17.8563ZM16.1437 15.7546C17.2732 15.8269 18.1732 16.7269 18.2455 17.8563L20.2414 17.7286C20.1049 15.5952 18.4048 13.8952 16.2715 13.7587L16.1437 15.7546ZM15.6745 15.75C16.0048 15.75 16.0862 15.7509 16.1437 15.7546L16.2715 13.7587C16.1337 13.7499 15.9719 13.75 15.6745 13.75V15.75ZM8.32548 15.75H15.6745V13.75H8.32548V15.75ZM12.2499 1.75C12.2499 1.88807 12.138 2 11.9999 2V0C11.0334 0 10.2499 0.7835 10.2499 1.75H12.2499ZM12.2499 3.25V1.75H10.2499V3.25H12.2499ZM11.9999 3C12.138 3 12.2499 3.11193 12.2499 3.25H10.2499C10.2499 4.2165 11.0334 5 11.9999 5V3ZM11.7499 3.25C11.7499 3.11193 11.8618 3 11.9999 3V5C12.9664 5 13.7499 4.2165 13.7499 3.25H11.7499ZM11.7499 1.75V3.25H13.7499V1.75H11.7499ZM11.9999 2C11.8618 2 11.7499 1.88807 11.7499 1.75H13.7499C13.7499 0.783501 12.9664 0 11.9999 0V2ZM19.9999 4.75C19.9999 4.88807 19.888 5 19.7499 5V3C18.7834 3 17.9999 3.7835 17.9999 4.75H19.9999ZM19.9999 7.25V4.75H17.9999V7.25H19.9999ZM19.7499 7C19.888 7 19.9999 7.11193 19.9999 7.25H17.9999C17.9999 8.2165 18.7834 9 19.7499 9V7ZM19.4999 7.25C19.4999 7.11193 19.6118 7 19.7499 7V9C20.7164 9 21.4999 8.2165 21.4999 7.25H19.4999ZM19.4999 4.75V7.25H21.4999V4.75H19.4999ZM19.7499 5C19.6118 5 19.4999 4.88807 19.4999 4.75H21.4999C21.4999 3.7835 20.7164 3 19.7499 3V5ZM4.24991 3C3.28341 3 2.49991 3.7835 2.49991 4.75H4.49991C4.49991 4.88807 4.38798 5 4.24991 5V3ZM5.99991 4.75C5.99991 3.7835 5.21641 3 4.24991 3V5C4.11184 5 3.99991 4.88807 3.99991 4.75H5.99991ZM5.99991 7.25V4.75H3.99991V7.25H5.99991ZM4.24991 9C5.21641 9 5.99991 8.2165 5.99991 7.25H3.99991C3.99991 7.11193 4.11184 7 4.24991 7V9ZM2.49991 7.25C2.49991 8.2165 3.28341 9 4.24991 9V7C4.38798 7 4.49991 7.11193 4.49991 7.25H2.49991ZM2.49991 4.75V7.25H4.49991V4.75H2.49991ZM9.24997 17.75C9.24997 17.8881 9.13804 18 8.99997 18V16C8.03347 16 7.24997 16.7835 7.24997 17.75H9.24997ZM9.24997 20.25V17.75H7.24997V20.25H9.24997ZM8.99997 20C9.13804 20 9.24997 20.1119 9.24997 20.25H7.24997C7.24997 21.2165 8.03347 22 8.99997 22V20ZM8.74997 20.25C8.74997 20.1119 8.8619 20 8.99997 20V22C9.96647 22 10.75 21.2165 10.75 20.25H8.74997ZM8.74997 17.75V20.25H10.75V17.75H8.74997ZM8.99997 18C8.8619 18 8.74997 17.8881 8.74997 17.75H10.75C10.75 16.7835 9.96647 16 8.99997 16V18ZM12.25 17.75C12.25 17.8881 12.138 18 12 18V16C11.0335 16 10.25 16.7835 10.25 17.75H12.25ZM12.25 20.25V17.75H10.25V20.25H12.25ZM12 20C12.138 20 12.25 20.1119 12.25 20.25H10.25C10.25 21.2165 11.0335 22 12 22V20ZM11.75 20.25C11.75 20.1119 11.8619 20 12 20V22C12.9665 22 13.75 21.2165 13.75 20.25H11.75ZM11.75 17.75V20.25H13.75V17.75H11.75ZM12 18C11.8619 18 11.75 17.8881 11.75 17.75H13.75C13.75 16.7835 12.9665 16 12 16V18ZM15 16C14.0335 16 13.25 16.7835 13.25 17.75H15.25C15.25 17.8881 15.138 18 15 18V16ZM16.75 17.75C16.75 16.7835 15.9665 16 15 16V18C14.8619 18 14.75 17.8881 14.75 17.75H16.75ZM16.75 20.25V17.75H14.75V20.25H16.75ZM15 22C15.9665 22 16.75 21.2165 16.75 20.25H14.75C14.75 20.1119 14.8619 20 15 20V22ZM13.25 20.25C13.25 21.2165 14.0335 22 15 22V20C15.138 20 15.25 20.1119 15.25 20.25H13.25ZM13.25 17.75V20.25H15.25V17.75H13.25ZM15.7055 12.25H8.29449V14.25H15.7055V12.25ZM21.7501 18.3517L21.7501 18.2946L19.7501 18.2947L19.7501 18.3518L21.7501 18.3517ZM6.64828 22.7501H17.3518V20.7501H6.64828V22.7501Z"
      fill="#01221D"
      mask="url(#path-1-inside-1_12212_68408)"
    />
  </svg>