<svg viewBox="0 0 24 24" xmlns="http://www.w3.org/2000/svg">
    <g fill="none">
      <path
        fill-rule="evenodd"
        clip-rule="evenodd"
        d="M8.53 7.47a.75.75 0 0 0-1.06 1.06l4 4a.75.75 0 0 0 1.06 0l4-4a.75.75 0 0 0-1.06-1.06L12 10.94 8.53 7.47zm-2 4a.75.75 0 0 0-1.06 1.06l5.773 5.774.008.008c.032.032.082.082.132.124a.95.95 0 0 0 .323.185.95.95 0 0 0 .588 0 .95.95 0 0 0 .323-.185c.05-.042.1-.092.132-.124l.008-.008 5.773-5.774a.75.75 0 1 0-1.06-1.06L12 16.94l-5.47-5.47z"
        fill="currentColor"
      ></path>
    </g>
  </svg>