<svg viewBox="0 0 24 24" xmlns="http://www.w3.org/2000/svg">
    <g fill="none">
      <path
        fill-rule="evenodd"
        clip-rule="evenodd"
        d="M6.905 3.78c.364-.027.82-.03 1.448-.03a2.751 2.751 0 0 0 2.647 2h2c1.259 0 2.32-.846 2.646-2 .629 0 1.084.003 1.449.03.398.028.629.08.805.158.52.227.935.642 1.162 1.162.077.176.13.407.159.805.028.405.029.923.029 1.666V16.2c0 .852 0 1.447-.038 1.91-.038.453-.107.714-.207.912a2.25 2.25 0 0 1-.984.983c-.197.1-.458.17-.912.207-.462.037-1.057.038-1.91.038H8.8c-.852 0-1.446 0-1.908-.038-.454-.038-.715-.107-.913-.207a2.25 2.25 0 0 1-.983-.983c-.1-.198-.17-.459-.207-.913-.038-.462-.038-1.057-.038-1.909V7.571c0-.743 0-1.26.03-1.666.028-.398.08-.629.158-.805A2.25 2.25 0 0 1 6.1 3.938c.176-.077.407-.13.805-.159zm10.297-1.497c-.423-.03-.934-.033-1.556-.033A2.751 2.751 0 0 0 13 .25h-2c-1.259 0-2.32.846-2.647 2-.621 0-1.132.003-1.555.033-.478.034-.9.106-1.298.28A3.75 3.75 0 0 0 3.563 4.5c-.174.398-.246.82-.28 1.298-.033.465-.033 1.037-.033 1.745v8.689c0 .813 0 1.469.043 2 .045.546.14 1.026.366 1.47a3.75 3.75 0 0 0 1.638 1.64c.445.226.925.32 1.471.365.531.043 1.187.043 2 .043h6.464c.813 0 1.468 0 2-.043.546-.045 1.026-.14 1.47-.366a3.75 3.75 0 0 0 1.64-1.639c.226-.444.32-.924.364-1.47.044-.531.044-1.187.044-2V7.543c0-.708 0-1.28-.033-1.745-.034-.478-.107-.9-.28-1.298a3.75 3.75 0 0 0-1.938-1.937c-.397-.174-.82-.246-1.297-.28zM11 1.75a1.25 1.25 0 0 0 0 2.5h2a1.25 1.25 0 1 0 0-2.5h-2zm-1.5 9.5a.75.75 0 0 0 0 1.5h5a.75.75 0 0 0 0-1.5h-5z"
        fill="currentColor"
      ></path>
    </g>
  </svg>