<svg viewBox="0 0 24 24" xmlns="http://www.w3.org/2000/svg">
    <g fill="none">
      <path
        fill-rule="evenodd"
        clip-rule="evenodd"
        d="M8.353 3.75c-.628 0-1.084.003-1.448.03-.398.028-.629.08-.805.158A2.25 2.25 0 0 0 4.938 5.1c-.077.176-.13.407-.159.805-.029.405-.03.923-.03 1.666V16.2c0 .852.001 1.447.04 1.91.036.453.105.714.206.912.216.423.56.767.983.983.198.1.459.17.913.207.462.037 1.056.038 1.909.038h6.4c.852 0 1.447 0 1.91-.038.453-.038.714-.107.911-.207a2.25 2.25 0 0 0 .984-.983c.1-.198.17-.459.207-.913.037-.462.038-1.057.038-1.909V7.571c0-.743 0-1.26-.03-1.666-.028-.398-.081-.629-.158-.805A2.25 2.25 0 0 0 17.9 3.938c-.176-.077-.407-.13-.805-.159-.364-.026-.82-.029-1.449-.029a2.751 2.751 0 0 1-2.646 2h-2a2.751 2.751 0 0 1-2.647-2zm7.293-1.5c.622 0 1.133.003 1.556.033.478.034.9.106 1.297.28A3.75 3.75 0 0 1 20.438 4.5c.173.398.245.82.28 1.298.033.465.033 1.037.033 1.745v8.689c0 .813 0 1.469-.044 2-.044.546-.139 1.026-.365 1.47a3.75 3.75 0 0 1-1.639 1.64c-.444.226-.924.32-1.47.365-.532.043-1.187.043-2 .043H8.768c-.813 0-1.469 0-2-.043-.546-.045-1.026-.14-1.47-.366a3.75 3.75 0 0 1-1.64-1.639c-.226-.444-.32-.924-.365-1.47-.043-.531-.043-1.187-.043-2V7.544c0-.71 0-1.281.033-1.746.034-.478.106-.9.28-1.298A3.75 3.75 0 0 1 5.5 2.563c.398-.174.82-.246 1.298-.28.423-.03.934-.033 1.555-.033A2.751 2.751 0 0 1 11 .25h2c1.259 0 2.32.846 2.646 2zM9.75 3c0-.69.56-1.25 1.25-1.25h2a1.25 1.25 0 1 1 0 2.5h-2c-.69 0-1.25-.56-1.25-1.25z"
        fill="currentColor"
      ></path>
    </g>
  </svg>