<svg viewBox="0 0 24 24" xmlns="http://www.w3.org/2000/svg">
    <g fill="none">
      <path
        fill-rule="evenodd"
        clip-rule="evenodd"
        d="M5.75 11a6.25 6.25 0 0 1 12.322-1.488.75.75 0 0 0 .458.522A4.252 4.252 0 0 1 17 18.25H6a3.25 3.25 0 0 1-.812-6.398.75.75 0 0 0 .563-.74L5.75 11zM12 3.25a7.75 7.75 0 0 0-7.739 7.329A4.751 4.751 0 0 0 6 19.75h11a5.75 5.75 0 0 0 2.43-10.963A7.753 7.753 0 0 0 12 3.25zm-1.47 7.22a.75.75 0 1 0-1.06 1.06L10.94 13l-1.47 1.47a.75.75 0 1 0 1.06 1.06L12 14.06l1.47 1.47a.75.75 0 1 0 1.06-1.06L13.06 13l1.47-1.47a.75.75 0 1 0-1.06-1.06L12 11.94l-1.47-1.47z"
        fill="currentColor"
      ></path>
    </g>
  </svg>