<svg viewBox="0 0 24 24" xmlns="http://www.w3.org/2000/svg">
    <g fill="none">
      <path
        fill-rule="evenodd"
        clip-rule="evenodd"
        d="M12 2.75a6.25 6.25 0 0 0-6.249 6.363.75.75 0 0 1-.563.74 3.252 3.252 0 0 0-.812 5.963.75.75 0 1 1-.752 1.298 4.751 4.751 0 0 1 .637-8.536 7.75 7.75 0 0 1 15.168-1.79A5.75 5.75 0 0 1 20.45 16.6a.75.75 0 1 1-.9-1.2 4.252 4.252 0 0 0-1.02-7.367.75.75 0 0 1-.458-.521A6.253 6.253 0 0 0 12 2.75zM10 14a1 1 0 1 1-2 0 1 1 0 0 1 2 0zm-1 6a1 1 0 1 0 0-2 1 1 0 0 0 0 2zm7-6a1 1 0 1 1-2 0 1 1 0 0 1 2 0zm-1 6a1 1 0 1 0 0-2 1 1 0 0 0 0 2zm-2-4a1 1 0 1 1-2 0 1 1 0 0 1 2 0zm-1 6a1 1 0 1 0 0-2 1 1 0 0 0 0 2z"
        fill="currentColor"
      ></path>
    </g>
  </svg>