<svg viewBox="0 0 24 24" xmlns="http://www.w3.org/2000/svg">
    <g fill="none">
      <path
        fill-rule="evenodd"
        clip-rule="evenodd"
        d="M12 2.75a6.25 6.25 0 0 0-6.249 6.363.75.75 0 0 1-.563.74 3.252 3.252 0 0 0-.812 5.963.75.75 0 1 1-.752 1.298 4.751 4.751 0 0 1 .637-8.536 7.75 7.75 0 0 1 15.168-1.79A5.75 5.75 0 0 1 20.45 16.6a.75.75 0 1 1-.9-1.2 4.252 4.252 0 0 0-1.02-7.367.75.75 0 0 1-.458-.521A6.253 6.253 0 0 0 12 2.75zm-3 9.5a.75.75 0 0 1 .75.75v2a.75.75 0 0 1-1.5 0v-2a.75.75 0 0 1 .75-.75zM9.75 18a.75.75 0 0 0-1.5 0v2a.75.75 0 0 0 1.5 0v-2zM15 12.25a.75.75 0 0 1 .75.75v2a.75.75 0 0 1-1.5 0v-2a.75.75 0 0 1 .75-.75zm.75 5.75a.75.75 0 0 0-1.5 0v2a.75.75 0 0 0 1.5 0v-2zM12 13.25a.75.75 0 0 1 .75.75v2a.75.75 0 0 1-1.5 0v-2a.75.75 0 0 1 .75-.75zm.75 5.75a.75.75 0 0 0-1.5 0v2a.75.75 0 0 0 1.5 0v-2z"
        fill="currentColor"
      ></path>
    </g>
  </svg>