<svg viewBox="0 0 24 24" xmlns="http://www.w3.org/2000/svg">
    <g fill="none">
      <path
        fill-rule="evenodd"
        clip-rule="evenodd"
        d="M5.75 9a6.25 6.25 0 0 1 12.322-1.488.75.75 0 0 0 .458.522 4.252 4.252 0 0 1 1.02 7.367.75.75 0 0 0 .9 1.199 5.75 5.75 0 0 0-1.021-9.813A7.75 7.75 0 0 0 4.261 8.578a4.751 4.751 0 0 0-.637 8.536.75.75 0 1 0 .752-1.298 3.252 3.252 0 0 1 .812-5.964.75.75 0 0 0 .563-.74A6.38 6.38 0 0 1 5.75 9zm7 3a.75.75 0 0 0-1.5 0v7.19l-2.22-2.22a.75.75 0 0 0-1.06 1.06l3.5 3.5a.75.75 0 0 0 1.06 0l3.5-3.5a.75.75 0 1 0-1.06-1.06l-2.22 2.22V12z"
        fill="currentColor"
      ></path>
    </g>
  </svg>