<svg viewBox="0 0 24 24" xmlns="http://www.w3.org/2000/svg">
    <g fill="none">
      <path
        fill-rule="evenodd"
        clip-rule="evenodd"
        d="M21.47 1.47a.75.75 0 1 1 1.06 1.06l-19 19a.75.75 0 0 1-1.06-1.06l2.03-2.032A3.751 3.751 0 0 1 2.25 15V8.768c0-.813 0-1.469.043-2 .045-.546.14-1.026.366-1.47a3.75 3.75 0 0 1 1.639-1.64c.444-.226.924-.32 1.47-.365.531-.043 1.187-.043 2-.043H19.69l1.78-1.78zm-3.28 3.28H7.8c-.852 0-1.447 0-1.91.038-.453.037-.714.107-.911.207a2.25 2.25 0 0 0-.984.984c-.1.197-.17.458-.207.912-.037.462-.038 1.057-.038 1.909V15a2.25 2.25 0 0 0 1.958 2.231L18.19 4.75zM21.75 7a.75.75 0 0 0-1.5 0v11.787l-1.563-.782-.048-.024c-.459-.23-.754-.377-1.069-.483a4.747 4.747 0 0 0-.856-.202c-.328-.046-.659-.046-1.172-.046H10a.75.75 0 0 0 0 1.5h5.49c.583 0 .804.002 1.016.031.2.028.395.075.586.139.203.068.402.165.924.426l2.649 1.325A.75.75 0 0 0 21.75 20V7z"
        fill="currentColor"
      ></path>
    </g>
  </svg>