<svg viewBox="0 0 24 24" xmlns="http://www.w3.org/2000/svg">
    <g fill="none">
      <path
        fill-rule="evenodd"
        clip-rule="evenodd"
        d="M3.75 12A8.25 8.25 0 1 1 12 20.25H4.395c.067-.104.128-.202.184-.293.18-.3.326-.575.416-.86.076-.237.135-.447.163-.678.029-.23.023-.448.008-.697-.02-.313-.12-.682-.255-1.104-.138-.434-.339-.998-.598-1.726l-.005-.014c-.32-.899-.558-1.901-.558-2.878zM12 2.25c-5.385 0-9.75 4.365-9.75 9.75 0 1.206.291 2.386.645 3.38.265.746.457 1.287.587 1.694.135.423.18.634.187.742.014.222.012.33 0 .42a2.24 2.24 0 0 1-.103.406c-.037.117-.11.274-.27.538-.161.265-.382.597-.695 1.067l-.225.337A.75.75 0 0 0 3 21.75h9c5.385 0 9.75-4.365 9.75-9.75S17.385 2.25 12 2.25zm-3 9a.75.75 0 0 0 0 1.5h6a.75.75 0 0 0 0-1.5H9z"
        fill="currentColor"
      ></path>
    </g>
  </svg>