<svg viewBox="0 0 24 24" xmlns="http://www.w3.org/2000/svg">
    <g fill="none">
      <path
        fill-rule="evenodd"
        clip-rule="evenodd"
        d="M6.8 1.25h-.032c-.813 0-1.468 0-2 .043-.546.045-1.026.14-1.47.366a3.75 3.75 0 0 0-1.64 1.639c-.226.444-.32.924-.365 1.47-.043.531-.043 1.187-.043 2v4.464c0 .813 0 1.469.043 2 .045.546.14 1.026.366 1.47a3.75 3.75 0 0 0 1.639 1.64c.444.226.924.32 1.47.365.532.043 1.187.043 2 .043h.482v.482c0 .813 0 1.469.043 2 .045.546.14 1.026.366 1.47a3.75 3.75 0 0 0 1.639 1.64c.444.226.924.32 1.47.365.531.043 1.187.043 2 .043h4.464c.813 0 1.469 0 2-.043.546-.045 1.026-.14 1.47-.366a3.75 3.75 0 0 0 1.64-1.639c.226-.444.32-.924.365-1.47.043-.531.043-1.187.043-2v-4.464c0-.813 0-1.469-.043-2-.045-.546-.14-1.026-.366-1.47a3.75 3.75 0 0 0-1.639-1.64c-.444-.226-.924-.32-1.47-.365-.531-.043-1.187-.043-2-.043h-.482v-.482c0-.813 0-1.469-.043-2-.045-.546-.14-1.026-.366-1.47a3.75 3.75 0 0 0-1.639-1.64c-.444-.226-.924-.32-1.47-.365-.531-.043-1.187-.043-2-.043H6.8zm9.95 7.5v2.482c0 .813 0 1.469-.043 2-.045.546-.14 1.026-.366 1.47a3.75 3.75 0 0 1-1.639 1.64c-.444.226-.924.32-1.47.365-.531.043-1.187.043-2 .043H8.75v.45c0 .852 0 1.447.038 1.91.038.453.107.714.207.912.216.423.56.767.984.983.197.1.458.17.912.207.462.037 1.057.038 1.91.038h4.4c.851 0 1.446 0 1.908-.038.454-.038.715-.107.912-.207a2.25 2.25 0 0 0 .984-.983c.1-.198.17-.459.207-.913.038-.462.038-1.057.038-1.909v-4.4c0-.853 0-1.447-.038-1.91-.037-.453-.107-.714-.207-.911a2.25 2.25 0 0 0-.983-.984c-.198-.1-.459-.17-.913-.207-.462-.037-1.057-.038-1.909-.038h-.45zM3.98 2.995c.197-.1.458-.17.912-.207.462-.037 1.057-.038 1.91-.038h4.4c.851 0 1.446 0 1.908.038.454.037.715.107.912.207.424.216.768.56.984.984.1.197.17.458.207.912.037.462.038 1.057.038 1.909v4.4c0 .853 0 1.447-.038 1.91-.037.453-.107.714-.207.912a2.25 2.25 0 0 1-.984.983c-.197.1-.458.17-.912.207-.462.037-1.056.038-1.909.038H6.8c-.852 0-1.447 0-1.91-.038-.453-.037-.714-.107-.911-.207a2.25 2.25 0 0 1-.984-.984c-.1-.197-.17-.458-.207-.912-.037-.462-.038-1.056-.038-1.909V6.8c0-.852 0-1.447.038-1.91.038-.453.107-.714.207-.911a2.25 2.25 0 0 1 .984-.984z"
        fill="currentColor"
      ></path>
    </g>
  </svg>