<svg viewBox="0 0 24 24" xmlns="http://www.w3.org/2000/svg">
    <g fill="none">
      <path
        fill-rule="evenodd"
        clip-rule="evenodd"
        d="M1.47 1.47a.75.75 0 0 1 1.06 0l2.144 2.143L8.53 7.47l11.857 11.856 2.143 2.144a.75.75 0 1 1-1.06 1.06l-1.865-1.864c-.608.084-1.353.084-2.295.084H6.768c-.813 0-1.469 0-2-.043-.546-.045-1.026-.14-1.47-.366a3.75 3.75 0 0 1-1.64-1.639c-.226-.444-.32-.924-.365-1.47-.043-.531-.043-1.187-.043-2V8.798l.001-.752a.759.759 0 0 1 .001-.102c.009-1.107.048-1.942.407-2.646a3.75 3.75 0 0 1 1.2-1.377L1.47 2.53a.75.75 0 0 1 0-1.061zm2.48 3.54a2.25 2.25 0 0 0-.955.969c-.134.262-.2.602-.227 1.271h3.421L3.95 5.01zm3.74 3.74H2.75v6.45c0 .852 0 1.447.038 1.91.037.453.106.714.207.912.216.423.56.767.983.983.198.1.459.17.913.207.462.037 1.056.038 1.909.038h10.4c.377 0 .702 0 .985-.004L7.69 8.75zm11.42-3.962c-.463-.037-1.058-.038-1.91-.038H9a.75.75 0 1 1 0-1.5h8.232c.813 0 1.468 0 2 .043.546.045 1.026.14 1.47.366a3.75 3.75 0 0 1 1.64 1.639c.358.704.397 1.539.406 2.646a.751.751 0 0 1 0 .102c.002.232.002.483.002.752V17a.75.75 0 0 1-1.5 0V8.8v-.05H13a.75.75 0 0 1 0-1.5h8.232c-.028-.67-.094-1.01-.227-1.271a2.25 2.25 0 0 0-.984-.984c-.197-.1-.458-.17-.912-.207z"
        fill="currentColor"
      ></path>
    </g>
  </svg>