<svg viewBox="0 0 24 24" xmlns="http://www.w3.org/2000/svg">
    <g fill="none">
      <path
        fill-rule="evenodd"
        clip-rule="evenodd"
        d="M7.8 4.25h-.032c-.813 0-1.469 0-2 .043-.546.045-1.026.14-1.47.366a3.75 3.75 0 0 0-1.64 1.639c-.226.444-.32.924-.365 1.47a16.49 16.49 0 0 0-.042 1.277l-.001.723v4.464c0 .813 0 1.469.043 2 .045.546.14 1.026.366 1.47a3.75 3.75 0 0 0 1.639 1.64c.444.226.924.32 1.47.365.531.043 1.187.043 2 .043H12a.75.75 0 0 0 0-1.5H7.8c-.852 0-1.447 0-1.91-.038-.453-.038-.714-.107-.911-.207a2.25 2.25 0 0 1-.984-.983c-.1-.198-.17-.459-.207-.913-.037-.462-.038-1.057-.038-1.909V9.75h16.5V13a.75.75 0 0 0 1.5 0V9.766l-.001-.72a.758.758 0 0 0-.001-.102 16.431 16.431 0 0 0-.041-1.175c-.045-.547-.14-1.027-.366-1.471a3.75 3.75 0 0 0-1.639-1.64c-.444-.226-.924-.32-1.47-.365-.531-.043-1.187-.043-2-.043H7.8zm12.433 4H3.767c.005-.129.012-.248.021-.36.037-.453.107-.714.207-.911a2.25 2.25 0 0 1 .984-.984c.197-.1.458-.17.912-.207.462-.037 1.057-.038 1.909-.038h8.4c.852 0 1.447 0 1.91.038.453.037.714.107.912.207.423.216.767.56.983.984.1.197.17.458.207.912.009.111.016.23.021.359zm.297 8.22a.75.75 0 1 0-1.06 1.06l.72.72H16a.75.75 0 0 0 0 1.5h4.19l-.72.72a.75.75 0 1 0 1.06 1.06l2-2a.75.75 0 0 0 0-1.06l-2-2zM7 12.25a.75.75 0 0 0 0 1.5h3a.75.75 0 0 0 0-1.5H7z"
        fill="currentColor"
      ></path>
    </g>
  </svg>