<svg viewBox="0 0 24 24" xmlns="http://www.w3.org/2000/svg">
    <g fill="none">
      <path
        fill-rule="evenodd"
        clip-rule="evenodd"
        d="M6.8 2.25h-.032c-.813 0-1.469 0-2 .043-.546.045-1.026.14-1.47.366a3.75 3.75 0 0 0-1.64 1.639c-.226.444-.32.924-.365 1.47-.043.531-.043 1.187-.043 2V8a.75.75 0 0 0 1.5 0v-.2c0-.852 0-1.447.038-1.91.037-.453.107-.714.207-.911a2.25 2.25 0 0 1 .983-.984c.198-.1.459-.17.913-.207.462-.037 1.056-.038 1.909-.038H7a.75.75 0 0 0 0-1.5h-.2zm10.4 1.5c.852 0 1.447 0 1.91.038.453.037.714.107.911.207.424.216.768.56.984.984.1.197.17.458.207.912.037.462.038 1.057.038 1.909V8a.75.75 0 0 0 1.5 0v-.232c0-.813 0-1.469-.043-2-.045-.546-.14-1.026-.366-1.47a3.75 3.75 0 0 0-1.639-1.64c-.444-.226-.924-.32-1.47-.365-.531-.043-1.187-.043-2-.043H17a.75.75 0 0 0 0 1.5h.2zM2.75 16a.75.75 0 0 0-1.5 0v.232c0 .813 0 1.469.043 2 .045.546.14 1.026.366 1.47a3.75 3.75 0 0 0 1.638 1.64c.445.226.925.32 1.471.365.531.043 1.187.043 2 .043H7a.75.75 0 0 0 0-1.5h-.2c-.853 0-1.447 0-1.91-.038-.453-.038-.714-.107-.912-.207a2.25 2.25 0 0 1-.983-.983c-.1-.198-.17-.459-.207-.913-.037-.462-.038-1.057-.038-1.909V16zm20 0a.75.75 0 1 0-1.5 0v.2c0 .852 0 1.447-.038 1.91-.038.453-.107.714-.207.912a2.25 2.25 0 0 1-.984.983c-.197.1-.458.17-.912.207-.462.037-1.057.038-1.91.038H17a.75.75 0 0 0 0 1.5h.233c.813 0 1.469 0 2-.043.546-.045 1.026-.14 1.47-.366a3.75 3.75 0 0 0 1.64-1.639c.226-.444.32-.924.365-1.47.043-.531.043-1.187.043-2V16zM9.17 6.25h5.66c.534 0 .98 0 1.345.03.38.03.736.098 1.073.27a2.75 2.75 0 0 1 1.202 1.202c.172.337.24.693.27 1.073.03.365.03.81.03 1.345V13.83c0 .535 0 .98-.03 1.345-.03.38-.098.736-.27 1.073a2.75 2.75 0 0 1-1.202 1.202c-.337.172-.694.24-1.073.27-.365.03-.81.03-1.345.03H9.17c-.535 0-.98 0-1.345-.03-.38-.03-.736-.098-1.074-.27A2.75 2.75 0 0 1 5.55 16.25c-.172-.338-.24-.694-.27-1.074-.03-.365-.03-.81-.03-1.345V10.17c0-.535 0-.98.03-1.345.03-.38.098-.736.27-1.073A2.75 2.75 0 0 1 6.75 6.55c.338-.172.694-.24 1.074-.27.365-.03.81-.03 1.344-.03zm8.08 3.95v.05H6.75v-.05c0-.572 0-.957.025-1.253.023-.287.065-.424.111-.514a1.25 1.25 0 0 1 .546-.547c.091-.046.228-.088.515-.111.296-.024.68-.025 1.253-.025h5.6c.572 0 .957 0 1.252.025.288.023.425.065.515.111.236.12.427.311.547.547.046.09.088.227.111.514.024.296.025.68.025 1.253zm0 1.55H6.75v2.05c0 .572 0 .957.025 1.252.023.288.065.425.111.516.12.235.311.426.546.546.091.046.228.088.515.111.296.024.68.025 1.253.025h5.6c.572 0 .957 0 1.252-.025.288-.023.425-.065.515-.111a1.25 1.25 0 0 0 .547-.546c.046-.091.088-.228.111-.515.024-.296.025-.68.025-1.253v-2.05z"
        fill="currentColor"
      ></path>
    </g>
  </svg>