<svg viewBox="0 0 24 24" xmlns="http://www.w3.org/2000/svg">
    <g fill="none">
      <path
        fill-rule="evenodd"
        clip-rule="evenodd"
        d="M11.347 1.63A.75.75 0 0 1 12 1.25c5.937 0 10.75 4.813 10.75 10.75a.75.75 0 0 1-1.5 0c0-4.637-3.413-8.478-7.863-9.147l.756 1.261a.75.75 0 1 1-1.286.772l-1.5-2.5a.75.75 0 0 1-.01-.756zM2 11.25a.75.75 0 0 1 .75.75c0 4.637 3.413 8.478 7.863 9.147l-.756-1.261a.75.75 0 0 1 1.286-.772l1.5 2.5A.75.75 0 0 1 12 22.75C6.063 22.75 1.25 17.937 1.25 12a.75.75 0 0 1 .75-.75zm6-6a.75.75 0 0 1 .75.75v6.8c0 .572 0 .957.025 1.252.023.288.065.425.111.516.12.235.311.426.547.546.09.046.227.088.514.111.296.024.68.025 1.253.025H18a.75.75 0 0 1 0 1.5h-1.25V18a.75.75 0 0 1-1.5 0v-1.25h-4.08c-.535 0-.98 0-1.345-.03-.38-.03-.736-.098-1.073-.27A2.75 2.75 0 0 1 7.55 15.25c-.172-.338-.24-.694-.27-1.074-.03-.365-.03-.81-.03-1.345V8.75H6a.75.75 0 0 1 0-1.5h1.25V6A.75.75 0 0 1 8 5.25zm4.8 3.5c.572 0 .957 0 1.252.025.288.023.425.065.516.111.235.12.426.311.546.547.046.09.088.227.111.514.024.296.025.68.025 1.253v2.3a.75.75 0 0 0 1.5 0V11.17c0-.535 0-.98-.03-1.345-.03-.38-.098-.736-.27-1.073A2.75 2.75 0 0 0 15.25 7.55c-.338-.172-.694-.24-1.074-.27-.365-.03-.81-.03-1.345-.03H10.5a.75.75 0 0 0 0 1.5h2.3z"
        fill="currentColor"
      ></path>
    </g>
  </svg>