<svg viewBox="0 0 24 24" xmlns="http://www.w3.org/2000/svg">
    <g fill="none">
      <path
        fill-rule="evenodd"
        clip-rule="evenodd"
        d="M5.75 2a.75.75 0 0 0-1.5 0v2.25H2a.75.75 0 0 0 0 1.5h2.25v10.08c0 .535 0 .98.03 1.345.03.38.098.736.27 1.073a2.75 2.75 0 0 0 1.202 1.202c.337.172.693.24 1.073.27.365.03.81.03 1.345.03h10.08V22a.75.75 0 0 0 1.5 0v-2.25H22a.75.75 0 0 0 0-1.5H8.2c-.572 0-.957 0-1.253-.025-.287-.023-.424-.065-.514-.111a1.25 1.25 0 0 1-.547-.547c-.046-.09-.088-.227-.111-.515-.024-.295-.025-.68-.025-1.252V2zM15.8 5.75c.572 0 .957 0 1.252.025.288.023.425.065.515.111.236.12.427.311.547.547.046.09.088.227.111.514.024.296.025.68.025 1.253V16a.75.75 0 0 0 1.5 0V8.17c0-.535 0-.98-.03-1.345-.03-.38-.098-.736-.27-1.073A2.75 2.75 0 0 0 18.25 4.55c-.338-.172-.694-.24-1.074-.27-.365-.03-.81-.03-1.345-.03H8a.75.75 0 0 0 0 1.5h7.8z"
        fill="currentColor"
      ></path>
    </g>
  </svg>