<svg viewBox="0 0 24 24" xmlns="http://www.w3.org/2000/svg">
    <g fill="none">
      <path
        fill-rule="evenodd"
        clip-rule="evenodd"
        d="M12.75 3.784V6a.75.75 0 0 1-1.5 0V3.784a8.252 8.252 0 0 0-7.466 7.466H6a.75.75 0 0 1 0 1.5H3.784a8.252 8.252 0 0 0 7.466 7.466V18a.75.75 0 0 1 1.5 0v2.216a8.252 8.252 0 0 0 7.466-7.466H18a.75.75 0 0 1 0-1.5h2.216a8.252 8.252 0 0 0-7.466-7.466zM12 21.75c5.385 0 9.75-4.365 9.75-9.75S17.385 2.25 12 2.25 2.25 6.615 2.25 12s4.365 9.75 9.75 9.75zM10.75 12a1.25 1.25 0 1 1 2.5 0 1.25 1.25 0 0 1-2.5 0zM12 9.25a2.75 2.75 0 1 0 0 5.5 2.75 2.75 0 0 0 0-5.5z"
        fill="currentColor"
      ></path>
    </g>
  </svg>