<svg viewBox="0 0 24 24" xmlns="http://www.w3.org/2000/svg">
    <g fill="none">
      <path
        fill-rule="evenodd"
        clip-rule="evenodd"
        d="M10.1998 5.99961C9.65806 5.99961 9.40133 5.49001 9.2962 4.90221C9.32638 4.89032 9.35665 4.87862 9.38702 4.86711V4.10891C9.38702 2.58499 10.6224 1.34961 12.1463 1.34961C13.6702 1.34961 14.9056 2.58499 14.9056 4.10891V4.86711C15.0533 4.92313 15.1989 4.98352 15.3422 5.0481L15.8784 4.51184C16.956 3.43427 18.7031 3.43427 19.7807 4.51184C20.8582 5.58942 20.8582 7.33651 19.7807 8.41409L19.2444 8.95037C19.309 9.09359 19.3693 9.23912 19.4253 9.38682H20.1835C21.7074 9.38682 22.9428 10.6222 22.9428 12.1461C22.9428 13.67 21.7075 14.9054 20.1835 14.9054H19.4253C19.3693 15.0531 19.3089 15.1987 19.2444 15.3419L19.7806 15.8782C20.8582 16.9557 20.8582 18.7028 19.7806 19.7804C18.703 20.858 16.9559 20.858 15.8784 19.7804L15.3421 19.2442C15.1989 19.3087 15.0533 19.3691 14.9056 19.4251V20.1833C14.9056 21.7073 13.6702 22.9426 12.1463 22.9426C10.6224 22.9426 9.38702 21.7073 9.38702 20.1833V19.4251C9.3227 19.4007 9.2588 19.3755 9.19531 19.3495C9.24792 18.7448 9.44151 18.1577 9.92962 18.0267C10.0678 18.0788 10.2083 18.1262 10.351 18.1686C10.669 18.2633 10.887 18.5556 10.887 18.8875V20.1833C10.887 20.8788 11.4508 21.4426 12.1463 21.4426C12.8418 21.4426 13.4056 20.8788 13.4056 20.1833V18.8875C13.4056 18.5556 13.6237 18.2633 13.9417 18.1686C14.3591 18.0444 14.7584 17.8779 15.1347 17.674C15.4265 17.5158 15.7876 17.5683 16.0223 17.8031L16.939 18.7198C17.4308 19.2115 18.2282 19.2115 18.72 18.7198C19.2117 18.228 19.2117 17.4306 18.72 16.9388L17.8033 16.0221C17.5685 15.7874 17.516 15.4263 17.6742 15.1345C17.8781 14.7582 18.0446 14.3589 18.1688 13.9415C18.2635 13.6235 18.5558 13.4054 18.8877 13.4054H20.1835C20.879 13.4054 21.4428 12.8416 21.4428 12.1461C21.4428 11.4506 20.879 10.8868 20.1835 10.8868H18.8877C18.5558 10.8868 18.2635 10.6688 18.1688 10.3508C18.0446 9.93338 17.8781 9.53409 17.6742 9.15779C17.5161 8.86595 17.5686 8.50486 17.8033 8.27014L18.72 7.35342C19.2118 6.86164 19.2118 6.06429 18.72 5.5725C18.2282 5.08071 17.4309 5.08071 16.9391 5.5725L16.0224 6.48921C15.7877 6.72392 15.4266 6.77643 15.1347 6.61828C14.7584 6.41436 14.3591 6.24785 13.9417 6.12363C13.6237 6.02898 13.4056 5.7366 13.4056 5.40479V4.10891C13.4056 3.41342 12.8418 2.84961 12.1463 2.84961C11.4508 2.84961 10.887 3.41342 10.887 4.10891V5.40479C10.887 5.59396 10.8162 5.77031 10.6963 5.90452C10.5765 5.96458 10.4156 5.99961 10.1998 5.99961ZM10.798 15.6614C11.2166 15.822 11.6712 15.9101 12.1463 15.9101C14.2251 15.9101 15.9103 14.2249 15.9103 12.1461C15.9103 10.0673 14.2251 8.38217 12.1463 8.38217C11.7578 8.38217 11.3829 8.44105 11.0303 8.55037L12.3734 9.89341C13.5171 10.0073 14.4103 10.9724 14.4103 12.1461C14.4103 13.3965 13.3967 14.4101 12.1463 14.4101C12.1145 14.4101 12.0827 14.4094 12.0512 14.4081L10.798 15.6614Z"
        fill="currentColor"
      />
      <path
        d="M9.8999 12.0391L4.8999 17.0391M9.8999 12.0391L4.8999 7.03906M9.8999 12.0391C5.26658 12.0391 6.63325 12.0391 1.99993 12.0391"
        :stroke="fill"
        stroke-width="1.5"
        stroke-linecap="round"
        stroke-linejoin="round"
      />
    </g>
  </svg>