<svg viewBox="0 0 24 24" xmlns="http://www.w3.org/2000/svg">
    <g fill="none">
      <path
        fill-rule="evenodd"
        clip-rule="evenodd"
        d="M15.182 2.272A.75.75 0 0 0 14.25 3v18a.75.75 0 0 0 1.5 0v-5.537l1.816-.908.097-.048c.547-.273.977-.487 1.302-.819a2.75 2.75 0 0 0 .635-1.027c.15-.439.15-.919.15-1.53V6.36c0-.757.001-1.35-.215-1.865a2.75 2.75 0 0 0-.887-1.136c-.446-.334-1.022-.477-1.757-.66l-.133-.034-1.576-.394zm1.714 10.942l-1.146.572V3.962l.644.16c.934.234 1.183.311 1.355.44.178.133.317.311.403.516.084.199.098.459.098 1.421v4.524c0 .773-.01.98-.068 1.15a1.25 1.25 0 0 1-.29.467c-.125.128-.306.23-.996.575zM4.75 3a.75.75 0 1 0-1.5 0v5.381c0 .534 0 .955.119 1.348.105.346.277.668.506.947.261.317.611.55 1.056.846l.078.052 1.24.827V21a.75.75 0 0 0 1.5 0v-8.599l1.242-.827.078-.052c.445-.296.794-.529 1.055-.846.23-.28.402-.601.507-.947.12-.393.12-.814.119-1.348V3a.75.75 0 0 0-1.5 0v5.287c0 .673-.008.853-.054 1.006a1.25 1.25 0 0 1-.23.43c-.102.123-.247.23-.807.603l-.41.273V3a.75.75 0 1 0-1.5 0v7.599l-.408-.273c-.56-.373-.706-.48-.807-.603a1.25 1.25 0 0 1-.23-.43c-.046-.153-.054-.333-.054-1.006V3z"
        fill="currentColor"
      ></path>
    </g>
  </svg>