<svg viewBox="0 0 24 24" xmlns="http://www.w3.org/2000/svg">
    <g fill="none">
      <path
        fill-rule="evenodd"
        clip-rule="evenodd"
        d="M3.56 4.56c.661-.66 1.4-.877 2.132-.793.757.088 1.572.507 2.303 1.238.731.73 1.15 1.546 1.238 2.303.084.733-.133 1.47-.794 2.131-.66.661-1.398.878-2.131.794-.757-.088-1.572-.507-2.303-1.238-.731-.73-1.15-1.546-1.238-2.303-.084-.733.133-1.47.794-2.131zm5.496-.616c-.91-.91-2.022-1.532-3.192-1.667C4.669 2.14 3.479 2.521 2.5 3.5c-.98.98-1.36 2.169-1.223 3.364.135 1.17.758 2.283 1.667 3.192.91.91 2.022 1.532 3.192 1.667a3.925 3.925 0 0 0 2.792-.734L9.939 12l-1.47 1.47-6 6a.75.75 0 1 0 1.061 1.06l6-6L11 13.06l4.47 4.47 3 3a.75.75 0 1 0 1.06-1.06l-3-3-5-5L9.99 9.928a3.925 3.925 0 0 0 .734-2.792c-.135-1.17-.758-2.283-1.667-3.192zM19.47 2.47a.75.75 0 0 1 1.06 0l.738.737.021.021c.378.378.693.693.93.972.246.29.451.59.568.95a2.75 2.75 0 0 1 0 1.7c-.117.36-.322.66-.568.95-.237.279-.552.594-.93.972l-.021.021-4.738 4.737a.75.75 0 1 1-1.06-1.06l4.737-4.738c.405-.404.676-.676.868-.903.187-.22.254-.346.285-.443a1.25 1.25 0 0 0 0-.772c-.031-.097-.098-.224-.285-.443-.192-.227-.463-.499-.868-.903L20 4.06l-6.47 6.47a.75.75 0 1 1-1.06-1.061l7-7z"
        fill="currentColor"
      ></path>
    </g>
  </svg>