<svg viewBox="0 0 24 24" xmlns="http://www.w3.org/2000/svg">
    <g fill="none">
      <path
        fill-rule="evenodd"
        clip-rule="evenodd"
        d="M4 2.25a.75.75 0 0 1 .75.75v5.287c0 .673.008.853.054 1.006.048.157.126.303.23.43.102.123.247.23.807.603l.41.273V3a.75.75 0 0 1 1.5 0v7.599l.408-.273c.56-.373.706-.48.807-.603a1.25 1.25 0 0 0 .23-.43c.046-.153.054-.333.054-1.006V3a.75.75 0 0 1 1.5 0v5.381c0 .534 0 .955-.119 1.348a2.75 2.75 0 0 1-.506.947c-.261.317-.611.55-1.056.846l-.078.052-1.24.827V21a.75.75 0 0 1-1.5 0v-8.599l-1.242-.827-.078-.052c-.445-.296-.795-.529-1.055-.846a2.75 2.75 0 0 1-.507-.947c-.12-.393-.12-.814-.119-1.348V3A.75.75 0 0 1 4 2.25zm13 0a.75.75 0 0 1 .75.75v9.34c.816.192 1.58.681 2.173 1.323.78.845 1.327 2.022 1.327 3.337 0 1.315-.547 2.492-1.327 3.337-.771.835-1.834 1.413-2.923 1.413-1.09 0-2.152-.578-2.922-1.413-.78-.845-1.328-2.022-1.328-3.337 0-1.315.547-2.492 1.328-3.337.592-.642 1.356-1.131 2.172-1.324V3a.75.75 0 0 1 .75-.75zm0 11.5c-.568 0-1.255.318-1.82.93-.556.602-.93 1.426-.93 2.32 0 .894.374 1.718.93 2.32.565.612 1.252.93 1.82.93.568 0 1.255-.318 1.82-.93.556-.602.93-1.426.93-2.32 0-.894-.374-1.718-.93-2.32-.565-.612-1.252-.93-1.82-.93z"
        fill="currentColor"
      ></path>
    </g>
  </svg>