<svg viewBox="0 0 24 24" xmlns="http://www.w3.org/2000/svg">
    <g fill="none">
      <path
        fill-rule="evenodd"
        clip-rule="evenodd"
        d="M5.66 6.72a8.213 8.213 0 0 0-1.876 4.53H5a.75.75 0 0 1 0 1.5H3.784a8.2 8.2 0 0 0 1.194 3.582 5.952 5.952 0 0 1 4.375-2.08c.259-.917.98-1.64 1.897-1.899V9a.75.75 0 0 1 1.5 0v3.354c.916.259 1.638.981 1.897 1.898a5.951 5.951 0 0 1 4.375 2.08 8.2 8.2 0 0 0 1.194-3.582H19a.75.75 0 0 1 0-1.5h1.216a8.214 8.214 0 0 0-1.876-4.53l-.81.81a.75.75 0 1 1-1.06-1.06l.81-.81a8.213 8.213 0 0 0-4.53-1.876V5a.75.75 0 0 1-1.5 0V3.784A8.213 8.213 0 0 0 6.72 5.66l.81.81a.75.75 0 0 1-1.06 1.06l-.81-.81zM12 13.75a1.25 1.25 0 1 0 0 2.5 1.25 1.25 0 0 0 0-2.5zm-5.976 3.67a4.452 4.452 0 0 1 3.33-1.668 2.751 2.751 0 0 0 5.292 0 4.452 4.452 0 0 1 3.33 1.669l.115.143A8.228 8.228 0 0 1 12 20.25a8.228 8.228 0 0 1-6.091-2.686l.115-.143zM21.75 12c0-5.385-4.365-9.75-9.75-9.75S2.25 6.615 2.25 12s4.365 9.75 9.75 9.75 9.75-4.365 9.75-9.75z"
        fill="currentColor"
      ></path>
    </g>
  </svg>