<svg viewBox="0 0 24 24" xmlns="http://www.w3.org/2000/svg">
    <g fill="none">
      <path
        fill-rule="evenodd"
        clip-rule="evenodd"
        d="M19.022 4.627c-.277.083-.65.232-1.21.456L6.277 9.697c-.763.305-1.291.517-1.653.697a2.241 2.241 0 0 0-.369.218.25.25 0 0 0 .016.177 2.24 2.24 0 0 0 .402.147c.39.11.948.223 1.753.384l2.63.526.115.023c.643.128 1.148.228 1.569.486.369.227.68.537.906.907.258.42.358.925.486 1.568l.023.115.526 2.63c.161.806.274 1.364.384 1.753a2.243 2.243 0 0 0 .148.402.25.25 0 0 0 .176.016 2.237 2.237 0 0 0 .218-.369c.18-.362.392-.89.697-1.653l4.614-11.536c.224-.56.373-.933.456-1.21.053-.178.06-.26.062-.282a.25.25 0 0 0-.13-.13 1.318 1.318 0 0 0-.283.061zM4.235 10.63v-.001zm14.356-7.44c.335-.1.754-.192 1.163-.057a1.75 1.75 0 0 1 1.113 1.113c.135.41.043.828-.058 1.164-.104.348-.278.784-.485 1.301l-.014.034-4.614 11.536-.014.033c-.288.722-.522 1.307-.732 1.73a3.656 3.656 0 0 1-.354.593c-.13.17-.31.353-.56.465a1.75 1.75 0 0 1-1.71-.157 1.472 1.472 0 0 1-.464-.56 3.664 3.664 0 0 1-.24-.647c-.13-.454-.253-1.072-.406-1.834l-.007-.035-.526-2.63c-.162-.814-.217-1.03-.317-1.193a1.25 1.25 0 0 0-.412-.412c-.162-.1-.379-.154-1.193-.317l-2.63-.526-.035-.007c-.762-.153-1.38-.276-1.834-.405a3.667 3.667 0 0 1-.648-.24 1.472 1.472 0 0 1-.559-.466 1.75 1.75 0 0 1-.157-1.71c.112-.249.295-.428.465-.558.172-.132.377-.248.594-.355.422-.21 1.007-.443 1.729-.732l.033-.013L17.256 3.69l.033-.013c.518-.207.953-.382 1.302-.486z"
        fill="currentColor"
      ></path>
    </g>
  </svg>