<svg viewBox="0 0 24 24" xmlns="http://www.w3.org/2000/svg">
    <g fill="none">
      <path
        fill-rule="evenodd"
        clip-rule="evenodd"
        d="M11.908 4.46a1.43 1.43 0 0 0-.161.266c-.14.275-.299.673-.536 1.266l-4.696 11.74c-.282.704-.475 1.187-.583 1.542-.074.24-.083.348-.086.376a.25.25 0 0 0 .14.117c.027-.008.13-.036.355-.151.329-.17.77-.445 1.413-.847l2.152-1.345.093-.058c.524-.328.935-.586 1.391-.69a2.748 2.748 0 0 1 1.22 0c.456.104.867.362 1.39.69l.093.058 2.152 1.345c.643.402 1.085.677 1.414.847.224.115.328.143.356.15a.25.25 0 0 0 .139-.116c-.003-.028-.012-.135-.086-.376-.109-.355-.301-.838-.583-1.542L12.79 5.992c-.237-.593-.397-.99-.536-1.266a1.427 1.427 0 0 0-.16-.266.25.25 0 0 0-.185 0zm-.71-1.323a1.75 1.75 0 0 1 1.604 0c.395.204.626.59.79.913.172.34.356.8.576 1.352l.014.033 4.696 11.74.013.034c.265.662.482 1.203.611 1.625.117.382.24.88.063 1.333a1.75 1.75 0 0 1-1.292 1.08c-.476.094-.945-.115-1.301-.298-.392-.202-.886-.511-1.491-.89l-.03-.018-2.153-1.345c-.662-.414-.845-.517-1.021-.557a1.248 1.248 0 0 0-.554 0c-.177.04-.36.143-1.022.557L8.55 20.04l-.03.019c-.605.378-1.1.687-1.491.889-.356.183-.825.392-1.301.298a1.75 1.75 0 0 1-1.292-1.08c-.177-.452-.055-.95.063-1.333.129-.422.346-.963.61-1.625l.014-.034 4.696-11.74.013-.033c.22-.552.405-1.012.577-1.352.164-.324.394-.71.79-.913z"
        fill="currentColor"
      ></path>
    </g>
  </svg>