<svg viewBox="0 0 24 24" xmlns="http://www.w3.org/2000/svg">
    <g fill="none">
      <path
        fill-rule="evenodd"
        clip-rule="evenodd"
        d="M16.283 3.812c-.24-.057-.502-.062-1.271-.062H7.8c-.852 0-1.447 0-1.91.038-.453.037-.714.107-.911.207a2.25 2.25 0 0 0-.984.983c-.1.198-.17.459-.207.913-.037.462-.038 1.057-.038 1.909v8.4c0 .852 0 1.447.038 1.91.037.453.107.714.207.912.216.423.56.767.984.983.197.1.458.17.912.207.356.029.79.036 1.359.037V16.17c0-.535 0-.98.03-1.345.03-.38.098-.736.27-1.073a2.75 2.75 0 0 1 1.202-1.202c.337-.172.693-.24 1.073-.27.365-.03.81-.03 1.345-.03H12.83c.535 0 .98 0 1.345.03.38.03.736.098 1.073.27.518.263.939.684 1.202 1.201.172.338.24.694.27 1.074.03.365.03.81.03 1.345v4.08c.57-.002 1.003-.01 1.36-.038.453-.038.714-.107.912-.207a2.25 2.25 0 0 0 .983-.983c.1-.198.17-.459.207-.913.037-.462.038-1.057.038-1.909V8.988c0-.77-.005-1.032-.062-1.27a2.249 2.249 0 0 0-.27-.651c-.128-.21-.31-.398-.854-.943l-1.188-1.188c-.545-.544-.734-.726-.943-.854a2.25 2.25 0 0 0-.65-.27zM15.25 20.25V16.2c0-.572 0-.957-.025-1.253-.023-.287-.065-.424-.111-.514a1.25 1.25 0 0 0-.546-.547c-.091-.046-.228-.088-.515-.111-.296-.024-.68-.025-1.253-.025h-1.6c-.572 0-.957 0-1.253.025-.287.023-.424.065-.514.111a1.25 1.25 0 0 0-.547.546c-.046.091-.088.228-.111.515-.024.296-.025.68-.025 1.253v4.05h6.5zM8 21.75h8.232c.813 0 1.469 0 2-.043.546-.045 1.026-.14 1.47-.366a3.75 3.75 0 0 0 1.64-1.639c.226-.444.32-.924.365-1.47.043-.531.043-1.187.043-2V8.903c0-.652 0-1.103-.104-1.536a3.751 3.751 0 0 0-.449-1.084c-.232-.38-.551-.698-1.012-1.159l-.06-.06-1.189-1.188-.06-.06c-.46-.462-.78-.78-1.16-1.013a3.75 3.75 0 0 0-1.083-.45c-.433-.103-.884-.103-1.536-.103H7.768c-.813 0-1.469 0-2 .043-.546.045-1.026.14-1.47.366a3.75 3.75 0 0 0-1.64 1.639c-.226.444-.32.924-.365 1.47-.043.531-.043 1.187-.043 2v8.464c0 .813 0 1.469.043 2 .045.546.14 1.026.366 1.47a3.75 3.75 0 0 0 1.639 1.64c.444.226.924.32 1.47.365.531.043 1.187.043 2 .043H8zM7.25 8A.75.75 0 0 1 8 7.25h8a.75.75 0 0 1 0 1.5H8A.75.75 0 0 1 7.25 8z"
        fill="currentColor"
      ></path>
    </g>
  </svg>