<svg viewBox="0 0 24 24" xmlns="http://www.w3.org/2000/svg">
    <g fill="none">
      <path
        fill-rule="evenodd"
        clip-rule="evenodd"
        d="M12.75 3a.75.75 0 0 0-1.5 0v1.25H9.906c-2.054 0-3.656 1.737-3.656 3.801 0 1.613.984 3.075 2.489 3.602l2.51.88v5.717h-.916c-1.393 0-2.583-1.196-2.583-2.75a.75.75 0 0 0-1.5 0c0 2.312 1.794 4.25 4.083 4.25h.917V21a.75.75 0 0 0 1.5 0v-1.25h1.344c2.053 0 3.656-1.737 3.656-3.801 0-1.613-.984-3.075-2.49-3.602l-2.51-.88V5.75h.916c1.393 0 2.584 1.196 2.584 2.75a.75.75 0 0 0 1.5 0c0-2.312-1.794-4.25-4.084-4.25h-.916V3zm-1.5 2.75H9.906c-1.157 0-2.156.995-2.156 2.301 0 1.014.616 1.883 1.484 2.187l2.016.705V5.75zm1.5 7.307v5.193h1.344c1.157 0 2.156-.995 2.156-2.301 0-1.014-.617-1.883-1.485-2.187l-2.015-.705z"
        fill="currentColor"
      ></path>
    </g>
  </svg>