<svg
     
     
      viewBox="0 0 24 24"
      fill="none"
      xmlns="http://www.w3.org/2000/svg">
    <path
        fill-rule="evenodd"
        clip-rule="evenodd"
        d="M15.3274 7.74578C15.6703 7.35785 15.6338 6.76538 15.2459 6.42247C14.858 6.07956 14.2655 6.11606 13.9226 6.504L5.3138 16.2432L1.79985 12.5991C1.44045 12.2264 0.846959 12.2156 0.474248 12.575C0.101536 12.9344 0.0907456 13.5279 0.450146 13.9006L4.6689 18.2756C4.85049 18.464 5.10252 18.5678 5.36407 18.5622C5.62562 18.5565 5.87291 18.4418 6.04617 18.2458L15.3274 7.74578ZM22.8274 7.74578C23.1703 7.35785 23.1338 6.76538 22.7459 6.42247C22.358 6.07956 21.7655 6.11606 21.4226 6.504L12.8138 16.2432L12.4639 15.8804L11.8132 15.2055L10.4635 16.507L11.1142 17.1819L12.1689 18.2756C12.3505 18.464 12.6025 18.5678 12.8641 18.5622C13.1256 18.5565 13.3729 18.4418 13.5462 18.2458L22.8274 7.74578Z"
        fill="currentColor"
    />
  </svg>