<svg
   
   
    viewBox="0 0 24 24"
    fill="none"
    xmlns="http://www.w3.org/2000/svg"
  >
    <path
      fill-rule="evenodd"
      clip-rule="evenodd"
      d="M4 8C3.58579 8 3.25 8.33579 3.25 8.75C3.25 9.16422 3.58579 9.5 4 9.5L20 9.5C20.4142 9.5 20.75 9.16422 20.75 8.75C20.75 8.33579 20.4142 8 20 8L4 8ZM4 14.5C3.58579 14.5 3.25 14.8358 3.25 15.25C3.25 15.6642 3.58579 16 4 16L20 16C20.4142 16 20.75 15.6642 20.75 15.25C20.75 14.8358 20.4142 14.5 20 14.5L4 14.5Z"
      fill="currentColor"
    />
  </svg>