<svg viewBox="0 0 24 24" xmlns="http://www.w3.org/2000/svg">
    <g fill="none">
      <path
        fill-rule="evenodd"
        clip-rule="evenodd"
        d="M12 3.198c-.155 0-.275.017-.331.032-.223.061-.335.138-.805.51-1.136.9-2.678 2.293-3.93 4.043C5.68 9.535 4.75 11.597 4.75 13.852c0 2.517.92 4.348 2.253 5.555C8.35 20.626 10.163 21.25 12 21.25c1.836 0 3.65-.624 4.997-1.843 1.333-1.207 2.253-3.038 2.253-5.555 0-2.255-.93-4.317-2.184-6.069-1.253-1.75-2.795-3.144-3.93-4.043-.47-.372-.583-.449-.805-.51A1.422 1.422 0 0 0 12 3.198zm0-1.5c.231 0 .497.022.727.086.542.148.878.414 1.29.741l.049.039c1.199.948 2.856 2.44 4.22 4.346 1.362 1.904 2.464 4.268 2.464 6.942 0 2.915-1.08 5.158-2.747 6.667-1.653 1.497-3.84 2.231-6.003 2.231-2.164 0-4.35-.734-6.003-2.231C4.33 19.01 3.25 16.767 3.25 13.852c0-2.674 1.102-5.038 2.464-6.942 1.363-1.905 3.021-3.398 4.22-4.346l.048-.039c.413-.327.749-.593 1.29-.741.23-.064.496-.086.728-.086z"
        fill="currentColor"
      ></path>
    </g>
  </svg>