<svg viewBox="0 0 24 24" xmlns="http://www.w3.org/2000/svg">
    <g fill="none">
      <path
        fill-rule="evenodd"
        clip-rule="evenodd"
        d="M17.16 4.904a1.25 1.25 0 0 1 1.68 0c.02.017.044.04.13.127l.127.128a1.25 1.25 0 0 1 0 1.682 4.649 4.649 0 0 1-.127.129l-.807.807a1.903 1.903 0 0 1-1.94-1.94l.808-.807c.085-.085.11-.11.128-.126zm-2.208 2.205l-8.168 8.168c-.483.483-.665.668-.811.871a3.25 3.25 0 0 0-.346.61c-.099.23-.164.48-.33 1.144l-.266 1.067 1.067-.267c.663-.165.914-.23 1.144-.33a3.25 3.25 0 0 0 .61-.345c.203-.146.388-.327.871-.81l8.169-8.17a3.428 3.428 0 0 1-1.94-1.939zm4.898-3.315a2.75 2.75 0 0 0-3.868.163l-.012.013L5.723 14.216l-.044.044c-.425.425-.698.699-.924 1.013-.2.278-.37.577-.505.891-.153.355-.247.731-.392 1.314l-.016.06-.57 2.28a.75.75 0 0 0 .91.91l2.28-.57.06-.015c.583-.146.959-.24 1.314-.393.314-.136.613-.305.892-.505.314-.226.587-.5 1.012-.924l.044-.044L20.03 8.03l.013-.012c.067-.067.12-.12.163-.168a2.75 2.75 0 0 0-.163-3.867l-.012-.013-.013-.013c-.067-.067-.12-.119-.168-.163z"
        fill="currentColor"
      ></path>
    </g>
  </svg>