<svg viewBox="0 0 24 24" xmlns="http://www.w3.org/2000/svg">
    <g fill="none">
      <path
        fill-rule="evenodd"
        clip-rule="evenodd"
        d="M19.85 3.794a2.75 2.75 0 0 0-3.7 0c-.048.044-.1.096-.168.163l-.012.013-3.5 3.5L13 8l-.53-.53-.5.5a.75.75 0 0 0 1.06 1.06l.5-.5 1.422-1.421a3.428 3.428 0 0 0 1.94 1.939L15.47 10.47l-.5.5a.75.75 0 0 0 1.06 1.06l.5-.5 3.5-3.5.013-.012c.067-.068.12-.12.163-.168a2.75 2.75 0 0 0-.163-3.868l-.013-.012-.012-.013a5.106 5.106 0 0 0-.168-.163zm-1.687 3.983l.807-.807c.085-.086.11-.11.127-.13a1.25 1.25 0 0 0 0-1.68 4.726 4.726 0 0 0-.127-.13 4.745 4.745 0 0 0-.13-.126 1.25 1.25 0 0 0-1.68 0 4.636 4.636 0 0 0-.13.126l-.807.808a1.903 1.903 0 0 0 1.94 1.939zM4.53 3.47a.75.75 0 0 0-1.06 1.06l5.97 5.97-3.717 3.716-.044.044c-.425.425-.698.699-.924 1.013-.2.278-.37.577-.505.891-.153.355-.247.731-.392 1.313l-.016.061-.57 2.28a.75.75 0 0 0 .91.91l2.28-.57.06-.015c.583-.146.959-.24 1.314-.393.314-.136.613-.305.892-.505.314-.226.587-.5 1.012-.924l.044-.044 3.716-3.716 5.97 5.97a.75.75 0 1 0 1.06-1.061l-6.5-6.5-1.5-1.5-1.5-1.5-6.5-6.5zm2.254 11.807l3.716-3.716.97.97.97.97-3.717 3.715c-.483.484-.668.665-.871.811a3.25 3.25 0 0 1-.61.346c-.23.099-.48.164-1.144.33l-1.067.266.267-1.067c.165-.663.23-.914.33-1.144a3.25 3.25 0 0 1 .345-.61c.146-.203.328-.388.81-.871z"
        fill="currentColor"
      ></path>
    </g>
  </svg>