<svg viewBox="0 0 24 24" xmlns="http://www.w3.org/2000/svg">
    <g fill="none">
      <path
        fill-rule="evenodd"
        clip-rule="evenodd"
        d="M18.84 3.904a1.25 1.25 0 0 0-1.68 0 4.717 4.717 0 0 0-.13.126l-.307.307a1.903 1.903 0 0 0 1.94 1.94l.306-.307c.086-.086.11-.11.127-.13a1.25 1.25 0 0 0 0-1.68 4.649 4.649 0 0 0-.127-.13 4.662 4.662 0 0 0-.128-.126zm-1.448 3.644a3.428 3.428 0 0 1-1.94-1.94l-5.668 5.669c-.484.483-.665.668-.811.871a3.25 3.25 0 0 0-.346.61c-.099.23-.164.48-.33 1.144l-.266 1.067 1.067-.266c.663-.166.914-.231 1.144-.33.215-.093.42-.209.61-.346.203-.146.388-.327.87-.81l5.67-5.67zM16.15 2.794a2.75 2.75 0 0 1 3.7 0c.048.044.1.096.168.163l.012.013.013.012c.067.068.119.12.163.168a2.75 2.75 0 0 1-.163 3.868l-.013.012-7.246 7.247-.045.044c-.424.425-.698.699-1.012.924-.278.2-.577.37-.891.505-.356.153-.731.247-1.314.393l-.06.015-2.28.57a.75.75 0 0 1-.91-.91l.57-2.28.015-.06c.146-.583.24-.958.393-1.314a4.75 4.75 0 0 1 .505-.891c.225-.314.5-.588.924-1.013l.044-.044L15.97 2.97l.012-.013c.067-.067.12-.119.168-.163zM3.25 21a.75.75 0 0 1 .75-.75h16a.75.75 0 0 1 0 1.5H4a.75.75 0 0 1-.75-.75z"
        fill="currentColor"
      ></path>
    </g>
  </svg>