<svg viewBox="0 0 24 24" xmlns="http://www.w3.org/2000/svg">
    <g fill="none">
      <path
        fill-rule="evenodd"
        clip-rule="evenodd"
        d="M16.427 2.25h2.146c.393 0 .696 0 .963.053a2.75 2.75 0 0 1 2.161 2.16c.053.268.053.571.053.964v.146c0 .393 0 .696-.053.963a2.75 2.75 0 0 1-2.16 2.161c-.268.053-.571.053-.964.053h-2.146c-.393 0-.696 0-.963-.053a2.75 2.75 0 0 1-2.161-2.16c-.053-.268-.053-.571-.053-.964v-.146c0-.393 0-.696.053-.963a2.75 2.75 0 0 1 2.16-2.161c.268-.053.571-.053.964-.053zm.073 1.5c-.5 0-.641.004-.744.024a1.25 1.25 0 0 0-.982.982c-.02.103-.024.243-.024.744 0 .5.004.641.024.744.099.496.486.883.982.982.103.02.243.024.744.024h2c.5 0 .641-.004.744-.024a1.25 1.25 0 0 0 .982-.982c.02-.103.024-.243.024-.744 0-.5-.004-.641-.024-.744a1.25 1.25 0 0 0-.982-.982c-.103-.02-.243-.024-.744-.024h-2zM6.2 2.25h-.03c-.535 0-.98 0-1.345.03-.38.03-.736.098-1.073.27A2.75 2.75 0 0 0 2.55 3.752c-.172.337-.24.693-.27 1.073-.03.365-.03.81-.03 1.345V8.83c0 .535 0 .98.03 1.345.03.38.098.736.27 1.073a2.75 2.75 0 0 0 1.202 1.202c.337.172.693.24 1.073.27.365.03.81.03 1.345.03h.66c.535 0 .98 0 1.345-.03.38-.03.736-.098 1.073-.27a2.75 2.75 0 0 0 1.202-1.201c.172-.338.24-.694.27-1.074.03-.365.03-.81.03-1.345V6.17c0-.535 0-.98-.03-1.345-.03-.38-.098-.736-.27-1.073A2.75 2.75 0 0 0 9.25 2.55c-.338-.172-.694-.24-1.074-.27-.365-.03-.81-.03-1.345-.03H6.2zM4.433 3.886c.09-.046.227-.088.514-.111.296-.024.68-.025 1.253-.025h.6c.572 0 .957 0 1.253.025.287.023.424.065.515.111.235.12.426.311.546.547.046.09.088.227.111.514.024.296.025.68.025 1.253v2.6c0 .572 0 .957-.025 1.252-.023.288-.065.425-.111.516a1.25 1.25 0 0 1-.546.546c-.091.046-.228.088-.515.111-.296.024-.68.025-1.253.025h-.6c-.572 0-.957 0-1.253-.025-.287-.023-.424-.065-.514-.111a1.25 1.25 0 0 1-.547-.546c-.046-.091-.088-.228-.111-.515-.024-.296-.025-.68-.025-1.253V6.2c0-.572 0-.957.025-1.253.023-.287.065-.424.111-.514a1.25 1.25 0 0 1 .547-.547zM5.5 15.25h-.073c-.393 0-.696 0-.963.053a2.75 2.75 0 0 0-2.161 2.16c-.053.268-.053.571-.053.964v.146c0 .393 0 .696.053.963a2.75 2.75 0 0 0 2.16 2.161c.268.053.571.053.964.053h2.146c.393 0 .696 0 .964-.053a2.75 2.75 0 0 0 2.16-2.16c.053-.268.053-.571.053-.964v-.146c0-.393 0-.696-.053-.963a2.75 2.75 0 0 0-2.16-2.161c-.268-.053-.571-.053-.964-.053H5.5zm-.744 1.524c.103-.02.243-.024.744-.024h2c.5 0 .641.004.744.024.496.099.883.486.982.982.02.103.024.243.024.744 0 .5-.004.641-.024.744a1.25 1.25 0 0 1-.982.982c-.103.02-.243.024-.744.024h-2c-.5 0-.641-.004-.744-.024a1.25 1.25 0 0 1-.982-.982c-.02-.103-.024-.243-.024-.744 0-.5.004-.641.024-.744a1.25 1.25 0 0 1 .982-.982zM17.2 11.25h-.03c-.535 0-.98 0-1.345.03-.38.03-.736.098-1.073.27a2.75 2.75 0 0 0-1.202 1.201c-.172.338-.24.694-.27 1.074-.03.365-.03.81-.03 1.345V17.83c0 .535 0 .98.03 1.345.03.38.098.736.27 1.073a2.75 2.75 0 0 0 1.201 1.202c.338.172.694.24 1.074.27.365.03.81.03 1.345.03h.66c.535 0 .98 0 1.345-.03.38-.03.736-.098 1.073-.27a2.751 2.751 0 0 0 1.202-1.201c.172-.338.24-.694.27-1.074.03-.365.03-.81.03-1.345V15.17c0-.535 0-.98-.03-1.345-.03-.38-.098-.736-.27-1.073a2.751 2.751 0 0 0-1.201-1.202c-.338-.172-.694-.24-1.074-.27-.364-.03-.81-.03-1.345-.03h-.63zm-1.768 1.636c.091-.046.228-.088.515-.111.296-.024.68-.025 1.253-.025h.6c.572 0 .957 0 1.252.025.288.023.425.065.515.111.236.12.427.311.547.546.046.091.088.228.111.515.024.296.025.68.025 1.253v2.6c0 .572 0 .957-.025 1.252-.023.288-.065.425-.111.515a1.25 1.25 0 0 1-.547.547c-.09.046-.227.088-.515.111-.295.024-.68.025-1.252.025h-.6c-.572 0-.957 0-1.252-.025-.288-.023-.425-.065-.516-.111a1.25 1.25 0 0 1-.546-.547c-.046-.09-.088-.227-.111-.515-.024-.295-.025-.68-.025-1.252v-2.6c0-.572 0-.957.025-1.252.023-.288.065-.425.111-.516a1.25 1.25 0 0 1 .546-.546z"
        fill="currentColor"
      ></path>
    </g>
  </svg>