<svg viewBox="0 0 24 24" xmlns="http://www.w3.org/2000/svg">
    <g fill="none">
      <path
        fill-rule="evenodd"
        clip-rule="evenodd"
        d="M3.75 6.5a2.75 2.75 0 1 1 5.5 0 2.75 2.75 0 0 1-5.5 0zM6.5 2.25a4.25 4.25 0 1 0 0 8.5 4.25 4.25 0 0 0 0-8.5zm8.25 4.25a2.75 2.75 0 1 1 5.5 0 2.75 2.75 0 0 1-5.5 0zm2.75-4.25a4.25 4.25 0 1 0 0 8.5 4.25 4.25 0 0 0 0-8.5zm0 12.5a2.75 2.75 0 1 0 0 5.5 2.75 2.75 0 0 0 0-5.5zm-4.25 2.75a4.25 4.25 0 1 1 8.5 0 4.25 4.25 0 0 1-8.5 0zm-9.5 0a2.75 2.75 0 1 1 5.5 0 2.75 2.75 0 0 1-5.5 0zm2.75-4.25a4.25 4.25 0 1 0 0 8.5 4.25 4.25 0 0 0 0-8.5z"
        fill="currentColor"
      ></path>
    </g>
  </svg>