<svg viewBox="0 0 24 24" xmlns="http://www.w3.org/2000/svg">
    <g fill="none">
      <path
        fill-rule="evenodd"
        clip-rule="evenodd"
        d="M8.768 2.25h8.464c.813 0 1.469 0 2 .043.546.045 1.026.14 1.47.366a3.75 3.75 0 0 1 1.64 1.639c.226.444.32.924.365 1.47.043.531.043 1.187.043 2v4.464c0 .813 0 1.469-.043 2-.045.546-.14 1.026-.366 1.47a3.75 3.75 0 0 1-1.639 1.64 3.33 3.33 0 0 1-1.009.31A3.751 3.751 0 0 1 16 20.75H9.972c-1.374 0-2.444 0-3.306-.059-.875-.06-1.591-.182-2.25-.455a6.75 6.75 0 0 1-3.652-3.653C.49 15.925.369 15.21.309 14.334.25 13.472.25 12.402.25 11.028V6a.75.75 0 0 1 1.5 0v5c0 1.408 0 2.427.055 3.232.055.798.16 1.332.345 1.777a5.25 5.25 0 0 0 2.84 2.841c.446.185.98.29 1.778.345.805.055 1.824.055 3.232.055h6a2.25 2.25 0 0 0 2.123-1.503c-.274.003-.57.003-.89.003H8.767c-.813 0-1.469 0-2-.043-.546-.045-1.026-.14-1.47-.366a3.75 3.75 0 0 1-1.64-1.639c-.226-.444-.32-.924-.365-1.47-.043-.531-.043-1.187-.043-2V7.768c0-.813 0-1.469.043-2 .045-.546.14-1.026.366-1.47a3.75 3.75 0 0 1 1.639-1.64c.444-.226.924-.32 1.47-.365.531-.043 1.187-.043 2-.043zM6.89 3.788c-.454.037-.715.107-.912.207a2.25 2.25 0 0 0-.984.984c-.1.197-.17.458-.207.912-.037.462-.038 1.057-.038 1.909v4.4c0 .853 0 1.447.038 1.91.037.453.107.714.207.912.216.423.56.767.984.983.197.1.458.17.912.207.462.037 1.057.038 1.909.038h8.4c.852 0 1.447 0 1.91-.038.453-.038.714-.107.912-.207.423-.216.767-.56.983-.983.1-.198.17-.459.207-.913.037-.462.038-1.056.038-1.909V7.8c0-.852 0-1.447-.038-1.91-.038-.453-.107-.714-.207-.911a2.25 2.25 0 0 0-.983-.984c-.198-.1-.459-.17-.913-.207-.462-.037-1.057-.038-1.909-.038H8.8c-.852 0-1.447 0-1.91.038zm1.495 2.569a.75.75 0 1 0-.772 1.286l5 3a.75.75 0 0 0 .772 0l5-3a.75.75 0 1 0-.772-1.286L13 9.125 8.386 6.357z"
        fill="currentColor"
      ></path>
    </g>
  </svg>