<svg viewBox="0 0 24 24" xmlns="http://www.w3.org/2000/svg">
    <g fill="none">
      <path
        fill-rule="evenodd"
        clip-rule="evenodd"
        d="M12 2.25c-5.385 0-9.75 4.365-9.75 9.75s4.365 9.75 9.75 9.75 9.75-4.365 9.75-9.75S17.385 2.25 12 2.25zM3.75 12a8.25 8.25 0 1 1 16.5 0 8.25 8.25 0 0 1-16.5 0zM9 10a1 1 0 1 0 0-2 1 1 0 0 0 0 2zm7-1a1 1 0 1 1-2 0 1 1 0 0 1 2 0zm-4 2.25A2.75 2.75 0 0 0 9.25 14v2a2.75 2.75 0 1 0 5.5 0v-2A2.75 2.75 0 0 0 12 11.25zM10.75 14a1.25 1.25 0 1 1 2.5 0v2a1.25 1.25 0 1 1-2.5 0v-2z"
        fill="currentColor"
      ></path>
    </g>
  </svg>