<svg viewBox="0 0 24 24" xmlns="http://www.w3.org/2000/svg">
    <g fill="none">
      <path
        fill-rule="evenodd"
        clip-rule="evenodd"
        d="M13 4.75a7.252 7.252 0 0 0-6.71 4.5H13a.75.75 0 0 1 0 1.5H5.857a7.296 7.296 0 0 0 0 2.5H11a.75.75 0 0 1 0 1.5H6.29a7.252 7.252 0 0 0 12.148 2.045.75.75 0 0 1 1.124.993A8.754 8.754 0 0 1 4.691 14.75H3a.75.75 0 0 1 0-1.5h1.338a8.824 8.824 0 0 1 0-2.5H3a.75.75 0 0 1 0-1.5h1.69a8.754 8.754 0 0 1 14.872-3.038.75.75 0 1 1-1.125.993A7.23 7.23 0 0 0 13 4.75z"
        fill="currentColor"
      ></path>
    </g>
  </svg>