<svg
   
   
    viewBox="0 0 24 24"
    fill="none"
    xmlns="http://www.w3.org/2000/svg"
  >
    <path
      fill-rule="evenodd"
      clip-rule="evenodd"
      d="M11.6 1.25H11.5661H11.566C9.91462 1.25 8.62922 1.24999 7.59814 1.33424C6.55124 1.41977 5.70065 1.59588 4.93556 1.98571C3.66547 2.63285 2.63285 3.66547 1.98571 4.93556C1.59588 5.70065 1.41977 6.55124 1.33424 7.59814C1.24999 8.62922 1.25 9.91461 1.25 11.566V11.5661V11.6V12.4V12.4339V12.434C1.25 14.0854 1.24999 15.3708 1.33424 16.4019C1.41977 17.4488 1.59588 18.2994 1.98571 19.0644C2.63285 20.3345 3.66547 21.3671 4.93556 22.0143C5.70065 22.4041 6.55124 22.5802 7.59814 22.6658C8.62921 22.75 9.91459 22.75 11.566 22.75H11.566H11.6H12.4H12.434H12.434C14.0854 22.75 15.3708 22.75 16.4019 22.6658C17.4488 22.5802 18.2994 22.4041 19.0644 22.0143C20.3345 21.3671 21.3671 20.3345 22.0143 19.0644C22.4041 18.2994 22.5802 17.4488 22.6658 16.4019C22.75 15.3708 22.75 14.0854 22.75 12.434V12.434V12.4V11.6V11.566V11.566C22.75 9.91459 22.75 8.62921 22.6658 7.59814C22.5802 6.55124 22.4041 5.70065 22.0143 4.93556C21.3671 3.66547 20.3345 2.63285 19.0644 1.98571C18.2994 1.59588 17.4488 1.41977 16.4019 1.33424C15.3708 1.24999 14.0854 1.25 12.434 1.25H12.4339H12.4H11.6ZM5.61655 3.32222C6.13493 3.05809 6.76615 2.90721 7.72029 2.82925C8.68317 2.75058 9.90747 2.75 11.6 2.75H12.4C14.0925 2.75 15.3168 2.75058 16.2797 2.82925C17.2338 2.90721 17.8651 3.05809 18.3834 3.32222C19.3713 3.82555 20.1744 4.6287 20.6778 5.61655C20.9419 6.13493 21.0928 6.76615 21.1707 7.72029C21.2494 8.68317 21.25 9.90747 21.25 11.6V12.4C21.25 14.0925 21.2494 15.3168 21.1707 16.2797C21.0928 17.2338 20.9419 17.8651 20.6778 18.3834C20.1744 19.3713 19.3713 20.1744 18.3834 20.6778C17.8651 20.9419 17.2338 21.0928 16.2797 21.1707C15.3168 21.2494 14.0925 21.25 12.4 21.25H11.6C9.90747 21.25 8.68317 21.2494 7.72029 21.1707C6.76615 21.0928 6.13493 20.9419 5.61655 20.6778C4.6287 20.1744 3.82555 19.3713 3.32222 18.3834C3.05809 17.8651 2.90721 17.2338 2.82925 16.2797C2.75058 15.3168 2.75 14.0925 2.75 12.4V11.6C2.75 9.90747 2.75058 8.68317 2.82925 7.72029C2.90721 6.76615 3.05809 6.13493 3.32222 5.61655C3.82555 4.6287 4.6287 3.82555 5.61655 3.32222ZM9.46967 14.5303C9.76256 14.8232 10.2374 14.8232 10.5303 14.5303C10.8232 14.2374 10.8232 13.7626 10.5303 13.4697L8.97733 11.9167L10.5303 10.3637C10.8232 10.0708 10.8232 9.5959 10.5303 9.303C10.2374 9.01011 9.76256 9.01011 9.46967 9.303L7.38634 11.3863C7.09344 11.6792 7.09344 12.1541 7.38634 12.447L9.46967 14.5303Z"
      fill="currentColor"
    />
    <line
      x1="15.25"
      y1="22"
      x2="15.25"
      y2="2"
      :stroke="fill"
      stroke-width="1.5"
    />
  </svg>