<svg viewBox="0 0 24 24" xmlns="http://www.w3.org/2000/svg">
    <g fill="none">
      <path
        fill-rule="evenodd"
        clip-rule="evenodd"
        d="M11.82 5.714c-.206.112-.475.29-.891.569l-7.516 5.01c-.346.23-.562.376-.71.496a.844.844 0 0 0-.135.124.25.25 0 0 0 0 .174.844.844 0 0 0 .134.125c.149.12.365.265.711.495l7.516 5.01c.416.278.685.457.892.569.13.07.191.09.209.094a.25.25 0 0 0 .16-.086c.006-.017.024-.08.038-.226.021-.234.022-.557.022-1.058V14a.75.75 0 0 1 1.166-.624l6.513 4.342c.416.277.685.456.892.568.13.07.191.09.209.094a.25.25 0 0 0 .16-.086c.006-.017.024-.08.038-.226.021-.234.022-.557.022-1.058V6.99c0-.5 0-.824-.022-1.058a1.045 1.045 0 0 0-.038-.226.25.25 0 0 0-.16-.086c-.018.005-.08.024-.21.094-.206.112-.475.29-.891.569l-6.513 4.341A.75.75 0 0 1 12.25 10V6.99c0-.5 0-.824-.022-1.058a1.045 1.045 0 0 0-.038-.226.25.25 0 0 0-.16-.086c-.018.005-.08.024-.21.094zm-.714-1.318c.275-.15.614-.297.998-.274.511.03.983.283 1.292.69.232.308.297.672.326.983.028.311.028.704.028 1.16V8.6l5.346-3.565.03-.019c.379-.253.706-.47.98-.62.275-.148.614-.296.998-.273.511.03.983.283 1.292.69.232.308.297.672.326.983.028.311.028.704.028 1.16v10.09c0 .456 0 .85-.028 1.16-.029.311-.094.676-.326.982a1.75 1.75 0 0 1-1.292.691c-.384.023-.723-.124-.998-.273-.274-.149-.601-.367-.98-.62l-.03-.02-5.346-3.563v1.643c0 .456 0 .85-.028 1.16-.029.311-.094.676-.326.982a1.75 1.75 0 0 1-1.292.691c-.384.023-.723-.124-.998-.273-.274-.149-.601-.367-.98-.62l-.03-.02-7.515-5.01-.027-.018c-.31-.207-.585-.39-.793-.558-.216-.173-.445-.395-.575-.708a1.75 1.75 0 0 1 0-1.341c.13-.314.359-.535.575-.71.208-.167.482-.35.793-.557l.027-.018 7.516-5.01.028-.02c.38-.253.707-.47.981-.62z"
        fill="currentColor"
      ></path>
    </g>
  </svg>