<svg viewBox="0 0 24 24" xmlns="http://www.w3.org/2000/svg">
    <g fill="none">
      <path
        fill-rule="evenodd"
        clip-rule="evenodd"
        d="M13.875 5.015l.028.02 7.516 5.01.027.018c.31.207.585.39.793.558.216.174.445.395.575.709.178.429.178.911 0 1.34-.13.314-.359.536-.575.71-.208.167-.482.35-.793.557l-.027.019-7.516 5.01-.028.02c-.38.252-.707.47-.981.619-.275.149-.614.296-.998.273a1.75 1.75 0 0 1-1.292-.69c-.232-.307-.297-.672-.326-.983-.028-.31-.028-.704-.028-1.16v-1.643l-5.347 3.564-.028.02c-.38.252-.707.47-.981.619-.275.149-.614.296-.998.273a1.75 1.75 0 0 1-1.292-.69c-.232-.307-.297-.672-.326-.983-.028-.31-.028-.704-.028-1.16V6.955c0-.456 0-.849.028-1.16.029-.31.094-.675.326-.982a1.75 1.75 0 0 1 1.292-.691c.384-.023.723.125.998.274.274.148.601.366.98.62l.03.018L10.25 8.6V6.955c0-.456 0-.849.028-1.16.029-.31.094-.675.326-.982a1.75 1.75 0 0 1 1.292-.691c.384-.023.723.125.998.274.274.148.601.366.98.62zm-1.905.605a.25.25 0 0 0-.16.086c-.006.017-.024.08-.038.226-.021.234-.022.557-.022 1.058V10a.75.75 0 0 1-1.166.624L4.07 6.283a13.322 13.322 0 0 0-.892-.569c-.13-.07-.191-.089-.209-.094a.25.25 0 0 0-.16.086c-.006.017-.024.08-.038.226A13.32 13.32 0 0 0 2.75 6.99v10.02c0 .501 0 .824.022 1.058.014.147.032.209.038.226a.25.25 0 0 0 .16.086 1.05 1.05 0 0 0 .21-.094c.206-.112.475-.29.891-.568l6.513-4.342A.75.75 0 0 1 11.75 14v3.01c0 .501 0 .824.022 1.058.014.147.032.209.038.226a.25.25 0 0 0 .16.086c.018-.005.08-.024.21-.094.206-.112.475-.29.891-.568l7.516-5.01c.346-.231.562-.376.71-.496a.85.85 0 0 0 .135-.125.25.25 0 0 0 0-.174.85.85 0 0 0-.134-.124c-.149-.12-.365-.265-.711-.496l-7.516-5.01a13.31 13.31 0 0 0-.892-.569c-.13-.07-.191-.089-.209-.094z"
        fill="currentColor"
      ></path>
    </g>
  </svg>