<svg viewBox="0 0 24 24" xmlns="http://www.w3.org/2000/svg">
    <g fill="none">
      <path
        fill-rule="evenodd"
        clip-rule="evenodd"
        d="M6.2 2.25h-.03c-.535 0-.98 0-1.345.03-.38.03-.736.098-1.073.27A2.75 2.75 0 0 0 2.55 3.752c-.172.337-.24.693-.27 1.073-.03.365-.03.81-.03 1.345v.66c0 .535 0 .98.03 1.345.03.38.098.736.27 1.073a2.75 2.75 0 0 0 1.202 1.202c.337.172.693.24 1.073.27.365.03.81.03 1.345.03H17.83c.535 0 .98 0 1.345-.03.38-.03.736-.098 1.073-.27a2.75 2.75 0 0 0 1.202-1.202c.172-.337.24-.693.27-1.073.03-.365.03-.81.03-1.345v-.66c0-.535 0-.98-.03-1.345-.03-.38-.098-.736-.27-1.073A2.75 2.75 0 0 0 20.25 2.55c-.338-.172-.694-.24-1.074-.27-.364-.03-.81-.03-1.345-.03H6.2zM4.433 3.886c.09-.046.227-.088.515-.111.295-.024.68-.025 1.252-.025h11.6c.572 0 .957 0 1.253.025.287.023.424.065.514.111.236.12.427.311.547.547.046.09.088.227.111.514.024.296.025.68.025 1.253v.6c0 .572 0 .957-.025 1.253-.023.287-.065.424-.111.514a1.25 1.25 0 0 1-.547.547c-.09.046-.227.088-.514.111-.296.024-.68.025-1.253.025H6.2c-.572 0-.957 0-1.252-.025-.288-.023-.425-.065-.515-.111a1.25 1.25 0 0 1-.547-.547c-.046-.09-.088-.227-.111-.514-.024-.296-.025-.68-.025-1.253v-.6c0-.572 0-.957.025-1.253.023-.287.065-.424.111-.514a1.25 1.25 0 0 1 .547-.547zM6.2 13.25h-.03c-.535 0-.98 0-1.345.03-.38.03-.736.098-1.073.27A2.75 2.75 0 0 0 2.55 14.75c-.172.338-.24.694-.27 1.074-.03.365-.03.81-.03 1.345v.66c0 .535 0 .98.03 1.345.03.38.098.736.27 1.073a2.75 2.75 0 0 0 1.202 1.202c.337.172.693.24 1.073.27.365.03.81.03 1.345.03h5.66c.535 0 .98 0 1.345-.03.38-.03.736-.098 1.073-.27a2.75 2.75 0 0 0 1.202-1.201c.172-.338.24-.694.27-1.074.03-.364.03-.81.03-1.345v-.66c0-.535 0-.98-.03-1.345-.03-.38-.098-.736-.27-1.073a2.75 2.75 0 0 0-1.201-1.202c-.338-.172-.694-.24-1.074-.27-.365-.03-.81-.03-1.345-.03H6.2zm-1.767 1.636c.09-.046.227-.088.515-.111.295-.024.68-.025 1.252-.025h5.6c.572 0 .957 0 1.253.025.287.023.424.065.514.111.236.12.427.311.547.546.046.091.088.228.111.515.024.296.025.68.025 1.253v.6c0 .572 0 .957-.025 1.252-.023.288-.065.425-.111.515a1.25 1.25 0 0 1-.546.547c-.091.046-.228.088-.515.111-.296.024-.68.025-1.253.025H6.2c-.572 0-.957 0-1.252-.025-.288-.023-.425-.065-.515-.111a1.25 1.25 0 0 1-.547-.547c-.046-.09-.088-.227-.111-.515-.024-.295-.025-.68-.025-1.252v-.6c0-.572 0-.957.025-1.252.023-.288.065-.425.111-.516a1.25 1.25 0 0 1 .547-.546z"
        fill="currentColor"
      ></path>
    </g>
  </svg>