<svg viewBox="0 0 24 24" xmlns="http://www.w3.org/2000/svg">
    <g fill="none">
      <path
        fill-rule="evenodd"
        clip-rule="evenodd"
        d="M13.25 3.75H9.8c-.852 0-1.447 0-1.91.038-.453.037-.714.107-.911.207a2.25 2.25 0 0 0-.984.983c-.1.198-.17.459-.207.913-.037.462-.038 1.056-.038 1.909v4.45h12.5V8.988 8.75h-1.08c-.535 0-.98 0-1.345-.03-.38-.03-.736-.098-1.073-.27a2.75 2.75 0 0 1-1.202-1.202c-.172-.337-.24-.693-.27-1.073-.03-.365-.03-.81-.03-1.345V3.75zm4.77 3.5a2.236 2.236 0 0 0-.102-.183c-.128-.21-.31-.399-.854-.943l-1.188-1.188c-.544-.544-.734-.726-.943-.855-.06-.036-.12-.07-.183-.1V4.8c0 .572 0 .957.025 1.253.023.287.065.424.111.514.12.236.311.427.546.547.091.046.228.088.515.111.296.024.68.025 1.253.025h.82zm1.73 1.738v3.262H21a.75.75 0 0 1 0 1.5H3a.75.75 0 0 1 0-1.5h1.25V7.768c0-.813 0-1.469.043-2 .045-.546.14-1.026.366-1.47a3.75 3.75 0 0 1 1.639-1.64c.444-.226.924-.32 1.47-.365.531-.043 1.187-.043 2-.043h3.329c.652 0 1.103 0 1.536.104a3.75 3.75 0 0 1 1.084.449c.38.232.698.551 1.159 1.012l.06.06 1.188 1.189.06.06c.462.46.78.78 1.013 1.16.206.335.358.7.45 1.083.103.433.103.884.103 1.536v.085zM6 15.25a.75.75 0 0 1 .75.75v3a.75.75 0 0 1-1.5 0v-3a.75.75 0 0 1 .75-.75zm4.75.75a.75.75 0 0 0-1.5 0v5a.75.75 0 0 0 1.5 0v-5zm3.25-.75a.75.75 0 0 1 .75.75v5a.75.75 0 0 1-1.5 0v-5a.75.75 0 0 1 .75-.75zm4.75.75a.75.75 0 0 0-1.5 0v3a.75.75 0 0 0 1.5 0v-3z"
        fill="currentColor"
      ></path>
    </g>
  </svg>