<svg viewBox="0 0 24 24" xmlns="http://www.w3.org/2000/svg">
    <g fill="none">
      <path
        fill-rule="evenodd"
        clip-rule="evenodd"
        d="M13.012 3.75h.238v1.08c0 .535 0 .98.03 1.345.03.38.098.736.27 1.073A2.75 2.75 0 0 0 14.75 8.45c.338.172.694.24 1.074.27.365.03.81.03 1.345.03h1.08V16.2c0 .852 0 1.447-.038 1.91-.038.453-.107.714-.207.911a2.25 2.25 0 0 1-.983.984c-.198.1-.459.17-.913.207-.462.037-1.057.038-1.909.038H9.8c-.852 0-1.447 0-1.91-.038-.453-.038-.714-.107-.911-.207a2.25 2.25 0 0 1-.984-.984c-.1-.197-.17-.458-.207-.912-.037-.462-.038-1.057-.038-1.91V7.8c0-.852 0-1.446.038-1.908.037-.454.107-.715.207-.913a2.25 2.25 0 0 1 .984-.983c.197-.1.458-.17.912-.207.462-.038 1.057-.038 1.909-.038h3.212zm4.906 3.317c.037.06.07.12.101.183H17.2c-.572 0-.957 0-1.252-.025-.288-.023-.425-.065-.516-.111a1.25 1.25 0 0 1-.546-.547c-.046-.09-.088-.227-.111-.514-.024-.296-.025-.68-.025-1.253v-.82c.062.031.123.065.183.101.21.129.399.311.943.855l1.188 1.188c.544.544.726.733.854.943zm-4.82-4.817c.65 0 1.102 0 1.535.104a3.75 3.75 0 0 1 1.084.449c.38.232.698.551 1.159 1.012l.06.06 1.188 1.189.06.06c.462.46.78.78 1.013 1.16.206.335.358.7.45 1.083.103.433.103.884.103 1.536v7.329c0 .813 0 1.469-.043 2-.045.546-.14 1.026-.366 1.47a3.75 3.75 0 0 1-1.639 1.64c-.444.226-.924.32-1.47.364-.531.044-1.187.044-2 .044H9.768c-.813 0-1.469 0-2-.044-.546-.044-1.026-.139-1.47-.365a3.75 3.75 0 0 1-1.64-1.639c-.226-.444-.32-.924-.365-1.47-.043-.531-.043-1.187-.043-2V7.768c0-.813 0-1.469.043-2 .045-.546.14-1.026.366-1.47a3.75 3.75 0 0 1 1.639-1.64c.444-.226.924-.32 1.47-.365.531-.043 1.187-.043 2-.043h3.329zm.063 10.317a.912.912 0 0 1 1.148 1.416L12 16.003l-2.31-2.02a.912.912 0 0 1 1.149-1.416l.711.533c.267.2.633.2.9 0l.711-.533zm2.431-.777a2.412 2.412 0 0 0-3.33-.423l-.262.195-.261-.195a2.412 2.412 0 0 0-3.036 3.745l2.587 2.263a1.078 1.078 0 0 0 1.42 0l2.587-2.263a2.412 2.412 0 0 0 .295-3.322z"
        fill="currentColor"
      ></path>
    </g>
  </svg>