<svg viewBox="0 0 24 24" xmlns="http://www.w3.org/2000/svg">
    <g fill="none">
      <path
        fill-rule="evenodd"
        clip-rule="evenodd"
        d="M13.25 3.75H9.8c-.852 0-1.447 0-1.91.038-.453.037-.714.107-.911.207a2.25 2.25 0 0 0-.984.983c-.1.198-.17.459-.207.913-.037.462-.038 1.056-.038 1.909v8.4c0 .852 0 1.447.038 1.91.037.453.107.714.207.911.216.424.56.768.984.984.197.1.458.17.912.207.462.037 1.057.038 1.909.038h4.4c.853 0 1.447 0 1.91-.038.453-.038.714-.107.912-.207a2.25 2.25 0 0 0 .983-.984c.1-.197.17-.458.207-.912.037-.462.038-1.057.038-1.91V8.99 8.75h-1.08c-.535 0-.98 0-1.345-.03-.38-.03-.736-.098-1.073-.27a2.75 2.75 0 0 1-1.202-1.202c-.172-.337-.24-.693-.27-1.073-.03-.365-.03-.81-.03-1.345V3.75zm4.77 3.5a2.236 2.236 0 0 0-.102-.183c-.128-.21-.31-.399-.854-.943l-1.188-1.188c-.544-.544-.734-.726-.943-.855-.06-.036-.12-.07-.183-.1V4.8c0 .572 0 .957.025 1.253.023.287.065.424.111.514.12.236.311.427.546.547.091.046.228.088.515.111.296.024.68.025 1.253.025h.82zm-3.387-4.896c-.433-.104-.884-.104-1.536-.104H9.768c-.813 0-1.469 0-2 .043-.546.045-1.026.14-1.47.366a3.75 3.75 0 0 0-1.64 1.638c-.226.445-.32.925-.365 1.471-.043.531-.043 1.187-.043 2v8.464c0 .813 0 1.469.043 2 .045.546.14 1.026.366 1.47a3.75 3.75 0 0 0 1.639 1.64c.444.226.924.32 1.47.364.531.044 1.187.044 2 .044h4.464c.813 0 1.469 0 2-.044.546-.044 1.026-.139 1.47-.365a3.75 3.75 0 0 0 1.64-1.639c.226-.444.32-.924.365-1.47.043-.531.043-1.187.043-2V8.903c0-.652 0-1.103-.104-1.536a3.751 3.751 0 0 0-.449-1.084c-.232-.38-.551-.698-1.012-1.159l-.06-.06-1.189-1.189-.06-.06c-.46-.46-.78-.78-1.16-1.012a3.75 3.75 0 0 0-1.083-.45zM9 11.25a.75.75 0 0 0 0 1.5h6a.75.75 0 0 0 0-1.5H9zM8.25 16a.75.75 0 0 1 .75-.75h4a.75.75 0 0 1 0 1.5H9a.75.75 0 0 1-.75-.75z"
        fill="currentColor"
      ></path>
    </g>
  </svg>