<svg viewBox="0 0 24 24" xmlns="http://www.w3.org/2000/svg">
    <g fill="none">
      <path
        fill-rule="evenodd"
        clip-rule="evenodd"
        d="M2.53 1.47a.75.75 0 0 0-1.06 1.06l3 3 14 14 3 3a.75.75 0 1 0 1.06-1.06l-2.78-2.78V8.902c0-.652 0-1.103-.104-1.536a3.751 3.751 0 0 0-.449-1.084c-.232-.38-.551-.698-1.012-1.159l-.06-.06-1.189-1.188-.06-.06c-.46-.462-.78-.78-1.16-1.013a3.75 3.75 0 0 0-1.083-.45c-.433-.103-.884-.103-1.536-.103H7c-1 0-1.876.534-2.357 1.332L2.53 1.47zm15.72 7.518v8.201L5.781 4.721A1.25 1.25 0 0 1 7 3.75h6.25v1.08c0 .535 0 .98.03 1.345.03.38.098.736.27 1.074A2.75 2.75 0 0 0 14.75 8.45c.338.172.694.24 1.074.27.365.03.81.03 1.345.03h1.08v.238zm-.23-1.738a2.236 2.236 0 0 0-.102-.183c-.128-.21-.31-.398-.854-.943l-1.188-1.188c-.544-.544-.734-.726-.943-.854-.06-.037-.12-.07-.183-.101v.82c0 .572 0 .956.025 1.252.023.287.065.424.111.515.12.235.311.426.546.546.091.046.228.088.515.111.296.025.68.025 1.253.025h.82zM5.75 16.2V9a.75.75 0 0 0-1.5 0v7.232c0 .813 0 1.469.043 2 .045.546.14 1.026.366 1.47a3.75 3.75 0 0 0 1.639 1.64c.444.226.924.32 1.47.365.531.043 1.187.043 2 .043H16a.75.75 0 0 0 0-1.5H9.8c-.852 0-1.447 0-1.91-.038-.453-.038-.714-.107-.911-.207a2.25 2.25 0 0 1-.984-.983c-.1-.198-.17-.459-.207-.913-.037-.462-.038-1.057-.038-1.909z"
        fill="currentColor"
      ></path>
    </g>
  </svg>