<svg viewBox="0 0 24 24" xmlns="http://www.w3.org/2000/svg">
    <g fill="none">
      <path
        fill-rule="evenodd"
        clip-rule="evenodd"
        d="M12 2.75a9.25 9.25 0 1 0 0 18.5 9.25 9.25 0 0 0 0-18.5zM22.75 12c0 3.935-2.115 7.377-5.27 9.25H22a.75.75 0 0 1 0 1.5H12C6.063 22.75 1.25 17.937 1.25 12S6.063 1.25 12 1.25 22.75 6.063 22.75 12zm-12 0a1.25 1.25 0 1 1 2.5 0 1.25 1.25 0 0 1-2.5 0zM12 9.25a2.75 2.75 0 1 0 0 5.5 2.75 2.75 0 0 0 0-5.5zM13 6a1 1 0 1 1-2 0 1 1 0 0 1 2 0zm-7 7a1 1 0 1 0 0-2 1 1 0 0 0 0 2zm13-1a1 1 0 1 1-2 0 1 1 0 0 1 2 0zm-7 7a1 1 0 1 0 0-2 1 1 0 0 0 0 2z"
        fill="currentColor"
      ></path>
    </g>
  </svg>