<svg viewBox="0 0 24 24" xmlns="http://www.w3.org/2000/svg">
    <g fill="none">
      <path
        fill-rule="evenodd"
        clip-rule="evenodd"
        d="M7.8 2.25h-.032c-.813 0-1.469 0-2 .043-.546.045-1.026.14-1.47.366a3.75 3.75 0 0 0-1.64 1.639c-.226.444-.32.924-.365 1.47a16.49 16.49 0 0 0-.042 1.277l-.001.723v8.464a123.598 123.598 0 0 0 .002.824c.004.448.014.837.041 1.175.045.547.14 1.027.366 1.471a3.75 3.75 0 0 0 1.639 1.64c.444.226.924.32 1.47.365.531.043 1.187.043 2 .043H16.232c.813 0 1.469 0 2-.043.546-.045 1.026-.14 1.47-.366a3.75 3.75 0 0 0 1.64-1.639c.226-.444.32-.924.365-1.47a16.433 16.433 0 0 0 .042-1.277l.001-.72V7.765l-.001-.72a.758.758 0 0 0-.001-.102 16.431 16.431 0 0 0-.041-1.175c-.045-.547-.14-1.027-.366-1.471a3.75 3.75 0 0 0-1.639-1.64c-.444-.226-.924-.32-1.47-.365-.531-.043-1.187-.043-2-.043H7.8zm-4.033 15.5c.005.129.012.248.021.36.037.453.107.714.207.912.216.423.56.767.984.983.197.1.458.17.912.207.356.029.79.036 1.359.038v-2.5H3.767zm3.483-1.5h-3.5v-3.5h3.5v3.5zm1.5.75v3.25h6.5v-7.5h-6.5V17zm11.5-.8v.05h-3.5v-3.5h3.5v3.45zm-.017 1.55H16.75v2.5c.57-.002 1.003-.01 1.36-.038.453-.038.714-.107.912-.207.423-.216.767-.56.983-.983.1-.198.17-.459.207-.913.009-.111.016-.23.021-.359zm0-11.5a8.971 8.971 0 0 0-.021-.36c-.038-.453-.107-.714-.207-.911a2.25 2.25 0 0 0-.983-.984c-.198-.1-.459-.17-.913-.207a18.26 18.26 0 0 0-1.359-.037V6.25h3.483zM15.25 7V3.75h-6.5v7.5h6.5V7zm1.5.75h3.5v3.5h-3.5v-3.5zm-13 .05v-.05h3.5v3.5h-3.5V7.8zm.017-1.55H7.25v-2.5c-.57.002-1.003.01-1.36.038-.453.037-.714.107-.911.207a2.25 2.25 0 0 0-.984.984c-.1.197-.17.458-.207.912-.009.111-.016.23-.021.359z"
        fill="currentColor"
      ></path>
    </g>
  </svg>