<svg viewBox="0 0 24 24" xmlns="http://www.w3.org/2000/svg">
    <g fill="none">
      <path
        fill-rule="evenodd"
        clip-rule="evenodd"
        d="M15.575 3.75h-3.75l2.1 3.5h3.75l-2.1-3.5zM8.4 2.25H16.017c.914 0 1.657.007 2.271.057.714.058 1.317.18 1.869.46a4.75 4.75 0 0 1 2.075 2.077c.281.55.403 1.154.461 1.868.029.35.043.743.05 1.185a.762.762 0 0 1 .003.186c.004.389.004.815.004 1.282V14.633c0 1.092 0 1.958-.057 2.655-.058.714-.18 1.317-.46 1.869a4.75 4.75 0 0 1-2.076 2.075c-.552.281-1.155.403-1.869.461-.697.057-1.563.057-2.655.057H8.367c-1.092 0-1.958 0-2.655-.057-.714-.058-1.317-.18-1.868-.46a4.75 4.75 0 0 1-2.076-2.076c-.281-.552-.403-1.155-.461-1.869-.057-.697-.057-1.563-.057-2.655V9.367c0-.468 0-.895.004-1.284a.757.757 0 0 1 .003-.186c.007-.442.021-.835.05-1.185.058-.714.18-1.317.46-1.868a4.75 4.75 0 0 1 2.077-2.076c.55-.281 1.154-.403 1.868-.46.697-.058 1.563-.058 2.655-.058H8.4zm3.775 5l-2.1-3.5H8.4c-.766 0-1.381 0-1.894.016L8.44 7.25h3.734zm-4.188 1.5H21.25V14.6c0 1.133 0 1.937-.052 2.566-.05.62-.147 1.005-.302 1.31a3.25 3.25 0 0 1-1.42 1.42c-.305.155-.69.251-1.31.302-.63.052-1.433.052-2.566.052H8.4c-1.132 0-1.937 0-2.566-.052-.62-.05-1.005-.147-1.31-.302a3.25 3.25 0 0 1-1.42-1.42c-.155-.305-.251-.69-.302-1.31-.051-.63-.052-1.433-.052-2.566V9.4v-.65h5.237zm-1.262-1.5H2.776c.007-.147.015-.285.026-.416.05-.62.147-1.005.302-1.31a3.25 3.25 0 0 1 1.42-1.42c.111-.056.233-.105.372-.146l1.83 3.292zm12.7 0l-2.093-3.488c.311.007.586.02.834.04.62.05 1.005.147 1.31.302a3.25 3.25 0 0 1 1.42 1.42c.155.305.251.69.302 1.31.01.13.02.269.026.416h-1.8z"
        fill="currentColor"
      ></path>
    </g>
  </svg>