<svg viewBox="0 0 24 24" xmlns="http://www.w3.org/2000/svg">
    <g fill="none">
      <path
        fill-rule="evenodd"
        clip-rule="evenodd"
        d="M5.527 2.25h12.946c.534 0 .986 0 1.337.032.34.03.751.1 1.076.367.421.348.656.871.636 1.416-.016.421-.237.774-.44 1.049-.21.283-.51.621-.865 1.02l-.023.027-4.017 4.519c-.62.697-.852.964-1.016 1.258a3.25 3.25 0 0 0-.334.88c-.073.329-.077.683-.077 1.615V19a2.75 2.75 0 1 1-5.5 0v-4.567c0-.932-.004-1.286-.077-1.615a3.25 3.25 0 0 0-.334-.88c-.164-.294-.396-.561-1.016-1.258L3.807 6.16l-.024-.027c-.355-.399-.656-.737-.865-1.02-.203-.275-.424-.628-.44-1.049a1.75 1.75 0 0 1 .636-1.416c.325-.267.735-.337 1.076-.367.35-.032.803-.032 1.337-.032zM4.053 3.82a.25.25 0 0 0-.076.169c.009.02.041.09.147.233.164.222.418.51.804.943l4.016 4.518.057.064c.544.612.894 1.006 1.148 1.46.224.403.389.836.489 1.286.112.509.112 1.036.112 1.854V19a1.25 1.25 0 1 0 2.5 0v-4.567-.085c0-.819 0-1.346.112-1.855.1-.45.265-.883.49-1.285.253-.455.603-.85 1.147-1.46l.057-.065 4.016-4.518c.386-.434.64-.72.804-.943a1.25 1.25 0 0 0 .147-.233.25.25 0 0 0-.076-.168 1.253 1.253 0 0 0-.271-.045c-.276-.025-.659-.026-1.239-.026H5.563c-.58 0-.963 0-1.239.026-.176.015-.25.038-.271.045z"
        fill="currentColor"
      ></path>
    </g>
  </svg>