<svg viewBox="0 0 24 24" xmlns="http://www.w3.org/2000/svg">
    <g fill="none">
      <path
        fill-rule="evenodd"
        clip-rule="evenodd"
        d="M8.719 1.886A8.75 8.75 0 0 1 20.75 10a.75.75 0 0 1-1.5 0 7.25 7.25 0 0 0-9.969-6.723.75.75 0 1 1-.562-1.39zM6.224 4.415a.75.75 0 0 1 .116 1.054A7.216 7.216 0 0 0 4.75 10v4a7.253 7.253 0 0 0 4.984 6.89.75.75 0 0 1-.468 1.424A8.753 8.753 0 0 1 3.25 14v-4c0-2.069.719-3.971 1.92-5.47a.75.75 0 0 1 1.054-.115zM20 13.25a.75.75 0 0 1 .75.75 8.754 8.754 0 0 1-6.016 8.314.75.75 0 1 1-.468-1.425A7.253 7.253 0 0 0 19.25 14a.75.75 0 0 1 .75-.75zm-8-4a.75.75 0 0 1 .75.75v4a.75.75 0 0 1-1.5 0v-4a.75.75 0 0 1 .75-.75zm0-4A4.75 4.75 0 0 0 7.25 10v4a.75.75 0 0 0 1.5 0v-4A3.25 3.25 0 0 1 12 6.75a.75.75 0 0 0 0-1.5zm4.114 2.374a.75.75 0 0 0-1.298.751c.276.478.434 1.032.434 1.625v4a3.25 3.25 0 0 1-4.874 2.815.75.75 0 1 0-.752 1.299A4.75 4.75 0 0 0 16.75 14v-4c0-.864-.231-1.676-.636-2.376z"
        fill="currentColor"
      ></path>
    </g>
  </svg>