<svg viewBox="0 0 24 24" xmlns="http://www.w3.org/2000/svg">
    <g fill="none">
      <path
        fill-rule="evenodd"
        clip-rule="evenodd"
        d="M12.25 4a.75.75 0 0 1 .75-.75h7a.75.75 0 0 1 0 1.5h-7a.75.75 0 0 1-.75-.75zm-9 15a.75.75 0 0 1 .75-.75h16a.75.75 0 0 1 0 1.5H4a.75.75 0 0 1-.75-.75zM13 8.25a.75.75 0 0 0 0 1.5h7a.75.75 0 0 0 0-1.5h-7zM3.25 14a.75.75 0 0 1 .75-.75h16a.75.75 0 0 1 0 1.5H4a.75.75 0 0 1-.75-.75zm1.5-7.5a1.75 1.75 0 1 1 3.5 0 1.75 1.75 0 0 1-3.5 0zM6.5 3.25a3.25 3.25 0 1 0 0 6.5 3.25 3.25 0 0 0 0-6.5z"
        fill="currentColor"
      ></path>
    </g>
  </svg>