<svg viewBox="0 0 24 24" xmlns="http://www.w3.org/2000/svg">
    <g fill="none">
      <path
        fill-rule="evenodd"
        clip-rule="evenodd"
        d="M4.8 3.25h-.02c-.122 0-.255 0-.37.01a1.26 1.26 0 0 0-.477.126 1.25 1.25 0 0 0-.547.547c-.09.176-.116.348-.127.478a4.75 4.75 0 0 0-.009.369v3.44c0 .122 0 .255.01.37.01.13.036.3.126.478.12.235.311.426.547.546.176.09.348.116.478.127.114.01.247.01.369.01h3.44c.122 0 .255 0 .37-.01.13-.01.3-.037.477-.127a1.25 1.25 0 0 0 .547-.546 1.26 1.26 0 0 0 .127-.478c.01-.115.009-.248.009-.37V4.78c0-.122 0-.255-.01-.37a1.259 1.259 0 0 0-.126-.477 1.25 1.25 0 0 0-.547-.547 1.26 1.26 0 0 0-.478-.127 4.75 4.75 0 0 0-.369-.009H4.8zM4.75 4.8v-.05H8.25V8.25H4.75V4.8zm7.5-.8a.75.75 0 0 1 .75-.75h7a.75.75 0 0 1 0 1.5h-7a.75.75 0 0 1-.75-.75zm-9 15a.75.75 0 0 1 .75-.75h16a.75.75 0 0 1 0 1.5H4a.75.75 0 0 1-.75-.75zM13 8.25a.75.75 0 0 0 0 1.5h7a.75.75 0 0 0 0-1.5h-7zM3.25 14a.75.75 0 0 1 .75-.75h16a.75.75 0 0 1 0 1.5H4a.75.75 0 0 1-.75-.75z"
        fill="currentColor"
      ></path>
    </g>
  </svg>