<svg viewBox="0 0 24 24" xmlns="http://www.w3.org/2000/svg">
    <g fill="none">
      <path
        fill-rule="evenodd"
        clip-rule="evenodd"
        d="M5 1.25a.75.75 0 0 1 .75.75v1.085l1.74-.348a6.983 6.983 0 0 1 4.962.86 5.483 5.483 0 0 0 5.273.202l.94-.47A.75.75 0 0 1 19.75 4v10a.75.75 0 0 1-.415.67l-.94.47a6.983 6.983 0 0 1-6.715-.257 5.483 5.483 0 0 0-3.896-.675l-2.034.407V22a.75.75 0 0 1-1.5 0V2A.75.75 0 0 1 5 1.25zm.75 11.835l1.74-.348a6.983 6.983 0 0 1 4.962.86 5.483 5.483 0 0 0 5.273.202l.525-.262V5.21a6.983 6.983 0 0 1-6.57-.328 5.483 5.483 0 0 0-3.896-.675l-2.034.407v8.47z"
        fill="currentColor"
      ></path>
    </g>
  </svg>