<svg viewBox="0 0 24 24" xmlns="http://www.w3.org/2000/svg">
    <g fill="none">
      <path
        fill-rule="evenodd"
        clip-rule="evenodd"
        d="M6 1.25a.75.75 0 0 1 .75.75v1.471l9.971 3.562.034.012c.527.188.97.346 1.302.5.318.146.695.355.912.728.28.48.315 1.063.095 1.573-.17.396-.52.65-.818.833-.31.192-.731.402-1.232.652l-.032.017L6.75 16.463V22a.75.75 0 0 1-1.5 0V2A.75.75 0 0 1 6 1.25zm.75 13.537l9.561-4.781c.541-.27.901-.451 1.148-.604.16-.098.219-.154.235-.17a.25.25 0 0 0-.01-.185 1.328 1.328 0 0 0-.255-.14c-.263-.122-.642-.258-1.212-.462L6.75 5.065v9.721z"
        fill="currentColor"
      ></path>
    </g>
  </svg>