<svg viewBox="0 0 24 24" xmlns="http://www.w3.org/2000/svg">
    <g fill="none">
      <path
        fill-rule="evenodd"
        clip-rule="evenodd"
        d="M12.386 5.64a1.25 1.25 0 0 0-.772 0c-.097.031-.224.098-.443.285-.226.192-.499.463-.903.868l-4.344 4.343c-.602.603-1.022 1.024-1.322 1.378-.295.347-.43.58-.5.79a2.25 2.25 0 0 0 0 1.391c.07.211.205.444.5.791.3.354.72.775 1.322 1.378l1.212 1.212c.603.602 1.024 1.022 1.378 1.322.347.295.58.43.79.5.453.146.94.146 1.391 0 .211-.07.444-.205.792-.5.354-.3.774-.72 1.377-1.322l4.343-4.344c.405-.404.676-.676.868-.903.187-.22.254-.346.285-.443a1.25 1.25 0 0 0 0-.772c-.031-.097-.098-.224-.285-.443-.192-.227-.463-.499-.868-.903l-3.475-3.475c-.404-.405-.676-.676-.903-.868-.22-.187-.346-.254-.443-.285zM11.15 4.213a2.75 2.75 0 0 1 1.7 0c.36.117.66.322.95.568l.164.144 1.758-1.758.02-.02c.28-.28.521-.521.736-.704.227-.192.473-.363.776-.462a2.25 2.25 0 0 1 1.391 0c.303.099.55.27.776.462.215.183.456.424.736.703l.02.02.656.657.02.02c.28.28.521.521.704.736.192.227.363.473.462.776a2.25 2.25 0 0 1 0 1.39c-.099.303-.27.55-.462.777-.182.214-.424.456-.703.735l-.02.02-1.76 1.76c.051.055.1.11.145.163.246.29.451.59.568.95a2.75 2.75 0 0 1 0 1.7c-.117.36-.322.66-.568.95-.237.279-.552.594-.93.971l-.021.022-4.344 4.343-.022.023c-.575.575-1.039 1.038-1.445 1.383-.418.355-.824.628-1.298.782a3.75 3.75 0 0 1-2.318 0c-.474-.154-.88-.427-1.298-.782-.406-.345-.87-.808-1.445-1.383l-.022-.023-1.212-1.212-.023-.022c-.575-.575-1.038-1.039-1.383-1.445-.355-.418-.628-.824-.782-1.298a3.75 3.75 0 0 1 0-2.318c.154-.474.427-.88.782-1.298.345-.406.808-.87 1.383-1.445l.023-.022 4.343-4.344.022-.021c.377-.378.692-.693.971-.93.29-.246.59-.451.95-.568zm6.875 4.751l1.748-1.747c.305-.306.502-.504.64-.666.133-.156.166-.23.179-.269a.75.75 0 0 0 0-.464c-.013-.04-.046-.112-.179-.268-.138-.163-.335-.36-.64-.666l-.657-.657a12.738 12.738 0 0 0-.666-.64c-.155-.133-.229-.166-.268-.179a.75.75 0 0 0-.464 0c-.04.013-.113.046-.269.179-.162.138-.36.335-.666.64l-1.747 1.748 2.99 2.99zM6.47 13.47a.75.75 0 0 1 1.06 0l3 3a.75.75 0 1 1-1.06 1.06l-3-3a.75.75 0 0 1 0-1.06z"
        fill="currentColor"
      ></path>
    </g>
  </svg>