<svg viewBox="0 0 24 24" xmlns="http://www.w3.org/2000/svg">
    <g fill="none">
      <path fill-rule="evenodd"
            clip-rule="evenodd"
            d="M9.25 5a2.75 2.75 0 1 1 3.501 2.646c.002.41.009.734.029 1.007.029.393.083.624.162.803.203.46.555.84 1 1.077.172.092.399.163.79.22.398.06.91.098 1.645.152l.233.018.03.002c.758.056 1.37.101 1.866.178.51.079.957.198 1.367.434a3.75 3.75 0 0 1 1.505 1.621c.206.426.292.88.332 1.396.039.483.04 1.074.04 1.8a2.751 2.751 0 1 1-1.5 0c0-.742-.002-1.268-.035-1.682-.033-.424-.096-.672-.188-.863a2.25 2.25 0 0 0-.903-.972c-.184-.106-.426-.187-.847-.252-.43-.066-.983-.107-1.778-.166l-.233-.018-.028-.002c-.7-.052-1.267-.094-1.727-.162-.473-.07-.889-.175-1.275-.38a3.754 3.754 0 0 1-.486-.31v4.806a2.751 2.751 0 1 1-1.5 0v-4.806a3.754 3.754 0 0 1-.486.31c-.386.205-.801.31-1.275.38-.46.068-1.026.11-1.727.162l-.028.002-.233.018c-.795.059-1.348.1-1.778.166-.421.065-.663.146-.847.252a2.25 2.25 0 0 0-.903.972c-.092.191-.155.439-.188.863-.033.414-.035.94-.035 1.681a2.751 2.751 0 1 1-1.5 0c0-.725.001-1.316.04-1.8.04-.515.126-.969.332-1.395a3.75 3.75 0 0 1 1.505-1.62c.41-.237.856-.356 1.367-.435.496-.076 1.108-.122 1.865-.178l.031-.002.233-.018c.736-.054 1.247-.092 1.646-.151.39-.058.617-.129.79-.221a2.25 2.25 0 0 0 1-1.077c.078-.179.132-.41.161-.803.02-.273.027-.597.029-1.007A2.751 2.751 0 0 1 9.25 5zm10.5 14a1.25 1.25 0 1 1 2.5 0 1.25 1.25 0 0 1-2.5 0zM12 17.75a1.25 1.25 0 1 0 0 2.5 1.25 1.25 0 0 0 0-2.5zM13.25 5a1.25 1.25 0 1 1-2.5 0 1.25 1.25 0 0 1 2.5 0zM3 17.75a1.25 1.25 0 1 0 0 2.5 1.25 1.25 0 0 0 0-2.5z"
            fill="currentColor"
      ></path>
    </g>
  </svg>