<svg viewBox="0 0 24 24" xmlns="http://www.w3.org/2000/svg">
    <g fill="none">
      <path
        fill-rule="evenodd"
        clip-rule="evenodd"
        d="M5.884 2.25h2.213c.652 0 1.103 0 1.536.104a3.75 3.75 0 0 1 1.084.449c.38.232.698.551 1.159 1.012l.06.06.188.189c.544.544.733.726.943.854.201.124.42.215.65.27.24.057.502.062 1.271.062h2.244c.813 0 1.469 0 2 .043.546.045 1.026.14 1.47.366a3.75 3.75 0 0 1 1.64 1.638c.226.445.32.925.365 1.471.043.531.043 1.187.043 2v4.464c0 .813 0 1.469-.043 2-.045.546-.14 1.026-.366 1.47a3.75 3.75 0 0 1-1.639 1.64c-.444.226-.924.32-1.47.365-.531.043-1.187.043-2 .043H6.768c-.813 0-1.469 0-2-.043-.546-.045-1.026-.14-1.47-.366a3.75 3.75 0 0 1-1.64-1.639c-.226-.444-.32-.924-.365-1.47-.043-.531-.043-1.187-.043-2V6.884c0-.818 0-1.376.128-1.855a3.75 3.75 0 0 1 2.651-2.651c.48-.129 1.037-.128 1.855-.128zM6 3.75c-.978 0-1.32.006-1.582.077a2.25 2.25 0 0 0-1.591 1.59c-.07.263-.077.605-.077 1.583v8.2c0 .852 0 1.447.038 1.91.037.453.107.714.207.911.216.424.56.768.984.984.197.1.458.17.912.207.462.037 1.057.038 1.909.038h10.4c.852 0 1.447 0 1.91-.038.453-.038.714-.107.912-.207a2.25 2.25 0 0 0 .983-.984c.1-.197.17-.458.207-.912.037-.462.038-1.057.038-1.91v-4.4c0-.852 0-1.446-.038-1.908-.038-.454-.107-.715-.207-.913a2.25 2.25 0 0 0-.983-.983c-.198-.1-.459-.17-.913-.207-.462-.037-1.057-.038-1.909-.038h-2.297c-.652 0-1.103 0-1.536-.104a3.75 3.75 0 0 1-1.084-.449c-.38-.232-.698-.551-1.159-1.012l-.06-.06-.188-.189c-.545-.544-.734-.726-.943-.855a2.25 2.25 0 0 0-.65-.269c-.24-.057-.502-.062-1.271-.062H6zm5 9.5a1.25 1.25 0 1 0 0 2.5 1.25 1.25 0 0 0 0-2.5zm1.25-1.2a2.75 2.75 0 1 0 1.5 2.45v-3.69l.72.72a.75.75 0 0 0 1.06-1.06l-2-2a.75.75 0 0 0-1.28.53v3.05z"
        fill="currentColor"
      ></path>
    </g>
  </svg>