<svg viewBox="0 0 24 24" xmlns="http://www.w3.org/2000/svg">
    <g fill="none">
      <path
        fill-rule="evenodd"
        clip-rule="evenodd"
        d="M6 2.25h-.116c-.818 0-1.376 0-1.855.128a3.75 3.75 0 0 0-2.651 2.651c-.129.479-.128 1.037-.128 1.855V15.232c0 .813 0 1.468.043 2 .045.546.14 1.026.366 1.47a3.75 3.75 0 0 0 1.638 1.64c.445.225.925.32 1.471.364A16.426 16.426 0 0 0 6 20.75h12c.03 0 .06-.002.088-.005.25-.005.476-.013.681-.028.466-.035.878-.108 1.273-.28a3.751 3.751 0 0 0 1.573-1.29c.247-.354.4-.744.525-1.194.121-.435.229-.973.361-1.637l.006-.028.463-2.313.006-.033c.126-.628.23-1.147.277-1.572.048-.439.048-.86-.094-1.27a2.75 2.75 0 0 0-1.207-1.472c-.368-.215-.773-.3-1.204-.339-.007-.511-.031-.907-.126-1.26a3.75 3.75 0 0 0-2.651-2.651c-.48-.129-1.037-.128-1.855-.128h-3.128c-.77 0-1.032-.005-1.27-.062a2.25 2.25 0 0 1-.651-.27c-.21-.128-.399-.31-.943-.854l-.351-.352-.042-.042c-.318-.318-.537-.537-.787-.716a3.75 3.75 0 0 0-1.58-.655c-.302-.05-.613-.05-1.062-.05H6zm13.246 7c-.006-.435-.025-.653-.073-.833a2.25 2.25 0 0 0-1.59-1.59c-.263-.07-.605-.077-1.583-.077h-3.097c-.652 0-1.103 0-1.536-.104a3.75 3.75 0 0 1-1.084-.449c-.38-.232-.698-.551-1.159-1.012l-.06-.06-.352-.352c-.375-.375-.505-.502-.642-.6a2.25 2.25 0 0 0-.948-.393c-.167-.028-.349-.03-.88-.03H6c-.978 0-1.32.006-1.582.076a2.25 2.25 0 0 0-1.591 1.591c-.07.263-.077.605-.077 1.583v8.2c0 .852 0 1.447.038 1.91.037.453.106.714.207.911.216.424.56.768.983.984.198.1.459.17.913.206.15.013.314.021.496.027l1.106-5.526.005-.028c.133-.664.24-1.202.362-1.637.125-.45.278-.84.524-1.194a3.75 3.75 0 0 1 1.574-1.29c.395-.172.807-.245 1.273-.28.45-.033.999-.033 1.675-.033H19.246zm-1.826 10H6.915l1.049-5.244c.14-.698.236-1.182.34-1.557.103-.365.198-.576.31-.737a2.25 2.25 0 0 1 .944-.774c.18-.078.405-.13.784-.159.388-.028.881-.029 1.593-.029h7.161c.683 0 1.146 0 1.499.031.346.03.503.085.598.14.256.152.451.389.548.67.037.104.06.268.02.614-.038.352-.128.806-.262 1.476l-.463 2.313c-.14.698-.237 1.182-.341 1.557-.102.366-.198.576-.31.737a2.25 2.25 0 0 1-.944.774c-.179.078-.404.13-.783.159-.32.023-.712.028-1.238.029z"
        fill="currentColor"
      ></path>
    </g>
  </svg>