<svg viewBox="0 0 24 24" xmlns="http://www.w3.org/2000/svg">
    <g fill="none">
      <path
        fill-rule="evenodd"
        clip-rule="evenodd"
        d="M22.53 1.47a.75.75 0 0 1 0 1.06l-2.795 2.796c.08.014.16.031.235.052a3.75 3.75 0 0 1 2.652 2.652c.128.478.128 1.036.128 1.854v5.348c0 .813 0 1.468-.043 2-.045.546-.14 1.026-.366 1.47a3.75 3.75 0 0 1-1.639 1.64c-.444.226-.924.32-1.47.364-.531.044-1.187.044-2 .044H4.31l-1.78 1.78a.75.75 0 0 1-1.06-1.06l20-20a.75.75 0 0 1 1.06 0zM5.81 19.25H17.2c.852 0 1.447 0 1.91-.038.453-.038.714-.107.912-.207a2.25 2.25 0 0 0 .983-.984c.1-.197.17-.458.207-.912.037-.462.038-1.057.038-1.91V10c0-.977-.006-1.32-.077-1.581a2.25 2.25 0 0 0-1.59-1.591c-.233-.063-.528-.075-1.273-.077l-12.5 12.5zm.074-17h2.213c.652 0 1.103 0 1.536.103a3.75 3.75 0 0 1 1.084.45c.38.232.698.551 1.159 1.012l.06.06L13.53 5.47a.75.75 0 0 1-1.06 1.06l-1.594-1.594c-.544-.544-.734-.726-.943-.855a2.25 2.25 0 0 0-.65-.269c-.24-.057-.502-.062-1.271-.062H6c-.978 0-1.32.006-1.582.077a2.25 2.25 0 0 0-1.591 1.59c-.07.263-.077.605-.077 1.583v10a.75.75 0 0 1-1.5 0V7v-.116c0-.818 0-1.376.128-1.855a3.75 3.75 0 0 1 2.651-2.651c.48-.129 1.037-.128 1.855-.128z"
        fill="currentColor"
      ></path>
    </g>
  </svg>