<svg viewBox="0 0 24 24" xmlns="http://www.w3.org/2000/svg">
    <g fill="none">
      <path
        fill-rule="evenodd"
        clip-rule="evenodd"
        d="M6 2.25h-.116c-.818 0-1.376 0-1.855.128a3.75 3.75 0 0 0-2.651 2.651c-.128.479-.128 1.037-.128 1.855V15.232c0 .813 0 1.469.043 2 .045.546.14 1.026.366 1.47a3.75 3.75 0 0 0 1.639 1.64c.444.226.924.32 1.47.365.531.043 1.187.043 2 .043h10.464c.813 0 1.469 0 2-.043.546-.045 1.026-.14 1.47-.366a3.75 3.75 0 0 0 1.64-1.639c.226-.444.32-.924.365-1.47.043-.531.043-1.187.043-2v-4.464c0-.813 0-1.469-.043-2-.045-.546-.14-1.026-.366-1.47a3.75 3.75 0 0 0-1.639-1.64c-.444-.226-.924-.32-1.47-.365-.531-.043-1.187-.043-2-.043h-2.244c-.77 0-1.032-.005-1.27-.062a2.25 2.25 0 0 1-.651-.27c-.21-.128-.399-.31-.943-.854l-.188-.189-.06-.06c-.46-.46-.78-.78-1.16-1.012a3.75 3.75 0 0 0-1.083-.45C9.2 2.25 8.749 2.25 8.097 2.25H6zM4.418 3.827c.262-.07.604-.077 1.582-.077h2.012c.77 0 1.032.005 1.27.062.23.055.45.146.651.27.21.128.398.31.943.854l.188.188.06.06c.46.462.78.78 1.16 1.013a3.75 3.75 0 0 0 1.083.45c.433.103.884.103 1.536.103H17.2c.852 0 1.447 0 1.91.038.453.037.714.107.912.207.423.216.767.56.983.983.1.198.17.459.207.913.037.462.038 1.056.038 1.909v4.4c0 .852 0 1.447-.038 1.91-.038.453-.107.714-.207.911a2.25 2.25 0 0 1-.983.984c-.198.1-.459.17-.913.207-.462.037-1.057.038-1.909.038H6.8c-.852 0-1.447 0-1.91-.038-.453-.038-.714-.107-.911-.207a2.25 2.25 0 0 1-.984-.984c-.1-.197-.17-.458-.207-.912-.037-.462-.038-1.057-.038-1.91V7c0-.977.006-1.32.077-1.581a2.25 2.25 0 0 1 1.59-1.591zM16.03 11.03a.75.75 0 0 0-1.06-1.06L11 13.94l-1.47-1.47a.75.75 0 1 0-1.06 1.06l2 2a.75.75 0 0 0 1.06 0l4.5-4.5z"
        fill="currentColor"
      ></path>
    </g>
  </svg>