<svg viewBox="0 0 24 24" xmlns="http://www.w3.org/2000/svg">
    <g fill="none">
      <path
        fill-rule="evenodd"
        clip-rule="evenodd"
        d="M6 2.25h-.116c-.818 0-1.376 0-1.855.128a3.75 3.75 0 0 0-2.651 2.651c-.128.479-.128 1.037-.128 1.855V15.232c0 .813 0 1.469.043 2 .045.546.14 1.026.366 1.47a3.75 3.75 0 0 0 1.639 1.64c.444.226.924.32 1.47.365.531.043 1.187.043 2 .043H17.232c.813 0 1.469 0 2-.043.546-.045 1.026-.14 1.47-.366a3.75 3.75 0 0 0 1.64-1.639c.226-.444.32-.924.365-1.47.043-.531.043-1.187.043-2v-4.464c0-.813 0-1.469-.043-2-.045-.546-.14-1.026-.366-1.47a3.75 3.75 0 0 0-1.639-1.64c-.444-.226-.924-.32-1.47-.365A16.493 16.493 0 0 0 18 5.25H14.988c-.77 0-1.032-.005-1.27-.062a2.25 2.25 0 0 1-.651-.27c-.21-.128-.399-.31-.943-.854l-.188-.189-.06-.06c-.46-.46-.78-.78-1.16-1.012a3.75 3.75 0 0 0-1.083-.45C9.2 2.25 8.749 2.25 8.097 2.25H6zm7.25 4.366a3.749 3.749 0 0 1-.967-.419c-.38-.232-.698-.551-1.159-1.012l-.06-.06-.188-.189c-.545-.544-.734-.726-.943-.855a2.25 2.25 0 0 0-.65-.269c-.24-.057-.502-.062-1.271-.062H6c-.978 0-1.32.006-1.582.077a2.25 2.25 0 0 0-1.591 1.59c-.07.263-.077.605-.077 1.583v8.2c0 .852 0 1.447.038 1.91.037.453.107.714.207.911.216.424.56.768.984.984.197.1.458.17.912.207.462.037 1.057.038 1.909.038H17.2c.852 0 1.447 0 1.91-.038.453-.038.714-.107.912-.207a2.25 2.25 0 0 0 .983-.984c.1-.197.17-.458.207-.912.037-.462.038-1.057.038-1.91v-4.4c0-.852 0-1.446-.038-1.908-.038-.454-.107-.715-.207-.913a2.25 2.25 0 0 0-.983-.983c-.198-.1-.459-.17-.913-.207a8.946 8.946 0 0 0-.36-.021V7a2.75 2.75 0 1 1-5.5 0v-.384zm1.5.384v-.25h2.5V7a1.25 1.25 0 1 1-2.5 0zM16 11.25a.75.75 0 0 1 .75.75v1a.75.75 0 1 1-1.5 0v-1a.75.75 0 0 1 .75-.75zm.75 4.75a.75.75 0 1 0-1.5 0v1a.75.75 0 0 0 1.5 0v-1z"
        fill="currentColor"
      ></path>
    </g>
  </svg>