<svg viewBox="0 0 24 24" xmlns="http://www.w3.org/2000/svg">
    <g fill="none">
      <path
        fill-rule="evenodd"
        clip-rule="evenodd"
        d="M13.53 4.47a.75.75 0 1 0-1.06 1.06l3.72 3.72H8.767c-.813 0-1.469 0-2 .043-.546.045-1.026.14-1.47.366a3.75 3.75 0 0 0-1.64 1.638c-.226.445-.32.925-.365 1.471-.043.531-.043 1.187-.043 2V17a.75.75 0 0 0 1.5 0v-2.2c0-.853 0-1.447.038-1.91.037-.453.107-.714.207-.912a2.25 2.25 0 0 1 .984-.983c.197-.1.458-.17.912-.207.462-.037 1.057-.038 1.909-.038h7.39l-3.72 3.72a.75.75 0 1 0 1.06 1.06l5-5a.75.75 0 0 0 0-1.06l-5-5zm4 0a.75.75 0 1 0-1.06 1.06L20.94 10l-4.47 4.47a.75.75 0 1 0 1.06 1.06l5-5a.75.75 0 0 0 0-1.06l-5-5z"
        fill="currentColor"
      ></path>
    </g>
  </svg>