<svg viewBox="0 0 24 24" xmlns="http://www.w3.org/2000/svg">
    <g fill="none">
      <path
        fill-rule="evenodd"
        clip-rule="evenodd"
        d="M14.47 4.47a.75.75 0 0 1 1.06 0l5 5a.75.75 0 0 1 0 1.06l-5 5a.75.75 0 1 1-1.06-1.06l3.72-3.72H10.4c-1.132 0-1.937 0-2.566.052-.62.05-1.005.147-1.31.302a3.25 3.25 0 0 0-1.42 1.42c-.155.305-.251.69-.302 1.31-.051.63-.052 1.434-.052 2.566v.6a.75.75 0 0 1-1.5 0v-.633c0-1.092 0-1.958.057-2.655.058-.714.18-1.317.46-1.868a4.75 4.75 0 0 1 2.077-2.076c.55-.281 1.154-.403 1.868-.461.697-.057 1.563-.057 2.655-.057h7.823l-3.72-3.72a.75.75 0 0 1 0-1.06z"
        fill="currentColor"
      ></path>
    </g>
  </svg>