<svg viewBox="0 0 24 24" xmlns="http://www.w3.org/2000/svg">
    <g fill="none">
      <path
        fill-rule="evenodd"
        clip-rule="evenodd"
        d="M9.4 2.25h-.033c-1.092 0-1.958 0-2.655.057-.714.058-1.317.18-1.869.46a4.75 4.75 0 0 0-2.075 2.077c-.281.55-.403 1.154-.461 1.868-.057.697-.057 1.563-.057 2.655V14.633c0 1.092 0 1.958.057 2.655.058.714.18 1.317.46 1.869a4.75 4.75 0 0 0 2.076 2.075c.552.281 1.155.403 1.869.461.697.057 1.563.057 2.655.057H14.633c1.092 0 1.958 0 2.655-.057.714-.058 1.317-.18 1.868-.46a4.75 4.75 0 0 0 2.076-2.076c.281-.552.403-1.155.461-1.869.057-.697.057-1.563.057-2.655V9.367c0-1.092 0-1.958-.057-2.655-.058-.714-.18-1.317-.46-1.868a4.75 4.75 0 0 0-2.077-2.076c-.55-.281-1.154-.403-1.868-.461-.697-.057-1.563-.057-2.655-.057H9.4zM5.524 4.104c.305-.155.69-.251 1.31-.302.63-.051 1.433-.052 2.566-.052h5.2c1.132 0 1.937 0 2.566.052.62.05 1.005.147 1.31.302a3.25 3.25 0 0 1 1.42 1.42c.155.305.251.69.302 1.31.051.63.052 1.434.052 2.566v5.2c0 1.133 0 1.937-.052 2.566-.05.62-.147 1.005-.302 1.31a3.25 3.25 0 0 1-1.42 1.42c-.305.155-.69.251-1.31.302-.63.051-1.434.052-2.566.052H9.4c-1.133 0-1.937 0-2.566-.052-.62-.05-1.005-.147-1.31-.302a3.25 3.25 0 0 1-1.42-1.42c-.155-.305-.251-.69-.302-1.31-.051-.63-.052-1.434-.052-2.566V9.4c0-1.132 0-1.937.052-2.566.05-.62.147-1.005.302-1.31a3.25 3.25 0 0 1 1.42-1.42zM9.2 5.25h-.03c-.535 0-.98 0-1.345.03-.38.03-.736.098-1.074.27A2.75 2.75 0 0 0 5.55 6.752c-.172.337-.24.693-.27 1.073-.03.365-.03.81-.03 1.345v5.66c0 .535 0 .98.03 1.345.03.38.098.736.27 1.073A2.75 2.75 0 0 0 6.75 18.45c.338.172.694.24 1.074.27.364.03.81.03 1.344.03h5.661c.535 0 .98 0 1.345-.03.38-.03.736-.098 1.073-.27a2.75 2.75 0 0 0 1.202-1.201c.172-.338.24-.694.27-1.074.03-.365.03-.81.03-1.345V9.17c0-.535 0-.98-.03-1.345-.03-.38-.098-.736-.27-1.073a2.75 2.75 0 0 0-1.202-1.202c-.337-.172-.694-.24-1.073-.27-.365-.03-.81-.03-1.345-.03H9.2zM7.432 6.886c.091-.046.228-.088.515-.111.296-.024.68-.025 1.253-.025h5.6c.572 0 .957 0 1.252.025.288.023.425.065.515.111.236.12.427.311.547.547.046.09.088.227.111.514.024.296.025.68.025 1.253v5.6c0 .572 0 .957-.025 1.252-.023.288-.065.425-.111.515a1.25 1.25 0 0 1-.547.547c-.09.046-.227.088-.515.111-.295.024-.68.025-1.252.025H9.2c-.572 0-.957 0-1.253-.025-.287-.023-.424-.065-.515-.111a1.25 1.25 0 0 1-.546-.547c-.046-.09-.088-.227-.111-.515-.024-.295-.025-.68-.025-1.252V9.2c0-.572 0-.957.025-1.253.023-.287.065-.424.111-.514a1.25 1.25 0 0 1 .546-.547z"
        fill="currentColor"
      ></path>
    </g>
  </svg>