<svg viewBox="0 0 24 24" xmlns="http://www.w3.org/2000/svg">
    <g fill="none">
      <path
        fill-rule="evenodd"
        clip-rule="evenodd"
        d="M13.524 2.768a12.747 12.747 0 0 0-.924-.018h-1.2c-.432 0-.712 0-.924.018-.204.017-.28.045-.317.064a.75.75 0 0 0-.327.328c-.02.037-.047.112-.064.316-.017.212-.018.492-.018.924v1.606c0 .402.005.482.02.548a.75.75 0 0 0 .09.217c.036.058.089.117.373.402L12 8.939l1.767-1.766c.284-.285.337-.344.373-.402a.751.751 0 0 0 .09-.217c.015-.066.02-.146.02-.548V4.4c0-.432 0-.712-.018-.924-.017-.204-.045-.28-.064-.316a.75.75 0 0 0-.327-.328c-.038-.02-.113-.047-.317-.064zm.122-1.495c.297.024.592.078.875.222.424.216.768.56.984.984.144.283.198.578.222.875.023.28.023.622.023 1.017v1.697c0 .306 0 .575-.062.836-.055.23-.146.449-.27.65-.14.23-.33.42-.546.635l-.045.044-2.297 2.297a.75.75 0 0 1-1.06 0L9.173 8.233l-.045-.044c-.216-.215-.406-.406-.546-.635a2.25 2.25 0 0 1-.27-.65c-.063-.261-.062-.53-.062-.836V4.371c0-.395 0-.736.023-1.017.024-.297.078-.592.222-.875a2.25 2.25 0 0 1 .984-.984c.283-.144.578-.198.875-.222.28-.023.622-.023 1.017-.023H12.63c.395 0 .736 0 1.017.023zM6.006 9.75c.402 0 .482.005.548.02a.75.75 0 0 1 .217.09c.058.036.117.089.402.373L8.939 12l-1.766 1.767c-.285.284-.344.337-.402.373a.751.751 0 0 1-.217.09c-.066.015-.146.02-.548.02H4.4c-.432 0-.712 0-.924-.018-.204-.017-.28-.045-.316-.064a.75.75 0 0 1-.328-.327c-.02-.038-.047-.113-.064-.317a12.747 12.747 0 0 1-.018-.924v-1.2c0-.432 0-.712.018-.924.017-.204.045-.28.064-.317a.75.75 0 0 1 .328-.327c.037-.02.112-.047.316-.064.212-.017.492-.018.924-.018h1.606zm.898-1.438c-.261-.063-.53-.062-.836-.062H4.371c-.395 0-.736 0-1.017.023-.297.024-.592.078-.875.222a2.25 2.25 0 0 0-.984.984c-.144.283-.198.578-.222.875-.023.28-.023.622-.023 1.017V12.63c0 .395 0 .736.023 1.017.024.297.078.592.222.875.216.424.56.768.984.984.283.144.578.198.875.222.28.023.622.023 1.017.023h1.697c.306 0 .575 0 .836-.062.23-.055.449-.146.65-.27.23-.14.42-.33.635-.546l.044-.045 2.297-2.297a.75.75 0 0 0 0-1.06L8.233 9.173l-.044-.045c-.215-.216-.406-.406-.635-.546a2.25 2.25 0 0 0-.65-.27zm11.09-.062h-.062c-.305 0-.575 0-.836.062a2.25 2.25 0 0 0-.65.27c-.23.14-.42.33-.635.546l-.044.045-2.297 2.297a.75.75 0 0 0 0 1.06l2.297 2.297.044.045c.215.216.405.406.635.546.201.124.42.215.65.27.261.063.53.062.836.062h1.697c.395 0 .736 0 1.017-.023.297-.024.592-.078.875-.222.424-.216.768-.56.984-.984.144-.283.198-.578.222-.875.023-.28.023-.622.023-1.017V11.37c0-.395 0-.736-.023-1.017-.024-.297-.078-.592-.222-.875a2.25 2.25 0 0 0-.983-.984c-.284-.144-.58-.198-.876-.222-.28-.023-.622-.023-1.017-.023h-1.635zm-.548 1.52c.066-.015.145-.02.548-.02H19.6c.432 0 .712 0 .924.018.204.017.28.045.316.064a.75.75 0 0 1 .328.327c.02.038.047.113.064.317.017.212.018.492.018.924v1.2c0 .432 0 .712-.018.924-.017.204-.045.28-.064.317a.751.751 0 0 1-.328.327c-.037.02-.112.047-.316.064-.212.017-.492.018-.924.018h-1.606c-.402 0-.482-.005-.548-.02a.753.753 0 0 1-.217-.09c-.058-.036-.117-.089-.402-.373L15.061 12l1.766-1.767c.285-.284.344-.337.402-.372a.751.751 0 0 1 .217-.09zm-4.916 3.7a.75.75 0 0 0-1.06 0l-2.297 2.297-.045.044c-.216.215-.406.405-.546.635a2.25 2.25 0 0 0-.27.65c-.063.261-.062.53-.062.836v1.697c0 .395 0 .736.023 1.017.024.297.078.592.222.875.216.424.56.768.984.984.283.144.578.198.875.222.28.023.622.023 1.017.023H12.63c.395 0 .736 0 1.017-.023.297-.024.592-.078.875-.222.424-.216.768-.56.984-.983.144-.284.198-.58.222-.876.023-.28.023-.622.023-1.017v-1.697c0-.305 0-.575-.062-.836a2.248 2.248 0 0 0-.27-.65c-.14-.23-.33-.42-.546-.635l-.045-.044-2.297-2.297zm-2.297 3.357L12 15.061l1.767 1.766c.284.285.337.344.373.402.04.068.07.14.09.217.015.066.02.145.02.548V19.6c0 .432 0 .712-.018.924-.017.204-.045.28-.064.316a.751.751 0 0 1-.327.328c-.038.02-.113.047-.317.064-.212.017-.492.018-.924.018h-1.2c-.432 0-.712 0-.924-.018-.204-.017-.28-.045-.317-.064a.75.75 0 0 1-.327-.328c-.02-.037-.047-.112-.064-.316a12.747 12.747 0 0 1-.018-.924v-1.606c0-.402.005-.482.02-.548a.751.751 0 0 1 .09-.217c.036-.058.089-.117.373-.402z"
        fill="currentColor"
      ></path>
    </g>
  </svg>