<svg
   
   
    viewBox="0 0 24 24"
    fill="none"
    xmlns="http://www.w3.org/2000/svg"
  >
    <path
      fill-rule="evenodd"
      clip-rule="evenodd"
      d="M8.4 2.25H8.367H8.36699C7.27485 2.24999 6.40935 2.24999 5.71173 2.30699C4.99835 2.36527 4.39472 2.48688 3.84355 2.76772C2.94978 3.22312 2.22312 3.94978 1.76772 4.84355C1.48688 5.39472 1.36527 5.99835 1.30699 6.71173C1.24999 7.40936 1.24999 8.27486 1.25 9.367V9.4V14.6V14.633C1.24999 15.7251 1.24999 16.5906 1.30699 17.2883C1.36527 18.0017 1.48688 18.6053 1.76772 19.1565C2.22312 20.0502 2.94978 20.7769 3.84355 21.2323C4.39472 21.5131 4.99835 21.6347 5.71173 21.693C6.40935 21.75 7.27484 21.75 8.36698 21.75H8.4H15.6H15.633C16.7252 21.75 17.5906 21.75 18.2883 21.693C19.0017 21.6347 19.6053 21.5131 20.1565 21.2323C21.0502 20.7769 21.7769 20.0502 22.2323 19.1565C22.5131 18.6053 22.6347 18.0017 22.693 17.2883C22.75 16.5906 22.75 15.7252 22.75 14.633V14.6V9.4V9.36698C22.75 8.27485 22.75 7.40935 22.693 6.71173C22.6347 5.99835 22.5131 5.39472 22.2323 4.84355C21.7769 3.94978 21.0502 3.22312 20.1565 2.76772C19.6053 2.48688 19.0017 2.36527 18.2883 2.30699C17.5906 2.24999 16.7252 2.24999 15.633 2.25H15.633H15.6H8.4ZM4.52453 4.10423C4.829 3.94909 5.21325 3.85271 5.83388 3.80201C6.46327 3.75058 7.26752 3.75 8.4 3.75H15.6C16.7325 3.75 17.5367 3.75058 18.1661 3.80201C18.7867 3.85271 19.171 3.94909 19.4755 4.10423C20.087 4.41582 20.5842 4.913 20.8958 5.52453C21.0509 5.829 21.1473 6.21325 21.198 6.83388C21.2494 7.46327 21.25 8.26752 21.25 9.4V14.6C21.25 15.7325 21.2494 16.5367 21.198 17.1661C21.1473 17.7867 21.0509 18.171 20.8958 18.4755C20.5842 19.087 20.087 19.5842 19.4755 19.8958C19.171 20.0509 18.7867 20.1473 18.1661 20.198C17.5367 20.2494 16.7325 20.25 15.6 20.25H8.4C7.26752 20.25 6.46327 20.2494 5.83388 20.198C5.21325 20.1473 4.829 20.0509 4.52453 19.8958C3.913 19.5842 3.41582 19.087 3.10423 18.4755C2.94909 18.171 2.85271 17.7867 2.80201 17.1661C2.75058 16.5367 2.75 15.7325 2.75 14.6V9.4C2.75 8.26752 2.75058 7.46327 2.80201 6.83388C2.85271 6.21325 2.94909 5.829 3.10423 5.52453C3.41582 4.913 3.913 4.41582 4.52453 4.10423ZM8.24203 15.5C9.34125 15.5 10.4216 15.1848 11.0371 14.5269C11.054 14.5088 11.0631 14.4849 11.0631 14.4602V11.3847C11.0631 11.3295 11.0183 11.2847 10.9631 11.2847H8.92344C8.53104 11.2847 8.21295 11.6028 8.21295 11.9952C8.21295 12.3876 8.53104 12.7057 8.92344 12.7057H9.46046C9.51569 12.7057 9.56046 12.7505 9.56046 12.8057V13.6585C9.56046 13.6892 9.54663 13.7184 9.52156 13.736C9.22597 13.944 8.74205 14.0313 8.22264 14.0313C6.87512 14.0313 6.0511 13.154 6.0511 12C6.0511 10.9033 6.87512 9.96867 8.1257 9.96867C8.57259 9.96867 8.94727 10.0706 9.25866 10.234C9.63015 10.429 10.1077 10.4573 10.4107 10.1672C10.7084 9.88216 10.7272 9.40238 10.3902 9.16521C9.79183 8.74418 9.037 8.5 8.1257 8.5C5.99293 8.5 4.5 10.0736 4.5 12C4.5 13.9837 6.09957 15.5 8.24203 15.5ZM12.2719 14.6149C12.2719 15.0405 12.617 15.3856 13.0426 15.3856C13.4683 15.3856 13.8133 15.0405 13.8133 14.6149V9.38514C13.8133 8.9595 13.4683 8.61444 13.0426 8.61444C12.617 8.61444 12.2719 8.9595 12.2719 9.38514V14.6149ZM15.8791 15.3856C15.5392 15.3856 15.2636 15.11 15.2636 14.77V9.21112C15.2636 8.88159 15.5307 8.61444 15.8602 8.61444H18.7752C19.1755 8.61444 19.5 8.93894 19.5 9.33924C19.5 9.73953 19.1755 10.064 18.7752 10.064H16.8094C16.8069 10.064 16.805 10.066 16.805 10.0684V11.2813C16.805 11.2832 16.8065 11.2847 16.8084 11.2847H18.1838C18.5841 11.2847 18.9086 11.6092 18.9086 12.0095C18.9086 12.4098 18.5841 12.7343 18.1838 12.7343H16.8084C16.8072 12.7343 16.8061 12.735 16.8055 12.7359C16.8052 12.7364 16.805 12.7371 16.805 12.7378V14.6149C16.805 15.0405 16.4599 15.3856 16.0343 15.3856H15.8791Z"
      fill="currentColor"
    />
  </svg>