<svg viewBox="0 0 24 24" xmlns="http://www.w3.org/2000/svg">
    <g fill="none">
      <path
        fill-rule="evenodd"
        clip-rule="evenodd"
        d="M15.5 2.75a1.75 1.75 0 1 1 0 3.5h-2.492l.659-2.196A1.83 1.83 0 0 1 15.42 2.75h.08zm3.25 1.75c0 .644-.188 1.245-.51 1.75H19a2.75 2.75 0 0 1 .75 5.396v6.184c0 .535 0 .98-.03 1.345-.03.38-.098.736-.27 1.073a2.751 2.751 0 0 1-1.201 1.202c-.338.172-.694.24-1.074.27-.365.03-.81.03-1.345.03H8.17c-.535 0-.98 0-1.345-.03-.38-.03-.736-.098-1.073-.27A2.75 2.75 0 0 1 4.55 20.25c-.172-.338-.24-.694-.27-1.074-.03-.365-.03-.81-.03-1.345v-6.184A2.751 2.751 0 0 1 5 6.25h.76a3.25 3.25 0 0 1 2.74-5h.08a3.33 3.33 0 0 1 3.19 2.373l.23.767.23-.767a3.33 3.33 0 0 1 3.19-2.373h.08a3.25 3.25 0 0 1 3.25 3.25zM5 10.25h6.25v-2.5H5a1.25 1.25 0 1 0 0 2.5zm7.75 0H19a1.25 1.25 0 1 0 0-2.5h-6.25v2.5zm-7 1.5v6.05c0 .572 0 .957.025 1.252.023.288.065.425.111.515.12.236.311.427.547.547.09.046.227.088.514.111.296.024.68.025 1.253.025h3.05v-8.5h-5.5zm7 0v8.5h3.05c.572 0 .957 0 1.252-.025.288-.023.425-.065.515-.111a1.25 1.25 0 0 0 .547-.547c.046-.09.088-.227.111-.515.024-.295.025-.68.025-1.252v-6.05h-5.5zm-1.758-5.5l-.659-2.196A1.83 1.83 0 0 0 8.58 2.75H8.5a1.75 1.75 0 1 0 0 3.5h2.492z"
        fill="currentColor"
      ></path>
    </g>
  </svg>