<svg viewBox="0 0 24 24" xmlns="http://www.w3.org/2000/svg">
    <g fill="none">
      <path
        fill-rule="evenodd"
        clip-rule="evenodd"
        d="M5.222 2.25c-1.089 0-1.972.883-1.972 1.972V6a8.75 8.75 0 0 0 8 8.718v5.532H8a.75.75 0 0 0 0 1.5h8a.75.75 0 0 0 0-1.5h-3.25v-5.532a8.75 8.75 0 0 0 8-8.718V4.222c0-1.089-.883-1.972-1.972-1.972H5.222zM4.75 4.222c0-.26.212-.472.472-.472h13.556c.26 0 .472.211.472.472V6a7.25 7.25 0 1 1-14.5 0V4.222z"
        fill="currentColor"
      ></path>
    </g>
  </svg>