<svg viewBox="0 0 24 24" xmlns="http://www.w3.org/2000/svg">
    <g fill="none">
      <path
        fill-rule="evenodd"
        clip-rule="evenodd"
        d="M6.624 3.584a.75.75 0 0 1-.208 1.04L4.84 5.674c-.56.373-.706.48-.807.603a1.25 1.25 0 0 0-.23.43c-.047.153-.054.333-.054 1.006v2.823a4.744 4.744 0 0 1 2.323-1.195c.46-.091.994-.091 1.832-.091H16.095c.838 0 1.372 0 1.832.091.89.177 1.689.6 2.323 1.194V7.713c0-.673-.008-.853-.054-1.006a1.25 1.25 0 0 0-.23-.43c-.102-.123-.248-.23-.807-.603l-1.575-1.05a.75.75 0 0 1 .832-1.248l1.575 1.05.078.052c.445.296.794.529 1.055.846.23.28.402.601.507.947.12.393.12.814.119 1.348V16.5a.748.748 0 0 1-.072.32 4.75 4.75 0 0 1-3.752 3.839c-.46.091-.993.091-1.83.091H7.904c-.838 0-1.372 0-1.832-.091a4.75 4.75 0 0 1-3.75-3.836.747.747 0 0 1-.073-.323V7.619c0-.534-.001-.955.118-1.348a2.75 2.75 0 0 1 .507-.947c.261-.317.61-.55 1.056-.846l.078-.052 1.575-1.05a.75.75 0 0 1 1.04.208zM20.25 15.419c-.002.663-.013.967-.062 1.215a3.25 3.25 0 0 1-2.554 2.554c-.296.058-.669.062-1.634.062H8c-.965 0-1.338-.004-1.634-.062a3.25 3.25 0 0 1-2.553-2.554c-.06-.296-.063-.669-.063-1.634 0-.965.004-1.338.063-1.634a3.25 3.25 0 0 1 2.553-2.554c.296-.058.669-.062 1.634-.062h8c.965 0 1.338.004 1.634.062a3.25 3.25 0 0 1 2.554 2.554c.05.248.06.552.062 1.215v.838zM10 15a1 1 0 1 1-2 0 1 1 0 0 1 2 0zm5 1a1 1 0 1 0 0-2 1 1 0 0 0 0 2z"
        fill="currentColor"
      ></path>
    </g>
  </svg>