<svg viewBox="0 0 24 24" xmlns="http://www.w3.org/2000/svg">
    <g fill="none">
      <path
        fill-rule="evenodd"
        clip-rule="evenodd"
        d="M6.165 2.25h11.67c.485 0 .9 0 1.226.03.322.03.704.096 1.018.342.413.324.66.816.67 1.342.009.399-.166.744-.336 1.02-.172.278-.42.61-.712.998l-.021.028-2.575 3.433a.715.715 0 0 1-.01.013L12.75 15.25v5H16a.75.75 0 0 1 0 1.5H8a.75.75 0 0 1 0-1.5h3.25v-5L6.905 9.456a.805.805 0 0 1-.01-.013L4.32 6.01l-.021-.028c-.291-.388-.54-.72-.712-.998-.17-.276-.345-.621-.337-1.02a1.75 1.75 0 0 1 .671-1.342c.314-.246.696-.313 1.018-.342.326-.03.74-.03 1.226-.03zM9 9.75l3 4 3-4H9zm7.125-1.5h-8.25L5.52 5.11c-.318-.424-.525-.7-.656-.914a1.116 1.116 0 0 1-.113-.218.25.25 0 0 1 .082-.164c.018-.006.085-.026.242-.04.25-.023.595-.024 1.125-.024h11.6c.53 0 .875 0 1.124.023.158.015.224.035.243.041a.25.25 0 0 1 .082.164c-.006.018-.03.084-.113.218-.131.213-.338.49-.656.914l-2.355 3.14z"
        fill="currentColor"
      ></path>
    </g>
  </svg>