<svg viewBox="0 0 24 24" xmlns="http://www.w3.org/2000/svg">
    <g fill="none">
      <path
        fill-rule="evenodd"
        clip-rule="evenodd"
        d="M6.624 3.584a.75.75 0 0 1-.208 1.04L4.84 5.674c-.56.373-.706.48-.807.603a1.25 1.25 0 0 0-.23.43c-.047.153-.054.333-.054 1.006v5.547a4.251 4.251 0 0 1 6.934 2.49h2.632a4.251 4.251 0 0 1 6.934-2.49V7.712c0-.673-.008-.853-.054-1.006a1.25 1.25 0 0 0-.23-.43c-.102-.123-.248-.23-.807-.603l-1.575-1.05a.75.75 0 0 1 .832-1.248l1.575 1.05.078.052c.445.296.794.529 1.055.846.23.28.402.601.507.947.12.393.12.814.119 1.348V16.5a4.25 4.25 0 0 1-8.434.75h-2.632a4.251 4.251 0 0 1-8.434-.737V7.619c0-.534-.001-.955.118-1.348a2.75 2.75 0 0 1 .507-.947c.261-.317.61-.55 1.056-.846l.078-.052 1.575-1.05a.75.75 0 0 1 1.04.208zM20.25 16.5a2.75 2.75 0 1 0-5.5 0 2.75 2.75 0 0 0 5.5 0zM6.5 13.75a2.75 2.75 0 1 0 2.75 2.76v-.02a2.75 2.75 0 0 0-2.75-2.74z"
        fill="currentColor"
      ></path>
    </g>
  </svg>