<svg viewBox="0 0 24 24" xmlns="http://www.w3.org/2000/svg">
    <g fill="none">
      <path
        fill-rule="evenodd"
        clip-rule="evenodd"
        d="M18.895 2.106a.75.75 0 0 0-1.061 1.06A8.25 8.25 0 0 1 6.167 14.834a.75.75 0 1 0-1.061 1.062 9.721 9.721 0 0 0 6.144 2.827v1.528H9a.75.75 0 0 0 0 1.5h6a.75.75 0 0 0 0-1.5h-2.25v-1.528c5.035-.383 9-4.59 9-9.722a9.722 9.722 0 0 0-2.855-6.894zM6.75 9a5.25 5.25 0 1 1 10.5 0 5.25 5.25 0 0 1-10.5 0zM12 2.25a6.75 6.75 0 1 0 0 13.5 6.75 6.75 0 0 0 0-13.5z"
        fill="currentColor"
      ></path>
    </g>
  </svg>