<svg viewBox="0 0 24 24" xmlns="http://www.w3.org/2000/svg">
    <g fill="none">
      <path
        fill-rule="evenodd"
        clip-rule="evenodd"
        d="M12 1.25a.75.75 0 0 1 .75.75v1.282a8.752 8.752 0 0 1 7.968 7.968H22a.75.75 0 0 1 0 1.5h-1.282a8.752 8.752 0 0 1-7.968 7.968V22a.75.75 0 0 1-1.5 0v-1.282a8.752 8.752 0 0 1-7.968-7.968H2a.75.75 0 0 1 0-1.5h1.282a8.752 8.752 0 0 1 7.968-7.968V2a.75.75 0 0 1 .75-.75zm0 18a7.25 7.25 0 1 0 0-14.5 7.25 7.25 0 0 0 0 14.5zM14.5 12a2.5 2.5 0 1 1-5 0 2.5 2.5 0 0 1 5 0zm1.5 0a4 4 0 1 1-8 0 4 4 0 0 1 8 0z"
        fill="currentColor"
      ></path>
    </g>
  </svg>