<svg viewBox="0 0 24 24" xmlns="http://www.w3.org/2000/svg">
    <g fill="none">
      <path
        fill-rule="evenodd"
        clip-rule="evenodd"
        d="M6.2 2.25h-.03c-.535 0-.98 0-1.345.03-.38.03-.736.098-1.073.27A2.75 2.75 0 0 0 2.55 3.752c-.172.337-.24.693-.27 1.073-.03.365-.03.81-.03 1.345V17.83c0 .535 0 .98.03 1.345.03.38.098.736.27 1.073a2.75 2.75 0 0 0 1.202 1.202c.337.172.693.24 1.073.27.365.03.81.03 1.345.03H17.83c.535 0 .98 0 1.345-.03.38-.03.736-.098 1.073-.27a2.751 2.751 0 0 0 1.202-1.201c.172-.338.24-.694.27-1.074.03-.365.03-.81.03-1.345V6.17c0-.535 0-.98-.03-1.345-.03-.38-.098-.736-.27-1.073A2.75 2.75 0 0 0 20.25 2.55c-.338-.172-.694-.24-1.074-.27-.364-.03-.81-.03-1.345-.03H6.2zm8.05 9h-4.5V4a.749.749 0 0 0-.043-.25h4.586a.75.75 0 0 0-.043.25v7.25zm0 1.5h-4.5V20a.749.749 0 0 1-.043.25h4.586a.75.75 0 0 1-.043-.25v-7.25zm1.457 7.5a.75.75 0 0 0 .043-.25v-7.25h4.5v5.05c0 .572 0 .957-.025 1.252-.023.288-.065.425-.111.515a1.25 1.25 0 0 1-.547.547c-.09.046-.227.088-.514.111-.296.024-.68.025-1.253.025h-2.093zm.043-9V4a.75.75 0 0 0-.043-.25H17.8c.572 0 .957 0 1.253.025.287.023.424.065.514.111.236.12.427.311.547.547.046.09.088.227.111.514.024.296.025.68.025 1.253v5.05h-4.5zM8.25 4v16c0 .088.015.172.043.25H6.2c-.572 0-.957 0-1.252-.025-.288-.023-.425-.065-.515-.111a1.25 1.25 0 0 1-.547-.547c-.046-.09-.088-.227-.111-.515-.024-.295-.025-.68-.025-1.252V6.2c0-.572 0-.957.025-1.253.023-.287.065-.424.111-.514a1.25 1.25 0 0 1 .547-.547c.09-.046.227-.088.515-.111.295-.024.68-.025 1.252-.025h2.093A.749.749 0 0 0 8.25 4z"
        fill="currentColor"
      ></path>
    </g>
  </svg>