<svg viewBox="0 0 24 24" xmlns="http://www.w3.org/2000/svg">
    <g fill="none">
      <path
        fill-rule="evenodd"
        clip-rule="evenodd"
        d="M1.47 1.47a.75.75 0 0 1 1.06 0l3.511 3.51 10.688 10.688 4.801 4.802a.75.75 0 0 1-1.06 1.06l-4.272-4.271-3.002 2.998a1.697 1.697 0 0 1-2.392 0l-7.007-6.998a5.223 5.223 0 0 1 0-7.421c.166-.166.34-.319.522-.458l-2.85-2.85a.75.75 0 0 1 0-1.06zm3.922 4.983a3.91 3.91 0 0 0-.535.446 3.723 3.723 0 0 0 0 5.298l7.007 6.998c.073.073.2.073.272 0l3.002-2.997-9.746-9.745zm13.75.446c-1.533-1.532-4.065-1.532-5.6 0L12.53 7.91a.75.75 0 0 1-1.06 0L10.458 6.9a3.9 3.9 0 0 0-1.669-.988.75.75 0 1 1 .422-1.44 5.435 5.435 0 0 1 2.307 1.366L12 6.32l.482-.482c2.12-2.117 5.601-2.117 7.72 0a5.223 5.223 0 0 1 0 7.42l-1.273 1.273a.75.75 0 0 1-1.06-1.062l1.274-1.271a3.723 3.723 0 0 0 0-5.299z"
        fill="currentColor"
      ></path>
    </g>
  </svg>