<svg viewBox="0 0 24 24" xmlns="http://www.w3.org/2000/svg">
    <g fill="none">
      <path
        fill-rule="evenodd"
        clip-rule="evenodd"
        d="M10.438 6.975a3.97 3.97 0 0 0-5.676 5.55l7.1 7.26a.194.194 0 0 0 .277 0l7.1-7.26a3.969 3.969 0 1 0-5.677-5.55l-1.025 1.05a.75.75 0 0 1-1.073 0l-1.026-1.05zM3.69 5.926a5.47 5.47 0 0 1 7.82 0l.49.501.49-.5a5.469 5.469 0 1 1 7.82 7.646l-7.098 7.261c-.665.68-1.758.68-2.423 0l-7.1-7.26a5.47 5.47 0 0 1 0-7.648z"
        fill="currentColor"
      ></path>
    </g>
  </svg>