<svg viewBox="0 0 24 24" xmlns="http://www.w3.org/2000/svg">
    <g fill="none">
      <path
        fill-rule="evenodd"
        clip-rule="evenodd"
        d="M11.614 3.64a1.25 1.25 0 0 1 .772 0c.097.031.224.099.443.285.227.192.499.463.903.868L16.47 7.53l.594.595c.544.544.726.733.854.942.124.201.215.42.27.65.057.24.062.502.062 1.271V16.2c0 .852 0 1.447-.038 1.91-.038.453-.107.714-.207.912a2.25 2.25 0 0 1-.983.983c-.198.1-.459.17-.913.207-.462.038-1.057.038-1.909.038H9.8c-.852 0-1.447 0-1.91-.038-.453-.037-.714-.107-.911-.207a2.25 2.25 0 0 1-.984-.983c-.1-.198-.17-.459-.207-.913-.037-.462-.038-1.057-.038-1.909v-5.212c0-.77.005-1.032.062-1.27a2.25 2.25 0 0 1 .27-.65c.128-.21.31-.398.85-.939l.004-.004.594-.595 2.738-2.737c.404-.405.676-.676.903-.868.22-.186.346-.254.443-.285zM6.47 6.47l2.737-2.738.021-.021c.378-.378.693-.693.972-.93.29-.246.59-.451.95-.568a2.75 2.75 0 0 1 1.7 0c.36.117.66.322.95.568.279.237.594.552.971.93l.022.021L17.53 6.47l.594.594.06.06.115.114 4.231 4.232a.75.75 0 0 1-1.06 1.06l-1.72-1.72v5.422c0 .813 0 1.469-.043 2-.045.546-.14 1.026-.366 1.47a3.75 3.75 0 0 1-1.639 1.64c-.444.226-.924.32-1.47.365-.531.043-1.187.043-2 .043H9.768c-.813 0-1.469 0-2-.043-.546-.045-1.026-.14-1.47-.366a3.75 3.75 0 0 1-1.64-1.639c-.226-.444-.32-.924-.365-1.47-.043-.531-.043-1.187-.043-2v-5.329-.092l-1.72 1.72a.75.75 0 1 1-1.06-1.061L5.7 7.238l.114-.114.06-.06.595-.594z"
        fill="currentColor"
      ></path>
    </g>
  </svg>