<svg viewBox="0 0 24 24" xmlns="http://www.w3.org/2000/svg">
    <g fill="none">
      <path
        fill-rule="evenodd"
        clip-rule="evenodd"
        d="M6.2 2.25h-.03c-.535 0-.98 0-1.345.03-.38.03-.736.098-1.073.27A2.75 2.75 0 0 0 2.55 3.752c-.172.337-.24.693-.27 1.073-.03.365-.03.81-.03 1.345V18.019a15.171 15.171 0 0 0 .036 1.227c.034.353.103.686.264 1.003a2.75 2.75 0 0 0 1.202 1.201c.337.172.693.24 1.073.27.365.03.81.03 1.345.03h11.66c.535 0 .98 0 1.345-.03.38-.03.736-.098 1.073-.27a2.751 2.751 0 0 0 1.202-1.201c.172-.338.24-.694.27-1.074.03-.365.03-.81.03-1.345V6.17c0-.535 0-.98-.03-1.345-.03-.38-.098-.736-.27-1.073A2.75 2.75 0 0 0 20.25 2.55c-.338-.172-.694-.24-1.074-.27-.364-.03-.81-.03-1.345-.03H6.2zm5.25 18h6.35c.572 0 .957 0 1.252-.025.288-.023.425-.065.515-.111a1.25 1.25 0 0 0 .547-.547c.046-.09.088-.227.111-.515.024-.295.025-.68.025-1.252V6.2c0-.572 0-.957-.025-1.253-.023-.287-.065-.424-.111-.514a1.25 1.25 0 0 0-.547-.547c-.09-.046-.227-.088-.515-.111-.295-.024-.68-.025-1.252-.025H6.2c-.572 0-.957 0-1.253.025-.287.023-.424.065-.514.111a1.25 1.25 0 0 0-.547.547c-.046.09-.088.227-.111.514-.024.296-.025.68-.025 1.253v6.35h.002c.337-.172.693-.24 1.073-.27.365-.03.81-.03 1.345-.03H7.83c.535 0 .98 0 1.345.03.38.03.736.098 1.073.27.518.263.939.684 1.202 1.201.172.338.24.694.27 1.074.03.365.03.81.03 1.345V17.83c0 .535 0 .98-.03 1.345-.03.38-.098.736-.27 1.073v.002zm-7.7-2.45c0 .5 0 .858.017 1.137l.008.115c.017.216.045.347.078.437.01.03.022.056.033.078a1.25 1.25 0 0 0 .547.547c.084.043.21.082.462.107l.052.004c.278.023.633.025 1.148.025H7.8c.572 0 .957 0 1.253-.025.287-.023.424-.065.514-.111a1.25 1.25 0 0 0 .547-.547c.046-.09.088-.227.111-.515.024-.295.025-.68.025-1.252v-1.6c0-.572 0-.957-.025-1.252-.023-.288-.065-.425-.111-.516a1.25 1.25 0 0 0-.546-.546c-.091-.046-.228-.088-.515-.111-.296-.024-.68-.025-1.253-.025H6.2c-.572 0-.957 0-1.253.025-.287.023-.424.065-.514.111a1.25 1.25 0 0 0-.547.546c-.046.091-.088.228-.111.515-.024.29-.025.666-.025 1.22V17.8z"
        fill="currentColor"
      ></path>
    </g>
  </svg>