<svg viewBox="0 0 24 24" xmlns="http://www.w3.org/2000/svg">
    <g fill="none">
      <path
        fill-rule="evenodd"
        clip-rule="evenodd"
        d="M1.47 1.47a.75.75 0 0 1 1.06 0L4.702 3.64l15.657 15.657 2.171 2.172a.75.75 0 1 1-1.06 1.06l-1.684-1.683c-.198.144-.409.273-.63.385-.55.281-1.154.403-1.868.461-.697.057-1.563.057-2.655.057H9.367c-1.092 0-1.958 0-2.655-.057-.714-.058-1.317-.18-1.868-.46a4.75 4.75 0 0 1-2.076-2.076c-.281-.552-.403-1.155-.461-1.869-.057-.697-.057-1.563-.057-2.655V9.367c0-1.092 0-1.958.057-2.655.058-.714.18-1.317.46-1.868a4.75 4.75 0 0 1 .386-.63L1.47 2.53a.75.75 0 0 1 0-1.06zm2.764 3.824c-.046.075-.09.152-.13.23-.155.305-.251.69-.302 1.31-.051.63-.052 1.434-.052 2.566v5.2c0 1.117 0 1.914.05 2.54l.67-.67 1.237-1.238.021-.021c.378-.378.693-.693.972-.93.29-.246.59-.451.95-.568a2.75 2.75 0 0 1 1.7 0c.36.117.66.322.95.568.279.237.594.552.972.93l.021.021 2.237 2.238 2.5 2.5c.08.08.138.172.174.271.365-.007.68-.02.962-.043.62-.05 1.005-.147 1.31-.302.078-.04.155-.084.23-.13L4.234 5.294zm9.955 14.956l-1.72-1.72-2.237-2.237c-.404-.405-.676-.676-.903-.868-.22-.187-.346-.254-.443-.285a1.25 1.25 0 0 0-.772 0c-.097.031-.224.098-.443.285-.227.192-.499.463-.903.868L5.53 17.53l-1.25 1.25c.31.472.738.858 1.245 1.116.304.155.688.251 1.309.302.63.051 1.434.052 2.566.052h4.79zm2.977-16.448c-.63-.051-1.434-.052-2.566-.052H8a.75.75 0 0 1 0-1.5h6.633c1.092 0 1.958 0 2.655.057.714.058 1.317.18 1.869.46a4.75 4.75 0 0 1 2.075 2.077c.281.55.403 1.154.461 1.868.057.697.057 1.563.057 2.655V16a.75.75 0 0 1-1.5 0V9.4c0-1.132 0-1.937-.052-2.566-.05-.62-.147-1.005-.302-1.31a3.25 3.25 0 0 0-1.42-1.42c-.305-.155-.69-.251-1.31-.302zM16 6.75a1.25 1.25 0 1 0 0 2.5 1.25 1.25 0 0 0 0-2.5zM13.25 8a2.75 2.75 0 1 1 5.5 0 2.75 2.75 0 0 1-5.5 0z"
        fill="currentColor"
      ></path>
    </g>
  </svg>