<svg viewBox="0 0 24 24" xmlns="http://www.w3.org/2000/svg">
    <g fill="none">
      <path
        fill-rule="evenodd"
        clip-rule="evenodd"
        d="M14.75 5.5a1.75 1.75 0 1 1 3.5 0 1.75 1.75 0 0 1-3.5 0zm1.75-3.25a3.25 3.25 0 1 0 0 6.5 3.25 3.25 0 0 0 0-6.5zM8.513 9.547a1.25 1.25 0 0 1 .974 0c.107.046.265.159.534.504.27.345.584.833 1.04 1.542l2.808 4.368 2.757 4.289H5.861c-.97 0-1.644 0-2.146-.047-.508-.046-.706-.131-.8-.202a1.25 1.25 0 0 1-.498-.912c-.009-.118.027-.33.262-.784.233-.446.597-1.014 1.121-1.83l3.14-4.882c.455-.71.77-1.197 1.039-1.542.269-.345.427-.458.534-.504zm11.772 10.656c-.454.042-1.05.046-1.876.047l-3.017-4.694.047-.074c.456-.71.77-1.197 1.04-1.542.269-.345.427-.458.535-.504a1.25 1.25 0 0 1 .973 0c.107.046.265.159.534.504.27.345.584.833 1.04 1.542l.639.993c.524.816.888 1.384 1.12 1.83.236.453.272.666.264.784a1.25 1.25 0 0 1-.498.912c-.095.07-.293.156-.801.202zm-7.962-9.421l2.177 3.387a16.9 16.9 0 0 1 .796-1.152c.321-.412.672-.768 1.134-.963a2.75 2.75 0 0 1 2.14 0c.462.195.813.55 1.134.963.316.406.668.952 1.099 1.622l.02.032.638.993.021.032c.499.776.901 1.402 1.17 1.917.268.516.467 1.037.428 1.583a2.75 2.75 0 0 1-1.095 2.005c-.438.328-.984.443-1.563.496-.579.053-1.323.053-2.245.053H5.823c-.922 0-1.666 0-2.245-.053-.58-.053-1.125-.168-1.563-.496A2.75 2.75 0 0 1 .92 19.196c-.039-.546.16-1.067.429-1.583.268-.515.67-1.141 1.169-1.917l.02-.032 3.14-4.882.02-.031c.43-.67.782-1.217 1.098-1.623.321-.412.672-.768 1.134-.963a2.75 2.75 0 0 1 2.14 0c.462.196.813.551 1.134.963.316.406.668.952 1.099 1.623l.02.03z"
        fill="currentColor"
      ></path>
    </g>
  </svg>