<svg viewBox="0 0 24 24" xmlns="http://www.w3.org/2000/svg">
    <g fill="none">
      <path
        fill-rule="evenodd"
        clip-rule="evenodd"
        d="M9.367 2.25H14.633c1.092 0 1.958 0 2.655.057.714.058 1.317.18 1.869.46a4.75 4.75 0 0 1 2.075 2.077c.281.55.403 1.154.461 1.868.057.697.057 1.563.057 2.655V14.633c0 1.092 0 1.958-.057 2.655-.058.714-.18 1.317-.46 1.869a4.75 4.75 0 0 1-2.076 2.075c-.552.281-1.155.403-1.869.461-.697.057-1.563.057-2.655.057H9.367c-1.092 0-1.958 0-2.655-.057-.714-.058-1.317-.18-1.868-.46a4.75 4.75 0 0 1-2.076-2.076c-.281-.552-.403-1.155-.461-1.869-.057-.697-.057-1.563-.057-2.655V9.367c0-1.092 0-1.958.057-2.655.058-.714.18-1.317.46-1.868a4.75 4.75 0 0 1 2.077-2.076c.55-.281 1.154-.403 1.868-.461.697-.057 1.563-.057 2.655-.057zM6.834 3.802c-.62.05-1.005.147-1.31.302a3.25 3.25 0 0 0-1.42 1.42c-.155.305-.251.69-.302 1.31-.051.63-.052 1.434-.052 2.566v5.2c0 1.117 0 1.914.05 2.54l.67-.67 2.237-2.238.021-.021c.378-.378.693-.693.972-.93.29-.246.59-.451.95-.568a2.75 2.75 0 0 1 1.7 0c.36.117.66.322.95.568.279.237.594.552.971.93l.022.021L14 15.94l.207-.207.021-.021c.378-.378.693-.693.972-.93.29-.246.59-.451.95-.568a2.75 2.75 0 0 1 1.7 0c.36.117.66.322.95.568.279.237.594.552.971.93l.022.021.448.449c.009-.447.009-.965.009-1.581V9.4c0-1.132 0-1.937-.052-2.566-.05-.62-.147-1.005-.302-1.31a3.25 3.25 0 0 0-1.42-1.42c-.305-.155-.69-.251-1.31-.302-.63-.051-1.434-.052-2.566-.052H9.4c-1.132 0-1.937 0-2.566.052zm13.21 14.294a.747.747 0 0 1-.074-.066l-1.238-1.237c-.404-.405-.676-.676-.903-.868-.22-.187-.346-.254-.443-.285a1.25 1.25 0 0 0-.772 0c-.097.031-.224.098-.443.285-.227.192-.499.463-.903.868L15.06 17l2.97 2.97a.747.747 0 0 1 .065.075c.143-.042.267-.092.38-.15a3.25 3.25 0 0 0 1.42-1.42c.057-.112.107-.236.149-.379zm-3.863 2.145l-2.711-2.71-2.238-2.238c-.404-.405-.676-.676-.903-.868-.22-.187-.346-.254-.443-.285a1.25 1.25 0 0 0-.772 0c-.097.031-.224.098-.443.285-.227.192-.499.463-.903.868L5.53 17.53l-1.25 1.25c.31.472.738.858 1.245 1.116.304.155.688.251 1.309.302.63.051 1.434.052 2.566.052h5.2c.616 0 1.134 0 1.58-.009zM15 7.75a1.25 1.25 0 1 0 0 2.5 1.25 1.25 0 0 0 0-2.5zM12.25 9a2.75 2.75 0 1 1 5.5 0 2.75 2.75 0 0 1-5.5 0z"
        fill="currentColor"
      ></path>
    </g>
  </svg>