<svg xmlns="http://www.w3.org/2000/svg" fill="none" viewBox="0 0 24 24">
    <path fill="currentColor" fill-rule="evenodd" d="M9.367 2.25H14.633c1.092 0 1.958 0 2.655.057.714.058 1.317.18 1.869.46a4.75 4.75 0 0 1 2.075 2.077c.281.55.403 1.154.461 1.868.057.697.057 1.563.057 2.655V14.633c0 1.092 0 1.958-.057 2.655-.058.714-.18 1.317-.46 1.869a4.75 4.75 0 0 1-2.076 2.075c-.552.281-1.155.403-1.869.461-.697.057-1.563.057-2.655.057H11.4a.75.75 0 0 1 0-1.5h3.2c.616 0 1.134 0 1.58-.009l-2.71-2.71-2-2a.75.75 0 1 1 1.06-1.061L14 15.94l.207-.208.021-.021c.378-.378.693-.693.972-.93.29-.246.59-.451.95-.568a2.75 2.75 0 0 1 1.7 0c.36.117.66.322.95.568.279.237.594.552.971.93l.022.021.448.449c.009-.447.009-.965.009-1.581V9.4c0-1.132 0-1.937-.052-2.566-.05-.62-.147-1.005-.302-1.31a3.25 3.25 0 0 0-1.42-1.42c-.305-.155-.69-.251-1.31-.302-.63-.051-1.434-.052-2.566-.052H9.4c-1.132 0-1.937 0-2.566.052-.62.05-1.005.147-1.31.302a3.25 3.25 0 0 0-1.42 1.42c-.155.305-.251.69-.302 1.31-.051.63-.052 1.434-.052 2.566v3.8a.75.75 0 0 1-1.5 0V9.367c0-1.092 0-1.958.057-2.655.058-.714.18-1.317.46-1.868a4.75 4.75 0 0 1 2.077-2.076c.55-.281 1.154-.403 1.868-.461.697-.057 1.563-.057 2.655-.057Zm10.678 15.846a.747.747 0 0 1-.075-.066l-1.238-1.237c-.404-.405-.676-.676-.903-.868-.22-.187-.346-.254-.443-.285a1.25 1.25 0 0 0-.772 0c-.097.031-.224.098-.443.285-.226.192-.499.463-.903.868L15.06 17l2.97 2.97a.747.747 0 0 1 .065.075c.143-.042.267-.092.38-.15a3.25 3.25 0 0 0 1.42-1.42c.057-.112.107-.236.149-.379ZM15 7.75a1.25 1.25 0 1 0 0 2.5 1.25 1.25 0 0 0 0-2.5ZM12.25 9a2.75 2.75 0 1 1 5.5 0 2.75 2.75 0 0 1-5.5 0Z" clip-rule="evenodd"/>
    <path stroke="#000" stroke-linecap="round" stroke-linejoin="round" stroke-width="1.5" d="M4.8 22.2v-3m0-3v3m0 0h-3m3 0h3"/>
  </svg>