<svg viewBox="0 0 24 24" xmlns="http://www.w3.org/2000/svg">
    <g fill="none">
      <path
        fill-rule="evenodd"
        clip-rule="evenodd"
        d="M12 3.75a8.25 8.25 0 0 0-7.5 11.69l2.207-2.208.021-.021c.378-.378.693-.693.972-.93.29-.246.59-.451.95-.568a2.75 2.75 0 0 1 1.7 0c.36.117.66.322.95.568.279.237.594.552.972.93l.021.021L14 14.94l.207-.207.021-.021c.378-.378.693-.693.972-.93.29-.246.59-.451.95-.568a2.75 2.75 0 0 1 1.7 0c.36.117.66.322.95.568.278.237.594.552.971.93l.017.017A8.25 8.25 0 0 0 12 3.75zm0 16.5a8.24 8.24 0 0 1-6.723-3.467l.253-.253 2.238-2.237c.404-.405.676-.676.903-.868.22-.187.346-.254.443-.285a1.25 1.25 0 0 1 .772 0c.097.031.224.098.443.285.227.192.499.463.903.868l2.238 2.237 2.63 2.63a8.213 8.213 0 0 1-4.1 1.09zm7.116-4.073a8.291 8.291 0 0 1-1.77 2.108L15.06 16l.207-.207c.404-.405.676-.676.903-.868.22-.187.346-.254.443-.285a1.25 1.25 0 0 1 .772 0c.097.031.224.098.443.285.227.192.499.463.903.868l.384.384zM2.25 12c0-5.385 4.365-9.75 9.75-9.75s9.75 4.365 9.75 9.75-4.365 9.75-9.75 9.75S2.25 17.385 2.25 12zm10.5-3a1.25 1.25 0 1 1 2.5 0 1.25 1.25 0 0 1-2.5 0zM14 6.25a2.75 2.75 0 1 0 0 5.5 2.75 2.75 0 0 0 0-5.5z"
        fill="currentColor"
      ></path>
    </g>
  </svg>