<svg viewBox="0 0 24 24" xmlns="http://www.w3.org/2000/svg">
    <g fill="none">
      <path
        fill-rule="evenodd"
        clip-rule="evenodd"
        d="M9.367 2.25H12a.75.75 0 0 1 0 1.5H9.4c-1.132 0-1.937 0-2.566.052-.62.05-1.005.147-1.31.302a3.25 3.25 0 0 0-1.42 1.42c-.155.305-.251.69-.302 1.31-.051.63-.052 1.434-.052 2.566v5.2c0 1.117 0 1.914.05 2.54l.67-.67 2.237-2.238.021-.021c.378-.378.693-.693.972-.93.29-.246.59-.451.95-.568a2.75 2.75 0 0 1 1.7 0c.36.117.66.322.95.568.279.237.594.552.971.93l.022.021L14 15.94l.207-.207.021-.021c.378-.378.693-.693.972-.93.29-.246.59-.451.95-.568a2.75 2.75 0 0 1 1.7 0c.36.117.66.322.95.568.279.237.594.552.971.93l.022.021.448.449c.009-.447.009-.965.009-1.581V12a.75.75 0 0 1 1.5 0v2.633c0 1.092 0 1.958-.057 2.655-.058.714-.18 1.317-.46 1.869a4.75 4.75 0 0 1-2.076 2.075c-.552.281-1.155.403-1.869.461-.697.057-1.563.057-2.655.057H9.367c-1.092 0-1.958 0-2.655-.057-.714-.058-1.317-.18-1.868-.46a4.75 4.75 0 0 1-2.076-2.076c-.281-.552-.403-1.155-.461-1.869-.057-.697-.057-1.563-.057-2.655V9.367c0-1.092 0-1.958.057-2.655.058-.714.18-1.317.46-1.868a4.75 4.75 0 0 1 2.077-2.076c.55-.281 1.154-.403 1.868-.461.697-.057 1.563-.057 2.655-.057zM5.525 19.896A3.25 3.25 0 0 1 4.28 18.78l1.25-1.25 2.237-2.237c.404-.405.676-.676.903-.868.22-.187.346-.254.443-.285a1.25 1.25 0 0 1 .772 0c.097.031.224.098.443.285.227.192.499.463.903.868l2.238 2.237 2.71 2.711c-.446.009-.964.009-1.58.009H9.4c-1.132 0-1.937 0-2.566-.052-.62-.05-1.005-.147-1.31-.302zm12.95 0a2.188 2.188 0 0 1-.379.149.747.747 0 0 0-.066-.075L15.06 17l.208-.207c.404-.405.676-.676.903-.868.22-.187.346-.254.443-.285a1.25 1.25 0 0 1 .772 0c.097.031.224.098.443.285.227.192.499.463.903.868l1.238 1.237a.747.747 0 0 0 .075.066 2.188 2.188 0 0 1-.15.38 3.25 3.25 0 0 1-1.42 1.42zM20.53 4.53a.75.75 0 0 0-1.06-1.06L18 4.94l-1.47-1.47a.75.75 0 1 0-1.06 1.06L16.94 6l-1.47 1.47a.75.75 0 0 0 1.06 1.06L18 7.06l1.47 1.47a.75.75 0 1 0 1.06-1.06L19.06 6l1.47-1.47z"
        fill="currentColor"
      ></path>
    </g>
  </svg>