<svg viewBox="0 0 24 24" xmlns="http://www.w3.org/2000/svg">
    <g fill="none">
      <path
        fill-rule="evenodd"
        clip-rule="evenodd"
        d="M3.75 12A8.25 8.25 0 0 1 12 3.75a.75.75 0 0 0 0-1.5c-5.385 0-9.75 4.365-9.75 9.75s4.365 9.75 9.75 9.75 9.75-4.365 9.75-9.75a.75.75 0 0 0-1.5 0 8.25 8.25 0 0 1-16.5 0zm15.78-6.47a.75.75 0 0 0-1.06-1.06l-7.72 7.72V9a.75.75 0 0 0-1.5 0v5c0 .414.336.75.75.75h5a.75.75 0 0 0 0-1.5h-3.19l7.72-7.72z"
        fill="currentColor"
      ></path>
    </g>
  </svg>