<svg viewBox="0 0 24 24" xmlns="http://www.w3.org/2000/svg">
    <g fill="none">
      <path
        fill-rule="evenodd"
        clip-rule="evenodd"
        d="M10.608 2.25h-.028c-.888 0-1.594 0-2.172.042-.593.044-1.1.134-1.583.34A4.75 4.75 0 0 0 4.848 4.21c-.308.425-.509.9-.683 1.469-.169.554-.326 1.243-.522 2.108l-.007.028-.9 3.959-.007.033c-.133.585-.209.92-.259 1.26a8.75 8.75 0 0 0-.074 1.82c.022.342.07.683.155 1.276l.005.034.02.14c.18 1.257.294 2.06.613 2.723a4.75 4.75 0 0 0 2.846 2.468c.701.223 1.513.222 2.782.222H15.183c1.269 0 2.08 0 2.782-.222a4.75 4.75 0 0 0 2.846-2.468c.319-.663.433-1.466.613-2.722l.02-.14.004-.035c.085-.594.134-.934.156-1.276a8.757 8.757 0 0 0-.075-1.82c-.05-.34-.125-.675-.258-1.26l-.008-.033-.9-3.959-.006-.028c-.197-.865-.353-1.554-.523-2.108-.173-.569-.374-1.044-.682-1.469a4.75 4.75 0 0 0-1.977-1.577c-.483-.207-.99-.297-1.583-.34-.578-.043-1.285-.043-2.172-.043h-2.812zM7.415 4.012c.27-.116.596-.187 1.103-.224.516-.038 1.168-.038 2.09-.038h2.783c.923 0 1.575 0 2.091.038.507.037.832.108 1.103.224a3.25 3.25 0 0 1 1.352 1.08c.174.238.314.54.463 1.025.151.496.296 1.131.5 2.03l.9 3.96c.137.6.2.879.24 1.143H17.62c-.535 0-.955 0-1.348.119a2.748 2.748 0 0 0-.947.507c-.317.26-.55.61-.846 1.055l-.052.078-.1.15c-.373.56-.48.705-.603.807a1.252 1.252 0 0 1-.43.23c-.153.046-.333.054-1.006.054h-.575c-.672 0-.853-.008-1.005-.054a1.252 1.252 0 0 1-.43-.23c-.124-.101-.23-.247-.603-.807l-.1-.15-.052-.078c-.296-.445-.529-.795-.846-1.055a2.748 2.748 0 0 0-.947-.507c-.394-.12-.814-.12-1.348-.119H3.96c.04-.264.103-.542.24-1.144l.899-3.958c.204-.9.35-1.535.5-2.03.15-.487.29-.788.463-1.027a3.25 3.25 0 0 1 1.353-1.08zM3.89 14.75l.002.042c.018.277.057.556.148 1.193.206 1.445.294 1.998.5 2.425a3.25 3.25 0 0 0 1.947 1.688c.451.143 1.01.152 2.47.152h6.083c1.46 0 2.02-.009 2.471-.152a3.25 3.25 0 0 0 1.947-1.688c.206-.427.293-.98.5-2.425.09-.637.13-.916.148-1.193l.002-.042h-2.397c-.672 0-.853.008-1.005.054a1.252 1.252 0 0 0-.43.23c-.124.101-.23.247-.603.807l-.1.15-.052.078c-.296.445-.529.795-.846 1.056-.28.23-.601.401-.947.506-.394.12-.814.12-1.348.119H11.619c-.535 0-.955 0-1.348-.119a2.748 2.748 0 0 1-.947-.506c-.317-.261-.55-.611-.846-1.056l-.052-.078-.1-.15c-.373-.56-.48-.705-.603-.807a1.252 1.252 0 0 0-.43-.23c-.153-.046-.333-.054-1.006-.054H3.891z"
        fill="currentColor"
      ></path>
    </g>
  </svg>