<svg viewBox="0 0 24 24" xmlns="http://www.w3.org/2000/svg">
    <g fill="none">
      <path
        fill-rule="evenodd"
        clip-rule="evenodd"
        d="M12.53 1.47a.75.75 0 0 0-1.06 0l-3 3a.75.75 0 0 0 1.06 1.06l1.72-1.72V12a.75.75 0 0 0 1.5 0V3.81l1.72 1.72a.75.75 0 1 0 1.06-1.06l-3-3zM7.516 7.25H8a.75.75 0 1 1 0 1.5h-.367c-.83 0-1.053.011-1.232.077a1.25 1.25 0 0 0-.484.323c-.13.14-.226.342-.545 1.108l-.624 1.498c-.212.507-.304.73-.38.952-.06.179-.115.36-.161.542H6.38c.535 0 .955 0 1.348.119.346.105.668.277.947.507.317.26.55.61.846 1.055l.052.078.1.15c.373.56.48.705.603.807.127.104.273.182.43.23.153.046.333.054 1.006.054h.575c.672 0 .852-.008 1.005-.054.157-.048.304-.126.43-.23.123-.101.23-.247.603-.807l.1-.15.052-.078c.296-.445.529-.795.846-1.055.28-.23.601-.402.947-.507.394-.12.814-.12 1.348-.119h2.174a7.244 7.244 0 0 0-.161-.542 16.21 16.21 0 0 0-.38-.952l-.624-1.498c-.319-.766-.415-.968-.545-1.108a1.25 1.25 0 0 0-.484-.323c-.18-.066-.402-.077-1.232-.077H16a.75.75 0 0 1 0-1.5h.484c.655 0 1.17-.001 1.633.17.406.15.772.393 1.066.71.336.362.533.837.785 1.443l.045.108.624 1.498.011.027c.197.473.31.743.404 1.018a8.749 8.749 0 0 1 .442 3.483c-.022.29-.063.58-.135 1.086l-.005.03-.011.08c-.103.723-.17 1.184-.301 1.585a4.75 4.75 0 0 1-3.676 3.188c-.415.074-.881.074-1.612.074H8.246c-.73 0-1.197 0-1.612-.074a4.75 4.75 0 0 1-3.676-3.188c-.132-.4-.198-.862-.3-1.585l-.012-.08-.005-.03c-.072-.507-.113-.797-.135-1.086a8.75 8.75 0 0 1 .442-3.483c.094-.275.207-.546.404-1.018l.011-.027.624-1.498.045-.108c.252-.606.45-1.08.785-1.443a2.75 2.75 0 0 1 1.066-.71c.463-.171.978-.17 1.633-.17zm-3.515 8.343a7.25 7.25 0 0 1-.014-.843h2.3c.673 0 .854.008 1.006.054.157.048.303.126.43.23.124.101.23.247.603.807l.1.15.052.078c.296.445.529.795.846 1.056.28.23.601.401.947.506.394.12.814.12 1.348.119H12.38c.535 0 .955 0 1.348-.119.346-.105.668-.277.947-.506.317-.261.55-.611.846-1.056l.052-.078.1-.15c.373-.56.48-.705.603-.807a1.25 1.25 0 0 1 .43-.23c.153-.046.333-.054 1.006-.054h2.3c.012.28.007.562-.014.843a16.15 16.15 0 0 1-.13 1.017c-.118.83-.167 1.15-.252 1.408a3.25 3.25 0 0 1-2.515 2.181c-.267.048-.59.051-1.43.051H8.328c-.839 0-1.162-.003-1.43-.05a3.25 3.25 0 0 1-2.514-2.182c-.085-.258-.134-.577-.253-1.408a16.192 16.192 0 0 1-.129-1.017z"
        fill="currentColor"
      ></path>
    </g>
  </svg>