<svg viewBox="0 0 24 24" xmlns="http://www.w3.org/2000/svg">
    <g fill="none">
      <path
        fill-rule="evenodd"
        clip-rule="evenodd"
        d="M10.58 2.25H13.42c.886 0 1.593 0 2.17.042.594.044 1.102.134 1.584.34a4.75 4.75 0 0 1 1.977 1.578c.308.425.509.9.683 1.469.169.554.325 1.243.522 2.108l.006.028.9 3.959.008.033c.133.585.209.92.258 1.26a8.75 8.75 0 0 1 .075 1.82c-.022.342-.07.682-.155 1.276l-.005.034-.02.14c-.18 1.257-.294 2.06-.613 2.723a4.75 4.75 0 0 1-2.846 2.468c-.701.223-1.513.222-2.782.222H8.817c-1.269 0-2.08 0-2.782-.222a4.75 4.75 0 0 1-2.846-2.468c-.319-.663-.434-1.466-.613-2.722l-.02-.14-.005-.035c-.084-.593-.133-.934-.155-1.276a8.75 8.75 0 0 1 .074-1.82c.05-.34.126-.675.26-1.26l.007-.033.9-3.959.006-.028c.196-.865.353-1.554.522-2.108.174-.569.375-1.044.683-1.469a4.75 4.75 0 0 1 1.977-1.577c.482-.207.99-.297 1.583-.34.578-.043 1.284-.043 2.172-.043zM8.518 3.788c-.507.037-.832.108-1.103.224a3.25 3.25 0 0 0-1.353 1.08c-.173.238-.314.54-.462 1.025-.151.496-.296 1.131-.5 2.03l-.9 3.96c-.137.6-.2.879-.24 1.143H6.38c.534 0 .955 0 1.348.119.346.105.667.277.947.507.317.26.55.61.846 1.055l.052.078.1.15c.373.56.48.705.603.807.127.104.273.182.43.23.153.046.333.054 1.006.054h.574c.673 0 .853-.008 1.006-.054.157-.048.303-.126.43-.23.123-.101.23-.247.603-.807l.1-.15.052-.078c.296-.445.529-.795.846-1.055.28-.23.601-.402.947-.507.393-.12.813-.12 1.348-.119h2.421c-.04-.264-.103-.542-.24-1.144l-.9-3.958c-.204-.9-.349-1.535-.5-2.03-.148-.487-.29-.788-.462-1.027a3.25 3.25 0 0 0-1.353-1.08c-.27-.115-.596-.186-1.103-.223-.516-.038-1.168-.038-2.09-.038h-2.783c-.923 0-1.575 0-2.091.038zM20.109 14.75h-2.396c-.673 0-.853.008-1.006.054a1.251 1.251 0 0 0-.43.23c-.123.101-.23.247-.603.807l-.1.15-.052.078c-.296.445-.529.795-.846 1.056-.28.23-.601.401-.947.506-.393.12-.813.12-1.348.119H11.62c-.534 0-.955 0-1.348-.119a2.748 2.748 0 0 1-.947-.506c-.317-.261-.55-.611-.846-1.056l-.052-.078-.1-.15c-.373-.56-.48-.705-.603-.807a1.252 1.252 0 0 0-.43-.23c-.153-.046-.333-.054-1.006-.054H3.891l.002.042c.018.277.057.556.148 1.193.207 1.445.294 1.998.5 2.425a3.25 3.25 0 0 0 1.947 1.688c.451.143 1.011.152 2.47.152h6.083c1.46 0 2.02-.009 2.471-.152a3.25 3.25 0 0 0 1.947-1.688c.206-.427.293-.98.5-2.425.09-.637.13-.916.148-1.193a5.8 5.8 0 0 0 .002-.042zM10 6.25a.75.75 0 1 0 0 1.5h4a.75.75 0 0 0 0-1.5h-4zm-2 3a.75.75 0 1 0 0 1.5h8a.75.75 0 0 0 0-1.5H8z"
        fill="currentColor"
      ></path>
    </g>
  </svg>