<svg viewBox="0 0 24 24" xmlns="http://www.w3.org/2000/svg">
    <g fill="none">
      <path
        fill-rule="evenodd"
        clip-rule="evenodd"
        d="M12.75 2a.75.75 0 0 0-1.5 0v8.19L9.53 8.47a.75.75 0 0 0-1.06 1.06l3 3a.75.75 0 0 0 1.06 0l3-3a.75.75 0 0 0-1.06-1.06l-1.72 1.72V2zM7.861 3.25h.889a.75.75 0 0 1 0 1.5h-.752c-.962 0-1.222.014-1.42.098a1.25 1.25 0 0 0-.517.403c-.129.172-.206.42-.44 1.355l-1.36 5.441c-.155.623-.223.896-.27 1.17l-.005.033h2.395c.535 0 .955 0 1.348.119.346.105.668.277.947.507.318.26.55.61.846 1.055l.052.078.1.15c.374.56.48.705.603.807.127.104.273.182.43.23.153.046.333.054 1.006.054h.575c.673 0 .853-.008 1.005-.054.157-.048.304-.126.43-.23.124-.101.23-.247.603-.807l.1-.15.052-.078c.296-.445.53-.795.847-1.055.279-.23.6-.402.947-.507.393-.12.813-.12 1.347-.119H20.013l-.005-.034c-.046-.273-.114-.546-.27-1.169l-1.36-5.441c-.233-.934-.31-1.183-.439-1.355a1.25 1.25 0 0 0-.516-.403c-.199-.084-.458-.098-1.421-.098h-.752a.75.75 0 0 1 0-1.5h.889c.757 0 1.35-.001 1.865.215.45.19.843.495 1.136.887.334.446.477 1.022.66 1.757l.034.133 1.36 5.442.008.033c.145.58.228.912.285 1.25a8.75 8.75 0 0 1 .104 2.01c-.022.342-.07.681-.155 1.273l-.005.034-.018.132c-.17 1.182-.277 1.938-.566 2.567a4.75 4.75 0 0 1-2.964 2.57c-.663.197-1.427.197-2.62.197H8.737c-1.194 0-1.958 0-2.621-.197a4.75 4.75 0 0 1-2.964-2.57c-.29-.63-.397-1.385-.565-2.567l-.02-.132-.004-.034c-.085-.592-.133-.931-.155-1.273a8.75 8.75 0 0 1 .104-2.01c.057-.338.14-.67.285-1.25l.008-.034 1.36-5.441.034-.133c.183-.735.326-1.31.66-1.757a2.75 2.75 0 0 1 1.136-.887c.515-.216 1.108-.216 1.865-.215zM3.906 14.882a7.27 7.27 0 0 1-.007-.132h2.389c.673 0 .853.008 1.005.054.157.048.304.126.43.23.124.101.23.247.603.807l.1.15.052.078c.296.445.53.795.847 1.056.279.23.6.401.947.506.393.12.813.12 1.347.119H12.382c.534 0 .954 0 1.347-.119.346-.105.668-.277.947-.506.317-.261.55-.611.846-1.056l.052-.078.1-.15c.374-.56.48-.705.603-.807.127-.104.273-.182.43-.23.153-.046.333-.054 1.006-.054H20.1a7.27 7.27 0 0 1-.007.132c-.018.276-.057.555-.148 1.19-.194 1.36-.276 1.88-.462 2.285a3.25 3.25 0 0 1-2.028 1.759c-.427.126-.954.134-2.327.134H8.871c-1.373 0-1.9-.008-2.327-.134a3.25 3.25 0 0 1-2.028-1.76c-.186-.404-.268-.925-.462-2.284-.091-.635-.13-.914-.148-1.19z"
        fill="currentColor"
      ></path>
    </g>
  </svg>