<svg viewBox="0 0 24 24" xmlns="http://www.w3.org/2000/svg">
    <g fill="none">
      <path
        fill-rule="evenodd"
        clip-rule="evenodd"
        d="M3.25 4A.75.75 0 0 1 4 3.25h16a.75.75 0 0 1 0 1.5H4A.75.75 0 0 1 3.25 4zm6 5a.75.75 0 0 1 .75-.75h10a.75.75 0 0 1 0 1.5H10A.75.75 0 0 1 9.25 9zm-6 10a.75.75 0 0 1 .75-.75h16a.75.75 0 0 1 0 1.5H4a.75.75 0 0 1-.75-.75zM10 13.25a.75.75 0 0 0 0 1.5h10a.75.75 0 0 0 0-1.5H10zM4.53 8.47a.75.75 0 0 0-1.06 1.06l1.97 1.97-1.97 1.97a.75.75 0 1 0 1.06 1.06l2.5-2.5a.75.75 0 0 0 0-1.06l-2.5-2.5z"
        fill="currentColor"
      ></path>
    </g>
  </svg>