<svg viewBox="0 0 24 24" xmlns="http://www.w3.org/2000/svg">
    <g fill="none">
      <path
        fill-rule="evenodd"
        clip-rule="evenodd"
        d="M11.25 4a.75.75 0 0 1 .75-.75h8a.75.75 0 0 1 0 1.5h-8a.75.75 0 0 1-.75-.75zm-8 15a.75.75 0 0 1 .75-.75h16a.75.75 0 0 1 0 1.5H4a.75.75 0 0 1-.75-.75zM12 8.25a.75.75 0 0 0 0 1.5h8a.75.75 0 0 0 0-1.5h-8zM4.47 3.47a.75.75 0 0 1 1.06 0l2.5 2.5a.75.75 0 0 1 0 1.06l-2.5 2.5a.75.75 0 0 1-1.06-1.06L6.44 6.5 4.47 4.53a.75.75 0 0 1 0-1.06zM4 13.25a.75.75 0 1 0 0 1.5h16a.75.75 0 0 0 0-1.5H4z"
        fill="currentColor"
      ></path>
    </g>
  </svg>