<svg viewBox="0 0 24 24" xmlns="http://www.w3.org/2000/svg">
    <g fill="none">
      <path
        fill-rule="evenodd"
        clip-rule="evenodd"
        d="M3.25 4A.75.75 0 0 1 4 3.25h16a.75.75 0 0 1 0 1.5H4A.75.75 0 0 1 3.25 4zm7 5a.75.75 0 0 1 .75-.75h9a.75.75 0 0 1 0 1.5h-9a.75.75 0 0 1-.75-.75zm-7 10a.75.75 0 0 1 .75-.75h16a.75.75 0 0 1 0 1.5H4a.75.75 0 0 1-.75-.75zM11 13.25a.75.75 0 0 0 0 1.5h9a.75.75 0 0 0 0-1.5h-9zM7.03 9.53a.75.75 0 0 0-1.06-1.06l-2.5 2.5a.75.75 0 0 0 0 1.06l2.5 2.5a.75.75 0 1 0 1.06-1.06L5.06 11.5l1.97-1.97z"
        fill="currentColor"
      ></path>
    </g>
  </svg>