<svg viewBox="0 0 24 24" xmlns="http://www.w3.org/2000/svg">
    <g fill="none">
      <path
        fill="currentColor"
        fill-rule="evenodd"
        clip-rule="evenodd"
        d="M5.95 2h-.03c-.53 0-.98 0-1.34.03a2.68 2.68 0 0 0-2.55 2.55C2 4.94 2 5.38 2 5.92v1.16c0 .53 0 .98.03 1.34a2.68 2.68 0 0 0 2.55 2.55c.36.03.8.03 1.34.03h1.16c.53 0 .98 0 1.34-.03a2.68 2.68 0 0 0 2.55-2.55c.03-.36.03-.8.03-1.34V5.92c0-.53 0-.98-.03-1.34-.03-.38-.1-.74-.27-1.08a2.75 2.75 0 0 0-1.2-1.2 2.8 2.8 0 0 0-1.08-.27C8.06 2 7.62 2 7.08 2H5.95ZM4.18 3.64c.1-.05.23-.1.52-.12.3-.02.68-.02 1.25-.02h1.1c.57 0 .96 0 1.25.02.29.03.43.07.52.12.23.12.42.3.54.54.05.1.1.23.12.52.02.3.02.68.02 1.25v1.1c0 .57 0 .96-.02 1.25-.03.29-.07.43-.12.52-.12.23-.3.42-.54.54-.1.05-.23.1-.52.12-.3.02-.68.02-1.25.02h-1.1c-.57 0-.96 0-1.25-.02a1.36 1.36 0 0 1-.52-.12 1.25 1.25 0 0 1-.54-.54c-.05-.1-.1-.23-.12-.52-.02-.3-.02-.68-.02-1.25v-1.1c0-.57 0-.96.02-1.25.03-.29.07-.43.12-.52.12-.23.3-.42.54-.54ZM5.95 13h-.03c-.53 0-.98 0-1.34.03a2.68 2.68 0 0 0-2.55 2.55c-.03.36-.03.8-.03 1.34v1.16c0 .53 0 .98.03 1.34a2.68 2.68 0 0 0 2.55 2.55c.36.03.8.03 1.34.03h1.16c.53 0 .98 0 1.34-.03a2.68 2.68 0 0 0 2.55-2.55c.03-.36.03-.8.03-1.34v-1.16c0-.53 0-.98-.03-1.34-.03-.38-.1-.74-.27-1.08a2.75 2.75 0 0 0-1.2-1.2c-.34-.17-.7-.24-1.08-.27-.36-.03-.8-.03-1.34-.03H5.95Zm-1.77 1.64c.1-.05.23-.1.52-.12.3-.02.68-.02 1.25-.02h1.1c.57 0 .96 0 1.25.02.29.03.43.07.52.12.23.12.42.3.54.54.05.1.1.23.12.52.02.3.02.68.02 1.25v1.1c0 .57 0 .96-.02 1.25-.03.29-.07.43-.12.52-.12.23-.3.42-.54.54-.1.05-.23.1-.52.12-.3.02-.68.02-1.25.02h-1.1c-.57 0-.96 0-1.25-.02a1.36 1.36 0 0 1-.52-.12 1.25 1.25 0 0 1-.54-.54c-.05-.1-.1-.23-.12-.52-.02-.3-.02-.68-.02-1.25v-1.1c0-.57 0-.96.02-1.25.03-.29.07-.43.12-.52.12-.23.3-.42.54-.54ZM16.92 13h1.16c.53 0 .98 0 1.34.03a2.68 2.68 0 0 1 2.55 2.55c.03.36.03.8.03 1.34v1.16c0 .53 0 .98-.03 1.34a2.68 2.68 0 0 1-2.55 2.55c-.36.03-.8.03-1.34.03h-1.16c-.53 0-.98 0-1.34-.03-.38-.03-.74-.1-1.08-.27a2.75 2.75 0 0 1-1.2-1.2c-.17-.34-.24-.7-.27-1.08-.03-.36-.03-.8-.03-1.34v-1.16c0-.53 0-.98.03-1.34a2.68 2.68 0 0 1 2.55-2.55c.36-.03.8-.03 1.34-.03Zm-1.22 1.52c-.29.03-.43.07-.52.12-.23.12-.42.3-.54.54-.05.1-.1.23-.12.52-.02.3-.02.68-.02 1.25v1.1c0 .57 0 .96.02 1.25.03.29.07.43.12.52.12.23.3.42.54.54.1.05.23.1.52.12.3.02.68.02 1.25.02h1.1c.57 0 .96 0 1.25-.02.29-.03.43-.07.52-.12.23-.12.42-.3.54-.54.05-.1.1-.23.12-.52.02-.3.02-.68.02-1.25v-1.1c0-.57 0-.96-.02-1.25a1.36 1.36 0 0 0-.12-.52 1.25 1.25 0 0 0-.54-.54c-.1-.05-.23-.1-.52-.12-.3-.02-.68-.02-1.25-.02h-1.1c-.57 0-.96 0-1.25.02Zm2.55-11.77a.75.75 0 0 0-1.5 0v3h-3a.75.75 0 0 0 0 1.5h3v3a.75.75 0 0 0 1.5 0v-3h3a.75.75 0 0 0 0-1.5h-3v-3Z"/>
    </g>
  </svg>