<svg viewBox="0 0 24 24" xmlns="http://www.w3.org/2000/svg">
    <g fill="none">
      <path
        fill-rule="evenodd"
        clip-rule="evenodd"
        d="M3.372 2.349A.75.75 0 0 0 2.25 3v13.232c0 .813 0 1.469.043 2 .045.546.14 1.026.366 1.47a3.75 3.75 0 0 0 1.639 1.64c.444.226.924.32 1.47.365.531.043 1.187.043 2 .043H19A2.75 2.75 0 0 0 21.75 19v-7a.75.75 0 0 0-.75-.75h-3.25V3a.75.75 0 0 0-1.122-.651L13.5 4.136 10.372 2.35a.75.75 0 0 0-.744 0L6.5 4.136 3.372 2.35zM16.25 12V4.292l-2.378 1.36a.75.75 0 0 1-.744 0L10 3.863 6.872 5.65a.75.75 0 0 1-.744 0L3.75 4.292V16.2c0 .852 0 1.447.038 1.91.037.453.107.714.207.912.216.423.56.767.984.983.197.1.458.17.912.207.462.037 1.057.038 1.909.038h8.75c-.192-.375-.3-.8-.3-1.25v-7zM19 20.25c.69 0 1.25-.56 1.25-1.25v-6.25h-2.5V19c0 .69.56 1.25 1.25 1.25zm-8.25-11V9a.75.75 0 0 0-1.5 0v.264a2.25 2.25 0 0 0 .25 4.486h1a.75.75 0 0 1 0 1.5H8a.75.75 0 0 0 0 1.5h1.25V17a.75.75 0 0 0 1.5 0v-.264a2.25 2.25 0 0 0-.25-4.486h-1a.75.75 0 0 1 0-1.5H12a.75.75 0 0 0 0-1.5h-1.25z"
        fill="currentColor"
      ></path>
    </g>
  </svg>