<svg
   
   
    viewBox="0 0 20 20"
    xmlns="http://www.w3.org/2000/svg"
  >
    <path
      fill-rule="evenodd"
      clip-rule="evenodd"
      d="M15.9163 4.16699C15.9163 3.66084 15.5064 3.25018 15.0002 3.25C14.494 3.25 14.0833 3.66073 14.0833 4.16699C14.0834 4.6731 14.4941 5.08301 15.0002 5.08301C15.5062 5.08283 15.9161 4.673 15.9163 4.16699ZM17.4163 4.16699C17.4161 5.50142 16.3347 6.58283 15.0002 6.58301C13.6657 6.58301 12.5834 5.50153 12.5833 4.16699C12.5833 2.8323 13.6656 1.75 15.0002 1.75C16.3348 1.75018 17.4163 2.83241 17.4163 4.16699ZM5.91626 15.8337C5.91626 15.3275 5.50636 14.9168 5.00024 14.9167C4.49398 14.9167 4.08325 15.3274 4.08325 15.8337C4.08343 16.3398 4.49409 16.7497 5.00024 16.7497C5.50625 16.7495 5.91608 16.3397 5.91626 15.8337ZM7.29775 16.583C6.98239 17.5505 6.07309 18.2495 5.00024 18.2497C3.66566 18.2497 2.58343 17.1682 2.58325 15.8337C2.58325 14.499 3.66556 13.4167 5.00024 13.4167C6.07275 13.4168 6.98182 14.1158 7.29745 15.083H13.7502C14.9466 15.0828 15.9161 14.1134 15.9163 12.917C15.9163 11.7205 14.9467 10.7502 13.7502 10.75H6.25024C4.2252 10.75 2.58325 9.10805 2.58325 7.08301C2.58343 5.05811 4.22531 3.41699 6.25024 3.41699H8.1897L7.80298 3.03027C7.51009 2.73738 7.51009 2.26262 7.80298 1.96973C8.09587 1.67683 8.57063 1.67683 8.86353 1.96973L10.5305 3.63672C10.8231 3.92964 10.8233 4.40448 10.5305 4.69727L8.86353 6.36328C8.57063 6.65617 8.09587 6.65617 7.80298 6.36328C7.51025 6.07037 7.51014 5.59557 7.80298 5.30273L8.18872 4.91699H6.25024C5.05374 4.91699 4.08343 5.88654 4.08325 7.08301C4.08325 8.27963 5.05363 9.25 6.25024 9.25H13.7502C15.7751 9.25018 17.4163 10.8921 17.4163 12.917C17.4161 14.9418 15.775 16.5828 13.7502 16.583H7.29775Z"
      fill="black"
    />
  </svg>