<svg viewBox="0 0 24 24" xmlns="http://www.w3.org/2000/svg">
    <g fill="none">
      <path
        fill-rule="evenodd"
        clip-rule="evenodd"
        d="M6.2 4.25h-.03c-.535 0-.98 0-1.345.03-.38.03-.736.098-1.073.27A2.75 2.75 0 0 0 2.55 5.752c-.172.337-.24.693-.27 1.073-.03.365-.03.81-.03 1.345v8.08h-.917c-.598 0-1.083.485-1.083 1.083a3.417 3.417 0 0 0 3.417 3.417h16.666a3.417 3.417 0 0 0 3.417-3.417c0-.598-.485-1.083-1.083-1.083h-.917V8.17c0-.535 0-.98-.03-1.345-.03-.38-.098-.736-.27-1.073A2.75 2.75 0 0 0 20.25 4.55c-.338-.172-.694-.24-1.074-.27-.365-.03-.81-.03-1.345-.03H6.2zm14.05 12V8.2c0-.572 0-.957-.025-1.253-.023-.287-.065-.424-.111-.514a1.25 1.25 0 0 0-.547-.547c-.09-.046-.227-.088-.515-.111-.295-.024-.68-.025-1.252-.025H6.2c-.572 0-.957 0-1.253.025-.287.023-.424.065-.514.111a1.25 1.25 0 0 0-.547.547c-.046.09-.088.227-.111.514-.024.296-.025.68-.025 1.253v8.05h16.5zM3 17.75H1.795c.19.858.956 1.5 1.872 1.5h16.666c.916 0 1.681-.642 1.872-1.5H3z"
        fill="currentColor"
      ></path>
    </g>
  </svg>