<svg viewBox="0 0 24 24" xmlns="http://www.w3.org/2000/svg">
    <g fill="none">
      <path
        fill-rule="evenodd"
        clip-rule="evenodd"
        d="M11.695 2.315a.75.75 0 0 1 .61 0l9 4a.75.75 0 0 1 0 1.37l-9 4a.75.75 0 0 1-.61 0l-9-4a.75.75 0 0 1 0-1.37l9-4zM4.847 7L12 10.18 19.153 7 12 3.82 4.847 7zm-2.532 4.695a.75.75 0 0 1 .99-.38L12 15.179l8.695-3.864a.75.75 0 0 1 .61 1.37l-9 4a.75.75 0 0 1-.61 0l-9-4a.75.75 0 0 1-.38-.99zm.99 4.62a.75.75 0 0 0-.61 1.37l9 4a.75.75 0 0 0 .61 0l9-4a.75.75 0 0 0-.61-1.37L12 20.179l-8.695-3.864z"
        fill="currentColor"
      ></path>
    </g>
  </svg>