<svg viewBox="0 0 24 24" xmlns="http://www.w3.org/2000/svg">
    <g fill="none">
      <path
        fill-rule="evenodd"
        clip-rule="evenodd"
        d="M8 3.25a.75.75 0 0 0 0 1.5h3.25V12a.75.75 0 0 0 1.5 0V4.75H16a.75.75 0 0 0 0-1.5H8zm13.53 15.28a.75.75 0 0 0 0-1.06l-2.5-2.5a.75.75 0 1 0-1.06 1.06l1.22 1.22H4.81l1.22-1.22a.75.75 0 1 0-1.06-1.06l-2.5 2.5a.75.75 0 0 0 0 1.06l2.5 2.5a.75.75 0 0 0 1.06-1.06l-1.22-1.22h14.38l-1.22 1.22a.75.75 0 1 0 1.06 1.06l2.5-2.5z"
        fill="currentColor"
      ></path>
    </g>
  </svg>