<svg viewBox="0 0 24 24" xmlns="http://www.w3.org/2000/svg">
    <g fill="none">
      <path
        fill-rule="evenodd"
        clip-rule="evenodd"
        d="M5.854 4.339A.75.75 0 0 1 6.25 5v4.25H7a.75.75 0 0 1 0 1.5H4a.75.75 0 0 1 0-1.5h.75V6.401l-.334.223a.75.75 0 0 1-.832-1.248l1.5-1a.75.75 0 0 1 .77-.037zM11 4.25a.75.75 0 0 0 0 1.5h10a.75.75 0 0 0 0-1.5H11zM10.25 12a.75.75 0 0 1 .75-.75h10a.75.75 0 0 1 0 1.5H11a.75.75 0 0 1-.75-.75zm0 7a.75.75 0 0 1 .75-.75h10a.75.75 0 0 1 0 1.5H11a.75.75 0 0 1-.75-.75zM4 13.25a.75.75 0 0 0 0 1.5h2.25v1H4a.75.75 0 0 0-.75.75V19c0 .414.336.75.75.75h3a.75.75 0 1 0 0-1.5H4.75v-1H7a.75.75 0 0 0 .75-.75V14a.75.75 0 0 0-.75-.75H4z"
        fill="currentColor"
      ></path>
    </g>
  </svg>