<svg viewBox="0 0 24 24" xmlns="http://www.w3.org/2000/svg">
    <g fill="none">
      <path
        fill-rule="evenodd"
        clip-rule="evenodd"
        d="M5 2.25a.75.75 0 1 0 0 1.5h.25v2.5H5a.75.75 0 0 0 0 1.5h2a.75.75 0 0 0 0-1.5h-.25V3A.75.75 0 0 0 6 2.25H5zM10.25 5a.75.75 0 0 1 .75-.75h10a.75.75 0 0 1 0 1.5H11a.75.75 0 0 1-.75-.75zm.75 6.25a.75.75 0 0 0 0 1.5h10a.75.75 0 0 0 0-1.5H11zm0 7a.75.75 0 0 0 0 1.5h10a.75.75 0 0 0 0-1.5H11zM4.25 10A.75.75 0 0 1 5 9.25h2a.75.75 0 0 1 .67 1.085L6.214 13.25H7a.75.75 0 1 1 0 1.5H5a.75.75 0 0 1-.67-1.085l1.456-2.915H5a.75.75 0 0 1-.75-.75zM5 16.25a.75.75 0 0 0 0 1.5h1.25v.5H5a.75.75 0 0 0 0 1.5h1.25v.5H5a.75.75 0 0 0 0 1.5h2a.75.75 0 0 0 .75-.75v-4a.75.75 0 0 0-.75-.75H5z"
        fill="currentColor"
      ></path>
    </g>
  </svg>