<svg viewBox="0 0 24 24" xmlns="http://www.w3.org/2000/svg">
    <g fill="none">
      <path
        fill-rule="evenodd"
        clip-rule="evenodd"
        d="M3.8 2.25h-.02c-.122 0-.255 0-.37.01-.13.01-.3.036-.477.126a1.25 1.25 0 0 0-.547.547c-.09.176-.116.348-.127.478a4.75 4.75 0 0 0-.009.369v2.44c0 .122 0 .255.01.37.01.13.036.3.126.477.12.236.311.427.547.547.176.09.348.116.478.127.114.01.247.009.369.009h2.44c.122 0 .255 0 .37-.01.13-.01.3-.036.477-.126a1.25 1.25 0 0 0 .547-.547c.09-.176.116-.348.127-.478.01-.114.009-.247.009-.369V3.78c0-.122 0-.255-.01-.37a1.259 1.259 0 0 0-.126-.477 1.25 1.25 0 0 0-.547-.547 1.259 1.259 0 0 0-.478-.127 4.75 4.75 0 0 0-.369-.009H3.8zM3.75 3.8v-.05H6.25V6.25H3.75V3.8zm6.5 1.2a.75.75 0 0 1 .75-.75h10a.75.75 0 0 1 0 1.5H11a.75.75 0 0 1-.75-.75zm.75 6.25a.75.75 0 0 0 0 1.5h10a.75.75 0 0 0 0-1.5H11zm0 7a.75.75 0 0 0 0 1.5h10a.75.75 0 0 0 0-1.5H11zm-7.22-9h2.44c.122 0 .255 0 .37.01.13.01.3.036.477.126.236.12.427.311.547.547.09.176.116.348.127.478.01.114.009.247.009.369v2.44c0 .122 0 .255-.01.37-.01.13-.036.3-.126.478a1.25 1.25 0 0 1-.547.546c-.176.09-.348.116-.478.127-.114.01-.247.009-.369.009H3.78c-.122 0-.255 0-.37-.01a1.259 1.259 0 0 1-.477-.126 1.25 1.25 0 0 1-.547-.546 1.259 1.259 0 0 1-.127-.479 4.751 4.751 0 0 1-.009-.369v-2.44c0-.122 0-.255.01-.37.01-.13.036-.3.126-.477a1.25 1.25 0 0 1 .547-.547c.176-.09.348-.116.478-.127.114-.01.247-.009.369-.009zm-.03 1.5V13.25H6.25V10.75H3.75zm.05 5.5h-.02c-.122 0-.255 0-.37.01-.13.01-.3.036-.477.126a1.25 1.25 0 0 0-.547.547c-.09.176-.116.348-.127.477-.01.115-.009.248-.009.37v2.44c0 .122 0 .255.01.37.01.13.036.3.126.477.12.236.311.427.547.547.176.09.348.116.478.127.114.01.247.009.369.009h2.44c.122 0 .255 0 .37-.01.13-.01.3-.036.477-.126a1.25 1.25 0 0 0 .547-.547c.09-.176.116-.348.127-.477.01-.115.009-.248.009-.37v-2.44c0-.122 0-.255-.01-.37a1.259 1.259 0 0 0-.126-.477 1.25 1.25 0 0 0-.547-.547 1.259 1.259 0 0 0-.478-.127c-.114-.01-.247-.009-.369-.009H3.8zm-.05 1.55v-.05H6.25V20.25H3.75V17.8z"
        fill="currentColor"
      ></path>
    </g>
  </svg>