<svg viewBox="0 0 24 24" xmlns="http://www.w3.org/2000/svg">
    <g fill="none">
      <path
        fill-rule="evenodd"
        clip-rule="evenodd"
        d="M3.75 5a1.25 1.25 0 1 1 2.5 0 1.25 1.25 0 0 1-2.5 0zM5 2.25a2.75 2.75 0 1 0 0 5.5 2.75 2.75 0 0 0 0-5.5zM10.25 5a.75.75 0 0 1 .75-.75h10a.75.75 0 0 1 0 1.5H11a.75.75 0 0 1-.75-.75zm.75 6.25a.75.75 0 0 0 0 1.5h10a.75.75 0 0 0 0-1.5H11zm0 7a.75.75 0 0 0 0 1.5h10a.75.75 0 0 0 0-1.5H11zm-6-7.5a1.25 1.25 0 1 0 0 2.5 1.25 1.25 0 0 0 0-2.5zM2.25 12a2.75 2.75 0 1 1 5.5 0 2.75 2.75 0 0 1-5.5 0zm1.5 7a1.25 1.25 0 1 1 2.5 0 1.25 1.25 0 0 1-2.5 0zM5 16.25a2.75 2.75 0 1 0 0 5.5 2.75 2.75 0 0 0 0-5.5z"
        fill="currentColor"
      ></path>
    </g>
  </svg>