<svg viewBox="0 0 24 24" xmlns="http://www.w3.org/2000/svg">
    <g fill="none">
      <path
        fill-rule="evenodd"
        clip-rule="evenodd"
        d="M4.03 2.97a.75.75 0 0 0-1.06 1.06l.97.97-.97.97a.75.75 0 0 0 1.06 1.06L5 6.06l.97.97a.75.75 0 0 0 1.06-1.06L6.06 5l.97-.97a.75.75 0 0 0-1.06-1.06L5 3.94l-.97-.97zM10.25 5a.75.75 0 0 1 .75-.75h10a.75.75 0 0 1 0 1.5H11a.75.75 0 0 1-.75-.75zm.75 6.25a.75.75 0 0 0 0 1.5h10a.75.75 0 0 0 0-1.5H11zm0 7a.75.75 0 0 0 0 1.5h10a.75.75 0 0 0 0-1.5H11zM2.97 9.97a.75.75 0 0 1 1.06 0l.97.97.97-.97a.75.75 0 0 1 1.06 1.06l-.97.97.97.97a.75.75 0 1 1-1.06 1.06L5 13.06l-.97.97a.75.75 0 0 1-1.06-1.06l.97-.97-.97-.97a.75.75 0 0 1 0-1.06zm1.06 7a.75.75 0 0 0-1.06 1.06l.97.97-.97.97a.75.75 0 1 0 1.06 1.06l.97-.97.97.97a.75.75 0 0 0 1.06-1.06L6.06 19l.97-.97a.75.75 0 1 0-1.06-1.06l-.97.97-.97-.97z"
        fill="currentColor"
      ></path>
    </g>
  </svg>