<svg viewBox="0 0 24 24" xmlns="http://www.w3.org/2000/svg">
    <g fill="none">
      <path
        fill-rule="evenodd"
        clip-rule="evenodd"
        d="M1 1.25h.5V2v-.75a3.664 3.664 0 0 1 3.621 3.107l.994 6.459c.113.733.192 1.242.284 1.637.09.385.18.607.29.777.234.358.566.643.956.82.184.083.417.139.812.169.292.022.642.028 1.093.03-.172-.338-.24-.694-.27-1.074-.03-.365-.03-.81-.03-1.345V10.17c0-.535 0-.98.03-1.345.03-.38.098-.736.27-1.073A2.75 2.75 0 0 1 10.75 6.55c.338-.172.694-.24 1.074-.27.365-.03.81-.03 1.345-.03H16.83c.535 0 .98 0 1.345.03.38.03.736.098 1.073.27a2.75 2.75 0 0 1 1.202 1.202c.172.337.24.693.27 1.073.03.365.03.81.03 1.345V11.83c0 .535 0 .98-.03 1.345-.03.38-.098.736-.27 1.073v.002H22a.75.75 0 0 1 0 1.5H10.088c-.705 0-1.277 0-1.745-.036-.483-.036-.91-.114-1.317-.298a3.75 3.75 0 0 1-1.593-1.367c-.244-.373-.385-.784-.495-1.256-.107-.457-.194-1.022-.301-1.72l-.004-.029-.994-6.459A2.164 2.164 0 0 0 1.5 2.75H1a.75.75 0 1 1 0-1.5zm15.8 13c.572 0 .957 0 1.252-.025.288-.023.425-.065.515-.111a1.25 1.25 0 0 0 .547-.546c.046-.091.088-.228.111-.515.024-.296.025-.68.025-1.253v-1.6c0-.572 0-.957-.025-1.253-.023-.287-.065-.424-.111-.514a1.25 1.25 0 0 0-.547-.547c-.09-.046-.227-.088-.515-.111-.295-.024-.68-.025-1.252-.025h-3.6c-.572 0-.957 0-1.252.025-.288.023-.425.065-.516.111a1.25 1.25 0 0 0-.546.547c-.046.09-.088.227-.111.514-.024.296-.025.68-.025 1.253v1.6c0 .572 0 .957.025 1.252.023.288.065.425.111.516.12.235.311.426.546.546.091.046.228.088.515.111.296.024.68.025 1.253.025h3.6zM7.75 20a1.25 1.25 0 1 1 2.5 0 1.25 1.25 0 0 1-2.5 0zM9 17.25a2.75 2.75 0 1 0 0 5.5 2.75 2.75 0 0 0 0-5.5zM17.75 20a1.25 1.25 0 1 1 2.5 0 1.25 1.25 0 0 1-2.5 0zM19 17.25a2.75 2.75 0 1 0 0 5.5 2.75 2.75 0 0 0 0-5.5z"
        fill="currentColor"
      ></path>
    </g>
  </svg>