<svg viewBox="0 0 16 16" fill="none" xmlns="http://www.w3.org/2000/svg">
    <circle cx="8" cy="8" r="2" :stroke="fill" stroke-width="1.5" stroke-linecap="round" stroke-linejoin="round"/>
    <path fill="currentColor" fill-rule="evenodd" clip-rule="evenodd" d="M5.08268 1.6665C5.08268 1.25229 4.74689 0.916504 4.33268 0.916504H1.66602C1.2518 0.916504 0.916016 1.25229 0.916016 1.6665V4.33317C0.916016 4.74738 1.2518 5.08317 1.66602 5.08317C2.08023 5.08317 2.41602 4.74738 2.41602 4.33317V3.47716L4.5112 5.57226C4.79921 5.15914 5.15872 4.79959 5.57179 4.51153L3.47668 2.4165H4.33268C4.74689 2.4165 5.08268 2.08072 5.08268 1.6665ZM6.65891 5.5986C6.21485 5.84713 5.84679 6.21525 5.59835 6.65936L5.96952 7.03051C6.26242 7.32339 6.7373 7.32338 7.03018 7.03047C7.32306 6.73757 7.32304 6.2627 7.03014 5.96981L6.65891 5.5986ZM7.24983 12.184V14.3333C7.24983 14.7475 7.58562 15.0833 7.99983 15.0833C8.41404 15.0833 8.74983 14.7475 8.74983 14.3333V12.1841C8.50643 12.2274 8.25585 12.25 8 12.25C7.74403 12.25 7.49334 12.2274 7.24983 12.184ZM8.74983 10.6465C8.51146 10.7139 8.25994 10.75 8 10.75C7.73993 10.75 7.4883 10.7139 7.24983 10.6464V10C7.24983 9.58579 7.58562 9.25 7.99983 9.25C8.41404 9.25 8.74983 9.58579 8.74983 10V10.6465ZM10.4015 6.65913L10.0302 7.03049C9.73727 7.32339 9.26239 7.32339 8.9695 7.03049C8.67661 6.7376 8.67661 6.26273 8.9695 5.96983L9.34086 5.59847C9.78494 5.84696 10.153 6.21505 10.4015 6.65913ZM11.4886 5.57202C11.2006 5.15893 10.8411 4.79939 10.428 4.51136L12.5228 2.4165H11.6668C11.2526 2.4165 10.9168 2.08072 10.9168 1.6665C10.9168 1.25229 11.2526 0.916504 11.6668 0.916504H14.3335C14.7477 0.916504 15.0835 1.25229 15.0835 1.6665V4.33317C15.0835 4.74738 14.7477 5.08317 14.3335 5.08317C13.9193 5.08317 13.5835 4.74738 13.5835 4.33317V3.47716L11.4886 5.57202Z"/>
  </svg>