<svg viewBox="0 0 24 24" xmlns="http://www.w3.org/2000/svg">
    <g fill="none">
      <path
        fill-rule="evenodd"
        clip-rule="evenodd"
        d="M12.8 2.75c.572 0 .957 0 1.252.025.288.023.425.065.516.111.235.12.426.311.546.547.046.09.088.227.111.514.024.296.025.68.025 1.253v2.06c-.476-.01-1.012-.01-1.617-.01H12a.75.75 0 0 0 0 1.5h1.6c1.133 0 1.937 0 2.566.052.62.05 1.005.147 1.31.302a3.25 3.25 0 0 1 1.42 1.42c.155.305.251.69.302 1.31.051.63.052 1.434.052 2.566V16a.75.75 0 0 0 1.5 0v-1.633c0-1.092 0-1.958-.057-2.655-.058-.714-.18-1.317-.46-1.868a4.75 4.75 0 0 0-2.076-2.076c-.429-.218-.889-.34-1.407-.411V5.17c0-.535 0-.98-.03-1.345-.03-.38-.098-.736-.27-1.073A2.75 2.75 0 0 0 15.25 1.55c-.338-.172-.694-.24-1.074-.27-.365-.03-.81-.03-1.345-.03H9.5A2.25 2.25 0 0 0 7.25 3.5V4a.75.75 0 0 0 1.5 0v-.5a.75.75 0 0 1 .75-.75h3.3zm-9.27-.28a.75.75 0 0 0-1.06 1.06l3.978 3.98A4.752 4.752 0 0 0 3.25 12v3.633c0 1.092 0 1.958.057 2.655.058.714.18 1.317.46 1.869a4.75 4.75 0 0 0 2.077 2.075c.55.281 1.154.403 1.868.461.697.057 1.563.057 2.655.057H15.443c.888 0 1.461 0 2.009-.131a4.75 4.75 0 0 0 1.373-.569c.388-.238.727-.548 1.174-.99l1.47 1.47a.75.75 0 1 0 1.061-1.06l-2-2-12-12-5-5zM4.75 12a3.25 3.25 0 0 1 2.953-3.237L18.938 20c-.43.425-.653.623-.897.772-.29.178-.608.31-.94.39-.353.084-.738.089-1.752.089H10.4c-1.132 0-1.937 0-2.566-.052-.62-.05-1.005-.147-1.31-.302a3.25 3.25 0 0 1-1.42-1.42c-.155-.305-.251-.69-.302-1.31-.051-.63-.052-1.433-.052-2.566V12z"
        fill="currentColor"
      ></path>
    </g>
  </svg>