<svg viewBox="0 0 24 24" xmlns="http://www.w3.org/2000/svg">
    <g fill="none">
      <path
        fill-rule="evenodd"
        clip-rule="evenodd"
        d="M15.2 3.75c.852 0 1.447 0 1.91.038.453.037.714.107.912.207.423.216.767.56.983.984.1.197.17.458.207.912.037.462.038 1.057.038 1.909v8.4c0 .852 0 1.447-.038 1.91-.038.453-.107.714-.207.912-.216.423-.56.767-.983.983-.198.1-.459.17-.913.207-.462.037-1.057.038-1.909.038H14a.75.75 0 0 0 0 1.5h1.232c.813 0 1.469 0 2-.043.546-.045 1.026-.14 1.47-.366a3.75 3.75 0 0 0 1.64-1.639c.226-.444.32-.924.365-1.47.043-.531.043-1.187.043-2V7.768c0-.813 0-1.469-.043-2-.045-.546-.14-1.026-.366-1.47a3.75 3.75 0 0 0-1.639-1.64c-.444-.226-.924-.32-1.47-.365-.531-.043-1.187-.043-2-.043H14a.75.75 0 0 0 0 1.5h1.2zM9.53 7.47a.75.75 0 0 0-1.06 1.06l2.72 2.72H4a.75.75 0 0 0 0 1.5h7.19l-2.72 2.72a.75.75 0 1 0 1.06 1.06l4-4a.75.75 0 0 0 0-1.06l-4-4z"
        fill="currentColor"
      ></path>
    </g>
  </svg>