<svg viewBox="0 0 24 24" xmlns="http://www.w3.org/2000/svg">
    <g fill="none">
      <path
        fill-rule="evenodd"
        clip-rule="evenodd"
        d="M21.383 2.355A.75.75 0 0 1 21.75 3v14.727a.75.75 0 0 1-.39.659l-6 3.272a.75.75 0 0 1-.72 0L9 18.582l-5.64 3.076A.75.75 0 0 1 2.25 21V6.273a.75.75 0 0 1 .39-.659l6-3.272a.75.75 0 0 1 .72 0L15 5.418l5.64-3.076a.75.75 0 0 1 .743.013zM14.25 6.718l-4.5-2.455v13.019l4.5 2.455V6.718zm1.5 13.019l4.5-2.455V4.263l-4.5 2.455v13.019zm-7.5-2.455V4.263l-4.5 2.455v13.019l4.5-2.455z"
        fill="currentColor"
      ></path>
    </g>
  </svg>