<svg viewBox="0 0 24 24" xmlns="http://www.w3.org/2000/svg">
    <g fill="none">
      <path
        fill-rule="evenodd"
        clip-rule="evenodd"
        d="M4.25 5A.75.75 0 0 1 5 4.25h6a.75.75 0 0 1 0 1.5H6.81l2.22 2.22 1.5 1.5a.75.75 0 1 1-1.06 1.06l-1.5-1.5-2.22-2.22V11a.75.75 0 0 1-1.5 0V5zM19 12.25a.75.75 0 0 1 .75.75v6a.75.75 0 0 1-.75.75h-6a.75.75 0 0 1 0-1.5h4.19l-2.22-2.22-1.5-1.5a.75.75 0 1 1 1.06-1.06l1.5 1.5 2.22 2.22V13a.75.75 0 0 1 .75-.75z"
        fill="currentColor"
      ></path>
    </g>
  </svg>