<svg viewBox="0 0 24 24" xmlns="http://www.w3.org/2000/svg">
    <g fill="none">
      <path
        fill-rule="evenodd"
        clip-rule="evenodd"
        d="M10.4 2.25h-.104c-.78 0-1.32 0-1.826.144a3.75 3.75 0 0 0-1.237.619c-.42.318-.743.75-1.211 1.374l-.062.083-.6.8-.041.055c-.317.422-.537.714-.695 1.042a3.75 3.75 0 0 0-.304.914c-.07.357-.07.723-.07 1.25v7.701c0 .813 0 1.469.043 2 .045.546.14 1.026.366 1.47a3.75 3.75 0 0 0 1.638 1.64c.445.226.925.32 1.471.365.531.043 1.187.043 2 .043h4.464c.813 0 1.468 0 2-.043.546-.045 1.026-.14 1.47-.366a3.75 3.75 0 0 0 1.64-1.639c.226-.444.32-.924.364-1.47.044-.531.044-1.187.044-2V7.768c0-.813 0-1.469-.044-2-.044-.546-.139-1.026-.365-1.47a3.75 3.75 0 0 0-1.639-1.64c-.444-.226-.924-.32-1.47-.365-.532-.043-1.187-.043-2-.043H10.4zM8.882 3.837c.28-.08.594-.087 1.518-.087h3.8c.852 0 1.447 0 1.91.038.453.038.714.107.911.207.424.216.768.56.984.984.1.197.17.458.207.912.037.462.038 1.057.038 1.909v8.4c0 .852 0 1.447-.038 1.91-.038.453-.107.714-.207.912a2.25 2.25 0 0 1-.984.983c-.197.1-.458.17-.912.207-.463.038-1.057.038-1.91.038H9.8c-.852 0-1.446 0-1.908-.038-.454-.037-.715-.107-.913-.207a2.25 2.25 0 0 1-.983-.983c-.1-.198-.17-.459-.207-.913-.038-.462-.038-1.057-.038-1.909V8.6c0-.622.003-.834.042-1.032a2.25 2.25 0 0 1 .182-.548c.088-.18.213-.352.586-.85l.6-.8c.554-.739.748-.987.98-1.162a2.25 2.25 0 0 1 .742-.371zM9.75 9a.75.75 0 0 0-1.5 0v2a.75.75 0 1 0 1.5 0V9zM15 6.25a.75.75 0 0 1 .75.75v4a.75.75 0 1 1-1.5 0V7a.75.75 0 0 1 .75-.75zM12.75 7a.75.75 0 0 0-1.5 0v4a.75.75 0 1 0 1.5 0V7z"
        fill="currentColor"
      ></path>
    </g>
  </svg>