<!-- <svg viewBox="0 0 24 24" xmlns="http://www.w3.org/2000/svg">
    <g fill="none">
      <path
        fill-rule="evenodd"
        clip-rule="evenodd"
        d="M4.171 5.421c-.37.292-.421.493-.421.579 0 .07.03.205.23.41.204.207.54.435 1.024.66.967.447 2.382.814 4.084 1.014a.75.75 0 0 1 .662.745v5.513c.722-.06 1.475-.092 2.25-.092.775 0 1.528.032 2.25.092V8.829c0-.38.285-.7.662-.745 1.702-.2 3.117-.567 4.083-1.014.485-.225.82-.453 1.024-.66.201-.205.231-.34.231-.41 0-.086-.052-.287-.422-.579-.361-.285-.93-.574-1.701-.83-1.534-.512-3.7-.841-6.127-.841-2.427 0-4.593.329-6.127.84-.77.257-1.34.546-1.702.831zM20.25 8.103a6.751 6.751 0 0 1-.624.328c-1.015.47-2.355.83-3.876 1.055V19.97c1.33-.211 2.442-.527 3.245-.9.485-.224.82-.452 1.024-.66.201-.204.231-.34.231-.409V8.103zM21.75 6v12c0 .584-.283 1.077-.661 1.461-.375.382-.885.702-1.463.97-1.16.537-2.744.932-4.538 1.143a.75.75 0 0 1-.838-.745v-4.982A25.554 25.554 0 0 0 12 15.75c-.78 0-1.534.034-2.25.097v4.982a.75.75 0 0 1-.838.745c-1.794-.211-3.379-.606-4.538-1.144-.578-.267-1.088-.587-1.463-.969-.378-.384-.661-.877-.661-1.461V6c0-.743.452-1.33.993-1.757.55-.433 1.298-.79 2.156-1.076C7.123 2.593 9.457 2.25 12 2.25s4.877.343 6.601.917c.858.286 1.607.643 2.156 1.076.54.426.993 1.014.993 1.757zm-18 2.103V18c0 .07.03.205.23.41.204.207.54.435 1.024.66.804.372 1.917.688 3.246.899V9.486c-1.521-.224-2.861-.585-3.876-1.055a6.747 6.747 0 0 1-.624-.328z"
        fill="currentColor"
      ></path>
    </g>
  </svg> -->

  <svg
   
   
    viewBox="0 0 24 24"
    fill="none"
    xmlns="http://www.w3.org/2000/svg"
  >
    <path
      fill-rule="evenodd"
      clip-rule="evenodd"
      d="M11.2197 3.21967C11.5126 2.92678 11.9874 2.92678 12.2803 3.21967L17.2803 8.21967C17.5732 8.51256 17.5732 8.98744 17.2803 9.28033C16.9874 9.57322 16.5126 9.57322 16.2197 9.28033L12.5 5.56066V11.7543C12.5 11.79 12.5 11.8252 12.5 11.86C12.5002 12.8593 12.5003 13.5031 12.3369 14.1106C12.1924 14.6477 11.9546 15.1553 11.6345 15.6102C11.2724 16.1247 10.7773 16.5371 10.0087 17.1774C9.98191 17.1997 9.95478 17.2223 9.92732 17.2452L9.23014 17.8262L7.73014 19.0762C7.41193 19.3413 6.93901 19.2983 6.67383 18.9801C6.40866 18.6619 6.45165 18.189 6.76986 17.9238L8.26986 16.6738L8.96704 16.0929C9.84469 15.3615 10.1739 15.0792 10.4078 14.7469C10.6269 14.4357 10.7895 14.0884 10.8884 13.7209C10.994 13.3284 11 12.8954 11 11.7543V5.56066L7.28033 9.28033C6.98744 9.57322 6.51256 9.57322 6.21967 9.28033C5.92678 8.98744 5.92678 8.51256 6.21967 8.21967L11.2197 3.21967Z"
      fill="currentColor"
    />
    <path
      fill-rule="evenodd"
      clip-rule="evenodd"
      d="M17.2796 8.21895L13.5607 4.5L12.2803 3.21967C11.9874 2.92678 11.5126 2.92678 11.2197 3.21967L6.21967 8.21967C5.92678 8.51256 5.92678 8.98744 6.21967 9.28033C6.40273 9.46339 6.65687 9.53203 6.89325 9.48627C6.95086 9.47511 7.00742 9.45716 7.06163 9.43241C7.14087 9.39624 7.2151 9.34555 7.28031 9.28034L11 5.56067V5.56068L11 5.56066V11.7543C11 11.7915 11 11.8279 11 11.8636V12.7999V12.8071C11 12.876 11 12.9203 11.0008 12.9643C11.0172 13.8512 11.281 14.706 11.75 15.4383C11.9935 15.058 12.1817 14.6447 12.3087 14.2109C12.3185 14.1776 12.3279 14.1441 12.3369 14.1106C12.4257 13.7807 12.4662 13.44 12.4846 13.0376C12.4975 12.7573 12.4997 12.4471 12.5 12.0896V5.56067L12.5 5.56069V5.56066L16.2189 9.27961L16.2197 9.28033C16.3661 9.42678 16.5581 9.5 16.75 9.5C16.8988 9.5 17.0476 9.45598 17.1753 9.36794M12.7804 16.5849L14.2698 17.8262L15.7698 19.0762C16.088 19.3413 16.561 19.2984 16.8261 18.9801C17.0913 18.6619 17.0483 18.189 16.7301 17.9238L15.2301 16.6738L13.7301 15.4238C13.6685 15.3725 13.6451 15.3529 13.6236 15.3343C13.5922 15.3072 13.5614 15.2795 13.5312 15.2513C13.3545 15.6817 13.1299 16.0917 12.8612 16.4735C12.8347 16.5111 12.8078 16.5482 12.7804 16.5849Z"
      fill="currentColor"
    />
  </svg>