<svg viewBox="0 0 24 24" xmlns="http://www.w3.org/2000/svg">
    <g fill="none">
      <path
        fill-rule="evenodd"
        clip-rule="evenodd"
        d="M9.75 4a.75.75 0 0 0-1.5 0v1.8c0 .572 0 .957-.025 1.253-.023.287-.065.424-.111.514a1.25 1.25 0 0 1-.547.547c-.09.046-.227.088-.514.111-.296.024-.68.025-1.253.025H3a.75.75 0 0 0 0 1.5H5.83c.535 0 .98 0 1.345-.03.38-.03.736-.098 1.073-.27A2.75 2.75 0 0 0 9.45 8.248c.172-.337.24-.693.27-1.073.03-.365.03-.81.03-1.345V4zM5.8 15.75c.572 0 .957 0 1.253.025.287.023.424.065.514.111.236.12.427.311.547.547.046.09.088.227.111.515.024.295.025.68.025 1.252V20a.75.75 0 0 0 1.5 0v-1.83c0-.535 0-.98-.03-1.345-.03-.38-.098-.736-.27-1.073a2.75 2.75 0 0 0-1.202-1.202c-.337-.172-.693-.24-1.073-.27-.365-.03-.81-.03-1.345-.03H3a.75.75 0 0 0 0 1.5h2.8zM15 3.25a.75.75 0 0 1 .75.75v1.8c0 .572 0 .957.025 1.253.023.287.065.424.111.514.12.236.311.427.547.547.09.046.227.088.515.111.295.024.68.025 1.252.025H21a.75.75 0 0 1 0 1.5H18.17c-.535 0-.98 0-1.345-.03-.38-.03-.736-.098-1.073-.27a2.75 2.75 0 0 1-1.202-1.202c-.172-.337-.24-.693-.27-1.073-.03-.365-.03-.81-.03-1.345V4a.75.75 0 0 1 .75-.75zm3.2 11h-.03c-.535 0-.98 0-1.345.03-.38.03-.736.098-1.073.27a2.751 2.751 0 0 0-1.202 1.201c-.172.338-.24.694-.27 1.074-.03.365-.03.81-.03 1.345V20a.75.75 0 0 0 1.5 0v-1.8c0-.572 0-.957.025-1.252.023-.288.065-.425.111-.515a1.25 1.25 0 0 1 .547-.547c.09-.046.227-.088.515-.111.295-.024.68-.025 1.252-.025H21a.75.75 0 0 0 0-1.5h-2.8z"
        fill="currentColor"
      ></path>
    </g>
  </svg>