<svg
   
   
    viewBox="0 0 24 24"
    fill="none"
    xmlns="http://www.w3.org/2000/svg"
  >
    <path
      d="M9.39961 13.6992C9.8964 13.6992 10.29919 14.10252 10.29961 14.5992V20.5992C10.29961 21.09624 9.89666 21.4992 9.39961 21.4992C8.90273 21.50296 8.49961 21.09612 8.49961 20.5992V16.77192L5.03555 20.23596C4.68406 20.5872 4.1143 20.58732 3.76289 20.23596C3.41207 19.88448 3.4118 19.3146 3.76289 18.96324L7.22695 15.4992H3.39961C2.90273 15.50296 2.49961 15.09612 2.49961 14.5992C2.50003 14.10264 2.90299 13.69944 3.39961 13.6992H9.39961ZM14.5992 2.49961C15.09612 2.49961 15.50296 2.90273 15.4992 3.39961V7.22695L18.96324 3.76289C19.3146 3.4118 19.88448 3.41207 20.23596 3.76289C20.58732 4.1143 20.5872 4.68406 20.23596 5.03555L16.77192 8.49961H20.5992C21.09612 8.49961 21.50296 8.90273 21.4992 9.39961C21.4992 9.89666 21.09624 10.29961 20.5992 10.29961H14.5992C14.10252 10.29919 13.6992 9.8964 13.6992 9.39961V3.39961C13.69944 2.90299 14.10264 2.50003 14.5992 2.49961Z"
      fill="currentColor"
    />
  </svg>