<svg viewBox="0 0 24 24" xmlns="http://www.w3.org/2000/svg">
    <g fill="none">
      <path
        fill-rule="evenodd"
        clip-rule="evenodd"
        d="M2.25 6a3.75 3.75 0 0 1 7.425-.75H12a.75.75 0 0 1 0 1.5H9.675A3.751 3.751 0 0 1 2.25 6zM6 3.75a2.25 2.25 0 1 1 0 4.5 2.25 2.25 0 0 1 0-4.5zM6.75 12a.75.75 0 0 0-1.5 0v2.325A3.751 3.751 0 0 0 6 21.75a3.75 3.75 0 0 0 .75-7.425V12zm12-2.325A3.751 3.751 0 0 0 18 2.25a3.75 3.75 0 0 0-.75 7.425V12a.75.75 0 0 0 1.5 0V9.675zM18 8.25a2.25 2.25 0 1 1 0-4.5 2.25 2.25 0 0 1 0 4.5zm-6 9a.75.75 0 0 0 0 1.5h2.325A3.751 3.751 0 0 0 21.75 18a3.75 3.75 0 0 0-7.425-.75H12zm3.75.75a2.25 2.25 0 1 0 4.5 0 2.25 2.25 0 0 0-4.5 0zM6 15.75a2.25 2.25 0 1 0 0 4.5 2.25 2.25 0 0 0 0-4.5z"
        fill="currentColor"
      ></path>
    </g>
  </svg>