<svg viewBox="0 0 24 24" xmlns="http://www.w3.org/2000/svg">
    <g fill="none">
      <path
        fill-rule="evenodd"
        clip-rule="evenodd"
        d="M9.25 5A2.756 2.756 0 0 1 12 2.25 2.756 2.756 0 0 1 14.75 5 2.756 2.756 0 0 1 12 7.75 2.756 2.756 0 0 1 9.25 5zM12 3.75c-.686 0-1.25.564-1.25 1.25s.564 1.25 1.25 1.25 1.25-.564 1.25-1.25-.564-1.25-1.25-1.25zM9.25 12A2.756 2.756 0 0 1 12 9.25 2.756 2.756 0 0 1 14.75 12 2.756 2.756 0 0 1 12 14.75 2.756 2.756 0 0 1 9.25 12zM12 10.75c-.686 0-1.25.564-1.25 1.25s.564 1.25 1.25 1.25 1.25-.564 1.25-1.25-.564-1.25-1.25-1.25zM9.25 19A2.756 2.756 0 0 1 12 16.25 2.756 2.756 0 0 1 14.75 19 2.756 2.756 0 0 1 12 21.75 2.756 2.756 0 0 1 9.25 19zM12 17.75c-.686 0-1.25.564-1.25 1.25s.564 1.25 1.25 1.25 1.25-.564 1.25-1.25-.564-1.25-1.25-1.25z"
        fill="currentColor"
      ></path>
    </g>
  </svg>