<svg viewBox="0 0 24 24" xmlns="http://www.w3.org/2000/svg">
    <g fill="none">
      <path
        fill-rule="evenodd"
        clip-rule="evenodd"
        d="M18.222 3.424c.517-.122.857-.2 1.118-.238.255-.037.348-.02.388-.007a.75.75 0 0 1 .415.329c.022.036.06.123.083.38.023.262.024.611.024 1.142v.096c0 .74-.014.888-.058.993a.75.75 0 0 1-.242.31c-.092.069-.232.118-.95.298L9.75 9.039V6.724c0-.35 0-.573.013-.744a.82.82 0 0 1 .047-.262.75.75 0 0 1 .246-.311.82.82 0 0 1 .245-.106c.163-.051.38-.103.721-.183l7.2-1.694zm1.142 4.758L9.75 10.585V19a3.75 3.75 0 1 1-1.5-3V6.699c0-.318 0-.596.017-.828.018-.248.058-.494.162-.74a2.25 2.25 0 0 1 .74-.934c.215-.158.445-.253.683-.327.222-.07.493-.133.802-.206l.024-.006 7.2-1.694.032-.008c.477-.112.882-.207 1.216-.255.347-.05.704-.064 1.06.05.52.166.962.516 1.243.985.192.32.26.67.291 1.02.03.336.03.752.03 1.241v.247c.001.551.002 1.034-.176 1.456a2.25 2.25 0 0 1-.725.93c-.367.274-.836.39-1.37.524l-.115.028zM8.25 19a2.25 2.25 0 1 0-4.5 0 2.25 2.25 0 0 0 4.5 0z"
        fill="currentColor"
      ></path>
    </g>
  </svg>