<svg viewBox="0 0 24 24" xmlns="http://www.w3.org/2000/svg">
    <g fill="none">
      <path
        fill-rule="evenodd"
        clip-rule="evenodd"
        d="M6.768 2.25h4.464c.813 0 1.469 0 2 .043.546.045 1.026.14 1.47.366a3.75 3.75 0 0 1 1.64 1.639c.226.444.32.924.365 1.47.043.531.043 1.187.043 2v8.464c0 .813 0 1.469-.043 2-.045.546-.14 1.026-.366 1.47a3.75 3.75 0 0 1-1.639 1.64c-.444.226-.924.32-1.47.365-.531.043-1.187.043-2 .043H6.768c-.813 0-1.469 0-2-.043-.546-.045-1.026-.14-1.47-.366a3.75 3.75 0 0 1-1.64-1.639c-.226-.444-.32-.924-.365-1.47-.043-.531-.043-1.187-.043-2V7.768c0-.813 0-1.469.043-2 .045-.546.14-1.026.366-1.47a3.75 3.75 0 0 1 1.639-1.64c.444-.226.924-.32 1.47-.365.531-.043 1.187-.043 2-.043zM4.89 3.788c-.454.037-.715.107-.913.207a2.25 2.25 0 0 0-.983.984c-.1.197-.17.458-.207.912-.037.462-.038 1.057-.038 1.909v8.4c0 .852 0 1.447.038 1.91.037.453.107.714.207.912.216.423.56.767.983.983.198.1.459.17.913.207.462.037 1.057.038 1.909.038h4.4c.852 0 1.447 0 1.91-.038.453-.038.714-.107.911-.207a2.25 2.25 0 0 0 .984-.983c.1-.198.17-.459.207-.913.037-.462.038-1.057.038-1.909V7.8c0-.852 0-1.447-.038-1.91-.037-.453-.107-.714-.207-.911a2.25 2.25 0 0 0-.984-.984c-.197-.1-.458-.17-.912-.207-.462-.037-1.057-.038-1.909-.038H6.8c-.852 0-1.447 0-1.91.038zM19 5.25a.75.75 0 0 1 .75.75v12a.75.75 0 0 1-1.5 0V6a.75.75 0 0 1 .75-.75zM22.75 8a.75.75 0 0 0-1.5 0v8a.75.75 0 0 0 1.5 0V8zM8 13.75a1.25 1.25 0 1 0 0 2.5 1.25 1.25 0 0 0 0-2.5zm1.25-1.2a2.75 2.75 0 1 0 1.5 2.45V8.401l1.834 1.223a.75.75 0 0 0 .832-1.248l-3-2A.75.75 0 0 0 9.25 7v5.55z"
        fill="currentColor"
      ></path>
    </g>
  </svg>