<svg viewBox="0 0 24 24" xmlns="http://www.w3.org/2000/svg">
    <g fill="none">
      <path
        fill-rule="evenodd"
        clip-rule="evenodd"
        d="M18.75 3.332c-.352.051-.806.157-1.472.314l-5.64 1.327c-.45.106-.75.177-.979.249-.22.069-.326.125-.399.178a1.25 1.25 0 0 0-.41.518c-.035.083-.065.199-.082.43-.018.239-.018.546-.018 1.01v.681l10.499-2.625c-.002-.381-.01-.676-.03-.918-.03-.349-.084-.505-.138-.599a1.25 1.25 0 0 0-.718-.568c-.103-.031-.267-.048-.614.003zM20.25 16a2.25 2.25 0 1 0-4.5 0 2.25 2.25 0 0 0 4.5 0zm0-9.04V13a3.75 3.75 0 1 0 1.5 3V5.966c0-.642 0-1.173-.037-1.599-.037-.439-.119-.85-.335-1.223a2.75 2.75 0 0 0-1.578-1.25c-.412-.125-.832-.11-1.268-.046-.423.062-.94.183-1.565.33l-.032.008-5.64 1.327-.025.006c-.42.098-.772.181-1.06.272-.302.094-.58.211-.837.4a2.75 2.75 0 0 0-.904 1.14c-.124.293-.174.59-.197.907-.022.3-.022.663-.022 1.094V16a3.75 3.75 0 1 0 1.5 3V9.585l10.5-2.625zM6 16.75a2.25 2.25 0 1 1 0 4.5 2.25 2.25 0 0 1 0-4.5z"
        fill="currentColor"
      ></path>
    </g>
  </svg>