<svg viewBox="0 0 24 24" xmlns="http://www.w3.org/2000/svg">
    <g fill="none">
      <path
        fill-rule="evenodd"
        clip-rule="evenodd"
        d="M20.75 1a.75.75 0 0 0-1.5 0v2.25H17a.75.75 0 0 0 0 1.5h2.25V7a.75.75 0 0 0 1.5 0V4.75H23a.75.75 0 0 0 0-1.5h-2.25V1zM6.8 3.25h-.032c-.813 0-1.469 0-2 .043-.546.045-1.026.14-1.47.366a3.75 3.75 0 0 0-1.64 1.639c-.226.444-.32.924-.365 1.47-.043.531-.043 1.187-.043 2v8.464c0 .813 0 1.469.043 2 .045.546.14 1.026.366 1.47a3.75 3.75 0 0 0 1.639 1.64c.444.226.924.32 1.47.365.531.043 1.187.043 2 .043h8.464c.813 0 1.469 0 2-.043.546-.045 1.026-.14 1.47-.366a3.75 3.75 0 0 0 1.64-1.639c.226-.444.32-.924.365-1.47.043-.531.043-1.187.043-2V10.5a.75.75 0 0 0-1.5 0v6.7c0 .852 0 1.447-.038 1.91-.038.453-.107.714-.207.912-.216.423-.56.767-.983.983-.198.1-.459.17-.913.207-.462.037-1.057.038-1.909.038H6.8c-.852 0-1.447 0-1.91-.038-.453-.038-.714-.107-.911-.207a2.25 2.25 0 0 1-.984-.983c-.1-.198-.17-.459-.207-.913-.037-.462-.038-1.057-.038-1.909V8.8c0-.852 0-1.447.038-1.91.037-.453.107-.714.207-.911a2.25 2.25 0 0 1 .984-.984c.197-.1.458-.17.912-.207.462-.037 1.057-.038 1.909-.038h6.7a.75.75 0 0 0 0-1.5H6.8zM8.75 16a1.25 1.25 0 1 1 2.5 0 1.25 1.25 0 0 1-2.5 0zM10 13.25c.45 0 .875.108 1.25.3V8a.75.75 0 0 1 1.166-.624l3 2a.75.75 0 1 1-.832 1.248L12.75 9.401V16A2.75 2.75 0 1 1 10 13.25z"
        fill="currentColor"
      ></path>
    </g>
  </svg>