<svg viewBox="0 0 24 24" xmlns="http://www.w3.org/2000/svg">
    <g fill="none">
      <path
        fill-rule="evenodd"
        clip-rule="evenodd"
        d="M18.75 3.334c-.36.052-.826.16-1.511.322l-5.6 1.317c-.451.106-.75.177-.98.25-.22.068-.326.124-.399.177a1.25 1.25 0 0 0-.41.519c-.035.082-.065.198-.082.428-.018.24-.018.548-.018 1.011V19a3.75 3.75 0 1 1-1.5-3V7.332c0-.43 0-.793.022-1.094.023-.316.073-.613.197-.906a2.75 2.75 0 0 1 .904-1.141c.257-.189.535-.305.837-.4.288-.09.64-.173 1.06-.272l.025-.006 5.6-1.317.034-.008c.643-.152 1.173-.276 1.608-.34.448-.064.879-.077 1.3.058a2.75 2.75 0 0 1 1.52 1.204c.229.38.315.803.355 1.253.038.438.038.983.038 1.643V16a3.75 3.75 0 1 1-1.5-3V6.04c0-.703 0-1.181-.033-1.545-.031-.358-.088-.517-.145-.613a1.25 1.25 0 0 0-.691-.547c-.107-.034-.275-.053-.63-.001zM20.25 16a2.25 2.25 0 1 0-4.5 0 2.25 2.25 0 0 0 4.5 0zM6 16.75a2.25 2.25 0 1 1 0 4.5 2.25 2.25 0 0 1 0-4.5z"
        fill="currentColor"
      ></path>
    </g>
  </svg>