<svg viewBox="0 0 24 24" xmlns="http://www.w3.org/2000/svg">
    <g fill="none">
      <path
        fill-rule="evenodd"
        clip-rule="evenodd"
        d="M9.768 2.25h4.464c.813 0 1.469 0 2 .043.546.045 1.026.14 1.47.366a3.75 3.75 0 0 1 1.64 1.639c.152.299.244.614.302.955.184.002.35.008.501.018.317.021.617.068.907.188a2.75 2.75 0 0 1 1.489 1.489c.12.29.167.59.188.907.021.304.021.675.021 1.12V15.025c0 .445 0 .816-.02 1.12a2.822 2.822 0 0 1-.19.907 2.75 2.75 0 0 1-1.488 1.489c-.29.12-.59.167-.907.188a9.41 9.41 0 0 1-.501.018c-.058.341-.15.657-.303.956a3.75 3.75 0 0 1-1.639 1.638c-.444.227-.924.321-1.47.366-.531.043-1.187.043-2 .043H9.768c-.813 0-1.469 0-2-.043-.546-.045-1.026-.14-1.47-.366a3.75 3.75 0 0 1-1.64-1.639 3.277 3.277 0 0 1-.302-.955 9.407 9.407 0 0 1-.501-.018 2.822 2.822 0 0 1-.907-.188 2.75 2.75 0 0 1-1.489-1.489c-.12-.29-.167-.59-.188-.907-.021-.304-.021-.675-.021-1.12V8.975c0-.445 0-.816.02-1.12.022-.317.07-.617.19-.907a2.75 2.75 0 0 1 1.488-1.489c.29-.12.59-.167.907-.188.15-.01.317-.016.501-.018.058-.341.15-.656.303-.955a3.75 3.75 0 0 1 1.639-1.64c.444-.226.924-.32 1.47-.365.531-.043 1.187-.043 2-.043zm9.978 14.995a6.49 6.49 0 0 0 .297-.012c.241-.017.358-.046.435-.078.307-.127.55-.37.677-.677.032-.077.061-.194.078-.435.017-.247.017-.567.017-1.043V9c0-.476 0-.796-.017-1.043-.017-.241-.046-.358-.078-.435a1.25 1.25 0 0 0-.677-.677c-.077-.032-.194-.061-.435-.078a6.662 6.662 0 0 0-.297-.012c.004.307.004.644.004 1.013v8.464c0 .37 0 .706-.004 1.013zM4.25 16.232c0 .37 0 .706.004 1.013a6.489 6.489 0 0 1-.297-.012c-.241-.017-.358-.046-.435-.078a1.25 1.25 0 0 1-.677-.677c-.032-.077-.061-.194-.078-.435A17.091 17.091 0 0 1 2.75 15V9c0-.476 0-.796.017-1.043.017-.241.046-.358.078-.435.127-.307.37-.55.677-.677.077-.032.194-.061.435-.078.088-.006.186-.01.297-.012-.004.307-.004.644-.004 1.013v8.464zM7.89 3.788c-.453.037-.714.107-.911.207a2.25 2.25 0 0 0-.984.984c-.1.197-.17.458-.207.912-.037.462-.038 1.057-.038 1.909v8.4c0 .852 0 1.447.038 1.91.037.453.107.714.207.912.216.423.56.767.984.983.197.1.458.17.912.207.462.037 1.057.038 1.909.038h4.4c.853 0 1.447 0 1.91-.038.453-.038.714-.107.912-.207.423-.216.767-.56.983-.983.1-.198.17-.459.207-.913.037-.462.038-1.057.038-1.909V7.8c0-.852 0-1.447-.038-1.91-.038-.453-.107-.714-.207-.911a2.25 2.25 0 0 0-.983-.984c-.198-.1-.459-.17-.913-.207-.462-.037-1.057-.038-1.909-.038H9.8c-.852 0-1.447 0-1.91.038zM11 13.75a1.25 1.25 0 1 0 0 2.5 1.25 1.25 0 0 0 0-2.5zm1.25-1.2a2.75 2.75 0 1 0 1.5 2.453V8.4l1.834 1.223a.75.75 0 1 0 .832-1.248l-3-2A.75.75 0 0 0 12.25 7v5.55z"
        fill="currentColor"
      ></path>
    </g>
  </svg>