<svg viewBox="0 0 24 24" xmlns="http://www.w3.org/2000/svg">
    <g fill="none">
      <path
        fill-rule="evenodd"
        clip-rule="evenodd"
        d="M11.37.815a2.25 2.25 0 0 1 1.26 0c.272.08.5.216.713.373.2.147.427.341.687.564l.02.017 1.264 1.084c.274.234.33.277.384.306.062.034.13.059.199.074.06.013.13.017.49.017h1.242c.395 0 .736 0 1.017.023.297.024.592.077.875.222.424.216.768.56.984.983.144.284.198.579.222.876.023.28.023.621.023 1.017V7.612c0 .36.004.431.017.491a.75.75 0 0 0 .073.199c.03.054.073.11.307.384l1.084 1.264.017.02c.223.26.417.486.564.687.156.213.293.44.373.714.12.41.12.847 0 1.258-.08.273-.217.5-.373.714-.147.2-.341.427-.564.687l-.017.02-1.084 1.264c-.234.274-.277.33-.307.384a.752.752 0 0 0-.073.198c-.013.06-.017.131-.017.492V17.629c0 .395 0 .736-.023 1.017-.024.297-.078.591-.222.875a2.25 2.25 0 0 1-.983.984c-.284.144-.58.198-.876.222-.28.023-.622.023-1.017.023H16.388c-.36 0-.431.004-.491.017a.752.752 0 0 0-.2.073c-.053.03-.11.073-.383.307l-1.264 1.084-.02.016c-.26.224-.486.418-.687.565a2.276 2.276 0 0 1-.714.372 2.25 2.25 0 0 1-1.258 0c-.273-.079-.5-.216-.714-.372-.2-.147-.427-.341-.687-.564l-.02-.018-1.264-1.083c-.274-.234-.33-.277-.384-.307a.75.75 0 0 0-.199-.073c-.06-.013-.13-.017-.49-.017H6.335c-.395 0-.736 0-1.016-.023-.297-.024-.592-.078-.876-.222a2.25 2.25 0 0 1-.983-.984c-.145-.284-.198-.578-.222-.875-.023-.28-.023-.622-.023-1.017v-1.25c0-.356-.004-.427-.017-.486a.75.75 0 0 0-.072-.198c-.029-.053-.071-.11-.302-.382l-1.082-1.277-.017-.02c-.22-.258-.41-.483-.555-.683a2.273 2.273 0 0 1-.367-.709 2.25 2.25 0 0 1 0-1.248c.079-.271.213-.497.367-.71.145-.199.336-.424.555-.683l.017-.02 1.082-1.277c.23-.272.273-.328.302-.382a.75.75 0 0 0 .072-.197c.013-.06.017-.13.017-.487V6.37c0-.394 0-.736.023-1.016.024-.297.077-.592.222-.876a2.25 2.25 0 0 1 .983-.983c.284-.145.579-.198.876-.222.28-.023.622-.023 1.017-.023h1.275c.36 0 .431-.004.491-.017a.75.75 0 0 0 .2-.074c.053-.029.11-.072.383-.306L9.95 1.769l.02-.017c.26-.223.486-.417.687-.564.213-.157.441-.293.714-.373zm.84 1.44a.75.75 0 0 0-.42 0 .829.829 0 0 0-.246.143c-.149.109-.332.265-.618.51L9.662 3.991l-.042.037c-.208.178-.39.335-.604.45a2.25 2.25 0 0 1-.596.221c-.237.051-.478.051-.752.05H6.366c-.433 0-.712.001-.924.019-.204.016-.28.045-.317.064a.75.75 0 0 0-.327.327c-.02.037-.048.113-.064.317-.018.212-.018.491-.018.924v1.275c0 .271 0 .51-.05.746a2.25 2.25 0 0 1-.217.592c-.114.212-.269.394-.444.601l-.036.042-1.082 1.277c-.24.284-.394.466-.502.614a.827.827 0 0 0-.14.245.75.75 0 0 0 0 .416.827.827 0 0 0 .14.244c.108.149.261.33.502.614l1.082 1.277.036.043c.175.207.33.39.444.6.1.187.173.386.217.593.05.235.05.474.05.746V17.6c0 .432 0 .711.018.924.016.204.045.28.064.316a.75.75 0 0 0 .327.328c.037.019.113.047.317.064.212.017.491.018.924.018h1.302c.274 0 .515 0 .752.05.208.045.409.12.596.221.213.115.396.273.604.45l.042.037 1.264 1.084c.286.245.469.4.618.51a.828.828 0 0 0 .246.142.75.75 0 0 0 .42 0 .83.83 0 0 0 .246-.142c.149-.11.332-.265.618-.51l1.264-1.084.042-.036c.208-.178.391-.336.604-.451a2.25 2.25 0 0 1 .596-.22c.237-.052.478-.051.752-.051H17.6c.432 0 .712 0 .924-.018.204-.017.28-.045.316-.064a.75.75 0 0 0 .328-.328c.02-.037.047-.112.064-.316.017-.213.018-.492.018-.924v-1.268c0-.274 0-.515.05-.752.046-.208.12-.409.221-.596.116-.213.273-.396.451-.604l.036-.042 1.084-1.264c.245-.286.4-.47.51-.618a.832.832 0 0 0 .142-.246.75.75 0 0 0 0-.42.83.83 0 0 0-.142-.246c-.11-.15-.265-.332-.51-.618l-1.084-1.264-.036-.042c-.178-.208-.335-.391-.45-.604a2.247 2.247 0 0 1-.221-.596c-.051-.237-.051-.479-.051-.752V6.4c0-.433 0-.712-.018-.924-.017-.204-.045-.28-.064-.317a.75.75 0 0 0-.328-.327c-.037-.02-.112-.048-.316-.064a12.755 12.755 0 0 0-.924-.018h-1.268c-.274 0-.515 0-.752-.05a2.25 2.25 0 0 1-.596-.221c-.213-.116-.396-.273-.604-.451l-.042-.037-1.264-1.083a11.85 11.85 0 0 0-.618-.51.83.83 0 0 0-.246-.143zM12 7.25a.75.75 0 0 1 .75.75v5a.75.75 0 0 1-1.5 0V8a.75.75 0 0 1 .75-.75zM12 17a1 1 0 1 0 0-2 1 1 0 0 0 0 2z"
        fill="currentColor"
      ></path>
    </g>
  </svg>