<svg viewBox="0 0 24 24" xmlns="http://www.w3.org/2000/svg">
    <g fill="none">
      <path
        fill-rule="evenodd"
        clip-rule="evenodd"
        d="M2.624 2.351a.75.75 0 0 1 .748-.002L6.5 4.136 9.628 2.35a.75.75 0 0 1 .744 0L13.5 4.136l3.128-1.787A.75.75 0 0 1 17.75 3v8.25H21a.75.75 0 0 1 .75.75v7A2.75 2.75 0 0 1 19 21.75H7.768c-.813 0-1.469 0-2-.043-.546-.045-1.026-.14-1.47-.366a3.75 3.75 0 0 1-1.64-1.639c-.226-.444-.32-.924-.365-1.47-.043-.531-.043-1.187-.043-2V3a.75.75 0 0 1 .374-.649zM19 20.25c.69 0 1.25-.56 1.25-1.25v-6.25h-2.5V19c0 .69.56 1.25 1.25 1.25zm-2.45 0H7.8c-.852 0-1.447 0-1.91-.038-.453-.038-.714-.107-.911-.207a2.25 2.25 0 0 1-.984-.983c-.1-.198-.17-.459-.207-.913-.037-.462-.038-1.057-.038-1.909V4.292l2.378 1.36a.75.75 0 0 0 .744 0L10 3.863l3.128 1.787a.75.75 0 0 0 .744 0l2.378-1.359V19c0 .45.108.875.3 1.25zM6.25 9A.75.75 0 0 1 7 8.25h4a.75.75 0 0 1 0 1.5H7A.75.75 0 0 1 6.25 9zM7 12.25a.75.75 0 0 0 0 1.5h6a.75.75 0 0 0 0-1.5H7zM6.25 17a.75.75 0 0 1 .75-.75h6a.75.75 0 0 1 0 1.5H7a.75.75 0 0 1-.75-.75z"
        fill="currentColor"
      ></path>
    </g>
  </svg>