<svg viewBox="0 0 24 24" xmlns="http://www.w3.org/2000/svg">
    <g fill="none">
      <path
        fill-rule="evenodd"
        clip-rule="evenodd"
        d="M9.4 2.25h-.033c-1.092 0-1.958 0-2.655.057-.714.058-1.317.18-1.868.46a4.75 4.75 0 0 0-2.076 2.077c-.281.55-.403 1.154-.461 1.868-.057.697-.057 1.563-.057 2.655V14.633c0 1.092 0 1.958.057 2.655.058.714.18 1.317.46 1.869a4.75 4.75 0 0 0 2.077 2.075c.55.281 1.154.403 1.868.461.697.057 1.563.057 2.655.057H14.443c.888 0 1.461 0 2.009-.131a4.75 4.75 0 0 0 1.373-.569c.48-.294.885-.7 1.514-1.328l.066-.066.25-.251.067-.066c.629-.629 1.034-1.034 1.328-1.514a4.75 4.75 0 0 0 .569-1.373c.131-.548.131-1.12.131-2.01V9.368c0-1.092 0-1.958-.057-2.655-.058-.714-.18-1.317-.46-1.868a4.75 4.75 0 0 0-2.076-2.076c-.552-.281-1.155-.403-1.869-.461-.697-.057-1.563-.057-2.655-.057H9.4zM5.525 4.104c.304-.155.688-.251 1.309-.302.63-.051 1.434-.052 2.566-.052h5.2c1.133 0 1.937 0 2.566.052.62.05 1.005.147 1.31.302a3.25 3.25 0 0 1 1.42 1.42c.155.305.251.69.302 1.31.051.63.052 1.434.052 2.566v4.949c0 .377 0 .667-.006.901H19.17c-.535 0-.98 0-1.345.03-.38.03-.736.098-1.073.27a2.751 2.751 0 0 0-1.202 1.201c-.172.338-.24.694-.27 1.074-.03.364-.03.81-.03 1.345v1.074a43.46 43.46 0 0 1-.901.006H9.4c-1.132 0-1.937 0-2.566-.052-.62-.05-1.005-.147-1.31-.302a3.25 3.25 0 0 1-1.42-1.42c-.155-.305-.251-.69-.302-1.31-.051-.63-.052-1.434-.052-2.566V9.4c0-1.132 0-1.937.052-2.566.05-.62.147-1.005.302-1.31a3.25 3.25 0 0 1 1.42-1.42zM16.75 19.93c.1-.048.197-.101.291-.159.31-.19.586-.459 1.303-1.176l.251-.25c.717-.718.986-.993 1.176-1.304.058-.094.11-.191.159-.291h-.73c-.572 0-.957 0-1.252.025-.288.023-.425.065-.515.111a1.25 1.25 0 0 0-.547.547c-.046.09-.088.227-.111.514-.024.296-.025.68-.025 1.253v.73z"
        fill="currentColor"
      ></path>
    </g>
  </svg>