<svg viewBox="0 0 24 24" xmlns="http://www.w3.org/2000/svg">
    <g fill="none">
      <path
        fill-rule="evenodd"
        clip-rule="evenodd"
        d="M9.367 2.25H14.633c1.092 0 1.958 0 2.655.057.714.058 1.317.18 1.869.46a4.75 4.75 0 0 1 2.075 2.077c.281.55.403 1.154.461 1.868.057.697.057 1.563.057 2.655V14.443c0 .888 0 1.461-.131 2.009a4.75 4.75 0 0 1-.569 1.373c-.294.48-.7.885-1.328 1.514l-.066.066-.251.25-.066.067c-.629.629-1.034 1.034-1.514 1.328a4.75 4.75 0 0 1-1.373.569c-.548.131-1.12.131-2.01.131H9.368c-1.092 0-1.958 0-2.655-.057-.714-.058-1.317-.18-1.868-.46a4.75 4.75 0 0 1-2.076-2.076c-.281-.552-.403-1.155-.461-1.869-.057-.697-.057-1.563-.057-2.655V9.367c0-1.092 0-1.958.057-2.655.058-.714.18-1.317.46-1.868a4.75 4.75 0 0 1 2.077-2.076c.55-.281 1.154-.403 1.868-.461.697-.057 1.563-.057 2.655-.057zM6.834 3.802c-.62.05-1.005.147-1.31.302a3.25 3.25 0 0 0-1.42 1.42c-.155.305-.251.69-.302 1.31-.051.63-.052 1.434-.052 2.566v5.2c0 1.133 0 1.937.052 2.566.05.62.147 1.005.302 1.31a3.25 3.25 0 0 0 1.42 1.42c.305.155.69.251 1.31.302.63.051 1.434.052 2.566.052h4.949c.377 0 .667 0 .901-.006V19.17c0-.535 0-.98.03-1.345.03-.38.098-.736.27-1.073a2.751 2.751 0 0 1 1.201-1.202c.338-.172.694-.24 1.074-.27.365-.03.81-.03 1.345-.03h1.074c.005-.234.006-.524.006-.901V9.4c0-1.132 0-1.937-.052-2.566-.05-.62-.147-1.005-.302-1.31a3.25 3.25 0 0 0-1.42-1.42c-.305-.155-.69-.251-1.31-.302-.63-.051-1.434-.052-2.566-.052H9.4c-1.132 0-1.937 0-2.566.052zM19.93 16.75h-.73c-.572 0-.957 0-1.252.025-.288.023-.425.065-.515.111a1.25 1.25 0 0 0-.547.547c-.046.09-.088.227-.111.514-.024.296-.025.68-.025 1.253v.73c.1-.048.197-.101.291-.159.31-.19.586-.459 1.303-1.176l.251-.25c.717-.718.986-.993 1.176-1.304.058-.094.11-.191.159-.291zM6.25 7A.75.75 0 0 1 7 6.25h8a.75.75 0 0 1 0 1.5H7A.75.75 0 0 1 6.25 7zM7 10.25a.75.75 0 0 0 0 1.5h6a.75.75 0 0 0 0-1.5H7zM6.25 15a.75.75 0 0 1 .75-.75h2a.75.75 0 0 1 0 1.5H7a.75.75 0 0 1-.75-.75z"
        fill="currentColor"
      ></path>
    </g>
  </svg>