<svg viewBox="0 0 24 24" xmlns="http://www.w3.org/2000/svg">
    <g fill="none">
      <path
        fill-rule="evenodd"
        clip-rule="evenodd"
        d="M11.748 3.063a1.25 1.25 0 0 1 .504 0c.16.034.328.117.938.456l5.8 3.222c.644.358.812.462.929.589.12.13.212.286.267.455.055.163.064.36.064 1.098v6.234c0 .737-.01.934-.064 1.098a1.25 1.25 0 0 1-.267.455c-.117.127-.285.23-.93.589l-5.8 3.222c-.61.339-.777.422-.938.455a1.25 1.25 0 0 1-.503 0c-.161-.033-.329-.116-.938-.455l-5.8-3.222c-.644-.358-.813-.462-.93-.589a1.25 1.25 0 0 1-.267-.455c-.054-.163-.063-.361-.063-1.098V8.883c0-.737.009-.935.063-1.098a1.25 1.25 0 0 1 .267-.455c.117-.127.286-.231.93-.589l5.8-3.222c.61-.339.777-.422.938-.456zm.806-1.469a2.75 2.75 0 0 0-1.108 0c-.416.086-.796.297-1.28.566l-.085.048-5.8 3.222-.09.05c-.51.283-.912.506-1.214.833a2.75 2.75 0 0 0-.589 1.001c-.14.423-.139.882-.138 1.466V15.22c0 .584-.001 1.043.138 1.466.123.372.324.713.59 1 .301.328.702.55 1.213.834l.09.05 5.8 3.222.085.047c.484.27.864.481 1.28.567.365.075.742.075 1.108 0 .415-.086.795-.297 1.279-.566l.085-.048 5.8-3.222.09-.05c.51-.283.912-.506 1.214-.833a2.75 2.75 0 0 0 .589-1.001c.14-.423.14-.882.139-1.466V8.78c0-.584 0-1.043-.14-1.466a2.75 2.75 0 0 0-.588-1c-.302-.328-.703-.55-1.214-.834l-.09-.05-5.8-3.222-.085-.048c-.484-.269-.864-.48-1.28-.566zM12 8.25a3.75 3.75 0 1 0 0 7.5 3.75 3.75 0 0 0 0-7.5zM9.75 12a2.25 2.25 0 1 1 4.5 0 2.25 2.25 0 0 1-4.5 0z"
        fill="currentColor"
      ></path>
    </g>
  </svg>