<svg viewBox="0 0 24 24" xmlns="http://www.w3.org/2000/svg">
    <g fill="none">
      <path
        fill-rule="evenodd"
        clip-rule="evenodd"
        d="M4 2.25a.75.75 0 0 1 .75.75v1.8c0 .572 0 .957.025 1.253.023.287.065.424.111.514.12.236.311.427.547.547.09.046.227.088.514.111.296.024.68.025 1.253.025h9.6c.572 0 .957 0 1.252-.025.288-.023.425-.065.515-.111a1.25 1.25 0 0 0 .547-.547c.046-.09.088-.227.111-.514.024-.296.025-.68.025-1.253V3a.75.75 0 0 1 1.5 0v1.83c0 .535 0 .98-.03 1.345-.03.38-.098.736-.27 1.073A2.75 2.75 0 0 1 19.25 8.45c-.338.172-.694.24-1.074.27-.365.03-.81.03-1.345.03H7.17c-.535 0-.98 0-1.345-.03-.38-.03-.736-.098-1.073-.27A2.75 2.75 0 0 1 3.55 7.248c-.172-.337-.24-.693-.27-1.073-.03-.365-.03-.81-.03-1.345V3A.75.75 0 0 1 4 2.25zm3.17 13H16.83c.535 0 .98 0 1.345.03.38.03.736.098 1.073.27.518.263.939.684 1.202 1.201.172.338.24.694.27 1.074.03.365.03.81.03 1.345V21a.75.75 0 0 1-1.5 0v-1.8c0-.572 0-.957-.025-1.252-.023-.288-.065-.425-.111-.515a1.25 1.25 0 0 0-.547-.547c-.09-.046-.227-.088-.515-.111-.295-.024-.68-.025-1.252-.025H7.2c-.572 0-.957 0-1.253.025-.287.023-.424.065-.514.111a1.25 1.25 0 0 0-.547.547c-.046.09-.088.227-.111.515-.024.295-.025.68-.025 1.252V21a.75.75 0 0 1-1.5 0v-1.83c0-.535 0-.98.03-1.345.03-.38.098-.736.27-1.073a2.75 2.75 0 0 1 1.202-1.202c.337-.172.693-.24 1.073-.27.365-.03.81-.03 1.345-.03zM20 13a1 1 0 1 0 0-2 1 1 0 0 0 0 2zm-3-1a1 1 0 1 1-2 0 1 1 0 0 1 2 0zm-5 1a1 1 0 1 0 0-2 1 1 0 0 0 0 2zm-3-1a1 1 0 1 1-2 0 1 1 0 0 1 2 0zm-5 1a1 1 0 1 0 0-2 1 1 0 0 0 0 2z"
        fill="currentColor"
      ></path>
    </g>
  </svg>