<svg viewBox="0 0 24 24" xmlns="http://www.w3.org/2000/svg">
    <g fill="none">
      <path
        fill-rule="evenodd"
        clip-rule="evenodd"
        d="M12.386 3.64a1.25 1.25 0 0 0-.772 0c-.097.031-.224.099-.443.285-.226.192-.498.463-.903.868l-6.475 6.475-.272.273c.968-.24 1.95-.25 2.916-.129 1.489.186 2.996.69 4.393 1.157l.282.095c1.517.505 2.887.936 4.14.993 1.193.054 2.243-.231 3.182-1.152.283-.284.488-.495.641-.676.187-.22.254-.346.285-.443a1.25 1.25 0 0 0 0-.772c-.03-.097-.098-.223-.285-.443-.192-.226-.463-.498-.868-.903l-4.475-4.475c-.404-.405-.676-.676-.903-.868-.22-.186-.346-.254-.443-.285zM2.925 13.83a1.76 1.76 0 0 1-.25-.358c1.108-.614 2.297-.731 3.576-.571 1.335.167 2.708.625 4.144 1.105l.243.08c1.483.495 3.05 1.002 4.547 1.07.2.009.398.01.596.003l-4.049 4.048c-.404.405-.676.676-.903.868-.22.187-.346.254-.443.286a1.25 1.25 0 0 1-.772 0c-.097-.032-.224-.1-.443-.286-.226-.192-.499-.463-.903-.868l-4.475-4.474c-.405-.405-.676-.677-.868-.904zm16.364-.058l.206-.207.035-.034a13.052 13.052 0 0 0 .688-.73c.247-.291.452-.591.57-.951a2.75 2.75 0 0 0 0-1.7c-.118-.36-.323-.66-.57-.95a17.816 17.816 0 0 0-.929-.971l-.021-.022-4.475-4.474-.021-.022a17.822 17.822 0 0 0-.972-.93c-.29-.246-.59-.45-.95-.568a2.75 2.75 0 0 0-1.7 0c-.36.117-.66.322-.95.569-.278.236-.594.551-.971.93l-.022.02-6.474 6.475-.022.022c-.378.377-.693.693-.93.971-.246.29-.45.59-.568.95a2.75 2.75 0 0 0 0 1.7c.117.36.322.66.569.95.236.279.551.594.929.972l.022.021 4.474 4.475.022.021c.377.378.693.693.971.93.29.246.59.451.95.568a2.75 2.75 0 0 0 1.7 0c.36-.117.66-.322.95-.568.279-.237.594-.552.972-.93l.021-.021 6.475-6.475.021-.021zm.575 3.378a.274.274 0 0 1 .032-.014l.01-.002a.79.79 0 0 1 .189 0l.009.002a.266.266 0 0 1 .038.018 4.624 4.624 0 0 1 .14.155c.497.578.968 1.369.968 2.247 0 .658-.199 1.078-.427 1.325-.23.25-.529.37-.823.37-.294 0-.593-.12-.823-.37-.228-.247-.427-.667-.427-1.325 0-.878.472-1.669.968-2.247l.1-.116a.453.453 0 0 1 .04-.039l.004-.003.002-.001zm.727-1.433a1.828 1.828 0 0 0-.591-.088 1.635 1.635 0 0 0-1.102.372 2.583 2.583 0 0 0-.304.314l-.015.017c-.592.69-1.329 1.822-1.329 3.224 0 .971.301 1.774.823 2.341.52.565 1.221.853 1.927.853s1.407-.288 1.927-.853c.522-.567.823-1.37.823-2.341 0-1.402-.737-2.533-1.329-3.224l-.015-.017a2.59 2.59 0 0 0-.304-.314 1.638 1.638 0 0 0-.51-.285z"
        fill="currentColor"
      ></path>
    </g>
  </svg>