<svg
   
   
    viewBox="0 0 24 24"
    fill="none"
    xmlns="http://www.w3.org/2000/svg"
  >
    <path
      fill-rule="evenodd"
      clip-rule="evenodd"
      d="M8 2.25H16.2321H16.2321C17.045 2.24999 17.7006 2.24999 18.2315 2.29336C18.7781 2.33803 19.2582 2.43239 19.7025 2.65873C20.4081 3.01825 20.9817 3.59193 21.3413 4.29754C21.5676 4.74175 21.662 5.2219 21.7066 5.76853C21.75 6.29944 21.75 6.95505 21.75 7.76788V16.2321C21.75 17.045 21.75 17.7006 21.7066 18.2315C21.662 18.7781 21.5676 19.2582 21.3413 19.7025C20.9817 20.4081 20.4081 20.9817 19.7025 21.3413C19.2582 21.5676 18.7781 21.662 18.2315 21.7066C17.7006 21.75 17.045 21.75 16.2321 21.75H8H7.76788C6.95505 21.75 6.29944 21.75 5.76853 21.7066C5.2219 21.662 4.74175 21.5676 4.29754 21.3413C3.59193 20.9817 3.01825 20.4081 2.65873 19.7025C2.43239 19.2582 2.33803 18.7781 2.29336 18.2315C2.24999 17.7006 2.24999 17.045 2.25 16.2321V16.2321V7.7679V7.76789C2.24999 6.95505 2.24999 6.29944 2.29336 5.76853C2.33803 5.2219 2.43239 4.74175 2.65873 4.29754C3.01825 3.59193 3.59193 3.01825 4.29754 2.65873C4.74175 2.43239 5.2219 2.33803 5.76853 2.29336C6.29944 2.24999 6.95505 2.24999 7.76788 2.25H7.7679H8ZM7.25 3.75054C6.68053 3.75225 6.24665 3.7593 5.89068 3.78838C5.4368 3.82547 5.17604 3.8946 4.97852 3.99524C4.55516 4.21095 4.21095 4.55516 3.99524 4.97852C3.8946 5.17604 3.82547 5.4368 3.78838 5.89068C3.75058 6.35331 3.75 6.94755 3.75 7.8V16.2C3.75 17.0525 3.75058 17.6467 3.78838 18.1093C3.82547 18.5632 3.8946 18.824 3.99524 19.0215C4.21095 19.4448 4.55516 19.789 4.97852 20.0048C5.17604 20.1054 5.4368 20.1745 5.89068 20.2116C6.24665 20.2407 6.68053 20.2478 7.25 20.2495L7.25 3.75054ZM8.75 20.25L8.75 3.75H16.2C17.0525 3.75 17.6467 3.75058 18.1093 3.78838C18.5632 3.82547 18.824 3.8946 19.0215 3.99524C19.4448 4.21095 19.789 4.55516 20.0048 4.97852C20.1054 5.17604 20.1745 5.4368 20.2116 5.89068C20.2494 6.35331 20.25 6.94755 20.25 7.8V16.2C20.25 17.0525 20.2494 17.6467 20.2116 18.1093C20.1745 18.5632 20.1054 18.824 20.0048 19.0215C19.789 19.4448 19.4448 19.789 19.0215 20.0048C18.824 20.1054 18.5632 20.1745 18.1093 20.2116C17.6467 20.2494 17.0525 20.25 16.2 20.25H8.75ZM12.4697 15.5303C12.7626 15.8232 13.2374 15.8232 13.5303 15.5303L16.5303 12.5303C16.671 12.3897 16.75 12.1989 16.75 12C16.75 11.8011 16.671 11.6103 16.5303 11.4697L13.5303 8.46967C13.2374 8.17678 12.7626 8.17678 12.4697 8.46967C12.1768 8.76256 12.1768 9.23744 12.4697 9.53033L14.9393 12L12.4697 14.4697C12.1768 14.7626 12.1768 15.2374 12.4697 15.5303Z"
      fill="currentColor"
    />
  </svg>