<svg
   
   
    viewBox="0 0 24 24"
    xmlns="http://www.w3.org/2000/svg"
  >
    <path
      d="M17.15976 2.1C17.817 2.1 18.36444 2.098764 18.80976 2.13516C19.2654 2.172396 19.69308 2.253708 20.0976 2.45976C20.7186 2.776152 21.2238 3.281412 21.54024 3.90234C21.74628 4.306908 21.82764 4.734564 21.86484 5.19024C21.9012 5.635584 21.9 6.183024 21.9 6.84024V17.15976C21.9 17.817 21.9012 18.36444 21.86484 18.80976C21.82764 19.2654 21.74628 19.69308 21.54024 20.0976C21.2238 20.7186 20.7186 21.2238 20.0976 21.54024C19.69308 21.74628 19.2654 21.82764 18.80976 21.86484C18.36444 21.9012 17.817 21.9 17.15976 21.9H6.84024C6.183024 21.9 5.635584 21.9012 5.19024 21.86484C4.734552 21.82764 4.306908 21.74628 3.90234 21.54024C3.281412 21.2238 2.776152 20.7186 2.45976 20.0976C2.253708 19.69308 2.172396 19.2654 2.13516 18.80976C2.098764 18.36444 2.1 17.817 2.1 17.15976V6.84024C2.1 6.183024 2.098764 5.635584 2.13516 5.19024C2.172396 4.734564 2.253708 4.306908 2.45976 3.90234C2.776152 3.281412 3.281412 2.776152 3.90234 2.45976C4.306908 2.253708 4.734552 2.172396 5.19024 2.13516C5.635584 2.098764 6.183024 2.1 6.84024 2.1H17.15976ZM6.84024 3.9C6.153324 3.9 5.691768 3.900288 5.336724 3.929292C4.992324 3.957456 4.827792 4.008708 4.719144 4.064064C4.437 4.207848 4.20786 4.437 4.064064 4.719144C4.008708 4.827792 3.957456 4.992324 3.929292 5.336724C3.900288 5.691768 3.9 6.153324 3.9 6.84024V17.15976C3.9 17.84664 3.900288 18.30828 3.929292 18.66324C3.957456 19.00764 4.008708 19.17216 4.064064 19.28088C4.207848 19.563 4.437 19.7922 4.719144 19.93596C4.827792 19.99128 4.992324 20.04252 5.336724 20.07072C5.691768 20.09976 6.153324 20.1 6.84024 20.1H17.15976C17.84664 20.1 18.30828 20.09976 18.66324 20.07072C19.00764 20.04252 19.17216 19.99128 19.28088 19.93596C19.563 19.7922 19.7922 19.563 19.93596 19.28088C19.99128 19.17216 20.04252 19.00764 20.07072 18.66324C20.09976 18.30828 20.1 17.84664 20.1 17.15976V6.84024C20.1 6.153324 20.09976 5.691768 20.07072 5.336724C20.04252 4.992324 19.99128 4.827792 19.93596 4.719144C19.7922 4.437 19.563 4.207848 19.28088 4.064064C19.17216 4.008708 19.00764 3.957456 18.66324 3.929292C18.30828 3.900288 17.84664 3.9 17.15976 3.9H6.84024ZM17.4 5.7C17.89704 5.7 18.3 6.102948 18.3 6.6V17.4C18.3 17.89704 17.89704 18.3 17.4 18.3C16.90296 18.3 16.5 17.89704 16.5 17.4V6.6C16.5 6.102948 16.90296 5.7 17.4 5.7Z"
      fill="currentColor"
    />
  </svg>