<svg viewBox="0 0 24 24" xmlns="http://www.w3.org/2000/svg">
    <g fill="none">
      <path
        fill-rule="evenodd"
        clip-rule="evenodd"
        d="M11.47 2.985a4.75 4.75 0 1 1 6.717 6.717l-1.742 1.743a.75.75 0 0 1-1.061-1.06l1.743-1.744a3.25 3.25 0 0 0-4.596-4.596l-1.743 1.743a.75.75 0 1 1-1.06-1.06l1.742-1.743zm10.253 7.778a.75.75 0 0 1 0 1.06l-2.475 2.475a.75.75 0 0 1-1.06-1.06l2.474-2.475a.75.75 0 0 1 1.06 0zm-6.364-4.95a.75.75 0 0 1 0 1.06l-1.743 1.743a.75.75 0 1 1-1.06-1.06l1.742-1.743a.75.75 0 0 1 1.06 0zM2.469 2.47a.75.75 0 0 1 1.061 0l4.758 4.757 2.828 2.829 2.829 2.828 2.828 2.829 4.757 4.757a.75.75 0 1 1-1.06 1.06l-4.227-4.227-2.298 2.299a6.75 6.75 0 1 1-9.546-9.546l2.298-2.298L2.47 3.53a.75.75 0 0 1 0-1.06zm5.288 6.348L5.46 11.116a5.25 5.25 0 0 0 7.425 7.425l2.298-2.298-1.768-1.768-2.298 2.298a2.75 2.75 0 0 1-3.889-3.889l2.298-2.298-1.768-1.768zm2.829 2.829l-2.298 2.298a1.25 1.25 0 1 0 1.768 1.767l2.298-2.298-1.768-1.767z"
        fill="currentColor"
      ></path>
    </g>
  </svg>