<svg viewBox="0 0 24 24" xmlns="http://www.w3.org/2000/svg">
    <g fill="none">
      <path
        fill-rule="evenodd"
        clip-rule="evenodd"
        d="M17.127 4.045a3.25 3.25 0 0 0-4.596 0l-7.072 7.071a5.25 5.25 0 0 0 7.425 7.425l7.778-7.778a.75.75 0 0 1 1.06 1.06l-7.777 7.779a6.75 6.75 0 1 1-9.546-9.546l7.07-7.071a4.75 4.75 0 0 1 6.718 6.717l-7.07 7.071a2.75 2.75 0 0 1-3.89-3.889l7.071-7.071a.75.75 0 1 1 1.06 1.06l-7.07 7.072a1.25 1.25 0 1 0 1.768 1.767l7.07-7.07a3.25 3.25 0 0 0 0-4.597z"
        fill="currentColor"
      ></path>
    </g>
  </svg>