<svg viewBox="0 0 24 24" xmlns="http://www.w3.org/2000/svg">
    <g fill="none">
      <g clip-path="url(#clip0)">
        <path
          fill-rule="evenodd"
          clip-rule="evenodd"
          d="M4.156 2.267a.75.75 0 0 0-.89.89l3 14a.75.75 0 0 0 .627.585l5.517.789a2.164 2.164 0 0 0 3.12 3l6.5-6.5a2.164 2.164 0 0 0-2.48-3.477l-.809-5.66a.75.75 0 0 0-.585-.627l-14-3zm14.047 10.468l-.872-6.111L6.325 4.266l4.334 4.333a2.75 2.75 0 1 1-1.06 1.06L5.263 5.326l2.359 11.005 6.11.873 4.47-4.47zM14.53 18.53l-1 1a.664.664 0 0 0 .94.94l6.5-6.5a.664.664 0 0 0-.94-.94l-.5.5-5 5zM12 9.75a1.25 1.25 0 1 0 0 2.5 1.25 1.25 0 0 0 0-2.5z"
          fill="currentColor"
        ></path>
      </g>
      <defs>
        <clipPath id="clip0"><path fill="#fff" d="M0 0h24v24H0z"></path></clipPath>
      </defs>
    </g>
  </svg>