<svg viewBox="0 0 24 24" xmlns="http://www.w3.org/2000/svg">
    <g fill="none">
      <path
        fill-rule="evenodd"
        clip-rule="evenodd"
        d="M3.25 3A.75.75 0 0 1 4 2.25h16a.75.75 0 0 1 0 1.5H4A.75.75 0 0 1 3.25 3zm8.22 3.47a.75.75 0 0 1 1.06 0l2.5 2.5a.75.75 0 1 1-1.06 1.06l-1.22-1.22v6.38l1.22-1.22a.75.75 0 1 1 1.06 1.06l-2.5 2.5a.75.75 0 0 1-1.06 0l-2.5-2.5a.75.75 0 1 1 1.06-1.06l1.22 1.22V8.81l-1.22 1.22a.75.75 0 1 1-1.06-1.06l2.5-2.5zM4 20.25a.75.75 0 0 0 0 1.5h16a.75.75 0 0 0 0-1.5H4z"
        fill="currentColor"
      ></path>
    </g>
  </svg>