<svg viewBox="0 0 24 24" xmlns="http://www.w3.org/2000/svg">
    <g fill="none">
      <path
        fill-rule="evenodd"
        clip-rule="evenodd"
        d="M6.75 8.519c0-1.99.682-3.419 1.646-4.35C9.369 3.23 10.677 2.75 12 2.75c1.322 0 2.63.479 3.604 1.42.964.93 1.646 2.359 1.646 4.349 0 2.425-1.284 4.568-2.69 6.179-.276.317-.427.486-.614.63-.175.133-.41.265-.858.424-.167.059-.581.113-1.088.113-.507 0-.921-.054-1.088-.113-.447-.16-.683-.291-.858-.425-.186-.143-.338-.312-.614-.629-1.406-1.61-2.69-3.754-2.69-6.18zm12 0c0-2.356-.818-4.187-2.104-5.429C15.369 1.857 13.677 1.25 12 1.25c-1.678 0-3.37.607-4.646 1.84C6.068 4.332 5.25 6.163 5.25 8.52c0 2.95 1.551 5.437 3.06 7.165l.023.027c.248.285.492.564.809.807.339.26.73.456 1.268.647.421.15 1.052.2 1.59.2s1.169-.05 1.59-.2c.539-.191.93-.388 1.268-.647.317-.243.56-.522.81-.807l.023-.027c1.508-1.728 3.059-4.214 3.059-7.165zM12 6.75a1.25 1.25 0 1 0 0 2.5 1.25 1.25 0 0 0 0-2.5zM9.25 8a2.75 2.75 0 1 1 5.5 0 2.75 2.75 0 0 1-5.5 0zm-3.562 7.547a.75.75 0 0 1-.39.987c-.577.251-.988.516-1.243.765-.254.247-.305.427-.305.537 0 .125.07.35.437.655.361.3.93.605 1.698.875 1.53.537 3.691.884 6.115.884 2.424 0 4.586-.347 6.115-.884.768-.27 1.337-.575 1.698-.875.366-.305.437-.53.437-.655 0-.11-.051-.29-.305-.537-.255-.25-.666-.514-1.244-.765a.75.75 0 1 1 .598-1.375c.673.292 1.262.645 1.694 1.066.434.423.757.966.757 1.61 0 .749-.433 1.356-.978 1.809-.549.457-1.299.834-2.16 1.137-1.727.607-4.065.969-6.612.969-2.547 0-4.885-.362-6.613-.97-.86-.302-1.61-.68-2.16-1.136-.544-.453-.977-1.06-.977-1.808 0-.645.323-1.188.757-1.61.432-.422 1.021-.775 1.694-1.067a.75.75 0 0 1 .987.388z"
        fill="currentColor"
      ></path>
    </g>
  </svg>