<svg viewBox="0 0 24 24" xmlns="http://www.w3.org/2000/svg">
    <g fill="none">
      <path
        fill-rule="evenodd"
        clip-rule="evenodd"
        d="M8.354 3.644c2.154-1.155 4.898-1.191 7.09-.104 2.154 1.068 3.806 3.235 3.806 6.608 0 1.253-.287 2.445-.758 3.56-.067.158-.137.315-.21.47a.75.75 0 0 0 1.353.645c.083-.175.163-.352.239-.531.535-1.268.876-2.658.876-4.144 0-3.946-1.978-6.632-4.64-7.952-2.623-1.301-5.88-1.26-8.464.126a.75.75 0 1 0 .708 1.322zM3.53 2.47a.75.75 0 0 0-1.06 1.06l1.936 1.936c-.733 1.29-1.156 2.857-1.156 4.682 0 4.306 2.853 7.82 5.14 9.96l.016.015c.694.65 1.145 1.071 2.187 1.394.39.122.931.166 1.407.166.477 0 1.017-.045 1.408-.166 1.042-.323 1.493-.745 2.187-1.395l.016-.015c.55-.514 1.124-1.1 1.682-1.753l3.177 3.176a.75.75 0 1 0 1.06-1.06l-3.762-3.762L5.886 4.826 3.53 2.47zm1.22 7.678c0-1.403.286-2.59.766-3.572L16.229 17.29a20.372 20.372 0 0 1-1.643 1.721c-.677.635-.918.855-1.623 1.073-.174.055-.536.099-.963.099-.426 0-.788-.044-.963-.098-.704-.219-.945-.439-1.622-1.073-2.213-2.07-4.665-5.208-4.665-8.864zm6.5-2.27a2.25 2.25 0 0 1 2.872 2.872.75.75 0 1 0 1.414.5 3.75 3.75 0 0 0-4.786-4.786.75.75 0 1 0 .5 1.414z"
        fill="currentColor"
      ></path>
    </g>
  </svg>