<svg viewBox="0 0 24 24" xmlns="http://www.w3.org/2000/svg">
    <g fill="none">
      <path
        fill-rule="evenodd"
        clip-rule="evenodd"
        d="M7.904 5.034l-.03-.019c-.379-.253-.706-.47-.98-.62-.275-.148-.614-.296-.998-.273a1.75 1.75 0 0 0-1.292.69c-.232.308-.297.672-.326.983-.028.311-.028.704-.028 1.16v10.09c0 .456 0 .85.028 1.16.029.311.094.676.326.982.31.409.78.661 1.292.691.384.023.723-.124.998-.273.274-.149.601-.367.98-.62l.03-.02 7.515-5.01.027-.018c.31-.207.585-.39.794-.558.215-.173.444-.395.574-.708a1.75 1.75 0 0 0 0-1.341c-.13-.314-.359-.535-.574-.71a11.556 11.556 0 0 0-.794-.557l-.027-.018-7.515-5.01zm-2.094.672a.25.25 0 0 1 .16-.086c.018.005.08.024.21.094.206.112.475.29.892.569l7.515 5.01c.346.23.562.376.71.496a.848.848 0 0 1 .135.124.25.25 0 0 1 0 .174.848.848 0 0 1-.134.125c-.149.12-.365.265-.71.495l-7.516 5.01c-.417.278-.686.457-.893.569-.13.07-.191.09-.209.094a.25.25 0 0 1-.16-.086 1.041 1.041 0 0 1-.038-.226 13.326 13.326 0 0 1-.022-1.058V6.99c0-.5 0-.824.022-1.058.014-.146.032-.209.038-.226zM20.75 5a.75.75 0 0 0-1.5 0v14a.75.75 0 0 0 1.5 0V5z"
        fill="currentColor"
      ></path>
    </g>
  </svg>