<svg viewBox="0 0 24 24" xmlns="http://www.w3.org/2000/svg">
    <g fill="none">
      <path
        fill-rule="evenodd"
        clip-rule="evenodd"
        d="M3 4.25a.75.75 0 0 0 0 1.5h16a.75.75 0 0 0 0-1.5H3zm0 4a.75.75 0 0 0 0 1.5h12a.75.75 0 0 0 0-1.5H3zM2.25 13a.75.75 0 0 1 .75-.75h8a.75.75 0 0 1 0 1.5H3a.75.75 0 0 1-.75-.75zM3 16.25a.75.75 0 0 0 0 1.5h6a.75.75 0 0 0 0-1.5H3zm14 1.5a1.25 1.25 0 1 0 0 2.5 1.25 1.25 0 0 0 0-2.5zm1.25-1.2a2.75 2.75 0 1 0 1.5 2.45v-6.599l1.834 1.223a.75.75 0 1 0 .832-1.248l-3-2A.75.75 0 0 0 18.25 11v5.55z"
        fill="currentColor"
      ></path>
    </g>
  </svg>