<svg viewBox="0 0 24 24" xmlns="http://www.w3.org/2000/svg">
    <g fill="none">
      <path
        fill-rule="evenodd"
        clip-rule="evenodd"
        d="M2.25 5A.75.75 0 0 1 3 4.25h16a.75.75 0 0 1 0 1.5H3A.75.75 0 0 1 2.25 5zm0 4A.75.75 0 0 1 3 8.25h12a.75.75 0 0 1 0 1.5H3A.75.75 0 0 1 2.25 9zM3 12.25a.75.75 0 0 0 0 1.5h8a.75.75 0 0 0 0-1.5H3zM2.25 17a.75.75 0 0 1 .75-.75h6a.75.75 0 0 1 0 1.5H3a.75.75 0 0 1-.75-.75zm16.5-3a.75.75 0 0 0-1.5 0v2.25H15a.75.75 0 0 0 0 1.5h2.25V20a.75.75 0 0 0 1.5 0v-2.25H21a.75.75 0 0 0 0-1.5h-2.25V14z"
        fill="currentColor"
      ></path>
    </g>
  </svg>