<svg viewBox="0 0 24 24" xmlns="http://www.w3.org/2000/svg">
    <g fill="none">
      <path
        fill-rule="evenodd"
        clip-rule="evenodd"
        d="M11.074 2.796a9.25 9.25 0 1 1 0 18.409.75.75 0 1 0-.148 1.492c.353.035.712.053 1.074.053 5.937 0 10.75-4.813 10.75-10.75S17.937 1.25 12 1.25c-.362 0-.72.018-1.074.053a.75.75 0 1 0 .148 1.493zM8.3 3.519a.75.75 0 0 0-.6-1.374c-.768.335-1.489.758-2.15 1.255a.75.75 0 0 0 .9 1.199 9.241 9.241 0 0 1 1.85-1.08zM4.6 6.45a.75.75 0 1 0-1.2-.9c-.496.661-.919 1.382-1.254 2.15a.75.75 0 1 0 1.374.6c.289-.66.652-1.28 1.08-1.85zm-1.803 4.624a.75.75 0 1 0-1.493-.148 10.871 10.871 0 0 0 0 2.148.75.75 0 1 0 1.493-.148 9.368 9.368 0 0 1 0-1.852zm.723 4.626a.75.75 0 0 0-1.374.6A10.74 10.74 0 0 0 3.4 18.45a.75.75 0 0 0 1.199-.9 9.24 9.24 0 0 1-1.08-1.85zm2.93 3.7a.75.75 0 1 0-.9 1.2c.661.497 1.382.92 2.15 1.255a.75.75 0 1 0 .601-1.374 9.24 9.24 0 0 1-1.85-1.08zm6.454-10.366l-.028-.019c-.38-.253-.707-.47-.981-.62-.275-.148-.614-.296-.998-.273a1.75 1.75 0 0 0-1.292.69c-.232.308-.297.672-.326.983-.028.31-.028.704-.028 1.16V13.045c0 .456 0 .85.028 1.16.029.31.094.675.326.982.31.408.78.66 1.292.691.384.023.723-.125.998-.273.274-.15.601-.367.98-.62l.03-.02 1.515-1.01.027-.018c.31-.207.585-.39.794-.558.215-.173.444-.395.574-.709a1.75 1.75 0 0 0 0-1.34c-.13-.314-.359-.536-.574-.71-.209-.167-.483-.35-.794-.557l-.027-.018-1.516-1.01zm-2.093.672a.25.25 0 0 1 .16-.086c.018.005.08.024.21.094.206.112.475.29.892.568l1.515 1.01c.346.231.562.377.71.496a.856.856 0 0 1 .135.125c.02.056.02.118 0 .174a.856.856 0 0 1-.134.125c-.149.12-.365.265-.71.495l-1.516 1.01c-.417.278-.686.457-.893.569-.13.07-.191.089-.209.094a.25.25 0 0 1-.16-.086 1.044 1.044 0 0 1-.038-.226 13.333 13.333 0 0 1-.022-1.058v-2.02c0-.5 0-.824.022-1.058.014-.147.032-.209.038-.226z"
        fill="currentColor"
      ></path>
    </g>
  </svg>