<svg viewBox="0 0 24 24" xmlns="http://www.w3.org/2000/svg">
    <g fill="none">
      <path
        fill-rule="evenodd"
        clip-rule="evenodd"
        d="M16.928 6.283c.417-.278.686-.457.893-.569.13-.07.191-.089.209-.094a.25.25 0 0 1 .16.086c.006.017.024.08.038.226.021.234.022.557.022 1.058v10.02c0 .501 0 .824-.022 1.058a1.044 1.044 0 0 1-.038.226.25.25 0 0 1-.16.086 1.037 1.037 0 0 1-.21-.094c-.206-.112-.475-.29-.892-.568l-7.515-5.01c-.346-.231-.562-.376-.71-.496a.843.843 0 0 1-.135-.125.25.25 0 0 1 0-.174.843.843 0 0 1 .134-.124c.149-.12.365-.265.711-.496l7.515-5.01zm1.176-2.161c-.384-.023-.723.125-.998.274-.274.148-.601.366-.98.62l-.03.018-7.515 5.01-.027.019c-.31.207-.585.39-.794.558-.215.174-.444.395-.574.709a1.75 1.75 0 0 0 0 1.34c.13.314.359.536.574.71.209.167.483.35.794.557l.027.019 7.515 5.01.03.02c.379.252.706.47.98.619.275.149.614.296.998.273a1.75 1.75 0 0 0 1.292-.69c.232-.307.297-.672.326-.983.028-.31.028-.704.028-1.16V6.955c0-.456 0-.849-.028-1.16-.029-.31-.094-.675-.326-.982a1.75 1.75 0 0 0-1.292-.691zM4.75 5a.75.75 0 1 0-1.5 0v14a.75.75 0 0 0 1.5 0V5z"
        fill="currentColor"
      ></path>
    </g>
  </svg>