<svg viewBox="0 0 24 24" xmlns="http://www.w3.org/2000/svg">
    <g fill="none">
      <path
        fill-rule="evenodd"
        clip-rule="evenodd"
        d="M8.842 3.935l.029.019 9.441 6.069.027.018c.325.208.611.392.828.561.222.174.46.397.596.717a1.75 1.75 0 0 1 0 1.362c-.135.32-.374.543-.597.717-.216.168-.502.352-.826.56l-.028.019-9.441 6.069-.03.019c-.376.242-.701.451-.974.593-.275.143-.612.283-.992.256a1.75 1.75 0 0 1-1.276-.697c-.228-.305-.293-.664-.32-.972-.029-.307-.029-.694-.029-1.141V5.896c0-.448 0-.835.028-1.141.028-.308.093-.668.321-.972a1.75 1.75 0 0 1 1.276-.697c.38-.027.717.113.992.256.273.142.598.35.975.593zm-1.874.649a.25.25 0 0 0-.16.086 1.021 1.021 0 0 0-.036.222c-.021.23-.022.546-.022 1.038v12.14c0 .491 0 .808.022 1.038.013.143.031.204.037.221a.25.25 0 0 0 .159.087c.017-.004.078-.022.206-.088.205-.107.472-.278.886-.544l9.44-6.07c.361-.231.588-.378.744-.5a.88.88 0 0 0 .14-.127.25.25 0 0 0 0-.175.882.882 0 0 0-.14-.127 11.28 11.28 0 0 0-.743-.5L8.06 5.215a13.07 13.07 0 0 0-.886-.543 1.022 1.022 0 0 0-.206-.088z"
        fill="currentColor"
      ></path>
    </g>
  </svg>