<svg viewBox="0 0 24 24" xmlns="http://www.w3.org/2000/svg">
    <g fill="none">
      <path
        fill-rule="evenodd"
        clip-rule="evenodd"
        d="M9.75 2v2a.75.75 0 1 1-1.5 0V2a.75.75 0 0 1 1.5 0zm-8.28-.53a.75.75 0 0 1 1.06 0l5 5 11 11 4 4a.75.75 0 1 1-1.06 1.06L18 19.06l-.595.596-.066.066c-.629.629-1.034 1.034-1.514 1.328a4.75 4.75 0 0 1-1.373.569c-.548.131-1.12.131-2.01.131H11.558c-.888 0-1.461 0-2.009-.131a4.75 4.75 0 0 1-1.373-.569c-.48-.294-.885-.7-1.514-1.328l-.066-.066-1.25-1.251-.067-.066c-.629-.629-1.034-1.034-1.328-1.514a4.75 4.75 0 0 1-.569-1.373c-.131-.548-.131-1.12-.13-2.01V10A3.75 3.75 0 0 1 5.5 6.562L1.47 2.53a.75.75 0 0 1 0-1.06zm5.238 6.299A2.25 2.25 0 0 0 4.75 10v3.349c0 1.014.005 1.399.09 1.753.08.332.21.649.389.94.19.31.459.585 1.176 1.302l1.25 1.251c.718.717.993.986 1.304 1.176.29.178.608.31.94.39.353.084.738.089 1.752.089h.698c1.014 0 1.399-.005 1.753-.09.332-.08.649-.21.94-.389.31-.19.585-.459 1.302-1.176L16.94 18 6.71 7.769zM10.25 7a.75.75 0 0 1 .75-.75h3.25V2a.75.75 0 1 1 1.5 0v4.25c.58.002 1.068.01 1.482.043.546.045 1.026.14 1.47.366a3.75 3.75 0 0 1 1.64 1.639c.226.444.32.924.365 1.47.043.531.043 1.187.043 2V15a.75.75 0 0 1-1.5 0v-3.2c0-.853 0-1.447-.038-1.91-.037-.453-.107-.714-.207-.911a2.25 2.25 0 0 0-.983-.984c-.198-.1-.459-.17-.913-.207-.462-.037-1.057-.038-1.909-.038H11a.75.75 0 0 1-.75-.75z"
        fill="currentColor"
      ></path>
    </g>
  </svg>