<svg viewBox="0 0 24 24" xmlns="http://www.w3.org/2000/svg">
    <g fill="none">
      <path
        fill-rule="evenodd"
        clip-rule="evenodd"
        d="M9 1.25a.75.75 0 0 1 .75.75v4.25h4.5V2a.75.75 0 0 1 1.5 0v4.25c.58.002 1.068.01 1.482.043.546.045 1.026.14 1.47.366a3.75 3.75 0 0 1 1.64 1.639c.226.444.32.924.365 1.47.043.531.043 1.187.043 2v1.675c0 .888 0 1.461-.131 2.009a4.75 4.75 0 0 1-.569 1.373c-.294.48-.7.885-1.328 1.514l-.066.066-1.251 1.25-.066.067c-.629.629-1.034 1.034-1.514 1.328a4.75 4.75 0 0 1-1.373.569c-.548.131-1.12.131-2.01.131H11.558c-.888 0-1.461 0-2.009-.131a4.75 4.75 0 0 1-1.373-.569c-.48-.294-.885-.7-1.514-1.328l-.066-.066-1.25-1.251-.067-.066c-.629-.629-1.034-1.034-1.328-1.514a4.75 4.75 0 0 1-.569-1.373c-.131-.548-.131-1.12-.131-2.01v-1.674c0-.813 0-1.469.043-2 .045-.546.14-1.026.366-1.47a3.75 3.75 0 0 1 1.639-1.64c.444-.226.924-.32 1.47-.365.414-.033.902-.04 1.482-.043V2A.75.75 0 0 1 9 1.25zm6 6.5H8.8c-.852 0-1.447 0-1.91.038-.453.037-.714.107-.911.207a2.25 2.25 0 0 0-.984.984c-.1.197-.17.458-.207.912-.037.462-.038 1.056-.038 1.909v1.549c0 1.014.005 1.399.09 1.753.08.332.21.649.389.94.19.31.459.585 1.176 1.302l1.25 1.251c.718.717.993.986 1.304 1.176.29.178.608.31.94.39.353.084.738.089 1.752.089h.698c1.014 0 1.399-.005 1.753-.09.332-.08.649-.21.94-.389.31-.19.585-.459 1.302-1.176l1.251-1.25c.717-.718.986-.993 1.176-1.304.178-.29.31-.607.39-.94.084-.353.089-.738.089-1.752V11.8c0-.853 0-1.447-.038-1.91-.038-.453-.107-.714-.207-.911a2.25 2.25 0 0 0-.983-.984c-.198-.1-.459-.17-.913-.207-.462-.037-1.057-.038-1.909-.038H15z"
        fill="currentColor"
      ></path>
    </g>
  </svg>