<svg viewBox="0 0 24 24" xmlns="http://www.w3.org/2000/svg">
    <g fill="none">
      <path
        fill-rule="evenodd"
        clip-rule="evenodd"
        d="M6.8 2.25h-.032c-.813 0-1.469 0-2 .043-.546.045-1.026.14-1.47.366a3.75 3.75 0 0 0-1.64 1.639c-.226.444-.32.924-.365 1.47-.043.531-.043 1.187-.043 2v8.464c0 .813 0 1.469.043 2 .045.546.14 1.026.366 1.47a3.75 3.75 0 0 0 1.639 1.64c.444.226.924.32 1.47.365.531.043 1.187.043 2 .043h4.464c.813 0 1.469 0 2-.043.546-.045 1.026-.14 1.47-.366a3.75 3.75 0 0 0 1.64-1.639c.226-.444.32-.924.365-1.47.012-.15.02-.311.027-.482H18.83c.535 0 .98 0 1.345-.03.38-.03.736-.098 1.073-.27a2.751 2.751 0 0 0 1.202-1.201c.172-.338.24-.694.27-1.074.03-.365.03-.81.03-1.345V10.17c0-.535 0-.98-.03-1.345-.03-.38-.098-.736-.27-1.073A2.75 2.75 0 0 0 21.25 6.55c-.338-.172-.694-.24-1.074-.27-.365-.03-.81-.03-1.345-.03H16.734a10.807 10.807 0 0 0-.027-.481c-.045-.547-.14-1.027-.366-1.471a3.75 3.75 0 0 0-1.639-1.64c-.444-.226-.924-.32-1.47-.365-.531-.043-1.187-.043-2-.043H6.8zm9.95 5.5v1.5h4.492a6.272 6.272 0 0 0-.017-.303c-.023-.287-.065-.424-.111-.514a1.25 1.25 0 0 0-.547-.547c-.09-.046-.227-.088-.515-.111-.295-.024-.68-.025-1.252-.025h-2.05zm-1.5 8.45V7.8c0-.852 0-1.447-.038-1.91-.037-.453-.107-.714-.207-.911a2.25 2.25 0 0 0-.984-.984c-.197-.1-.458-.17-.912-.207-.462-.037-1.056-.038-1.909-.038H6.8c-.852 0-1.447 0-1.91.038-.453.037-.714.107-.911.207a2.25 2.25 0 0 0-.984.984c-.1.197-.17.458-.207.912-.037.462-.038 1.057-.038 1.909v8.4c0 .852 0 1.447.038 1.91.037.453.107.714.207.912.216.423.56.767.984.983.197.1.458.17.912.207.462.037 1.057.038 1.909.038h4.4c.853 0 1.447 0 1.91-.038.453-.038.714-.107.912-.207.423-.216.767-.56.983-.983.1-.198.17-.459.207-.913.037-.462.038-1.057.038-1.909zm6-5.45h-4.5v5.5h2.05c.572 0 .957 0 1.252-.025.288-.023.425-.065.515-.111a1.25 1.25 0 0 0 .547-.546c.046-.091.088-.228.111-.515.024-.296.025-.68.025-1.253v-3.05zM7 5.25h-.084c-.38 0-.71 0-.998.077a2.25 2.25 0 0 0-1.591 1.59c-.078.29-.077.618-.077 1v.167c0 .38 0 .71.077.998a2.25 2.25 0 0 0 1.59 1.591c.29.078.618.078 1 .077h4.167c.38 0 .71 0 .998-.077a2.25 2.25 0 0 0 1.591-1.59c.078-.29.078-.618.077-1v-.167c0-.38 0-.71-.077-.998a2.25 2.25 0 0 0-1.59-1.591c-.29-.078-.618-.077-1-.077H7zm-.694 1.526c.071-.02.18-.026.694-.026h4c.513 0 .623.006.694.026a.75.75 0 0 1 .53.53c.02.071.026.18.026.694 0 .513-.006.623-.026.694a.75.75 0 0 1-.53.53c-.071.02-.18.026-.694.026H7c-.513 0-.623-.006-.694-.026a.75.75 0 0 1-.53-.53c-.02-.071-.026-.18-.026-.694 0-.513.006-.623.026-.694a.75.75 0 0 1 .53-.53zM7 14a1 1 0 1 1-2 0 1 1 0 0 1 2 0zm-1 4a1 1 0 1 0 0-2 1 1 0 0 0 0 2zm4-4a1 1 0 1 1-2 0 1 1 0 0 1 2 0zm-1 4a1 1 0 1 0 0-2 1 1 0 0 0 0 2zm4-4a1 1 0 1 1-2 0 1 1 0 0 1 2 0zm-1 4a1 1 0 1 0 0-2 1 1 0 0 0 0 2z"
        fill="currentColor"
      ></path>
    </g>
  </svg>