<svg viewBox="0 0 24 24" xmlns="http://www.w3.org/2000/svg">
    <g fill="none">
      <path
        fill-rule="evenodd"
        clip-rule="evenodd"
        d="M12.75 2a.75.75 0 0 0-1.5 0v10a.75.75 0 0 0 1.5 0V2zM6.814 5.583a.75.75 0 1 0-.943-1.166c-.408.33-.789.692-1.138 1.083A9.717 9.717 0 0 0 2.25 12c0 5.385 4.365 9.75 9.75 9.75s9.75-4.365 9.75-9.75c0-2.497-.94-4.776-2.483-6.5-.35-.39-.73-.753-1.138-1.083a.75.75 0 0 0-.944 1.166A8.216 8.216 0 0 1 20.25 12 8.25 8.25 0 1 1 6.815 5.583z"
        fill="currentColor"
      ></path>
    </g>
  </svg>