<svg viewBox="0 0 24 24" xmlns="http://www.w3.org/2000/svg">
    <g fill="none">
      <path
        fill-rule="evenodd"
        clip-rule="evenodd"
        d="M1.25 3A.75.75 0 0 1 2 2.25h20a.75.75 0 0 1 0 1.5h-1.25v6.482c0 .813 0 1.469-.043 2-.045.546-.14 1.026-.366 1.47a3.75 3.75 0 0 1-1.639 1.64c-.444.226-.924.32-1.47.365-.531.043-1.187.043-2 .043H12.75v1.825l4.636 2.782a.75.75 0 1 1-.772 1.286l-3.864-2.318V21a.75.75 0 0 1-1.5 0v-1.675l-3.864 2.318a.75.75 0 1 1-.772-1.286l4.636-2.782V15.75H8.768c-.813 0-1.469 0-2-.043-.546-.045-1.026-.14-1.47-.366a3.75 3.75 0 0 1-1.64-1.638c-.226-.445-.32-.925-.365-1.471-.043-.531-.043-1.187-.043-2V3.75H2A.75.75 0 0 1 1.25 3zM12 14.25h3.2c.852 0 1.447 0 1.91-.038.453-.037.714-.107.912-.207.423-.216.767-.56.983-.984.1-.197.17-.458.207-.912.037-.462.038-1.056.038-1.909V3.75H4.75v6.45c0 .853 0 1.447.038 1.91.037.453.107.714.207.912.216.423.56.767.984.983.197.1.458.17.912.207.462.037 1.057.038 1.909.038H12zm4.416-5.626a.75.75 0 1 0-.832-1.248l-2.489 1.659L11.53 7.47a.75.75 0 0 0-.946-.094l-3 2a.75.75 0 1 0 .832 1.248l2.488-1.659 1.566 1.565a.75.75 0 0 0 .946.094l3-2z"
        fill="currentColor"
      ></path>
    </g>
  </svg>