<svg viewBox="0 0 24 24" xmlns="http://www.w3.org/2000/svg">
    <g fill="none">
      <path
        fill-rule="evenodd"
        clip-rule="evenodd"
        d="M2.53 1.47a.75.75 0 0 0-1.06 1.06l4.737 4.738c-.155.006-.3.014-.438.025-.547.045-1.027.14-1.471.366a3.75 3.75 0 0 0-1.64 1.639c-.226.444-.32.924-.365 1.47-.043.531-.043 1.187-.043 2V15c0 1.815 1.29 3.33 3.003 3.676.003.171.008.327.018.47.021.316.068.616.188.906a2.75 2.75 0 0 0 1.489 1.489c.29.12.59.167.907.188.304.021.675.021 1.12.021H15.025c.445 0 .816 0 1.12-.02.317-.022.617-.069.907-.19a2.75 2.75 0 0 0 1.489-1.488 2.23 2.23 0 0 0 .109-.341l2.82 2.82a.75.75 0 1 0 1.06-1.061l-14-14-6-6zm14.72 16.84l-2.56-2.56H9c-.476 0-.796 0-1.043.017-.241.017-.358.046-.435.078a1.25 1.25 0 0 0-.677.677c-.032.077-.061.194-.078.435-.017.247-.017.567-.017 1.043s0 .796.017 1.043c.017.241.046.358.078.435.127.307.37.55.677.677.077.032.194.061.435.078.247.017.567.017 1.043.017h6c.476 0 .796 0 1.043-.017.241-.017.358-.046.435-.078.307-.127.55-.37.677-.677.032-.077.061-.194.078-.435.013-.19.016-.42.017-.733zm-4.06-4.06l-5.5-5.5c-.794 0-1.357.002-1.8.038-.453.037-.714.107-.911.207a2.25 2.25 0 0 0-.984.984c-.1.197-.17.458-.207.912-.037.462-.038 1.056-.038 1.909V15c0 .983.63 1.818 1.508 2.125.003-.096.007-.186.013-.27.021-.317.068-.617.188-.907a2.75 2.75 0 0 1 1.489-1.489c.29-.12.59-.167.907-.188.304-.021.675-.021 1.12-.021H13.19zm-1.19-7a.75.75 0 0 0 0 1.5h4.2c.852 0 1.447 0 1.91.038.453.037.714.107.912.207.423.216.767.56.983.984.1.197.17.458.207.912.037.462.038 1.056.038 1.909V16a.75.75 0 0 0 1.5 0v-3.232c0-.813 0-1.469-.043-2-.045-.546-.14-1.026-.366-1.47a3.75 3.75 0 0 0-1.639-1.64 3.276 3.276 0 0 0-.952-.302V6.17c0-.535 0-.98-.03-1.345-.03-.38-.098-.736-.27-1.073A2.75 2.75 0 0 0 17.25 2.55c-.338-.172-.694-.24-1.074-.27-.365-.03-.81-.03-1.345-.03H8a.75.75 0 0 0 0 1.5h6.8c.572 0 .957 0 1.252.025.288.023.425.065.515.111.236.12.427.311.547.547.046.09.088.227.111.514.024.296.025.68.025 1.253v1.054c-.309-.004-.647-.004-1.018-.004H12zM5.25 11a.75.75 0 0 1 .75-.75h1a.75.75 0 0 1 0 1.5H6a.75.75 0 0 1-.75-.75z"
        fill="currentColor"
      ></path>
    </g>
  </svg>