<svg viewBox="0 0 24 24" xmlns="http://www.w3.org/2000/svg">
    <g fill="none">
      <path
        fill-rule="evenodd"
        clip-rule="evenodd"
        d="M9.2 2.25h-.03c-.535 0-.98 0-1.345.03-.38.03-.736.098-1.073.27A2.75 2.75 0 0 0 5.55 3.752c-.172.337-.24.693-.27 1.073-.03.365-.03.81-.03 1.345v1.186c-.34.058-.654.15-.952.303a3.75 3.75 0 0 0-1.64 1.639c-.226.444-.32.924-.365 1.47-.043.531-.043 1.187-.043 2V15c0 1.815 1.29 3.33 3.003 3.676.003.171.008.327.018.47.021.316.068.616.188.906a2.75 2.75 0 0 0 1.489 1.489c.29.12.59.167.907.188.304.021.675.021 1.12.021H15.025c.445 0 .816 0 1.12-.02.317-.022.617-.069.907-.19a2.75 2.75 0 0 0 1.489-1.488c.12-.29.167-.59.188-.907.01-.142.015-.298.018-.47A3.751 3.751 0 0 0 21.75 15v-2.232c0-.813 0-1.469-.043-2-.045-.546-.14-1.026-.366-1.47a3.75 3.75 0 0 0-1.639-1.64 3.276 3.276 0 0 0-.952-.302V6.17c0-.535 0-.98-.03-1.345-.03-.38-.098-.736-.27-1.073A2.75 2.75 0 0 0 17.25 2.55c-.338-.172-.694-.24-1.074-.27-.365-.03-.81-.03-1.345-.03H9.2zm8.05 5.004V6.2c0-.572 0-.957-.025-1.253-.023-.287-.065-.424-.111-.514a1.25 1.25 0 0 0-.547-.547c-.09-.046-.227-.088-.515-.111-.295-.024-.68-.025-1.252-.025H9.2c-.572 0-.957 0-1.253.025-.287.023-.424.065-.514.111a1.25 1.25 0 0 0-.547.547c-.046.09-.088.227-.111.514-.024.296-.025.68-.025 1.253v1.054c.309-.004.647-.004 1.018-.004h8.464c.371 0 .71 0 1.018.004zm1.492 9.87A2.25 2.25 0 0 0 20.25 15v-2.2c0-.853 0-1.447-.038-1.91-.038-.453-.107-.714-.207-.911a2.25 2.25 0 0 0-.983-.984c-.198-.1-.459-.17-.913-.207-.462-.037-1.057-.038-1.909-.038H7.8c-.852 0-1.447 0-1.91.038-.453.037-.714.107-.911.207a2.25 2.25 0 0 0-.984.984c-.1.197-.17.458-.207.912-.037.462-.038 1.056-.038 1.909V15c0 .983.63 1.818 1.508 2.125.003-.096.007-.186.013-.27.021-.317.068-.617.188-.907a2.75 2.75 0 0 1 1.489-1.489c.29-.12.59-.167.907-.188.304-.021.675-.021 1.12-.021H15.025c.445 0 .816 0 1.12.02.317.022.617.069.907.19a2.75 2.75 0 0 1 1.489 1.488c.12.29.167.59.188.907.006.084.01.174.013.27zm-11.22-1.279c.077-.032.194-.061.435-.078A17.07 17.07 0 0 1 9 15.75h6c.476 0 .796 0 1.043.017.241.017.358.046.435.078.307.127.55.37.677.677.032.077.061.194.078.435.017.247.017.567.017 1.043s0 .796-.017 1.043c-.017.241-.046.358-.078.435a1.25 1.25 0 0 1-.677.677c-.077.032-.194.061-.435.078-.247.017-.567.017-1.043.017H9c-.476 0-.796 0-1.043-.017-.241-.017-.358-.046-.435-.078a1.25 1.25 0 0 1-.677-.677c-.032-.077-.061-.194-.078-.435A17.091 17.091 0 0 1 6.75 18c0-.476 0-.796.017-1.043.017-.241.046-.358.078-.435.127-.307.37-.55.677-.677zM5.25 11a.75.75 0 0 1 .75-.75h1a.75.75 0 0 1 0 1.5H6a.75.75 0 0 1-.75-.75z"
        fill="currentColor"
      ></path>
    </g>
  </svg>