<svg viewBox="0 0 24 24" xmlns="http://www.w3.org/2000/svg">
    <g fill="none">
      <path
        fill-rule="evenodd"
        clip-rule="evenodd"
        d="M17.397 3.364a.75.75 0 0 1 .239 1.034l-10 16a.75.75 0 1 1-1.272-.795l10-16a.75.75 0 0 1 1.033-.239zM6 4.75a2.25 2.25 0 1 0 0 4.5 2.25 2.25 0 0 0 0-4.5zM2.25 7a3.75 3.75 0 1 1 7.5 0 3.75 3.75 0 0 1-7.5 0zm13.5 10a2.25 2.25 0 1 1 4.5 0 2.25 2.25 0 0 1-4.5 0zM18 13.25a3.75 3.75 0 1 0 0 7.5 3.75 3.75 0 0 0 0-7.5z"
        fill="currentColor"
      ></path>
    </g>
  </svg>