<svg viewBox="0 0 24 24" xmlns="http://www.w3.org/2000/svg">
    <g fill="none">
      <path
        fill-rule="evenodd"
        clip-rule="evenodd"
        d="M3.744 11.094C4.977 9.177 7.194 7.25 11 7.25c2.81 0 5.497 1.938 7.387 3.702a27.06 27.06 0 0 1 1.863 1.928V8a.75.75 0 0 1 1.5 0v7a.75.75 0 0 1-.75.75h-7a.75.75 0 0 1 0-1.5h5.45a25.98 25.98 0 0 0-2.087-2.202C15.503 10.312 13.19 8.75 11 8.75c-3.194 0-4.977 1.573-5.994 3.156a9.167 9.167 0 0 0-1.262 3.192l-.002.008a.75.75 0 0 1-1.484-.212L3 15l-.742-.107v-.003l.001-.007.003-.02.012-.072a10.032 10.032 0 0 1 .275-1.107c.217-.701.586-1.643 1.195-2.59z"
        fill="currentColor"
      ></path>
    </g>
  </svg>