<svg viewBox="0 0 24 24" xmlns="http://www.w3.org/2000/svg">
    <g fill="none">
      <path
        fill-rule="evenodd"
        clip-rule="evenodd"
        d="M4.77 4.924C6.363 3.596 8.777 2.25 12 2.25A9.731 9.731 0 0 1 21.75 12a.75.75 0 0 1-1.5 0A8.231 8.231 0 0 0 12 3.75c-2.777 0-4.863 1.154-6.27 2.326-.49.408-.894.816-1.212 1.174H7a.75.75 0 0 1 0 1.5H3A.75.75 0 0 1 2.25 8V3.5a.75.75 0 0 1 1.5 0v2.372c.293-.303.633-.626 1.02-.948zM3 11.25a.75.75 0 0 1 .75.75A8.25 8.25 0 0 0 12 20.25c2.225 0 4.053-1.12 5.36-2.306.458-.414.843-.83 1.15-1.194h-2.575a.75.75 0 0 1 0-1.5H20a.75.75 0 0 1 .75.75v4.5a.75.75 0 0 1-1.5 0v-2.321c-.26.282-.554.58-.882.877-1.45 1.314-3.622 2.694-6.368 2.694-5.385 0-9.75-4.365-9.75-9.75a.75.75 0 0 1 .75-.75z"
        fill="currentColor"
      ></path>
    </g>
  </svg>