<svg viewBox="0 0 24 24" xmlns="http://www.w3.org/2000/svg">
    <g fill="none">
      <path
        fill-rule="evenodd"
        clip-rule="evenodd"
        d="M16.47 1.47a.75.75 0 0 1 1.06 0l3 3a.75.75 0 0 1 0 1.06l-3 3a.75.75 0 1 1-1.06-1.06l1.72-1.72H8.8c-.852 0-1.447 0-1.91.038-.453.037-.714.107-.911.207a2.25 2.25 0 0 0-.984.984c-.1.197-.17.458-.207.912-.037.462-.038 1.057-.038 1.909V11a.75.75 0 0 1-1.5 0V9.768c0-.813 0-1.469.043-2 .045-.546.14-1.026.366-1.47a3.75 3.75 0 0 1 1.639-1.64c.444-.226.924-.32 1.47-.365.531-.043 1.187-.043 2-.043h9.422l-1.72-1.72a.75.75 0 0 1 0-1.06zm-3.683 6.837A.75.75 0 0 1 13.25 9v6a.75.75 0 0 1-1.5 0v-4.19l-1.22 1.22a.75.75 0 1 1-1.06-1.06l2.5-2.5a.75.75 0 0 1 .817-.163zM20.75 13.5V13a.75.75 0 0 0-1.5 0v1.2c0 .853 0 1.447-.038 1.91-.038.453-.107.714-.207.912-.216.423-.56.767-.983.983-.198.1-.459.17-.913.207-.462.037-1.057.038-1.909.038H5.81l1.72-1.72a.75.75 0 1 0-1.06-1.06l-3 3a.75.75 0 0 0 0 1.06l3 3a.75.75 0 0 0 1.06-1.06l-1.72-1.72h9.422c.813 0 1.469 0 2-.043.546-.045 1.026-.14 1.47-.366a3.75 3.75 0 0 0 1.64-1.639c.226-.444.32-.924.365-1.47.043-.531.043-1.187.043-2V13.5z"
        fill="currentColor"
      ></path>
    </g>
  </svg>