<svg viewBox="0 0 24 24" xmlns="http://www.w3.org/2000/svg">
    <g fill="none">
      <path
        fill-rule="evenodd"
        clip-rule="evenodd"
        d="M17.53 1.47a.75.75 0 1 0-1.06 1.06l1.72 1.72H8.767c-.813 0-1.469 0-2 .043-.546.045-1.026.14-1.47.366a3.75 3.75 0 0 0-1.64 1.639c-.226.444-.32.924-.365 1.47-.043.531-.043 1.187-.043 2V11a.75.75 0 0 0 1.5 0V9.8c0-.852 0-1.447.038-1.91.037-.453.107-.714.207-.911a2.25 2.25 0 0 1 .984-.984c.197-.1.458-.17.912-.207.462-.037 1.057-.038 1.909-.038h9.39l-1.72 1.72a.75.75 0 0 0 1.06 1.06l3-3a.75.75 0 0 0 0-1.06l-3-3zm3.22 12.03V13a.75.75 0 0 0-1.5 0v1.2c0 .853 0 1.447-.038 1.91-.038.453-.107.714-.207.912-.216.423-.56.767-.983.983-.198.1-.459.17-.913.207-.462.037-1.057.038-1.909.038H5.81l1.72-1.72a.75.75 0 1 0-1.06-1.06l-3 3a.75.75 0 0 0 0 1.06l3 3a.75.75 0 0 0 1.06-1.06l-1.72-1.72h9.422c.813 0 1.469 0 2-.043.546-.045 1.026-.14 1.47-.366a3.75 3.75 0 0 0 1.64-1.639c.226-.444.32-.924.365-1.47.043-.531.043-1.187.043-2V13.5z"
        fill="currentColor"
      ></path>
    </g>
  </svg>