<svg viewBox="0 0 24 24" xmlns="http://www.w3.org/2000/svg">
    <g fill="none">
      <path
        fill-rule="evenodd"
        clip-rule="evenodd"
        d="M4.77 4.924C6.363 3.596 8.777 2.25 12 2.25A9.731 9.731 0 0 1 21.75 12c0 5.385-4.365 9.75-9.75 9.75S2.25 17.385 2.25 12a.75.75 0 0 1 1.5 0 8.25 8.25 0 0 0 16.5 0A8.231 8.231 0 0 0 12 3.75c-2.777 0-4.863 1.154-6.27 2.326a11.346 11.346 0 0 0-1.582 1.611 8.926 8.926 0 0 0-.502.694l-.003.005A.75.75 0 0 1 2.25 8V3.5a.75.75 0 0 1 1.5 0v2.372c.293-.303.633-.626 1.02-.948zM9 8.25a.75.75 0 0 1 .75.75v6a.75.75 0 0 1-1.5 0V9A.75.75 0 0 1 9 8.25zm4.5 0a2.25 2.25 0 0 0-2.25 2.25v3a2.25 2.25 0 0 0 4.5 0v-3a2.25 2.25 0 0 0-2.25-2.25zm-.75 2.25a.75.75 0 0 1 1.5 0v3a.75.75 0 0 1-1.5 0v-3z"
        fill="currentColor"
      ></path>
    </g>
  </svg>