<svg viewBox="0 0 24 24" xmlns="http://www.w3.org/2000/svg">
    <g fill="none">
      <path
        fill-rule="evenodd"
        clip-rule="evenodd"
        d="M9.53 5.53a.75.75 0 1 0-1.06-1.06l-5 5a.75.75 0 0 0 0 1.06l5 5a.75.75 0 0 0 1.06-1.06L5.06 10l4.47-4.47zm4 0a.75.75 0 1 0-1.06-1.06l-5 5a.75.75 0 0 0 0 1.06l5 5a.75.75 0 0 0 1.06-1.06l-3.72-3.72h7.39c.852 0 1.447 0 1.91.038.453.037.714.107.912.207.423.216.767.56.983.984.1.197.17.458.207.912.037.462.038 1.056.038 1.909V17a.75.75 0 0 0 1.5 0v-2.232c0-.813 0-1.469-.043-2-.045-.546-.14-1.026-.366-1.47a3.75 3.75 0 0 0-1.639-1.64c-.444-.226-.924-.32-1.47-.365-.531-.043-1.187-.043-2-.043H9.81l3.72-3.72z"
        fill="currentColor"
      ></path>
    </g>
  </svg>