<svg viewBox="0 0 24 24" xmlns="http://www.w3.org/2000/svg">
    <g fill="none">
      <path
        fill-rule="evenodd"
        clip-rule="evenodd"
        d="M15.902 1.25h2.726c.395 0 .736 0 1.017.023.297.024.592.078.876.222.423.216.767.56.983.984.144.283.198.578.222.875.023.28.023.622.023 1.017v2.726c0 .652 0 1.103-.104 1.536a3.748 3.748 0 0 1-.448 1.084c-.233.38-.552.698-1.013 1.159l-.06.06-3.145 3.145c.308.432.563.798.76 1.122.248.41.432.8.52 1.233a3.75 3.75 0 0 1-.172 2.074c-.157.413-.402.766-.715 1.13-.303.352-.703.752-1.196 1.246l-.021.02-.624.624a.75.75 0 0 1-1.14-.094l-1.999-2.798a6.532 6.532 0 0 1-.093.08c-.29.247-.59.452-.95.569a2.75 2.75 0 0 1-1.7 0c-.36-.117-.66-.322-.95-.568a17.82 17.82 0 0 1-.971-.93l-.022-.021-2.474-2.475-.022-.021a17.788 17.788 0 0 1-.93-.972c-.246-.29-.45-.59-.568-.95a2.75 2.75 0 0 1 0-1.7c.117-.36.322-.66.569-.95l.08-.092L1.565 8.61a.75.75 0 0 1-.095-1.14l.624-.624.02-.021c.494-.493.894-.893 1.246-1.196.364-.313.717-.558 1.13-.715a3.75 3.75 0 0 1 2.075-.171c.433.087.822.27 1.232.52.324.196.69.45 1.12.758l3.146-3.145.06-.06c.46-.462.78-.78 1.16-1.013a3.75 3.75 0 0 1 1.083-.45c.433-.103.884-.103 1.536-.103zm-.433 12.22l3.594-3.594c.544-.545.726-.734.855-.943.123-.201.214-.42.269-.65.057-.24.062-.502.062-1.271V4.4c0-.432 0-.712-.018-.924-.017-.204-.045-.28-.064-.316a.75.75 0 0 0-.327-.328c-.038-.02-.113-.047-.317-.064a12.755 12.755 0 0 0-.924-.018h-2.612c-.77 0-1.032.005-1.27.062a2.25 2.25 0 0 0-.65.27c-.21.128-.4.31-.943.854L8.566 8.494 6.03 11.03a11.529 11.529 0 0 0-.607.64c-.186.22-.254.347-.285.444a1.25 1.25 0 0 0 0 .772c.031.097.099.224.285.443.192.227.463.499.868.903L7 14.94l1.47-1.47a.75.75 0 1 1 1.06 1.06L8.06 16l.707.707c.404.405.677.676.903.868.22.187.346.254.443.285.25.082.521.082.772 0 .097-.031.224-.098.443-.285.227-.192.499-.463.904-.868l3.237-3.237zM5.419 9.52l2.085-2.086.338-.338a14.712 14.712 0 0 0-.823-.55c-.334-.204-.554-.293-.75-.333a2.25 2.25 0 0 0-1.245.103c-.187.071-.39.196-.686.45-.304.262-.663.62-1.181 1.138L5.419 9.52zm9.678 10.324L13.48 17.58l2.423-2.424c.233.33.412.593.553.824.202.335.292.555.332.75a2.25 2.25 0 0 1-.103 1.245c-.071.188-.196.39-.451.687-.261.303-.62.663-1.138 1.18zM12.752 9a1.25 1.25 0 1 1 2.5 0 1.25 1.25 0 0 1-2.5 0zm1.25-2.75a2.75 2.75 0 1 0 0 5.5 2.75 2.75 0 0 0 0-5.5z"
        fill="currentColor"
      ></path>
    </g>
  </svg>