<svg viewBox="0 0 24 24" xmlns="http://www.w3.org/2000/svg">
    <g fill="none">
      <g clip-path="url(#clip0)">
        <path
          fill-rule="evenodd"
          clip-rule="evenodd"
          d="M12.247 2.534a.75.75 0 0 0-.494 0c-.04.014-.118.052-.283.207-.172.16-.379.39-.696.743l-.752.835C9.088 5.356 8.7 5.793 8.426 6.281a5.25 5.25 0 0 0-.55 1.432c-.122.547-.126 1.13-.126 2.526V17.817c0 .563 0 .942.025 1.235.023.288.065.425.111.515.12.236.311.427.547.547.09.046.227.088.515.111.295.024.68.025 1.252.025h1.05V18a.75.75 0 0 1 1.5 0v2.25h1.05c.572 0 .957 0 1.253-.025.287-.023.424-.065.515-.111a1.25 1.25 0 0 0 .546-.547c.046-.09.088-.227.111-.515.024-.293.025-.672.025-1.235V10.24c0-1.396-.004-1.98-.126-2.527a5.248 5.248 0 0 0-.55-1.432c-.275-.488-.662-.925-1.596-1.962l-.752-.835a13.514 13.514 0 0 0-.696-.743c-.165-.155-.243-.193-.283-.207zm5.503 9.88v-2.27c0-1.272 0-2.03-.162-2.758a6.746 6.746 0 0 0-.707-1.84c-.366-.65-.873-1.214-1.724-2.16l-.064-.07-.752-.836-.02-.022c-.291-.324-.541-.602-.764-.811-.235-.22-.493-.417-.817-.53a2.25 2.25 0 0 0-1.48 0c-.324.113-.582.31-.816.53-.224.21-.473.487-.765.81l-.02.023-.752.836-.064.07c-.85.946-1.358 1.51-1.724 2.16a6.75 6.75 0 0 0-.706 1.84c-.163.728-.163 1.486-.163 2.758v2.27c-1.122.28-1.899.478-2.498.926a3.75 3.75 0 0 0-1.21 1.55c-.293.699-.293 1.513-.292 2.695V20a.75.75 0 0 0 .932.727l3.233-.808c.036.112.08.222.135.33a2.75 2.75 0 0 0 1.202 1.201c.337.172.694.24 1.073.27.365.03.81.03 1.345.03H13.83c.535 0 .98 0 1.345-.03.38-.03.736-.098 1.074-.27a2.751 2.751 0 0 0 1.201-1.202 2.2 2.2 0 0 0 .135-.329l3.233.808A.75.75 0 0 0 21.75 20v-2.415c0-1.182.001-1.996-.293-2.696a3.75 3.75 0 0 0-1.21-1.549c-.598-.448-1.375-.646-2.497-.926zm0 1.548v4.453l2.5.624v-1.292c0-1.41-.014-1.893-.175-2.277a2.25 2.25 0 0 0-.726-.929c-.283-.212-.66-.338-1.599-.58zm-13.098.579c.282-.212.659-.338 1.598-.58V18.415l-2.5.625v-1.292c0-1.41.014-1.893.176-2.277a2.25 2.25 0 0 1 .726-.929zm6.098-3.54a1.25 1.25 0 1 1 2.5 0 1.25 1.25 0 0 1-2.5 0zM12 8.25a2.75 2.75 0 1 0 0 5.5 2.75 2.75 0 0 0 0-5.5z"
          fill="currentColor"
        ></path>
      </g>
      <defs>
        <clipPath id="clip0"><path fill="#fff" d="M0 0h24v24H0z"></path></clipPath>
      </defs>
    </g>
  </svg>