<svg viewBox="0 0 24 24" xmlns="http://www.w3.org/2000/svg">
    <g fill="none">
      <path
        fill-rule="evenodd"
        clip-rule="evenodd"
        d="M15.886 3.14a1.25 1.25 0 0 0-.772 0c-.097.031-.224.099-.443.285-.226.192-.498.463-.903.868l-9.475 9.475c-.405.404-.676.677-.868.903-.186.22-.254.346-.285.443a1.25 1.25 0 0 0 0 .772c.031.097.099.224.285.443.192.227.463.499.868.904l2.475 2.474c.405.405.677.676.903.868.22.187.346.254.443.286.251.081.522.081.773 0 .096-.032.223-.1.443-.286.166-.141.358-.326.61-.575l-1.47-1.47a.75.75 0 1 1 1.06-1.06L11 18.94 12.94 17l-2.97-2.97a.75.75 0 1 1 1.06-1.06L14 15.94 15.94 14l-1.47-1.47a.75.75 0 1 1 1.06-1.06L17 12.94 18.94 11l-2.97-2.97a.75.75 0 0 1 1.06-1.06L20 9.94c.249-.252.434-.444.575-.61.187-.22.254-.347.285-.444a1.25 1.25 0 0 0 0-.772c-.03-.097-.098-.223-.285-.443-.192-.226-.463-.498-.868-.903l-2.474-2.475c-.405-.405-.677-.676-.904-.868-.22-.186-.346-.254-.443-.285zM14.65 1.713a2.75 2.75 0 0 1 1.7 0c.36.117.66.322.95.569.279.236.594.551.972.929l.021.022 2.475 2.474.021.022c.378.377.693.693.93.971.246.29.451.59.568.95a2.75 2.75 0 0 1 0 1.7c-.117.36-.322.66-.568.95-.237.279-.552.594-.93.972l-.021.021-9.475 9.475-.021.021c-.378.378-.693.693-.972.93-.29.246-.59.451-.95.568a2.75 2.75 0 0 1-1.7 0c-.36-.117-.66-.322-.95-.568-.278-.237-.593-.552-.971-.93l-.022-.021-2.474-2.475-.022-.021c-.378-.378-.693-.693-.93-.972-.246-.29-.45-.59-.568-.95a2.75 2.75 0 0 1 0-1.7c.117-.36.322-.66.568-.95.237-.278.552-.594.93-.971l.022-.022 9.474-9.474.022-.022c.377-.378.693-.693.971-.93.29-.246.59-.45.95-.568z"
        fill="currentColor"
      ></path>
    </g>
  </svg>