<svg viewBox="0 0 24 24" xmlns="http://www.w3.org/2000/svg">
    <g fill="none">
      <path
        fill-rule="evenodd"
        clip-rule="evenodd"
        d="M11.535 3.055a3.25 3.25 0 0 1 .93 0c.329.048.657.167 1.519.49l1.6.6c1.555.583 2.142.816 2.565 1.189.396.349.7.789.889 1.282.2.527.212 1.159.212 2.82v1.531c0 1.583-.003 2.278-.12 2.915a7.249 7.249 0 0 1-2.236 4.033c-.477.436-1.065.808-2.407 1.646-.766.479-1.06.658-1.35.767a3.25 3.25 0 0 1-2.273 0c-.291-.109-.585-.288-1.35-.767-1.343-.838-1.93-1.21-2.408-1.646a7.25 7.25 0 0 1-2.236-4.033c-.117-.637-.12-1.332-.12-2.915V9.435c0-1.66.012-2.292.213-2.819a3.25 3.25 0 0 1 .888-1.282c.423-.373 1.01-.606 2.565-1.19l1.6-.6c.862-.322 1.19-.441 1.52-.489zm1.144-1.484a4.75 4.75 0 0 0-1.358 0c-.51.073-.996.256-1.752.54l-.08.03-1.6.6-.147.055c-1.355.507-2.226.834-2.883 1.412a4.75 4.75 0 0 0-1.298 1.875C3.249 6.9 3.25 7.83 3.25 9.278V11.055c0 1.47 0 2.311.145 3.099a8.75 8.75 0 0 0 2.698 4.867c.591.541 1.304.986 2.55 1.766l.075.046.072.045c.67.419 1.099.687 1.55.855 1.07.4 2.25.4 3.32 0 .451-.168.88-.436 1.55-.855l.072-.045.074-.046c1.247-.78 1.96-1.225 2.55-1.766a8.75 8.75 0 0 0 2.699-4.867c.145-.788.145-1.629.145-3.1V9.279c0-1.447 0-2.377-.31-3.195a4.75 4.75 0 0 0-1.3-1.875c-.656-.578-1.527-.905-2.882-1.412l-.148-.056-1.6-.6-.079-.03c-.755-.283-1.243-.466-1.752-.54zm3.351 8.46a.75.75 0 1 0-1.06-1.061L11 12.94l-1.47-1.47a.75.75 0 0 0-1.06 1.06l2 2a.75.75 0 0 0 1.06 0l4.5-4.5z"
        fill="currentColor"
      ></path>
    </g>
  </svg>