<svg viewBox="0 0 24 24" xmlns="http://www.w3.org/2000/svg">
    <g fill="none">
      <path
        fill-rule="evenodd"
        clip-rule="evenodd"
        d="M1.47 1.47a.75.75 0 0 1 1.06 0l2.728 2.727 13.426 13.427 2.846 2.846a.75.75 0 1 1-1.06 1.06l-2.425-2.424-2.513 1.57-.095.06c-.89.556-1.46.913-2.073 1.097a4.75 4.75 0 0 1-2.728 0c-.613-.184-1.184-.54-2.072-1.096l-.096-.06-.097-.06c-1.44-.9-2.278-1.424-2.935-2.102a7.75 7.75 0 0 1-1.96-3.535c-.226-.917-.226-1.905-.226-3.604V5.777c0-.407.132-.792.361-1.105L1.47 2.53a.75.75 0 0 1 0-1.06zm3.28 4.34v5.453c0 1.845.005 2.64.183 3.357a6.25 6.25 0 0 0 1.58 2.85c.514.531 1.185.957 2.75 1.935 1.017.636 1.408.873 1.804.991a3.25 3.25 0 0 0 1.866 0c.396-.118.787-.355 1.804-.991l2.22-1.388L4.75 5.811zm6.57-4.24a4.75 4.75 0 0 1 1.36 0c.508.074.995.257 1.751.54l.08.03 1.6.6.147.056c1.355.507 2.226.834 2.883 1.412a4.75 4.75 0 0 1 1.298 1.875c.312.818.311 1.748.311 3.195V15a.75.75 0 0 1-1.5 0V9.435c0-1.66-.012-2.292-.212-2.819a3.25 3.25 0 0 0-.89-1.282c-.422-.373-1.01-.606-2.564-1.19l-1.6-.6c-.862-.322-1.19-.441-1.52-.489a3.25 3.25 0 0 0-.929 0c-.329.048-.657.167-1.519.49l-1.753.657a.75.75 0 1 1-.526-1.404l1.752-.658.08-.03c.755-.283 1.243-.466 1.752-.54z"
        fill="currentColor"
      ></path>
    </g>
  </svg>