<svg viewBox="0 0 24 24" xmlns="http://www.w3.org/2000/svg">
    <g fill="none">
      <path
        fill-rule="evenodd"
        clip-rule="evenodd"
        d="M1.5 3.75H1a.75.75 0 1 1 0-1.5h.5V3v-.75h.046c.338 0 .57 0 .787.025A3.75 3.75 0 0 1 5.25 4.32c.098.196.177.414.293.731l.015.043.057.157H17.42c.744 0 1.355 0 1.839.044.494.045.959.141 1.36.404a2.75 2.75 0 0 1 1.18 1.702c.105.468.032.937-.1 1.416-.129.468-.343 1.04-.604 1.737l-.013.034-.21.562-.051.135c-.372.992-.628 1.676-1.086 2.195-.402.457-.91.81-1.48 1.026-.646.246-1.377.246-2.437.245H6a1.25 1.25 0 1 0 0 2.5h15a.75.75 0 0 1 0 1.5h-1.55a2.75 2.75 0 1 1-4.9 0h-3.1a2.75 2.75 0 1 1-4.9 0H6a2.75 2.75 0 1 1 0-5.5h1.105c-.358-.499-.59-1.139-.91-2.017l-.049-.136L4.15 5.606c-.138-.377-.186-.507-.24-.614a2.25 2.25 0 0 0-1.75-1.227c-.12-.014-.26-.015-.66-.015zm12.51 9.5H11.217c-1.162-.001-1.578-.017-1.922-.15a2.248 2.248 0 0 1-.892-.624c-.252-.29-.412-.695-.847-1.892L6.162 6.75h11.22c.79 0 1.332 0 1.74.038.406.036.58.103.676.166.272.178.465.455.536.773.025.113.026.298-.082.69-.109.396-.298.904-.576 1.643l-.21.562c-.443 1.18-.606 1.58-.857 1.866a2.251 2.251 0 0 1-.888.615c-.355.135-.787.147-2.047.147H14.01zM9 18.75a1.25 1.25 0 1 0 0 2.5 1.25 1.25 0 0 0 0-2.5zm8 0a1.25 1.25 0 1 0 0 2.5 1.25 1.25 0 0 0 0-2.5z"
        fill="currentColor"
      ></path>
    </g>
  </svg>