<svg viewBox="0 0 24 24" xmlns="http://www.w3.org/2000/svg">
    <g fill="none">
      <path
        fill-rule="evenodd"
        clip-rule="evenodd"
        d="M9.75 5a2.25 2.25 0 0 1 4.5 0v1.25h-4.5V5zm-1.5 2.75V9a.75.75 0 0 0 1.5 0V7.75h4.5V9a.75.75 0 0 0 1.5 0V7.75c.633 0 1.097.005 1.47.035.423.033.669.095.86.186.406.195.744.507.97.897.107.182.189.423.256.84.068.428.113.977.176 1.768l.354 4.4c.073.912.124 1.55.122 2.049-.002.49-.056.77-.15.982a2.25 2.25 0 0 1-.99 1.073c-.203.11-.479.186-.967.228-.496.041-1.136.042-2.052.042H8.2c-.916 0-1.556 0-2.052-.042-.488-.041-.764-.118-.968-.228a2.25 2.25 0 0 1-.99-1.073c-.093-.212-.147-.493-.149-.982-.002-.498.049-1.137.122-2.05l.354-4.4c.063-.79.108-1.34.176-1.766.067-.418.149-.659.255-.841a2.25 2.25 0 0 1 .972-.897c.19-.091.436-.153.858-.186.374-.03.838-.034 1.471-.035zm0-1.5V5a3.75 3.75 0 1 1 7.5 0v1.25c.63 0 1.153.005 1.589.04.513.04.964.125 1.389.329a3.75 3.75 0 0 1 1.619 1.494c.237.407.358.85.44 1.358.079.493.128 1.101.188 1.854l.002.03.354 4.4.003.034c.07.872.126 1.573.124 2.141-.002.584-.065 1.1-.277 1.582a3.75 3.75 0 0 1-1.65 1.787c-.463.25-.972.354-1.554.403-.567.048-1.27.048-2.145.048H8.168c-.875 0-1.578 0-2.145-.048-.582-.049-1.091-.152-1.555-.403a3.75 3.75 0 0 1-1.649-1.787c-.212-.482-.275-.998-.277-1.582-.002-.568.054-1.27.124-2.141l.003-.034.354-4.4.002-.03c.06-.753.11-1.361.188-1.854.082-.508.203-.951.44-1.358a3.75 3.75 0 0 1 1.619-1.494c.425-.204.876-.29 1.39-.33.435-.034.957-.038 1.588-.039z"
        fill="currentColor"
      ></path>
    </g>
  </svg>