<svg viewBox="0 0 24 24" xmlns="http://www.w3.org/2000/svg">
    <g fill="none">
      <path
        fill-rule="evenodd"
        clip-rule="evenodd"
        d="M10.814 2.25h-.031c-.98 0-1.76 0-2.392.049-.649.05-1.2.155-1.716.395a4.75 4.75 0 0 0-2.035 1.81c-.3.483-.468 1.02-.594 1.657-.123.623-.214 1.397-.33 2.37l-.003.03-.614 5.2-.004.036c-.142 1.207-.255 2.16-.28 2.93-.025.785.036 1.455.29 2.074a4.75 4.75 0 0 0 2.09 2.353c.586.324 1.244.464 2.027.53.767.066 1.728.066 2.943.066H13.835c1.215 0 2.176 0 2.943-.066.783-.066 1.44-.206 2.026-.53a4.75 4.75 0 0 0 2.091-2.353c.254-.619.315-1.289.29-2.074-.025-.77-.138-1.723-.28-2.93l-.004-.035-.614-5.2-.004-.03c-.115-.974-.206-1.748-.329-2.37-.126-.639-.295-1.175-.594-1.659a4.75 4.75 0 0 0-2.035-1.809c-.515-.24-1.067-.345-1.716-.395-.633-.049-1.412-.049-2.392-.049h-2.403zM7.308 4.054c.288-.134.64-.216 1.199-.26.568-.043 1.289-.044 2.307-.044h2.372c1.018 0 1.74 0 2.307.045.559.043.911.125 1.199.259a3.25 3.25 0 0 1 1.392 1.238c.167.27.29.61.398 1.16.11.559.196 1.275.315 2.286l.614 5.2c.147 1.25.252 2.14.275 2.838.022.69-.04 1.118-.179 1.457a3.25 3.25 0 0 1-1.43 1.609c-.32.177-.738.29-1.426.348-.697.06-1.593.06-2.851.06h-3.6c-1.258 0-2.154 0-2.85-.06-.69-.059-1.107-.17-1.427-.348a3.25 3.25 0 0 1-1.43-1.61c-.139-.338-.201-.765-.179-1.456.023-.699.127-1.589.275-2.838l.614-5.2c.12-1.011.204-1.727.315-2.286.108-.55.231-.89.398-1.16a3.25 3.25 0 0 1 1.392-1.238zM9.75 9a2.25 2.25 0 1 0 4.5 0V7a.75.75 0 0 1 1.5 0v2a3.75 3.75 0 1 1-7.5 0V7a.75.75 0 0 1 1.5 0v2z"
        fill="currentColor"
      ></path>
    </g>
  </svg>