<svg viewBox="0 0 24 24" xmlns="http://www.w3.org/2000/svg">
    <g fill="none">
      <path
        fill-rule="evenodd"
        clip-rule="evenodd"
        d="M1.5 2.75c.285 0 .384 0 .468.007.85.07 1.589.615 1.906 1.408.031.079.06.173.144.445l2.223 7.222.045.147c.33 1.074.557 1.814 1.014 2.38A3.75 3.75 0 0 0 8.82 15.48c.675.271 1.45.27 2.573.27h4.191c1.131 0 1.911.001 2.59-.273a3.75 3.75 0 0 0 1.522-1.133c.457-.57.68-1.318 1.005-2.401l.045-.148.738-2.46.01-.034c.2-.67.366-1.22.458-1.67.095-.464.135-.913.013-1.357a2.75 2.75 0 0 0-1.194-1.606c-.39-.244-.832-.335-1.303-.377-.46-.041-1.034-.041-1.733-.04H5.477l-.025-.082-.01-.031a7.054 7.054 0 0 0-.175-.53A3.75 3.75 0 0 0 2.09 1.263a7.058 7.058 0 0 0-.557-.012H1.5V2v-.75H1a.75.75 0 0 0 0 1.5h.5zm6.174 8.641L5.94 5.751h11.76c.743 0 1.25 0 1.634.034.38.034.545.095.642.155.266.167.46.427.543.73.03.11.04.286-.036.659-.078.378-.223.864-.436 1.575l-.738 2.46c-.387 1.29-.533 1.729-.784 2.042a2.249 2.249 0 0 1-.914.68c-.372.15-.834.164-2.181.164h-3.884c-1.338 0-1.797-.013-2.167-.162a2.25 2.25 0 0 1-.912-.673c-.25-.31-.398-.745-.792-2.024zM10 18.75a1.25 1.25 0 1 0 0 2.5 1.25 1.25 0 0 0 0-2.5zM7.25 20a2.75 2.75 0 1 1 5.5 0 2.75 2.75 0 0 1-5.5 0zM18 18.75a1.25 1.25 0 1 0 0 2.5 1.25 1.25 0 0 0 0-2.5zM15.25 20a2.75 2.75 0 1 1 5.5 0 2.75 2.75 0 0 1-5.5 0z"
        fill="currentColor"
      ></path>
    </g>
  </svg>