<svg viewBox="0 0 24 24" xmlns="http://www.w3.org/2000/svg">
    <g fill="none">
      <path
        fill-rule="evenodd"
        clip-rule="evenodd"
        d="M9.6 3.45a.75.75 0 1 0-1.2-.9L5.452 6.48c-.38.091-.728.22-1.052.408a4.75 4.75 0 0 0-2.088 2.494c-.237.654-.263 1.356-.189 2.176.073.805.25 1.8.476 3.063l.006.036.215 1.2.005.03c.163.912.293 1.639.443 2.223.154.6.342 1.102.647 1.552a4.75 4.75 0 0 0 2.005 1.679c.497.22 1.024.317 1.642.364.601.045 1.34.045 2.267.045H14.172c.927 0 1.665 0 2.267-.045.617-.047 1.144-.143 1.641-.364a4.75 4.75 0 0 0 2.005-1.679c.305-.45.493-.952.647-1.552.15-.584.28-1.31.443-2.224l.005-.03.215-1.2.006-.035c.225-1.262.403-2.258.476-3.063.074-.82.048-1.522-.189-2.176A4.75 4.75 0 0 0 19.6 6.888a3.87 3.87 0 0 0-1.052-.408L15.6 2.55a.75.75 0 1 0-1.2.9l2.113 2.818c-.61-.018-1.312-.018-2.121-.018H9.608c-.81 0-1.511 0-2.121.018L9.6 3.45zM5.15 8.186c.328-.189.762-.309 1.488-.372.733-.063 1.68-.064 3.006-.064h4.712c1.327 0 2.273 0 3.006.064.726.063 1.16.183 1.487.372a3.25 3.25 0 0 1 1.43 1.707c.128.355.17.804.104 1.53-.066.732-.232 1.664-.465 2.97l-.214 1.2c-.17.95-.29 1.62-.425 2.143-.132.514-.266.833-.436 1.085-.341.504-.816.902-1.372 1.149-.278.124-.616.2-1.145.239-.539.04-1.22.041-2.184.041H9.858c-.964 0-1.645 0-2.184-.041-.53-.04-.867-.115-1.145-.24a3.25 3.25 0 0 1-1.372-1.148c-.17-.252-.304-.57-.436-1.085-.135-.523-.255-1.194-.425-2.143l-.214-1.2c-.233-1.306-.399-2.238-.465-2.97-.066-.726-.024-1.175.105-1.53A3.25 3.25 0 0 1 5.15 8.186z"
        fill="currentColor"
      ></path>
    </g>
  </svg>