<svg viewBox="0 0 24 24" xmlns="http://www.w3.org/2000/svg">
    <g fill="none">
      <path
        fill-rule="evenodd"
        clip-rule="evenodd"
        d="M18.53 1.47a.75.75 0 1 0-1.06 1.06l1.72 1.72h-3.338c-.668 0-1.21 0-1.655.033-.46.034-.868.105-1.26.275a3.75 3.75 0 0 0-1.566 1.266c-.248.348-.403.731-.533 1.174-.125.428-.238.958-.378 1.611l-.006.028L9.08 15.05c-.148.687-.25 1.163-.358 1.531-.105.36-.202.568-.315.726a2.25 2.25 0 0 1-.94.76c-.178.076-.4.128-.775.155-.383.029-.87.029-1.572.029H3a.75.75 0 0 0 0 1.5h2.148c.668 0 1.21 0 1.655-.033.46-.034.868-.105 1.26-.275a3.75 3.75 0 0 0 1.566-1.266c.247-.348.403-.731.533-1.174.125-.428.239-.958.378-1.612l.006-.027L11.92 8.95c.148-.687.25-1.163.358-1.531.105-.36.202-.568.315-.726a2.25 2.25 0 0 1 .94-.76c.178-.076.4-.128.775-.155.383-.029.87-.029 1.572-.029h3.31l-1.72 1.72a.75.75 0 0 0 1.06 1.06l3-3a.75.75 0 0 0 0-1.06l-3-3zm0 21.06a.75.75 0 1 1-1.06-1.06l1.72-1.72H13a.75.75 0 0 1 0-1.5h6.19l-1.72-1.72a.75.75 0 1 1 1.06-1.06l3 3a.75.75 0 0 1 0 1.06l-3 3zM3 5.75a.75.75 0 0 1 0-1.5h5a.75.75 0 0 1 0 1.5H3z"
        fill="currentColor"
      ></path>
    </g>
  </svg>