<svg viewBox="0 0 24 24" xmlns="http://www.w3.org/2000/svg">
    <g fill="none">
      <path
        fill-rule="evenodd"
        clip-rule="evenodd"
        d="M7.8 1.25h-.032c-.813 0-1.468 0-2 .044-.546.045-1.026.139-1.47.365a3.75 3.75 0 0 0-1.64 1.639c-.225.444-.32.924-.365 1.471-.043.53-.043 1.186-.043 2v10.464c0 .812 0 1.468.043 1.999.045.547.14 1.027.366 1.471a3.75 3.75 0 0 0 1.639 1.639c.444.226.924.32 1.47.365.532.043 1.187.043 2 .043H8.232c.813 0 1.469 0 2-.043.546-.044 1.026-.139 1.47-.365a3.75 3.75 0 0 0 1.64-1.639c.226-.444.32-.924.365-1.471.043-.53.043-1.187.043-2V16.002a.75.75 0 0 0-1.5 0v1.2c0 .852 0 1.446-.038 1.909-.037.454-.107.714-.207.912a2.25 2.25 0 0 1-.983.983c-.198.1-.459.17-.913.207-.462.038-1.056.038-1.909.038h-.4c-.852 0-1.447 0-1.91-.038-.453-.037-.714-.106-.911-.207a2.25 2.25 0 0 1-.984-.983c-.1-.198-.17-.458-.207-.912-.037-.463-.038-1.057-.038-1.91V6.8c0-.852 0-1.446.039-1.909.037-.454.106-.714.206-.912a2.25 2.25 0 0 1 .984-.983c.197-.1.458-.17.912-.207.462-.038 1.057-.039 1.91-.039h.4c.852 0 1.446.001 1.908.039.454.037.715.106.913.207.423.215.767.56.983.983.1.198.17.458.207.912.037.463.038 1.057.038 1.91V8a.75.75 0 0 0 1.5 0V6.767c0-.812 0-1.468-.043-1.999-.045-.547-.14-1.027-.366-1.471a3.75 3.75 0 0 0-1.638-1.639c-.445-.226-.925-.32-1.471-.365-.531-.044-1.187-.044-2-.044H7.8zm9.73 6.22a.75.75 0 0 0-1.06 1.06l2.72 2.72H8a.75.75 0 0 0 0 1.5h11.19l-2.72 2.72a.75.75 0 1 0 1.06 1.06l4-4a.75.75 0 0 0 0-1.06l-4-4z"
        fill="currentColor"
      ></path>
    </g>
  </svg>