<svg viewBox="0 0 24 24" xmlns="http://www.w3.org/2000/svg">
    <g fill="none">
      <path
        fill-rule="evenodd"
        clip-rule="evenodd"
        d="M4.25 2A.75.75 0 0 1 5 1.25h14a.75.75 0 1 1 0 1.5H5A.75.75 0 0 1 4.25 2zm2.92 3.25H16.83c.535 0 .98 0 1.345.03.38.03.736.098 1.073.27a2.75 2.75 0 0 1 1.202 1.202c.172.337.24.693.27 1.073.03.365.03.81.03 1.345v5.66c0 .535 0 .98-.03 1.345-.03.38-.098.736-.27 1.073a2.75 2.75 0 0 1-1.202 1.202c-.337.172-.694.24-1.073.27-.365.03-.81.03-1.345.03H7.17c-.535 0-.98 0-1.345-.03-.38-.03-.736-.098-1.074-.27A2.75 2.75 0 0 1 3.55 17.25c-.172-.338-.24-.694-.27-1.074-.03-.365-.03-.81-.03-1.345V9.17c0-.535 0-.98.03-1.345.03-.38.098-.736.27-1.073A2.75 2.75 0 0 1 4.75 5.55c.338-.172.694-.24 1.074-.27.364-.03.81-.03 1.345-.03zM5.947 6.775c-.287.023-.424.065-.515.111a1.25 1.25 0 0 0-.546.547c-.046.09-.088.227-.111.514-.024.296-.025.68-.025 1.253v5.6c0 .572 0 .957.025 1.252.023.288.065.425.111.515.12.236.311.427.546.547.091.046.228.088.515.111.296.024.68.025 1.253.025h9.6c.572 0 .957 0 1.252-.025.288-.023.425-.065.515-.111a1.25 1.25 0 0 0 .547-.547c.046-.09.088-.227.111-.515.024-.295.025-.68.025-1.252V9.2c0-.572 0-.957-.025-1.253-.023-.287-.065-.424-.111-.514a1.25 1.25 0 0 0-.547-.547c-.09-.046-.227-.088-.515-.111-.295-.024-.68-.025-1.252-.025H7.2c-.572 0-.957 0-1.253.025zM5 21.25a.75.75 0 0 0 0 1.5h14a.75.75 0 1 0 0-1.5H5z"
        fill="currentColor"
      ></path>
    </g>
  </svg>