<svg viewBox="0 0 24 24" xmlns="http://www.w3.org/2000/svg">
    <g fill="none">
      <path
        fill-rule="evenodd"
        clip-rule="evenodd"
        d="M6.17 3.25H9.83c.534 0 .98 0 1.345.03.38.03.736.098 1.073.27a2.75 2.75 0 0 1 1.202 1.202c.172.337.24.693.27 1.073.03.365.03.81.03 1.345V16.83c0 .535 0 .98-.03 1.345-.03.38-.098.736-.27 1.073a2.751 2.751 0 0 1-1.202 1.202c-.337.172-.693.24-1.073.27-.365.03-.81.03-1.345.03H6.17c-.535 0-.98 0-1.345-.03-.38-.03-.736-.098-1.074-.27A2.75 2.75 0 0 1 2.55 19.25c-.172-.338-.24-.694-.27-1.074-.03-.365-.03-.81-.03-1.345V7.17c0-.535 0-.98.03-1.345.03-.38.098-.736.27-1.073A2.75 2.75 0 0 1 3.75 3.55c.338-.172.694-.24 1.074-.27.364-.03.81-.03 1.344-.03zM4.946 4.775c-.287.023-.424.065-.515.111a1.25 1.25 0 0 0-.546.547c-.046.09-.088.227-.111.514-.024.296-.025.68-.025 1.253v9.6c0 .572 0 .957.025 1.252.023.288.065.425.111.515.12.236.311.427.546.547.091.046.228.088.515.111.296.024.68.025 1.253.025h3.6c.572 0 .957 0 1.252-.025.288-.023.425-.065.515-.111a1.25 1.25 0 0 0 .547-.547c.046-.09.088-.227.111-.515.024-.295.025-.68.025-1.252V7.2c0-.572 0-.957-.025-1.253-.023-.287-.065-.424-.111-.514a1.25 1.25 0 0 0-.547-.547c-.09-.046-.227-.088-.515-.111-.295-.024-.68-.025-1.252-.025H6.2c-.572 0-.957 0-1.253.025zM17 5.25a.75.75 0 0 1 .75.75v12a.75.75 0 0 1-1.5 0V6a.75.75 0 0 1 .75-.75zM21.75 9a.75.75 0 0 0-1.5 0v6a.75.75 0 0 0 1.5 0V9z"
        fill="currentColor"
      ></path>
    </g>
  </svg>