<svg viewBox="0 0 24 24" xmlns="http://www.w3.org/2000/svg">
    <g fill="none">
      <path
        fill-rule="evenodd"
        clip-rule="evenodd"
        d="M10.25 7a3.75 3.75 0 0 1 7.425-.75H21a.75.75 0 0 1 0 1.5h-3.325A3.751 3.751 0 0 1 10.25 7zM14 4.75a2.25 2.25 0 1 1 0 4.5 2.25 2.25 0 0 1 0-4.5zM3 6.25a.75.75 0 0 0 0 1.5h5a.75.75 0 0 0 0-1.5H3zm0 10a.75.75 0 0 0 0 1.5h3.325A3.751 3.751 0 0 0 13.75 17a3.75 3.75 0 0 0-7.425-.75H3zm4.75.75a2.25 2.25 0 1 0 4.5 0 2.25 2.25 0 0 0-4.5 0zm8.25-.75a.75.75 0 0 0 0 1.5h5a.75.75 0 0 0 0-1.5h-5z"
        fill="currentColor"
      ></path>
    </g>
  </svg>