<svg viewBox="0 0 24 24" xmlns="http://www.w3.org/2000/svg">
    <g fill="none">
      <path
        fill-rule="evenodd"
        clip-rule="evenodd"
        d="M15 2.25a2.75 2.75 0 1 0 2.646 3.5H21a.75.75 0 0 0 0-1.5h-3.354a2.751 2.751 0 0 0-2.646-2zM16.25 5a1.25 1.25 0 1 0-2.5 0 1.25 1.25 0 0 0 2.5 0zM3 4.25a.75.75 0 0 0 0 1.5h7a.75.75 0 0 0 0-1.5H3zm0 14a.75.75 0 0 0 0 1.5h7a.75.75 0 0 0 0-1.5H3zm12-2c1.259 0 2.32.846 2.646 2H21a.75.75 0 0 1 0 1.5h-3.354A2.751 2.751 0 1 1 15 16.25zm0 4a1.25 1.25 0 1 0 0-2.5 1.25 1.25 0 0 0 0 2.5zM2.25 12a.75.75 0 0 1 .75-.75h3.354a2.751 2.751 0 0 1 5.396.75 2.75 2.75 0 0 1-5.396.75H3a.75.75 0 0 1-.75-.75zm11 0a.75.75 0 0 1 .75-.75h7a.75.75 0 0 1 0 1.5h-7a.75.75 0 0 1-.75-.75zm-5.5 0a1.25 1.25 0 1 1 2.5 0 1.25 1.25 0 0 1-2.5 0z"
        fill="currentColor"
      ></path>
    </g>
  </svg>