<svg viewBox="0 0 24 24" xmlns="http://www.w3.org/2000/svg">
    <g fill="none">
      <path
        fill-rule="evenodd"
        clip-rule="evenodd"
        d="M4.4 3.25h-.029c-.395 0-.736 0-1.017.023-.297.024-.592.078-.875.222a2.25 2.25 0 0 0-.984.984c-.144.283-.198.578-.222.875-.023.28-.023.622-.023 1.017V6.5a.75.75 0 0 0 1.5 0v-.1c0-.432 0-.712.018-.924.017-.204.045-.28.064-.316a.75.75 0 0 1 .328-.328c.037-.02.112-.047.316-.064.212-.017.492-.018.924-.018h3.85v14.5H7a.75.75 0 0 0 0 1.5h4a.75.75 0 0 0 0-1.5H9.75V4.75h3.85c.432 0 .712 0 .924.018.204.017.28.045.317.064a.75.75 0 0 1 .327.328c.02.037.047.112.064.316.017.212.018.492.018.924v.1a.75.75 0 0 0 1.5 0v-.129c0-.395 0-.736-.023-1.017-.024-.297-.078-.592-.222-.875a2.25 2.25 0 0 0-.983-.984c-.284-.144-.58-.198-.876-.222-.28-.023-.622-.023-1.017-.023H4.4zm10.4 8h-.02c-.122 0-.255 0-.37.01-.13.01-.3.036-.478.126a1.25 1.25 0 0 0-.546.546c-.09.177-.116.349-.127.479-.01.114-.009.247-.009.369v.72a.75.75 0 0 0 1.5 0v-.75h2.5v6.5h-.75a.75.75 0 0 0 0 1.5h3a.75.75 0 0 0 0-1.5h-.75v-6.5h2.5v.75a.75.75 0 0 0 1.5 0v-.72c0-.122 0-.255-.01-.37a1.259 1.259 0 0 0-.126-.478 1.25 1.25 0 0 0-.547-.546 1.259 1.259 0 0 0-.477-.127c-.115-.01-.248-.009-.37-.009H14.8z"
        fill="currentColor"
      ></path>
    </g>
  </svg>