<svg viewBox="0 0 24 24" xmlns="http://www.w3.org/2000/svg">
    <g fill="none">
      <path
        fill-rule="evenodd"
        clip-rule="evenodd"
        d="M12.75 4a.75.75 0 0 0-1.5 0v16a.75.75 0 0 0 1.5 0V4zM7 7.25a.75.75 0 0 1 .75.75v8a.75.75 0 0 1-1.5 0V8A.75.75 0 0 1 7 7.25zm-5 3a.75.75 0 0 1 .75.75v2a.75.75 0 0 1-1.5 0v-2a.75.75 0 0 1 .75-.75zm15-3a.75.75 0 0 1 .75.75v8a.75.75 0 0 1-1.5 0V8a.75.75 0 0 1 .75-.75zM22.75 11a.75.75 0 0 0-1.5 0v2a.75.75 0 0 0 1.5 0v-2z"
        fill="currentColor"
      ></path>
    </g>
  </svg>