<svg viewBox="0 0 24 24" xmlns="http://www.w3.org/2000/svg">
    <g fill="none">
      <g clip-path="url(#clip0)">
        <path
          fill-rule="evenodd"
          clip-rule="evenodd"
          d="M9.25 1A.75.75 0 0 1 10 .25h4a.75.75 0 0 1 0 1.5h-4A.75.75 0 0 1 9.25 1zm-5.5 12A8.25 8.25 0 1 1 12 21.25H7a.75.75 0 0 0 0 1.5h5c5.385 0 9.75-4.365 9.75-9.75S17.385 3.25 12 3.25 2.25 7.615 2.25 13a.75.75 0 0 0 1.5 0zm-2.5 3a.75.75 0 0 1 .75-.75h5a.75.75 0 0 1 0 1.5H2a.75.75 0 0 1-.75-.75zm2 3a.75.75 0 0 1 .75-.75h6a.75.75 0 0 1 0 1.5H4a.75.75 0 0 1-.75-.75zm9.5-9a.75.75 0 0 0-1.5 0v4a.75.75 0 0 0 1.5 0v-4z"
          fill="currentColor"
        ></path>
      </g>
      <defs>
        <clipPath id="clip0"><path fill="#fff" d="M0 0h24v24H0z"></path></clipPath>
      </defs>
    </g>
  </svg>