<svg viewBox="0 0 24 24" xmlns="http://www.w3.org/2000/svg">
    <g fill="none">
      <path
        fill-rule="evenodd"
        clip-rule="evenodd"
        d="M19.052 3.775c-.295-.024-.68-.025-1.252-.025H12c-.476 0-.796 0-1.043.017-.241.017-.358.046-.435.078a1.25 1.25 0 0 0-.677.677c-.032.077-.061.194-.078.435-.006.087-.01.184-.012.293h5.075c.534 0 .98 0 1.345.03.38.03.736.098 1.073.27a2.75 2.75 0 0 1 1.202 1.202c.172.337.24.693.27 1.073.03.365.03.81.03 1.345v5.075c.11-.002.206-.006.293-.012.24-.017.358-.046.435-.078.307-.127.55-.37.677-.677.032-.077.061-.194.078-.435.017-.247.017-.567.017-1.043V6.2c0-.572 0-.957-.025-1.253-.023-.287-.065-.424-.111-.514a1.25 1.25 0 0 0-.547-.547c-.09-.046-.227-.088-.515-.111zM8.271 4.855a8.513 8.513 0 0 0-.017.4 8.527 8.527 0 0 0-.4.016 2.823 2.823 0 0 0-.906.188 2.75 2.75 0 0 0-1.489 1.489c-.12.29-.167.59-.188.907a8.556 8.556 0 0 0-.017.403 8.159 8.159 0 0 0-.429.022c-.38.03-.736.098-1.074.27A2.75 2.75 0 0 0 2.55 9.752c-.172.337-.24.693-.27 1.073-.03.365-.03.81-.03 1.345v5.66c0 .535 0 .98.03 1.345.03.38.098.736.27 1.073A2.75 2.75 0 0 0 3.75 21.45c.338.172.694.24 1.074.27.364.03.81.03 1.344.03h5.661c.535 0 .98 0 1.345-.03.38-.03.736-.098 1.073-.27a2.75 2.75 0 0 0 1.202-1.201c.172-.338.24-.694.27-1.074.011-.133.018-.275.022-.43.146-.002.28-.007.403-.016.317-.021.617-.068.907-.188a2.75 2.75 0 0 0 1.489-1.489c.12-.29.166-.59.188-.907.009-.122.014-.255.017-.4.144-.002.277-.007.4-.016.316-.021.616-.068.906-.188a2.75 2.75 0 0 0 1.489-1.489c.12-.29.166-.59.188-.907.021-.304.02-.675.02-1.12V6.17c.001-.535.001-.98-.029-1.345-.03-.38-.098-.736-.27-1.073a2.75 2.75 0 0 0-1.202-1.202c-.337-.172-.694-.24-1.073-.27-.365-.03-.81-.03-1.345-.03h-5.855c-.445 0-.816 0-1.12.02a2.823 2.823 0 0 0-.907.19 2.75 2.75 0 0 0-1.489 1.488c-.12.29-.167.59-.188.907zm7.479 12.39c.11-.002.206-.006.293-.012.24-.017.358-.046.435-.078.307-.127.55-.37.677-.677.032-.077.061-.194.078-.435.017-.247.017-.567.017-1.043V9.2c0-.572 0-.957-.025-1.253-.023-.287-.065-.424-.111-.514a1.25 1.25 0 0 0-.547-.547c-.09-.046-.227-.088-.515-.111-.295-.024-.68-.025-1.252-.025H9c-.476 0-.796 0-1.043.017-.241.017-.358.046-.435.078a1.25 1.25 0 0 0-.677.677c-.032.077-.061.194-.078.435-.006.087-.01.184-.012.293h5.075c.534 0 .98 0 1.345.03.38.03.736.098 1.073.27a2.75 2.75 0 0 1 1.202 1.202c.172.337.24.693.27 1.073.03.365.03.81.03 1.345v5.075zM4.432 9.886c.091-.046.228-.088.515-.111.296-.024.68-.025 1.253-.025h5.6c.572 0 .957 0 1.252.025.288.023.425.065.515.111.236.12.427.311.547.546.046.091.088.228.111.515.024.296.025.68.025 1.253v5.6c0 .572 0 .957-.025 1.252-.023.288-.065.425-.111.515a1.25 1.25 0 0 1-.547.547c-.09.046-.227.088-.514.111-.296.024-.68.025-1.253.025H6.2c-.572 0-.957 0-1.253-.025-.287-.023-.424-.065-.515-.111a1.25 1.25 0 0 1-.546-.547c-.046-.09-.088-.227-.111-.515-.024-.295-.025-.68-.025-1.252v-5.6c0-.572 0-.957.025-1.252.023-.288.065-.425.111-.516a1.25 1.25 0 0 1 .546-.546z"
        fill="currentColor"
      ></path>
    </g>
  </svg>