<svg viewBox="0 0 24 24" xmlns="http://www.w3.org/2000/svg">
    <g fill="none">
      <path
        fill-rule="evenodd"
        clip-rule="evenodd"
        d="M12 1.25a.75.75 0 0 1 .67.415l2.83 5.658 5.623.937a.75.75 0 0 1 .407 1.27l-4.206 4.206 1.407 6.095a.75.75 0 0 1-1.066.84L12 17.839 6.335 20.67a.75.75 0 0 1-1.066-.84l1.407-6.095L2.47 9.53a.75.75 0 0 1 .407-1.27L8.5 7.323l2.83-5.658A.75.75 0 0 1 12 1.25zm0 2.427L9.67 8.335a.75.75 0 0 1-.547.405l-4.562.76 3.47 3.47a.75.75 0 0 1 .2.699l-1.142 4.948 4.576-2.288a.75.75 0 0 1 .67 0l4.576 2.288-1.142-4.948a.75.75 0 0 1 .2-.7L19.44 9.5l-4.562-.76a.75.75 0 0 1-.548-.405L12 3.677z"
        fill="currentColor"
      ></path>
    </g>
  </svg>