<svg viewBox="0 0 24 24" xmlns="http://www.w3.org/2000/svg">
    <g fill="none">
      <path
        fill-rule="evenodd"
        clip-rule="evenodd"
        d="M11.644 2.256a.75.75 0 0 1 .557.22l9.323 9.323a.75.75 0 0 1 .22.557c-.188 5.22-4.478 9.394-9.744 9.394-5.385 0-9.75-4.365-9.75-9.75 0-5.266 4.174-9.556 9.394-9.744zm-1.1 1.622a8.25 8.25 0 1 0 9.578 9.578 7.75 7.75 0 0 1-9.578-9.578zm1.423.484a6.25 6.25 0 0 0 7.671 7.671l-7.671-7.67z"
        fill="currentColor"
      ></path>
    </g>
  </svg>