<svg viewBox="0 0 24 24" xmlns="http://www.w3.org/2000/svg">
    <g fill="none">
      <path
        fill-rule="evenodd"
        clip-rule="evenodd"
        d="M12 1.25a.75.75 0 0 1 .75.75v5.19l1.72-1.72a.75.75 0 1 1 1.06 1.06l-3 3a.75.75 0 0 1-1.06 0l-3-3a.75.75 0 0 1 1.06-1.06l1.72 1.72V2a.75.75 0 0 1 .75-.75zm-3.163 15a3.251 3.251 0 0 1 6.326 0H8.837zm-1.528 0H2a.75.75 0 0 0 0 1.5h20a.75.75 0 0 0 0-1.5h-5.309a4.751 4.751 0 0 0-9.382 0zM6 20.25a.75.75 0 0 0 0 1.5h12a.75.75 0 0 0 0-1.5H6zM4.399 9.399a.75.75 0 0 1 1.06 0l2.122 2.12a.75.75 0 0 1-1.061 1.062l-2.121-2.122a.75.75 0 0 1 0-1.06zm12.02 2.12a.75.75 0 0 0 1.061 1.062l2.121-2.122a.75.75 0 1 0-1.06-1.06l-2.122 2.12z"
        fill="currentColor"
      ></path>
    </g>
  </svg>