<svg viewBox="0 0 24 24" xmlns="http://www.w3.org/2000/svg">
    <g fill="none">
      <path
        fill-rule="evenodd"
        clip-rule="evenodd"
        d="M3.103 12.695a2.25 2.25 0 0 1 0-1.39c.068-.211.204-.444.498-.791.3-.354.72-.775 1.323-1.378l.732-.731c.717-.717.992-.986 1.303-1.176.29-.178.607-.31.939-.39.354-.084.739-.089 1.753-.089H16.2c.852 0 1.447 0 1.91.038.453.038.714.107.911.207.424.216.768.56.984.984.1.197.17.458.207.912.037.462.038 1.057.038 1.91v2.4c0 .851 0 1.446-.038 1.908-.038.454-.107.715-.207.913-.216.423-.56.767-.984.983-.197.1-.458.17-.912.207-.462.038-1.057.038-1.91.038H9.652c-1.014 0-1.399-.005-1.753-.09a3.25 3.25 0 0 1-.94-.389c-.31-.19-.585-.459-1.302-1.176l-.732-.731c-.602-.603-1.022-1.024-1.323-1.377-.294-.348-.43-.58-.498-.792zm-1.427-1.854a3.75 3.75 0 0 0 0 2.318c.154.474.427.88.782 1.298.345.406.808.87 1.383 1.445l.023.023.731.73.066.067c.629.629 1.034 1.034 1.514 1.328.425.26.888.453 1.373.569.548.131 1.12.131 2.01.131h6.674c.813 0 1.469 0 2-.043.546-.045 1.026-.14 1.47-.366a3.75 3.75 0 0 0 1.64-1.638c.226-.445.32-.925.364-1.471.044-.531.044-1.187.044-2v-2.464c0-.813 0-1.468-.044-2-.044-.546-.139-1.026-.365-1.47a3.75 3.75 0 0 0-1.639-1.64c-.444-.226-.924-.32-1.47-.365-.531-.043-1.187-.043-2-.043H9.557c-.889 0-1.461 0-2.01.131a4.75 4.75 0 0 0-1.372.569c-.48.294-.885.7-1.514 1.328l-.066.066-.731.732-.023.022c-.575.575-1.038 1.039-1.383 1.445-.355.418-.628.824-.782 1.298zM8.75 12a1.25 1.25 0 1 1 2.5 0 1.25 1.25 0 0 1-2.5 0zM10 9.25a2.75 2.75 0 1 0 0 5.5 2.75 2.75 0 0 0 0-5.5z"
        fill="currentColor"
      ></path>
    </g>
  </svg>