<svg viewBox="0 0 24 24" xmlns="http://www.w3.org/2000/svg">
    <g fill="none">
      <path
        fill-rule="evenodd"
        clip-rule="evenodd"
        d="M4.924 4.908a2.25 2.25 0 0 1 .984-.984c.197-.1.458-.17.912-.207.462-.037 1.057-.038 1.91-.038h1.033c1.014 0 1.4.005 1.753.09.332.08.649.21.94.389.31.19.585.459 1.303 1.176l4.63 4.63c.603.604 1.023 1.024 1.323 1.378.295.347.43.58.5.791a2.25 2.25 0 0 1 0 1.39c-.07.212-.205.445-.5.792-.3.354-.72.774-1.323 1.377l-1.697 1.697c-.602.603-1.023 1.023-1.377 1.323-.347.295-.58.43-.791.499a2.25 2.25 0 0 1-1.39 0c-.212-.069-.445-.204-.792-.499-.354-.3-.774-.72-1.377-1.323l-4.631-4.63c-.717-.718-.986-.993-1.176-1.303a3.25 3.25 0 0 1-.39-.94c-.084-.354-.089-.739-.089-1.753V7.73c0-.852 0-1.447.038-1.91.038-.453.107-.714.207-.911zm.303-2.32a3.75 3.75 0 0 0-1.64 1.639c-.226.444-.32.924-.365 1.47-.043.531-.043 1.187-.043 2V8.857c0 .889 0 1.462.131 2.01.117.484.309.947.57 1.372.293.48.699.886 1.327 1.514l.066.066 4.631 4.631.023.023c.575.575 1.038 1.038 1.444 1.383.418.355.825.627 1.299.782a3.75 3.75 0 0 0 2.317 0c.475-.155.88-.427 1.299-.782.406-.345.87-.809 1.444-1.383l.023-.023 1.697-1.697.023-.023c.575-.575 1.038-1.038 1.383-1.444.355-.418.628-.825.782-1.299a3.75 3.75 0 0 0 0-2.317c-.154-.475-.427-.88-.782-1.299-.345-.406-.808-.87-1.383-1.444l-.023-.023-4.63-4.63-.067-.067c-.628-.629-1.033-1.034-1.514-1.328a4.75 4.75 0 0 0-1.373-.569c-.547-.131-1.12-.131-2.01-.131H8.698c-.813 0-1.468 0-2 .043-.546.045-1.026.14-1.47.366zm3.816 6.705a1.25 1.25 0 1 1 2.5 0 1.25 1.25 0 0 1-2.5 0zm1.25-2.75a2.75 2.75 0 1 0 0 5.5 2.75 2.75 0 0 0 0-5.5z"
        fill="currentColor"
      ></path>
    </g>
  </svg>