<svg viewBox="0 0 24 24" xmlns="http://www.w3.org/2000/svg">
    <g fill="none">
      <path
        fill-rule="evenodd"
        clip-rule="evenodd"
        d="M8.25 3A.75.75 0 0 1 9 2.25h4.434c1.651 0 2.937 0 3.968.084 1.047.086 1.897.262 2.662.652a6.75 6.75 0 0 1 2.95 2.95c.39.765.566 1.615.652 2.662.084 1.031.084 2.317.084 3.968V15a.75.75 0 0 1-1.5 0v-2.4c0-1.692 0-2.917-.08-3.88-.077-.954-.228-1.585-.492-2.103a5.25 5.25 0 0 0-2.294-2.295c-.519-.264-1.15-.415-2.104-.493-.963-.078-2.188-.079-3.88-.079H9A.75.75 0 0 1 8.25 3zm-6.147 8.305a2.25 2.25 0 0 0 0 1.39c.069.211.204.444.499.792.3.354.72.774 1.323 1.377l.731.731c.717.717.993.986 1.303 1.176.291.178.608.31.94.39.354.084.738.09 1.752.09h6.55c.852 0 1.446-.002 1.909-.04.454-.036.715-.105.912-.206a2.25 2.25 0 0 0 .983-.983c.1-.198.17-.459.207-.913.038-.462.038-1.056.038-1.909v-2.4c0-.852 0-1.447-.038-1.91-.037-.453-.106-.714-.207-.911a2.25 2.25 0 0 0-.983-.984c-.197-.1-.458-.17-.912-.207-.463-.037-1.057-.038-1.91-.038H8.651c-1.014 0-1.398.005-1.752.09a3.25 3.25 0 0 0-.94.389c-.31.19-.586.459-1.303 1.176l-.731.731c-.603.603-1.023 1.024-1.323 1.378-.295.347-.43.58-.499.79zM.677 13.159a3.75 3.75 0 0 1 0-2.318c.154-.474.427-.88.781-1.298.345-.406.809-.87 1.384-1.445l.022-.022.732-.732.066-.066C4.29 6.65 4.695 6.244 5.175 5.95a4.75 4.75 0 0 1 1.373-.569c.548-.131 1.121-.131 2.01-.13h6.675c.812 0 1.468 0 1.999.042.547.045 1.027.14 1.471.366a3.75 3.75 0 0 1 1.639 1.639c.226.444.32.924.365 1.47.043.532.043 1.187.043 2v2.464c0 .813 0 1.469-.043 2-.044.546-.139 1.026-.365 1.47a3.75 3.75 0 0 1-1.639 1.64c-.444.226-.924.32-1.471.365-.53.043-1.187.043-2 .043H8.559c-.889 0-1.462 0-2.01-.131a4.752 4.752 0 0 1-1.373-.569c-.48-.294-.885-.7-1.513-1.328l-.066-.066-.732-.731-.022-.023c-.575-.575-1.039-1.038-1.384-1.445-.354-.418-.627-.824-.781-1.298zM7.75 12a1.25 1.25 0 1 1 2.5 0 1.25 1.25 0 0 1-2.5 0zM9 9.25a2.75 2.75 0 1 0 0 5.5 2.75 2.75 0 0 0 0-5.5z"
        fill="currentColor"
      ></path>
    </g>
  </svg>