<svg viewBox="0 0 24 24" xmlns="http://www.w3.org/2000/svg">
    <g fill="none">
      <path
        fill-rule="evenodd"
        clip-rule="evenodd"
        d="M13.762 2.277a.75.75 0 0 1 1.061 0l3.111 3.111.024.025c1.168 1.167 2.077 2.076 2.746 2.865.68.8 1.157 1.527 1.422 2.343a6.75 6.75 0 0 1 0 4.172c-.265.817-.742 1.543-1.422 2.343-.67.789-1.578 1.698-2.746 2.866l-.024.024-1.005 1.004-.692.693a.75.75 0 0 1-1.06-1.061l.692-.692 1.005-1.005c1.196-1.197 2.062-2.063 2.687-2.8.62-.73.96-1.282 1.139-1.836a5.25 5.25 0 0 0 0-3.244c-.18-.554-.52-1.107-1.14-1.836-.624-.737-1.49-1.603-2.686-2.8l-3.112-3.111a.75.75 0 0 1 0-1.06zM3.908 3.924a2.25 2.25 0 0 0-.984.984c-.1.197-.17.458-.206.912-.038.462-.039 1.057-.039 1.909v1.034c0 1.014.005 1.4.09 1.753.08.332.21.649.39.94.19.31.458.585 1.175 1.303l4.63 4.63c.604.603 1.024 1.023 1.378 1.323.347.295.58.43.791.5a2.25 2.25 0 0 0 1.391 0c.21-.07.444-.205.791-.5.354-.3.775-.72 1.378-1.323l1.697-1.697c.602-.603 1.022-1.023 1.322-1.377.295-.347.43-.58.5-.791a2.249 2.249 0 0 0 0-1.39c-.07-.212-.205-.445-.5-.792-.3-.354-.72-.774-1.322-1.377l-4.631-4.631c-.717-.717-.993-.986-1.303-1.176a3.25 3.25 0 0 0-.94-.39c-.354-.084-.738-.089-1.752-.089H6.729c-.852 0-1.446 0-1.91.038-.453.038-.714.107-.911.207zm-2.32.303a3.75 3.75 0 0 1 1.639-1.64c.444-.226.924-.32 1.47-.365.532-.043 1.187-.043 2-.043h1.16c.889 0 1.462 0 2.01.131a4.75 4.75 0 0 1 1.372.569c.48.294.886.7 1.514 1.328l.066.066 4.631 4.631.023.023c.575.575 1.038 1.038 1.383 1.444.355.418.628.825.782 1.299a3.75 3.75 0 0 1 0 2.317c-.154.474-.427.88-.782 1.299-.345.406-.808.87-1.383 1.444l-.023.023-1.697 1.697-.023.023c-.574.575-1.038 1.038-1.444 1.383-.418.355-.824.628-1.298.782a3.749 3.749 0 0 1-2.318 0c-.474-.154-.88-.427-1.299-.782-.406-.345-.87-.809-1.444-1.383l-.023-.023-4.63-4.63-.067-.067c-.628-.628-1.033-1.033-1.328-1.514a4.75 4.75 0 0 1-.569-1.373c-.131-.547-.13-1.12-.13-2.01V7.698c0-.813 0-1.469.043-2 .044-.546.139-1.026.365-1.47zM6.702 9.47a1.25 1.25 0 1 1 1.767-1.768A1.25 1.25 0 0 1 6.702 9.47zm-1.06-2.828A2.75 2.75 0 1 0 9.53 10.53a2.75 2.75 0 0 0-3.889-3.89z"
        fill="currentColor"
      ></path>
    </g>
  </svg>