<svg viewBox="0 0 24 24" xmlns="http://www.w3.org/2000/svg">
    <g fill="none">
      <path
        fill-rule="evenodd"
        clip-rule="evenodd"
        d="M6.25 8A4.75 4.75 0 0 1 11 3.25h2A4.75 4.75 0 0 1 17.75 8a.75.75 0 0 1-1.5 0A3.25 3.25 0 0 0 13 4.75h-2a3.25 3.25 0 0 0-3.148 4.063.75.75 0 1 1-1.453.374A4.757 4.757 0 0 1 6.25 8zm-4 4a.75.75 0 0 1 .75-.75h18a.75.75 0 0 1 0 1.5h-4.536a4.75 4.75 0 0 1-3.464 8h-2A4.75 4.75 0 0 1 6.25 16a.75.75 0 0 1 1.5 0A3.25 3.25 0 0 0 11 19.25h2a3.25 3.25 0 0 0 0-6.5H3a.75.75 0 0 1-.75-.75z"
        fill="currentColor"
      ></path>
    </g>
  </svg>