<svg viewBox="0 0 24 24" xmlns="http://www.w3.org/2000/svg">
    <g fill="none">
      <path
        fill-rule="evenodd"
        clip-rule="evenodd"
        d="M16.6 4.75c.432 0 .712 0 .924.018.204.017.28.045.316.064a.75.75 0 0 1 .328.328c.02.037.047.112.064.316.017.212.018.492.018.924v.1a.75.75 0 0 0 1.5 0v-.129c0-.395 0-.736-.023-1.017-.024-.297-.078-.592-.222-.875a2.25 2.25 0 0 0-.983-.984c-.284-.144-.58-.198-.876-.222-.28-.023-.622-.023-1.017-.023H8.5a.75.75 0 0 0 0 1.5h2.75V8a.75.75 0 0 0 1.5 0V4.75h3.85zm-3.85 9.06v5.44H16a.75.75 0 0 1 0 1.5H8a.75.75 0 0 1 0-1.5h3.25v-6.94L3.47 4.53a.75.75 0 0 1 1.06-1.06l16 16a.75.75 0 1 1-1.06 1.06l-6.72-6.72z"
        fill="currentColor"
      ></path>
    </g>
  </svg>