<svg viewBox="0 0 24 24" xmlns="http://www.w3.org/2000/svg">
    <g fill="none">
      <path
        fill-rule="evenodd"
        clip-rule="evenodd"
        d="M13.11 3.014a.772.772 0 0 1 1.291.813l-2.09 4.878A.75.75 0 0 0 13 9.75h3.81c.727 0 1.221 0 1.597.034.37.033.533.092.629.151.264.162.458.416.545.714.032.108.046.28-.02.647-.066.37-.196.848-.387 1.549l-1.255 4.6c-.248.91-.328 1.152-.457 1.319-.134.173-.31.308-.513.392-.195.08-.45.094-1.393.094H9.2c-.572 0-.957 0-1.253-.025-.287-.023-.424-.065-.514-.111a1.25 1.25 0 0 1-.547-.547c-.046-.09-.088-.227-.111-.515-.024-.295-.025-.68-.025-1.252v-5.598c0-.477.004-.604.029-.718a1.25 1.25 0 0 1 .126-.335c.056-.102.137-.2.451-.56l5.754-6.575zm.58-1.764c-.654 0-1.278.283-1.71.776L6.228 8.601l-.043.05c-.251.286-.449.512-.593.774a2.75 2.75 0 0 0-.277.738c-.064.293-.064.593-.064.974V16.83c0 .535 0 .98.03 1.345.03.38.098.736.27 1.073a2.75 2.75 0 0 0 1.202 1.202c.337.172.693.24 1.073.27.365.03.81.03 1.345.03H15.69c.743 0 1.324.001 1.831-.208a2.75 2.75 0 0 0 1.128-.861c.335-.434.488-.996.682-1.712l.036-.13 1.254-4.6.01-.033c.179-.659.327-1.201.407-1.645.082-.457.11-.9-.017-1.334a2.75 2.75 0 0 0-1.2-1.57c-.385-.237-.82-.326-1.282-.367-.45-.04-1.011-.04-1.694-.04h-2.708l1.643-3.832a2.273 2.273 0 0 0-2.09-3.168zM3.75 10a.75.75 0 0 0-1.5 0v10a.75.75 0 0 0 1.5 0V10z"
        fill="currentColor"
      ></path>
    </g>
  </svg>