<svg viewBox="0 0 24 24" xmlns="http://www.w3.org/2000/svg">
    <g fill="none">
      <path
        fill-rule="evenodd"
        clip-rule="evenodd"
        d="M8.444 3.25H8.31c-.743 0-1.324-.001-1.831.208a2.75 2.75 0 0 0-1.128.861c-.335.434-.488.996-.682 1.712l-.036.13-1.254 4.6-.01.033c-.179.659-.327 1.201-.407 1.645-.082.457-.11.9.017 1.334a2.75 2.75 0 0 0 1.2 1.57c.385.237.82.326 1.282.367.45.04 1.011.04 1.694.04h3.553l-2.16 3.778c-.82 1.436.217 3.222 1.87 3.222.572 0 1.12-.227 1.523-.63l5.652-5.652.051-.052c.297-.296.53-.528.7-.808.152-.246.263-.514.33-.795.076-.318.076-.647.076-1.066V7.17c0-.535 0-.98-.03-1.345-.03-.38-.098-.736-.27-1.073A2.75 2.75 0 0 0 17.25 3.55c-.338-.172-.694-.24-1.074-.27-.365-.03-.81-.03-1.345-.03H8.444zM7.051 4.845c.195-.081.45-.095 1.393-.095H14.8c.572 0 .957 0 1.252.025.288.023.425.065.515.111.236.12.427.311.547.546.046.091.088.228.111.515.024.296.025.68.025 1.253v6.474c0 .525-.005.666-.035.79-.03.127-.08.249-.15.36-.066.11-.161.212-.533.583l-5.651 5.652a.654.654 0 0 1-1.03-.787l2.8-4.9A.75.75 0 0 0 12 14.25H7.19c-.726 0-1.221 0-1.597-.034-.37-.033-.533-.092-.629-.151a1.25 1.25 0 0 1-.545-.714c-.032-.108-.046-.28.02-.647.066-.37.196-.848.387-1.549l1.254-4.6c.249-.91.329-1.152.458-1.319a1.25 1.25 0 0 1 .513-.391zM20.25 14a.75.75 0 0 0 1.5 0V4a.75.75 0 0 0-1.5 0v10z"
        fill="currentColor"
      ></path>
    </g>
  </svg>