<svg viewBox="0 0 24 24" xmlns="http://www.w3.org/2000/svg">
    <g fill="none">
      <path
        fill-rule="evenodd"
        clip-rule="evenodd"
        d="M16.005 3.807c-.635-.056-1.504-.057-2.73-.057H9.364c-.646 0-1.103 0-1.444.016-.356.017-.496.05-.549.07A1.25 1.25 0 0 0 6.682 5.5c.023.052.1.175.339.438.23.252.553.576 1.01 1.033l2.25 2.25a.75.75 0 1 1-1.061 1.06L6.97 8.03l-.015-.014c-.439-.44-.788-.788-1.044-1.07-.25-.275-.475-.553-.604-.848a2.75 2.75 0 0 1 1.515-3.657c.3-.118.655-.155 1.026-.173.381-.018.875-.018 1.495-.018h3.971c1.178 0 2.114 0 2.823.063.692.061 1.347.192 1.82.596a2.75 2.75 0 0 1 .956 2.307c-.049.62-.42 1.176-.866 1.709-.457.545-1.118 1.207-1.951 2.04l-.028.028-7.075 7.075c-.867.867-1.481 1.482-1.89 1.97-.425.508-.512.749-.52.864-.032.399.13.789.434 1.049.088.075.319.184.978.242.635.056 1.504.057 2.73.057h3.911c.646 0 1.103 0 1.444-.017.356-.017.496-.049.549-.07a1.25 1.25 0 0 0 .689-1.662c-.023-.052-.1-.175-.339-.438-.23-.252-.552-.576-1.01-1.033l-2.25-2.25a.75.75 0 1 1 1.061-1.06l2.25 2.25.015.014c.439.44.788.788 1.044 1.07.25.275.475.553.604.848a2.75 2.75 0 0 1-1.515 3.657c-.3.118-.655.155-1.026.173-.381.018-.875.018-1.495.018h-3.971c-1.178 0-2.114 0-2.823-.063-.692-.061-1.347-.192-1.82-.596a2.75 2.75 0 0 1-.956-2.307c.049-.62.42-1.176.866-1.708.457-.546 1.118-1.208 1.951-2.041l.028-.028 7.075-7.075c.867-.867 1.481-1.482 1.89-1.97.425-.508.512-.749.52-.864a1.25 1.25 0 0 0-.434-1.049c-.088-.075-.319-.184-.978-.242z"
        fill="currentColor"
      ></path>
    </g>
  </svg>