<svg xmlns="http://www.w3.org/2000/svg" fill="none" viewBox="0 0 20 20">
    <path
      fill="currentColor"
      fill-rule="evenodd"
      d="M8.417 5.833a3.25 3.25 0 0 1 6.413-.75h2.67a.75.75 0 0 1 0 1.5h-2.67a3.251 3.251 0 0 1-6.413-.75Zm3.25-1.75c.966 0 1.75.784 1.75 1.75v.001a1.75 1.75 0 1 1-1.75-1.75Zm-9.167 1a.75.75 0 0 0 0 1.5h4.167a.75.75 0 1 0 0-1.5H2.5Zm0 8.334a.75.75 0 0 0 0 1.5h2.67a3.251 3.251 0 0 0 6.413-.75 3.25 3.25 0 0 0-6.413-.75H2.5Zm10.833 0a.75.75 0 0 0 0 1.5H17.5a.75.75 0 0 0 0-1.5h-4.167Zm-6.75.75a1.75 1.75 0 1 1 3.5 0 1.75 1.75 0 0 1-3.5 0Z"
      clip-rule="evenodd"
    />
  </svg>