<svg viewBox="0 0 24 24" xmlns="http://www.w3.org/2000/svg">
    <g fill="none">
      <path
        fill-rule="evenodd"
        clip-rule="evenodd"
        d="M17.75 5a1.25 1.25 0 1 1 2.5 0 1.25 1.25 0 0 1-2.5 0zm-1.396-.75a2.751 2.751 0 1 1 3.396 3.396v8.707a2.751 2.751 0 1 1-3.396 3.397H7.646a2.751 2.751 0 1 1-3.396-3.396V7.646A2.751 2.751 0 1 1 7.646 4.25h8.707zM5.75 16.354c.916.259 1.637.98 1.896 1.896h8.707a2.756 2.756 0 0 1 1.897-1.896V7.646a2.756 2.756 0 0 1-1.896-1.896H7.646A2.756 2.756 0 0 1 5.75 7.646v8.707zM19 17.75a1.25 1.25 0 1 1 0 2.5 1.25 1.25 0 0 1 0-2.5zm-14-14a1.25 1.25 0 0 0 0 2.5 1.25 1.25 0 0 0 0-2.5zM3.75 19a1.25 1.25 0 1 1 2.5 0 1.25 1.25 0 0 1-2.5 0z"
        fill="currentColor"
      ></path>
    </g>
  </svg>