<svg viewBox="0 0 24 24" xmlns="http://www.w3.org/2000/svg">
    <g fill="none">
      <path
        fill-rule="evenodd"
        clip-rule="evenodd"
        d="M14.2 2.25h-.03c-.535 0-.98 0-1.345.03-.38.03-.736.098-1.073.27a2.75 2.75 0 0 0-1.202 1.202c-.172.337-.24.693-.27 1.073-.03.365-.03.81-.03 1.345v.08H5.712c-.563 0-1.005 0-1.416.13a2.75 2.75 0 0 0-.98.555c-.323.285-.55.664-.84 1.148l-.051.085-1.612 2.686-.025.042c-.146.242-.26.433-.344.642a2.749 2.749 0 0 0-.158.572c-.036.222-.036.445-.036.728v2.187c0 .445 0 .816.02 1.12.022.317.069.617.19.907a2.75 2.75 0 0 0 1.488 1.489c.29.12.59.167.907.188.123.009.258.014.404.017a3.25 3.25 0 0 0 6.482.004h3.518a3.25 3.25 0 0 0 6.482 0h.089c.535 0 .98 0 1.345-.03.38-.03.736-.098 1.073-.27a2.751 2.751 0 0 0 1.202-1.201c.172-.338.24-.694.27-1.074.03-.365.03-.81.03-1.344V6.17c0-.535 0-.98-.03-1.345-.03-.38-.098-.736-.27-1.073A2.75 2.75 0 0 0 22.25 2.55c-.338-.172-.694-.24-1.074-.27-.365-.03-.81-.03-1.345-.03H14.2zM10.25 8v-.25H5.812c-.71 0-.9.008-1.06.06a1.25 1.25 0 0 0-.445.251c-.125.11-.23.27-.596.878L2.325 11.25H7.8c.572 0 .957 0 1.253-.025.287-.023.424-.065.514-.111a1.25 1.25 0 0 0 .547-.546c.046-.091.088-.228.111-.515.024-.296.025-.68.025-1.253V8zm1.5 0V8.83c0 .535 0 .98-.03 1.345-.03.38-.098.736-.27 1.073a2.751 2.751 0 0 1-1.201 1.202c-.338.172-.694.24-1.074.27-.365.03-.81.03-1.345.03H1.75V15c0 .476 0 .796.017 1.043.017.241.046.358.078.435.127.307.37.55.677.677.077.032.194.061.435.078.149.01.323.014.543.016a3.251 3.251 0 0 1 6 .001h4a3.25 3.25 0 0 1 6 0h.3c.572 0 .957 0 1.252-.025.288-.023.425-.065.515-.111a1.25 1.25 0 0 0 .547-.547c.046-.09.088-.227.111-.515.024-.295.025-.68.025-1.252V6.2c0-.572 0-.957-.025-1.253-.023-.287-.065-.424-.111-.514a1.25 1.25 0 0 0-.547-.547c-.09-.046-.227-.088-.515-.111-.295-.024-.68-.025-1.252-.025h-5.6c-.572 0-.957 0-1.252.025-.288.023-.425.065-.516.111a1.25 1.25 0 0 0-.546.547c-.046.09-.088.227-.111.514-.024.296-.025.68-.025 1.253V8zM6.5 16.75a1.75 1.75 0 1 0 0 3.5 1.75 1.75 0 0 0 0-3.5zm10 0a1.75 1.75 0 1 0 0 3.5 1.75 1.75 0 0 0 0-3.5z"
        fill="currentColor"
      ></path>
    </g>
  </svg>