<svg viewBox="0 0 24 24" xmlns="http://www.w3.org/2000/svg">
    <g fill="none">
      <path
        fill-rule="evenodd"
        clip-rule="evenodd"
        d="M9.077 3.19c-3.053.997-4.65 3.513-5.493 5.671-.34.87-.396 1.07-.326 1.4.021.096.09.257.208.432.12.174.245.296.327.35.273.18.56.207 1.743.207h1.723c.062-2.516.437-4.826 1.102-6.578.2-.527.438-1.03.716-1.482zM12 2.75c-.735 0-1.563.678-2.236 2.453-.585 1.54-.942 3.658-1.004 6.047h6.482c-.058-2.609-.418-4.738-1.003-6.226C13.584 3.357 12.77 2.75 12 2.75zm4.742 8.5c-.057-2.725-.432-5.058-1.106-6.774a8.08 8.08 0 0 0-.614-1.253c2.988 1.019 4.56 3.503 5.394 5.638.34.87.396 1.07.325 1.4a1.36 1.36 0 0 1-.207.432 1.36 1.36 0 0 1-.327.35c-.273.18-.56.207-1.743.207h-1.722zM16 12.75h-3.25V20a2.75 2.75 0 1 1-5.5 0v-1a.75.75 0 0 1 1.5 0v1a1.25 1.25 0 1 0 2.5 0v-7.25H5.383c-.952.001-1.724.002-2.416-.454a2.822 2.822 0 0 1-.74-.757c-.19-.28-.362-.62-.435-.964-.173-.81.066-1.422.358-2.166l.037-.094C3.37 5.283 6.087 1.25 12 1.25s8.629 4.033 9.813 7.065l.037.094c.292.744.531 1.356.358 2.166a2.822 2.822 0 0 1-.435.964c-.191.28-.447.563-.74.757-.692.456-1.464.455-2.416.454H16z"
        fill="currentColor"
      ></path>
    </g>
  </svg>