<svg viewBox="0 0 24 24" xmlns="http://www.w3.org/2000/svg">
    <g fill="none">
      <path
        fill-rule="evenodd"
        clip-rule="evenodd"
        d="M9 3.75a3.25 3.25 0 1 0 0 6.5 3.25 3.25 0 0 0 0-6.5zM4.25 7a4.75 4.75 0 1 1 9.5 0 4.75 4.75 0 0 1-9.5 0zM6 15.75A3.25 3.25 0 0 0 2.75 19c0 .69.56 1.25 1.25 1.25h10c.69 0 1.25-.56 1.25-1.25A3.25 3.25 0 0 0 12 15.75H6zM1.25 19A4.75 4.75 0 0 1 6 14.25h6A4.75 4.75 0 0 1 16.75 19 2.75 2.75 0 0 1 14 21.75H4A2.75 2.75 0 0 1 1.25 19zM18.53 6.47a.75.75 0 1 0-1.06 1.06l1.97 1.97-1.97 1.97a.75.75 0 1 0 1.06 1.06l1.97-1.97 1.97 1.97a.75.75 0 1 0 1.06-1.06L21.56 9.5l1.97-1.97a.75.75 0 0 0-1.06-1.06L20.5 8.44l-1.97-1.97z"
        fill="currentColor"
      ></path>
    </g>
  </svg>