<svg viewBox="0 0 24 24" xmlns="http://www.w3.org/2000/svg">
    <g fill="none">
      <path
        fill-rule="evenodd"
        clip-rule="evenodd"
        d="M18 3.75a2.25 2.25 0 1 0 0 4.5 2.25 2.25 0 0 0 0-4.5zM6.776 14.33a8.204 8.204 0 0 1 7.554-7.554A3.751 3.751 0 0 0 21.75 6a3.75 3.75 0 0 0-7.43-.727 9.705 9.705 0 0 0-9.047 9.047A3.751 3.751 0 0 0 6 21.75a3.75 3.75 0 0 0 .776-7.42zM3.75 18a2.25 2.25 0 1 1 4.5 0 2.25 2.25 0 0 1-4.5 0z"
        fill="currentColor"
      ></path>
    </g>
  </svg>