<svg viewBox="0 0 24 24" xmlns="http://www.w3.org/2000/svg">
    <g fill="none">
      <path
        fill-rule="evenodd"
        clip-rule="evenodd"
        d="M12.63.815a2.25 2.25 0 0 0-1.26 0c-.272.08-.5.216-.713.373-.2.147-.427.341-.687.564l-.02.017-1.264 1.084c-.274.234-.33.277-.384.306a.75.75 0 0 1-.199.074c-.06.013-.13.017-.49.017H6.335c-.394 0-.736 0-1.017.023-.296.024-.59.077-.875.222a2.25 2.25 0 0 0-.983.983c-.145.284-.198.579-.222.876-.023.28-.023.622-.023 1.017V7.62c0 .357-.004.427-.017.487a.75.75 0 0 1-.072.197c-.029.054-.071.11-.302.382L1.743 9.963l-.017.02c-.22.259-.41.484-.555.684a2.274 2.274 0 0 0-.367.709 2.25 2.25 0 0 0 0 1.248c.079.27.213.497.367.709.145.2.336.425.555.683l.017.02 1.082 1.277c.23.273.273.329.302.382a.75.75 0 0 1 .072.198c.013.06.017.13.017.487V17.629c0 .395 0 .736.023 1.017.024.297.077.591.222.875.216.424.56.768.983.984.284.144.579.198.875.222.281.023.622.023 1.018.023h1.275c.36 0 .431.004.491.017a.75.75 0 0 1 .2.073c.053.03.11.073.383.307l1.264 1.084.02.016c.26.224.486.418.687.565.213.156.441.293.714.372.41.12.847.12 1.258 0 .273-.079.5-.216.714-.372.2-.147.427-.341.687-.564l.02-.018 1.264-1.083c.274-.234.33-.277.384-.307a.75.75 0 0 1 .199-.073c.06-.013.13-.017.49-.017h1.242c.395 0 .736 0 1.017-.023.297-.024.592-.078.875-.222a2.25 2.25 0 0 0 .984-.984c.144-.284.198-.578.222-.875.023-.28.023-.622.023-1.017v-1.241c0-.36.004-.431.017-.492a.752.752 0 0 1 .073-.198c.03-.054.073-.11.307-.384l1.084-1.264.017-.02c.223-.26.417-.487.564-.687.156-.214.293-.441.373-.714a2.25 2.25 0 0 0 0-1.258c-.08-.273-.217-.5-.373-.714-.147-.2-.341-.427-.564-.687l-.017-.02-1.084-1.264c-.234-.274-.277-.33-.307-.384a.75.75 0 0 1-.073-.199c-.013-.06-.017-.13-.017-.491V6.37c0-.395 0-.736-.023-1.016-.024-.297-.078-.592-.222-.876a2.25 2.25 0 0 0-.983-.983c-.284-.145-.58-.198-.876-.222a13.42 13.42 0 0 0-1.017-.023H16.388c-.36 0-.431-.004-.491-.017a.75.75 0 0 1-.2-.074c-.053-.029-.11-.072-.383-.306L14.05 1.769l-.02-.017c-.26-.223-.486-.417-.687-.564a2.275 2.275 0 0 0-.714-.373zm-.84 1.44a.75.75 0 0 1 .42 0 .829.829 0 0 1 .246.143c.149.109.332.265.618.51l1.264 1.083.042.037c.208.178.39.335.604.45.187.102.388.176.596.221.237.051.478.051.752.05H17.6c.432 0 .712.001.924.019.204.016.28.045.316.064a.75.75 0 0 1 .328.327c.02.037.047.113.064.317.017.212.018.491.018.924v1.268c0 .273 0 .515.05.752.046.208.12.409.221.596.116.213.273.396.451.604l.036.042 1.084 1.264c.245.286.4.469.51.618a.829.829 0 0 1 .142.246.75.75 0 0 1 0 .42.83.83 0 0 1-.142.246c-.11.149-.265.332-.51.618l-1.084 1.264-.036.042c-.178.208-.335.39-.45.604a2.25 2.25 0 0 0-.221.596c-.051.237-.051.478-.051.752V17.6c0 .432 0 .711-.018.924-.017.204-.045.28-.064.316a.75.75 0 0 1-.328.328c-.037.019-.112.047-.316.064-.212.017-.492.018-.924.018h-1.268c-.274 0-.515 0-.752.05-.208.045-.409.12-.596.221-.213.115-.396.273-.604.45l-.042.037-1.264 1.084c-.286.245-.469.4-.618.51a.828.828 0 0 1-.246.142.75.75 0 0 1-.42 0 .83.83 0 0 1-.246-.142c-.149-.11-.332-.265-.618-.51l-1.264-1.084-.042-.036c-.208-.178-.391-.336-.604-.451a2.25 2.25 0 0 0-.596-.22c-.237-.052-.478-.051-.752-.051H6.366c-.433 0-.712 0-.924-.018-.204-.017-.28-.045-.317-.064a.75.75 0 0 1-.327-.328c-.02-.037-.048-.112-.064-.316a12.753 12.753 0 0 1-.018-.924v-1.275c0-.272 0-.511-.05-.746a2.248 2.248 0 0 0-.217-.592c-.114-.212-.269-.394-.444-.601l-.036-.042-1.082-1.277a11.78 11.78 0 0 1-.502-.615.828.828 0 0 1-.14-.244.75.75 0 0 1 0-.416.828.828 0 0 1 .14-.245c.108-.148.261-.33.502-.614l1.082-1.277.036-.042c.175-.207.33-.39.444-.601.1-.186.173-.386.217-.592.05-.235.05-.475.05-.746V6.4c0-.433 0-.712.018-.924.016-.204.045-.28.064-.317a.75.75 0 0 1 .327-.327c.037-.02.113-.048.317-.064.212-.018.491-.018.924-.018h1.302c.274 0 .515 0 .752-.05a2.25 2.25 0 0 0 .596-.221c.213-.116.396-.273.604-.451l.042-.037 1.264-1.083c.286-.245.469-.401.618-.51a.83.83 0 0 1 .246-.143zm4.74 7.275a.75.75 0 0 0-1.06-1.06L11 12.94l-1.47-1.47a.75.75 0 0 0-1.06 1.06l2 2a.75.75 0 0 0 1.06 0l5-5z"
        fill="currentColor"
      ></path>
    </g>
  </svg>