<svg xmlns="http://www.w3.org/2000/svg" fill="none" viewBox="0 0 24 24">
    <path fill="currentColor" fill-rule="evenodd" d="M8.4 3.25h-.033c-1.092 0-1.958 0-2.655.057-.714.058-1.317.18-1.868.46a4.75 4.75 0 0 0-2.076 2.077c-.281.55-.403 1.154-.461 1.868-.057.697-.057 1.563-.057 2.655V13.2a.75.75 0 0 0 1.5 0v-2.8c0-1.132 0-1.937.052-2.566.05-.62.147-1.005.302-1.31a3.25 3.25 0 0 1 1.42-1.42c.305-.155.69-.251 1.31-.302.63-.051 1.434-.052 2.566-.052h3.2c1.133 0 1.937 0 2.566.052.62.05 1.005.147 1.31.302a3.25 3.25 0 0 1 1.42 1.42c.155.305.251.69.302 1.31.051.63.052 1.434.052 2.566V13.664c0 1.099-.002 1.885-.052 2.502-.05.62-.147 1.005-.302 1.31a3.25 3.25 0 0 1-1.42 1.42c-.305.155-.69.251-1.31.302-.63.051-1.434.052-2.566.052h-1.4a.75.75 0 0 0 0 1.5H11.633c1.092 0 1.958 0 2.655-.057.714-.058 1.317-.18 1.869-.46a4.75 4.75 0 0 0 2.075-2.076c.26-.51.384-1.066.447-1.711.191.142.358.264.504.362.218.146.452.286.707.358a2.25 2.25 0 0 0 2.709-1.354c.095-.247.124-.519.137-.78.014-.266.014-.602.014-1.011V9.98c0-.41 0-.746-.014-1.011-.013-.262-.042-.534-.137-.78a2.25 2.25 0 0 0-2.709-1.355c-.255.072-.49.212-.707.358-.146.098-.313.22-.504.362-.063-.645-.187-1.2-.447-1.71a4.75 4.75 0 0 0-2.075-2.076c-.552-.281-1.155-.403-1.869-.461-.697-.057-1.563-.057-2.655-.057H8.4Zm10.35 7.117V10c0-.268.002-.322.009-.365a.75.75 0 0 1 .204-.409A2.86 2.86 0 0 1 19.25 9c.348-.26.586-.439.77-.563.191-.129.262-.155.277-.159a.75.75 0 0 1 .902.451c.006.015.028.087.04.317.01.222.011.52.011.954v4c0 .435 0 .732-.012.954-.011.23-.033.303-.038.317a.75.75 0 0 1-.903.45c-.015-.003-.086-.03-.277-.158a21.214 21.214 0 0 1-.77-.563 2.856 2.856 0 0 1-.287-.226.75.75 0 0 1-.204-.408A2.859 2.859 0 0 1 18.75 14V13.698m0-3.331V13.633" clip-rule="evenodd"/>
    <path stroke="#000" stroke-linecap="round" stroke-linejoin="round" stroke-width="1.5" d="M4 22v-3m0-3v3m0 0H1m3 0h3"/>
  </svg>