<svg viewBox="0 0 24 24" xmlns="http://www.w3.org/2000/svg">
    <g fill="none">
      <path
        fill-rule="evenodd"
        clip-rule="evenodd"
        d="M2.53 1.47a.75.75 0 0 0-1.06 1.06L2.94 4c-.442.448-.752.787-.99 1.175a4.75 4.75 0 0 0-.569 1.373c-.131.548-.131 1.12-.131 2.01v5.075c0 1.092 0 1.958.057 2.655.058.714.18 1.317.46 1.869a4.75 4.75 0 0 0 2.077 2.075c.55.281 1.154.403 1.868.461.697.057 1.563.057 2.655.057H16c1 0 1.876-.534 2.357-1.332l3.113 3.112a.75.75 0 1 0 1.06-1.06l-4-4-14-14-2-2zm.699 4.489c.15-.244.347-.466.772-.897l13.218 13.217A1.25 1.25 0 0 1 16 19.25H8.4c-1.132 0-1.937 0-2.566-.052-.62-.05-1.005-.147-1.31-.302a3.25 3.25 0 0 1-1.42-1.42c-.155-.305-.251-.69-.302-1.31-.051-.63-.052-1.434-.052-2.566V8.651c0-1.014.005-1.399.09-1.753.08-.331.21-.648.389-.94zM11.6 4.75c1.133 0 1.937 0 2.566.052.62.05 1.005.147 1.31.302a3.25 3.25 0 0 1 1.42 1.42c.155.305.251.69.302 1.31.051.63.052 1.434.052 2.566V13a.75.75 0 0 0 1.5 0v-2.633c0-.353 0-.683-.002-.99l1.142-.857c.424-.318.7-.525.914-.656.134-.083.2-.107.218-.113a.25.25 0 0 1 .164.082c.006.018.026.085.04.242.023.25.024.595.024 1.125V17a.75.75 0 0 0 1.5 0V9.165c0-.485 0-.9-.03-1.226-.03-.322-.096-.704-.342-1.018a1.75 1.75 0 0 0-1.342-.67c-.399-.009-.744.166-1.02.336-.278.172-.61.42-.998.712l-.028.021-.311.233c-.063-.645-.187-1.2-.447-1.71a4.75 4.75 0 0 0-2.075-2.075c-.552-.281-1.155-.403-1.869-.461-.697-.057-1.563-.057-2.655-.057H9a.75.75 0 0 0 0 1.5h2.6z"
        fill="currentColor"
      ></path>
    </g>
  </svg>