<svg viewBox="0 0 24 24" xmlns="http://www.w3.org/2000/svg">
    <g fill="none">
      <path
        fill-rule="evenodd"
        clip-rule="evenodd"
        d="M7.975 1.25h8.05c.445 0 .816 0 1.12.02.317.022.617.07.907.19a2.75 2.75 0 0 1 1.489 1.488c.12.29.167.59.188.907.01.15.016.317.018.501.341.058.657.15.956.303a3.75 3.75 0 0 1 1.638 1.639c.227.444.321.924.366 1.47.043.531.043 1.187.043 2v4.464c0 .813 0 1.469-.043 2-.045.546-.14 1.026-.366 1.47a3.75 3.75 0 0 1-1.639 1.64 3.276 3.276 0 0 1-.955.302 9.41 9.41 0 0 1-.018.501 2.822 2.822 0 0 1-.188.907 2.75 2.75 0 0 1-1.489 1.489c-.29.12-.59.167-.907.188-.304.021-.675.021-1.12.021h-8.05c-.445 0-.816 0-1.12-.02a2.822 2.822 0 0 1-.907-.19 2.75 2.75 0 0 1-1.489-1.488c-.12-.29-.167-.59-.188-.907a9.454 9.454 0 0 1-.018-.501 3.276 3.276 0 0 1-.955-.303 3.75 3.75 0 0 1-1.64-1.639c-.226-.444-.32-.924-.365-1.47-.043-.531-.043-1.187-.043-2V9.768c0-.813 0-1.469.043-2 .045-.546.14-1.026.366-1.47a3.75 3.75 0 0 1 1.639-1.64c.299-.152.614-.244.955-.302a9.45 9.45 0 0 1 .018-.501c.021-.317.068-.617.188-.907a2.75 2.75 0 0 1 1.489-1.489c.29-.12.59-.167.907-.188.304-.021.675-.021 1.12-.021zm10.258 2.707c.006.088.01.186.012.297-.307-.004-.644-.004-1.013-.004H6.768c-.37 0-.706 0-1.013.004.002-.11.006-.209.012-.297.017-.241.046-.358.078-.435.127-.307.37-.55.677-.677.077-.032.194-.061.435-.078A17.09 17.09 0 0 1 8 2.75h8c.476 0 .796 0 1.043.017.241.017.358.046.435.078.307.127.55.37.677.677.032.077.061.194.078.435zm.012 15.789c-.307.004-.644.004-1.013.004H6.768c-.37 0-.706 0-1.013-.004.002.11.006.209.012.297.017.241.046.358.078.435.127.307.37.55.677.677.077.032.194.061.435.078.247.017.567.017 1.043.017h8c.476 0 .796 0 1.043-.017.241-.017.358-.046.435-.078.307-.127.55-.37.677-.677.032-.077.061-.194.078-.435a6.49 6.49 0 0 0 .012-.297zM3.98 5.996c.197-.101.458-.17.912-.208.462-.037 1.057-.038 1.909-.038h10.4c.852 0 1.447 0 1.91.038.453.037.714.107.912.207.423.216.767.56.983.984.1.197.17.458.207.912.037.462.038 1.057.038 1.909v4.4c0 .853 0 1.447-.038 1.91-.038.453-.107.714-.207.912-.216.423-.56.767-.983.983-.198.1-.459.17-.913.207-.462.037-1.057.038-1.909.038H6.8c-.852 0-1.447 0-1.91-.038-.453-.038-.714-.107-.911-.207a2.25 2.25 0 0 1-.984-.983c-.1-.198-.17-.459-.207-.913-.037-.462-.038-1.057-.038-1.909V9.8c0-.852 0-1.447.038-1.91.037-.453.107-.714.207-.911a2.25 2.25 0 0 1 .984-.984zm8.924 3.038l-.028-.019c-.38-.253-.707-.47-.981-.62-.275-.148-.614-.296-.998-.273a1.75 1.75 0 0 0-1.292.69c-.232.308-.297.672-.326.983-.028.31-.028.704-.028 1.16V13.045c0 .456 0 .85.028 1.16.029.31.094.675.326.982.31.408.78.66 1.292.691.384.023.723-.125.998-.273.274-.15.601-.367.98-.62l.03-.02 1.515-1.01.027-.018c.31-.207.585-.39.794-.558.215-.173.444-.395.574-.709a1.75 1.75 0 0 0 0-1.34c-.13-.314-.359-.536-.574-.71-.209-.167-.483-.35-.794-.557l-.027-.018-1.516-1.01zm-2.093.672a.25.25 0 0 1 .16-.086c.018.005.08.024.21.094.206.112.475.29.892.568l1.515 1.01c.346.231.562.377.71.496a.856.856 0 0 1 .135.125c.02.056.02.118 0 .174a.856.856 0 0 1-.134.125c-.149.12-.365.265-.71.495l-1.516 1.01c-.417.278-.686.457-.893.569-.13.07-.191.089-.209.094a.25.25 0 0 1-.16-.086 1.044 1.044 0 0 1-.038-.226 13.333 13.333 0 0 1-.022-1.058v-2.02c0-.5 0-.824.022-1.058.014-.147.032-.209.038-.226z"
        fill="currentColor"
      ></path>
    </g>
  </svg>