<svg viewBox="0 0 24 24" xmlns="http://www.w3.org/2000/svg">
    <g fill="none">
      <path
        fill-rule="evenodd"
        clip-rule="evenodd"
        d="M7.25 2A.75.75 0 0 1 8 1.25h8a.75.75 0 0 1 0 1.5H8A.75.75 0 0 1 7.25 2zM6 4.25a.75.75 0 0 0 0 1.5h12a.75.75 0 0 0 0-1.5H6zm.8 3h-.032c-.813 0-1.469 0-2 .043-.546.045-1.026.14-1.47.366a3.75 3.75 0 0 0-1.64 1.639c-.226.444-.32.924-.365 1.47-.043.531-.043 1.187-.043 2v4.464c0 .813 0 1.469.043 2 .045.546.14 1.026.366 1.47a3.75 3.75 0 0 0 1.639 1.64c.444.226.924.32 1.47.365.531.043 1.187.043 2 .043h10.464c.813 0 1.469 0 2-.043.546-.045 1.026-.14 1.47-.366a3.75 3.75 0 0 0 1.64-1.639c.226-.444.32-.924.365-1.47.043-.531.043-1.187.043-2v-4.464c0-.813 0-1.469-.043-2-.045-.546-.14-1.026-.366-1.47a3.75 3.75 0 0 0-1.639-1.64c-.444-.226-.924-.32-1.47-.365-.531-.043-1.187-.043-2-.043H6.8zM3.979 8.995c.197-.1.458-.17.912-.207.462-.037 1.057-.038 1.909-.038h10.4c.852 0 1.447 0 1.91.038.453.037.714.107.912.207.423.216.767.56.983.984.1.197.17.458.207.912.037.462.038 1.056.038 1.909v4.4c0 .852 0 1.447-.038 1.91-.038.453-.107.714-.207.912-.216.423-.56.767-.983.983-.198.1-.459.17-.913.207-.462.037-1.057.038-1.909.038H6.8c-.852 0-1.447 0-1.91-.038-.453-.038-.714-.107-.911-.207a2.25 2.25 0 0 1-.984-.983c-.1-.198-.17-.459-.207-.913-.037-.462-.038-1.057-.038-1.909v-4.4c0-.853 0-1.447.038-1.91.037-.453.107-.714.207-.911a2.25 2.25 0 0 1 .984-.984zm8.925 3.04l-.03-.02c-.379-.253-.706-.47-.98-.62-.275-.148-.614-.296-.998-.273a1.75 1.75 0 0 0-1.292.69c-.232.308-.297.672-.326.983-.028.31-.028.704-.028 1.16V16.045c0 .456 0 .85.028 1.16.029.31.094.675.326.982.31.408.78.66 1.292.691.384.023.723-.125.998-.273.274-.15.601-.367.98-.62l.03-.02 1.515-1.01.027-.018c.31-.207.585-.39.794-.558.215-.174.444-.395.574-.709a1.75 1.75 0 0 0 0-1.34c-.13-.314-.359-.536-.574-.71-.209-.167-.483-.35-.794-.557l-.027-.018-1.516-1.01zm-2.094.671a.25.25 0 0 1 .16-.086c.018.005.08.024.21.094.206.112.475.29.892.568l1.515 1.01c.346.231.562.377.71.496a.856.856 0 0 1 .135.125c.02.056.02.118 0 .174a.856.856 0 0 1-.134.125c-.149.12-.365.265-.71.495l-1.516 1.01c-.417.278-.686.457-.893.569-.13.07-.191.089-.209.094a.25.25 0 0 1-.16-.086 1.044 1.044 0 0 1-.038-.226 13.333 13.333 0 0 1-.022-1.058v-2.02c0-.5 0-.824.022-1.058.014-.147.032-.209.038-.226z"
        fill="currentColor"
      ></path>
    </g>
  </svg>