<svg viewBox="0 0 24 24" xmlns="http://www.w3.org/2000/svg">
    <g fill="none">
      <path
        fill-rule="evenodd"
        clip-rule="evenodd"
        d="M2.53 1.47a.75.75 0 0 0-1.06 1.06l4.72 4.72h-.02c-.535 0-.98 0-1.345.03-.38.03-.736.098-1.073.27A2.75 2.75 0 0 0 2.55 8.752c-.172.337-.24.693-.27 1.073-.03.365-.03.81-.03 1.345V12.83c0 .535 0 .98.03 1.345.03.38.098.736.27 1.073a2.75 2.75 0 0 0 1.202 1.202c.337.172.693.24 1.073.27.365.03.81.03 1.345.03H7.5c.592 0 .75.006.887.043.141.038.275.1.395.185.116.081.222.2.6.653l1.212 1.454.023.028c.416.5.76.912 1.048 1.203.267.27.626.588 1.086.654a1.75 1.75 0 0 0 1.547-.56c.312-.345.384-.82.416-1.198.035-.409.035-.945.035-1.595v-1.806l6.72 6.72a.75.75 0 1 0 1.06-1.061l-8-8-6-6-6-6zM6.2 8.75h1.49l5.56 5.56v3.27c0 .696 0 1.168-.03 1.504-.019.223-.047.316-.055.341a.25.25 0 0 1-.172.063 1.604 1.604 0 0 1-.261-.227c-.237-.24-.54-.602-.985-1.136l-1.211-1.454-.053-.063c-.301-.362-.538-.646-.837-.857a2.75 2.75 0 0 0-.868-.407c-.353-.095-.724-.094-1.195-.094H6.2c-.572 0-.957 0-1.253-.025-.287-.023-.424-.065-.514-.111a1.25 1.25 0 0 1-.547-.546c-.046-.091-.088-.228-.111-.515-.024-.296-.025-.68-.025-1.253v-1.6c0-.572 0-.957.025-1.253.023-.287.065-.424.111-.514a1.25 1.25 0 0 1 .547-.547c.09-.046.227-.088.514-.111.296-.024.68-.025 1.253-.025zm6.727-4.226a.054.054 0 0 0 .002-.002.25.25 0 0 1 .279.101v.004c.005.02.018.09.028.243.014.234.014.558.014 1.035V10a.75.75 0 0 0 1.5 0V5.88c0-.446 0-.815-.017-1.1-.016-.263-.05-.59-.203-.867a1.75 1.75 0 0 0-2.162-.783c-.294.114-.53.345-.711.537-.195.208-.432.491-.717.834l-.016.019-.833 1a.75.75 0 0 0 1.152.96l.833-1c.306-.367.513-.615.674-.786.105-.111.16-.156.177-.17zm4.45 1.06a.75.75 0 0 1 1.04-.208C20.435 6.725 21.75 9.207 21.75 12c0 1.174-.232 2.29-.648 3.289-.161.386-.35.755-.564 1.103a.75.75 0 1 1-1.278-.784c.172-.282.326-.581.457-.897.34-.816.533-1.735.533-2.711 0-2.335-1.099-4.33-2.666-5.376a.75.75 0 0 1-.208-1.04zm-1 4a.75.75 0 0 1 1.04-.208c.823.55 1.333 1.54 1.333 2.624 0 .457-.09.894-.255 1.289a.75.75 0 0 1-1.384-.578c.088-.21.139-.452.139-.711 0-.626-.295-1.128-.666-1.376a.75.75 0 0 1-.208-1.04z"
        fill="currentColor"
      ></path>
    </g>
  </svg>