<svg viewBox="0 0 24 24" xmlns="http://www.w3.org/2000/svg">
    <g fill="none">
      <path
        fill-rule="evenodd"
        clip-rule="evenodd"
        d="M13.3 3.59a1.75 1.75 0 0 0-1.548-.56c-.46.066-.819.384-1.086.655-.289.29-.632.703-1.048 1.202l-.023.028L8.383 6.37c-.378.454-.484.572-.6.653a1.25 1.25 0 0 1-.395.185c-.137.037-.295.043-.887.043H5.17c-.535 0-.98 0-1.345.03-.38.031-.736.098-1.073.27A2.75 2.75 0 0 0 1.55 8.752c-.172.337-.24.694-.27 1.074-.03.364-.03.81-.03 1.344V12.83c0 .535 0 .98.03 1.345.03.38.098.736.27 1.074a2.75 2.75 0 0 0 1.202 1.202c.337.171.693.238 1.073.27.365.03.81.03 1.345.03H6.5c.592 0 .75.005.887.042.141.038.275.1.395.185.116.082.222.2.6.654l1.212 1.453.023.028c.416.5.76.912 1.048 1.203.267.27.626.589 1.086.655a1.75 1.75 0 0 0 1.547-.56c.312-.346.384-.82.416-1.2.035-.407.035-.944.035-1.594V6.383c0-.65 0-1.186-.035-1.594-.032-.38-.104-.854-.416-1.199zm-1.568 1.15c.158-.16.239-.213.26-.228a.25.25 0 0 1 .173.063c.008.025.036.118.056.342.028.336.029.807.029 1.503V17.58c0 .695 0 1.167-.03 1.503a1.6 1.6 0 0 1-.055.342.25.25 0 0 1-.172.062 1.61 1.61 0 0 1-.261-.227c-.237-.24-.54-.602-.985-1.136l-1.211-1.453-.053-.064c-.301-.361-.538-.646-.837-.857a2.75 2.75 0 0 0-.868-.406c-.353-.095-.724-.095-1.195-.095H5.2c-.572 0-.957 0-1.253-.024-.287-.024-.424-.066-.514-.112a1.25 1.25 0 0 1-.547-.546c-.046-.09-.088-.228-.111-.515-.024-.296-.025-.68-.025-1.253v-1.6c0-.572 0-.956.025-1.252.023-.287.065-.425.111-.515a1.25 1.25 0 0 1 .547-.547c.09-.046.227-.088.514-.111.296-.024.68-.025 1.253-.025h1.383c.471 0 .842 0 1.195-.094a2.75 2.75 0 0 0 .868-.407c.299-.21.536-.495.837-.857l.053-.063 1.211-1.454c.445-.534.748-.896.985-1.135zm5.798 4.73a.75.75 0 1 0-1.06 1.06l1.97 1.97-1.97 1.97a.75.75 0 0 0 1.06 1.06l1.97-1.97 1.97 1.97a.75.75 0 1 0 1.06-1.06l-1.97-1.97 1.97-1.97a.75.75 0 0 0-1.06-1.06l-1.97 1.97-1.97-1.97z"
        fill="currentColor"
      ></path>
    </g>
  </svg>