<svg viewBox="0 0 24 24" xmlns="http://www.w3.org/2000/svg">
    <g fill="none">
      <path
        fill-rule="evenodd"
        clip-rule="evenodd"
        d="M16.3 3.59a1.75 1.75 0 0 0-1.548-.56c-.46.066-.819.384-1.086.654-.289.292-.632.704-1.048 1.203l-.023.028-1.212 1.454c-.378.454-.484.572-.6.653a1.25 1.25 0 0 1-.395.185c-.137.037-.295.043-.887.043H8.17c-.535 0-.98 0-1.345.03-.38.031-.736.098-1.073.27A2.75 2.75 0 0 0 4.55 8.752c-.172.337-.24.694-.27 1.074-.03.364-.03.81-.03 1.344V12.83c0 .535 0 .98.03 1.345.03.38.098.736.27 1.074a2.75 2.75 0 0 0 1.202 1.202c.337.171.693.238 1.073.27.365.03.81.03 1.345.03H9.5c.592 0 .75.005.887.042.141.038.275.1.395.185.116.082.222.2.6.654l1.212 1.453.023.028c.416.5.76.912 1.048 1.203.267.27.626.589 1.086.655a1.75 1.75 0 0 0 1.547-.56c.312-.346.384-.82.416-1.2.035-.407.035-.944.035-1.594V6.383c0-.65 0-1.186-.035-1.594-.032-.38-.104-.854-.416-1.2zm-1.568 1.15c.158-.16.239-.213.26-.228a.25.25 0 0 1 .173.063c.008.025.036.118.056.342.028.336.029.807.029 1.502v11.162c0 .695 0 1.167-.03 1.503-.019.224-.047.316-.055.342a.25.25 0 0 1-.172.062 1.61 1.61 0 0 1-.261-.227c-.237-.24-.54-.602-.985-1.136l-1.211-1.453-.053-.064c-.301-.361-.538-.646-.837-.857a2.749 2.749 0 0 0-.868-.406c-.353-.095-.724-.095-1.195-.095H8.2c-.572 0-.957 0-1.253-.025-.287-.023-.424-.065-.514-.111a1.25 1.25 0 0 1-.547-.546c-.046-.09-.088-.228-.111-.515-.024-.296-.025-.68-.025-1.253v-1.6c0-.572 0-.957.025-1.252.023-.287.065-.425.111-.515a1.25 1.25 0 0 1 .547-.547c.09-.046.227-.088.514-.111.296-.024.68-.025 1.253-.025h1.383c.471 0 .842 0 1.195-.094.31-.084.605-.222.868-.407.299-.21.536-.495.837-.857l.053-.063 1.211-1.454c.445-.534.748-.896.985-1.135zm4.684 4.636a.75.75 0 1 0-.832 1.248c.371.248.666.75.666 1.376 0 .626-.295 1.128-.666 1.377a.75.75 0 1 0 .832 1.247c.824-.55 1.334-1.54 1.334-2.624 0-1.083-.51-2.073-1.334-2.624z"
        fill="currentColor"
      ></path>
    </g>
  </svg>