<svg viewBox="0 0 24 24" xmlns="http://www.w3.org/2000/svg">
    <g fill="none">
      <path
        fill-rule="evenodd"
        clip-rule="evenodd"
        d="M15.752 3.03a1.75 1.75 0 0 1 1.547.56c.312.345.384.82.416 1.199.035.408.035.945.035 1.594v11.234c0 .65 0 1.187-.035 1.595-.032.379-.104.853-.416 1.198a1.75 1.75 0 0 1-1.547.56c-.46-.065-.819-.384-1.086-.654-.289-.291-.632-.704-1.048-1.203l-.023-.028-1.212-1.453c-.378-.455-.484-.572-.6-.654a1.251 1.251 0 0 0-.395-.185c-.137-.037-.295-.043-.887-.043H9.17c-.535 0-.98 0-1.345-.03-.38-.03-.736-.098-1.073-.27A2.75 2.75 0 0 1 5.55 15.25c-.172-.338-.24-.694-.27-1.074-.03-.364-.03-.81-.03-1.344V11.17c0-.534 0-.98.03-1.344.03-.38.098-.737.27-1.074A2.75 2.75 0 0 1 6.752 7.55c.337-.172.693-.239 1.073-.27.365-.03.81-.03 1.345-.03H10.5c.592 0 .75-.006.887-.043.141-.038.275-.1.395-.185.116-.081.222-.199.6-.653l1.212-1.454.023-.028c.416-.499.76-.911 1.048-1.202.267-.27.626-.59 1.086-.655zm.24 1.482a1.607 1.607 0 0 0-.26.228c-.237.24-.54.601-.985 1.135L13.536 7.33l-.053.063c-.301.362-.538.647-.837.857a2.749 2.749 0 0 1-.868.407c-.353.095-.724.095-1.195.094H9.2c-.572 0-.957 0-1.253.025-.287.023-.424.065-.514.111a1.25 1.25 0 0 0-.547.547c-.046.09-.088.228-.111.515-.024.296-.025.68-.025 1.252v1.6c0 .573 0 .957.025 1.253.023.287.065.424.111.515.12.235.311.426.547.546.09.046.227.088.514.111.296.025.68.025 1.253.025h1.383c.471 0 .842 0 1.195.095.31.083.605.221.868.406.299.21.536.496.837.857l.053.064 1.211 1.453c.445.534.748.896.985 1.136.158.16.239.213.26.227a.25.25 0 0 0 .173-.062 1.6 1.6 0 0 0 .056-.342c.028-.336.029-.808.029-1.503V6.42c0-.696 0-1.167-.03-1.503a1.602 1.602 0 0 0-.055-.342.25.25 0 0 0-.172-.063z"
        fill="currentColor"
      ></path>
    </g>
  </svg>