<svg viewBox="0 0 24 24" xmlns="http://www.w3.org/2000/svg">
    <g fill="none">
      <path
        fill-rule="evenodd"
        clip-rule="evenodd"
        d="M11.123 1.25h1.754c.746 0 1.33-.001 1.84.21a2.75 2.75 0 0 1 1.13.868c.335.437.485 1.002.676 1.724l.035.13.1.378c.172.057.337.126.498.208a4.75 4.75 0 0 1 2.076 2.076c.281.55.403 1.154.461 1.868.057.697.057 1.563.057 2.655V12.633c0 1.092 0 1.958-.057 2.655-.058.714-.18 1.317-.46 1.868a4.75 4.75 0 0 1-2.076 2.076c-.162.082-.327.15-.498.208l-.1.378-.036.13c-.191.722-.341 1.287-.676 1.724a2.75 2.75 0 0 1-1.13.868c-.51.211-1.094.21-1.84.21h-1.754c-.746 0-1.33.001-1.84-.21a2.75 2.75 0 0 1-1.13-.868c-.335-.437-.485-1.002-.676-1.724l-.035-.13-.1-.378a3.61 3.61 0 0 1-.498-.208 4.75 4.75 0 0 1-2.076-2.076c-.281-.55-.403-1.154-.461-1.868-.057-.697-.057-1.563-.057-2.655V11.367c0-1.092 0-1.958.057-2.655.058-.714.18-1.317.46-1.868a4.75 4.75 0 0 1 2.077-2.076c.16-.082.326-.15.497-.208l.1-.378.036-.13c.191-.722.341-1.287.676-1.724a2.75 2.75 0 0 1 1.13-.868c.51-.211 1.094-.21 1.84-.21zM8.966 19.71c.188.69.263.9.378 1.05.134.174.31.31.514.395.196.081.452.095 1.4.095h1.484c.948 0 1.204-.014 1.4-.095.203-.085.38-.22.514-.395.115-.15.19-.36.378-1.05-.651.04-1.438.04-2.401.04H11.367c-.963 0-1.75 0-2.4-.04zm5.69-16.47c.115.15.19.36.378 1.049-.651-.039-1.438-.039-2.401-.039H11.367c-.963 0-1.75 0-2.4.039.187-.69.262-.9.377-1.05.134-.173.31-.31.514-.394.196-.081.452-.095 1.4-.095h1.484c.948 0 1.204.014 1.4.095.203.084.38.22.514.395zM7.525 6.104c.304-.155.688-.251 1.309-.302.63-.051 1.434-.052 2.566-.052h1.2c1.133 0 1.937 0 2.566.052.62.05 1.005.147 1.31.302a3.25 3.25 0 0 1 1.42 1.42c.155.305.251.69.302 1.31.051.63.052 1.434.052 2.566v1.2c0 1.133 0 1.937-.052 2.566-.05.62-.147 1.005-.302 1.31a3.25 3.25 0 0 1-1.42 1.42c-.305.155-.69.251-1.31.302-.63.051-1.434.052-2.566.052h-1.2c-1.133 0-1.937 0-2.566-.052-.62-.05-1.005-.147-1.31-.302a3.25 3.25 0 0 1-1.42-1.42c-.155-.305-.251-.69-.302-1.31-.051-.63-.052-1.434-.052-2.566v-1.2c0-1.133 0-1.937.052-2.566.05-.62.147-1.005.302-1.31a3.25 3.25 0 0 1 1.42-1.42zM12.75 10a.75.75 0 0 0-1.5 0v2c0 .25.125.485.334.624l1.5 1a.75.75 0 1 0 .832-1.248l-1.166-.777V10z"
        fill="currentColor"
      ></path>
    </g>
  </svg>