<svg viewBox="0 0 24 24" xmlns="http://www.w3.org/2000/svg">
    <g fill="none">
      <path
        fill-rule="evenodd"
        clip-rule="evenodd"
        d="M11.361 1.25h1.278c.757 0 1.35-.001 1.865.215.45.19.843.495 1.136.887.334.446.477 1.022.66 1.757l.034.133.394 1.576a.84.84 0 0 1 .01.049A7.737 7.737 0 0 1 19.75 12a7.737 7.737 0 0 1-3.012 6.133.822.822 0 0 1-.01.049l-.394 1.576-.034.133c-.183.735-.326 1.31-.66 1.757a2.75 2.75 0 0 1-1.136.887c-.515.216-1.108.216-1.865.215H11.36c-.757 0-1.35.001-1.865-.215a2.75 2.75 0 0 1-1.136-.887c-.334-.446-.477-1.022-.66-1.757l-.034-.133-.394-1.576a.767.767 0 0 1-.01-.048A7.737 7.737 0 0 1 4.25 12a7.737 7.737 0 0 1 3.012-6.133.763.763 0 0 1 .01-.049l.394-1.576.034-.133c.183-.735.326-1.31.66-1.757a2.75 2.75 0 0 1 1.136-.887c.515-.216 1.108-.216 1.865-.215zM9.067 19.176l.055.218c.233.934.31 1.183.439 1.355.133.178.311.317.516.403.199.084.459.098 1.421.098h1.004c.962 0 1.222-.014 1.42-.098a1.25 1.25 0 0 0 .517-.403c.129-.172.206-.42.44-1.355l.054-.218A7.727 7.727 0 0 1 12 19.75a7.727 7.727 0 0 1-2.933-.574zm5.811-14.57l.055.218A7.728 7.728 0 0 0 12 4.25a7.727 7.727 0 0 0-2.933.574l.055-.218c.233-.934.31-1.183.439-1.355a1.25 1.25 0 0 1 .516-.403c.199-.084.459-.098 1.421-.098h1.004c.962 0 1.222.014 1.42.098.205.086.384.225.517.403.129.172.206.42.44 1.355zM5.75 12a6.25 6.25 0 1 1 12.5 0 6.25 6.25 0 0 1-12.5 0zm7-2a.75.75 0 0 0-1.5 0v2c0 .25.125.485.334.624l1.5 1a.75.75 0 0 0 .832-1.248l-1.166-.777V10z"
        fill="currentColor"
      ></path>
    </g>
  </svg>