<svg viewBox="0 0 24 24" xmlns="http://www.w3.org/2000/svg">
    <g fill="none">
      <path
        fill-rule="evenodd"
        clip-rule="evenodd"
        d="M8.54975 7.50078C8.54975 5.5954 10.0944 4.05078 11.9998 4.05078C13.9051 4.05078 15.4498 5.5954 15.4498 7.50078C15.4498 7.91499 15.7855 8.25078 16.1998 8.25078C16.614 8.25078 16.9498 7.91499 16.9498 7.50078C16.9498 4.76697 14.7336 2.55078 11.9998 2.55078C9.26594 2.55078 7.04975 4.76697 7.04975 7.50078C7.04975 8.78761 7.54091 9.9592 8.34485 10.839C8.68911 11.2157 8.80682 11.7743 8.54376 12.2116L6.55708 15.5142C6.34356 15.8691 6.4582 16.3299 6.81314 16.5435C7.16808 16.757 7.62891 16.6423 7.84243 16.2874L10.2296 12.319C10.2515 12.2827 10.299 12.2715 10.3348 12.2941C10.3701 12.3165 10.4168 12.306 10.4391 12.2707L10.7998 11.7008C11.0212 11.3508 10.917 10.8875 10.567 10.666L10.4048 10.5633L10.3832 10.5497L10.3607 10.5375C9.28065 9.95305 8.54975 8.81171 8.54975 7.50078ZM18.2366 12.6111C19.8599 13.6088 20.367 15.7335 19.3693 17.3568C18.3716 18.9801 16.2469 19.4873 14.6236 18.4896C14.2707 18.2727 13.8088 18.383 13.5919 18.7359C13.3751 19.0887 13.4853 19.5506 13.8382 19.7675C16.1673 21.199 19.2158 20.4713 20.6473 18.1423C22.0787 15.8132 21.3511 12.7647 19.022 11.3332C17.9257 10.6594 16.6704 10.4644 15.4999 10.6886C14.9987 10.7847 14.4611 10.5924 14.2263 10.1393L12.4529 6.7175C12.2623 6.34974 11.8097 6.20612 11.4419 6.39671C11.0742 6.5873 10.9306 7.03993 11.1212 7.40769L13.252 11.5194C13.2715 11.557 13.2563 11.6034 13.2182 11.622C13.1807 11.6404 13.1652 11.6857 13.1835 11.7232L13.4802 12.3288C13.6625 12.7008 14.1117 12.8546 14.4837 12.6724L14.6561 12.5879L14.679 12.5767L14.7012 12.5639C15.7646 11.9498 17.1197 11.9247 18.2366 12.6111ZM4.55934 17.6755C5.55176 19.302 7.67483 19.816 9.30136 18.8236C10.4204 18.1408 11.014 16.9224 10.9504 15.696L10.9491 15.6705L10.9495 15.6449L10.9526 15.453C10.9594 15.0388 11.3006 14.7086 11.7148 14.7153L12.3891 14.7263C12.4308 14.727 12.4641 14.7614 12.4634 14.8032C12.4627 14.8456 12.4971 14.8803 12.5395 14.88L17.1704 14.8509C17.5846 14.8483 17.9225 15.182 17.9251 15.5962C17.9277 16.0104 17.5941 16.3483 17.1799 16.3509L13.3259 16.3751C12.8156 16.3783 12.4 16.7698 12.2577 17.2598C11.9254 18.4044 11.1811 19.4339 10.0826 20.1041C7.74892 21.528 4.70277 20.7905 3.27887 18.4567C1.85496 16.123 2.5925 13.0769 4.92622 11.653C5.27981 11.4372 5.74135 11.549 5.95709 11.9026C6.17283 12.2562 6.06108 12.7177 5.70749 12.9334C4.08096 13.9259 3.56692 16.0489 4.55934 17.6755Z"
        fill="currentColor"
      ></path>
    </g>
  </svg>