<svg viewBox="0 0 24 24" xmlns="http://www.w3.org/2000/svg">
    <g fill="none">
      <path fill-rule="evenodd"
            clip-rule="evenodd"
            d="M7.8 3.25h-.032c-.813 0-1.469 0-2 .043-.546.045-1.026.14-1.47.366a3.75 3.75 0 0 0-1.64 1.639c-.226.444-.32.924-.365 1.47-.043.531-.043 1.187-.043 2v4.464c0 .813 0 1.469.043 2 .045.546.14 1.026.366 1.47a3.75 3.75 0 0 0 1.639 1.64c.444.226.924.32 1.47.365.531.043 1.187.043 2 .043h7.722c.583 0 .804.002 1.016.031.2.028.395.075.586.139.203.068.402.165.924.426l2.649 1.325A.75.75 0 0 0 21.75 20V8.768c0-.813 0-1.469-.043-2-.045-.546-.14-1.026-.366-1.47a3.75 3.75 0 0 0-1.639-1.64c-.444-.226-.924-.32-1.47-.365-.531-.043-1.187-.043-2-.043H7.8zM4.979 4.995c.197-.1.458-.17.912-.207.462-.037 1.057-.038 1.909-.038h8.4c.852 0 1.447 0 1.91.038.453.037.714.107.912.207.423.216.767.56.983.984.1.197.17.458.207.912.037.462.038 1.057.038 1.909v9.986l-1.563-.781-.048-.024c-.459-.23-.754-.377-1.069-.483a4.747 4.747 0 0 0-.856-.202c-.328-.046-.659-.046-1.172-.046H7.8c-.852 0-1.447 0-1.91-.038-.453-.038-.714-.107-.911-.207a2.25 2.25 0 0 1-.984-.983c-.1-.198-.17-.459-.207-.913-.037-.462-.038-1.056-.038-1.909V8.8c0-.852 0-1.447.038-1.91.037-.453.107-.714.207-.911a2.25 2.25 0 0 1 .984-.984zM7 7.25a.75.75 0 0 0 0 1.5h10a.75.75 0 0 0 0-1.5H7zM7.75 11a.75.75 0 0 1 .75-.75H14a.75.75 0 0 1 0 1.5H8.5a.75.75 0 0 1-.75-.75zM10 13.25a.75.75 0 0 0 0 1.5h7a.75.75 0 0 0 0-1.5h-7z"
            fill="currentColor"
      ></path>
    </g>
  </svg>