<svg viewBox="0 0 24 24" xmlns="http://www.w3.org/2000/svg">
    <g fill="none">
      <path
        fill-rule="evenodd"
        clip-rule="evenodd"
        d="M7.8 2.25h-.032c-.813 0-1.469 0-2 .043-.546.045-1.026.14-1.47.366a3.75 3.75 0 0 0-1.64 1.639c-.226.444-.32.924-.365 1.47-.043.531-.043 1.187-.043 2v8.464c0 .813 0 1.469.043 2 .045.546.14 1.026.366 1.47a3.75 3.75 0 0 0 1.638 1.64c.445.226.925.32 1.471.365.531.043 1.187.043 2 .043h8.464c.813 0 1.469 0 2-.043.546-.045 1.026-.14 1.47-.366a3.75 3.75 0 0 0 1.64-1.639c.226-.444.32-.924.365-1.47.043-.531.043-1.187.043-2V7.768c0-.813 0-1.469-.043-2-.045-.546-.14-1.026-.366-1.47a3.75 3.75 0 0 0-1.639-1.64c-.444-.226-.924-.32-1.47-.365-.531-.043-1.187-.043-2-.043H7.8zM4.978 3.995c.198-.1.459-.17.913-.207.462-.037 1.056-.038 1.909-.038h8.4c.852 0 1.447 0 1.91.038.453.037.714.107.911.207.424.216.768.56.984.984.1.197.17.458.207.912.037.462.038 1.057.038 1.909v8.4c0 .852 0 1.447-.038 1.91-.038.453-.107.714-.207.912a2.25 2.25 0 0 1-.984.983c-.197.1-.458.17-.912.207-.462.037-1.057.038-1.91.038H7.8c-.852 0-1.446 0-1.908-.038-.454-.038-.715-.107-.913-.207a2.25 2.25 0 0 1-.983-.983c-.1-.198-.17-.459-.207-.913-.037-.462-.038-1.057-.038-1.909V7.8c0-.852 0-1.447.038-1.91.037-.453.107-.714.207-.911a2.25 2.25 0 0 1 .983-.984zM10 16.25a.75.75 0 0 0 0 1.5h4a.75.75 0 1 0 0-1.5h-4zm2-8.5c-1.708 0-3.007.473-3.906.973-.2.11-.28.158-.348.212a1.082 1.082 0 0 0-.221.26 1.557 1.557 0 0 0-.143.361 1.557 1.557 0 0 0-.07.382c.01.273.074.412.409 1.015l.02.037c.358.644.462.812.589.93.13.12.286.211.455.267.163.054.36.063 1.098.063h.716l-1.223-1.834a.75.75 0 1 1 1.248-.832l1.777 2.666h1.716c.737 0 .934-.009 1.098-.063.17-.056.324-.147.455-.268.127-.117.23-.285.589-.93l.02-.036c.335-.603.398-.742.408-1.015a1.552 1.552 0 0 0-.07-.382 1.558 1.558 0 0 0-.142-.36 1.083 1.083 0 0 0-.221-.26 2.535 2.535 0 0 0-.348-.213c-.9-.5-2.199-.973-3.906-.973zm.012 6h2.208c.584 0 1.043 0 1.466-.139a2.751 2.751 0 0 0 1-.589c.328-.302.55-.703.834-1.213l.05-.09.02-.037.034-.06c.296-.534.539-.969.562-1.63a2.9 2.9 0 0 0-.126-.848 2.904 2.904 0 0 0-.34-.786 2.555 2.555 0 0 0-.528-.593 3.69 3.69 0 0 0-.534-.34l-.023-.013C15.545 6.806 13.997 6.25 12 6.25c-1.997 0-3.545.556-4.635 1.162l-.024.013a3.692 3.692 0 0 0-.533.34c-.2.16-.363.348-.528.593a2.904 2.904 0 0 0-.34.786 2.904 2.904 0 0 0-.126.848c.023.661.265 1.096.562 1.63l.034.06.02.036.05.09c.283.511.506.912.833 1.214.288.266.63.466 1.001.59.423.139.882.139 1.466.138H11.99a.8.8 0 0 0 .022 0z"
        fill="currentColor"
      ></path>
    </g>
  </svg>