<svg viewBox="0 0 24 24" xmlns="http://www.w3.org/2000/svg">
    <g fill="none">
      <path
        fill-rule="evenodd"
        clip-rule="evenodd"
        d="M19.336 3.119a.75.75 0 0 1-.209.657L15.55 7.353c-.206.207-.33.33-.413.429a.622.622 0 0 0-.073.098.249.249 0 0 0 0 .148.622.622 0 0 0 .073.098c.084.098.207.222.413.429l.566.566c.207.206.33.329.43.413.06.051.089.068.097.073a.25.25 0 0 0 .148 0 .631.631 0 0 0 .098-.073c.099-.084.222-.207.43-.413l3.576-3.577a.75.75 0 0 1 1.207.207 6.753 6.753 0 0 1-8.508 9.214l-6.246 6.247a2.75 2.75 0 1 1-3.89-3.89l6.247-6.246A6.751 6.751 0 0 1 18.92 2.57a.75.75 0 0 1 .416.55zM16.79 9.608h.001-.001zm-.143 0h-.002.002zm-1.583-1.583v.002-.002zm0-.144v.001-.001zm2.165-4.328a5.252 5.252 0 0 0-5.957 7.371.75.75 0 0 1-.146.854l-6.606 6.606a1.25 1.25 0 0 0 1.768 1.767l6.606-6.605a.75.75 0 0 1 .853-.146 5.252 5.252 0 0 0 7.372-5.958l-2.74 2.74-.018.018c-.182.182-.349.349-.5.477a1.773 1.773 0 0 1-.602.355 1.75 1.75 0 0 1-1.082 0 1.773 1.773 0 0 1-.602-.355 9.078 9.078 0 0 1-.5-.477l-.019-.019-.565-.566-.019-.018a9.064 9.064 0 0 1-.478-.5 1.774 1.774 0 0 1-.354-.602 1.75 1.75 0 0 1 0-1.082c.08-.246.216-.439.354-.602a9.06 9.06 0 0 1 .478-.5l.019-.019 2.739-2.739z"
        fill="currentColor"
      ></path>
    </g>
  </svg>