<svg viewBox="0 0 24 24" xmlns="http://www.w3.org/2000/svg">
    <g fill="none">
      <path
        fill-rule="evenodd"
        clip-rule="evenodd"
        d="M12 3.75C9.576 3.75 7.75 5.5 7.75 7.5s1.826 3.75 4.25 3.75c3.1 0 5.75 2.278 5.75 5.25a4.85 4.85 0 0 1-.304 1.697A8.25 8.25 0 0 0 12 3.75zm0 18c5.385 0 9.75-4.365 9.75-9.75S17.385 2.25 12 2.25 2.25 6.615 2.25 12s4.365 9.75 9.75 9.75zm0-1.5c2.423 0 4.25-1.751 4.25-3.75s-1.827-3.75-4.25-3.75c-3.1 0-5.75-2.278-5.75-5.25 0-.598.107-1.168.304-1.697A8.25 8.25 0 0 0 12 20.25zM12 8a1 1 0 1 0 0-2 1 1 0 0 0 0 2zm1 9a1 1 0 1 1-2 0 1 1 0 0 1 2 0z"
        fill="currentColor"
      ></path>
    </g>
  </svg>