<svg viewBox="0 0 24 24" xmlns="http://www.w3.org/2000/svg">
    <g fill="none">
      <path
        fill-rule="evenodd"
        clip-rule="evenodd"
        d="M11 3.75a7.25 7.25 0 1 0 0 14.5 7.25 7.25 0 0 0 0-14.5zM2.25 11a8.75 8.75 0 1 1 15.445 5.634l2.835 2.836a.75.75 0 1 1-1.06 1.06l-2.836-2.835A8.75 8.75 0 0 1 2.25 11zm9.5-3a.75.75 0 0 0-1.5 0v2.25H8a.75.75 0 0 0 0 1.5h2.25V14a.75.75 0 0 0 1.5 0v-2.25H14a.75.75 0 0 0 0-1.5h-2.25V8z"
        fill="currentColor"
      ></path>
    </g>
  </svg>